<?xml version="1.0" encoding="UTF-8"?>
<svg id="Layer_1" xmlns="http://www.w3.org/2000/svg" version="1.1" viewBox="0 0 75.6 85.89">
  <!-- Generator: Adobe Illustrator 29.7.1, SVG Export Plug-In . SVG Version: 2.1.1 Build 8)  -->
  <defs>
    <style>
      .st0, .st1 {
        fill: #f9ddd9;
        stroke: #020202;
        stroke-miterlimit: 10;
      }

      .st1 {
        stroke-width: 2px;
      }
    </style>
  </defs>
  <path class="st1" d="M4.46,50.34c6.9.75,13.71,1.48,20.64,2.23-.21.31-.37.56-.54.78-1.34,1.75-2.67,3.5-4.04,5.23-3.62,4.57-7.26,9.13-10.89,13.7-.42.53-.81,1.07-1.21,1.6.39.67,7.9,7.19,9.28,8.05,5.43-7.05,10.86-14.1,16.37-21.26,1.66,3.04,3.08,6.1,4.61,9.09,1.53,2.98,3.03,5.98,4.64,9.16.13-.36.21-.55.25-.74,1.54-6.51,3.07-13.02,4.6-19.53,2.7-11.48,5.4-22.97,8.1-34.45.52-2.19,1.03-4.39,1.54-6.59.04-.16.05-.33.1-.59-.26.1-.44.15-.6.24-1.21.71-2.43,1.41-3.62,2.15-8.75,5.46-17.5,10.93-26.25,16.41-6.37,3.99-12.73,7.99-19.09,11.98-1.21.76-2.42,1.52-3.62,2.28-.08.05-.13.13-.27.26Z"/>
  <path class="st0" d="M42.89,5.79c-.11.41-.05.84.2,1.24,1.37,2.27,2.74,4.53,4.12,6.79.39.64.94,1.02,1.74.94.82-.09,1.29-.59,1.59-1.31.22-.51.1-.98-.17-1.43-.47-.77-.94-1.54-1.4-2.31-.73-1.2-1.45-2.39-2.18-3.59-.25-.4-.51-.8-.79-1.18-.44-.58-1.04-.74-1.74-.58-.7.17-1.2.67-1.36,1.41Z"/>
  <path class="st0" d="M60.73,15.38c-.19.79.15,1.63.81,2.09.66.46,1.31.39,1.96-.03,1.34-.87,2.69-1.74,4.04-2.6.82-.52,1.65-1.03,2.48-1.55.41-.26.76-.57.88-1.07.17-.71.08-1.35-.51-1.84-.58-.48-1.23-.66-1.95-.32-.32.15-.62.32-.92.51-1.95,1.22-3.89,2.45-5.84,3.67-.46.29-.84.63-.95,1.12Z"/>
  <path class="st0" d="M63.39,38.19c.61.09,1.19-.1,1.66-.64.45-.53.55-1.11.3-1.75-.09-.23-.21-.45-.35-.67-1.23-2.01-2.46-4.01-3.7-6.01-.14-.23-.3-.47-.47-.67-.59-.68-1.49-.81-2.24-.33-.76.48-.99,1.23-.65,2.09.06.16.14.32.23.47,1.27,2.16,2.55,4.31,3.82,6.47.31.52.7.9,1.4,1.05Z"/>
  <path class="st0" d="M40.42,19.93c1.24.28,2.49.56,3.73.85.74.18,1.33-.06,1.81-.62.77-.89.47-2.22-.6-2.69-.27-.12-.57-.19-.86-.26-2.36-.55-4.72-1.09-7.09-1.63-.99-.23-1.99.36-2.24,1.28-.23.87.42,1.95,1.38,2.19,1.28.32,2.58.6,3.87.89,0,0,0,0,0-.01Z"/>
  <path class="st0" d="M55.27,7.72c-.28,1.22-.5,2.46-.85,3.65-.29.98.59,1.95,1.31,2.14.93.24,1.84-.23,2.16-1.14.06-.16.1-.34.14-.51.53-2.29,1.06-4.58,1.58-6.87.19-.84-.06-1.48-.75-1.96-.66-.46-1.32-.38-1.98-.01-.44.24-.7.6-.81,1.11-.25,1.2-.54,2.39-.81,3.59h0Z"/>
  <path class="st0" d="M67.83,22.55c-1.24-.28-2.49-.56-3.73-.85-.61-.15-1.14-.02-1.6.41-.98.92-.69,2.44.56,2.94.18.07.38.14.57.18,2.37.54,4.73,1.09,7.1,1.63.92.21,1.54-.04,2.01-.77.41-.64.34-1.46-.16-2.1-.28-.36-.66-.52-1.09-.61-1.22-.28-2.44-.56-3.66-.84v.02Z"/>
</svg>