<?xml version="1.0" encoding="UTF-8"?>
<svg id="Layer_1" xmlns="http://www.w3.org/2000/svg" version="1.1" viewBox="0 0 389.83 203.14">
  <!-- Generator: Adobe Illustrator 29.7.1, SVG Export Plug-In . SVG Version: 2.1.1 Build 8)  -->
  <defs>
    <style>
      .st0, .st1 {
        fill: #fff;
      }

      .st2 {
        opacity: .3;
      }

      .st3 {
        fill: #050505;
        stroke: #020202;
        stroke-width: 11.84px;
      }

      .st3, .st1 {
        stroke-miterlimit: 10;
      }

      .st1 {
        stroke: #fff;
        stroke-width: 11.43px;
      }

      .st4 {
        fill: #50b3b7;
      }

      .st5 {
        fill: #e3930a;
      }
    </style>
  </defs>
  <g>
    <g class="st2">
      <path class="st3" d="M25.93,103.04c-.27.38-.45.88-.46,1.36,0,.24.03.48.09.69l.05.16s.05.12.03.08l-.03-.08-.23-.63-.41-1.24c-.24-.82-.47-1.64-.65-2.47-.39-1.65-.63-3.31-.78-4.97-.27-3.34-.08-6.72.69-10.05,1.45-6.68,5.61-12.98,11.41-17.76,5.86-4.78,13.35-8.01,21.22-9.54,7.89-1.56,16.16-1.29,23.87.4l-3.81,1.79h0c2.58-7.45,7.11-14.4,13.42-20.24,3.15-2.91,6.76-5.51,10.71-7.71,3.97-2.18,8.29-3.92,12.79-5.23,4.51-1.3,9.2-2.16,13.95-2.53,4.75-.36,9.54-.26,14.26.25,9.46.98,18.51,3.84,26.57,7.91h0l-4.9.95c5.14-7.09,12.05-13.43,20.53-18.1,8.39-4.75,18.31-7.83,28.63-8.69,10.32-.95,21.01.67,30.41,4.32,9.42,3.69,17.5,9.18,23.87,15.92h0l-6.71-.97c6.71-3.57,14.4-5.96,22.39-6.8,7.99-.81,16.27-.08,23.87,2.27,3.81,1.15,7.4,2.77,10.7,4.71,3.3,1.94,6.32,4.21,8.89,6.76,5.15,5.13,8.72,11.01,10.65,17.47h0l-5.11-3.12c8.33-.21,16.7,1.43,23.87,4.8,7.17,3.36,13.1,8.47,16.62,14.56,3.57,6.08,4.53,13.06,2.97,19.51-1.54,6.48-5.43,12.46-10.9,17.15h0l-.24-3.22c7.55,5.34,13.29,12.54,15.53,20.63,1.08,4.03,1.41,8.26.49,12.39-.87,4.14-2.95,8.1-5.85,11.53-5.85,6.89-14.86,11.64-24.59,13.72-4.87,1.05-9.93,1.55-14.96,1.34-5.03-.23-9.99-1.06-14.74-2.39l3.82-1.62c-1.66,5.58-4.91,11.09-10.24,15.34-2.65,2.12-5.79,3.82-9.12,5.16-3.36,1.3-6.94,2.11-10.56,2.6-3.63.5-7.29.48-10.91.27-3.62-.25-7.17-.86-10.64-1.67-6.9-1.71-13.36-4.45-19.14-7.91h0l7.77-2.01c-.75,1.92-1.59,3.56-2.57,5.24-.98,1.66-2.06,3.27-3.28,4.82-2.42,3.11-5.32,6.02-8.74,8.55-3.42,2.52-7.31,4.7-11.61,6.22-4.29,1.51-8.85,2.49-13.48,2.82-9.27.74-18.6-1.06-26.64-4.57-8.11-3.46-14.82-8.83-19.7-15.04l8.22.21c-2.48,2.75-5.28,5.31-8.42,7.59-3.19,2.24-6.67,4.2-10.41,5.81s-7.78,2.78-11.93,3.56c-4.16.77-8.48,1.1-12.8.83-4.31-.25-8.61-1.04-12.65-2.38-4.05-1.34-7.81-3.26-11.07-5.58s-6.03-5.01-8.34-7.89c-2.32-2.89-4.18-5.93-5.59-9.26l7.95,1.74c-5.79,4.04-12.63,7.26-20.18,8.79-3.75.8-7.65,1.24-11.59,1.16-3.93-.06-7.9-.52-11.72-1.58-3.81-1.07-7.48-2.7-10.63-4.93-3.17-2.2-5.71-5.04-7.43-8.05-1.72-3.02-2.74-6.21-3.16-9.37-.43-3.18-.42-6.27.14-9.5l6.13,4.5c-7.97,1.7-16.68.98-24.08-2-7.41-2.93-13.59-8.21-16.43-14.69-2.89-6.45-2.43-13.65.78-19.82,1.6-3.09,3.87-5.95,6.68-8.4,1.39-1.24,2.96-2.35,4.59-3.36l1.26-.73.63-.36.3-.17s.01,0,.02.02c.04.07.18.4.64.69l.02.04ZM35.12,106.03c-1.07,1.01-2.48,2.04-3.97,2.82l-.56.28-.24.14-.45.26-.91.52c-1.17.73-2.3,1.51-3.29,2.41-2.01,1.76-3.64,3.81-4.79,6.02-2.31,4.43-2.59,9.52-.6,13.93,1.94,4.42,6.2,8.1,11.49,10.21,5.28,2.13,11.53,2.66,17.26,1.43l7.13-1.52-1,6.02c-.8,4.81-.2,10.12,2.2,14.27,2.34,4.21,6.76,7.21,12.26,8.76,2.74.76,5.71,1.11,8.69,1.16,2.99.07,6.02-.27,8.97-.9,5.93-1.19,11.41-3.77,16.12-7.04l5.55-3.86,2.4,5.59c2.22,5.16,6.1,10.12,11.06,13.66,4.97,3.58,11.28,5.61,17.9,6,3.3.22,6.68-.04,9.96-.65,3.28-.62,6.5-1.54,9.52-2.84,3.01-1.3,5.84-2.9,8.45-4.72,2.56-1.87,4.85-3.97,6.91-6.23l4.31-4.74,3.9,4.95c4,5.07,9.45,9.44,15.98,12.22,6.47,2.82,13.89,4.23,21.07,3.65,3.59-.26,7.09-1.02,10.37-2.17,3.29-1.15,6.27-2.83,8.96-4.81,2.68-1.99,5.04-4.33,7.04-6.89,1-1.28,1.9-2.62,2.71-3.99.81-1.35,1.54-2.83,2.04-4.11l2.13-5.5,5.65,3.5h0c4.74,3.14,10.08,5.7,15.81,7.39,2.87.8,5.82,1.44,8.81,1.77,2.98.29,6.01.44,8.97.15,2.95-.28,5.87-.8,8.58-1.72,2.69-.95,5.23-2.17,7.43-3.75,4.42-3.17,7.52-7.65,9.29-12.5l.89-2.44,2.93.82c4.22,1.18,8.6,1.93,13.04,2.15,4.44.19,8.9-.24,13.18-1.15,8.57-1.8,16.44-5.99,21.41-11.83,2.47-2.91,4.21-6.2,4.96-9.68.8-3.48.53-7.11-.39-10.6-1.91-7.02-6.96-13.45-13.67-18.22l-2.02-1.44,1.78-1.78h0c4.52-4.28,7.5-9.56,8.46-15.02.97-5.46-.2-11.08-3.34-15.81-3.11-4.75-8.09-8.64-13.96-11.08-5.88-2.45-12.56-3.46-19.06-3.04l-4.02.26-1.08-3.38h0c-.72-2.51-1.9-5.07-3.34-7.46-1.46-2.39-3.24-4.64-5.29-6.68-2.05-2.04-4.44-3.82-7.04-5.35-2.6-1.53-5.43-2.82-8.45-3.72-6.02-1.86-12.63-2.46-19.09-1.81-6.46.69-12.71,2.62-18.19,5.53l-3.92,2.08-2.78-3.05h0c-5.17-5.78-12.12-10.76-19.96-14.01-7.85-3.24-16.75-4.8-25.6-4.17-8.84.56-17.56,3.03-25.09,7.07-7.61,3.97-13.97,9.49-18.8,15.78l-1.87,2.43-3.03-1.48h0c-7.21-3.69-15.3-6.3-23.74-7.22-4.21-.48-8.47-.59-12.7-.3-4.22.3-8.38,1.05-12.38,2.17-3.99,1.13-7.82,2.65-11.33,4.55-3.5,1.92-6.71,4.2-9.53,6.78-5.65,5.14-9.85,11.46-12.21,18.11h0l-.77,2.35-3.05-.56c-6.79-1.24-13.91-1.23-20.51.31-6.59,1.52-12.64,4.43-17.17,8.43-2.26,2.01-4.1,4.29-5.53,6.71-1.45,2.42-2.39,5.02-2.85,7.7-.48,2.68-.51,5.42-.14,8.15.19,1.36.46,2.72.84,4.06.18.67.4,1.33.63,1.98l.37.96.19.46.02.06.06.15.08.22c.1.3.17.63.2.96.07.67-.03,1.34-.23,1.9l-.02-.02Z"/>
    </g>
    <path class="st1" d="M31.86,102.99c-.26.37-.43.85-.44,1.32,0,.23.03.46.09.67l.05.15s.05.12.03.08l-.03-.08-.22-.6-.4-1.2c-.23-.79-.46-1.59-.63-2.38-.37-1.59-.61-3.19-.75-4.8-.26-3.22-.07-6.48.66-9.7,1.4-6.45,5.41-12.53,11.01-17.13,5.65-4.61,12.88-7.72,20.47-9.2,7.61-1.5,15.6-1.24,23.03.39l-3.68,1.73h0c2.49-7.19,6.86-13.89,12.95-19.52,3.04-2.81,6.52-5.32,10.34-7.44,3.83-2.11,8-3.79,12.34-5.04,4.35-1.25,8.88-2.09,13.46-2.44,4.58-.34,9.21-.25,13.76.24,9.12.95,17.86,3.71,25.64,7.63h0l-4.73.92c4.96-6.84,11.63-12.95,19.81-17.46,8.09-4.58,17.66-7.55,27.62-8.39,9.96-.91,20.28.65,29.34,4.17,9.09,3.56,16.88,8.86,23.03,15.36h0l-6.47-.93c6.47-3.45,13.89-5.75,21.61-6.56,7.71-.79,15.7-.08,23.03,2.19,3.68,1.11,7.14,2.67,10.33,4.55,3.19,1.87,6.1,4.06,8.57,6.52,4.97,4.95,8.41,10.62,10.27,16.86h0l-4.93-3.01c8.04-.21,16.11,1.38,23.03,4.63,6.92,3.24,12.64,8.17,16.04,14.05,3.45,5.86,4.37,12.6,2.87,18.83-1.49,6.25-5.24,12.03-10.51,16.55h0l-.23-3.1c7.29,5.15,12.82,12.1,14.99,19.9,1.04,3.89,1.36,7.97.47,11.96-.84,3.99-2.85,7.82-5.64,11.12-5.64,6.64-14.34,11.23-23.73,13.24-4.7,1.01-9.58,1.49-14.44,1.3-4.85-.22-9.64-1.03-14.22-2.31l3.68-1.57c-1.61,5.38-4.74,10.7-9.88,14.8-2.56,2.04-5.59,3.69-8.8,4.98-3.24,1.26-6.7,2.03-10.19,2.5-3.5.48-7.04.46-10.53.26-3.49-.24-6.92-.83-10.27-1.61-6.66-1.65-12.89-4.3-18.47-7.63h0l7.5-1.94c-.72,1.85-1.53,3.43-2.48,5.05-.94,1.6-1.99,3.15-3.16,4.65-2.34,3-5.14,5.8-8.43,8.25-3.3,2.43-7.06,4.54-11.21,6-4.14,1.45-8.54,2.4-13,2.73-8.95.71-17.95-1.03-25.7-4.41-7.83-3.34-14.3-8.52-19.01-14.52l7.93.2c-2.4,2.65-5.1,5.12-8.12,7.33-3.08,2.16-6.44,4.05-10.04,5.61-3.61,1.55-7.5,2.68-11.51,3.43-4.01.74-8.18,1.06-12.35.8-4.16-.24-8.3-1.01-12.21-2.3-3.91-1.29-7.54-3.14-10.68-5.38-3.15-2.24-5.82-4.83-8.05-7.61-2.23-2.79-4.04-5.73-5.4-8.94l7.67,1.67c-5.58,3.9-12.19,7.01-19.47,8.48-3.62.77-7.38,1.2-11.18,1.12-3.79-.06-7.62-.5-11.31-1.53-3.68-1.04-7.21-2.61-10.25-4.75-3.06-2.13-5.51-4.86-7.16-7.77-1.66-2.92-2.64-6-3.05-9.04-.41-3.07-.41-6.05.13-9.16l5.91,4.34c-7.69,1.64-16.09.95-23.24-1.93-7.15-2.83-13.11-7.93-15.86-14.17-2.79-6.22-2.35-13.17.75-19.12,1.54-2.98,3.73-5.74,6.45-8.11,1.34-1.2,2.85-2.26,4.43-3.24l1.22-.7.61-.35.29-.17s.01,0,.02.02c.04.07.17.38.62.67h.01ZM40.73,105.87c-1.04.97-2.39,1.97-3.84,2.72l-.54.27-.23.13-.44.25-.87.5c-1.13.7-2.22,1.46-3.17,2.32-1.94,1.69-3.52,3.67-4.62,5.81-2.23,4.27-2.5,9.19-.58,13.44,1.87,4.26,5.98,7.82,11.09,9.85,5.1,2.05,11.12,2.56,16.65,1.38l6.88-1.47-.96,5.81c-.77,4.64-.2,9.77,2.12,13.77,2.26,4.06,6.53,6.95,11.83,8.45,2.65.74,5.51,1.07,8.39,1.12,2.89.07,5.81-.26,8.65-.87,5.72-1.15,11.01-3.63,15.56-6.79l5.35-3.72,2.32,5.4c2.14,4.98,5.88,9.76,10.67,13.18,4.8,3.46,10.89,5.42,17.27,5.79,3.19.21,6.44-.04,9.61-.63,3.16-.6,6.28-1.49,9.19-2.74,2.91-1.26,5.63-2.8,8.15-4.55,2.47-1.81,4.68-3.83,6.67-6.01l4.16-4.57,3.77,4.77c3.86,4.9,9.12,9.11,15.42,11.79,6.24,2.72,13.4,4.08,20.33,3.52,3.46-.25,6.84-.99,10.01-2.09,3.17-1.11,6.05-2.73,8.64-4.64,2.59-1.92,4.86-4.18,6.79-6.65.97-1.23,1.84-2.53,2.61-3.85.78-1.3,1.49-2.73,1.96-3.96l2.05-5.31,5.45,3.37h0c4.58,3.03,9.73,5.5,15.25,7.13,2.77.77,5.61,1.38,8.5,1.71,2.88.28,5.8.43,8.65.15,2.85-.27,5.66-.77,8.28-1.66,2.59-.92,5.04-2.1,7.17-3.62,4.27-3.06,7.26-7.38,8.96-12.06l.86-2.36,2.82.79c4.07,1.14,8.3,1.86,12.58,2.07,4.28.19,8.59-.23,12.72-1.11,8.27-1.74,15.87-5.78,20.66-11.41,2.38-2.81,4.07-5.98,4.79-9.34.77-3.35.51-6.86-.38-10.23-1.85-6.78-6.72-12.98-13.19-17.58l-1.95-1.39,1.72-1.72h0c4.36-4.13,7.24-9.22,8.16-14.49.94-5.27-.19-10.69-3.22-15.26-3-4.58-7.8-8.34-13.47-10.69-5.67-2.36-12.12-3.34-18.39-2.93l-3.88.25-1.05-3.27h0c-.69-2.42-1.84-4.89-3.22-7.2-1.41-2.31-3.12-4.48-5.11-6.45-1.98-1.97-4.28-3.69-6.79-5.16s-5.24-2.72-8.16-3.59c-5.81-1.8-12.19-2.38-18.42-1.75-6.23.66-12.26,2.53-17.55,5.34l-3.78,2.01-2.69-2.95h0c-4.99-5.58-11.69-10.38-19.26-13.51-7.57-3.12-16.16-4.63-24.7-4.02-8.53.54-16.94,2.92-24.21,6.82-7.34,3.83-13.48,9.16-18.14,15.23l-1.8,2.35-2.92-1.43h0c-6.95-3.56-14.77-6.08-22.91-6.97-4.06-.46-8.17-.57-12.25-.29-4.08.29-8.09,1.01-11.94,2.1-3.85,1.09-7.54,2.55-10.94,4.39-3.38,1.86-6.47,4.05-9.2,6.54-5.45,4.96-9.5,11.06-11.78,17.48h0l-.74,2.27-2.94-.54c-6.55-1.2-13.42-1.19-19.79.3-6.36,1.46-12.19,4.27-16.57,8.14-2.18,1.94-3.96,4.14-5.33,6.48-1.4,2.33-2.31,4.84-2.75,7.43-.46,2.58-.49,5.23-.14,7.87.18,1.32.44,2.63.81,3.91.17.65.39,1.28.6,1.91l.36.92.19.45.02.06.06.14.08.22c.1.29.16.61.2.93.07.64-.03,1.3-.22,1.84v-.04Z"/>
    <path class="st4" d="M41.17,102.74c-.68-1.52-6.62-15.67,3.75-28.12,8.85-10.63,25.92-15.61,42.46-12.14,1.16-3.37,6.64-17.94,24.48-26.25,17.12-7.96,38.99-7.08,56.7,2.1,11.82-16.16,33.15-25.24,54.12-23.1,21.35,2.19,33.62,15.14,36.08,17.85,13.41-7.21,30.29-8.06,43.81-2.1,16.01,7.06,20.07,20.47,20.68,22.63,16.38-.77,31.15,7.15,36.08,18.9,4.02,9.59.95,20.48-7.8,28.32,12.29,8.64,17.44,21.74,12.95,32.57-6.05,14.61-29.12,23.88-51.6,17.26-1.24,3.78-4.22,10.26-11.6,14.7-12.49,7.52-32.59,6.19-48.96-4.2-.53,1.41-6.8,17.27-25.77,22.05-16.65,4.19-35.96-1.95-46.32-15.44-11.48,13.07-30.9,18.25-46.45,13.34-15.1-4.77-20.51-17.16-21.35-19.19-15.13,10.84-35.38,10.69-45.65,2.4-9.34-7.53-7.4-19.33-7.1-20.97-12.94,2.72-26.26-2.38-31.55-11.57-5.94-10.32-.45-23.49,13.06-29.03h-.02Z"/>
    <path d="M36.87,101.35c-.25.36-.42.82-.43,1.28,0,.23.03.45.08.65l.05.15s.04.11.03.08l-.03-.07-.22-.59-.38-1.16c-.23-.77-.44-1.54-.61-2.31-.36-1.54-.59-3.09-.73-4.65-.26-3.12-.07-6.29.64-9.4,1.35-6.25,5.25-12.14,10.67-16.61,5.48-4.47,12.48-7.49,19.84-8.92,7.38-1.46,15.12-1.2,22.32.38l-3.57,1.68h0c2.42-6.97,6.65-13.46,12.56-18.92,2.95-2.72,6.32-5.16,10.02-7.21,3.71-2.04,7.75-3.67,11.96-4.89,4.21-1.21,8.6-2.02,13.05-2.36,4.44-.33,8.92-.24,13.33.24,8.84.92,17.31,3.6,24.85,7.4h0l-4.58.89c4.81-6.63,11.27-12.56,19.2-16.93,7.85-4.44,17.12-7.32,26.78-8.13,9.65-.89,19.65.63,28.44,4.04,8.81,3.45,16.37,8.58,22.32,14.89h0l-6.27-.9c6.28-3.34,13.46-5.57,20.94-6.36,7.48-.76,15.22-.08,22.32,2.13,3.56,1.08,6.92,2.59,10.01,4.41,3.09,1.81,5.91,3.94,8.31,6.32,4.81,4.8,8.15,10.29,9.96,16.34h0l-4.78-2.91c7.79-.2,15.62,1.34,22.33,4.49,6.71,3.14,12.25,7.92,15.55,13.62,3.34,5.68,4.24,12.21,2.78,18.25-1.44,6.06-5.07,11.66-10.19,16.04h0l-.22-3.01c7.06,4.99,12.43,11.73,14.53,19.29,1.01,3.77,1.32,7.73.46,11.59-.81,3.87-2.76,7.58-5.47,10.78-5.47,6.44-13.9,10.89-23,12.84-4.55.98-9.28,1.45-13.99,1.26-4.7-.21-9.34-1-13.79-2.24l3.57-1.52c-1.56,5.22-4.6,10.37-9.58,14.35-2.48,1.98-5.42,3.58-8.53,4.82-3.14,1.22-6.49,1.97-9.88,2.43-3.39.47-6.82.45-10.21.26-3.39-.23-6.7-.81-9.95-1.56-6.45-1.6-12.49-4.17-17.9-7.4h0l7.27-1.88c-.7,1.8-1.48,3.33-2.41,4.9-.91,1.55-1.93,3.06-3.06,4.51-2.26,2.91-4.98,5.63-8.17,7.99-3.19,2.35-6.84,4.4-10.86,5.81-4.01,1.41-8.28,2.32-12.6,2.64-8.67.69-17.4-1-24.91-4.27-7.59-3.24-13.86-8.26-18.43-14.07l7.68.19c-2.32,2.57-4.94,4.97-7.87,7.1-2.98,2.09-6.24,3.93-9.73,5.44-3.5,1.5-7.27,2.6-11.16,3.33-3.89.72-7.93,1.03-11.97.77-4.03-.23-8.05-.97-11.83-2.23-3.79-1.25-7.31-3.05-10.35-5.22-3.05-2.17-5.64-4.68-7.8-7.38-2.17-2.71-3.91-5.55-5.23-8.66l7.44,1.62c-5.41,3.78-11.81,6.79-18.87,8.22-3.51.75-7.15,1.16-10.84,1.08-3.67-.06-7.39-.49-10.96-1.48-3.56-1-6.99-2.53-9.94-4.61-2.97-2.06-5.34-4.71-6.94-7.53-1.61-2.83-2.56-5.81-2.96-8.76-.4-2.97-.39-5.86.13-8.88l5.73,4.21c-7.45,1.59-15.6.92-22.52-1.87-6.93-2.74-12.71-7.68-15.37-13.74-2.71-6.03-2.27-12.77.73-18.53,1.49-2.89,3.62-5.56,6.25-7.86,1.3-1.16,2.76-2.19,4.3-3.14l1.18-.68.59-.34.29-.16s0,0,.02.02c.04.06.16.37.6.65l-.02-.04ZM45.47,104.14c-1,.94-2.32,1.91-3.72,2.64l-.52.27-.22.13-.42.24-.85.49c-1.09.68-2.15,1.41-3.07,2.25-1.88,1.64-3.41,3.56-4.48,5.63-2.16,4.14-2.42,8.91-.57,13.03,1.81,4.13,5.8,7.58,10.75,9.55,4.94,1.99,10.78,2.48,16.14,1.34l6.66-1.42-.93,5.63c-.75,4.5-.19,9.47,2.06,13.35,2.19,3.94,6.32,6.74,11.47,8.19,2.57.71,5.34,1.04,8.13,1.08,2.8.07,5.63-.26,8.38-.84,5.55-1.11,10.67-3.52,15.08-6.58l5.19-3.61,2.25,5.23c2.08,4.83,5.7,9.46,10.34,12.77,4.65,3.35,10.55,5.25,16.74,5.61,3.09.2,6.24-.04,9.31-.61,3.07-.58,6.08-1.44,8.9-2.66,2.82-1.22,5.46-2.71,7.9-4.41,2.39-1.75,4.54-3.72,6.46-5.83l4.03-4.43,3.65,4.63c3.74,4.74,8.84,8.83,14.95,11.42,6.05,2.64,12.99,3.96,19.7,3.41,3.36-.25,6.63-.96,9.7-2.03,3.07-1.07,5.86-2.65,8.38-4.5,2.51-1.86,4.71-4.05,6.58-6.45.94-1.19,1.78-2.45,2.53-3.73.75-1.26,1.44-2.64,1.9-3.84l1.99-5.15,5.28,3.27h0c4.44,2.94,9.43,5.33,14.78,6.91,2.69.74,5.44,1.34,8.24,1.65,2.79.27,5.62.41,8.39.14,2.76-.26,5.49-.75,8.03-1.61,2.51-.89,4.89-2.03,6.95-3.51,4.14-2.97,7.03-7.16,8.68-11.69l.83-2.29,2.74.77c3.94,1.1,8.04,1.81,12.19,2.01,4.15.18,8.32-.23,12.33-1.08,8.02-1.68,15.38-5.6,20.03-11.06,2.31-2.72,3.94-5.8,4.64-9.05.75-3.25.5-6.65-.37-9.92-1.79-6.57-6.51-12.58-12.79-17.04l-1.89-1.34,1.67-1.67h0c4.22-4,7.01-8.94,7.91-14.05.91-5.11-.19-10.36-3.13-14.79-2.91-4.44-7.56-8.08-13.06-10.36-5.5-2.29-11.75-3.24-17.83-2.84l-3.76.24-1.01-3.17h0c-.67-2.35-1.78-4.74-3.12-6.98-1.37-2.24-3.03-4.34-4.95-6.25s-4.15-3.58-6.58-5c-2.43-1.43-5.08-2.63-7.91-3.48-5.63-1.74-11.82-2.3-17.85-1.69-6.04.64-11.89,2.45-17.02,5.18l-3.67,1.95-2.6-2.85h0c-4.83-5.41-11.33-10.06-18.67-13.1-7.34-3.03-15.66-4.49-23.94-3.9-8.26.52-16.42,2.83-23.46,6.61-7.12,3.71-13.06,8.88-17.58,14.76l-1.75,2.28-2.83-1.39h0c-6.74-3.45-14.31-5.9-22.2-6.75-3.93-.45-7.92-.55-11.87-.28-3.95.28-7.84.98-11.57,2.03-3.73,1.06-7.31,2.47-10.6,4.26-3.27,1.8-6.27,3.93-8.92,6.34-5.29,4.81-9.21,10.72-11.42,16.94h0l-.72,2.2-2.85-.52c-6.35-1.16-13.01-1.15-19.18.29-6.16,1.42-11.82,4.14-16.06,7.89-2.12,1.88-3.83,4.01-5.17,6.28-1.35,2.26-2.23,4.69-2.66,7.2-.45,2.5-.47,5.07-.14,7.63.18,1.27.43,2.55.79,3.79.17.63.38,1.24.58,1.85l.34.89.18.43.02.05.06.14.07.21c.09.28.16.59.19.9.06.62-.03,1.26-.21,1.78h.03Z"/>
  </g>
  <g>
    <path class="st5" d="M119.92,130.61c-4.36,0-7.47-.81-9.32-2.43-1.86-1.62-2.78-3.69-2.78-6.22,0-1.9.48-4.03,1.45-6.4l6.66-16.47c.89-2.21,2.36-4.03,4.42-5.45,2.06-1.42,4.34-2.13,6.84-2.13h18.16c.65,0,1.21.24,1.7.71s.73,1.03.73,1.66v26.07h7.87v10.67h-35.72ZM121.25,74.08c1.29-1.03,2.87-1.54,4.72-1.54s3.43.51,4.72,1.54,1.94,2.29,1.94,3.79-.65,2.77-1.94,3.79-2.87,1.54-4.72,1.54-3.43-.51-4.72-1.54c-1.29-1.03-1.94-2.29-1.94-3.79s.65-2.77,1.94-3.79ZM136.87,102.17h-10.41l-7.14,17.77h17.56v-17.77ZM136.99,74.08c1.29-1.03,2.87-1.54,4.72-1.54s3.43.51,4.72,1.54,1.94,2.29,1.94,3.79-.65,2.77-1.94,3.79-2.87,1.54-4.72,1.54-3.43-.51-4.72-1.54-1.94-2.29-1.94-3.79.65-2.77,1.94-3.79Z"/>
    <path class="st5" d="M153.03,120.95c.69-.67,1.55-1.01,2.6-1.01h9.93c-.73-1.26-1.25-2.63-1.57-4.09-.32-1.46-.48-2.98-.48-4.56,0-2.29.38-4.62,1.15-6.99.77-2.37,1.98-4.5,3.63-6.4,1.65-1.9,3.77-3.44,6.36-4.62,2.58-1.19,5.65-1.78,9.2-1.78h8.72c2.66,0,4.94.93,6.84,2.78,1.9,1.86,2.85,4.09,2.85,6.7v27.26c0,.63-.24,1.19-.73,1.66s-1.05.71-1.7.71h-44.19c-1.05,0-1.92-.34-2.6-1.01-.69-.67-1.03-1.52-1.03-2.55v-3.56c0-1.03.34-1.88,1.03-2.55ZM170.29,74.08c1.29-1.03,2.87-1.54,4.72-1.54s3.43.51,4.72,1.54,1.94,2.29,1.94,3.79-.65,2.77-1.94,3.79-2.87,1.54-4.72,1.54-3.43-.51-4.72-1.54-1.94-2.29-1.94-3.79.65-2.77,1.94-3.79ZM176.95,104.71c-1.69,1.7-2.54,3.81-2.54,6.34,0,2.29.81,4.35,2.42,6.16,1.61,1.82,3.71,2.73,6.3,2.73h8.23v-17.77h-8.23c-2.42,0-4.48.85-6.17,2.55ZM186.03,74.08c1.29-1.03,2.87-1.54,4.72-1.54s3.43.51,4.72,1.54c1.29,1.03,1.94,2.29,1.94,3.79s-.65,2.77-1.94,3.79c-1.29,1.03-2.87,1.54-4.72,1.54s-3.43-.51-4.72-1.54c-1.29-1.03-1.94-2.29-1.94-3.79s.65-2.77,1.94-3.79Z"/>
    <path class="st5" d="M218.72,92.21c.48-.47,1.05-.71,1.69-.71h6.05c.65,0,1.21.24,1.69.71s.73,1.03.73,1.66v36.74c0,3.55-.42,6.58-1.27,9.07-.85,2.49-2.04,4.54-3.57,6.16-1.53,1.62-3.35,2.8-5.45,3.55s-4.4,1.13-6.9,1.13c-2.82,0-5.79-.42-8.9-1.24-3.11-.83-6.32-2.03-9.63-3.61l3.51-8.41c1.86.87,3.98,1.66,6.36,2.37,2.38.71,4.7,1.07,6.96,1.07,1.13,0,2.18-.16,3.15-.47.97-.32,1.82-.85,2.54-1.6.73-.75,1.29-1.78,1.7-3.08.4-1.3.61-2.94.61-4.92v-36.74c0-.63.24-1.18.73-1.66Z"/>
    <path class="st5" d="M254.8,66.14c.48.47.73,1.03.73,1.66v52.14h7.87v10.67h-16.35c-.65,0-1.21-.24-1.7-.71s-.73-1.03-.73-1.66v-60.44c0-.63.24-1.19.73-1.66s1.05-.71,1.7-.71h6.05c.65,0,1.21.24,1.7.71Z"/>
    <path class="st5" d="M260.79,120.95c.69-.67,1.55-1.01,2.6-1.01h12.71v-26.07c0-.63.24-1.18.73-1.66s1.05-.71,1.7-.71h6.05c.65,0,1.21.24,1.7.71s.73,1.03.73,1.66v27.26c0,2.61-.95,4.84-2.85,6.7-1.9,1.86-4.18,2.79-6.84,2.79h-13.92c-1.05,0-1.92-.34-2.6-1.01-.69-.67-1.03-1.52-1.03-2.55v-3.56c0-1.03.34-1.88,1.03-2.55ZM270.9,139.26c1.29-1.03,2.87-1.54,4.72-1.54s3.43.51,4.72,1.54c1.29,1.03,1.94,2.29,1.94,3.79s-.65,2.76-1.94,3.79c-1.29,1.03-2.87,1.54-4.72,1.54s-3.43-.51-4.72-1.54c-1.29-1.03-1.94-2.29-1.94-3.79s.65-2.76,1.94-3.79Z"/>
  </g>
  <g>
    <path class="st0" d="M124.1,124.9c-4.36,0-7.47-.81-9.32-2.43-1.86-1.62-2.78-3.69-2.78-6.22,0-1.9.48-4.03,1.45-6.4l6.66-16.47c.89-2.21,2.36-4.03,4.42-5.45,2.06-1.42,4.34-2.13,6.84-2.13h18.16c.65,0,1.21.24,1.7.71s.73,1.03.73,1.66v26.07h7.87v10.67h-35.72ZM125.43,68.37c1.29-1.03,2.87-1.54,4.72-1.54s3.43.51,4.72,1.54,1.94,2.29,1.94,3.79-.65,2.77-1.94,3.79-2.87,1.54-4.72,1.54-3.43-.51-4.72-1.54c-1.29-1.03-1.94-2.29-1.94-3.79s.65-2.77,1.94-3.79ZM141.05,96.45h-10.41l-7.14,17.78h17.56v-17.78ZM141.17,68.37c1.29-1.03,2.87-1.54,4.72-1.54s3.43.51,4.72,1.54,1.94,2.29,1.94,3.79-.65,2.77-1.94,3.79-2.87,1.54-4.72,1.54-3.43-.51-4.72-1.54-1.94-2.29-1.94-3.79.65-2.77,1.94-3.79Z"/>
    <path class="st0" d="M157.21,115.24c.69-.67,1.55-1.01,2.6-1.01h9.93c-.73-1.26-1.25-2.63-1.57-4.09-.32-1.46-.48-2.98-.48-4.56,0-2.29.38-4.62,1.15-6.99.77-2.37,1.98-4.5,3.63-6.4,1.65-1.9,3.77-3.44,6.36-4.62,2.58-1.18,5.65-1.78,9.2-1.78h8.72c2.66,0,4.94.93,6.84,2.78,1.9,1.86,2.85,4.09,2.85,6.7v27.26c0,.63-.24,1.19-.73,1.66s-1.05.71-1.7.71h-44.19c-1.05,0-1.92-.34-2.6-1.01-.69-.67-1.03-1.52-1.03-2.55v-3.56c0-1.03.34-1.88,1.03-2.55ZM174.47,68.37c1.29-1.03,2.87-1.54,4.72-1.54s3.43.51,4.72,1.54c1.29,1.03,1.94,2.29,1.94,3.79s-.65,2.77-1.94,3.79c-1.29,1.03-2.87,1.54-4.72,1.54s-3.43-.51-4.72-1.54-1.94-2.29-1.94-3.79.65-2.77,1.94-3.79ZM181.12,99c-1.69,1.7-2.54,3.81-2.54,6.34,0,2.29.81,4.35,2.42,6.16,1.61,1.82,3.71,2.73,6.3,2.73h8.23v-17.78h-8.23c-2.42,0-4.48.85-6.17,2.55ZM190.21,68.37c1.29-1.03,2.87-1.54,4.72-1.54s3.43.51,4.72,1.54c1.29,1.03,1.94,2.29,1.94,3.79s-.65,2.77-1.94,3.79c-1.29,1.03-2.87,1.54-4.72,1.54s-3.43-.51-4.72-1.54c-1.29-1.03-1.94-2.29-1.94-3.79s.65-2.77,1.94-3.79Z"/>
    <path class="st0" d="M222.89,86.5c.48-.47,1.05-.71,1.69-.71h6.05c.65,0,1.21.24,1.69.71s.73,1.03.73,1.66v36.74c0,3.55-.42,6.58-1.27,9.07-.85,2.49-2.04,4.54-3.57,6.16-1.53,1.62-3.35,2.8-5.45,3.55-2.1.75-4.4,1.13-6.9,1.13-2.82,0-5.79-.42-8.9-1.24-3.11-.83-6.32-2.03-9.63-3.61l3.51-8.41c1.86.87,3.98,1.66,6.36,2.37,2.38.71,4.7,1.07,6.96,1.07,1.13,0,2.18-.16,3.15-.47.97-.32,1.82-.85,2.54-1.6.73-.75,1.29-1.78,1.7-3.08.4-1.3.61-2.94.61-4.92v-36.74c0-.63.24-1.19.73-1.66Z"/>
    <path class="st0" d="M258.97,60.43c.48.47.73,1.03.73,1.66v52.14h7.87v10.67h-16.35c-.65,0-1.21-.24-1.7-.71s-.73-1.03-.73-1.66v-60.44c0-.63.24-1.19.73-1.66s1.05-.71,1.7-.71h6.05c.65,0,1.21.24,1.7.71Z"/>
    <path class="st0" d="M264.96,115.24c.69-.67,1.55-1.01,2.6-1.01h12.71v-26.07c0-.63.24-1.19.73-1.66s1.05-.71,1.7-.71h6.05c.65,0,1.21.24,1.7.71s.73,1.03.73,1.66v27.26c0,2.61-.95,4.84-2.85,6.69-1.9,1.86-4.18,2.79-6.84,2.79h-13.92c-1.05,0-1.92-.34-2.6-1.01-.69-.67-1.03-1.52-1.03-2.55v-3.56c0-1.03.34-1.88,1.03-2.55ZM275.08,133.55c1.29-1.03,2.87-1.54,4.72-1.54s3.43.51,4.72,1.54c1.29,1.03,1.94,2.29,1.94,3.79s-.65,2.76-1.94,3.79c-1.29,1.03-2.87,1.54-4.72,1.54s-3.43-.51-4.72-1.54c-1.29-1.03-1.94-2.29-1.94-3.79s.65-2.76,1.94-3.79Z"/>
  </g>
</svg>