<?xml version="1.0" encoding="UTF-8"?>
<svg id="Layer_1" xmlns="http://www.w3.org/2000/svg" version="1.1" viewBox="0 0 784.8 350.74">
  <!-- Generator: Adobe Illustrator 29.7.1, SVG Export Plug-In . SVG Version: 2.1.1 Build 8)  -->
  <defs>
    <style>
      .st0 {
        fill: #94d9f7;
      }
    </style>
  </defs>
  <g>
    <path d="M712.54,10.87c.8.78,1.2,1.88,1.14,2.96l-14.53,153.11,13.76-3.04c.52-.12,1.04-.11,1.54-.02.27,0,.54-.05.81,0,.27,0,.54-.05.81,0,.27,0,.54-.05.81,0,.27,0,.54-.05.81,0,.27,0,.55-.05.81,0,.27,0,.54-.05.81,0,.27,0,.54-.05.81,0,.27,0,.54-.05.81,0,.27,0,.54-.05.81,0,.27,0,.54-.05.81,0,.27,0,.54-.05.81,0,.27,0,.54-.05.81,0,.27,0,.54-.05.81,0,.27,0,.54-.05.81,0,.27,0,.54-.05.81,0,.27,0,.55-.05.81,0,.27,0,.55-.05.81,0,.27,0,.54-.05.81,0,.27,0,.55-.05.81,0,.27,0,.54-.05.81,0,1.73-.05,3.33.95,3.86,2.62l7.73,24.2,17.4-9.34c.69-.37,1.46-.44,2.23-.37.27-.03.53-.02.81,0,.27-.03.53-.02.81,0,.27-.03.53-.02.81,0,.27-.03.53-.02.81,0,.27-.03.53-.02.81,0,.27-.03.53-.02.81,0,.27-.03.53-.02.81,0,.27-.03.53-.02.81,0,.27-.03.53-.02.81,0,.27-.03.53-.02.81,0,.28-.03.53-.02.81,0,.28-.03.53-.02.81,0,.27-.03.53-.02.81,0,.28-.03.53-.02.81,0,.27-.03.53-.02.81,0,.27-.03.53-.02.81,0,.28-.03.53-.02.81,0,.27-.03.53-.02.81,0,.27-.03.53-.02.81,0,.27-.03.53-.02.81,0,.73-.09,1.47-.04,2.16.29,1.14.54,1.94,1.58,2.15,2.8l7.6,43.55,59.56,1.08c1.85.03,3.42,1.33,3.77,3.11.05.24.07.48.07.71,0,1.52-.93,2.93-2.41,3.53l-83.73,34.15c-.63.26-1.29.29-1.95.21-.27.03-.53.03-.81,0-.27.03-.53.03-.81,0-.27.03-.53.03-.81,0-.27.03-.53.03-.81,0-.27.03-.53.03-.81,0-.27.03-.53.03-.81,0-.27.03-.53.03-.81,0-.27.03-.53.03-.81,0-.27.03-.53.03-.81,0-.27.03-.53.03-.81,0-.28.03-.53.03-.81,0-.27.03-.53.03-.81,0-.27.03-.53.03-.81,0-.27.03-.53.03-.81,0-.27.03-.53.03-.81,0-.27.03-.53.03-.81,0-.27.03-.53.03-.81,0-.27.03-.53.03-.81,0-.27.03-.53.03-.81,0-.27.03-.53.03-.81,0-.69.06-1.39.01-2.03-.29-1-.46-1.75-1.32-2.07-2.36l-5.09-16.61-5.33,4.7c-.91.8-2.16,1.14-3.36.91-.02,0-.04-.02-.06-.03-.25,0-.49.08-.74.03-.02,0-.04-.02-.06-.03-.25,0-.49.08-.74.03-.02,0-.04-.02-.06-.03-.25,0-.49.08-.74.03-.02,0-.04-.02-.06-.03-.25,0-.49.08-.74.03-.02,0-.04-.02-.06-.03-.25,0-.49.08-.74.03-.02,0-.04-.02-.06-.03-.25,0-.49.08-.74.03-.02,0-.04-.02-.06-.03-.25,0-.49.08-.74.03-.02,0-.04-.02-.06-.03-.25,0-.49.08-.74.03-.02,0-.04-.02-.06-.03-.25,0-.49.08-.74.03-.02,0-.04-.02-.06-.03-.25,0-.49.08-.74.03-.02,0-.04-.02-.06-.03-.25,0-.49.08-.74.03-.02,0-.04-.02-.06-.03-.25,0-.49.08-.74.03-.02,0-.04-.02-.06-.03-.25,0-.49.08-.74.03-.02,0-.04-.02-.06-.03-.25,0-.49.08-.74.03-.02,0-.04-.02-.06-.03-.25,0-.49.08-.74.03-.02,0-.04-.02-.06-.03-.25,0-.49.08-.74.03-.02,0-.04-.02-.06-.03-.25,0-.49.08-.74.03-.02,0-.04-.02-.06-.03-.25,0-.49.08-.74.03-.02,0-.04-.02-.06-.03-.25,0-.49.08-.74.03-.02,0-.04-.02-.06-.03-.25,0-.49.08-.74.03-.02,0-.04-.02-.06-.03-.25,0-.49.08-.74.03-1.21-.23-2.23-1-2.77-2.09l-14.22-28.64-3.55,2.01-14.88,114.23c-.14,1.06-.72,2.01-1.6,2.63s-1.99.85-3.05.64h-.02c-.26,0-.52.05-.79,0h-.02c-.26,0-.52.05-.79,0h-.02c-.26,0-.52.05-.79,0h-.02c-.26,0-.52.05-.79,0h-.02c-.26,0-.52.05-.79,0h-.02c-.26,0-.52.05-.79,0h-.02c-.26,0-.53.05-.79,0h-.02c-.26,0-.52.05-.79,0h-.02c-.26,0-.52.05-.79,0h-.02c-.26,0-.52.05-.79,0h-.02c-.26,0-.52.05-.79,0h-.02c-.26,0-.52.05-.79,0h-.02c-.26,0-.52.05-.79,0h-.02c-.26,0-.52.05-.79,0h-.02c-.26,0-.52.05-.79,0h-.02c-.26,0-.52.05-.79,0h-.02c-.26,0-.52.05-.79,0h-.02c-.26,0-.52.05-.79,0h-.02c-.26,0-.53.05-.79,0h-.02c-.26,0-.52.05-.79,0h-.02c-.26,0-.53.05-.79,0L41.55,305.7c-1.74-.34-3.02-1.79-3.12-3.53L18.66,30.88c-.09-2.02,1.5-3.89,3.64-4.04L692.57,9.76c.09,0,.17.04.26.04l.55-.04c.09,0,.17.04.26.04l.55-.04c.09,0,.17.04.26.04l.55-.04c.09,0,.17.04.26.04l.55-.04c.09,0,.17.04.26.04l.55-.04c.09,0,.17.04.26.04l.55-.04c.09,0,.17.04.26.04l.55-.04c.09,0,.17.04.26.04l.55-.04c.09,0,.17.04.26.04l.55-.04c.09,0,.17.04.26.04l.55-.04c.09,0,.17.04.26.04l.55-.04c.09,0,.17.04.26.04l.55-.04c.09,0,.17.04.26.04l.55-.04c.09,0,.17.04.26.04l.55-.04c.09,0,.17.04.26.04l.55-.04c.09,0,.17.04.26.04l.55-.04c.09,0,.17.04.26.04l.55-.04c.09,0,.17.04.26.04l.55-.04c.09,0,.17.04.26.04l.55-.04c.09,0,.17.04.26.04l.55-.04c.09,0,.17.04.26.04l.55-.04c1.13-.08,2.23.33,3.03,1.11h-.07Z"/>
    <path class="st0" d="M673.82,175.36c-.08,1.2.43,2.37,1.36,3.16.94.78,2.2,1.09,3.4.82l32.53-7.19,10.56,33.06c.35,1.1,1.18,1.98,2.27,2.41,1.09.43,2.31.36,3.34-.19l31.24-16.77,7.22,41.37c.31,1.81,1.9,3.15,3.78,3.18l44.15.8-62.51,25.49-9.22-30.08c-.39-1.26-1.4-2.23-2.69-2.59s-2.67-.04-3.67.84l-19.4,17.08-17.5-35.26c-.47-.96-1.33-1.68-2.37-1.99-1.04-.31-2.16-.19-3.1.35l-22.09,12.52c-1.05.6-1.76,1.64-1.92,2.83l-14.59,112.02L46.06,298.79,26.69,34.22l661.96-16.52-14.83,157.66Z"/>
    <path d="M695.6,10.87c-.8-.78-1.9-1.18-3.03-1.11L22.3,26.84c-2.14.14-3.72,2.01-3.64,4.04l19.77,271.29c.1,1.74,1.38,3.19,3.12,3.53l615.62,39.84c1.07.21,2.17-.02,3.05-.64.89-.62,1.47-1.57,1.6-2.63l14.88-114.23,16.78-9.51,17.94,36.14c.53,1.08,1.56,1.85,2.77,2.09,1.2.23,2.45-.11,3.36-.91l18.67-16.45,8.69,28.36c.32,1.04,1.07,1.89,2.07,2.36,1,.47,2.15.49,3.18.07l83.73-34.15c1.48-.6,2.41-2.01,2.41-3.53,0-.24-.02-.47-.07-.71-.35-1.78-1.92-3.08-3.77-3.11l-59.56-1.08-7.6-43.55c-.21-1.22-1.01-2.26-2.15-2.8-1.14-.54-2.47-.5-3.58.09l-31.87,17.11-10.21-31.96c-.61-1.91-2.6-3.03-4.59-2.59l-30.95,6.84,14.78-156.91c.06-1.08-.34-2.18-1.14-2.96h.01ZM26.69,34.22l661.96-16.52-14.83,157.66c-.08,1.2.43,2.37,1.36,3.16.94.78,2.2,1.09,3.4.82l32.53-7.19,10.56,33.06c.35,1.1,1.18,1.98,2.27,2.41,1.09.43,2.31.36,3.34-.19l31.24-16.77,7.22,41.37c.31,1.81,1.9,3.15,3.78,3.18l44.15.8-62.51,25.49-9.22-30.08c-.39-1.26-1.4-2.23-2.69-2.59s-2.67-.04-3.67.84l-19.4,17.08-17.5-35.26c-.47-.96-1.33-1.68-2.37-1.99-1.04-.31-2.16-.19-3.1.35l-22.09,12.52c-1.05.6-1.76,1.64-1.92,2.83l-14.59,112.02L46.06,298.79,26.69,34.22Z"/>
  </g>
  <g>
    <g>
      <path d="M459.9,77.5h-15.55c-1.84,0-3.14-.34-3.93-1.02-.78-.68-1.17-1.55-1.17-2.62,0-.8.2-1.7.61-2.7l2.8-6.94c.37-.93.98-1.7,1.81-2.3s1.81-.9,2.93-.9h8.67c.27,0,.51.1.71.3.2.2.31.43.31.7v9.98h2.8v5.49h.01ZM445.42,56.89c-.54-.43-.82-.96-.82-1.6s.27-1.16.82-1.6c.54-.43,1.21-.65,1.99-.65s1.44.22,1.99.65c.54.43.82.96.82,1.6s-.27,1.17-.82,1.6c-.54.43-1.21.65-1.99.65s-1.45-.22-1.99-.65ZM451.49,72.01v-5.49h-3.77l-2.19,5.49h5.96ZM452.05,56.89c-.54-.43-.82-.96-.82-1.6s.27-1.16.82-1.6c.54-.43,1.21-.65,1.99-.65s1.44.22,1.99.65c.54.43.82.96.82,1.6s-.27,1.17-.82,1.6c-.54.43-1.21.65-1.99.65s-1.45-.22-1.99-.65Z"/>
      <path d="M458.42,73.5c0-.43.15-.79.43-1.07.29-.28.66-.42,1.1-.42h3.67c-.58-1.1-.87-2.28-.87-3.54,0-.96.19-1.9.56-2.79.37-.9.92-1.69,1.63-2.37s1.58-1.23,2.6-1.65,2.17-.62,3.47-.62h5c1.12,0,2.08.39,2.88,1.17.8.78,1.2,1.72,1.2,2.82v11.48c0,.27-.1.5-.31.7-.2.2-.44.3-.71.3h-19.12c-.44,0-.81-.14-1.1-.42s-.43-.64-.43-1.07v-2.52ZM466.12,56.89c-.54-.43-.82-.96-.82-1.6s.27-1.16.82-1.6,1.21-.65,1.99-.65,1.44.22,1.99.65.82.96.82,1.6-.27,1.17-.82,1.6c-.54.43-1.21.65-1.99.65s-1.44-.22-1.99-.65ZM471.32,66.52c-.82,0-1.51.27-2.09.8-.58.53-.87,1.18-.87,1.95s.27,1.37.82,1.92c.54.55,1.26.82,2.14.82h3.16v-5.49h-3.16ZM472.75,56.89c-.54-.43-.82-.96-.82-1.6s.27-1.16.82-1.6c.54-.43,1.21-.65,1.99-.65s1.44.22,1.99.65c.54.43.82.96.82,1.6s-.27,1.17-.82,1.6c-.54.43-1.21.65-1.99.65s-1.45-.22-1.99-.65Z"/>
      <path d="M485.7,62.03c0-.27.1-.5.31-.7.2-.2.44-.3.71-.3h3.57c.27,0,.51.1.71.3.2.2.31.43.31.7v15.47c0,1.5-.2,2.79-.61,3.89-.41,1.1-.97,2-1.68,2.72-.71.71-1.56,1.24-2.52,1.57-.97.33-2.01.5-3.14.5-1.19,0-2.43-.17-3.72-.52s-2.58-.86-3.88-1.52l1.48-4.14c.68.27,1.45.52,2.32.77s1.69.37,2.47.37c.99,0,1.84-.26,2.57-.77.73-.52,1.1-1.47,1.1-2.87v-15.47h0Z"/>
      <path d="M501.45,50.05c.27,0,.51.1.71.3.2.2.31.43.31.7v20.96h2.8v5.49h-7.39c-.27,0-.51-.1-.71-.3-.2-.2-.31-.43-.31-.7v-25.45c0-.27.1-.5.31-.7s.44-.3.71-.3h3.57Z"/>
      <path d="M503.79,73.5c0-.43.15-.79.43-1.07.29-.28.66-.42,1.1-.42h11.83c-.31-.7-.61-1.46-.92-2.29s-.66-1.61-1.07-2.35c-.41-.73-.89-1.35-1.45-1.85s-1.25-.75-2.06-.75c-.58,0-1.14.1-1.68.3-.54.2-1.07.48-1.58.85l-1.53-3.89c.92-.73,1.94-1.33,3.06-1.8,1.12-.47,2.23-.7,3.31-.7,1.56,0,2.82.43,3.77,1.3s1.77,1.93,2.45,3.19c.68,1.26,1.3,2.62,1.86,4.07s1.21,2.75,1.96,3.92h2.45v5.49h-20.39c-.44,0-.81-.14-1.1-.42s-.43-.64-.43-1.07v-2.5h-.01ZM511.24,56.39c-.54-.43-.82-.96-.82-1.6s.27-1.16.82-1.6,1.21-.65,1.99-.65,1.44.22,1.99.65.82.96.82,1.6-.27,1.17-.82,1.6c-.54.43-1.21.65-1.99.65s-1.44-.22-1.99-.65Z"/>
      <path d="M528.52,72.01v-20.96c0-.27.1-.5.31-.7s.44-.3.71-.3h3.57c.27,0,.51.1.71.3s.31.43.31.7v22.46c0,1.1-.4,2.04-1.2,2.82s-1.76,1.17-2.88,1.17h-4.33c-.44,0-.81-.14-1.1-.42s-.43-.64-.43-1.07v-2.5c0-.43.15-.79.43-1.07.29-.28.66-.42,1.1-.42h2.8Z"/>
      <path d="M544.27,50.05c.27,0,.51.1.71.3s.31.43.31.7v25.45c0,.27-.1.5-.31.7-.2.2-.44.3-.71.3h-3.57c-.27,0-.51-.1-.71-.3-.2-.2-.31-.43-.31-.7v-25.45c0-.27.1-.5.31-.7s.44-.3.71-.3h3.57Z"/>
      <path d="M561.61,50.05c.27,0,.51.1.71.3s.31.43.31.7v20.96h2.8v5.49h-7.39c-.27,0-.51-.1-.71-.3-.2-.2-.31-.43-.31-.7v-25.45c0-.27.1-.5.31-.7s.44-.3.71-.3c0,0,3.57,0,3.57,0Z"/>
      <path d="M563.95,73.5c0-.43.14-.79.43-1.07s.65-.42,1.1-.42h3.67c-.58-1-.87-2.15-.87-3.44,0-.93.19-1.85.56-2.77.37-.91.92-1.72,1.63-2.42s1.58-1.26,2.6-1.7c1.02-.43,2.19-.65,3.52-.65h2.4l-.76-2.99c.99-.33,1.97-.57,2.96-.72.99-.15,1.94-.22,2.86-.22,1.29,0,2.5.17,3.62.52,1.12.35,2.1.88,2.93,1.6.83.72,1.49,1.64,1.96,2.77.48,1.13.71,2.48.71,4.04v5.99h2.8v5.49h-30.59c-.44,0-.81-.14-1.1-.42s-.43-.64-.43-1.07v-2.52ZM578.48,72.01v-5.49h-1.73c-.82,0-1.5.27-2.04.8-.54.53-.82,1.18-.82,1.95s.27,1.41.82,1.95c.54.53,1.22.8,2.04.8h1.73ZM587.66,66.02c0-1.4-.46-2.34-1.38-2.82s-2.07-.74-3.47-.77c.34.37.61.77.82,1.2.2.43.31.9.31,1.4v6.99h3.72v-5.99h0Z"/>
      <path d="M594.54,73.5c0-.43.14-.79.43-1.07s.65-.42,1.1-.42h4.84v-9.98c0-.27.1-.5.31-.7.2-.2.44-.3.71-.3h3.57c.27,0,.51.1.71.3s.31.43.31.7v11.48c0,1.1-.4,2.04-1.2,2.82s-1.76,1.17-2.88,1.17h-6.37c-.44,0-.81-.14-1.1-.42s-.43-.64-.43-1.07v-2.5h0ZM597.14,56.89c-.54-.43-.82-.96-.82-1.6s.27-1.16.82-1.6,1.21-.65,1.99-.65,1.44.22,1.99.65.82.96.82,1.6-.27,1.17-.82,1.6c-.54.43-1.21.65-1.99.65s-1.44-.22-1.99-.65ZM603.77,56.89c-.54-.43-.82-.96-.82-1.6s.27-1.16.82-1.6c.54-.43,1.21-.65,1.99-.65s1.44.22,1.99.65c.54.43.82.96.82,1.6s-.27,1.17-.82,1.6c-.54.43-1.21.65-1.99.65s-1.45-.22-1.99-.65Z"/>
      <path d="M617.18,77.5c-1.43,0-2.63-.48-3.62-1.45-.99-.96-1.48-2.15-1.48-3.54v-2.99c0-1.46.25-2.73.74-3.79s1.15-1.95,1.96-2.65c.82-.7,1.76-1.21,2.83-1.55,1.07-.33,2.2-.5,3.39-.5,1.33,0,2.68.21,4.05.62,1.38.42,2.66,1.04,3.85,1.87v8.48h2.8v5.49h-2.8c0,1.5-.2,2.79-.61,3.89s-.97,2-1.68,2.72c-.71.71-1.55,1.24-2.52,1.57-.97.33-2.01.5-3.14.5-1.19,0-2.47-.17-3.85-.52s-2.71-.86-4-1.52l1.48-4.09c.71.27,1.5.52,2.37.75s1.71.35,2.52.35c1.05,0,1.95-.26,2.7-.77.75-.52,1.12-1.47,1.12-2.87h-6.12,0ZM623.3,72.01v-5.09c-.88-.27-1.68-.4-2.4-.4-.88,0-1.64.25-2.27.75s-.94,1.25-.94,2.25v2.5h5.61Z"/>
      <path d="M630.23,73.5c0-.43.14-.79.43-1.07s.65-.42,1.1-.42h3.67c-.58-1.1-.87-2.28-.87-3.54,0-.96.19-1.9.56-2.79.37-.9.92-1.69,1.63-2.37s1.58-1.23,2.6-1.65c1.02-.42,2.17-.62,3.47-.62h5c1.12,0,2.08.39,2.88,1.17s1.2,1.72,1.2,2.82v11.48c0,.27-.1.5-.31.7-.2.2-.44.3-.71.3h-19.12c-.44,0-.81-.14-1.1-.42s-.43-.64-.43-1.07v-2.52ZM637.93,56.89c-.54-.43-.82-.96-.82-1.6s.27-1.16.82-1.6c.54-.43,1.21-.65,1.99-.65s1.44.22,1.99.65c.54.43.82.96.82,1.6s-.27,1.17-.82,1.6c-.54.43-1.21.65-1.99.65s-1.45-.22-1.99-.65ZM643.13,66.52c-.82,0-1.51.27-2.09.8s-.87,1.18-.87,1.95.27,1.37.82,1.92c.54.55,1.26.82,2.14.82h3.16v-5.49h-3.16ZM644.56,56.89c-.54-.43-.82-.96-.82-1.6s.27-1.16.82-1.6c.54-.43,1.21-.65,1.99-.65s1.44.22,1.99.65c.54.43.82.96.82,1.6s-.27,1.17-.82,1.6c-.54.43-1.21.65-1.99.65s-1.45-.22-1.99-.65Z"/>
      <path d="M463.54,125.23c-.8.78-1.76,1.17-2.88,1.17h-6.63c-1.26,0-2.45-.23-3.57-.7-1.12-.47-2.1-1.11-2.93-1.92-.83-.82-1.49-1.77-1.96-2.87-.48-1.1-.71-2.26-.71-3.49v-5.99c0-.27.1-.5.31-.7.2-.2.44-.3.71-.3h2.55c.27,0,.51.1.71.3.2.2.31.43.31.7v5.99c0,1.23.45,2.29,1.35,3.17s1.98,1.32,3.24,1.32h6.12v-17.96c0-.27.1-.5.31-.7.2-.2.44-.3.71-.3h2.55c.27,0,.51.1.71.3.2.2.31.43.31.7v10.98h5.61v-10.98c0-.27.1-.5.31-.7.2-.2.44-.3.71-.3h2.55c.27,0,.51.1.71.3.2.2.31.43.31.7v10.98h5.61v-10.98c0-.27.1-.5.31-.7.2-.2.44-.3.71-.3h2.55c.27,0,.51.1.71.3.2.2.31.43.31.7v10.98h5.35v4.49h-25.74v2.99c0,1.1-.4,2.04-1.2,2.82h-.02Z"/>
      <path d="M489.39,118.99c-.29-.28-.43-.64-.43-1.07v-1.5c0-.43.14-.79.43-1.07.29-.28.65-.42,1.1-.42h4.18c-.31-.53-.53-1.11-.66-1.72s-.2-1.26-.2-1.92c0-.96.16-1.95.48-2.94.32-1,.83-1.9,1.53-2.69.7-.8,1.59-1.45,2.68-1.95s2.38-.75,3.87-.75h3.67c1.12,0,2.08.39,2.88,1.17.8.78,1.2,1.72,1.2,2.82v7.98h3.31v4.49h-22.94c-.44,0-.81-.14-1.1-.42h0ZM505.53,107.44h-3.47c-1.02,0-1.89.36-2.6,1.07s-1.07,1.61-1.07,2.67c0,.96.34,1.83,1.02,2.59.68.77,1.53,1.15,2.55,1.15h3.57v-7.49h0ZM499.97,95.61c.54-.43,1.21-.65,1.99-.65s1.45.22,1.99.65c.54.43.82.96.82,1.6s-.27,1.17-.82,1.6c-.54.43-1.21.65-1.99.65s-1.44-.22-1.99-.65c-.54-.43-.82-.96-.82-1.6s.27-1.16.82-1.6Z"/>
      <path d="M512.33,115.35c.29-.28.65-.42,1.1-.42h5.35v-10.98c0-.27.1-.5.31-.7.2-.2.44-.3.71-.3h2.55c.27,0,.51.1.71.3.2.2.31.43.31.7v10.98h5.35v4.49h-15.29c-.44,0-.81-.14-1.1-.42s-.43-.64-.43-1.07v-1.5c0-.43.14-.79.43-1.07h0ZM519.09,95.61c.54-.43,1.21-.65,1.99-.65s1.44.22,1.99.65c.54.43.82.96.82,1.6s-.27,1.17-.82,1.6c-.54.43-1.21.65-1.99.65s-1.44-.22-1.99-.65-.82-.96-.82-1.6.27-1.16.82-1.6Z"/>
      <path d="M532.04,92.97c0-.27.1-.5.31-.7s.44-.3.71-.3h2.55c.27,0,.51.1.71.3s.31.43.31.7v22.45c0,1.1-.4,2.04-1.2,2.82s-1.76,1.17-2.88,1.17h-3.82c-.44,0-.81-.14-1.1-.42s-.43-.64-.43-1.07v-1.5c0-.43.14-.79.43-1.07s.65-.42,1.1-.42h3.31v-21.96Z"/>
      <path d="M547.54,92.27c.2.2.31.43.31.7v21.96h3.31v4.49h-6.88c-.27,0-.51-.1-.71-.3-.2-.2-.31-.43-.31-.7v-25.45c0-.27.1-.5.31-.7s.44-.3.71-.3h2.55c.27,0,.51.1.71.3Z"/>
      <path d="M550.06,115.35c.29-.28.65-.42,1.1-.42h5.35v-10.98c0-.27.1-.5.31-.7.2-.2.44-.3.71-.3h2.55c.27,0,.51.1.71.3.2.2.31.43.31.7v11.48c0,1.1-.4,2.04-1.2,2.82s-1.76,1.17-2.88,1.17h-5.86c-.44,0-.81-.14-1.1-.42s-.43-.64-.43-1.07v-1.5c0-.43.14-.79.43-1.07h0ZM554.32,123.06c.54-.43,1.21-.65,1.99-.65s1.44.22,1.99.65.82.96.82,1.6-.27,1.16-.82,1.6-1.21.65-1.99.65-1.44-.22-1.99-.65-.82-.96-.82-1.6.27-1.16.82-1.6Z"/>
      <path d="M578.94,119.41c-1.84,0-3.14-.34-3.93-1.02-.78-.68-1.17-1.56-1.17-2.62,0-.8.2-1.7.61-2.69l2.8-6.94c.37-.93.99-1.7,1.86-2.29.87-.6,1.83-.9,2.88-.9h7.65c.27,0,.51.1.71.3.2.2.31.43.31.7v10.98h3.31v4.49h-15.04,0ZM579.5,95.61c.54-.43,1.21-.65,1.99-.65s1.44.22,1.99.65.82.96.82,1.6-.27,1.17-.82,1.6c-.54.43-1.21.65-1.99.65s-1.44-.22-1.99-.65-.82-.96-.82-1.6.27-1.16.82-1.6ZM586.08,107.44h-4.38l-3.01,7.49h7.39v-7.49ZM586.13,95.61c.54-.43,1.21-.65,1.99-.65s1.44.22,1.99.65.82.96.82,1.6-.27,1.17-.82,1.6c-.54.43-1.21.65-1.99.65s-1.44-.22-1.99-.65c-.54-.43-.82-.96-.82-1.6s.27-1.16.82-1.6Z"/>
      <path d="M592.88,118.99c-.29-.28-.43-.64-.43-1.07v-1.5c0-.43.14-.79.43-1.07s.65-.42,1.1-.42h4.18c-.31-.53-.53-1.11-.66-1.72s-.2-1.26-.2-1.92c0-.96.16-1.95.48-2.94.32-1,.83-1.9,1.53-2.69.7-.8,1.59-1.45,2.68-1.95,1.09-.5,2.38-.75,3.87-.75h3.67c1.12,0,2.08.39,2.88,1.17s1.2,1.72,1.2,2.82v7.98h3.31v4.49h-22.94c-.44,0-.81-.14-1.1-.42h0ZM600.15,95.61c.54-.43,1.21-.65,1.99-.65s1.44.22,1.99.65.82.96.82,1.6-.27,1.17-.82,1.6c-.54.43-1.21.65-1.99.65s-1.44-.22-1.99-.65-.82-.96-.82-1.6.27-1.16.82-1.6ZM609.02,107.44h-3.47c-1.02,0-1.89.36-2.6,1.07-.71.71-1.07,1.61-1.07,2.67,0,.96.34,1.83,1.02,2.59.68.77,1.53,1.15,2.55,1.15h3.57v-7.49h0ZM606.78,95.61c.54-.43,1.21-.65,1.99-.65s1.44.22,1.99.65c.54.43.82.96.82,1.6s-.27,1.17-.82,1.6c-.54.43-1.21.65-1.99.65s-1.44-.22-1.99-.65-.82-.96-.82-1.6.27-1.16.82-1.6Z"/>
      <path d="M615.83,115.35c.29-.28.65-.42,1.1-.42h5.35v-10.98c0-.27.1-.5.31-.7.2-.2.44-.3.71-.3h2.55c.27,0,.51.1.71.3.2.2.31.43.31.7v10.98h5.35v4.49h-15.29c-.44,0-.81-.14-1.1-.42s-.43-.64-.43-1.07v-1.5c0-.43.14-.79.43-1.07h0ZM617.99,96.61c.54-.43,1.21-.65,1.99-.65s1.45.22,1.99.65.82.96.82,1.6-.27,1.16-.82,1.6c-.54.43-1.21.65-1.99.65s-1.44-.22-1.99-.65c-.54-.43-.82-.96-.82-1.6s.27-1.16.82-1.6ZM621.31,91.62c.54-.43,1.21-.65,1.99-.65s1.44.22,1.99.65c.54.43.82.96.82,1.6s-.27,1.16-.82,1.6c-.54.43-1.21.65-1.99.65s-1.44-.22-1.99-.65-.82-.96-.82-1.6.27-1.16.82-1.6ZM624.62,96.61c.54-.43,1.21-.65,1.99-.65s1.44.22,1.99.65.82.96.82,1.6-.27,1.16-.82,1.6-1.21.65-1.99.65-1.44-.22-1.99-.65-.82-.96-.82-1.6.27-1.16.82-1.6Z"/>
      <path d="M635.53,92.97c0-.27.1-.5.31-.7s.44-.3.71-.3h2.55c.27,0,.51.1.71.3s.31.43.31.7v22.45c0,1.1-.4,2.04-1.2,2.82s-1.76,1.17-2.88,1.17h-3.82c-.44,0-.81-.14-1.1-.42s-.43-.64-.43-1.07v-1.5c0-.43.14-.79.43-1.07s.65-.42,1.1-.42h3.31v-21.96Z"/>
      <path d="M651.03,92.27c.2.2.31.43.31.7v25.45c0,.27-.1.5-.31.7-.2.2-.44.3-.71.3h-2.55c-.27,0-.51-.1-.71-.3-.2-.2-.31-.43-.31-.7v-25.45c0-.27.1-.5.31-.7.2-.2.44-.3.71-.3h2.55c.27,0,.51.1.71.3Z"/>
    </g>
    <g>
      <path d="M83.27,177.34c-.8.78-1.76,1.17-2.88,1.17h-6.63c-1.26,0-2.45-.23-3.57-.7s-2.1-1.11-2.93-1.92c-.83-.82-1.49-1.77-1.96-2.87-.48-1.1-.71-2.26-.71-3.49v-5.99c0-.27.1-.5.31-.7.2-.2.44-.3.71-.3h2.55c.27,0,.51.1.71.3s.31.43.31.7v5.99c0,1.23.45,2.29,1.35,3.17s1.98,1.32,3.24,1.32h6.12v-17.96c0-.27.1-.5.31-.7.2-.2.44-.3.71-.3h2.55c.27,0,.51.1.71.3s.31.43.31.7v10.98h5.61v-10.98c0-.27.1-.5.31-.7.2-.2.44-.3.71-.3h2.55c.27,0,.51.1.71.3s.31.43.31.7v10.98h5.61v-10.98c0-.27.1-.5.31-.7.2-.2.44-.3.71-.3h2.55c.27,0,.51.1.71.3s.31.43.31.7v10.98h5.35v4.49h-25.74v2.99c0,1.1-.4,2.04-1.2,2.82h-.02Z"/>
      <path d="M109.12,171.1c-.29-.28-.43-.64-.43-1.07v-1.5c0-.43.14-.79.43-1.07.29-.28.65-.42,1.1-.42h4.18c-.31-.53-.53-1.11-.66-1.72s-.2-1.26-.2-1.92c0-.96.16-1.95.48-2.94.32-1,.83-1.9,1.53-2.69.7-.8,1.59-1.45,2.68-1.95,1.09-.5,2.38-.75,3.88-.75h3.67c1.12,0,2.08.39,2.88,1.17s1.2,1.72,1.2,2.82v7.98h3.31v4.49h-22.94c-.44,0-.81-.14-1.1-.42h0ZM125.25,159.55h-3.47c-1.02,0-1.89.36-2.6,1.07s-1.07,1.61-1.07,2.67c0,.96.34,1.83,1.02,2.59.68.77,1.53,1.15,2.55,1.15h3.57v-7.49h0ZM119.69,147.72c.54-.43,1.21-.65,1.99-.65s1.44.22,1.99.65.82.96.82,1.6-.27,1.17-.82,1.6c-.54.43-1.21.65-1.99.65s-1.44-.22-1.99-.65-.82-.96-.82-1.6.27-1.16.82-1.6Z"/>
      <path d="M132.06,167.46c.29-.28.65-.42,1.1-.42h5.35v-10.98c0-.27.1-.5.31-.7.2-.2.44-.3.71-.3h2.55c.27,0,.51.1.71.3.2.2.31.43.31.7v10.98h5.35v4.49h-15.29c-.44,0-.81-.14-1.1-.42-.29-.28-.43-.64-.43-1.07v-1.5c0-.43.14-.79.43-1.07h0ZM138.81,147.72c.54-.43,1.21-.65,1.99-.65s1.44.22,1.99.65c.54.43.82.96.82,1.6s-.27,1.17-.82,1.6c-.54.43-1.21.65-1.99.65s-1.44-.22-1.99-.65-.82-.96-.82-1.6.27-1.16.82-1.6Z"/>
      <path d="M151.76,145.08c0-.27.1-.5.31-.7s.44-.3.71-.3h2.55c.27,0,.51.1.71.3s.31.43.31.7v22.45c0,1.1-.4,2.04-1.2,2.82-.8.78-1.76,1.17-2.88,1.17h-3.82c-.44,0-.81-.14-1.1-.42-.29-.28-.43-.64-.43-1.07v-1.5c0-.43.14-.79.43-1.07.29-.28.65-.42,1.1-.42h3.31v-21.96h0Z"/>
      <path d="M167.26,144.38c.2.2.31.43.31.7v21.96h3.31v4.49h-6.88c-.27,0-.51-.1-.71-.3-.2-.2-.31-.43-.31-.7v-25.45c0-.27.1-.5.31-.7s.44-.3.71-.3h2.55c.27,0,.51.1.71.3h0Z"/>
      <path d="M169.79,167.46c.29-.28.65-.42,1.1-.42h5.35v-10.98c0-.27.1-.5.31-.7.2-.2.44-.3.71-.3h2.55c.27,0,.51.1.71.3.2.2.31.43.31.7v11.48c0,1.1-.4,2.04-1.2,2.82-.8.78-1.76,1.17-2.88,1.17h-5.86c-.44,0-.81-.14-1.1-.42-.29-.28-.43-.64-.43-1.07v-1.5c0-.43.14-.79.43-1.07h0ZM174.04,175.17c.54-.43,1.21-.65,1.99-.65s1.44.22,1.99.65.82.96.82,1.6-.27,1.16-.82,1.6-1.21.65-1.99.65-1.44-.22-1.99-.65-.82-.96-.82-1.6.27-1.16.82-1.6Z"/>
      <path d="M198.67,171.52c-1.84,0-3.14-.34-3.93-1.02-.78-.68-1.17-1.56-1.17-2.62,0-.8.2-1.7.61-2.69l2.8-6.94c.37-.93.99-1.7,1.86-2.29.87-.6,1.83-.9,2.88-.9h7.65c.27,0,.51.1.71.3.2.2.31.43.31.7v10.98h3.31v4.49h-15.04,0ZM199.23,147.72c.54-.43,1.21-.65,1.99-.65s1.44.22,1.99.65.82.96.82,1.6-.27,1.17-.82,1.6c-.54.43-1.21.65-1.99.65s-1.44-.22-1.99-.65-.82-.96-.82-1.6.27-1.16.82-1.6ZM205.8,159.55h-4.38l-3.01,7.49h7.39v-7.49ZM205.85,147.72c.54-.43,1.21-.65,1.99-.65s1.44.22,1.99.65.82.96.82,1.6-.27,1.17-.82,1.6c-.54.43-1.21.65-1.99.65s-1.44-.22-1.99-.65c-.54-.43-.82-.96-.82-1.6s.27-1.16.82-1.6Z"/>
      <path d="M212.61,171.1c-.29-.28-.43-.64-.43-1.07v-1.5c0-.43.14-.79.43-1.07.29-.28.65-.42,1.1-.42h4.18c-.31-.53-.53-1.11-.66-1.72s-.2-1.26-.2-1.92c0-.96.16-1.95.48-2.94.32-1,.83-1.9,1.53-2.69.7-.8,1.59-1.45,2.68-1.95s2.38-.75,3.87-.75h3.67c1.12,0,2.08.39,2.88,1.17s1.2,1.72,1.2,2.82v7.98h3.31v4.49h-22.94c-.44,0-.81-.14-1.1-.42h0ZM219.87,147.72c.54-.43,1.21-.65,1.99-.65s1.44.22,1.99.65.82.96.82,1.6-.27,1.17-.82,1.6c-.54.43-1.21.65-1.99.65s-1.44-.22-1.99-.65-.82-.96-.82-1.6.27-1.16.82-1.6ZM228.75,159.55h-3.47c-1.02,0-1.89.36-2.6,1.07s-1.07,1.61-1.07,2.67c0,.96.34,1.83,1.02,2.59.68.77,1.53,1.15,2.55,1.15h3.57v-7.49h0ZM226.5,147.72c.54-.43,1.21-.65,1.99-.65s1.44.22,1.99.65c.54.43.82.96.82,1.6s-.27,1.17-.82,1.6c-.54.43-1.21.65-1.99.65s-1.44-.22-1.99-.65-.82-.96-.82-1.6.27-1.16.82-1.6Z"/>
      <path d="M235.55,167.46c.29-.28.65-.42,1.1-.42h5.35v-10.98c0-.27.1-.5.31-.7.2-.2.44-.3.71-.3h2.55c.27,0,.51.1.71.3.2.2.31.43.31.7v10.98h5.35v4.49h-15.29c-.44,0-.81-.14-1.1-.42-.29-.28-.43-.64-.43-1.07v-1.5c0-.43.14-.79.43-1.07h0ZM237.72,148.72c.54-.43,1.21-.65,1.99-.65s1.45.22,1.99.65c.54.43.82.96.82,1.6s-.27,1.16-.82,1.6c-.54.43-1.21.65-1.99.65s-1.44-.22-1.99-.65c-.54-.43-.82-.96-.82-1.6s.27-1.16.82-1.6ZM241.03,143.73c.54-.43,1.21-.65,1.99-.65s1.44.22,1.99.65c.54.43.82.96.82,1.6s-.27,1.16-.82,1.6c-.54.43-1.21.65-1.99.65s-1.44-.22-1.99-.65-.82-.96-.82-1.6.27-1.16.82-1.6ZM244.35,148.72c.54-.43,1.21-.65,1.99-.65s1.44.22,1.99.65.82.96.82,1.6-.27,1.16-.82,1.6-1.21.65-1.99.65-1.44-.22-1.99-.65-.82-.96-.82-1.6.27-1.16.82-1.6Z"/>
      <path d="M255.26,145.08c0-.27.1-.5.31-.7s.44-.3.71-.3h2.55c.27,0,.51.1.71.3s.31.43.31.7v22.45c0,1.1-.4,2.04-1.2,2.82-.8.78-1.76,1.17-2.88,1.17h-3.82c-.44,0-.81-.14-1.1-.42-.29-.28-.43-.64-.43-1.07v-1.5c0-.43.14-.79.43-1.07.29-.28.65-.42,1.1-.42h3.31v-21.96h0Z"/>
      <path d="M270.75,144.38c.2.2.31.43.31.7v25.45c0,.27-.1.5-.31.7-.2.2-.44.3-.71.3h-2.55c-.27,0-.51-.1-.71-.3-.2-.2-.31-.43-.31-.7v-25.45c0-.27.1-.5.31-.7.2-.2.44-.3.71-.3h2.55c.27,0,.51.1.71.3Z"/>
      <path d="M289.21,155.36c.2-.2.44-.3.71-.3h2.55c.27,0,.51.1.71.3.2.2.31.43.31.7v15.47c0,1.5-.18,2.77-.54,3.82-.36,1.05-.86,1.91-1.5,2.59-.65.68-1.41,1.18-2.29,1.5s-1.85.47-2.91.47c-1.19,0-2.44-.17-3.75-.52s-2.66-.86-4.05-1.52l1.48-3.54c.78.37,1.67.7,2.68,1,1,.3,1.98.45,2.93.45.48,0,.92-.07,1.33-.2.41-.13.76-.36,1.07-.67.31-.32.54-.75.71-1.3.17-.55.26-1.24.26-2.07v-15.47c0-.27.1-.5.31-.7h0ZM289.21,147.72c.54-.43,1.21-.65,1.99-.65s1.44.22,1.99.65c.54.43.82.96.82,1.6s-.27,1.17-.82,1.6c-.54.43-1.21.65-1.99.65s-1.44-.22-1.99-.65-.82-.96-.82-1.6.27-1.16.82-1.6Z"/>
      <path d="M304.91,155.36c.2.2.31.43.31.7v10.98h3.31v4.49h-3.31c0,1.5-.18,2.77-.54,3.82-.36,1.05-.86,1.9-1.5,2.57s-1.41,1.16-2.29,1.47c-.88.32-1.85.47-2.91.47-1.22,0-2.45-.17-3.67-.5l1.12-4.24c.31.1.61.17.92.2s.59.05.87.05c.99,0,1.8-.27,2.45-.82s.97-1.55.97-3.02v-15.47c0-.27.1-.5.31-.7.2-.2.44-.3.71-.3h2.55c.27,0,.51.1.71.3h0ZM300.94,147.72c.54-.43,1.21-.65,1.99-.65s1.44.22,1.99.65.82.96.82,1.6-.27,1.17-.82,1.6c-.54.43-1.21.65-1.99.65s-1.44-.22-1.99-.65-.82-.96-.82-1.6.27-1.16.82-1.6Z"/>
      <path d="M307.44,167.46c.29-.28.65-.42,1.1-.42h6.88l-3.01-5.09c-.2-.33-.35-.71-.43-1.12-.08-.42-.13-.82-.13-1.22,0-.57.08-1.12.25-1.67s.42-1.03.76-1.45.76-.76,1.27-1.02c.51-.27,1.1-.4,1.78-.4h10.71c.68,0,1.27.13,1.78.4.51.27.93.61,1.27,1.02s.59.9.76,1.45.25,1.11.25,1.67c0,.4-.04.8-.13,1.2s-.23.78-.43,1.15l-2.96,5.09h6.83v4.49h-25.49c-.44,0-.81-.14-1.1-.42s-.43-.64-.43-1.07v-1.5c0-.43.14-.79.43-1.07l.04-.02ZM316.33,159.55l4.64,7.49h.56l4.74-7.49h-9.94Z"/>
      <path d="M332.93,167.46c.29-.28.65-.42,1.1-.42h5.35v-10.98c0-.27.1-.5.31-.7.2-.2.44-.3.71-.3h2.55c.27,0,.51.1.71.3.2.2.31.43.31.7v11.48c0,1.1-.4,2.04-1.2,2.82-.8.78-1.76,1.17-2.88,1.17h-5.86c-.44,0-.81-.14-1.1-.42s-.43-.64-.43-1.07v-1.5c0-.43.14-.79.43-1.07h0ZM335.09,147.72c.54-.43,1.21-.65,1.99-.65s1.44.22,1.99.65.82.96.82,1.6-.27,1.17-.82,1.6c-.54.43-1.21.65-1.99.65s-1.44-.22-1.99-.65-.82-.96-.82-1.6.27-1.16.82-1.6ZM341.72,147.72c.54-.43,1.21-.65,1.99-.65s1.44.22,1.99.65.82.96.82,1.6-.27,1.17-.82,1.6c-.54.43-1.21.65-1.99.65s-1.44-.22-1.99-.65c-.54-.43-.82-.96-.82-1.6s.27-1.16.82-1.6Z"/>
      <path d="M361.81,171.52c-1.83,0-3.14-.34-3.92-1.02-.78-.68-1.17-1.56-1.17-2.62,0-.8.2-1.7.61-2.69l2.8-6.94c.37-.93.99-1.7,1.86-2.29s1.83-.9,2.88-.9h7.65c.27,0,.51.1.71.3.2.2.31.43.31.7v10.98h3.31v4.49h-15.04,0ZM362.37,147.72c.54-.43,1.21-.65,1.99-.65s1.45.22,1.99.65c.54.43.82.96.82,1.6s-.27,1.17-.82,1.6c-.54.43-1.21.65-1.99.65s-1.44-.22-1.99-.65c-.54-.43-.82-.96-.82-1.6s.27-1.16.82-1.6ZM368.95,159.55h-4.38l-3.01,7.49h7.39v-7.49ZM369,147.72c.54-.43,1.21-.65,1.99-.65s1.44.22,1.99.65.82.96.82,1.6-.27,1.17-.82,1.6c-.54.43-1.21.65-1.99.65s-1.44-.22-1.99-.65-.82-.96-.82-1.6.27-1.16.82-1.6Z"/>
      <path d="M375.75,167.46c.29-.28.65-.42,1.1-.42h5.35v-10.98c0-.27.1-.5.31-.7.2-.2.44-.3.71-.3h2.55c.27,0,.51.1.71.3.2.2.31.43.31.7v10.98h5.35v4.49h-15.29c-.44,0-.81-.14-1.1-.42s-.43-.64-.43-1.07v-1.5c0-.43.14-.79.43-1.07h0ZM377.66,175.17c.54-.43,1.21-.65,1.99-.65s1.45.22,1.99.65c.54.43.82.96.82,1.6s-.27,1.16-.82,1.6c-.54.43-1.21.65-1.99.65s-1.44-.22-1.99-.65c-.54-.43-.82-.96-.82-1.6s.27-1.16.82-1.6ZM384.29,175.17c.54-.43,1.21-.65,1.99-.65s1.44.22,1.99.65.82.96.82,1.6-.27,1.16-.82,1.6-1.21.65-1.99.65-1.44-.22-1.99-.65-.82-.96-.82-1.6.27-1.16.82-1.6Z"/>
      <path d="M391.05,171.1c-.29-.28-.43-.64-.43-1.07v-1.5c0-.43.14-.79.43-1.07.29-.28.65-.42,1.1-.42h4.18c-.31-.53-.53-1.11-.66-1.72s-.2-1.26-.2-1.92c0-.96.16-1.95.48-2.94.32-1,.83-1.9,1.53-2.69.7-.8,1.59-1.45,2.68-1.95s2.38-.75,3.87-.75h3.67c1.12,0,2.08.39,2.88,1.17.8.78,1.2,1.72,1.2,2.82v7.98h3.31v4.49h-22.94c-.44,0-.81-.14-1.1-.42h0ZM407.18,159.55h-3.47c-1.02,0-1.89.36-2.6,1.07s-1.07,1.61-1.07,2.67c0,.96.34,1.83,1.02,2.59.68.77,1.53,1.15,2.55,1.15h3.57v-7.49h0ZM401.62,147.72c.54-.43,1.21-.65,1.99-.65s1.45.22,1.99.65c.54.43.82.96.82,1.6s-.27,1.17-.82,1.6c-.54.43-1.21.65-1.99.65s-1.44-.22-1.99-.65c-.54-.43-.82-.96-.82-1.6s.27-1.16.82-1.6Z"/>
      <path d="M413.99,167.46c.29-.28.65-.42,1.1-.42h12.85c-.34-.8-.69-1.72-1.04-2.77-.36-1.05-.78-2.05-1.27-2.99-.49-.95-1.06-1.75-1.71-2.39-.65-.65-1.44-.97-2.4-.97-.58,0-1.14.12-1.68.35s-1.1.53-1.68.9l-1.53-3.09c.92-.73,1.91-1.33,2.98-1.8s2.13-.7,3.19-.7,1.9.22,2.65.65,1.4,1.01,1.96,1.72c.56.72,1.06,1.54,1.5,2.47.44.93.88,1.9,1.3,2.89s.87,2,1.33,2.99c.46,1,.99,1.91,1.61,2.75h2.34v4.49h-20.39c-.44,0-.81-.14-1.1-.42s-.43-.64-.43-1.07v-1.5c0-.43.14-.79.43-1.07v-.02ZM421,147.22c.54-.43,1.21-.65,1.99-.65s1.44.22,1.99.65c.54.43.82.96.82,1.6s-.27,1.17-.82,1.6c-.54.43-1.21.65-1.99.65s-1.44-.22-1.99-.65c-.54-.43-.82-.96-.82-1.6s.27-1.16.82-1.6Z"/>
      <path d="M434.38,171.1c-.29-.28-.43-.64-.43-1.07v-1.5c0-.43.14-.79.43-1.07.29-.28.65-.42,1.1-.42h3.31v-4.89c0-1,.23-1.89.69-2.67s1.07-1.44,1.83-1.97,1.65-.93,2.65-1.2,2.05-.4,3.13-.4c1.33,0,2.64.21,3.95.62,1.31.42,2.49,1.06,3.54,1.92v8.48c0,1.1-.21,2.06-.64,2.89-.42.83-.99,1.52-1.68,2.07-.7.55-1.5.96-2.42,1.22s-1.89.4-2.91.4c-1.29,0-2.4-.17-3.34-.52-.93-.35-1.95-.84-3.03-1.47h-5.1c-.44,0-.81-.14-1.1-.42h.02ZM445.11,168.8c.61.15,1.22.22,1.83.22.82,0,1.53-.15,2.14-.45.61-.3.92-.76.92-1.4v-6.14c-.31-.17-.73-.32-1.27-.45-.54-.13-1.12-.2-1.73-.2-.88,0-1.71.18-2.47.55s-1.15,1.01-1.15,1.95v5.19c.54.33,1.12.57,1.73.72h0Z"/>
      <path d="M472.44,171.52c-1.83,0-3.14-.34-3.92-1.02-.78-.68-1.17-1.56-1.17-2.62,0-.8.2-1.7.61-2.69l2.8-6.94c.37-.93.99-1.7,1.86-2.29s1.83-.9,2.88-.9h7.65c.27,0,.51.1.71.3.2.2.31.43.31.7v10.98h3.31v4.49h-15.04,0ZM473,147.72c.54-.43,1.21-.65,1.99-.65s1.45.22,1.99.65c.54.43.82.96.82,1.6s-.27,1.17-.82,1.6c-.54.43-1.21.65-1.99.65s-1.44-.22-1.99-.65c-.54-.43-.82-.96-.82-1.6s.27-1.16.82-1.6ZM479.58,159.55h-4.38l-3.01,7.49h7.39v-7.49ZM479.63,147.72c.54-.43,1.21-.65,1.99-.65s1.44.22,1.99.65.82.96.82,1.6-.27,1.17-.82,1.6c-.54.43-1.21.65-1.99.65s-1.44-.22-1.99-.65-.82-.96-.82-1.6.27-1.16.82-1.6Z"/>
      <path d="M486.38,167.46c.29-.28.65-.42,1.1-.42h4.18c-.31-.53-.53-1.11-.66-1.72s-.2-1.26-.2-1.92c0-.96.16-1.95.48-2.94.32-1,.83-1.9,1.53-2.69.7-.8,1.59-1.45,2.68-1.95s2.38-.75,3.88-.75h3.67c1.12,0,2.08.39,2.88,1.17.8.78,1.2,1.72,1.2,2.82v11.48c0,.27-.1.5-.31.7-.2.2-.44.3-.71.3h-18.61c-.44,0-.81-.14-1.1-.42s-.43-.64-.43-1.07v-1.5c0-.43.14-.79.43-1.07v-.02ZM493.65,147.72c.54-.43,1.21-.65,1.99-.65s1.44.22,1.99.65c.54.43.82.96.82,1.6s-.27,1.17-.82,1.6c-.54.43-1.21.65-1.99.65s-1.44-.22-1.99-.65-.82-.96-.82-1.6.27-1.16.82-1.6ZM496.45,160.62c-.71.71-1.07,1.61-1.07,2.67,0,.96.34,1.83,1.02,2.59.68.77,1.56,1.15,2.65,1.15h3.47v-7.49h-3.47c-1.02,0-1.89.36-2.6,1.07h0ZM500.27,147.72c.54-.43,1.21-.65,1.99-.65s1.44.22,1.99.65.82.96.82,1.6-.27,1.17-.82,1.6c-.54.43-1.21.65-1.99.65s-1.44-.22-1.99-.65-.82-.96-.82-1.6.27-1.16.82-1.6Z"/>
      <path d="M518.02,144.38c.2.2.31.43.31.7v21.96h3.31v4.49h-6.88c-.27,0-.51-.1-.71-.3s-.31-.43-.31-.7v-25.45c0-.27.1-.5.31-.7s.44-.3.71-.3h2.55c.27,0,.51.1.71.3h0Z"/>
      <path d="M520.54,171.1c-.29-.28-.43-.64-.43-1.07v-1.5c0-.43.14-.79.43-1.07.29-.28.65-.42,1.1-.42h3.31v-21.96c0-.27.1-.5.31-.7s.44-.3.71-.3h2.55c.27,0,.51.1.71.3s.31.43.31.7v16.47l6.27-4.99c.54-.43,1.12-.79,1.73-1.07.61-.28,1.31-.42,2.09-.42h6.22c1.12,0,2.08.39,2.88,1.17s1.2,1.72,1.2,2.82v8.48c0,1.1-.4,2.04-1.2,2.82-.8.78-1.76,1.17-2.88,1.17h-24.21c-.44,0-.81-.14-1.1-.42h0ZM545.34,167.03v-7.49h-6.47l-9.43,7.49h15.91-.01Z"/>
      <path d="M598.62,167.03v4.49h-31.86c-1.12,0-2.08-.39-2.88-1.17s-1.2-1.72-1.2-2.82v-11.48c0-.27.1-.5.31-.7.2-.2.44-.3.71-.3h2.55c.27,0,.51.1.71.3s.31.43.31.7v10.98h23.45v-10.98c0-.27.1-.5.31-.7.2-.2.44-.3.71-.3h2.55c.27,0,.51.1.71.3s.31.43.31.7v10.98h3.31,0ZM573.69,148.72c.54-.43,1.21-.65,1.99-.65s1.44.22,1.99.65.82.96.82,1.6-.27,1.16-.82,1.6-1.21.65-1.99.65-1.44-.22-1.99-.65-.82-.96-.82-1.6.27-1.16.82-1.6ZM577,143.73c.54-.43,1.21-.65,1.99-.65s1.45.22,1.99.65.82.96.82,1.6-.27,1.16-.82,1.6c-.54.43-1.21.65-1.99.65s-1.44-.22-1.99-.65c-.54-.43-.82-.96-.82-1.6s.27-1.16.82-1.6ZM580.32,148.72c.54-.43,1.21-.65,1.99-.65s1.44.22,1.99.65c.54.43.82.96.82,1.6s-.27,1.16-.82,1.6c-.54.43-1.21.65-1.99.65s-1.44-.22-1.99-.65-.82-.96-.82-1.6.27-1.16.82-1.6Z"/>
      <path d="M597.52,167.46c.29-.28.65-.42,1.1-.42h6.88l-3.01-5.09c-.2-.33-.35-.71-.43-1.12-.08-.42-.13-.82-.13-1.22,0-.57.08-1.12.25-1.67s.42-1.03.77-1.45c.34-.42.76-.76,1.27-1.02.51-.27,1.1-.4,1.78-.4h10.71c.68,0,1.27.13,1.78.4.51.27.94.61,1.28,1.02s.59.9.76,1.45.25,1.11.25,1.67c0,.4-.04.8-.13,1.2s-.23.78-.43,1.15l-2.96,5.09h6.83v4.49h-25.49c-.44,0-.81-.14-1.1-.42s-.43-.64-.43-1.07v-1.5c0-.43.14-.79.43-1.07l.02-.02ZM606.42,159.55l4.64,7.49h.56l4.74-7.49h-9.94Z"/>
      <path d="M623.01,167.46c.29-.28.65-.42,1.1-.42h5.35v-10.98c0-.27.1-.5.31-.7.2-.2.44-.3.71-.3h2.55c.27,0,.51.1.71.3s.31.43.31.7v10.98h5.35v4.49h-15.29c-.44,0-.81-.14-1.1-.42s-.43-.64-.43-1.07v-1.5c0-.43.14-.79.43-1.07h0ZM629.77,175.17c.54-.43,1.21-.65,1.99-.65s1.44.22,1.99.65c.54.43.82.96.82,1.6s-.27,1.16-.82,1.6c-.54.43-1.21.65-1.99.65s-1.44-.22-1.99-.65-.82-.96-.82-1.6.27-1.16.82-1.6Z"/>
      <path d="M638.31,167.46c.29-.28.65-.42,1.1-.42h5.35v-10.98c0-.27.1-.5.31-.7.2-.2.44-.3.71-.3h2.55c.27,0,.51.1.71.3s.31.43.31.7v11.48c0,1.1-.4,2.04-1.2,2.82-.8.78-1.76,1.17-2.88,1.17h-5.86c-.44,0-.81-.14-1.1-.42s-.43-.64-.43-1.07v-1.5c0-.43.14-.79.43-1.07h0ZM640.48,147.72c.54-.43,1.21-.65,1.99-.65s1.44.22,1.99.65.82.96.82,1.6-.27,1.17-.82,1.6c-.54.43-1.21.65-1.99.65s-1.44-.22-1.99-.65-.82-.96-.82-1.6.27-1.16.82-1.6ZM647.1,147.72c.54-.43,1.21-.65,1.99-.65s1.44.22,1.99.65.82.96.82,1.6-.27,1.17-.82,1.6c-.54.43-1.21.65-1.99.65s-1.44-.22-1.99-.65c-.54-.43-.82-.96-.82-1.6s.27-1.16.82-1.6Z"/>
      <path d="M118.52,208.95v-4.99c0-.8-.14-1.48-.43-2.05s-.67-1.02-1.15-1.37c-.48-.35-1.04-.6-1.68-.75-.65-.15-1.33-.22-2.04-.22-.58,0-1.17.05-1.78.15-.61.1-1.19.25-1.73.45l-1.12-4.19c1.05-.33,2.06-.58,3.01-.75.95-.17,1.89-.25,2.8-.25,1.26,0,2.41.17,3.47.52,1.05.35,1.97.89,2.75,1.62s1.39,1.66,1.83,2.79c.44,1.13.66,2.48.66,4.04v4.99h3.31v4.49h-18.86v-4.49h10.96Z"/>
      <path d="M125.33,209.38c.29-.28.65-.42,1.1-.42h5.35v-10.98c0-.27.1-.5.31-.7.2-.2.44-.3.71-.3h2.55c.27,0,.51.1.71.3.2.2.31.43.31.7v10.98h5.35v4.49h-15.29c-.44,0-.81-.14-1.1-.42s-.43-.64-.43-1.07v-1.5c0-.43.14-.79.43-1.07h0ZM132.08,189.64c.54-.43,1.21-.65,1.99-.65s1.44.22,1.99.65c.54.43.82.96.82,1.6s-.27,1.17-.82,1.6c-.54.43-1.21.65-1.99.65s-1.44-.22-1.99-.65-.82-.96-.82-1.6.27-1.16.82-1.6Z"/>
      <path d="M140.65,209.35c.31-.27.66-.4,1.07-.4h4.94c-.78-.77-1.35-1.6-1.71-2.5s-.54-1.8-.54-2.69c0-1.1.22-2.08.66-2.94s1.04-1.6,1.78-2.2c.75-.6,1.62-1.06,2.63-1.37,1-.32,2.08-.47,3.24-.47,1.09,0,2.21.14,3.36.42s2.33.71,3.52,1.27l-1.73,3.89c-.68-.27-1.43-.52-2.24-.75-.82-.23-1.65-.35-2.5-.35-.41,0-.86.06-1.35.17-.49.12-.95.3-1.38.55s-.78.58-1.07,1-.43.94-.43,1.57c0,.47.1.95.31,1.45.2.5.51.97.92,1.42s.91.82,1.5,1.1,1.27.42,2.01.42h6.83l-.92,4.49h-17.84c-.44,0-.81-.14-1.1-.42-.29-.28-.43-.64-.43-1.07v-1.5c0-.46.15-.83.46-1.1h0Z"/>
      <path d="M177.66,213.44c-1.83,0-3.14-.34-3.92-1.02-.78-.68-1.17-1.56-1.17-2.62,0-.8.2-1.7.61-2.69l2.8-6.94c.37-.93.99-1.7,1.86-2.29s1.83-.9,2.88-.9h7.65c.27,0,.51.1.71.3.2.2.31.43.31.7v10.98h3.31v4.49h-15.04ZM178.22,189.64c.54-.43,1.21-.65,1.99-.65s1.45.22,1.99.65c.54.43.82.96.82,1.6s-.27,1.17-.82,1.6c-.54.43-1.21.65-1.99.65s-1.44-.22-1.99-.65c-.54-.43-.82-.96-.82-1.6s.27-1.16.82-1.6ZM184.8,201.47h-4.38l-3.01,7.48h7.39v-7.48ZM184.85,189.64c.54-.43,1.21-.65,1.99-.65s1.44.22,1.99.65.82.96.82,1.6-.27,1.17-.82,1.6c-.54.43-1.21.65-1.99.65s-1.44-.22-1.99-.65-.82-.96-.82-1.6.27-1.16.82-1.6Z"/>
      <path d="M191.61,213.02c-.29-.28-.43-.64-.43-1.07v-1.5c0-.43.14-.79.43-1.07.29-.28.65-.42,1.1-.42h3.31v-10.98c0-.27.1-.5.31-.7.2-.2.44-.3.71-.3h2.55c.27,0,.51.1.71.3.2.2.31.43.31.7v5.49l6.27-4.99c.54-.43,1.12-.79,1.73-1.07.61-.28,1.31-.42,2.09-.42h6.22c1.12,0,2.08.39,2.88,1.17s1.2,1.72,1.2,2.82v8.48c0,1.1-.4,2.04-1.2,2.82-.8.78-1.76,1.17-2.88,1.17h-24.22c-.44,0-.81-.14-1.1-.42h0ZM216.41,208.95v-7.48h-6.47l-9.43,7.48h15.91-.01Z"/>
      <path d="M231.91,186.3c.2.2.31.43.31.7v21.96h3.31v4.49h-6.88c-.27,0-.51-.1-.71-.3-.2-.2-.31-.43-.31-.7v-25.45c0-.27.1-.5.31-.7s.44-.3.71-.3h2.55c.27,0,.51.1.71.3Z"/>
      <path d="M234.43,209.38c.29-.28.65-.42,1.1-.42h12.85c-.34-.8-.69-1.72-1.04-2.77-.36-1.05-.78-2.05-1.27-2.99-.49-.95-1.06-1.75-1.71-2.39s-1.44-.97-2.4-.97c-.58,0-1.14.12-1.68.35-.54.23-1.1.53-1.68.9l-1.53-3.09c.92-.73,1.91-1.33,2.98-1.8,1.07-.47,2.13-.7,3.19-.7s1.9.22,2.65.65,1.4,1.01,1.96,1.72c.56.72,1.06,1.54,1.5,2.47.44.93.88,1.9,1.3,2.89s.87,2,1.33,2.99c.46,1,.99,1.91,1.61,2.75h2.34v4.49h-20.39c-.44,0-.81-.14-1.1-.42-.29-.28-.43-.64-.43-1.07v-1.5c0-.43.14-.79.43-1.07v-.02ZM241.44,189.14c.54-.43,1.21-.65,1.99-.65s1.44.22,1.99.65c.54.43.82.96.82,1.6s-.27,1.17-.82,1.6c-.54.43-1.21.65-1.99.65s-1.44-.22-1.99-.65c-.54-.43-.82-.96-.82-1.6s.27-1.16.82-1.6Z"/>
      <path d="M272.26,212.94c-.9-.33-1.66-.78-2.27-1.35s-1.07-1.22-1.38-1.97-.46-1.55-.46-2.42c0-1.4.43-2.85,1.3-4.37.87-1.51,2.2-2.9,4-4.17l1.43,2.05c-1.16.8-1.95,1.61-2.4,2.45-.44.83-.66,1.58-.66,2.25,0,.93.32,1.71.97,2.32.65.62,1.51.96,2.6,1.02v4.69c-1.19,0-2.23-.17-3.14-.5h.01Z"/>
      <path d="M287.07,186.3c.2.2.31.43.31.7v21.96h3.31v4.49h-6.88c-.27,0-.51-.1-.71-.3-.2-.2-.31-.43-.31-.7v-25.45c0-.27.1-.5.31-.7s.44-.3.71-.3h2.55c.27,0,.51.1.71.3h0Z"/>
      <path d="M289.59,209.38c.29-.28.65-.42,1.1-.42h4.18c-.31-.57-.53-1.17-.66-1.82-.14-.65-.2-1.29-.2-1.92,0-1,.17-1.99.51-2.97s.86-1.86,1.56-2.64,1.58-1.41,2.65-1.9c1.07-.48,2.34-.72,3.8-.72h1.68l-.76-2.99c.95-.3,1.9-.53,2.85-.7s1.9-.25,2.86-.25c1.19,0,2.32.16,3.39.47,1.07.32,2.01.82,2.8,1.52.8.7,1.44,1.62,1.91,2.77s.71,2.54.71,4.17v6.99h3.31v4.49h-30.59c-.44,0-.81-.14-1.1-.42s-.43-.64-.43-1.07v-1.5c0-.43.14-.79.43-1.07v-.02ZM304.2,201.47h-1.83c-1.02,0-1.9.36-2.65,1.07s-1.12,1.61-1.12,2.67.37,1.95,1.12,2.67c.75.71,1.63,1.07,2.65,1.07h1.83v-7.48h0ZM312.92,199.7c-.31-.58-.73-1.03-1.27-1.35-.54-.32-1.19-.52-1.94-.62-.75-.1-1.55-.15-2.4-.15.48.4.87.89,1.17,1.47.31.58.46,1.22.46,1.92v7.98h4.44v-6.99c0-.93-.15-1.69-.46-2.27h0Z"/>
      <path d="M324.59,187c0-.27.1-.5.31-.7.2-.2.44-.3.71-.3h2.55c.27,0,.51.1.71.3.2.2.31.43.31.7v22.45c0,1.1-.4,2.04-1.2,2.82-.8.78-1.76,1.17-2.88,1.17h-3.82c-.44,0-.81-.14-1.1-.42s-.43-.64-.43-1.07v-1.5c0-.43.14-.79.43-1.07.29-.28.65-.42,1.1-.42h3.31v-21.96h0Z"/>
      <path d="M336.47,201.67c.44-1.06,1.04-1.95,1.78-2.64.75-.7,1.61-1.21,2.6-1.55s2.04-.5,3.16-.5c1.29,0,2.58.21,3.87.62,1.29.42,2.53,1.04,3.72,1.87v9.48h3.31v4.49h-3.31c0,1.5-.18,2.78-.54,3.84-.36,1.06-.86,1.94-1.5,2.62-.65.68-1.41,1.18-2.29,1.5s-1.85.47-2.91.47c-1.19,0-2.4-.18-3.62-.55s-2.53-.88-3.93-1.55l1.48-3.49c.82.37,1.67.68,2.57.95s1.78.4,2.63.4c1.02,0,1.86-.29,2.52-.87s.99-1.69.99-3.32h-6.63c-1.29,0-2.38-.43-3.26-1.3-.88-.87-1.33-1.93-1.33-3.19v-3.49c0-1.46.22-2.73.66-3.79h.03ZM347.02,201.96c-.88-.33-1.85-.5-2.91-.5-.99,0-1.85.32-2.6.95-.75.63-1.12,1.65-1.12,3.04v3.49h6.63v-6.99h0Z"/>
      <path d="M353.83,209.38c.29-.28.65-.42,1.1-.42h12.85c-.34-.8-.69-1.72-1.04-2.77-.36-1.05-.78-2.05-1.27-2.99-.49-.95-1.06-1.75-1.71-2.39-.65-.65-1.44-.97-2.4-.97-.58,0-1.14.12-1.68.35-.54.23-1.1.53-1.68.9l-1.53-3.09c.92-.73,1.91-1.33,2.98-1.8s2.13-.7,3.19-.7,1.9.22,2.65.65,1.4,1.01,1.96,1.72c.56.72,1.06,1.54,1.5,2.47.44.93.88,1.9,1.3,2.89s.87,2,1.33,2.99c.46,1,.99,1.91,1.61,2.75h2.34v4.49h-20.39c-.44,0-.81-.14-1.1-.42s-.43-.64-.43-1.07v-1.5c0-.43.14-.79.43-1.07v-.02Z"/>
      <path d="M409.99,208.95v4.49h-3.31v3.49c0,1.1-.4,2.04-1.2,2.82-.8.78-1.76,1.17-2.88,1.17h-6.63c-1.26,0-2.45-.23-3.57-.7s-2.1-1.11-2.93-1.92c-.83-.82-1.49-1.77-1.96-2.87-.48-1.1-.71-2.26-.71-3.49v-8.48c0-.27.1-.5.31-.7.2-.2.44-.3.71-.3h2.55c.27,0,.51.1.71.3.2.2.31.43.31.7v8.48c0,.53.11,1.06.33,1.6s.52,1.01.89,1.45c.37.43.82.78,1.33,1.05.51.27,1.07.4,1.68.4h6.47v-18.46c0-.27.1-.5.31-.7.2-.2.44-.3.71-.3h2.55c.27,0,.51.1.71.3.2.2.31.43.31.7v10.98h3.31ZM394.74,189.64c.54-.43,1.21-.65,1.99-.65s1.44.22,1.99.65.82.96.82,1.6-.27,1.17-.82,1.6c-.54.43-1.21.65-1.99.65s-1.44-.22-1.99-.65-.82-.96-.82-1.6.27-1.16.82-1.6Z"/>
      <path d="M408.89,213.02c-.29-.28-.43-.64-.43-1.07v-1.5c0-.43.14-.79.43-1.07.29-.28.65-.42,1.1-.42h3.31v-4.89c0-1,.23-1.89.69-2.67s1.07-1.44,1.84-1.97c.76-.53,1.65-.93,2.65-1.2s2.05-.4,3.14-.4c1.33,0,2.64.21,3.95.62,1.31.42,2.49,1.06,3.54,1.92v8.48c0,1.1-.21,2.06-.64,2.89-.42.83-.99,1.52-1.68,2.07-.7.55-1.5.96-2.42,1.22-.92.27-1.89.4-2.91.4-1.29,0-2.4-.17-3.34-.52-.93-.35-1.95-.84-3.03-1.47h-5.1c-.44,0-.81-.14-1.1-.42h0ZM419.62,210.72c.61.15,1.22.22,1.83.22.82,0,1.53-.15,2.14-.45.61-.3.92-.76.92-1.4v-6.14c-.31-.17-.73-.32-1.27-.45-.54-.13-1.12-.2-1.73-.2-.88,0-1.71.18-2.47.55s-1.15,1.01-1.15,1.95v5.19c.54.33,1.12.57,1.73.72h0Z"/>
      <path d="M453.78,207.8c0-.76.24-1.35.71-1.75s1-.6,1.58-.6c.68,0,1.26.23,1.73.7l2.8,2.79h5.96v4.49h-1.48l1.48,1.5c1.02,1.06,1.53,2.23,1.53,3.49,0,1.06-.38,2-1.15,2.79-.76.8-1.91,1.2-3.44,1.2h-12.49c-1.26,0-2.45-.23-3.57-.7s-2.1-1.11-2.93-1.92-1.49-1.77-1.96-2.87c-.48-1.1-.71-2.26-.71-3.49v-5.99c0-.27.1-.5.31-.7.2-.2.44-.3.71-.3h2.55c.27,0,.51.1.71.3.2.2.31.43.31.7v5.99c0,1.26.45,2.33,1.35,3.19s1.98,1.3,3.24,1.3h11.93l-8.46-8.43c-.48-.47-.71-1.03-.71-1.7h0ZM450.31,226c.54-.39,1.21-.58,1.99-.58s1.44.2,1.99.58c.54.39.82.87.82,1.44s-.27,1.05-.82,1.44c-.54.39-1.21.58-1.99.58s-1.44-.19-1.99-.58c-.54-.39-.82-.87-.82-1.44s.27-1.05.82-1.44ZM456.94,226c.54-.39,1.21-.58,1.99-.58s1.45.2,1.99.58c.54.39.82.87.82,1.44s-.27,1.05-.82,1.44c-.54.39-1.21.58-1.99.58s-1.44-.19-1.99-.58c-.54-.39-.82-.87-.82-1.44s.27-1.05.82-1.44Z"/>
      <path d="M465.48,209.38c.29-.28.65-.42,1.1-.42h4.18c-.31-.53-.53-1.11-.66-1.72s-.2-1.26-.2-1.92c0-.96.16-1.95.48-2.94.32-1,.83-1.9,1.53-2.69.7-.8,1.59-1.45,2.68-1.95s2.38-.75,3.88-.75h3.67c1.12,0,2.08.39,2.88,1.17.8.78,1.2,1.72,1.2,2.82v11.48c0,.27-.1.5-.31.7-.2.2-.44.3-.71.3h-18.61c-.44,0-.81-.14-1.1-.42s-.43-.64-.43-1.07v-1.5c0-.43.14-.79.43-1.07v-.02ZM475.55,202.54c-.71.71-1.07,1.61-1.07,2.67,0,.96.34,1.83,1.02,2.59.68.77,1.56,1.15,2.65,1.15h3.47v-7.48h-3.47c-1.02,0-1.89.36-2.6,1.07h0ZM476.06,189.64c.54-.43,1.21-.65,1.99-.65s1.44.22,1.99.65.82.96.82,1.6-.27,1.17-.82,1.6c-.54.43-1.21.65-1.99.65s-1.44-.22-1.99-.65-.82-.96-.82-1.6.27-1.16.82-1.6Z"/>
      <path d="M504.05,213.44c-1.84,0-3.14-.34-3.93-1.02-.78-.68-1.17-1.56-1.17-2.62,0-.8.2-1.7.61-2.69l2.8-6.94c.37-.93.99-1.7,1.86-2.29.87-.6,1.83-.9,2.88-.9h7.65c.27,0,.51.1.71.3s.31.43.31.7v10.98h3.31v4.49h-15.04.01ZM504.61,189.64c.54-.43,1.21-.65,1.99-.65s1.44.22,1.99.65.82.96.82,1.6-.27,1.17-.82,1.6c-.54.43-1.21.65-1.99.65s-1.44-.22-1.99-.65-.82-.96-.82-1.6.27-1.16.82-1.6ZM511.18,201.47h-4.38l-3.01,7.48h7.39v-7.48ZM511.24,189.64c.54-.43,1.21-.65,1.99-.65s1.44.22,1.99.65.82.96.82,1.6-.27,1.17-.82,1.6c-.54.43-1.21.65-1.99.65s-1.44-.22-1.99-.65c-.54-.43-.82-.96-.82-1.6s.27-1.16.82-1.6Z"/>
      <path d="M518.02,209.35c.31-.27.66-.4,1.07-.4h4.94c-.78-.77-1.35-1.6-1.71-2.5-.36-.9-.54-1.8-.54-2.69,0-1.1.22-2.08.66-2.94s1.04-1.6,1.78-2.2c.75-.6,1.62-1.06,2.63-1.37,1-.32,2.08-.47,3.24-.47,1.09,0,2.21.14,3.36.42s2.33.71,3.52,1.27l-1.73,3.89c-.68-.27-1.43-.52-2.24-.75-.82-.23-1.65-.35-2.5-.35-.41,0-.86.06-1.35.17-.49.12-.95.3-1.38.55s-.78.58-1.07,1-.43.94-.43,1.57c0,.47.1.95.31,1.45.2.5.51.97.92,1.42s.91.82,1.5,1.1,1.27.42,2.01.42h6.83l-.92,4.49h-17.84c-.44,0-.81-.14-1.1-.42s-.43-.64-.43-1.07v-1.5c0-.46.15-.83.46-1.1h0Z"/>
      <path d="M548.1,186.3c.2.2.31.43.31.7v21.96h3.31v4.49h-6.88c-.27,0-.51-.1-.71-.3s-.31-.43-.31-.7v-25.45c0-.27.1-.5.31-.7.2-.2.44-.3.71-.3h2.55c.27,0,.51.1.71.3Z"/>
      <path d="M550.62,209.38c.29-.28.65-.42,1.1-.42h12.85c-.34-.8-.69-1.72-1.04-2.77-.36-1.05-.78-2.05-1.27-2.99-.49-.95-1.06-1.75-1.71-2.39-.65-.65-1.44-.97-2.4-.97-.58,0-1.14.12-1.68.35-.54.23-1.1.53-1.68.9l-1.53-3.09c.92-.73,1.91-1.33,2.98-1.8s2.13-.7,3.19-.7,1.9.22,2.65.65,1.4,1.01,1.96,1.72c.56.72,1.06,1.54,1.5,2.47.44.93.88,1.9,1.3,2.89s.87,2,1.33,2.99c.46,1,.99,1.91,1.61,2.75h2.34v4.49h-20.39c-.44,0-.81-.14-1.1-.42s-.43-.64-.43-1.07v-1.5c0-.43.14-.79.43-1.07v-.02ZM561.2,217.08c.54-.43,1.21-.65,1.99-.65s1.44.22,1.99.65.82.96.82,1.6-.27,1.16-.82,1.6-1.21.65-1.99.65-1.44-.22-1.99-.65-.82-.96-.82-1.6.27-1.16.82-1.6Z"/>
      <path d="M571.01,213.02c-.29-.28-.43-.64-.43-1.07v-1.5c0-.43.14-.79.43-1.07.29-.28.65-.42,1.1-.42h5.35v-10.98c0-.27.1-.5.31-.7.2-.2.44-.3.71-.3h2.55c.27,0,.51.1.71.3s.31.43.31.7v10.98h5.61v-10.98c0-.27.1-.5.31-.7.2-.2.44-.3.71-.3h2.55c.27,0,.51.1.71.3s.31.43.31.7v10.98h5.61v-10.98c0-.27.1-.5.31-.7.2-.2.44-.3.71-.3h2.55c.27,0,.51.1.71.3s.31.43.31.7v10.98h5.35v4.49h-35.69c-.44,0-.81-.14-1.1-.42h0ZM584.65,190.64c.54-.43,1.21-.65,1.99-.65s1.44.22,1.99.65.82.96.82,1.6-.27,1.16-.82,1.6-1.21.65-1.99.65-1.44-.22-1.99-.65-.82-.96-.82-1.6.27-1.16.82-1.6ZM587.96,185.65c.54-.43,1.21-.65,1.99-.65s1.44.22,1.99.65.82.96.82,1.6-.27,1.16-.82,1.6-1.21.65-1.99.65-1.44-.22-1.99-.65c-.54-.43-.82-.96-.82-1.6s.27-1.16.82-1.6ZM591.28,190.64c.54-.43,1.21-.65,1.99-.65s1.44.22,1.99.65c.54.43.82.96.82,1.6s-.27,1.16-.82,1.6c-.54.43-1.21.65-1.99.65s-1.45-.22-1.99-.65-.82-.96-.82-1.6.27-1.16.82-1.6Z"/>
      <path d="M611.11,187c0-.27.1-.5.31-.7.2-.2.44-.3.71-.3h2.55c.27,0,.51.1.71.3s.31.43.31.7v22.45c0,1.1-.4,2.04-1.2,2.82-.8.78-1.76,1.17-2.88,1.17h-3.82c-.44,0-.81-.14-1.1-.42s-.43-.64-.43-1.07v-1.5c0-.43.14-.79.43-1.07.29-.28.65-.42,1.1-.42h3.31v-21.96Z"/>
      <path d="M626.61,186.3c.2.2.31.43.31.7v25.45c0,.27-.1.5-.31.7-.2.2-.44.3-.71.3h-2.55c-.27,0-.51-.1-.71-.3s-.31-.43-.31-.7v-25.45c0-.27.1-.5.31-.7s.44-.3.71-.3h2.55c.27,0,.51.1.71.3Z"/>
      <path d="M634.21,201.67c.44-1.06,1.04-1.95,1.78-2.64.75-.7,1.61-1.21,2.6-1.55s2.04-.5,3.16-.5c1.29,0,2.58.21,3.87.62,1.29.42,2.53,1.04,3.72,1.87v13.97c0,1.5-.18,2.78-.54,3.84s-.86,1.94-1.5,2.62c-.65.68-1.41,1.18-2.29,1.5s-1.85.47-2.91.47c-1.19,0-2.4-.18-3.62-.55s-2.53-.88-3.93-1.55l1.48-3.49c.82.37,1.67.68,2.57.95s1.78.4,2.63.4c1.02,0,1.86-.29,2.52-.87.66-.58.99-1.69.99-3.32h-6.63c-1.29,0-2.38-.43-3.26-1.3-.88-.87-1.33-1.93-1.33-3.19v-3.49c0-1.46.22-2.73.66-3.79h.03ZM644.76,201.96c-.88-.33-1.85-.5-2.91-.5-.99,0-1.85.32-2.6.95-.75.63-1.12,1.65-1.12,3.04v3.49h6.63v-6.99h0Z"/>
      <path d="M360.53,250.87v4.49h-3.31v3.49c0,1.1-.4,2.04-1.2,2.82-.8.78-1.76,1.17-2.88,1.17h-6.63c-1.26,0-2.45-.23-3.57-.7s-2.1-1.11-2.93-1.92c-.83-.82-1.49-1.77-1.96-2.87s-.71-2.26-.71-3.49v-8.48c0-.27.1-.5.31-.7s.44-.3.71-.3h2.55c.27,0,.51.1.71.3s.31.43.31.7v8.48c0,.53.11,1.06.33,1.6.22.53.52,1.01.89,1.45s.82.78,1.33,1.05c.51.27,1.07.4,1.68.4h6.47v-18.46c0-.27.1-.5.31-.7.2-.2.44-.3.71-.3h2.55c.27,0,.51.1.71.3.2.2.31.43.31.7v10.98h3.31ZM345.29,231.56c.54-.43,1.21-.65,1.99-.65s1.44.22,1.99.65c.54.43.82.96.82,1.6s-.27,1.17-.82,1.6c-.54.43-1.21.65-1.99.65s-1.45-.22-1.99-.65c-.54-.43-.82-.96-.82-1.6s.27-1.16.82-1.6Z"/>
      <path d="M359.44,251.29c.29-.28.65-.42,1.1-.42h5.35v-10.98c0-.27.1-.5.31-.7.2-.2.44-.3.71-.3h2.55c.27,0,.51.1.71.3.2.2.31.43.31.7v10.98h5.35v4.49h-15.29c-.44,0-.81-.14-1.1-.42s-.43-.64-.43-1.07v-1.5c0-.43.14-.79.43-1.07h0ZM361.35,259c.54-.43,1.21-.65,1.99-.65s1.44.22,1.99.65.82.96.82,1.6-.27,1.16-.82,1.6-1.21.65-1.99.65-1.44-.22-1.99-.65-.82-.96-.82-1.6.27-1.16.82-1.6ZM367.98,259c.54-.43,1.21-.65,1.99-.65s1.44.22,1.99.65.82.96.82,1.6-.27,1.16-.82,1.6-1.21.65-1.99.65-1.44-.22-1.99-.65c-.54-.43-.82-.96-.82-1.6s.27-1.16.82-1.6Z"/>
      <path d="M374.73,254.94c-.29-.28-.43-.64-.43-1.07v-1.5c0-.43.14-.79.43-1.07.29-.28.65-.42,1.1-.42h4.18c-.31-.53-.53-1.11-.66-1.72s-.2-1.26-.2-1.92c0-.96.16-1.95.48-2.94.32-1,.83-1.9,1.53-2.69.7-.8,1.59-1.45,2.68-1.95s2.38-.75,3.88-.75h3.67c1.12,0,2.08.39,2.88,1.17.8.78,1.2,1.72,1.2,2.82v7.98h3.31v4.49h-22.94c-.44,0-.81-.14-1.1-.42h-.01ZM382,231.56c.54-.43,1.21-.65,1.99-.65s1.44.22,1.99.65c.54.43.82.96.82,1.6s-.27,1.17-.82,1.6c-.54.43-1.21.65-1.99.65s-1.44-.22-1.99-.65-.82-.96-.82-1.6.27-1.16.82-1.6ZM390.87,243.38h-3.47c-1.02,0-1.89.36-2.6,1.07s-1.07,1.61-1.07,2.67c0,.96.34,1.83,1.02,2.59.68.77,1.53,1.15,2.55,1.15h3.57v-7.48h0ZM388.62,231.56c.54-.43,1.21-.65,1.99-.65s1.44.22,1.99.65.82.96.82,1.6-.27,1.17-.82,1.6c-.54.43-1.21.65-1.99.65s-1.44-.22-1.99-.65-.82-.96-.82-1.6.27-1.16.82-1.6Z"/>
      <path d="M397.67,251.29c.29-.28.65-.42,1.1-.42h4.18c-.31-.57-.53-1.17-.66-1.82-.14-.65-.2-1.29-.2-1.92,0-1,.17-1.99.51-2.97s.86-1.86,1.55-2.64c.7-.78,1.58-1.41,2.65-1.9,1.07-.48,2.34-.72,3.8-.72h1.68l-.76-2.99c.92-.3,1.85-.53,2.8-.7.95-.17,1.89-.25,2.8-.25,1.19,0,2.33.16,3.42.47,1.09.32,2.04.83,2.86,1.55s1.46,1.64,1.94,2.77.71,2.51.71,4.14v10.48c0,.27-.1.5-.31.7-.2.2-.44.3-.71.3h-26.25c-.44,0-.81-.14-1.1-.42s-.43-.64-.43-1.07v-1.5c0-.43.14-.79.43-1.07v-.02ZM412.28,243.38h-1.84c-1.02,0-1.9.36-2.65,1.07s-1.12,1.61-1.12,2.67.37,1.95,1.12,2.67c.75.71,1.63,1.07,2.65,1.07h1.84v-7.48h0ZM421,241.61c-.31-.58-.73-1.03-1.27-1.35-.54-.32-1.19-.52-1.94-.62-.75-.1-1.55-.15-2.4-.15.48.4.87.89,1.17,1.47.31.58.46,1.22.46,1.92v7.98h4.44v-6.99c0-.93-.15-1.69-.46-2.27h0Z"/>
      <path d="M436.96,228.22c.2.2.31.43.31.7v25.45c0,.27-.1.5-.31.7-.2.2-.44.3-.71.3h-2.55c-.27,0-.51-.1-.71-.3-.2-.2-.31-.43-.31-.7v-25.45c0-.27.1-.5.31-.7.2-.2.44-.3.71-.3h2.55c.27,0,.51.1.71.3Z"/>
      <path d="M437.59,259.18c1,.32,1.96.47,2.88.47s1.76-.3,2.42-.9.99-1.73.99-3.39v-15.47c0-.27.1-.5.31-.7.2-.2.44-.3.71-.3h2.55c.27,0,.51.1.71.3.2.2.31.43.31.7v10.98h3.31v4.49h-3.31c0,1.5-.18,2.78-.54,3.84-.36,1.06-.86,1.94-1.5,2.62-.65.68-1.41,1.18-2.29,1.5s-1.85.47-2.91.47c-1.19,0-2.44-.18-3.75-.55s-2.66-.88-4.05-1.55l1.48-3.54c.78.37,1.67.71,2.68,1.02h0Z"/>
      <path d="M450.7,251.29c.29-.28.65-.42,1.1-.42h3.31v-3.59c0-1.26.22-2.37.66-3.32.44-.95,1.03-1.73,1.76-2.34.73-.62,1.57-1.08,2.52-1.4.95-.32,1.94-.47,2.96-.47s2,.15,2.93.45,1.78.76,2.52,1.37c.75.62,1.34,1.39,1.78,2.32.44.93.66,2.01.66,3.24v3.74h3.31v4.49h-5.25c-.75.8-1.66,1.41-2.73,1.85-1.07.43-2.17.65-3.29.65s-2.2-.21-3.24-.62c-1.04-.42-1.93-1.04-2.68-1.87h-5.25c-.44,0-.81-.14-1.1-.42s-.43-.64-.43-1.07v-1.5c0-.43.14-.79.43-1.07l.03-.02ZM460.74,252.86c.7.33,1.45.5,2.27.5s1.61-.17,2.29-.5c.68-.33,1.02-.83,1.02-1.5v-4.49c0-.9-.34-1.56-1.02-2-.68-.43-1.44-.65-2.29-.65s-1.57.22-2.27.65c-.7.43-1.04,1.1-1.04,2v4.49c0,.67.35,1.17,1.04,1.5Z"/>
      <path d="M477.54,228.91c0-.27.1-.5.31-.7s.44-.3.71-.3h2.55c.27,0,.51.1.71.3s.31.43.31.7v22.45c0,1.1-.4,2.04-1.2,2.82-.8.78-1.76,1.17-2.88,1.17h-3.82c-.44,0-.81-.14-1.1-.42s-.43-.64-.43-1.07v-1.5c0-.43.14-.79.43-1.07.29-.28.65-.42,1.1-.42h3.31v-21.96h0Z"/>
      <path d="M493.04,228.22c.2.2.31.43.31.7v25.45c0,.27-.1.5-.31.7-.2.2-.44.3-.71.3h-2.55c-.27,0-.51-.1-.71-.3-.2-.2-.31-.43-.31-.7v-25.45c0-.27.1-.5.31-.7.2-.2.44-.3.71-.3h2.55c.27,0,.51.1.71.3Z"/>
      <path d="M500.63,243.58c.44-1.06,1.04-1.95,1.78-2.64.75-.7,1.61-1.21,2.6-1.55.99-.33,2.04-.5,3.16-.5,1.29,0,2.58.21,3.88.62,1.29.42,2.53,1.04,3.72,1.87v13.97c0,1.5-.18,2.78-.54,3.84s-.86,1.94-1.5,2.62c-.65.68-1.41,1.18-2.29,1.5-.88.32-1.85.47-2.91.47-1.19,0-2.4-.18-3.62-.55s-2.53-.88-3.92-1.55l1.48-3.49c.82.37,1.67.68,2.58.95.9.27,1.78.4,2.62.4,1.02,0,1.86-.29,2.52-.87s.99-1.69.99-3.32h-6.63c-1.29,0-2.38-.43-3.26-1.3-.88-.87-1.33-1.93-1.33-3.19v-3.49c0-1.46.22-2.73.66-3.79h.01ZM511.18,243.88c-.88-.33-1.85-.5-2.91-.5-.99,0-1.85.32-2.6.95-.75.63-1.12,1.65-1.12,3.04v3.49h6.63v-6.99h0Z"/>
      <path d="M547.2,259.18c-.8.78-1.76,1.17-2.88,1.17h-6.63c-1.26,0-2.45-.23-3.57-.7s-2.1-1.11-2.93-1.92c-.83-.82-1.49-1.77-1.96-2.87-.48-1.1-.71-2.26-.71-3.49v-5.89c0-.27.1-.5.31-.7.2-.2.44-.3.71-.3h2.55c.27,0,.51.1.71.3s.31.43.31.7v5.89c0,1.26.45,2.33,1.35,3.19.9.87,1.98,1.3,3.24,1.3h6.12v-26.94c0-.27.1-.5.31-.7.2-.2.44-.3.71-.3h2.55c.27,0,.51.1.71.3s.31.43.31.7v27.44c0,1.1-.4,2.04-1.2,2.82h0Z"/>
      <path d="M559.31,228.22c.2.2.31.43.31.7v21.96h3.31v4.49h-6.88c-.27,0-.51-.1-.71-.3s-.31-.43-.31-.7v-25.45c0-.27.1-.5.31-.7.2-.2.44-.3.71-.3h2.55c.27,0,.51.1.71.3h0Z"/>
      <path d="M561.84,254.94c-.29-.28-.43-.64-.43-1.07v-1.5c0-.43.14-.79.43-1.07.29-.28.65-.42,1.1-.42h4.18c-.31-.53-.53-1.11-.66-1.72s-.2-1.26-.2-1.92c0-.96.16-1.95.48-2.94.32-1,.83-1.9,1.53-2.69.7-.8,1.59-1.45,2.68-1.95,1.09-.5,2.38-.75,3.88-.75h3.67c1.12,0,2.08.39,2.88,1.17s1.2,1.72,1.2,2.82v7.98h3.31v4.49h-22.94c-.44,0-.81-.14-1.1-.42h-.01ZM577.97,243.38h-3.47c-1.02,0-1.89.36-2.6,1.07s-1.07,1.61-1.07,2.67c0,.96.34,1.83,1.02,2.59.68.77,1.53,1.15,2.55,1.15h3.57v-7.48h0ZM572.41,231.56c.54-.43,1.21-.65,1.99-.65s1.44.22,1.99.65.82.96.82,1.6-.27,1.17-.82,1.6c-.54.43-1.21.65-1.99.65s-1.44-.22-1.99-.65-.82-.96-.82-1.6.27-1.16.82-1.6Z"/>
      <path d="M584.78,254.94c-.29-.28-.43-.64-.43-1.07v-1.5c0-.43.14-.79.43-1.07.29-.28.65-.42,1.1-.42h3.31v-21.96c0-.27.1-.5.31-.7s.44-.3.71-.3h2.55c.27,0,.51.1.71.3s.31.43.31.7v16.47l6.27-4.99c.54-.43,1.12-.79,1.73-1.07.61-.28,1.31-.42,2.09-.42h6.22c1.12,0,2.08.39,2.88,1.17s1.2,1.72,1.2,2.82v8.48c0,1.1-.4,2.04-1.2,2.82-.8.78-1.76,1.17-2.88,1.17h-24.21c-.44,0-.81-.14-1.1-.42h0ZM609.58,250.87v-7.48h-6.47l-9.43,7.48h15.91-.01Z"/>
      <path d="M624.34,224.3c-.25-.08-.5-.12-.74-.12-.27,0-.5.07-.69.2-.19.13-.28.37-.28.7,0,.27.12.52.36.75s.59.35,1.07.35h1.94v2.25h-6.32v-2.25h1.22c-.48-.4-.71-.92-.71-1.55,0-.76.31-1.36.92-1.8.61-.43,1.33-.65,2.14-.65.48,0,.96.09,1.45.27.49.18.91.41,1.25.67l-.97,1.5c-.17-.13-.38-.24-.64-.32h0ZM625.44,230.66c.24.17.39.42.46.75l2.55,21.21h-3.57c-.27,0-.54-.08-.79-.25s-.4-.42-.43-.75l-2.55-21.21h3.57c.27,0,.53.08.76.25h0ZM622.73,257.85c.1-.3.19-.57.25-.82.07-.25.14-.52.23-.82.08-.3.21-.72.38-1.25.48.17,1.22.35,2.24.55s2.06.3,3.11.3c.61,0,1.19-.04,1.73-.12s1.03-.24,1.45-.47.76-.52,1.02-.87c.25-.35.38-.81.38-1.37v-24.05c0-.27.1-.5.31-.7.2-.2.44-.3.71-.3h2.55c.27,0,.51.1.71.3s.31.43.31.7v24.05c0,1.4-.24,2.57-.71,3.52-.48.95-1.12,1.71-1.94,2.29s-1.76,1-2.83,1.25-2.18.37-3.34.37-2.39-.12-3.59-.35c-1.21-.23-2.34-.55-3.39-.95.17-.53.31-.95.41-1.25h.01Z"/>
      <path d="M649.04,228.22c.2.2.31.43.31.7v25.45c0,.27-.1.5-.31.7-.2.2-.44.3-.71.3h-2.55c-.27,0-.51-.1-.71-.3s-.31-.43-.31-.7v-25.45c0-.27.1-.5.31-.7s.44-.3.71-.3h2.55c.27,0,.51.1.71.3Z"/>
    </g>
    <path d="M426.16,67.52c-.27,0-.51-.1-.71-.3-.2-.2-.31-.43-.31-.7v-3.99c0-.27.1-.5.31-.7.2-.2.44-.3.71-.3h4.08c.27,0,.51.1.71.3.2.2.31.43.31.7v3.99c0,.27-.1.5-.31.7-.2.2-.44.3-.71.3h-4.08ZM426.16,77.5c-.27,0-.51-.1-.71-.3-.2-.2-.31-.43-.31-.7v-3.99c0-.27.1-.5.31-.7.2-.2.44-.3.71-.3h4.08c.27,0,.51.1.71.3.2.2.31.43.31.7v3.99c0,.27-.1.5-.31.7-.2.2-.44.3-.71.3h-4.08Z"/>
  </g>
</svg>