<?xml version="1.0" encoding="UTF-8"?>
<svg id="Layer_1" xmlns="http://www.w3.org/2000/svg" version="1.1" viewBox="0 0 778.28 233.66">
  <!-- Generator: Adobe Illustrator 29.7.1, SVG Export Plug-In . SVG Version: 2.1.1 Build 8)  -->
  <defs>
    <style>
      .st0 {
        fill: #91f2b3;
      }
    </style>
  </defs>
  <path d="M103.16,4.13c-.8.78-1.2,1.88-1.14,2.96l-5.46,94.41-13.76-3.04c-.52-.12-1.04-.11-1.54-.02-.27,0-.54-.05-.81,0-.27,0-.54-.05-.81,0-.27,0-.54-.05-.81,0-.27,0-.54-.05-.81,0-.27,0-.55-.05-.81,0-.27,0-.54-.05-.81,0-.27,0-.54-.05-.81,0-.27,0-.54-.05-.81,0-.27,0-.54-.05-.81,0-.27,0-.54-.05-.81,0-.27,0-.54-.05-.81,0-.27,0-.54-.05-.81,0-.27,0-.54-.05-.81,0-.27,0-.54-.05-.81,0-.27,0-.54-.05-.81,0-.27,0-.55-.05-.81,0-.27,0-.55-.05-.81,0-.27,0-.54-.05-.81,0-.27,0-.55-.05-.81,0-.27,0-.54-.05-.81,0-1.73-.05-3.33.95-3.86,2.62l-7.73,24.2-17.4-9.34c-.69-.37-1.46-.44-2.23-.37-.27-.03-.53-.02-.81,0-.27-.03-.53-.02-.81,0-.27-.03-.53-.02-.81,0-.27-.03-.53-.02-.81,0-.27-.03-.53-.02-.81,0-.27-.03-.53-.02-.81,0-.27-.03-.53-.02-.81,0-.27-.03-.53-.02-.81,0-.27-.03-.53-.02-.81,0-.27-.03-.53-.02-.81,0-.28-.03-.53-.02-.81,0-.28-.03-.53-.02-.81,0-.27-.03-.53-.02-.81,0-.28-.03-.53-.02-.81,0-.27-.03-.53-.02-.81,0-.27-.03-.53-.02-.81,0-.28-.03-.53-.02-.81,0-.27-.03-.53-.02-.81,0-.27-.03-.53-.02-.81,0-.27-.03-.53-.02-.81,0-.73-.09-1.47-.04-2.16.29-1.14.54-1.94,1.58-2.15,2.8l-7.6,43.55-59.56,1.08c-1.85.03-3.42,1.33-3.77,3.11-.05.24-.07.48-.07.71,0,1.52.93,2.93,2.41,3.53l83.73,34.15c.63.26,1.29.29,1.95.21.27.03.53.03.81,0,.27.03.53.03.81,0,.27.03.53.03.81,0,.27.03.53.03.81,0,.27.03.53.03.81,0,.27.03.53.03.81,0,.27.03.53.03.81,0,.27.03.53.03.81,0,.27.03.53.03.81,0,.27.03.53.03.81,0,.28.03.53.03.81,0,.27.03.53.03.81,0,.27.03.53.03.81,0,.27.03.53.03.81,0,.27.03.53.03.81,0,.27.03.53.03.81,0,.27.03.53.03.81,0,.27.03.53.03.81,0,.27.03.53.03.81,0,.27.03.53.03.81,0,.69.06,1.39,0,2.03-.29,1-.46,1.75-1.32,2.07-2.36l5.09-16.61,5.33,4.7c.91.8,2.16,1.14,3.36.91.02,0,.04-.02.06-.03.25,0,.49.08.74.03.02,0,.04-.02.06-.03.25,0,.49.08.74.03.02,0,.04-.02.06-.03.25,0,.49.08.74.03.02,0,.04-.02.06-.03.25,0,.49.08.74.03.02,0,.04-.02.06-.03.25,0,.49.08.74.03.02,0,.04-.02.06-.03.25,0,.49.08.74.03.02,0,.04-.02.06-.03.25,0,.49.08.74.03.02,0,.04-.02.06-.03.25,0,.49.08.74.03.02,0,.04-.02.06-.03.25,0,.49.08.74.03.02,0,.04-.02.06-.03.25,0,.49.08.74.03.02,0,.04-.02.06-.03.25,0,.49.08.74.03.02,0,.04-.02.06-.03.25,0,.49.08.74.03.02,0,.04-.02.06-.03.25,0,.49.08.74.03.02,0,.04-.02.06-.03.25,0,.49.08.74.03.02,0,.04-.02.06-.03.25,0,.49.08.74.03.02,0,.04-.02.06-.03.25,0,.49.08.74.03.02,0,.04-.02.06-.03.25,0,.49.08.74.03.02,0,.04-.02.06-.03.25,0,.49.08.74.03.02,0,.04-.02.06-.03.25,0,.49.08.74.03.02,0,.04-.02.06-.03.25,0,.49.08.74.03.02,0,.04-.02.06-.03.25,0,.49.08.74.03,1.21-.23,2.23-1,2.77-2.09l14.22-28.64,3.55,2.01,8.88,65.31c.14,1.06.72,2.01,1.6,2.63.88.62,1.99.85,3.05.64h.02c.26,0,.52.05.79,0h.02c.26,0,.52.05.79,0h.02c.26,0,.52.05.79,0h.02c.26,0,.52.05.79,0h.02c.26,0,.52.05.79,0h.02c.26,0,.52.05.79,0h.02c.26,0,.53.05.79,0h.02c.26,0,.52.05.79,0h.02c.26,0,.52.05.79,0h.02c.26,0,.52.05.79,0h.02c.26,0,.52.05.79,0h.02c.26,0,.52.05.79,0h.02c.26,0,.52.05.79,0h.02c.26,0,.52.05.79,0h.02c.26,0,.52.05.79,0h.02c.26,0,.52.05.79,0h.02c.26,0,.52.05.79,0h.02c.26,0,.52.05.79,0h.02c.26,0,.53.05.79,0h.02c.26,0,.52.05.79,0h.02c.26,0,.53.05.79,0l615.62-39.84c1.74-.34,3.02-1.79,3.12-3.53l25.77-163.67c.09-2.02-1.5-3.89-3.64-4.04L123.13,3.02c-.09,0-.17.04-.26.04l-.55-.04c-.09,0-.17.04-.26.04l-.55-.04c-.09,0-.17.04-.26.04l-.55-.04c-.09,0-.17.04-.26.04l-.55-.04c-.09,0-.17.04-.26.04l-.55-.04c-.09,0-.17.04-.26.04l-.55-.04c-.09,0-.17.04-.26.04l-.55-.04c-.09,0-.17.04-.26.04l-.55-.04c-.09,0-.17.04-.26.04l-.55-.04c-.09,0-.17.04-.26.04l-.55-.04c-.09,0-.17.04-.26.04l-.55-.04c-.09,0-.17.04-.26.04l-.55-.04c-.09,0-.17.04-.26.04l-.55-.04c-.09,0-.17.04-.26.04l-.55-.04c-.09,0-.17.04-.26.04l-.55-.04c-.09,0-.17.04-.26.04l-.55-.04c-.09,0-.17.04-.26.04l-.55-.04c-.09,0-.17.04-.26.04l-.55-.04c-.09,0-.17.04-.26.04l-.55-.04c-.09,0-.17.04-.26.04l-.55-.04c-.09,0-.17.04-.26.04l-.55-.04c-1.13-.08-2.23.33-3.03,1.11h.07Z"/>
  <path class="st0" d="M121.89,109.91c.08,1.2-.43,2.37-1.36,3.16-.94.78-2.2,1.09-3.4.82l-32.53-7.19-10.56,33.06c-.35,1.1-1.18,1.98-2.27,2.41-1.09.43-2.31.36-3.34-.19l-31.24-16.77-7.22,41.37c-.31,1.81-1.9,3.15-3.78,3.18l-44.15.8,62.51,25.49,9.22-30.08c.39-1.26,1.4-2.23,2.69-2.59,1.29-.36,2.67-.04,3.67.84l19.4,17.08,17.5-35.26c.47-.96,1.33-1.68,2.37-1.99,1.04-.31,2.16-.19,3.1.35l22.09,12.52c1.05.6,1.76,1.64,1.92,2.83l8.59,63.1,608.54-38.43,25.37-156.95L127.05,10.96s-5.16,98.95-5.16,98.95Z"/>
  <path d="M118.96,7.09l-5.21,98.21-30.95-6.84c-1.99-.44-3.99.69-4.59,2.59l-10.21,31.96-31.87-17.11c-1.11-.59-2.44-.63-3.58-.09-1.14.54-1.94,1.58-2.15,2.8l-7.6,43.55-59.56,1.08c-1.85.03-3.42,1.33-3.77,3.11-.05.24-.07.48-.07.71,0,1.52.93,2.93,2.41,3.53l83.73,34.15c1.02.42,2.18.39,3.18-.07s1.75-1.32,2.07-2.36l8.69-28.36,18.67,16.45c.91.8,2.16,1.14,3.36.91,1.21-.23,2.23-1,2.77-2.09l17.94-36.14,16.78,9.51,8.88,65.31c.14,1.06.72,2.01,1.6,2.63.88.62,1.99.85,3.05.64l615.62-39.84c1.74-.34,3.02-1.79,3.12-3.53l25.77-163.67c.09-2.02-1.5-3.89-3.64-4.04L123.13,3.02c-1.13-.08-2.23.33-3.03,1.11-.8.78-1.2,1.88-1.14,2.96ZM743.65,184.43l-608.54,38.43-8.59-63.1c-.16-1.18-.87-2.23-1.92-2.83l-22.09-12.52c-.94-.53-2.07-.66-3.1-.35-1.04.31-1.9,1.03-2.37,1.99l-17.5,35.26-19.4-17.08c-1-.88-2.38-1.2-3.67-.84-1.29.36-2.31,1.33-2.69,2.59l-9.22,30.08-62.51-25.49,44.15-.8c1.88-.03,3.47-1.37,3.78-3.18l7.22-41.37,31.24,16.77c1.03.55,2.25.62,3.34.19s1.92-1.31,2.27-2.41l10.56-33.06,32.53,7.19c1.2.27,2.46-.04,3.4-.82s1.44-1.96,1.36-3.16l5.16-98.95,641.97,16.52-25.37,156.95h-.01Z"/>
  <g>
    <path d="M169.14,98.21c0,.27-.1.5-.31.7-.2.2-.44.3-.71.3h-2.55c-.27,0-.51-.1-.71-.3-.2-.2-.31-.43-.31-.7v-24.45c0-.27.1-.5.31-.7.2-.2.44-.3.71-.3h9.08c1.5,0,2.82.26,3.98.77,1.16.52,2.12,1.2,2.91,2.05.78.85,1.38,1.81,1.78,2.89.41,1.08.61,2.19.61,3.32,0,1.03-.18,2.04-.54,3.02-.36.98-.92,1.85-1.68,2.62-.76.76-1.73,1.38-2.91,1.85s-2.56.7-4.15.7h-5.51v8.23ZM178.24,84.34c.73-.76,1.1-1.61,1.1-2.54,0-.57-.1-1.12-.31-1.67s-.49-1.03-.87-1.45c-.37-.42-.85-.76-1.43-1.02-.58-.27-1.22-.4-1.94-.4h-5.66v8.23h5.66c1.56,0,2.71-.38,3.44-1.15Z"/>
    <path d="M188.85,81.95c.9-.8,1.98-1.2,3.24-1.2h5.61c1.73,0,3.02.38,3.85,1.12.83.75,1.25,1.66,1.25,2.72,0,.83-.23,1.69-.69,2.57s-1.13,1.73-2.01,2.54c-.88.81-1.97,1.57-3.26,2.27-1.29.7-2.77,1.28-4.44,1.75.34.5.79.86,1.35,1.07.56.22,1.2.32,1.91.32,1.05,0,2.14-.16,3.26-.47,1.12-.32,2.07-.66,2.86-1.02l1.02,3.59c-1.26.57-2.57,1.04-3.95,1.42-1.38.38-2.79.57-4.26.57-.95,0-1.86-.12-2.73-.37-.87-.25-1.62-.67-2.27-1.25-.65-.58-1.16-1.34-1.53-2.27-.37-.93-.56-2.1-.56-3.49v-6.59c0-1.4.45-2.5,1.35-3.29ZM193.41,89.78c.54-.23,1.11-.55,1.68-.95.58-.4,1.15-.9,1.71-1.5s1.03-1.3,1.4-2.1h-6.12v4.99c.34-.07.78-.22,1.33-.45Z"/>
    <path d="M210.95,83.99c-.07.03.19-.11.76-.42.58-.32,1.28-.67,2.12-1.05.83-.38,1.69-.74,2.57-1.07.88-.33,1.63-.5,2.24-.5.68,0,1.22.22,1.63.65.41.43.61,1.23.61,2.39v3.74c0,.27-.1.5-.31.7-.2.2-.44.3-.71.3h-3.57v-2.25c0-.57-.31-.85-.92-.85-.37,0-.79.07-1.25.2s-.9.29-1.33.47c-.42.18-.81.37-1.15.55-.34.18-.58.32-.71.42v10.93c0,.27-.1.5-.31.7-.2.2-.44.3-.71.3h-2.55c-.27,0-.51-.1-.71-.3-.2-.2-.31-.43-.31-.7v-16.47c0-.27.1-.5.31-.7s.44-.3.71-.3h3.57v3.24Z"/>
    <path d="M235.57,85.56c-1.29-.28-2.58-.42-3.87-.42-.78,0-1.44.07-1.99.2s-.82.37-.82.7.32.62.97.85c.65.23,1.45.47,2.42.72.97.25,2.01.53,3.13.85,1.12.32,2.17.7,3.14,1.15.97.45,1.78,1.01,2.42,1.67.65.67.97,1.48.97,2.45,0,1.03-.21,1.9-.64,2.59-.42.7-1,1.26-1.73,1.7s-1.58.74-2.55.92-1.98.27-3.03.27c-1.73,0-3.47-.19-5.2-.57-1.73-.38-3.25-.86-4.54-1.42l1.58-3.94c.41.23.94.46,1.61.67.66.22,1.38.41,2.17.57.78.17,1.58.3,2.4.4s1.58.15,2.29.15c.99,0,1.75-.09,2.29-.27.54-.18.82-.41.82-.67,0-.33-.32-.62-.97-.87-.65-.25-1.45-.52-2.42-.8-.97-.28-2.02-.59-3.16-.92-1.14-.33-2.19-.75-3.16-1.25s-1.78-1.09-2.42-1.77c-.65-.68-.97-1.52-.97-2.52s.23-1.78.69-2.44c.46-.67,1.07-1.21,1.83-1.62s1.67-.71,2.7-.9c1.04-.18,2.12-.27,3.24-.27,1.43,0,2.7.13,3.82.4,1.12.27,2.36.63,3.72,1.1l-.87,4.39c-1.29-.43-2.58-.79-3.87-1.07Z"/>
    <path d="M258,81.22c.99.32,1.85.77,2.6,1.37.75.6,1.33,1.33,1.76,2.2s.64,1.85.64,2.94v4.49c0,1.1-.21,2.08-.64,2.94-.42.87-1.01,1.6-1.76,2.2-.75.6-1.61,1.06-2.6,1.37-.99.32-2.04.47-3.16.47h-1.53c-1.12,0-2.18-.16-3.16-.47-.99-.32-1.85-.77-2.6-1.37-.75-.6-1.33-1.33-1.76-2.2-.42-.86-.64-1.85-.64-2.94v-4.49c0-1.1.21-2.08.64-2.94s1.01-1.6,1.76-2.2c.75-.6,1.61-1.06,2.6-1.37.99-.32,2.04-.47,3.16-.47h1.53c1.12,0,2.17.16,3.16.47ZM250.71,85.74c-.65.3-.97.9-.97,1.8v4.84c0,.93.33,1.54.99,1.82.66.28,1.45.42,2.37.42h2.14c.95,0,1.72-.16,2.29-.47.58-.32.87-.91.87-1.77v-4.84c0-.96-.35-1.58-1.04-1.85-.7-.27-1.54-.4-2.52-.4h-1.63c-1.02,0-1.85.15-2.5.45Z"/>
    <path d="M271.11,83c.95-.67,1.99-1.21,3.11-1.62,1.12-.42,2.23-.62,3.31-.62.71,0,1.39.12,2.04.35.65.23,1.21.62,1.68,1.15s.86,1.24,1.15,2.12c.29.88.43,1.95.43,3.22v10.63c0,.27-.1.5-.31.7-.2.2-.44.3-.71.3h-2.55c-.27,0-.51-.1-.71-.3-.2-.2-.31-.43-.31-.7v-10.58c0-.96-.31-1.64-.94-2.02s-1.38-.57-2.27-.57c-.71,0-1.43.09-2.14.27-.71.18-1.31.41-1.78.67v12.22c0,.27-.1.5-.31.7-.2.2-.44.3-.71.3h-2.55c-.27,0-.51-.1-.71-.3-.2-.2-.31-.43-.31-.7v-16.47c0-.27.1-.5.31-.7.2-.2.44-.3.71-.3h3.57v2.25Z"/>
    <path d="M287.14,91.13c.39-.67,1.02-1.25,1.89-1.75.87-.5,1.98-.9,3.34-1.2,1.36-.3,2.99-.45,4.89-.45,0-1.06-.33-1.8-.99-2.22s-1.54-.62-2.62-.62c-.99,0-2.04.14-3.16.42-1.12.28-2.09.61-2.91.97l-1.02-3.54c1.29-.57,2.63-1.04,4-1.42,1.38-.38,2.78-.57,4.21-.57.95,0,1.86.12,2.73.38.87.25,1.62.66,2.27,1.22s1.16,1.31,1.53,2.25c.37.93.56,2.09.56,3.49v10.13c0,.27-.1.5-.31.7-.2.2-.44.3-.71.3h-10.2c-1.12,0-2.08-.39-2.88-1.17-.8-.78-1.2-1.72-1.2-2.82v-2c0-.73.2-1.43.59-2.1ZM297.26,91.23c-.51,0-1.11.03-1.81.08-.7.05-1.37.16-2.01.32-.65.17-1.19.42-1.63.75-.44.33-.66.78-.66,1.35v.75h6.12v-3.24Z"/>
    <path d="M310.21,73.07c.2.2.31.43.31.7v24.45c0,.27-.1.5-.31.7-.2.2-.44.3-.71.3h-2.55c-.27,0-.51-.1-.71-.3-.2-.2-.31-.43-.31-.7v-24.45c0-.27.1-.5.31-.7.2-.2.44-.3.71-.3h2.55c.27,0,.51.1.71.3Z"/>
    <path d="M318.88,73.07c.2.2.31.43.31.7v2.25c0,.27-.1.5-.31.7-.2.2-.44.3-.71.3h-2.55c-.27,0-.51-.1-.71-.3-.2-.2-.31-.43-.31-.7v-2.25c0-.27.1-.5.31-.7.2-.2.44-.3.71-.3h2.55c.27,0,.51.1.71.3ZM318.88,81.05c.2.2.31.43.31.7v16.47c0,.27-.1.5-.31.7-.2.2-.44.3-.71.3h-2.55c-.27,0-.51-.1-.71-.3-.2-.2-.31-.43-.31-.7v-16.47c0-.27.1-.5.31-.7.2-.2.44-.3.71-.3h2.55c.27,0,.51.1.71.3Z"/>
    <path d="M327.54,73.07c.2.2.31.43.31.7v3.09h4.74c.27,0,.51.1.71.3.2.2.31.43.31.7v2.74c0,.27-.1.5-.31.7-.2.2-.44.3-.71.3h-4.74v9.18c0,.73.11,1.34.33,1.82.22.48.51.87.87,1.15.36.28.77.48,1.25.6.48.12.99.17,1.53.17.2,0,.42-.02.64-.05.22-.03.43-.05.64-.05l1.02,4.34c-1.22.3-2.36.45-3.42.45s-2.08-.16-2.98-.47c-.9-.32-1.68-.81-2.35-1.47-.66-.67-1.18-1.54-1.55-2.62s-.56-2.37-.56-3.87v-17.01c0-.27.1-.5.31-.7.2-.2.44-.3.71-.3h2.55c.27,0,.51.1.71.3Z"/>
    <path d="M351.71,105.22c-1.36,1.31-3.21,1.97-5.56,1.97-1.09,0-2.2-.12-3.34-.35-1.14-.23-2.42-.58-3.85-1.05l1.53-3.99c.75.3,1.56.57,2.45.8.88.23,1.72.35,2.5.35,1.02,0,1.89-.27,2.63-.8.73-.53,1.1-1.51,1.1-2.94v-1.55c-2.07,1.16-4.01,1.75-5.81,1.75-1.6,0-2.9-.57-3.9-1.72-1-1.15-1.5-2.97-1.5-5.46v-10.48c0-.27.1-.5.31-.7.2-.2.44-.3.71-.3h2.55c.27,0,.51.1.71.3.2.2.31.43.31.7v11.23c0,.77.22,1.3.66,1.6.44.3,1,.45,1.68.45.75,0,1.53-.12,2.34-.37.82-.25,1.46-.54,1.94-.87v-12.03c0-.27.1-.5.31-.7s.44-.3.71-.3h2.55c.27,0,.51.1.71.3s.31.43.31.7v17.46c0,2.69-.68,4.7-2.04,6.01Z"/>
    <path d="M368.23,73.07c.2.2.31.43.31.7v3.09h4.74c.27,0,.51.1.71.3.2.2.31.43.31.7v2.74c0,.27-.1.5-.31.7-.2.2-.44.3-.71.3h-4.74v9.18c0,.73.11,1.34.33,1.82.22.48.51.87.87,1.15.36.28.77.48,1.25.6.48.12.99.17,1.53.17.2,0,.42-.02.64-.05.22-.03.43-.05.64-.05l1.02,4.34c-1.22.3-2.36.45-3.42.45s-2.08-.16-2.98-.47c-.9-.32-1.68-.81-2.35-1.47-.66-.67-1.18-1.54-1.55-2.62s-.56-2.37-.56-3.87v-17.01c0-.27.1-.5.31-.7.2-.2.44-.3.71-.3h2.55c.27,0,.51.1.71.3Z"/>
    <path d="M383.22,83.99c-.07.03.19-.11.76-.42.58-.32,1.28-.67,2.12-1.05s1.69-.74,2.57-1.07c.88-.33,1.63-.5,2.24-.5.68,0,1.22.22,1.63.65.41.43.61,1.23.61,2.39v3.74c0,.27-.1.5-.31.7-.2.2-.44.3-.71.3h-3.57v-2.25c0-.57-.31-.85-.92-.85-.37,0-.79.07-1.25.2-.46.13-.9.29-1.33.47-.42.18-.81.37-1.15.55-.34.18-.58.32-.71.42v10.93c0,.27-.1.5-.31.7-.2.2-.44.3-.71.3h-2.55c-.27,0-.51-.1-.71-.3-.2-.2-.31-.43-.31-.7v-16.47c0-.27.1-.5.31-.7.2-.2.44-.3.71-.3h3.57v3.24Z"/>
    <path d="M396.96,91.13c.39-.67,1.02-1.25,1.89-1.75.87-.5,1.98-.9,3.34-1.2,1.36-.3,2.99-.45,4.89-.45,0-1.06-.33-1.8-.99-2.22-.66-.42-1.54-.62-2.63-.62-.99,0-2.04.14-3.16.42-1.12.28-2.09.61-2.91.97l-1.02-3.54c1.29-.57,2.62-1.04,4-1.42,1.38-.38,2.78-.57,4.21-.57.95,0,1.86.12,2.73.38.87.25,1.62.66,2.27,1.22.65.57,1.16,1.31,1.53,2.25.37.93.56,2.09.56,3.49v10.13c0,.27-.1.5-.31.7-.2.2-.44.3-.71.3h-10.2c-1.12,0-2.08-.39-2.88-1.17-.8-.78-1.2-1.72-1.2-2.82v-2c0-.73.2-1.43.59-2.1ZM407.08,91.23c-.51,0-1.11.03-1.81.08-.7.05-1.37.16-2.01.32-.65.17-1.19.42-1.63.75-.44.33-.66.78-.66,1.35v.75h6.12v-3.24Z"/>
    <path d="M420.03,73.07c.2.2.31.43.31.7v2.25c0,.27-.1.5-.31.7-.2.2-.44.3-.71.3h-2.55c-.27,0-.51-.1-.71-.3-.2-.2-.31-.43-.31-.7v-2.25c0-.27.1-.5.31-.7.2-.2.44-.3.71-.3h2.55c.27,0,.51.1.71.3ZM420.03,81.05c.2.2.31.43.31.7v16.47c0,.27-.1.5-.31.7-.2.2-.44.3-.71.3h-2.55c-.27,0-.51-.1-.71-.3-.2-.2-.31-.43-.31-.7v-16.47c0-.27.1-.5.31-.7s.44-.3.71-.3h2.55c.27,0,.51.1.71.3Z"/>
    <path d="M428.69,73.07c.2.2.31.43.31.7v3.09h4.74c.27,0,.51.1.71.3.2.2.31.43.31.7v2.74c0,.27-.1.5-.31.7-.2.2-.44.3-.71.3h-4.74v9.18c0,.73.11,1.34.33,1.82.22.48.51.87.87,1.15.36.28.77.48,1.25.6.48.12.99.17,1.53.17.2,0,.42-.02.64-.05.22-.03.43-.05.64-.05l1.02,4.34c-1.22.3-2.36.45-3.42.45s-2.08-.16-2.98-.47c-.9-.32-1.68-.81-2.35-1.47-.66-.67-1.18-1.54-1.55-2.62s-.56-2.37-.56-3.87v-17.01c0-.27.1-.5.31-.7.2-.2.44-.3.71-.3h2.55c.27,0,.51.1.71.3Z"/>
    <path d="M450.05,85.56c-1.29-.28-2.58-.42-3.88-.42-.78,0-1.44.07-1.99.2s-.82.37-.82.7.32.62.97.85c.65.23,1.45.47,2.42.72.97.25,2.01.53,3.14.85,1.12.32,2.17.7,3.13,1.15.97.45,1.78,1.01,2.42,1.67s.97,1.48.97,2.45c0,1.03-.21,1.9-.64,2.59-.42.7-1,1.26-1.73,1.7-.73.43-1.58.74-2.55.92s-1.98.27-3.03.27c-1.73,0-3.47-.19-5.2-.57-1.73-.38-3.25-.86-4.54-1.42l1.58-3.94c.41.23.94.46,1.61.67.66.22,1.38.41,2.17.57.78.17,1.58.3,2.4.4.82.1,1.58.15,2.29.15.99,0,1.75-.09,2.29-.27.54-.18.82-.41.82-.67,0-.33-.32-.62-.97-.87-.65-.25-1.45-.52-2.42-.8-.97-.28-2.02-.59-3.16-.92-1.14-.33-2.19-.75-3.16-1.25s-1.78-1.09-2.42-1.77c-.65-.68-.97-1.52-.97-2.52s.23-1.78.69-2.44c.46-.67,1.07-1.21,1.84-1.62s1.67-.71,2.7-.9c1.04-.18,2.12-.27,3.24-.27,1.43,0,2.7.13,3.82.4,1.12.27,2.36.63,3.72,1.1l-.87,4.39c-1.29-.43-2.58-.79-3.87-1.07Z"/>
    <path d="M462.54,88.93c-.2-.2-.31-.43-.31-.7v-3.74c0-.27.1-.5.31-.7s.44-.3.71-.3h3.82c.27,0,.51.1.71.3s.31.43.31.7v3.74c0,.27-.1.5-.31.7-.2.2-.44.3-.71.3h-3.82c-.27,0-.51-.1-.71-.3ZM462.54,98.91c-.2-.2-.31-.43-.31-.7v-3.74c0-.27.1-.5.31-.7.2-.2.44-.3.71-.3h3.82c.27,0,.51.1.71.3.2.2.31.43.31.7v3.74c0,.27-.1.5-.31.7-.2.2-.44.3-.71.3h-3.82c-.27,0-.51-.1-.71-.3Z"/>
    <path d="M178.12,132.2c.2-.2.44-.3.71-.3h2.55c.27,0,.51.1.71.3s.31.43.31.7v.7c0,1.2-.25,2.26-.76,3.19s-1.18,1.72-2.01,2.37c-.83.65-1.78,1.14-2.83,1.47-1.05.33-2.14.5-3.26.5s-2.22-.17-3.29-.5c-1.07-.33-2.03-.82-2.88-1.47s-1.53-1.44-2.04-2.37-.76-2-.76-3.19v-11.43c0-1.2.25-2.26.76-3.19s1.19-1.72,2.04-2.37c.85-.65,1.81-1.14,2.88-1.47,1.07-.33,2.17-.5,3.29-.5s2.21.17,3.26.5c1.05.33,2,.82,2.83,1.47.83.65,1.5,1.44,2.01,2.37s.76,2,.76,3.19v.75c0,.27-.1.5-.31.7s-.44.3-.71.3h-2.55c-.27,0-.51-.1-.71-.3-.2-.2-.31-.43-.31-.7v-1.15c0-.43-.12-.81-.36-1.12-.24-.32-.56-.58-.97-.8s-.88-.38-1.4-.5c-.53-.12-1.06-.18-1.61-.18s-1.07.06-1.58.18c-.51.12-.97.28-1.38.5-.41.22-.74.48-.99.8s-.38.69-.38,1.12v12.22c0,.43.13.81.38,1.15s.59.61.99.82c.41.21.87.38,1.38.5.51.12,1.04.18,1.58.18s1.08-.06,1.61-.18c.53-.12.99-.28,1.4-.5.41-.22.73-.49.97-.82.24-.33.36-.71.36-1.15v-1.1c0-.27.1-.5.31-.7Z"/>
    <path d="M198.76,123.14c.99.32,1.85.77,2.6,1.37.75.6,1.33,1.33,1.76,2.2s.64,1.85.64,2.94v4.49c0,1.1-.21,2.08-.64,2.94-.42.87-1.01,1.6-1.76,2.2-.75.6-1.61,1.05-2.6,1.37s-2.04.47-3.16.47h-1.53c-1.12,0-2.17-.16-3.16-.47-.99-.32-1.85-.77-2.6-1.37-.75-.6-1.33-1.33-1.76-2.2-.42-.86-.64-1.85-.64-2.94v-4.49c0-1.1.21-2.08.64-2.94s1.01-1.6,1.76-2.2c.75-.6,1.61-1.06,2.6-1.37.99-.32,2.04-.47,3.16-.47h1.53c1.12,0,2.18.16,3.16.47ZM191.47,127.66c-.65.3-.97.9-.97,1.8v4.84c0,.93.33,1.54.99,1.82.66.28,1.45.42,2.37.42h2.14c.95,0,1.72-.16,2.29-.47s.87-.91.87-1.77v-4.84c0-.96-.35-1.58-1.04-1.85-.7-.27-1.54-.4-2.52-.4h-1.63c-1.02,0-1.85.15-2.5.45Z"/>
    <path d="M211.87,125.46c1.09-.73,2.26-1.38,3.52-1.95,1.26-.57,2.45-.85,3.57-.85.88,0,1.65.22,2.29.67s1.14,1.21,1.48,2.27c1.16-.73,2.4-1.41,3.75-2.02s2.61-.92,3.8-.92,2.12.44,2.88,1.32c.77.88,1.15,2.44,1.15,4.67v11.48c0,.27-.1.5-.31.7-.2.2-.44.3-.71.3h-2.55c-.27,0-.51-.1-.71-.3-.2-.2-.31-.43-.31-.7v-10.63c0-.86-.25-1.46-.74-1.79-.49-.33-1.08-.5-1.76-.5-.71,0-1.44.12-2.19.38s-1.39.54-1.94.87v11.68c0,.27-.1.5-.31.7-.2.2-.44.3-.71.3h-2.55c-.27,0-.51-.1-.71-.3-.2-.2-.31-.43-.31-.7v-10.63c0-.86-.25-1.46-.74-1.79-.49-.33-1.08-.5-1.76-.5-.71,0-1.44.12-2.19.38-.75.25-1.39.54-1.94.87v11.68c0,.27-.1.5-.31.7-.2.2-.44.3-.71.3h-2.55c-.27,0-.51-.1-.71-.3-.2-.2-.31-.43-.31-.7v-16.47c0-.27.1-.5.31-.7.2-.2.44-.3.71-.3h3.57v2.79Z"/>
    <path d="M242.96,148.11c0,.27-.1.5-.31.7s-.44.3-.71.3h-2.55c-.27,0-.51-.1-.71-.3s-.31-.43-.31-.7v-24.45c0-.27.1-.5.31-.7.2-.2.44-.3.71-.3h6.53c1.5,0,2.82.26,3.98.77s2.12,1.2,2.91,2.05c.78.85,1.38,1.81,1.78,2.89.41,1.08.61,2.19.61,3.32,0,1.03-.18,2.04-.54,3.02-.36.98-.92,1.85-1.68,2.62s-1.73,1.38-2.91,1.85c-1.17.47-2.56.7-4.16.7h-2.96v8.23ZM249.52,134.24c.73-.76,1.1-1.61,1.1-2.54,0-.56-.1-1.12-.31-1.67-.2-.55-.49-1.03-.87-1.45s-.85-.76-1.43-1.02c-.58-.27-1.22-.4-1.94-.4h-3.11v8.23h3.11c1.56,0,2.71-.38,3.44-1.15Z"/>
    <path d="M258.85,133.04c.39-.66,1.02-1.25,1.89-1.75.87-.5,1.98-.9,3.34-1.2,1.36-.3,2.99-.45,4.89-.45,0-1.06-.33-1.8-.99-2.22s-1.54-.62-2.62-.62c-.99,0-2.04.14-3.16.42s-2.09.61-2.91.97l-1.02-3.54c1.29-.56,2.63-1.04,4-1.42,1.38-.38,2.78-.57,4.21-.57.95,0,1.86.12,2.73.38.87.25,1.62.66,2.27,1.22.65.56,1.16,1.31,1.53,2.25.37.93.56,2.09.56,3.49v10.13c0,.27-.1.5-.31.7-.2.2-.44.3-.71.3h-10.2c-1.12,0-2.08-.39-2.88-1.17-.8-.78-1.2-1.72-1.2-2.82v-2c0-.73.2-1.43.59-2.1ZM268.97,133.14c-.51,0-1.11.03-1.81.08-.7.05-1.37.16-2.01.32-.65.17-1.19.42-1.63.75-.44.33-.66.78-.66,1.35v.75h6.12v-3.24Z"/>
    <path d="M288.59,127.48c-1.29-.28-2.58-.42-3.87-.42-.78,0-1.44.07-1.99.2s-.82.37-.82.7.32.62.97.85c.65.23,1.45.47,2.42.72s2.01.53,3.13.85c1.12.32,2.17.7,3.14,1.15s1.78,1.01,2.42,1.67c.65.66.97,1.48.97,2.45,0,1.03-.21,1.89-.64,2.59s-1,1.26-1.73,1.7c-.73.43-1.58.74-2.55.92-.97.18-1.98.28-3.03.28-1.73,0-3.47-.19-5.2-.57s-3.25-.86-4.54-1.42l1.58-3.94c.41.23.94.46,1.61.67.66.21,1.38.41,2.17.57.78.17,1.58.3,2.4.4s1.58.15,2.29.15c.99,0,1.75-.09,2.29-.27s.82-.41.82-.67c0-.33-.32-.62-.97-.87-.65-.25-1.45-.52-2.42-.8s-2.02-.59-3.16-.92c-1.14-.33-2.19-.75-3.16-1.25-.97-.5-1.78-1.09-2.42-1.77s-.97-1.52-.97-2.52.23-1.78.69-2.45,1.07-1.21,1.83-1.62,1.67-.71,2.7-.9,2.12-.28,3.24-.28c1.43,0,2.7.13,3.82.4,1.12.27,2.36.63,3.72,1.1l-.87,4.39c-1.29-.43-2.58-.79-3.87-1.07Z"/>
    <path d="M309.7,127.48c-1.29-.28-2.58-.42-3.87-.42-.78,0-1.44.07-1.99.2s-.82.37-.82.7.32.62.97.85c.65.23,1.45.47,2.42.72s2.01.53,3.13.85c1.12.32,2.17.7,3.14,1.15s1.78,1.01,2.42,1.67c.65.66.97,1.48.97,2.45,0,1.03-.21,1.89-.64,2.59s-1,1.26-1.73,1.7c-.73.43-1.58.74-2.55.92-.97.18-1.98.28-3.03.28-1.73,0-3.47-.19-5.2-.57s-3.25-.86-4.54-1.42l1.58-3.94c.41.23.94.46,1.61.67.66.21,1.38.41,2.17.57.78.17,1.58.3,2.4.4s1.58.15,2.29.15c.99,0,1.75-.09,2.29-.27s.82-.41.82-.67c0-.33-.32-.62-.97-.87-.65-.25-1.45-.52-2.42-.8s-2.02-.59-3.16-.92c-1.14-.33-2.19-.75-3.16-1.25-.97-.5-1.78-1.09-2.42-1.77s-.97-1.52-.97-2.52.23-1.78.69-2.45,1.07-1.21,1.83-1.62,1.67-.71,2.7-.9,2.12-.28,3.24-.28c1.43,0,2.7.13,3.82.4,1.12.27,2.36.63,3.72,1.1l-.87,4.39c-1.29-.43-2.58-.79-3.87-1.07Z"/>
    <path d="M324.13,114.98c.2.2.31.43.31.7v2.25c0,.27-.1.5-.31.7-.2.2-.44.3-.71.3h-2.55c-.27,0-.51-.1-.71-.3-.2-.2-.31-.43-.31-.7v-2.25c0-.27.1-.5.31-.7.2-.2.44-.3.71-.3h2.55c.27,0,.51.1.71.3ZM324.13,122.97c.2.2.31.43.31.7v16.47c0,.27-.1.5-.31.7-.2.2-.44.3-.71.3h-2.55c-.27,0-.51-.1-.71-.3-.2-.2-.31-.43-.31-.7v-16.47c0-.27.1-.5.31-.7.2-.2.44-.3.71-.3h2.55c.27,0,.51.1.71.3Z"/>
    <path d="M340.8,123.14c.99.32,1.85.77,2.6,1.37.75.6,1.33,1.33,1.76,2.2s.64,1.85.64,2.94v4.49c0,1.1-.21,2.08-.64,2.94-.42.87-1.01,1.6-1.76,2.2-.75.6-1.61,1.05-2.6,1.37-.99.32-2.04.47-3.16.47h-1.53c-1.12,0-2.18-.16-3.16-.47s-1.85-.77-2.6-1.37c-.75-.6-1.33-1.33-1.76-2.2-.42-.86-.64-1.85-.64-2.94v-4.49c0-1.1.21-2.08.64-2.94s1.01-1.6,1.76-2.2c.75-.6,1.61-1.06,2.6-1.37s2.04-.47,3.16-.47h1.53c1.12,0,2.17.16,3.16.47ZM333.51,127.66c-.65.3-.97.9-.97,1.8v4.84c0,.93.33,1.54.99,1.82.66.28,1.45.42,2.37.42h2.14c.95,0,1.72-.16,2.29-.47.58-.32.87-.91.87-1.77v-4.84c0-.96-.35-1.58-1.04-1.85-.7-.27-1.54-.4-2.52-.4h-1.63c-1.02,0-1.85.15-2.5.45Z"/>
    <path d="M353.9,124.91c.95-.67,1.99-1.21,3.11-1.62,1.12-.42,2.23-.62,3.31-.62.71,0,1.39.12,2.04.35s1.21.62,1.68,1.15c.48.53.86,1.24,1.15,2.12.29.88.43,1.95.43,3.22v10.63c0,.27-.1.5-.31.7-.2.2-.44.3-.71.3h-2.55c-.27,0-.51-.1-.71-.3-.2-.2-.31-.43-.31-.7v-10.58c0-.96-.31-1.64-.94-2.02s-1.38-.57-2.27-.57c-.71,0-1.43.09-2.14.28s-1.31.41-1.78.67v12.22c0,.27-.1.5-.31.7-.2.2-.44.3-.71.3h-2.55c-.27,0-.51-.1-.71-.3-.2-.2-.31-.43-.31-.7v-16.47c0-.27.1-.5.31-.7.2-.2.44-.3.71-.3h3.57v2.25Z"/>
    <path d="M369.94,133.04c.39-.66,1.02-1.25,1.89-1.75.87-.5,1.98-.9,3.34-1.2s2.99-.45,4.89-.45c0-1.06-.33-1.8-.99-2.22-.66-.42-1.54-.62-2.63-.62-.99,0-2.04.14-3.16.42-1.12.28-2.09.61-2.91.97l-1.02-3.54c1.29-.56,2.62-1.04,4-1.42,1.38-.38,2.78-.57,4.21-.57.95,0,1.86.12,2.73.38.87.25,1.62.66,2.27,1.22.65.56,1.16,1.31,1.53,2.25.37.93.56,2.09.56,3.49v10.13c0,.27-.1.5-.31.7-.2.2-.44.3-.71.3h-10.2c-1.12,0-2.08-.39-2.88-1.17-.8-.78-1.2-1.72-1.2-2.82v-2c0-.73.2-1.43.59-2.1ZM380.06,133.14c-.51,0-1.11.03-1.81.08-.7.05-1.37.16-2.01.32-.65.17-1.19.42-1.63.75-.44.33-.66.78-.66,1.35v.75h6.12v-3.24Z"/>
    <path d="M393,114.98c.2.2.31.43.31.7v3.09h4.74c.27,0,.51.1.71.3s.31.43.31.7v2.74c0,.27-.1.5-.31.7-.2.2-.44.3-.71.3h-4.74v9.18c0,.73.11,1.34.33,1.82.22.48.51.87.87,1.15.36.28.77.48,1.25.6s.99.17,1.53.17c.2,0,.42-.02.64-.05.22-.03.43-.05.64-.05l1.02,4.34c-1.22.3-2.36.45-3.42.45s-2.08-.16-2.98-.47c-.9-.32-1.68-.81-2.35-1.47-.66-.66-1.18-1.54-1.55-2.62-.37-1.08-.56-2.37-.56-3.87v-17.01c0-.27.1-.5.31-.7s.44-.3.71-.3h2.55c.27,0,.51.1.71.3Z"/>
    <path d="M404.76,123.87c.9-.8,1.98-1.2,3.24-1.2h5.61c1.73,0,3.02.38,3.85,1.12.83.75,1.25,1.66,1.25,2.72,0,.83-.23,1.69-.69,2.57-.46.88-1.13,1.73-2.01,2.54-.88.81-1.97,1.57-3.26,2.27-1.29.7-2.77,1.28-4.44,1.75.34.5.79.86,1.35,1.07.56.22,1.2.32,1.91.32,1.05,0,2.14-.16,3.26-.47,1.12-.32,2.07-.66,2.85-1.02l1.02,3.59c-1.26.56-2.57,1.04-3.95,1.42-1.38.38-2.8.57-4.26.57-.95,0-1.86-.12-2.73-.38-.87-.25-1.62-.66-2.27-1.25-.65-.58-1.16-1.34-1.53-2.27-.37-.93-.56-2.1-.56-3.49v-6.59c0-1.4.45-2.5,1.35-3.29ZM409.32,131.7c.54-.23,1.1-.55,1.68-.95.58-.4,1.15-.9,1.71-1.5.56-.6,1.03-1.3,1.4-2.1h-6.12v4.99c.34-.07.78-.21,1.33-.45Z"/>
    <path d="M429.64,137.46c1.21,1.21,1.81,2.69,1.81,4.42,0,1.4-.43,2.85-1.3,4.37-.87,1.51-2.2,2.9-4,4.17l-1.43-2.04c.82-.6,1.52-1.33,2.12-2.2s.89-1.7.89-2.49c0-.63-.25-1.19-.76-1.67s-1.39-.77-2.65-.87v-5.49c2.34,0,4.12.61,5.33,1.82Z"/>
    <path d="M460.25,122.97c.17.2.29.43.36.7l3.01,12.47,3.31-12.47c.07-.27.19-.5.36-.7.17-.2.39-.3.66-.3h3.98l-4.59,17.46c-.07.27-.19.5-.36.7-.17.2-.39.3-.66.3h-5.86c-.27,0-.49-.1-.66-.3-.17-.2-.29-.43-.36-.7l-2.19-9.18-2.19,9.18c-.07.27-.19.5-.36.7-.17.2-.39.3-.66.3h-5.86c-.27,0-.49-.1-.66-.3-.17-.2-.29-.43-.36-.7l-4.59-17.46h3.98c.27,0,.49.1.66.3.17.2.29.43.36.7l3.26,12.47,3.01-12.47c.07-.27.19-.5.36-.7.17-.2.39-.3.66-.3h4.74c.27,0,.49.1.66.3Z"/>
    <path d="M474.91,133.04c.39-.66,1.02-1.25,1.89-1.75.87-.5,1.98-.9,3.34-1.2s2.99-.45,4.89-.45c0-1.06-.33-1.8-.99-2.22-.66-.42-1.54-.62-2.63-.62-.99,0-2.04.14-3.16.42-1.12.28-2.09.61-2.91.97l-1.02-3.54c1.29-.56,2.62-1.04,4-1.42,1.38-.38,2.78-.57,4.21-.57.95,0,1.86.12,2.73.38.87.25,1.62.66,2.27,1.22.65.56,1.16,1.31,1.53,2.25.37.93.56,2.09.56,3.49v10.13c0,.27-.1.5-.31.7-.2.2-.44.3-.71.3h-10.2c-1.12,0-2.08-.39-2.88-1.17-.8-.78-1.2-1.72-1.2-2.82v-2c0-.73.2-1.43.59-2.1ZM485.03,133.14c-.51,0-1.11.03-1.81.08-.7.05-1.37.16-2.01.32-.65.17-1.19.42-1.63.75-.44.33-.66.78-.66,1.35v.75h6.12v-3.24Z"/>
    <path d="M498.28,125.91c-.07.03.19-.11.76-.42.58-.32,1.28-.67,2.12-1.05.83-.38,1.69-.74,2.57-1.07s1.63-.5,2.24-.5c.68,0,1.22.21,1.63.65.41.43.61,1.23.61,2.39v3.74c0,.27-.1.5-.31.7-.2.2-.44.3-.71.3h-3.57v-2.25c0-.56-.31-.85-.92-.85-.37,0-.79.07-1.25.2s-.9.29-1.33.47-.81.37-1.15.55-.58.32-.71.42v10.93c0,.27-.1.5-.31.7-.2.2-.44.3-.71.3h-2.55c-.27,0-.51-.1-.71-.3-.2-.2-.31-.43-.31-.7v-16.47c0-.27.1-.5.31-.7.2-.2.44-.3.71-.3h3.57v3.24Z"/>
    <path d="M516.53,125.46c1.09-.73,2.26-1.38,3.52-1.95,1.26-.57,2.45-.85,3.57-.85.88,0,1.65.22,2.29.67.65.45,1.14,1.21,1.48,2.27,1.16-.73,2.41-1.41,3.75-2.02,1.34-.62,2.61-.92,3.8-.92s2.12.44,2.88,1.32c.76.88,1.15,2.44,1.15,4.67v11.48c0,.27-.1.5-.31.7-.2.2-.44.3-.71.3h-2.55c-.27,0-.51-.1-.71-.3-.2-.2-.31-.43-.31-.7v-10.63c0-.86-.25-1.46-.74-1.79-.49-.33-1.08-.5-1.76-.5-.71,0-1.44.12-2.19.38-.75.25-1.39.54-1.94.87v11.68c0,.27-.1.5-.31.7-.2.2-.44.3-.71.3h-2.55c-.27,0-.51-.1-.71-.3-.2-.2-.31-.43-.31-.7v-10.63c0-.86-.25-1.46-.74-1.79-.49-.33-1.08-.5-1.76-.5-.71,0-1.44.12-2.19.38s-1.39.54-1.94.87v11.68c0,.27-.1.5-.31.7-.2.2-.44.3-.71.3h-2.55c-.27,0-.51-.1-.71-.3-.2-.2-.31-.43-.31-.7v-16.47c0-.27.1-.5.31-.7.2-.2.44-.3.71-.3h3.57v2.79Z"/>
    <path d="M550.41,137.46c1.21,1.21,1.81,2.69,1.81,4.42,0,1.4-.43,2.85-1.3,4.37-.87,1.51-2.2,2.9-4,4.17l-1.43-2.04c.82-.6,1.52-1.33,2.12-2.2s.89-1.7.89-2.49c0-.63-.25-1.19-.76-1.67s-1.39-.77-2.65-.87v-5.49c2.34,0,4.12.61,5.33,1.82Z"/>
    <path d="M569.05,148.11c0,.27-.1.5-.31.7-.2.2-.44.3-.71.3h-2.55c-.27,0-.51-.1-.71-.3-.2-.2-.31-.43-.31-.7v-24.45c0-.27.1-.5.31-.7.2-.2.44-.3.71-.3h6.53c1.5,0,2.82.26,3.98.77,1.16.52,2.12,1.2,2.91,2.05.78.85,1.38,1.81,1.78,2.89.41,1.08.61,2.19.61,3.32,0,1.03-.18,2.04-.54,3.02-.36.98-.92,1.85-1.68,2.62s-1.73,1.38-2.91,1.85c-1.17.47-2.56.7-4.16.7h-2.96v8.23ZM575.6,134.24c.73-.76,1.1-1.61,1.1-2.54,0-.56-.1-1.12-.31-1.67s-.49-1.03-.87-1.45c-.37-.42-.85-.76-1.43-1.02-.58-.27-1.22-.4-1.94-.4h-3.11v8.23h3.11c1.56,0,2.71-.38,3.44-1.15Z"/>
    <path d="M589.44,125.91c-.07.03.19-.11.76-.42.58-.32,1.28-.67,2.12-1.05s1.69-.74,2.57-1.07c.88-.33,1.63-.5,2.24-.5.68,0,1.22.21,1.63.65.41.43.61,1.23.61,2.39v3.74c0,.27-.1.5-.31.7-.2.2-.44.3-.71.3h-3.57v-2.25c0-.56-.31-.85-.92-.85-.37,0-.79.07-1.25.2-.46.13-.9.29-1.33.47s-.81.37-1.15.55c-.34.18-.58.32-.71.42v10.93c0,.27-.1.5-.31.7-.2.2-.44.3-.71.3h-2.55c-.27,0-.51-.1-.71-.3-.2-.2-.31-.43-.31-.7v-16.47c0-.27.1-.5.31-.7.2-.2.44-.3.71-.3h3.57v3.24Z"/>
    <path d="M615.39,123.14c.99.32,1.85.77,2.6,1.37.75.6,1.33,1.33,1.76,2.2s.64,1.85.64,2.94v4.49c0,1.1-.21,2.08-.64,2.94-.42.87-1.01,1.6-1.76,2.2-.75.6-1.61,1.05-2.6,1.37s-2.04.47-3.16.47h-1.53c-1.12,0-2.17-.16-3.16-.47-.99-.32-1.85-.77-2.6-1.37-.75-.6-1.33-1.33-1.76-2.2-.42-.86-.64-1.85-.64-2.94v-4.49c0-1.1.21-2.08.64-2.94s1.01-1.6,1.76-2.2c.75-.6,1.61-1.06,2.6-1.37.99-.32,2.04-.47,3.16-.47h1.53c1.12,0,2.18.16,3.16.47ZM608.1,127.66c-.65.3-.97.9-.97,1.8v4.84c0,.93.33,1.54.99,1.82.66.28,1.45.42,2.37.42h2.14c.95,0,1.72-.16,2.29-.47s.87-.91.87-1.77v-4.84c0-.96-.35-1.58-1.04-1.85-.7-.27-1.54-.4-2.52-.4h-1.63c-1.02,0-1.85.15-2.5.45Z"/>
    <path d="M628.18,114.98c.2.2.31.43.31.7v3.09h4.74c.27,0,.51.1.71.3s.31.43.31.7v2.74c0,.27-.1.5-.31.7-.2.2-.44.3-.71.3h-4.74v9.18c0,.73.11,1.34.33,1.82.22.48.51.87.87,1.15.36.28.77.48,1.25.6s.99.17,1.53.17c.2,0,.42-.02.64-.05.22-.03.43-.05.64-.05l1.02,4.34c-1.22.3-2.36.45-3.42.45s-2.08-.16-2.98-.47c-.9-.32-1.68-.81-2.35-1.47-.66-.66-1.18-1.54-1.55-2.62-.37-1.08-.56-2.37-.56-3.87v-17.01c0-.27.1-.5.31-.7s.44-.3.71-.3h2.55c.27,0,.51.1.71.3Z"/>
    <path d="M639.94,123.87c.9-.8,1.98-1.2,3.24-1.2h5.61c1.73,0,3.02.38,3.85,1.12.83.75,1.25,1.66,1.25,2.72,0,.83-.23,1.69-.69,2.57-.46.88-1.13,1.73-2.01,2.54s-1.97,1.57-3.26,2.27c-1.29.7-2.77,1.28-4.44,1.75.34.5.79.86,1.35,1.07s1.2.32,1.91.32c1.05,0,2.14-.16,3.26-.47,1.12-.32,2.07-.66,2.86-1.02l1.02,3.59c-1.26.56-2.57,1.04-3.95,1.42-1.38.38-2.79.57-4.26.57-.95,0-1.86-.12-2.73-.38-.87-.25-1.62-.66-2.27-1.25-.65-.58-1.16-1.34-1.53-2.27s-.56-2.1-.56-3.49v-6.59c0-1.4.45-2.5,1.35-3.29ZM644.5,131.7c.54-.23,1.11-.55,1.68-.95.58-.4,1.15-.9,1.71-1.5.56-.6,1.03-1.3,1.4-2.1h-6.12v4.99c.34-.07.78-.21,1.33-.45Z"/>
    <path d="M672.74,134.14c0,1.1-.21,2.08-.64,2.94-.42.87-1.01,1.6-1.76,2.2-.75.6-1.61,1.05-2.6,1.37-.99.32-2.04.47-3.16.47h.51c-1.12,0-2.17-.16-3.16-.47-.99-.32-1.85-.77-2.6-1.37-.75-.6-1.33-1.33-1.76-2.2-.42-.86-.64-1.85-.64-2.94v-4.49c0-1.1.21-2.08.64-2.94s1.01-1.6,1.76-2.2c.75-.6,1.61-1.06,2.6-1.37.99-.32,2.04-.47,3.16-.47h-.51c1.12,0,2.17.16,3.16.47.99.32,1.85.77,2.6,1.37.75.6,1.33,1.33,1.76,2.2s.64,1.85.64,2.94v.5h-4.59v-.7c0-.96-.35-1.58-1.04-1.85-.7-.27-1.54-.4-2.52-.4h.41c-1.02,0-1.85.15-2.5.45-.65.3-.97.9-.97,1.8v4.84c0,.93.37,1.54,1.12,1.82.75.28,1.58.42,2.5.42h-.66c.95,0,1.8-.16,2.55-.47.75-.32,1.12-.91,1.12-1.77v-.65h4.59v.5Z"/>
    <path d="M680.59,114.98c.2.2.31.43.31.7v3.09h4.74c.27,0,.51.1.71.3.2.2.31.43.31.7v2.74c0,.27-.1.5-.31.7-.2.2-.44.3-.71.3h-4.74v9.18c0,.73.11,1.34.33,1.82s.51.87.87,1.15c.36.28.77.48,1.25.6.48.12.99.17,1.53.17.2,0,.42-.02.64-.05s.43-.05.64-.05l1.02,4.34c-1.22.3-2.36.45-3.42.45s-2.08-.16-2.98-.47-1.68-.81-2.34-1.47c-.66-.66-1.18-1.54-1.55-2.62-.37-1.08-.56-2.37-.56-3.87v-17.01c0-.27.1-.5.31-.7.2-.2.44-.3.71-.3h2.55c.27,0,.51.1.71.3Z"/>
    <path d="M695.28,114.98c.2.2.31.43.31.7v2.25c0,.27-.1.5-.31.7-.2.2-.44.3-.71.3h-2.55c-.27,0-.51-.1-.71-.3-.2-.2-.31-.43-.31-.7v-2.25c0-.27.1-.5.31-.7.2-.2.44-.3.71-.3h2.55c.27,0,.51.1.71.3ZM695.28,122.97c.2.2.31.43.31.7v16.47c0,.27-.1.5-.31.7-.2.2-.44.3-.71.3h-2.55c-.27,0-.51-.1-.71-.3-.2-.2-.31-.43-.31-.7v-16.47c0-.27.1-.5.31-.7.2-.2.44-.3.71-.3h2.55c.27,0,.51.1.71.3Z"/>
    <path d="M703.74,140.83c-.17-.2-.29-.43-.36-.7l-4.84-17.46h3.77c.27,0,.49.1.66.3.17.2.29.43.36.7l3.62,12.77,3.57-12.77c.07-.27.19-.5.36-.7.17-.2.39-.3.66-.3h3.82l-4.89,17.46c-.07.27-.19.5-.36.7-.17.2-.39.3-.66.3h-5.05c-.27,0-.49-.1-.66-.3Z"/>
    <path d="M719.62,123.87c.9-.8,1.98-1.2,3.24-1.2h5.61c1.73,0,3.02.38,3.85,1.12.83.75,1.25,1.66,1.25,2.72,0,.83-.23,1.69-.69,2.57-.46.88-1.13,1.73-2.01,2.54-.88.81-1.97,1.57-3.26,2.27-1.29.7-2.77,1.28-4.44,1.75.34.5.79.86,1.35,1.07.56.22,1.2.32,1.91.32,1.05,0,2.14-.16,3.26-.47,1.12-.32,2.07-.66,2.85-1.02l1.02,3.59c-1.26.56-2.57,1.04-3.95,1.42-1.38.38-2.8.57-4.26.57-.95,0-1.86-.12-2.73-.38-.87-.25-1.62-.66-2.27-1.25-.65-.58-1.16-1.34-1.53-2.27-.37-.93-.56-2.1-.56-3.49v-6.59c0-1.4.45-2.5,1.35-3.29ZM724.18,131.7c.54-.23,1.1-.55,1.68-.95.58-.4,1.15-.9,1.71-1.5.56-.6,1.03-1.3,1.4-2.1h-6.12v4.99c.34-.07.78-.21,1.33-.45Z"/>
  </g>
</svg>