<?xml version="1.0" encoding="UTF-8"?>
<svg id="Layer_1" xmlns="http://www.w3.org/2000/svg" version="1.1" viewBox="0 0 784.8 350.74">
  <!-- Generator: Adobe Illustrator 29.7.1, SVG Export Plug-In . SVG Version: 2.1.1 Build 8)  -->
  <defs>
    <style>
      .st0 {
        fill: #94d9f7;
      }

      .st1 {
        fill: #933468;
      }

      .st2 {
        fill: #92f4ec;
      }

      .st3 {
        fill: #743fb2;
      }

      .st4 {
        display: none;
      }
    </style>
  </defs>
  <g class="st4">
    <g>
      <path d="M84.71,7.97c-.8.78-1.2,1.88-1.14,2.96l14.53,153.11-13.76-3.04c-.52-.12-1.04-.11-1.54-.02-.27,0-.54-.05-.81,0-.27,0-.54-.05-.81,0-.27,0-.54-.05-.81,0-.27,0-.54-.05-.81,0-.27,0-.55-.05-.81,0-.27,0-.54-.05-.81,0-.27,0-.54-.05-.81,0-.27,0-.54-.05-.81,0-.27,0-.54-.05-.81,0-.27,0-.54-.05-.81,0-.27,0-.54-.05-.81,0-.27,0-.54-.05-.81,0-.27,0-.54-.05-.81,0-.27,0-.54-.05-.81,0-.27,0-.54-.05-.81,0-.27,0-.55-.05-.81,0-.27,0-.55-.05-.81,0-.27,0-.54-.05-.81,0-.27,0-.55-.05-.81,0-.27,0-.54-.05-.81,0-1.73-.05-3.33.95-3.86,2.62l-7.73,24.2-17.4-9.34c-.69-.37-1.46-.44-2.23-.37-.27-.03-.53-.02-.81,0-.27-.03-.53-.02-.81,0-.27-.03-.53-.02-.81,0-.27-.03-.53-.02-.81,0-.27-.03-.53-.02-.81,0-.27-.03-.53-.02-.81,0-.27-.03-.53-.02-.81,0-.27-.03-.53-.02-.81,0-.27-.03-.53-.02-.81,0-.27-.03-.53-.02-.81,0-.28-.03-.53-.02-.81,0-.28-.03-.53-.02-.81,0-.27-.03-.53-.02-.81,0-.28-.03-.53-.02-.81,0-.27-.03-.53-.02-.81,0-.27-.03-.53-.02-.81,0-.28-.03-.53-.02-.81,0-.27-.03-.53-.02-.81,0-.27-.03-.53-.02-.81,0-.27-.03-.53-.02-.81,0-.73-.09-1.47-.04-2.16.29-1.14.54-1.94,1.58-2.15,2.8l-7.6,43.55-59.56,1.08c-1.85.03-3.42,1.33-3.77,3.11-.05.24-.07.48-.07.71,0,1.52.93,2.93,2.41,3.53l83.73,34.15c.63.26,1.29.29,1.95.21.27.03.53.03.81,0,.27.03.53.03.81,0,.27.03.53.03.81,0,.27.03.53.03.81,0,.27.03.53.03.81,0,.27.03.53.03.81,0,.27.03.53.03.81,0,.27.03.53.03.81,0,.27.03.53.03.81,0,.27.03.53.03.81,0,.28.03.53.03.81,0,.27.03.53.03.81,0,.27.03.53.03.81,0,.27.03.53.03.81,0,.27.03.53.03.81,0,.27.03.53.03.81,0,.27.03.53.03.81,0,.27.03.53.03.81,0,.27.03.53.03.81,0,.27.03.53.03.81,0,.69.06,1.39.01,2.03-.29,1-.46,1.75-1.32,2.07-2.36l5.09-16.61,5.33,4.7c.91.8,2.16,1.14,3.36.91.02,0,.04-.02.06-.03.25,0,.49.08.74.03.02,0,.04-.02.06-.03.25,0,.49.08.74.03.02,0,.04-.02.06-.03.25,0,.49.08.74.03.02,0,.04-.02.06-.03.25,0,.49.08.74.03.02,0,.04-.02.06-.03.25,0,.49.08.74.03.02,0,.04-.02.06-.03.25,0,.49.08.74.03.02,0,.04-.02.06-.03.25,0,.49.08.74.03.02,0,.04-.02.06-.03.25,0,.49.08.74.03.02,0,.04-.02.06-.03.25,0,.49.08.74.03.02,0,.04-.02.06-.03.25,0,.49.08.74.03.02,0,.04-.02.06-.03.25,0,.49.08.74.03.02,0,.04-.02.06-.03.25,0,.49.08.74.03.02,0,.04-.02.06-.03.25,0,.49.08.74.03.02,0,.04-.02.06-.03.25,0,.49.08.74.03.02,0,.04-.02.06-.03.25,0,.49.08.74.03.02,0,.04-.02.06-.03.25,0,.49.08.74.03.02,0,.04-.02.06-.03.25,0,.49.08.74.03.02,0,.04-.02.06-.03.25,0,.49.08.74.03.02,0,.04-.02.06-.03.25,0,.49.08.74.03.02,0,.04-.02.06-.03.25,0,.49.08.74.03.02,0,.04-.02.06-.03.25,0,.49.08.74.03,1.21-.23,2.23-1,2.77-2.09l14.22-28.64,3.55,2.01,14.88,114.23c.14,1.06.72,2.01,1.6,2.63s1.99.85,3.05.64h.02c.26,0,.52.05.79,0h.02c.26,0,.52.05.79,0h.02c.26,0,.52.05.79,0h.02c.26,0,.52.05.79,0h.02c.26,0,.52.05.79,0h.02c.26,0,.52.05.79,0h.02c.26,0,.53.05.79,0h.02c.26,0,.52.05.79,0h.02c.26,0,.52.05.79,0h.02c.26,0,.52.05.79,0h.02c.26,0,.52.05.79,0h.02c.26,0,.52.05.79,0h.02c.26,0,.52.05.79,0h.02c.26,0,.52.05.79,0h.02c.26,0,.52.05.79,0h.02c.26,0,.52.05.79,0h.02c.26,0,.52.05.79,0h.02c.26,0,.52.05.79,0h.02c.26,0,.53.05.79,0h.02c.26,0,.52.05.79,0h.02c.26,0,.53.05.79,0l615.62-39.84c1.74-.34,3.02-1.79,3.12-3.53l19.77-271.29c.09-2.02-1.5-3.89-3.64-4.04L104.68,6.87c-.09,0-.17.04-.26.04l-.55-.04c-.09,0-.17.04-.26.04l-.55-.04c-.09,0-.17.04-.26.04l-.55-.04c-.09,0-.17.04-.26.04l-.55-.04c-.09,0-.17.04-.26.04l-.55-.04c-.09,0-.17.04-.26.04l-.55-.04c-.09,0-.17.04-.26.04l-.55-.04c-.09,0-.17.04-.26.04l-.55-.04c-.09,0-.17.04-.26.04l-.55-.04c-.09,0-.17.04-.26.04l-.55-.04c-.09,0-.17.04-.26.04l-.55-.04c-.09,0-.17.04-.26.04l-.55-.04c-.09,0-.17.04-.26.04l-.55-.04c-.09,0-.17.04-.26.04l-.55-.04c-.09,0-.17.04-.26.04l-.55-.04c-.09,0-.17.04-.26.04l-.55-.04c-.09,0-.17.04-.26.04l-.55-.04c-.09,0-.17.04-.26.04l-.55-.04c-.09,0-.17.04-.26.04l-.55-.04c-.09,0-.17.04-.26.04l-.55-.04c-.09,0-.17.04-.26.04l-.55-.04c-1.13-.08-2.23.33-3.03,1.11h.07Z"/>
      <path class="st3" d="M123.44,172.46c.08,1.2-.43,2.37-1.36,3.16-.94.78-2.2,1.09-3.4.82l-32.53-7.19-10.56,33.06c-.35,1.1-1.18,1.98-2.27,2.41-1.09.43-2.31.36-3.34-.19l-31.24-16.77-7.22,41.37c-.31,1.81-1.9,3.15-3.78,3.18l-44.15.8,62.51,25.49,9.22-30.08c.39-1.26,1.4-2.23,2.69-2.59,1.29-.36,2.67-.04,3.67.84l19.4,17.08,17.5-35.26c.47-.96,1.33-1.68,2.37-1.99,1.04-.31,2.16-.19,3.1.35l22.09,12.52c1.05.6,1.76,1.64,1.92,2.83l14.59,112.02,608.54-38.43,19.37-264.57L108.61,14.8l14.83,157.66Z"/>
      <path d="M100.52,10.93l14.78,156.91-30.95-6.84c-1.99-.44-3.99.69-4.59,2.59l-10.21,31.96-31.87-17.11c-1.11-.59-2.44-.63-3.58-.09-1.14.54-1.94,1.58-2.15,2.8l-7.6,43.55-59.56,1.08c-1.85.03-3.42,1.33-3.77,3.11-.05.24-.07.48-.07.71,0,1.52.93,2.93,2.41,3.53l83.73,34.15c1.02.42,2.18.39,3.18-.07,1-.46,1.75-1.32,2.07-2.36l8.69-28.36,18.67,16.45c.91.8,2.16,1.14,3.36.91,1.21-.23,2.23-1,2.77-2.09l17.94-36.14,16.78,9.51,14.88,114.23c.14,1.06.72,2.01,1.6,2.63s1.99.85,3.05.64l615.62-39.84c1.74-.34,3.02-1.79,3.12-3.53l19.77-271.29c.09-2.02-1.5-3.89-3.64-4.04L104.68,6.87c-1.13-.08-2.23.33-3.03,1.11-.8.78-1.2,1.88-1.14,2.96h0ZM751.19,295.9l-608.54,38.43-14.59-112.02c-.16-1.18-.87-2.23-1.92-2.83l-22.09-12.52c-.94-.53-2.07-.66-3.1-.35-1.04.31-1.9,1.03-2.37,1.99l-17.5,35.26-19.4-17.08c-1-.88-2.38-1.2-3.67-.84-1.29.36-2.31,1.33-2.69,2.59l-9.22,30.08-62.51-25.49,44.15-.8c1.88-.03,3.47-1.37,3.78-3.18l7.22-41.37,31.24,16.77c1.03.55,2.25.62,3.34.19s1.92-1.31,2.27-2.41l10.56-33.06,32.53,7.19c1.2.27,2.46-.04,3.4-.82.94-.78,1.44-1.96,1.36-3.16L108.61,14.8l661.96,16.52-19.37,264.57h-.01Z"/>
    </g>
  </g>
  <g class="st4">
    <g>
      <path d="M76.68,7.75c-.8.78-1.2,1.88-1.14,2.96l14.53,153.11-13.76-3.04c-.52-.12-1.04-.11-1.54-.02-.27,0-.54-.05-.81,0-.27,0-.54-.05-.81,0-.27,0-.54-.05-.81,0-.27,0-.54-.05-.81,0-.27,0-.55-.05-.81,0-.27,0-.54-.05-.81,0-.27,0-.54-.05-.81,0-.27,0-.54-.05-.81,0-.27,0-.54-.05-.81,0-.27,0-.54-.05-.81,0-.27,0-.54-.05-.81,0-.27,0-.54-.05-.81,0-.27,0-.54-.05-.81,0-.27,0-.54-.05-.81,0-.27,0-.54-.05-.81,0-.27,0-.55-.05-.81,0-.27,0-.55-.05-.81,0-.27,0-.54-.05-.81,0-.27,0-.55-.05-.81,0-.27,0-.54-.05-.81,0-1.73-.05-3.33.95-3.86,2.62l-7.73,24.2-17.4-9.34c-.69-.37-1.46-.44-2.23-.37-.27-.03-.53-.02-.81,0-.27-.03-.53-.02-.81,0-.27-.03-.53-.02-.81,0-.27-.03-.53-.02-.81,0-.27-.03-.53-.02-.81,0-.27-.03-.53-.02-.81,0-.27-.03-.53-.02-.81,0-.27-.03-.53-.02-.81,0-.27-.03-.53-.02-.81,0-.27-.03-.53-.02-.81,0-.28-.03-.53-.02-.81,0-.28-.03-.53-.02-.81,0-.27-.03-.53-.02-.81,0-.28-.03-.53-.02-.81,0-.27-.03-.53-.02-.81,0-.27-.03-.53-.02-.81,0-.28-.03-.53-.02-.81,0-.27-.03-.53-.02-.81,0-.27-.03-.53-.02-.81,0-.27-.03-.53-.02-.81,0-.73-.09-1.47-.04-2.16.29-1.14.54-1.94,1.58-2.15,2.8L-.62,224.49l-59.56,1.08c-1.85.03-3.42,1.33-3.77,3.11-.05.24-.07.48-.07.71,0,1.52.93,2.93,2.41,3.53l83.73,34.15c.63.26,1.29.29,1.95.21.27.03.53.03.81,0,.27.03.53.03.81,0,.27.03.53.03.81,0,.27.03.53.03.81,0,.27.03.53.03.81,0,.27.03.53.03.81,0,.27.03.53.03.81,0,.27.03.53.03.81,0,.27.03.53.03.81,0,.27.03.53.03.81,0,.28.03.53.03.81,0,.27.03.53.03.81,0,.27.03.53.03.81,0,.27.03.53.03.81,0,.27.03.53.03.81,0,.27.03.53.03.81,0,.27.03.53.03.81,0,.27.03.53.03.81,0,.27.03.53.03.81,0,.27.03.53.03.81,0,.69.06,1.39.01,2.03-.29,1-.46,1.75-1.32,2.07-2.36l5.09-16.61,5.33,4.7c.91.8,2.16,1.14,3.36.91.02,0,.04-.02.06-.03.25,0,.49.08.74.03.02,0,.04-.02.06-.03.25,0,.49.08.74.03.02,0,.04-.02.06-.03.25,0,.49.08.74.03.02,0,.04-.02.06-.03.25,0,.49.08.74.03.02,0,.04-.02.06-.03.25,0,.49.08.74.03.02,0,.04-.02.06-.03.25,0,.49.08.74.03.02,0,.04-.02.06-.03.25,0,.49.08.74.03.02,0,.04-.02.06-.03.25,0,.49.08.74.03.02,0,.04-.02.06-.03.25,0,.49.08.74.03.02,0,.04-.02.06-.03.25,0,.49.08.74.03.02,0,.04-.02.06-.03.25,0,.49.08.74.03.02,0,.04-.02.06-.03.25,0,.49.08.74.03.02,0,.04-.02.06-.03.25,0,.49.08.74.03.02,0,.04-.02.06-.03.25,0,.49.08.74.03.02,0,.04-.02.06-.03.25,0,.49.08.74.03.02,0,.04-.02.06-.03.25,0,.49.08.74.03.02,0,.04-.02.06-.03.25,0,.49.08.74.03.02,0,.04-.02.06-.03.25,0,.49.08.74.03.02,0,.04-.02.06-.03.25,0,.49.08.74.03.02,0,.04-.02.06-.03.25,0,.49.08.74.03.02,0,.04-.02.06-.03.25,0,.49.08.74.03,1.21-.23,2.23-1,2.77-2.09l14.22-28.64,3.55,2.01,14.88,114.23c.14,1.06.72,2.01,1.6,2.63s1.99.85,3.05.64h.02c.26,0,.52.05.79,0h.02c.26,0,.52.05.79,0h.02c.26,0,.52.05.79,0h.02c.26,0,.52.05.79,0h.02c.26,0,.52.05.79,0h.02c.26,0,.52.05.79,0h.02c.26,0,.53.05.79,0h.02c.26,0,.52.05.79,0h.02c.26,0,.52.05.79,0h.02c.26,0,.52.05.79,0h.02c.26,0,.52.05.79,0h.02c.26,0,.52.05.79,0h.02c.26,0,.52.05.79,0h.02c.26,0,.52.05.79,0h.02c.26,0,.52.05.79,0h.02c.26,0,.52.05.79,0h.02c.26,0,.52.05.79,0h.02c.26,0,.52.05.79,0h.02c.26,0,.53.05.79,0h.02c.26,0,.52.05.79,0h.02c.26,0,.53.05.79,0l615.62-39.84c1.74-.34,3.02-1.79,3.12-3.53l19.77-271.29c.09-2.02-1.5-3.89-3.64-4.04L96.65,6.64c-.09,0-.17.04-.26.04l-.55-.04c-.09,0-.17.04-.26.04l-.55-.04c-.09,0-.17.04-.26.04l-.55-.04c-.09,0-.17.04-.26.04l-.55-.04c-.09,0-.17.04-.26.04l-.55-.04c-.09,0-.17.04-.26.04l-.55-.04c-.09,0-.17.04-.26.04l-.55-.04c-.09,0-.17.04-.26.04l-.55-.04c-.09,0-.17.04-.26.04l-.55-.04c-.09,0-.17.04-.26.04l-.55-.04c-.09,0-.17.04-.26.04l-.55-.04c-.09,0-.17.04-.26.04l-.55-.04c-.09,0-.17.04-.26.04l-.55-.04c-.09,0-.17.04-.26.04l-.55-.04c-.09,0-.17.04-.26.04l-.55-.04c-.09,0-.17.04-.26.04l-.55-.04c-.09,0-.17.04-.26.04l-.55-.04c-.09,0-.17.04-.26.04l-.55-.04c-.09,0-.17.04-.26.04l-.55-.04c-.09,0-.17.04-.26.04l-.55-.04c-.09,0-.17.04-.26.04l-.55-.04c-1.13-.08-2.23.33-3.03,1.11h.07Z"/>
      <path class="st0" d="M115.41,172.23c.08,1.2-.43,2.37-1.36,3.16-.94.78-2.2,1.09-3.4.82l-32.53-7.19-10.56,33.06c-.35,1.1-1.18,1.98-2.27,2.41-1.09.43-2.31.36-3.34-.19l-31.24-16.77-7.22,41.37c-.31,1.81-1.9,3.15-3.78,3.18l-44.15.8,62.51,25.49,9.22-30.08c.39-1.26,1.4-2.23,2.69-2.59,1.29-.36,2.67-.04,3.67.84l19.4,17.08,17.5-35.26c.47-.96,1.33-1.68,2.37-1.99,1.04-.31,2.16-.19,3.1.35l22.09,12.52c1.05.6,1.76,1.64,1.92,2.83l14.59,112.02,608.54-38.43,19.37-264.57L100.58,14.58l14.83,157.66h0Z"/>
      <path d="M92.48,10.71l14.78,156.91-30.95-6.84c-1.99-.44-3.99.69-4.59,2.59l-10.21,31.96-31.87-17.11c-1.11-.59-2.44-.63-3.58-.09-1.14.54-1.94,1.58-2.15,2.8l-7.6,43.55-59.56,1.08c-1.85.03-3.42,1.33-3.77,3.11-.05.24-.07.48-.07.71,0,1.52.93,2.93,2.41,3.53l83.73,34.15c1.02.42,2.18.39,3.18-.07,1-.46,1.75-1.32,2.07-2.36l8.69-28.36,18.67,16.45c.91.8,2.16,1.14,3.36.91,1.21-.23,2.23-1,2.77-2.09l17.94-36.14,16.78,9.51,14.88,114.23c.14,1.06.72,2.01,1.6,2.63s1.99.85,3.05.64l615.62-39.84c1.74-.34,3.02-1.79,3.12-3.53l19.77-271.29c.09-2.02-1.5-3.89-3.64-4.04L96.65,6.64c-1.13-.08-2.23.33-3.03,1.11-.8.78-1.2,1.88-1.14,2.96ZM743.16,295.67l-608.54,38.43-14.59-112.02c-.16-1.18-.87-2.23-1.92-2.83l-22.09-12.52c-.94-.53-2.07-.66-3.1-.35-1.04.31-1.9,1.03-2.37,1.99l-17.5,35.26-19.4-17.08c-1-.88-2.38-1.2-3.67-.84-1.29.36-2.31,1.33-2.69,2.59l-9.22,30.08-62.51-25.49,44.15-.8c1.88-.03,3.47-1.37,3.78-3.18l7.22-41.37,31.24,16.77c1.03.55,2.25.62,3.34.19s1.92-1.31,2.27-2.41l10.56-33.06,32.53,7.19c1.2.27,2.46-.04,3.4-.82.94-.78,1.44-1.96,1.36-3.16L100.58,14.58l661.96,16.52-19.37,264.57h-.01Z"/>
    </g>
  </g>
  <g class="st4">
    <g>
      <path d="M76.68,8.55c-.8.78-1.2,1.88-1.14,2.96l14.53,153.11-13.76-3.04c-.52-.12-1.04-.11-1.54-.02-.27,0-.54-.05-.81,0-.27,0-.54-.05-.81,0-.27,0-.54-.05-.81,0-.27,0-.54-.05-.81,0-.27,0-.55-.05-.81,0-.27,0-.54-.05-.81,0-.27,0-.54-.05-.81,0-.27,0-.54-.05-.81,0-.27,0-.54-.05-.81,0-.27,0-.54-.05-.81,0-.27,0-.54-.05-.81,0-.27,0-.54-.05-.81,0-.27,0-.54-.05-.81,0-.27,0-.54-.05-.81,0-.27,0-.54-.05-.81,0-.27,0-.55-.05-.81,0-.27,0-.55-.05-.81,0-.27,0-.54-.05-.81,0-.27,0-.55-.05-.81,0-.27,0-.54-.05-.81,0-1.73-.05-3.33.95-3.86,2.62l-7.73,24.2-17.4-9.34c-.69-.37-1.46-.44-2.23-.37-.27-.03-.53-.02-.81,0-.27-.03-.53-.02-.81,0-.27-.03-.53-.02-.81,0-.27-.03-.53-.02-.81,0-.27-.03-.53-.02-.81,0-.27-.03-.53-.02-.81,0-.27-.03-.53-.02-.81,0-.27-.03-.53-.02-.81,0-.27-.03-.53-.02-.81,0-.27-.03-.53-.02-.81,0-.28-.03-.53-.02-.81,0-.28-.03-.53-.02-.81,0-.27-.03-.53-.02-.81,0-.28-.03-.53-.02-.81,0-.27-.03-.53-.02-.81,0-.27-.03-.53-.02-.81,0-.28-.03-.53-.02-.81,0-.27-.03-.53-.02-.81,0-.27-.03-.53-.02-.81,0-.27-.03-.53-.02-.81,0-.73-.09-1.47-.04-2.16.29-1.14.54-1.94,1.58-2.15,2.8L-.62,225.29l-59.56,1.08c-1.85.03-3.42,1.33-3.77,3.11-.05.24-.07.48-.07.71,0,1.52.93,2.93,2.41,3.53l83.73,34.15c.63.26,1.29.29,1.95.21.27.03.53.03.81,0,.27.03.53.03.81,0,.27.03.53.03.81,0,.27.03.53.03.81,0,.27.03.53.03.81,0,.27.03.53.03.81,0,.27.03.53.03.81,0,.27.03.53.03.81,0,.27.03.53.03.81,0,.27.03.53.03.81,0,.28.03.53.03.81,0,.27.03.53.03.81,0,.27.03.53.03.81,0,.27.03.53.03.81,0,.27.03.53.03.81,0,.27.03.53.03.81,0,.27.03.53.03.81,0,.27.03.53.03.81,0,.27.03.53.03.81,0,.27.03.53.03.81,0,.69.06,1.39.01,2.03-.29,1-.46,1.75-1.32,2.07-2.36l5.09-16.61,5.33,4.7c.91.8,2.16,1.14,3.36.91.02,0,.04-.02.06-.03.25,0,.49.08.74.03.02,0,.04-.02.06-.03.25,0,.49.08.74.03.02,0,.04-.02.06-.03.25,0,.49.08.74.03.02,0,.04-.02.06-.03.25,0,.49.08.74.03.02,0,.04-.02.06-.03.25,0,.49.08.74.03.02,0,.04-.02.06-.03.25,0,.49.08.74.03.02,0,.04-.02.06-.03.25,0,.49.08.74.03.02,0,.04-.02.06-.03.25,0,.49.08.74.03.02,0,.04-.02.06-.03.25,0,.49.08.74.03.02,0,.04-.02.06-.03.25,0,.49.08.74.03.02,0,.04-.02.06-.03.25,0,.49.08.74.03.02,0,.04-.02.06-.03.25,0,.49.08.74.03.02,0,.04-.02.06-.03.25,0,.49.08.74.03.02,0,.04-.02.06-.03.25,0,.49.08.74.03.02,0,.04-.02.06-.03.25,0,.49.08.74.03.02,0,.04-.02.06-.03.25,0,.49.08.74.03.02,0,.04-.02.06-.03.25,0,.49.08.74.03.02,0,.04-.02.06-.03.25,0,.49.08.74.03.02,0,.04-.02.06-.03.25,0,.49.08.74.03.02,0,.04-.02.06-.03.25,0,.49.08.74.03.02,0,.04-.02.06-.03.25,0,.49.08.74.03,1.21-.23,2.23-1,2.77-2.09l14.22-28.64,3.55,2.01,14.88,114.23c.14,1.06.72,2.01,1.6,2.63s1.99.85,3.05.64h.02c.26,0,.52.05.79,0h.02c.26,0,.52.05.79,0h.02c.26,0,.52.05.79,0h.02c.26,0,.52.05.79,0h.02c.26,0,.52.05.79,0h.02c.26,0,.52.05.79,0h.02c.26,0,.53.05.79,0h.02c.26,0,.52.05.79,0h.02c.26,0,.52.05.79,0h.02c.26,0,.52.05.79,0h.02c.26,0,.52.05.79,0h.02c.26,0,.52.05.79,0h.02c.26,0,.52.05.79,0h.02c.26,0,.52.05.79,0h.02c.26,0,.52.05.79,0h.02c.26,0,.52.05.79,0h.02c.26,0,.52.05.79,0h.02c.26,0,.52.05.79,0h.02c.26,0,.53.05.79,0h.02c.26,0,.52.05.79,0h.02c.26,0,.53.05.79,0l615.62-39.84c1.74-.34,3.02-1.79,3.12-3.53l19.77-271.29c.09-2.02-1.5-3.89-3.64-4.04L96.65,7.45c-.09,0-.17.04-.26.04l-.55-.04c-.09,0-.17.04-.26.04l-.55-.04c-.09,0-.17.04-.26.04l-.55-.04c-.09,0-.17.04-.26.04l-.55-.04c-.09,0-.17.04-.26.04l-.55-.04c-.09,0-.17.04-.26.04l-.55-.04c-.09,0-.17.04-.26.04l-.55-.04c-.09,0-.17.04-.26.04l-.55-.04c-.09,0-.17.04-.26.04l-.55-.04c-.09,0-.17.04-.26.04l-.55-.04c-.09,0-.17.04-.26.04l-.55-.04c-.09,0-.17.04-.26.04l-.55-.04c-.09,0-.17.04-.26.04l-.55-.04c-.09,0-.17.04-.26.04l-.55-.04c-.09,0-.17.04-.26.04l-.55-.04c-.09,0-.17.04-.26.04l-.55-.04c-.09,0-.17.04-.26.04l-.55-.04c-.09,0-.17.04-.26.04l-.55-.04c-.09,0-.17.04-.26.04l-.55-.04c-.09,0-.17.04-.26.04l-.55-.04c-.09,0-.17.04-.26.04l-.55-.04c-1.13-.08-2.23.33-3.03,1.11h.07Z"/>
      <path class="st1" d="M115.41,173.04c.08,1.2-.43,2.37-1.36,3.16-.94.78-2.2,1.09-3.4.82l-32.53-7.19-10.56,33.06c-.35,1.1-1.18,1.98-2.27,2.41-1.09.43-2.31.36-3.34-.19l-31.24-16.77-7.22,41.37c-.31,1.81-1.9,3.15-3.78,3.18l-44.15.8,62.51,25.49,9.22-30.08c.39-1.26,1.4-2.23,2.69-2.59,1.29-.36,2.67-.04,3.67.84l19.4,17.08,17.5-35.26c.47-.96,1.33-1.68,2.37-1.99,1.04-.31,2.16-.19,3.1.35l22.09,12.52c1.05.6,1.76,1.64,1.92,2.83l14.59,112.02,608.54-38.43,19.37-264.57L100.58,15.38l14.83,157.66h0Z"/>
      <path d="M92.48,11.51l14.78,156.91-30.95-6.84c-1.99-.44-3.99.69-4.59,2.59l-10.21,31.96-31.87-17.11c-1.11-.59-2.44-.63-3.58-.09-1.14.54-1.94,1.58-2.15,2.8l-7.6,43.55-59.56,1.08c-1.85.03-3.42,1.33-3.77,3.11-.05.24-.07.48-.07.71,0,1.52.93,2.93,2.41,3.53l83.73,34.15c1.02.42,2.18.39,3.18-.07,1-.46,1.75-1.32,2.07-2.36l8.69-28.36,18.67,16.45c.91.8,2.16,1.14,3.36.91,1.21-.23,2.23-1,2.77-2.09l17.94-36.14,16.78,9.51,14.88,114.23c.14,1.06.72,2.01,1.6,2.63s1.99.85,3.05.64l615.62-39.84c1.74-.34,3.02-1.79,3.12-3.53l19.77-271.29c.09-2.02-1.5-3.89-3.64-4.04L96.65,7.45c-1.13-.08-2.23.33-3.03,1.11-.8.78-1.2,1.88-1.14,2.96h0ZM743.16,296.48l-608.54,38.43-14.59-112.02c-.16-1.18-.87-2.23-1.92-2.83l-22.09-12.52c-.94-.53-2.07-.66-3.1-.35-1.04.31-1.9,1.03-2.37,1.99l-17.5,35.26-19.4-17.08c-1-.88-2.38-1.2-3.67-.84-1.29.36-2.31,1.33-2.69,2.59l-9.22,30.08-62.51-25.49,44.15-.8c1.88-.03,3.47-1.37,3.78-3.18l7.22-41.37,31.24,16.77c1.03.55,2.25.62,3.34.19s1.92-1.31,2.27-2.41l10.56-33.06,32.53,7.19c1.2.27,2.46-.04,3.4-.82.94-.78,1.44-1.96,1.36-3.16L100.58,15.38l661.96,16.52-19.37,264.57h-.01Z"/>
    </g>
  </g>
  <g>
    <path d="M76.68,8.55c-.8.78-1.2,1.88-1.14,2.96l14.53,153.11-13.76-3.04c-.52-.12-1.04-.11-1.54-.02-.27,0-.54-.05-.81,0-.27,0-.54-.05-.81,0-.27,0-.54-.05-.81,0-.27,0-.54-.05-.81,0-.27,0-.55-.05-.81,0-.27,0-.54-.05-.81,0-.27,0-.54-.05-.81,0-.27,0-.54-.05-.81,0-.27,0-.54-.05-.81,0-.27,0-.54-.05-.81,0-.27,0-.54-.05-.81,0-.27,0-.54-.05-.81,0-.27,0-.54-.05-.81,0-.27,0-.54-.05-.81,0-.27,0-.54-.05-.81,0-.27,0-.55-.05-.81,0-.27,0-.55-.05-.81,0-.27,0-.54-.05-.81,0-.27,0-.55-.05-.81,0-.27,0-.54-.05-.81,0-1.73-.05-3.33.95-3.86,2.62l-7.73,24.2-17.4-9.34c-.69-.37-1.46-.44-2.23-.37-.27-.03-.53-.02-.81,0-.27-.03-.53-.02-.81,0-.27-.03-.53-.02-.81,0-.27-.03-.53-.02-.81,0-.27-.03-.53-.02-.81,0-.27-.03-.53-.02-.81,0-.27-.03-.53-.02-.81,0-.27-.03-.53-.02-.81,0-.27-.03-.53-.02-.81,0-.27-.03-.53-.02-.81,0-.28-.03-.53-.02-.81,0-.28-.03-.53-.02-.81,0-.27-.03-.53-.02-.81,0-.28-.03-.53-.02-.81,0-.27-.03-.53-.02-.81,0-.27-.03-.53-.02-.81,0-.28-.03-.53-.02-.81,0-.27-.03-.53-.02-.81,0-.27-.03-.53-.02-.81,0-.27-.03-.53-.02-.81,0-.73-.09-1.47-.04-2.16.29-1.14.54-1.94,1.58-2.15,2.8L-.62,225.29l-59.56,1.08c-1.85.03-3.42,1.33-3.77,3.11-.05.24-.07.48-.07.71,0,1.52.93,2.93,2.41,3.53l83.73,34.15c.63.26,1.29.29,1.95.21.27.03.53.03.81,0,.27.03.53.03.81,0,.27.03.53.03.81,0,.27.03.53.03.81,0,.27.03.53.03.81,0,.27.03.53.03.81,0,.27.03.53.03.81,0,.27.03.53.03.81,0,.27.03.53.03.81,0,.27.03.53.03.81,0,.28.03.53.03.81,0,.27.03.53.03.81,0,.27.03.53.03.81,0,.27.03.53.03.81,0,.27.03.53.03.81,0,.27.03.53.03.81,0,.27.03.53.03.81,0,.27.03.53.03.81,0,.27.03.53.03.81,0,.27.03.53.03.81,0,.69.06,1.39.01,2.03-.29,1-.46,1.75-1.32,2.07-2.36l5.09-16.61,5.33,4.7c.91.8,2.16,1.14,3.36.91.02,0,.04-.02.06-.03.25,0,.49.08.74.03.02,0,.04-.02.06-.03.25,0,.49.08.74.03.02,0,.04-.02.06-.03.25,0,.49.08.74.03.02,0,.04-.02.06-.03.25,0,.49.08.74.03.02,0,.04-.02.06-.03.25,0,.49.08.74.03.02,0,.04-.02.06-.03.25,0,.49.08.74.03.02,0,.04-.02.06-.03.25,0,.49.08.74.03.02,0,.04-.02.06-.03.25,0,.49.08.74.03.02,0,.04-.02.06-.03.25,0,.49.08.74.03.02,0,.04-.02.06-.03.25,0,.49.08.74.03.02,0,.04-.02.06-.03.25,0,.49.08.74.03.02,0,.04-.02.06-.03.25,0,.49.08.74.03.02,0,.04-.02.06-.03.25,0,.49.08.74.03.02,0,.04-.02.06-.03.25,0,.49.08.74.03.02,0,.04-.02.06-.03.25,0,.49.08.74.03.02,0,.04-.02.06-.03.25,0,.49.08.74.03.02,0,.04-.02.06-.03.25,0,.49.08.74.03.02,0,.04-.02.06-.03.25,0,.49.08.74.03.02,0,.04-.02.06-.03.25,0,.49.08.74.03.02,0,.04-.02.06-.03.25,0,.49.08.74.03.02,0,.04-.02.06-.03.25,0,.49.08.74.03,1.21-.23,2.23-1,2.77-2.09l14.22-28.64,3.55,2.01,14.88,114.23c.14,1.06.72,2.01,1.6,2.63s1.99.85,3.05.64h.02c.26,0,.52.05.79,0h.02c.26,0,.52.05.79,0h.02c.26,0,.52.05.79,0h.02c.26,0,.52.05.79,0h.02c.26,0,.52.05.79,0h.02c.26,0,.52.05.79,0h.02c.26,0,.53.05.79,0h.02c.26,0,.52.05.79,0h.02c.26,0,.52.05.79,0h.02c.26,0,.52.05.79,0h.02c.26,0,.52.05.79,0h.02c.26,0,.52.05.79,0h.02c.26,0,.52.05.79,0h.02c.26,0,.52.05.79,0h.02c.26,0,.52.05.79,0h.02c.26,0,.52.05.79,0h.02c.26,0,.52.05.79,0h.02c.26,0,.52.05.79,0h.02c.26,0,.53.05.79,0h.02c.26,0,.52.05.79,0h.02c.26,0,.53.05.79,0l615.62-39.84c1.74-.34,3.02-1.79,3.12-3.53l19.77-271.29c.09-2.02-1.5-3.89-3.64-4.04L96.65,7.45c-.09,0-.17.04-.26.04l-.55-.04c-.09,0-.17.04-.26.04l-.55-.04c-.09,0-.17.04-.26.04l-.55-.04c-.09,0-.17.04-.26.04l-.55-.04c-.09,0-.17.04-.26.04l-.55-.04c-.09,0-.17.04-.26.04l-.55-.04c-.09,0-.17.04-.26.04l-.55-.04c-.09,0-.17.04-.26.04l-.55-.04c-.09,0-.17.04-.26.04l-.55-.04c-.09,0-.17.04-.26.04l-.55-.04c-.09,0-.17.04-.26.04l-.55-.04c-.09,0-.17.04-.26.04l-.55-.04c-.09,0-.17.04-.26.04l-.55-.04c-.09,0-.17.04-.26.04l-.55-.04c-.09,0-.17.04-.26.04l-.55-.04c-.09,0-.17.04-.26.04l-.55-.04c-.09,0-.17.04-.26.04l-.55-.04c-.09,0-.17.04-.26.04l-.55-.04c-.09,0-.17.04-.26.04l-.55-.04c-.09,0-.17.04-.26.04l-.55-.04c-.09,0-.17.04-.26.04l-.55-.04c-1.13-.08-2.23.33-3.03,1.11h.07Z"/>
    <path class="st2" d="M115.41,173.04c.08,1.2-.43,2.37-1.36,3.16-.94.78-2.2,1.09-3.4.82l-32.53-7.19-10.56,33.06c-.35,1.1-1.18,1.98-2.27,2.41-1.09.43-2.31.36-3.34-.19l-31.24-16.77-7.22,41.37c-.31,1.81-1.9,3.15-3.78,3.18l-44.15.8,62.51,25.49,9.22-30.08c.39-1.26,1.4-2.23,2.69-2.59,1.29-.36,2.67-.04,3.67.84l19.4,17.08,17.5-35.26c.47-.96,1.33-1.68,2.37-1.99,1.04-.31,2.16-.19,3.1.35l22.09,12.52c1.05.6,1.76,1.64,1.92,2.83l14.59,112.02,608.54-38.43,19.37-264.57L100.58,15.38l14.83,157.66h0Z"/>
    <path d="M92.48,11.51l14.78,156.91-30.95-6.84c-1.99-.44-3.99.69-4.59,2.59l-10.21,31.96-31.87-17.11c-1.11-.59-2.44-.63-3.58-.09-1.14.54-1.94,1.58-2.15,2.8l-7.6,43.55-59.56,1.08c-1.85.03-3.42,1.33-3.77,3.11-.05.24-.07.48-.07.71,0,1.52.93,2.93,2.41,3.53l83.73,34.15c1.02.42,2.18.39,3.18-.07,1-.46,1.75-1.32,2.07-2.36l8.69-28.36,18.67,16.45c.91.8,2.16,1.14,3.36.91,1.21-.23,2.23-1,2.77-2.09l17.94-36.14,16.78,9.51,14.88,114.23c.14,1.06.72,2.01,1.6,2.63s1.99.85,3.05.64l615.62-39.84c1.74-.34,3.02-1.79,3.12-3.53l19.77-271.29c.09-2.02-1.5-3.89-3.64-4.04L96.65,7.45c-1.13-.08-2.23.33-3.03,1.11-.8.78-1.2,1.88-1.14,2.96h0ZM743.16,296.48l-608.54,38.43-14.59-112.02c-.16-1.18-.87-2.23-1.92-2.83l-22.09-12.52c-.94-.53-2.07-.66-3.1-.35-1.04.31-1.9,1.03-2.37,1.99l-17.5,35.26-19.4-17.08c-1-.88-2.38-1.2-3.67-.84-1.29.36-2.31,1.33-2.69,2.59l-9.22,30.08-62.51-25.49,44.15-.8c1.88-.03,3.47-1.37,3.78-3.18l7.22-41.37,31.24,16.77c1.03.55,2.25.62,3.34.19s1.92-1.31,2.27-2.41l10.56-33.06,32.53,7.19c1.2.27,2.46-.04,3.4-.82.94-.78,1.44-1.96,1.36-3.16L100.58,15.38l661.96,16.52-19.37,264.57h-.01Z"/>
  </g>
  <g>
    <g>
      <path d="M174.41,66.34c.2.2.31.43.31.7v24.45c0,.27-.1.5-.31.7-.2.2-.44.3-.71.3h-2.55c-.27,0-.51-.1-.71-.3-.2-.2-.31-.43-.31-.7v-9.73h-10.2v9.73c0,.27-.1.5-.31.7-.2.2-.44.3-.71.3h-2.55c-.27,0-.51-.1-.71-.3-.2-.2-.31-.43-.31-.7v-24.45c0-.27.1-.5.31-.7.2-.2.44-.3.71-.3h2.55c.27,0,.51.1.71.3.2.2.31.43.31.7v10.23h10.2v-10.23c0-.27.1-.5.31-.7.2-.2.44-.3.71-.3h2.55c.27,0,.51.1.71.3Z"/>
      <path d="M180.14,75.23c.9-.8,1.98-1.2,3.24-1.2h5.61c1.73,0,3.02.38,3.85,1.12.83.75,1.25,1.66,1.25,2.72,0,.83-.23,1.69-.69,2.57s-1.13,1.73-2.01,2.54c-.88.81-1.97,1.57-3.26,2.27-1.29.7-2.77,1.28-4.44,1.75.34.5.79.86,1.35,1.07.56.22,1.2.32,1.91.32,1.05,0,2.14-.16,3.26-.47,1.12-.32,2.07-.66,2.86-1.02l1.02,3.59c-1.26.57-2.57,1.04-3.95,1.42-1.38.38-2.79.57-4.26.57-.95,0-1.86-.12-2.73-.37-.87-.25-1.62-.67-2.27-1.25-.65-.58-1.16-1.34-1.53-2.27-.37-.93-.56-2.1-.56-3.49v-6.59c0-1.4.45-2.5,1.35-3.29ZM184.71,83.06c.54-.23,1.1-.55,1.68-.95.58-.4,1.15-.9,1.71-1.5s1.03-1.3,1.4-2.1h-6.12v4.99c.34-.07.78-.22,1.33-.45Z"/>
      <path d="M202.24,77.27c-.07.03.19-.11.76-.42.58-.32,1.28-.67,2.12-1.05.83-.38,1.69-.74,2.57-1.07.88-.33,1.63-.5,2.24-.5.68,0,1.22.22,1.63.65.41.43.61,1.23.61,2.39v3.74c0,.27-.1.5-.31.7-.2.2-.44.3-.71.3h-3.57v-2.25c0-.57-.31-.85-.92-.85-.37,0-.79.07-1.25.2s-.9.29-1.33.47c-.42.18-.81.37-1.15.55-.34.18-.58.32-.71.42v10.93c0,.27-.1.5-.31.7-.2.2-.44.3-.71.3h-2.55c-.27,0-.51-.1-.71-.3-.2-.2-.31-.43-.31-.7v-16.47c0-.27.1-.5.31-.7.2-.2.44-.3.71-.3h3.57v3.24Z"/>
      <path d="M235.08,92.19c-.17-.2-.29-.43-.36-.7l-6.27-20.96-2.8,20.96c-.03.27-.14.5-.33.7-.19.2-.42.3-.69.3h-3.72l3.42-25.45c.03-.27.14-.5.33-.7.19-.2.42-.3.69-.3h5.86c.27,0,.49.1.66.3s.29.43.36.7l6.42,21.21,6.37-21.21c.07-.27.19-.5.36-.7.17-.2.39-.3.66-.3h5.86c.27,0,.5.1.69.3.19.2.3.43.33.7l3.42,25.45h-3.67c-.27,0-.5-.1-.69-.3-.19-.2-.3-.43-.33-.7l-2.85-20.96-6.27,20.96c-.07.27-.19.5-.36.7-.17.2-.39.3-.66.3h-5.76c-.27,0-.49-.1-.66-.3Z"/>
      <path d="M263.57,66.34c.2.2.31.43.31.7v2.25c0,.27-.1.5-.31.7-.2.2-.44.3-.71.3h-2.55c-.27,0-.51-.1-.71-.3-.2-.2-.31-.43-.31-.7v-2.25c0-.27.1-.5.31-.7.2-.2.44-.3.71-.3h2.55c.27,0,.51.1.71.3ZM263.57,74.33c.2.2.31.43.31.7v16.47c0,.27-.1.5-.31.7-.2.2-.44.3-.71.3h-2.55c-.27,0-.51-.1-.71-.3-.2-.2-.31-.43-.31-.7v-16.47c0-.27.1-.5.31-.7.2-.2.44-.3.71-.3h2.55c.27,0,.51.1.71.3Z"/>
      <path d="M278.92,78.84c-1.29-.28-2.58-.42-3.87-.42-.78,0-1.44.07-1.99.2s-.82.37-.82.7.32.62.97.85c.65.23,1.45.47,2.42.72.97.25,2.01.53,3.13.85,1.12.32,2.17.7,3.14,1.15.97.45,1.78,1.01,2.42,1.67.65.67.97,1.48.97,2.45,0,1.03-.21,1.9-.64,2.59-.42.7-1,1.26-1.73,1.7s-1.58.74-2.55.92-1.98.27-3.03.27c-1.73,0-3.47-.19-5.2-.57-1.73-.38-3.25-.86-4.54-1.42l1.58-3.94c.41.23.94.46,1.61.67.66.22,1.38.41,2.17.57.78.17,1.58.3,2.4.4s1.58.15,2.29.15c.99,0,1.75-.09,2.29-.27.54-.18.82-.41.82-.67,0-.33-.32-.62-.97-.87-.65-.25-1.45-.52-2.42-.8-.97-.28-2.02-.59-3.16-.92-1.14-.33-2.19-.75-3.16-1.25s-1.78-1.09-2.42-1.77c-.65-.68-.97-1.52-.97-2.52s.23-1.78.69-2.44c.46-.67,1.07-1.21,1.83-1.62s1.67-.71,2.7-.9c1.04-.18,2.12-.27,3.24-.27,1.43,0,2.7.13,3.82.4,1.12.27,2.36.63,3.72,1.1l-.87,4.39c-1.29-.43-2.58-.79-3.87-1.07Z"/>
      <path d="M300.03,78.84c-1.29-.28-2.58-.42-3.87-.42-.78,0-1.44.07-1.99.2s-.82.37-.82.7.32.62.97.85c.65.23,1.45.47,2.42.72.97.25,2.01.53,3.13.85,1.12.32,2.17.7,3.14,1.15.97.45,1.78,1.01,2.42,1.67.65.67.97,1.48.97,2.45,0,1.03-.21,1.9-.64,2.59-.42.7-1,1.26-1.73,1.7s-1.58.74-2.55.92-1.98.27-3.03.27c-1.73,0-3.47-.19-5.2-.57-1.73-.38-3.25-.86-4.54-1.42l1.58-3.94c.41.23.94.46,1.61.67.66.22,1.38.41,2.17.57.78.17,1.58.3,2.4.4s1.58.15,2.29.15c.99,0,1.75-.09,2.29-.27.54-.18.82-.41.82-.67,0-.33-.32-.62-.97-.87-.65-.25-1.45-.52-2.42-.8-.97-.28-2.02-.59-3.16-.92-1.14-.33-2.19-.75-3.16-1.25s-1.78-1.09-2.42-1.77c-.65-.68-.97-1.52-.97-2.52s.23-1.78.69-2.44c.46-.67,1.07-1.21,1.83-1.62s1.67-.71,2.7-.9c1.04-.18,2.12-.27,3.24-.27,1.43,0,2.7.13,3.82.4,1.12.27,2.36.63,3.72,1.1l-.87,4.39c-1.29-.43-2.58-.79-3.87-1.07Z"/>
      <path d="M314.45,66.34c.2.2.31.43.31.7v2.25c0,.27-.1.5-.31.7-.2.2-.44.3-.71.3h-2.55c-.27,0-.51-.1-.71-.3-.2-.2-.31-.43-.31-.7v-2.25c0-.27.1-.5.31-.7.2-.2.44-.3.71-.3h2.55c.27,0,.51.1.71.3ZM314.45,74.33c.2.2.31.43.31.7v16.47c0,.27-.1.5-.31.7-.2.2-.44.3-.71.3h-2.55c-.27,0-.51-.1-.71-.3-.2-.2-.31-.43-.31-.7v-16.47c0-.27.1-.5.31-.7.2-.2.44-.3.71-.3h2.55c.27,0,.51.1.71.3Z"/>
      <path d="M331.12,74.5c.99.32,1.85.77,2.6,1.37.75.6,1.33,1.33,1.76,2.2s.64,1.85.64,2.94v4.49c0,1.1-.21,2.08-.64,2.94-.42.87-1.01,1.6-1.76,2.2-.75.6-1.61,1.06-2.6,1.37-.99.32-2.04.47-3.16.47h-1.53c-1.12,0-2.18-.16-3.16-.47-.99-.32-1.85-.77-2.6-1.37-.75-.6-1.33-1.33-1.76-2.2-.42-.86-.64-1.85-.64-2.94v-4.49c0-1.1.21-2.08.64-2.94s1.01-1.6,1.76-2.2c.75-.6,1.61-1.06,2.6-1.37.99-.32,2.04-.47,3.16-.47h1.53c1.12,0,2.17.16,3.16.47ZM323.83,79.02c-.65.3-.97.9-.97,1.8v4.84c0,.93.33,1.54.99,1.82.66.28,1.45.42,2.37.42h2.14c.95,0,1.72-.16,2.29-.47.58-.32.87-.91.87-1.77v-4.84c0-.96-.35-1.58-1.04-1.85-.7-.27-1.54-.4-2.52-.4h-1.63c-1.02,0-1.85.15-2.5.45Z"/>
      <path d="M344.23,76.27c.95-.67,1.99-1.21,3.11-1.62,1.12-.42,2.23-.62,3.31-.62.71,0,1.39.12,2.04.35.65.23,1.21.62,1.68,1.15s.86,1.24,1.15,2.12c.29.88.43,1.95.43,3.22v10.63c0,.27-.1.5-.31.7-.2.2-.44.3-.71.3h-2.55c-.27,0-.51-.1-.71-.3-.2-.2-.31-.43-.31-.7v-10.58c0-.96-.31-1.64-.94-2.02s-1.38-.57-2.27-.57c-.71,0-1.43.09-2.14.27-.71.18-1.31.41-1.78.67v12.22c0,.27-.1.5-.31.7-.2.2-.44.3-.71.3h-2.55c-.27,0-.51-.1-.71-.3-.2-.2-.31-.43-.31-.7v-16.47c0-.27.1-.5.31-.7.2-.2.44-.3.71-.3h3.57v2.25Z"/>
      <path d="M362.53,82.21c-.2-.2-.31-.43-.31-.7v-3.74c0-.27.1-.5.31-.7s.44-.3.71-.3h3.82c.27,0,.51.1.71.3s.31.43.31.7v3.74c0,.27-.1.5-.31.7-.2.2-.44.3-.71.3h-3.82c-.27,0-.51-.1-.71-.3ZM362.53,92.19c-.2-.2-.31-.43-.31-.7v-3.74c0-.27.1-.5.31-.7.2-.2.44-.3.71-.3h3.82c.27,0,.51.1.71.3.2.2.31.43.31.7v3.74c0,.27-.1.5-.31.7-.2.2-.44.3-.71.3h-3.82c-.27,0-.51-.1-.71-.3Z"/>
      <path d="M166.05,125.74c0,.27-.1.5-.31.7-.2.2-.44.3-.71.3h-2.55c-.27,0-.51-.1-.71-.3-.2-.2-.31-.43-.31-.7v-21.16h-6.12c-.27,0-.51-.1-.71-.3-.2-.2-.31-.43-.31-.7v-2.3c0-.27.1-.5.31-.7.2-.2.44-.3.71-.3h16.82c.27,0,.51.1.71.3s.31.43.31.7v2.3c0,.27-.1.5-.31.7-.2.2-.44.3-.71.3h-6.12v21.16Z"/>
      <path d="M184.45,108.75c.99.32,1.85.77,2.6,1.37.75.6,1.33,1.33,1.76,2.2s.64,1.85.64,2.94v4.49c0,1.1-.21,2.08-.64,2.94-.42.87-1.01,1.6-1.76,2.2-.75.6-1.61,1.06-2.6,1.37-.99.32-2.04.47-3.16.47h-1.53c-1.12,0-2.18-.16-3.16-.47-.99-.32-1.85-.77-2.6-1.37-.75-.6-1.33-1.33-1.76-2.2-.42-.86-.64-1.85-.64-2.94v-4.49c0-1.1.21-2.08.64-2.94s1.01-1.6,1.76-2.2c.75-.6,1.61-1.06,2.6-1.37.99-.32,2.04-.47,3.16-.47h1.53c1.12,0,2.17.16,3.16.47ZM177.16,113.26c-.65.3-.97.9-.97,1.8v4.84c0,.93.33,1.54.99,1.82.66.28,1.45.42,2.37.42h2.14c.95,0,1.72-.16,2.29-.47.58-.32.87-.91.87-1.77v-4.84c0-.96-.35-1.58-1.04-1.85-.7-.27-1.54-.4-2.52-.4h-1.63c-1.02,0-1.85.15-2.5.45Z"/>
      <path d="M203.67,133.72c0,.27-.1.5-.31.7-.2.2-.44.3-.71.3h-2.55c-.27,0-.51-.1-.71-.3-.2-.2-.31-.43-.31-.7v-24.45c0-.27.1-.5.31-.7.2-.2.44-.3.71-.3h6.53c1.5,0,2.82.26,3.98.77s2.12,1.2,2.91,2.05c.78.85,1.38,1.81,1.78,2.89.41,1.08.61,2.19.61,3.32,0,1.03-.18,2.04-.54,3.02-.36.98-.92,1.85-1.68,2.62-.76.76-1.73,1.38-2.91,1.85-1.17.47-2.56.7-4.15.7h-2.96v8.23ZM210.22,119.85c.73-.76,1.1-1.61,1.1-2.54,0-.57-.1-1.12-.31-1.67-.2-.55-.49-1.03-.87-1.45s-.85-.76-1.43-1.02c-.58-.27-1.22-.4-1.94-.4h-3.11v8.23h3.11c1.56,0,2.71-.38,3.44-1.15Z"/>
      <path d="M224.06,111.52c-.07.03.19-.11.76-.42.58-.32,1.28-.67,2.12-1.05.83-.38,1.69-.74,2.57-1.07.88-.33,1.63-.5,2.24-.5.68,0,1.22.22,1.63.65.41.43.61,1.23.61,2.39v3.74c0,.27-.1.5-.31.7-.2.2-.44.3-.71.3h-3.57v-2.25c0-.57-.31-.85-.92-.85-.37,0-.79.07-1.25.2s-.9.29-1.33.47c-.42.18-.81.37-1.15.55-.34.18-.58.32-.71.42v10.93c0,.27-.1.5-.31.7-.2.2-.44.3-.71.3h-2.55c-.27,0-.51-.1-.71-.3-.2-.2-.31-.43-.31-.7v-16.47c0-.27.1-.5.31-.7.2-.2.44-.3.71-.3h3.57v3.24Z"/>
      <path d="M250.01,108.75c.99.32,1.85.77,2.6,1.37.75.6,1.33,1.33,1.76,2.2s.64,1.85.64,2.94v4.49c0,1.1-.21,2.08-.64,2.94-.42.87-1.01,1.6-1.76,2.2-.75.6-1.61,1.06-2.6,1.37-.99.32-2.04.47-3.16.47h-1.53c-1.12,0-2.18-.16-3.16-.47-.99-.32-1.85-.77-2.6-1.37-.75-.6-1.33-1.33-1.76-2.2-.42-.86-.64-1.85-.64-2.94v-4.49c0-1.1.21-2.08.64-2.94s1.01-1.6,1.76-2.2c.75-.6,1.61-1.06,2.6-1.37.99-.32,2.04-.47,3.16-.47h1.53c1.12,0,2.17.16,3.16.47ZM242.72,113.26c-.65.3-.97.9-.97,1.8v4.84c0,.93.33,1.54.99,1.82.66.28,1.45.42,2.37.42h2.14c.95,0,1.72-.16,2.29-.47.58-.32.87-.91.87-1.77v-4.84c0-.96-.35-1.58-1.04-1.85-.7-.27-1.54-.4-2.52-.4h-1.63c-1.02,0-1.85.15-2.5.45Z"/>
      <path d="M262.81,100.59c.2.2.31.43.31.7v3.09h4.74c.27,0,.51.1.71.3.2.2.31.43.31.7v2.74c0,.27-.1.5-.31.7-.2.2-.44.3-.71.3h-4.74v9.18c0,.73.11,1.34.33,1.82s.51.87.87,1.15c.36.28.77.48,1.25.6.48.12.99.17,1.53.17.2,0,.42-.02.64-.05s.43-.05.64-.05l1.02,4.34c-1.22.3-2.36.45-3.42.45s-2.08-.16-2.98-.47c-.9-.32-1.68-.81-2.34-1.47-.66-.67-1.18-1.54-1.55-2.62-.37-1.08-.56-2.37-.56-3.87v-17.01c0-.27.1-.5.31-.7.2-.2.44-.3.71-.3h2.55c.27,0,.51.1.71.3Z"/>
      <path d="M274.56,109.47c.9-.8,1.98-1.2,3.24-1.2h5.61c1.73,0,3.02.38,3.85,1.12.83.75,1.25,1.66,1.25,2.72,0,.83-.23,1.69-.69,2.57-.46.88-1.13,1.73-2.01,2.54-.88.81-1.97,1.57-3.26,2.27-1.29.7-2.77,1.28-4.44,1.75.34.5.79.86,1.35,1.07.56.22,1.2.32,1.91.32,1.05,0,2.14-.16,3.26-.47,1.12-.32,2.07-.66,2.85-1.02l1.02,3.59c-1.26.57-2.57,1.04-3.95,1.42-1.38.38-2.8.57-4.26.57-.95,0-1.86-.12-2.73-.37-.87-.25-1.62-.67-2.27-1.25-.65-.58-1.16-1.34-1.53-2.27-.37-.93-.56-2.1-.56-3.49v-6.59c0-1.4.45-2.5,1.35-3.29ZM279.12,117.3c.54-.23,1.1-.55,1.68-.95.58-.4,1.15-.9,1.71-1.5.56-.6,1.03-1.3,1.4-2.1h-6.12v4.99c.34-.07.78-.22,1.33-.45Z"/>
      <path d="M307.37,119.75c0,1.1-.21,2.08-.64,2.94-.42.87-1.01,1.6-1.76,2.2-.75.6-1.61,1.06-2.6,1.37-.99.32-2.04.47-3.16.47h.51c-1.12,0-2.17-.16-3.16-.47-.99-.32-1.85-.77-2.6-1.37-.75-.6-1.33-1.33-1.76-2.2-.42-.86-.64-1.85-.64-2.94v-4.49c0-1.1.21-2.08.64-2.94s1.01-1.6,1.76-2.2,1.61-1.06,2.6-1.37c.99-.32,2.04-.47,3.16-.47h-.51c1.12,0,2.17.16,3.16.47.99.32,1.85.77,2.6,1.37.75.6,1.33,1.33,1.76,2.2s.64,1.85.64,2.94v.5h-4.59v-.7c0-.96-.35-1.58-1.04-1.85-.7-.27-1.54-.4-2.52-.4h.41c-1.02,0-1.85.15-2.5.45-.65.3-.97.9-.97,1.8v4.84c0,.93.37,1.54,1.12,1.82.75.28,1.58.42,2.5.42h-.66c.95,0,1.8-.16,2.55-.47.75-.32,1.12-.91,1.12-1.77v-.65h4.59v.5Z"/>
      <path d="M315.22,100.59c.2.2.31.43.31.7v3.09h4.74c.27,0,.51.1.71.3.2.2.31.43.31.7v2.74c0,.27-.1.5-.31.7-.2.2-.44.3-.71.3h-4.74v9.18c0,.73.11,1.34.33,1.82s.51.87.87,1.15c.36.28.77.48,1.25.6.48.12.99.17,1.53.17.2,0,.42-.02.64-.05s.43-.05.64-.05l1.02,4.34c-1.22.3-2.36.45-3.42.45s-2.08-.16-2.98-.47c-.9-.32-1.68-.81-2.34-1.47-.66-.67-1.18-1.54-1.55-2.62-.37-1.08-.56-2.37-.56-3.87v-17.01c0-.27.1-.5.31-.7.2-.2.44-.3.71-.3h2.55c.27,0,.51.1.71.3Z"/>
      <path d="M336.02,100.59c.2.2.31.43.31.7v3.09h4.74c.27,0,.51.1.71.3.2.2.31.43.31.7v2.74c0,.27-.1.5-.31.7-.2.2-.44.3-.71.3h-4.74v9.18c0,.73.11,1.34.33,1.82s.51.87.87,1.15c.36.28.77.48,1.25.6.48.12.99.17,1.53.17.2,0,.42-.02.64-.05s.43-.05.64-.05l1.02,4.34c-1.22.3-2.36.45-3.42.45s-2.08-.16-2.98-.47c-.9-.32-1.68-.81-2.34-1.47-.66-.67-1.18-1.54-1.55-2.62-.37-1.08-.56-2.37-.56-3.87v-17.01c0-.27.1-.5.31-.7.2-.2.44-.3.71-.3h2.55c.27,0,.51.1.71.3Z"/>
      <path d="M350.7,100.59c.2.2.31.43.31.7v8.53c.88-.47,1.83-.85,2.85-1.15s2-.45,2.96-.45c.82,0,1.58.11,2.29.32.71.22,1.33.62,1.86,1.2.53.58.95,1.36,1.27,2.32.32.96.48,2.2.48,3.69v9.98c0,.27-.1.5-.31.7-.2.2-.44.3-.71.3h-2.55c-.27,0-.51-.1-.71-.3-.2-.2-.31-.43-.31-.7v-10.93c0-.83-.35-1.41-1.04-1.75-.7-.33-1.42-.5-2.17-.5s-1.43.11-2.14.32c-.71.22-1.31.49-1.78.82v12.02c0,.27-.1.5-.31.7-.2.2-.44.3-.71.3h-2.55c-.27,0-.51-.1-.71-.3-.2-.2-.31-.43-.31-.7v-24.45c0-.27.1-.5.31-.7.2-.2.44-.3.71-.3h2.55c.27,0,.51.1.71.3Z"/>
      <path d="M367.65,109.47c.9-.8,1.98-1.2,3.24-1.2h5.61c1.73,0,3.02.38,3.85,1.12.83.75,1.25,1.66,1.25,2.72,0,.83-.23,1.69-.69,2.57s-1.13,1.73-2.01,2.54c-.88.81-1.97,1.57-3.26,2.27-1.29.7-2.77,1.28-4.44,1.75.34.5.79.86,1.35,1.07.56.22,1.2.32,1.91.32,1.05,0,2.14-.16,3.26-.47,1.12-.32,2.07-.66,2.86-1.02l1.02,3.59c-1.26.57-2.57,1.04-3.95,1.42-1.38.38-2.79.57-4.26.57-.95,0-1.86-.12-2.73-.37-.87-.25-1.62-.67-2.27-1.25-.65-.58-1.16-1.34-1.53-2.27-.37-.93-.56-2.1-.56-3.49v-6.59c0-1.4.45-2.5,1.35-3.29ZM372.22,117.3c.54-.23,1.1-.55,1.68-.95.58-.4,1.15-.9,1.71-1.5s1.03-1.3,1.4-2.1h-6.12v4.99c.34-.07.78-.22,1.33-.45Z"/>
      <path d="M395.36,126.43c-.17-.2-.29-.43-.36-.7l-4.84-17.46h3.77c.27,0,.49.1.66.3.17.2.29.43.36.7l3.62,12.77,3.57-12.77c.07-.27.19-.5.36-.7.17-.2.39-.3.66-.3h3.82l-4.89,17.46c-.07.27-.19.5-.36.7-.17.2-.39.3-.66.3h-5.05c-.27,0-.49-.1-.66-.3Z"/>
      <path d="M421.62,124.54c-1.09.6-2.19,1.11-3.31,1.55-1.12.43-2.17.65-3.16.65-.68,0-1.34-.12-1.99-.35-.65-.23-1.21-.62-1.68-1.15-.48-.53-.86-1.24-1.15-2.12-.29-.88-.43-1.95-.43-3.22v-10.63c0-.27.1-.5.31-.7.2-.2.44-.3.71-.3h2.55c.27,0,.51.1.71.3.2.2.31.43.31.7v10.58c0,.96.32,1.64.97,2.02.65.38,1.41.57,2.29.57.68,0,1.37-.08,2.06-.22.7-.15,1.3-.37,1.81-.67v-12.27c0-.27.1-.5.31-.7.2-.2.44-.3.71-.3h2.55c.27,0,.51.1.71.3.2.2.31.43.31.7v16.47c0,.27-.1.5-.31.7-.2.2-.44.3-.71.3h-3.57v-2.2Z"/>
      <path d="M434.57,100.59c.2.2.31.43.31.7v24.45c0,.27-.1.5-.31.7-.2.2-.44.3-.71.3h-2.55c-.27,0-.51-.1-.71-.3-.2-.2-.31-.43-.31-.7v-24.45c0-.27.1-.5.31-.7s.44-.3.71-.3h2.55c.27,0,.51.1.71.3Z"/>
      <path d="M443.54,110.52c.95-.67,1.99-1.21,3.11-1.62,1.12-.42,2.23-.62,3.31-.62.71,0,1.39.12,2.04.35.65.23,1.21.62,1.68,1.15s.86,1.24,1.15,2.12c.29.88.43,1.95.43,3.22v10.63c0,.27-.1.5-.31.7-.2.2-.44.3-.71.3h-2.55c-.27,0-.51-.1-.71-.3-.2-.2-.31-.43-.31-.7v-10.58c0-.96-.31-1.64-.94-2.02s-1.38-.57-2.27-.57c-.71,0-1.43.09-2.14.27-.71.18-1.31.41-1.78.67v12.22c0,.27-.1.5-.31.7-.2.2-.44.3-.71.3h-2.55c-.27,0-.51-.1-.71-.3-.2-.2-.31-.43-.31-.7v-16.47c0-.27.1-.5.31-.7.2-.2.44-.3.71-.3h3.57v2.25Z"/>
      <path d="M460.85,109.47c.9-.8,1.98-1.2,3.24-1.2h5.61c1.73,0,3.02.38,3.85,1.12.83.75,1.25,1.66,1.25,2.72,0,.83-.23,1.69-.69,2.57-.46.88-1.13,1.73-2.01,2.54-.88.81-1.97,1.57-3.26,2.27-1.29.7-2.77,1.28-4.44,1.75.34.5.79.86,1.35,1.07.56.22,1.2.32,1.91.32,1.05,0,2.14-.16,3.26-.47,1.12-.32,2.07-.66,2.85-1.02l1.02,3.59c-1.26.57-2.57,1.04-3.95,1.42-1.38.38-2.8.57-4.26.57-.95,0-1.86-.12-2.73-.37-.87-.25-1.62-.67-2.27-1.25-.65-.58-1.16-1.34-1.53-2.27-.37-.93-.56-2.1-.56-3.49v-6.59c0-1.4.45-2.5,1.35-3.29ZM465.41,117.3c.54-.23,1.1-.55,1.68-.95.58-.4,1.15-.9,1.71-1.5.56-.6,1.03-1.3,1.4-2.1h-6.12v4.99c.34-.07.78-.22,1.33-.45Z"/>
      <path d="M482.95,111.52c-.07.03.19-.11.76-.42.58-.32,1.28-.67,2.12-1.05s1.69-.74,2.57-1.07c.88-.33,1.63-.5,2.24-.5.68,0,1.22.22,1.63.65.41.43.61,1.23.61,2.39v3.74c0,.27-.1.5-.31.7-.2.2-.44.3-.71.3h-3.57v-2.25c0-.57-.31-.85-.92-.85-.37,0-.79.07-1.25.2-.46.13-.9.29-1.33.47-.42.18-.81.37-1.15.55-.34.18-.58.32-.71.42v10.93c0,.27-.1.5-.31.7-.2.2-.44.3-.71.3h-2.55c-.27,0-.51-.1-.71-.3-.2-.2-.31-.43-.31-.7v-16.47c0-.27.1-.5.31-.7.2-.2.44-.3.71-.3h3.57v3.24Z"/>
      <path d="M496.69,118.65c.39-.67,1.02-1.25,1.89-1.75.87-.5,1.98-.9,3.34-1.2,1.36-.3,2.99-.45,4.89-.45,0-1.06-.33-1.8-.99-2.22-.66-.42-1.54-.62-2.63-.62-.99,0-2.04.14-3.16.42-1.12.28-2.09.61-2.91.97l-1.02-3.54c1.29-.57,2.62-1.04,4-1.42,1.38-.38,2.78-.57,4.21-.57.95,0,1.86.12,2.73.38.87.25,1.62.66,2.27,1.22.65.57,1.16,1.31,1.53,2.25.37.93.56,2.09.56,3.49v10.13c0,.27-.1.5-.31.7-.2.2-.44.3-.71.3h-10.2c-1.12,0-2.08-.39-2.88-1.17-.8-.78-1.2-1.72-1.2-2.82v-2c0-.73.2-1.43.59-2.1ZM506.81,118.75c-.51,0-1.11.03-1.81.08-.7.05-1.37.16-2.01.32-.65.17-1.19.42-1.63.75-.44.33-.66.78-.66,1.35v.75h6.12v-3.24Z"/>
      <path d="M527.18,110.22c1.17.47,2.14,1.07,2.91,1.82.76.75,1.33,1.61,1.68,2.59.36.98.54,1.99.54,3.02,0,1.13-.2,2.24-.61,3.32-.41,1.08-1,2.05-1.78,2.89-.78.85-1.75,1.54-2.91,2.07-1.16.53-2.48.8-3.98.8h-6.53c-.27,0-.51-.1-.71-.3-.2-.2-.31-.43-.31-.7v-24.45c0-.27.1-.5.31-.7s.44-.3.71-.3h2.55c.27,0,.51.1.71.3s.31.43.31.7v8.23h2.96c1.6,0,2.98.23,4.15.7ZM520.06,122.24h3.11c.71,0,1.36-.13,1.94-.4.58-.27,1.05-.62,1.43-1.05s.66-.92.87-1.47c.2-.55.31-1.11.31-1.67,0-.93-.37-1.77-1.1-2.52-.73-.75-1.88-1.12-3.44-1.12h-3.11v8.23Z"/>
      <path d="M540.15,100.59c.2.2.31.43.31.7v24.45c0,.27-.1.5-.31.7-.2.2-.44.3-.71.3h-2.55c-.27,0-.51-.1-.71-.3-.2-.2-.31-.43-.31-.7v-24.45c0-.27.1-.5.31-.7.2-.2.44-.3.71-.3h2.55c.27,0,.51.1.71.3Z"/>
      <path d="M545.89,109.47c.9-.8,1.98-1.2,3.24-1.2h5.61c1.73,0,3.02.38,3.85,1.12.83.75,1.25,1.66,1.25,2.72,0,.83-.23,1.69-.69,2.57-.46.88-1.13,1.73-2.01,2.54-.88.81-1.97,1.57-3.26,2.27-1.29.7-2.77,1.28-4.44,1.75.34.5.79.86,1.35,1.07.56.22,1.2.32,1.91.32,1.05,0,2.14-.16,3.26-.47,1.12-.32,2.07-.66,2.85-1.02l1.02,3.59c-1.26.57-2.57,1.04-3.95,1.42-1.38.38-2.8.57-4.26.57-.95,0-1.86-.12-2.73-.37-.87-.25-1.62-.67-2.27-1.25-.65-.58-1.16-1.34-1.53-2.27-.37-.93-.56-2.1-.56-3.49v-6.59c0-1.4.45-2.5,1.35-3.29ZM550.45,117.3c.54-.23,1.1-.55,1.68-.95.58-.4,1.15-.9,1.71-1.5.56-.6,1.03-1.3,1.4-2.1h-6.12v4.99c.34-.07.78-.22,1.33-.45Z"/>
      <path d="M573.8,126.43c-.2.2-.44.3-.71.3h-2.55c-.27,0-.51-.1-.71-.3-.2-.2-.31-.43-.31-.7v-19.51c0-1.16.19-2.12.56-2.87.37-.75.86-1.35,1.45-1.8s1.27-.76,2.01-.95c.75-.18,1.51-.27,2.29-.27.95,0,1.86.09,2.73.27.87.18,1.59.41,2.17.67v3.99c-.31-.1-.88-.26-1.71-.47-.83-.22-1.64-.32-2.42-.32-.68,0-1.27.12-1.76.37-.49.25-.74.72-.74,1.42v5.49h5.51v4.49h-5.51v9.48c0,.27-.1.5-.31.7Z"/>
      <path d="M589.04,111.52c-.07.03.19-.11.76-.42.58-.32,1.28-.67,2.12-1.05.83-.38,1.69-.74,2.57-1.07.88-.33,1.63-.5,2.24-.5.68,0,1.22.22,1.63.65.41.43.61,1.23.61,2.39v3.74c0,.27-.1.5-.31.7-.2.2-.44.3-.71.3h-3.57v-2.25c0-.57-.31-.85-.92-.85-.37,0-.79.07-1.25.2s-.9.29-1.33.47c-.42.18-.81.37-1.15.55-.34.18-.58.32-.71.42v10.93c0,.27-.1.5-.31.7-.2.2-.44.3-.71.3h-2.55c-.27,0-.51-.1-.71-.3-.2-.2-.31-.43-.31-.7v-16.47c0-.27.1-.5.31-.7.2-.2.44-.3.71-.3h3.57v3.24Z"/>
      <path d="M614.99,108.75c.99.32,1.85.77,2.6,1.37.75.6,1.33,1.33,1.76,2.2s.64,1.85.64,2.94v4.49c0,1.1-.21,2.08-.64,2.94-.42.87-1.01,1.6-1.76,2.2-.75.6-1.61,1.06-2.6,1.37-.99.32-2.04.47-3.16.47h-1.53c-1.12,0-2.17-.16-3.16-.47-.99-.32-1.85-.77-2.6-1.37-.75-.6-1.33-1.33-1.76-2.2-.42-.86-.64-1.85-.64-2.94v-4.49c0-1.1.21-2.08.64-2.94s1.01-1.6,1.76-2.2c.75-.6,1.61-1.06,2.6-1.37.99-.32,2.04-.47,3.16-.47h1.53c1.12,0,2.18.16,3.16.47ZM607.7,113.26c-.65.3-.97.9-.97,1.8v4.84c0,.93.33,1.54.99,1.82.66.28,1.45.42,2.37.42h2.14c.95,0,1.72-.16,2.29-.47s.87-.91.87-1.77v-4.84c0-.96-.35-1.58-1.04-1.85-.7-.27-1.54-.4-2.52-.4h-1.63c-1.02,0-1.85.15-2.5.45Z"/>
      <path d="M628.1,111.07c1.09-.73,2.26-1.38,3.52-1.95,1.26-.57,2.45-.85,3.57-.85.88,0,1.65.22,2.29.67s1.14,1.21,1.48,2.27c1.16-.73,2.4-1.41,3.75-2.02,1.34-.62,2.61-.92,3.8-.92s2.12.44,2.88,1.32c.77.88,1.15,2.44,1.15,4.67v11.48c0,.27-.1.5-.31.7-.2.2-.44.3-.71.3h-2.55c-.27,0-.51-.1-.71-.3-.2-.2-.31-.43-.31-.7v-10.63c0-.86-.25-1.46-.74-1.8-.49-.33-1.08-.5-1.76-.5-.71,0-1.44.12-2.19.37-.75.25-1.39.54-1.94.87v11.68c0,.27-.1.5-.31.7-.2.2-.44.3-.71.3h-2.55c-.27,0-.51-.1-.71-.3-.2-.2-.31-.43-.31-.7v-10.63c0-.86-.25-1.46-.74-1.8-.49-.33-1.08-.5-1.76-.5-.71,0-1.44.12-2.19.37-.75.25-1.39.54-1.94.87v11.68c0,.27-.1.5-.31.7-.2.2-.44.3-.71.3h-2.55c-.27,0-.51-.1-.71-.3-.2-.2-.31-.43-.31-.7v-16.47c0-.27.1-.5.31-.7.2-.2.44-.3.71-.3h3.57v2.79Z"/>
      <path d="M156.69,145.67c.9-.8,1.98-1.2,3.24-1.2h5.61c1.73,0,3.02.38,3.85,1.12.83.75,1.25,1.66,1.25,2.72,0,.83-.23,1.69-.69,2.57-.46.88-1.13,1.73-2.01,2.54-.88.81-1.97,1.57-3.26,2.27-1.29.7-2.77,1.28-4.44,1.75.34.5.79.86,1.35,1.07.56.22,1.2.32,1.91.32,1.05,0,2.14-.16,3.26-.47,1.12-.32,2.07-.66,2.85-1.02l1.02,3.59c-1.26.57-2.57,1.04-3.95,1.42-1.38.38-2.8.57-4.26.57-.95,0-1.86-.12-2.73-.37-.87-.25-1.62-.67-2.27-1.25-.65-.58-1.16-1.34-1.53-2.27-.37-.93-.56-2.1-.56-3.49v-6.59c0-1.4.45-2.5,1.35-3.29ZM161.25,153.5c.54-.23,1.1-.55,1.68-.95.58-.4,1.15-.9,1.71-1.5.56-.6,1.03-1.3,1.4-2.1h-6.12v4.99c.34-.07.78-.22,1.33-.45Z"/>
      <path d="M178.79,147.27c1.09-.73,2.26-1.38,3.52-1.95,1.26-.57,2.45-.85,3.57-.85.88,0,1.65.22,2.29.67s1.14,1.21,1.48,2.27c1.16-.73,2.4-1.41,3.75-2.02,1.34-.62,2.61-.92,3.8-.92s2.12.44,2.88,1.32c.77.88,1.15,2.44,1.15,4.67v11.48c0,.27-.1.5-.31.7-.2.2-.44.3-.71.3h-2.55c-.27,0-.51-.1-.71-.3-.2-.2-.31-.43-.31-.7v-10.63c0-.86-.25-1.46-.74-1.8-.49-.33-1.08-.5-1.76-.5-.71,0-1.44.12-2.19.37-.75.25-1.39.54-1.94.87v11.68c0,.27-.1.5-.31.7-.2.2-.44.3-.71.3h-2.55c-.27,0-.51-.1-.71-.3-.2-.2-.31-.43-.31-.7v-10.63c0-.86-.25-1.46-.74-1.8-.49-.33-1.08-.5-1.76-.5-.71,0-1.44.12-2.19.37-.75.25-1.39.54-1.94.87v11.68c0,.27-.1.5-.31.7-.2.2-.44.3-.71.3h-2.55c-.27,0-.51-.1-.71-.3-.2-.2-.31-.43-.31-.7v-16.47c0-.27.1-.5.31-.7.2-.2.44-.3.71-.3h3.57v2.79Z"/>
      <path d="M217.59,144.95c.99.32,1.85.77,2.6,1.37.75.6,1.33,1.33,1.76,2.2s.64,1.85.64,2.94v4.49c0,1.1-.21,2.08-.64,2.94-.42.87-1.01,1.6-1.76,2.2-.75.6-1.61,1.06-2.6,1.37-.99.32-2.04.47-3.16.47h-1.53c-1.12,0-2.17-.16-3.16-.47-.99-.32-1.85-.77-2.6-1.37-.75-.6-1.33-1.33-1.76-2.2-.42-.86-.64-1.85-.64-2.94v-4.49c0-1.1.21-2.08.64-2.94s1.01-1.6,1.76-2.2c.75-.6,1.61-1.06,2.6-1.37.99-.32,2.04-.47,3.16-.47h1.53c1.12,0,2.18.16,3.16.47ZM210.3,149.46c-.65.3-.97.9-.97,1.8v4.84c0,.93.33,1.54.99,1.82.66.28,1.45.42,2.37.42h2.14c.95,0,1.72-.16,2.29-.47s.87-.91.87-1.77v-4.84c0-.96-.35-1.58-1.04-1.85-.7-.27-1.54-.4-2.52-.4h-1.63c-1.02,0-1.85.15-2.5.45Z"/>
      <path d="M230.38,136.79c.2.2.31.43.31.7v3.09h4.74c.27,0,.51.1.71.3.2.2.31.43.31.7v2.74c0,.27-.1.5-.31.7-.2.2-.44.3-.71.3h-4.74v9.18c0,.73.11,1.34.33,1.82s.51.87.87,1.15c.36.28.77.48,1.25.6.48.12.99.17,1.53.17.2,0,.42-.02.64-.05s.43-.05.64-.05l1.02,4.34c-1.22.3-2.36.45-3.42.45s-2.08-.16-2.98-.47c-.9-.32-1.68-.81-2.34-1.47-.66-.67-1.18-1.54-1.55-2.62-.37-1.08-.56-2.37-.56-3.87v-17.01c0-.27.1-.5.31-.7.2-.2.44-.3.71-.3h2.55c.27,0,.51.1.71.3Z"/>
      <path d="M245.07,136.79c.2.2.31.43.31.7v2.25c0,.27-.1.5-.31.7-.2.2-.44.3-.71.3h-2.55c-.27,0-.51-.1-.71-.3-.2-.2-.31-.43-.31-.7v-2.25c0-.27.1-.5.31-.7s.44-.3.71-.3h2.55c.27,0,.51.1.71.3ZM245.07,144.77c.2.2.31.43.31.7v16.47c0,.27-.1.5-.31.7-.2.2-.44.3-.71.3h-2.55c-.27,0-.51-.1-.71-.3-.2-.2-.31-.43-.31-.7v-16.47c0-.27.1-.5.31-.7.2-.2.44-.3.71-.3h2.55c.27,0,.51.1.71.3Z"/>
      <path d="M261.74,144.95c.99.32,1.85.77,2.6,1.37.75.6,1.33,1.33,1.76,2.2s.64,1.85.64,2.94v4.49c0,1.1-.21,2.08-.64,2.94-.42.87-1.01,1.6-1.76,2.2-.75.6-1.61,1.06-2.6,1.37-.99.32-2.04.47-3.16.47h-1.53c-1.12,0-2.17-.16-3.16-.47-.99-.32-1.85-.77-2.6-1.37-.75-.6-1.33-1.33-1.76-2.2-.42-.86-.64-1.85-.64-2.94v-4.49c0-1.1.21-2.08.64-2.94s1.01-1.6,1.76-2.2c.75-.6,1.61-1.06,2.6-1.37.99-.32,2.04-.47,3.16-.47h1.53c1.12,0,2.18.16,3.16.47ZM254.45,149.46c-.65.3-.97.9-.97,1.8v4.84c0,.93.33,1.54.99,1.82.66.28,1.45.42,2.37.42h2.14c.95,0,1.72-.16,2.29-.47s.87-.91.87-1.77v-4.84c0-.96-.35-1.58-1.04-1.85-.7-.27-1.54-.4-2.52-.4h-1.63c-1.02,0-1.85.15-2.5.45Z"/>
      <path d="M274.84,146.72c.95-.67,1.99-1.21,3.11-1.62,1.12-.42,2.23-.62,3.31-.62.71,0,1.39.12,2.04.35.65.23,1.21.62,1.68,1.15s.86,1.24,1.15,2.12c.29.88.43,1.95.43,3.22v10.63c0,.27-.1.5-.31.7-.2.2-.44.3-.71.3h-2.55c-.27,0-.51-.1-.71-.3-.2-.2-.31-.43-.31-.7v-10.58c0-.96-.31-1.64-.94-2.02s-1.38-.57-2.27-.57c-.71,0-1.43.09-2.14.27-.71.18-1.31.41-1.78.67v12.22c0,.27-.1.5-.31.7-.2.2-.44.3-.71.3h-2.55c-.27,0-.51-.1-.71-.3-.2-.2-.31-.43-.31-.7v-16.47c0-.27.1-.5.31-.7.2-.2.44-.3.71-.3h3.57v2.25Z"/>
      <path d="M290.88,154.85c.39-.67,1.02-1.25,1.89-1.75.87-.5,1.98-.9,3.34-1.2,1.36-.3,2.99-.45,4.89-.45,0-1.06-.33-1.8-.99-2.22s-1.54-.62-2.62-.62c-.99,0-2.04.14-3.16.42-1.12.28-2.09.61-2.91.97l-1.02-3.54c1.29-.57,2.63-1.04,4-1.42,1.38-.38,2.78-.57,4.21-.57.95,0,1.86.12,2.73.38.87.25,1.62.66,2.27,1.22s1.16,1.31,1.53,2.25c.37.93.56,2.09.56,3.49v10.13c0,.27-.1.5-.31.7-.2.2-.44.3-.71.3h-10.2c-1.12,0-2.08-.39-2.88-1.17-.8-.78-1.2-1.72-1.2-2.82v-2c0-.73.2-1.43.59-2.1ZM301,154.95c-.51,0-1.11.03-1.81.08-.7.05-1.37.16-2.01.32-.65.17-1.19.42-1.63.75-.44.33-.66.78-.66,1.35v.75h6.12v-3.24Z"/>
      <path d="M313.94,136.79c.2.2.31.43.31.7v24.45c0,.27-.1.5-.31.7-.2.2-.44.3-.71.3h-2.55c-.27,0-.51-.1-.71-.3-.2-.2-.31-.43-.31-.7v-24.45c0-.27.1-.5.31-.7.2-.2.44-.3.71-.3h2.55c.27,0,.51.1.71.3Z"/>
      <path d="M328.73,136.79c.2.2.31.43.31.7v8.53c.88-.47,1.83-.85,2.86-1.15,1.02-.3,2-.45,2.96-.45.82,0,1.58.11,2.29.32.71.22,1.33.62,1.86,1.2.53.58.95,1.36,1.27,2.32.32.96.48,2.2.48,3.69v9.98c0,.27-.1.5-.31.7-.2.2-.44.3-.71.3h-2.55c-.27,0-.51-.1-.71-.3-.2-.2-.31-.43-.31-.7v-10.93c0-.83-.35-1.41-1.05-1.75-.7-.33-1.42-.5-2.17-.5s-1.43.11-2.14.32c-.71.22-1.31.49-1.78.82v12.02c0,.27-.1.5-.31.7-.2.2-.44.3-.71.3h-2.55c-.27,0-.51-.1-.71-.3-.2-.2-.31-.43-.31-.7v-24.45c0-.27.1-.5.31-.7s.44-.3.71-.3h2.55c.27,0,.51.1.71.3Z"/>
      <path d="M344.41,154.85c.39-.67,1.02-1.25,1.89-1.75.87-.5,1.98-.9,3.34-1.2,1.36-.3,2.99-.45,4.89-.45,0-1.06-.33-1.8-.99-2.22s-1.54-.62-2.62-.62c-.99,0-2.04.14-3.16.42-1.12.28-2.09.61-2.91.97l-1.02-3.54c1.29-.57,2.63-1.04,4-1.42,1.38-.38,2.78-.57,4.21-.57.95,0,1.86.12,2.73.38.87.25,1.62.66,2.27,1.22s1.16,1.31,1.53,2.25c.37.93.56,2.09.56,3.49v10.13c0,.27-.1.5-.31.7-.2.2-.44.3-.71.3h-10.2c-1.12,0-2.08-.39-2.88-1.17-.8-.78-1.2-1.72-1.2-2.82v-2c0-.73.2-1.43.59-2.1ZM354.53,154.95c-.51,0-1.11.03-1.81.08-.7.05-1.37.16-2.01.32-.65.17-1.19.42-1.63.75-.44.33-.66.78-.66,1.35v.75h6.12v-3.24Z"/>
      <path d="M367.78,147.72c-.07.03.19-.11.76-.42.58-.32,1.28-.67,2.12-1.05s1.69-.74,2.57-1.07c.88-.33,1.63-.5,2.24-.5.68,0,1.22.22,1.63.65.41.43.61,1.23.61,2.39v3.74c0,.27-.1.5-.31.7-.2.2-.44.3-.71.3h-3.57v-2.25c0-.57-.31-.85-.92-.85-.37,0-.79.07-1.25.2-.46.13-.9.29-1.33.47-.42.18-.81.37-1.15.55-.34.18-.58.32-.71.42v10.93c0,.27-.1.5-.31.7-.2.2-.44.3-.71.3h-2.55c-.27,0-.51-.1-.71-.3-.2-.2-.31-.43-.31-.7v-16.47c0-.27.1-.5.31-.7.2-.2.44-.3.71-.3h3.57v3.24Z"/>
      <path d="M386.03,147.27c1.09-.73,2.26-1.38,3.52-1.95s2.45-.85,3.57-.85c.88,0,1.65.22,2.29.67.65.45,1.14,1.21,1.48,2.27,1.16-.73,2.41-1.41,3.75-2.02,1.34-.62,2.61-.92,3.8-.92s2.12.44,2.88,1.32c.76.88,1.15,2.44,1.15,4.67v11.48c0,.27-.1.5-.31.7-.2.2-.44.3-.71.3h-2.55c-.27,0-.51-.1-.71-.3-.2-.2-.31-.43-.31-.7v-10.63c0-.86-.25-1.46-.74-1.8-.49-.33-1.08-.5-1.76-.5-.71,0-1.44.12-2.19.37-.75.25-1.39.54-1.94.87v11.68c0,.27-.1.5-.31.7-.2.2-.44.3-.71.3h-2.55c-.27,0-.51-.1-.71-.3-.2-.2-.31-.43-.31-.7v-10.63c0-.86-.25-1.46-.74-1.8-.49-.33-1.08-.5-1.76-.5-.71,0-1.44.12-2.19.37-.75.25-1.39.54-1.94.87v11.68c0,.27-.1.5-.31.7-.2.2-.44.3-.71.3h-2.55c-.27,0-.51-.1-.71-.3-.2-.2-.31-.43-.31-.7v-16.47c0-.27.1-.5.31-.7.2-.2.44-.3.71-.3h3.57v2.79Z"/>
      <path d="M414.89,162.64c-.2-.2-.31-.43-.31-.7v-3.74c0-.27.1-.5.31-.7.2-.2.44-.3.71-.3h3.82c.27,0,.51.1.71.3.2.2.31.43.31.7v3.74c0,.27-.1.5-.31.7-.2.2-.44.3-.71.3h-3.82c-.27,0-.51-.1-.71-.3Z"/>
    </g>
    <g>
      <path d="M164.73,243.61c0,.24-.09.45-.27.63-.18.18-.4.27-.64.27h-2.29c-.24,0-.46-.09-.64-.27-.18-.18-.27-.39-.27-.63v-18.96h-5.48c-.24,0-.46-.09-.64-.27-.18-.18-.27-.39-.27-.63v-2.06c0-.24.09-.45.27-.63.18-.18.4-.27.64-.27h15.08c.24,0,.46.09.64.27.18.18.27.39.27.63v2.06c0,.24-.09.45-.27.63-.18.18-.4.27-.64.27h-5.48v18.96Z"/>
      <path d="M171.42,229.03c.81-.71,1.77-1.07,2.9-1.07h5.03c1.55,0,2.7.34,3.45,1.01.75.67,1.12,1.48,1.12,2.44,0,.75-.21,1.51-.62,2.3s-1.01,1.55-1.81,2.28c-.79.73-1.77,1.41-2.92,2.03-1.16.63-2.48,1.15-3.98,1.57.3.45.71.77,1.21.96s1.07.29,1.71.29c.94,0,1.92-.14,2.92-.42,1.01-.28,1.86-.59,2.56-.92l.91,3.22c-1.13.51-2.31.93-3.54,1.27-1.23.34-2.51.51-3.82.51-.85,0-1.67-.11-2.44-.33-.78-.22-1.46-.6-2.03-1.12-.58-.52-1.04-1.2-1.37-2.04-.33-.83-.5-1.88-.5-3.13v-5.9c0-1.25.4-2.24,1.21-2.95ZM175.51,236.05c.49-.21.99-.49,1.51-.85.52-.36,1.03-.8,1.53-1.34.5-.54.92-1.16,1.26-1.88h-5.48v4.47c.3-.06.7-.19,1.19-.4Z"/>
      <path d="M187.18,237.25c.35-.6.91-1.12,1.69-1.57.78-.45,1.78-.8,2.99-1.07,1.22-.27,2.68-.4,4.39-.4,0-.95-.3-1.62-.89-1.99-.59-.37-1.38-.56-2.35-.56-.88,0-1.83.13-2.83.38-1.01.25-1.87.54-2.6.87l-.91-3.18c1.16-.51,2.35-.93,3.59-1.27,1.23-.34,2.49-.51,3.77-.51.85,0,1.67.11,2.45.34.78.22,1.45.59,2.03,1.1s1.04,1.18,1.37,2.01c.33.83.5,1.88.5,3.13v9.08c0,.24-.09.45-.27.63s-.4.27-.64.27h-9.14c-1,0-1.87-.35-2.58-1.05-.72-.7-1.07-1.54-1.07-2.53v-1.79c0-.66.17-1.28.53-1.88ZM196.26,237.34c-.46,0-1,.02-1.62.07-.62.04-1.23.14-1.81.29s-1.07.37-1.46.67c-.4.3-.59.7-.59,1.21v.67h5.48v-2.91Z"/>
      <path d="M217.73,238.24c0,.98-.19,1.86-.57,2.64-.38.78-.91,1.43-1.58,1.97-.67.54-1.45.95-2.33,1.23-.88.28-1.83.42-2.83.42h.46c-1,0-1.95-.14-2.83-.42-.88-.28-1.66-.69-2.33-1.23-.67-.54-1.2-1.19-1.58-1.97-.38-.77-.57-1.65-.57-2.64v-4.02c0-.98.19-1.86.57-2.64s.91-1.43,1.58-1.97c.67-.54,1.45-.95,2.33-1.23.88-.28,1.83-.42,2.83-.42h-.46c1.01,0,1.95.14,2.83.42.88.28,1.66.69,2.33,1.23.67.54,1.2,1.19,1.58,1.97s.57,1.65.57,2.64v.45h-4.11v-.63c0-.87-.31-1.42-.94-1.66-.62-.24-1.38-.36-2.26-.36h.37c-.91,0-1.66.13-2.24.4-.58.27-.87.8-.87,1.61v4.34c0,.83.34,1.38,1.01,1.63.67.25,1.42.38,2.24.38h-.59c.85,0,1.61-.14,2.28-.42.67-.28,1.01-.81,1.01-1.59v-.58h4.11v.45Z"/>
      <path d="M224.77,221.06c.18.18.27.39.27.63v7.65c.79-.42,1.65-.76,2.56-1.03.91-.27,1.8-.4,2.65-.4.73,0,1.42.1,2.06.29s1.2.55,1.67,1.07c.47.52.85,1.21,1.14,2.08.29.86.43,1.97.43,3.31v8.94c0,.24-.09.45-.27.63s-.4.27-.64.27h-2.29c-.24,0-.46-.09-.64-.27-.18-.18-.27-.39-.27-.63v-9.79c0-.75-.31-1.27-.94-1.57-.62-.3-1.27-.45-1.94-.45s-1.28.1-1.92.29c-.64.19-1.17.44-1.6.74v10.78c0,.24-.09.45-.27.63-.18.18-.4.27-.64.27h-2.28c-.24,0-.46-.09-.64-.27-.18-.18-.27-.39-.27-.63v-21.91c0-.24.09-.45.27-.63.18-.18.4-.27.64-.27h2.28c.24,0,.46.09.64.27Z"/>
      <path d="M242.59,221.06c.18.18.27.39.27.63v2.01c0,.24-.09.45-.27.63-.18.18-.4.27-.64.27h-2.28c-.24,0-.46-.09-.64-.27-.18-.18-.27-.39-.27-.63v-2.01c0-.24.09-.45.27-.63.18-.18.4-.27.64-.27h2.28c.24,0,.46.09.64.27ZM242.59,228.22c.18.18.27.39.27.63v14.76c0,.24-.09.45-.27.63-.18.18-.4.27-.64.27h-2.28c-.24,0-.46-.09-.64-.27-.18-.18-.27-.39-.27-.63v-14.76c0-.24.09-.45.27-.63.18-.18.4-.27.64-.27h2.28c.24,0,.46.09.64.27Z"/>
      <path d="M250.63,229.96c.85-.6,1.78-1.08,2.79-1.45,1.01-.37,2-.56,2.97-.56.64,0,1.25.1,1.83.31s1.08.55,1.51,1.03c.43.48.77,1.11,1.03,1.9.26.79.39,1.75.39,2.88v9.53c0,.24-.09.45-.27.63-.18.18-.4.27-.64.27h-2.29c-.24,0-.46-.09-.64-.27s-.27-.39-.27-.63v-9.48c0-.86-.28-1.47-.84-1.81-.56-.34-1.24-.51-2.03-.51-.64,0-1.28.08-1.92.25-.64.16-1.17.37-1.6.6v10.96c0,.24-.09.45-.27.63s-.4.27-.64.27h-2.29c-.24,0-.46-.09-.64-.27s-.27-.39-.27-.63v-14.76c0-.24.09-.45.27-.63s.4-.27.64-.27h3.2v2.01Z"/>
      <path d="M265.67,243.34c-.79-.78-1.19-1.73-1.19-2.86v-4.92c0-1.31.2-2.45.59-3.4s.93-1.74,1.6-2.37,1.45-1.09,2.33-1.39c.88-.3,1.83-.45,2.83-.45,1.16,0,2.32.19,3.47.56,1.16.37,2.27.93,3.34,1.68v14.31c0,2.42-.61,4.21-1.83,5.39s-2.88,1.77-4.98,1.77c-.97,0-1.97-.1-2.99-.31s-2.17-.52-3.45-.94l1.37-3.58c.67.27,1.4.51,2.19.72s1.54.31,2.24.31c.94,0,1.74-.23,2.38-.69s.96-1.35.96-2.66h-5.94c-1.16,0-2.13-.39-2.92-1.16ZM274.53,232.42c-.79-.3-1.66-.45-2.6-.45-.88,0-1.66.28-2.33.85s-1.01,1.48-1.01,2.73v4.92h5.94v-8.05Z"/>
      <path d="M301.13,244.5c-.33,0-.61-.09-.82-.27-.21-.18-.43-.39-.64-.63l-7.77-7.92v7.92c0,.24-.09.45-.27.63-.18.18-.4.27-.64.27h-2.28c-.24,0-.46-.09-.64-.27-.18-.18-.27-.39-.27-.63v-21.91c0-.24.09-.45.27-.63.18-.18.4-.27.64-.27h2.28c.24,0,.46.09.64.27.18.18.27.39.27.63v11.9l6.95-6.98c.21-.24.46-.45.73-.63s.53-.27.78-.27h5.12l-8.82,8.95,9.69,9.84h-5.21Z"/>
      <path d="M312,221.06c.18.18.27.39.27.63v2.01c0,.24-.09.45-.27.63-.18.18-.4.27-.64.27h-2.29c-.24,0-.46-.09-.64-.27-.18-.18-.27-.39-.27-.63v-2.01c0-.24.09-.45.27-.63.18-.18.4-.27.64-.27h2.29c.24,0,.46.09.64.27ZM312,228.22c.18.18.27.39.27.63v14.76c0,.24-.09.45-.27.63s-.4.27-.64.27h-2.29c-.24,0-.46-.09-.64-.27s-.27-.39-.27-.63v-14.76c0-.24.09-.45.27-.63s.4-.27.64-.27h2.29c.24,0,.46.09.64.27Z"/>
      <path d="M326.44,221.69c0-.24.09-.45.27-.63.18-.18.4-.27.64-.27h2.29c.24,0,.46.09.64.27.18.18.27.39.27.63v21.91c0,.24-.09.45-.27.63s-.4.27-.64.27h-5.85c-1.34,0-2.53-.24-3.56-.72-1.04-.48-1.9-1.1-2.61-1.86-.7-.76-1.23-1.62-1.6-2.59-.37-.97-.55-1.96-.55-2.97,0-.92.16-1.83.48-2.71.32-.88.82-1.65,1.51-2.33s1.55-1.21,2.61-1.63c1.05-.42,2.29-.63,3.72-.63h2.65v-7.38ZM320.59,234.1c-.67.67-1.01,1.42-1.01,2.26,0,.51.09,1.01.27,1.5s.45.93.8,1.32.78.7,1.28.94c.5.24,1.09.36,1.76.36h2.74v-7.38h-2.74c-1.4,0-2.44.33-3.11,1.01Z"/>
      <path d="M344.03,232.27c-1.16-.25-2.32-.38-3.47-.38-.7,0-1.29.06-1.78.18-.49.12-.73.33-.73.63s.29.55.87.76,1.3.42,2.17.65,1.81.48,2.81.76c1.01.28,1.94.63,2.81,1.03s1.59.9,2.17,1.5c.58.6.87,1.33.87,2.19,0,.92-.19,1.7-.57,2.33s-.9,1.13-1.55,1.52-1.42.66-2.29.83-1.77.25-2.72.25c-1.55,0-3.11-.17-4.66-.51-1.55-.34-2.91-.77-4.07-1.27l1.42-3.53c.37.21.85.41,1.44.6.59.19,1.24.37,1.94.51.7.15,1.42.27,2.15.36.73.09,1.42.13,2.06.13.88,0,1.57-.08,2.06-.25.49-.16.73-.37.73-.6,0-.3-.29-.56-.87-.78s-1.3-.46-2.17-.71c-.87-.25-1.81-.53-2.83-.83-1.02-.3-1.97-.67-2.83-1.12s-1.59-.98-2.17-1.59c-.58-.61-.87-1.36-.87-2.26s.21-1.6.62-2.19c.41-.6.96-1.08,1.65-1.45.69-.37,1.49-.64,2.42-.8s1.9-.25,2.9-.25c1.28,0,2.42.12,3.43.36,1.01.24,2.12.57,3.34.98l-.78,3.94c-1.16-.39-2.32-.71-3.47-.96Z"/>
      <path d="M362.45,221.06c.18.18.27.39.27.63v2.77h4.25c.24,0,.46.09.64.27s.27.39.27.63v2.46c0,.24-.09.45-.27.63s-.4.27-.64.27h-4.25v8.23c0,.66.1,1.2.3,1.63s.46.78.78,1.03c.32.25.69.43,1.12.54s.88.16,1.37.16c.18,0,.37-.01.57-.04.2-.03.39-.04.57-.04l.91,3.89c-1.1.27-2.12.4-3.06.4s-1.87-.14-2.67-.42-1.51-.72-2.1-1.32c-.59-.6-1.06-1.38-1.39-2.35-.33-.97-.5-2.12-.5-3.47v-15.25c0-.24.09-.45.27-.63.18-.18.4-.27.64-.27h2.29c.24,0,.46.09.64.27Z"/>
      <path d="M382.79,228.38c.88.28,1.66.69,2.33,1.23.67.54,1.2,1.19,1.58,1.97s.57,1.65.57,2.64v4.02c0,.98-.19,1.86-.57,2.64-.38.78-.91,1.43-1.58,1.97-.67.54-1.45.95-2.33,1.23-.88.28-1.83.42-2.83.42h-1.37c-1,0-1.95-.14-2.83-.42s-1.66-.69-2.33-1.23c-.67-.54-1.2-1.19-1.58-1.97-.38-.77-.57-1.65-.57-2.64v-4.02c0-.98.19-1.86.57-2.64s.91-1.43,1.58-1.97c.67-.54,1.45-.95,2.33-1.23s1.83-.42,2.83-.42h1.37c1.01,0,1.95.14,2.83.42ZM376.25,232.42c-.58.27-.87.8-.87,1.61v4.34c0,.83.3,1.38.89,1.63.59.25,1.3.38,2.12.38h1.92c.85,0,1.54-.14,2.06-.42.52-.28.78-.81.78-1.59v-4.34c0-.87-.31-1.42-.94-1.66-.62-.24-1.38-.36-2.26-.36h-1.46c-.91,0-1.66.13-2.24.4Z"/>
      <path d="M406.91,228.38c.88.28,1.66.69,2.33,1.23.67.54,1.2,1.19,1.58,1.97s.57,1.65.57,2.64v4.02c0,.98-.19,1.86-.57,2.64-.38.78-.91,1.43-1.58,1.97-.67.54-1.45.95-2.33,1.23-.88.28-1.83.42-2.83.42h-1.37c-1,0-1.95-.14-2.83-.42s-1.66-.69-2.33-1.23c-.67-.54-1.2-1.19-1.58-1.97-.38-.77-.57-1.65-.57-2.64v-4.02c0-.98.19-1.86.57-2.64s.91-1.43,1.58-1.97c.67-.54,1.45-.95,2.33-1.23s1.83-.42,2.83-.42h1.37c1.01,0,1.95.14,2.83.42ZM400.38,232.42c-.58.27-.87.8-.87,1.61v4.34c0,.83.3,1.38.89,1.63.59.25,1.3.38,2.12.38h1.92c.85,0,1.54-.14,2.06-.42.52-.28.78-.81.78-1.59v-4.34c0-.87-.31-1.42-.94-1.66-.62-.24-1.38-.36-2.26-.36h-1.46c-.91,0-1.66.13-2.24.4Z"/>
      <path d="M429.39,228.22c.15.18.26.39.32.63l2.7,11.18,2.97-11.18c.06-.24.17-.45.32-.63s.35-.27.59-.27h3.57l-4.11,15.65c-.06.24-.17.45-.32.63s-.35.27-.59.27h-5.26c-.24,0-.44-.09-.59-.27s-.26-.39-.32-.63l-1.96-8.23-1.96,8.23c-.06.24-.17.45-.32.63s-.35.27-.59.27h-5.26c-.24,0-.44-.09-.59-.27s-.26-.39-.32-.63l-4.11-15.65h3.56c.24,0,.44.09.59.27s.26.39.32.63l2.92,11.18,2.7-11.18c.06-.24.17-.45.32-.63s.35-.27.59-.27h4.25c.24,0,.44.09.59.27Z"/>
      <path d="M446.58,229.96c.85-.6,1.78-1.08,2.79-1.45,1.01-.37,2-.56,2.97-.56.64,0,1.25.1,1.83.31s1.08.55,1.51,1.03c.43.48.77,1.11,1.03,1.9.26.79.39,1.75.39,2.88v9.53c0,.24-.09.45-.27.63-.18.18-.4.27-.64.27h-2.29c-.24,0-.46-.09-.64-.27s-.27-.39-.27-.63v-9.48c0-.86-.28-1.47-.84-1.81-.56-.34-1.24-.51-2.03-.51-.64,0-1.28.08-1.92.25-.64.16-1.17.37-1.6.6v10.96c0,.24-.09.45-.27.63s-.4.27-.64.27h-2.29c-.24,0-.46-.09-.64-.27s-.27-.39-.27-.63v-14.76c0-.24.09-.45.27-.63s.4-.27.64-.27h3.2v2.01Z"/>
      <path d="M470.2,221.06c.18.18.27.39.27.63v2.77h4.25c.24,0,.46.09.64.27s.27.39.27.63v2.46c0,.24-.09.45-.27.63s-.4.27-.64.27h-4.25v8.23c0,.66.1,1.2.3,1.63s.46.78.78,1.03c.32.25.69.43,1.12.54s.88.16,1.37.16c.18,0,.37-.01.57-.04.2-.03.39-.04.57-.04l.91,3.89c-1.1.27-2.12.4-3.06.4s-1.87-.14-2.67-.42-1.51-.72-2.1-1.32c-.59-.6-1.06-1.38-1.39-2.35-.33-.97-.5-2.12-.5-3.47v-15.25c0-.24.09-.45.27-.63.18-.18.4-.27.64-.27h2.29c.24,0,.46.09.64.27Z"/>
      <path d="M483.36,221.06c.18.18.27.39.27.63v7.65c.79-.42,1.65-.76,2.56-1.03.91-.27,1.8-.4,2.65-.4.73,0,1.42.1,2.06.29.64.19,1.2.55,1.67,1.07.47.52.85,1.21,1.14,2.08.29.86.43,1.97.43,3.31v8.94c0,.24-.09.45-.27.63-.18.18-.4.27-.64.27h-2.29c-.24,0-.46-.09-.64-.27s-.27-.39-.27-.63v-9.79c0-.75-.31-1.27-.94-1.57-.62-.3-1.27-.45-1.94-.45s-1.28.1-1.92.29c-.64.19-1.17.44-1.6.74v10.78c0,.24-.09.45-.27.63s-.4.27-.64.27h-2.29c-.24,0-.46-.09-.64-.27s-.27-.39-.27-.63v-21.91c0-.24.09-.45.27-.63.18-.18.4-.27.64-.27h2.29c.24,0,.46.09.64.27Z"/>
      <path d="M498.55,229.03c.81-.71,1.78-1.07,2.9-1.07h5.03c1.55,0,2.7.34,3.45,1.01.75.67,1.12,1.48,1.12,2.44,0,.75-.21,1.51-.62,2.3-.41.79-1.01,1.55-1.8,2.28s-1.77,1.41-2.92,2.03c-1.16.63-2.48,1.15-3.98,1.57.3.45.71.77,1.21.96s1.07.29,1.71.29c.94,0,1.92-.14,2.92-.42,1-.28,1.86-.59,2.56-.92l.91,3.22c-1.13.51-2.31.93-3.54,1.27-1.23.34-2.51.51-3.82.51-.85,0-1.67-.11-2.45-.33-.78-.22-1.45-.6-2.03-1.12-.58-.52-1.04-1.2-1.37-2.04s-.5-1.88-.5-3.13v-5.9c0-1.25.4-2.24,1.21-2.95ZM502.64,236.05c.49-.21.99-.49,1.51-.85.52-.36,1.03-.8,1.53-1.34.5-.54.92-1.16,1.26-1.88h-5.48v4.47c.3-.06.7-.19,1.19-.4Z"/>
      <path d="M518.09,221.06c.18.18.27.39.27.63v2.01c0,.24-.09.45-.27.63-.18.18-.4.27-.64.27h-2.29c-.24,0-.46-.09-.64-.27-.18-.18-.27-.39-.27-.63v-2.01c0-.24.09-.45.27-.63.18-.18.4-.27.64-.27h2.29c.24,0,.46.09.64.27ZM518.09,228.22c.18.18.27.39.27.63v14.76c0,.24-.09.45-.27.63s-.4.27-.64.27h-2.29c-.24,0-.46-.09-.64-.27s-.27-.39-.27-.63v-14.76c0-.24.09-.45.27-.63s.4-.27.64-.27h2.29c.24,0,.46.09.64.27Z"/>
      <path d="M526.13,230.86c-.06.03.17-.1.69-.38.52-.28,1.15-.6,1.9-.94s1.52-.66,2.31-.96c.79-.3,1.46-.45,2.01-.45.61,0,1.1.19,1.46.58.37.39.55,1.1.55,2.15v3.35c0,.24-.09.45-.27.63-.18.18-.4.27-.64.27h-3.2v-2.01c0-.51-.27-.76-.82-.76-.33,0-.71.06-1.12.18-.41.12-.81.26-1.19.42-.38.16-.72.33-1.03.49s-.52.29-.64.38v9.79c0,.24-.09.45-.27.63s-.4.27-.64.27h-2.29c-.24,0-.46-.09-.64-.27s-.27-.39-.27-.63v-14.76c0-.24.09-.45.27-.63s.4-.27.64-.27h3.2v2.91Z"/>
      <path d="M547.52,244.23c-.15-.18-.26-.39-.32-.63l-4.34-15.65h3.38c.24,0,.44.09.59.27s.26.39.32.63l3.25,11.45,3.2-11.45c.06-.24.17-.45.32-.63s.35-.27.59-.27h3.43l-4.39,15.65c-.06.24-.17.45-.32.63s-.35.27-.59.27h-4.52c-.24,0-.44-.09-.59-.27Z"/>
      <path d="M571.55,228.38c.88.28,1.66.69,2.33,1.23.67.54,1.2,1.19,1.58,1.97s.57,1.65.57,2.64v4.02c0,.98-.19,1.86-.57,2.64-.38.78-.91,1.43-1.58,1.97-.67.54-1.45.95-2.33,1.23-.88.28-1.83.42-2.83.42h-1.37c-1,0-1.95-.14-2.83-.42s-1.66-.69-2.33-1.23c-.67-.54-1.2-1.19-1.58-1.97-.38-.77-.57-1.65-.57-2.64v-4.02c0-.98.19-1.86.57-2.64s.91-1.43,1.58-1.97c.67-.54,1.45-.95,2.33-1.23s1.83-.42,2.83-.42h1.37c1.01,0,1.95.14,2.83.42ZM565.02,232.42c-.58.27-.87.8-.87,1.61v4.34c0,.83.3,1.38.89,1.63.59.25,1.3.38,2.12.38h1.92c.85,0,1.54-.14,2.06-.42.52-.28.78-.81.78-1.59v-4.34c0-.87-.31-1.42-.94-1.66-.62-.24-1.38-.36-2.26-.36h-1.46c-.91,0-1.66.13-2.24.4Z"/>
      <path d="M583.02,221.06c.18.18.27.39.27.63v2.01c0,.24-.09.45-.27.63-.18.18-.4.27-.64.27h-2.28c-.24,0-.46-.09-.64-.27-.18-.18-.27-.39-.27-.63v-2.01c0-.24.09-.45.27-.63.18-.18.4-.27.64-.27h2.28c.24,0,.46.09.64.27ZM583.02,228.22c.18.18.27.39.27.63v14.76c0,.24-.09.45-.27.63-.18.18-.4.27-.64.27h-2.28c-.24,0-.46-.09-.64-.27-.18-.18-.27-.39-.27-.63v-14.76c0-.24.09-.45.27-.63.18-.18.4-.27.64-.27h2.28c.24,0,.46.09.64.27Z"/>
      <path d="M600.66,238.24c0,.98-.19,1.86-.57,2.64-.38.78-.91,1.43-1.58,1.97-.67.54-1.45.95-2.33,1.23-.88.28-1.83.42-2.83.42h.46c-1,0-1.95-.14-2.83-.42-.88-.28-1.66-.69-2.33-1.23-.67-.54-1.2-1.19-1.58-1.97-.38-.77-.57-1.65-.57-2.64v-4.02c0-.98.19-1.86.57-2.64s.91-1.43,1.58-1.97c.67-.54,1.45-.95,2.33-1.23.88-.28,1.83-.42,2.83-.42h-.46c1.01,0,1.95.14,2.83.42.88.28,1.66.69,2.33,1.23.67.54,1.2,1.19,1.58,1.97s.57,1.65.57,2.64v.45h-4.11v-.63c0-.87-.31-1.42-.94-1.66-.62-.24-1.38-.36-2.26-.36h.37c-.91,0-1.66.13-2.24.4-.58.27-.87.8-.87,1.61v4.34c0,.83.34,1.38,1.01,1.63.67.25,1.42.38,2.24.38h-.59c.85,0,1.61-.14,2.28-.42.67-.28,1.01-.81,1.01-1.59v-.58h4.11v.45Z"/>
      <path d="M605.07,229.03c.81-.71,1.77-1.07,2.9-1.07h5.03c1.55,0,2.7.34,3.45,1.01.75.67,1.12,1.48,1.12,2.44,0,.75-.21,1.51-.62,2.3s-1.01,1.55-1.81,2.28c-.79.73-1.77,1.41-2.92,2.03-1.16.63-2.48,1.15-3.98,1.57.3.45.71.77,1.21.96s1.07.29,1.71.29c.94,0,1.92-.14,2.92-.42,1.01-.28,1.86-.59,2.56-.92l.91,3.22c-1.13.51-2.31.93-3.54,1.27-1.23.34-2.51.51-3.82.51-.85,0-1.67-.11-2.44-.33-.78-.22-1.46-.6-2.03-1.12-.58-.52-1.04-1.2-1.37-2.04-.33-.83-.5-1.88-.5-3.13v-5.9c0-1.25.4-2.24,1.21-2.95ZM609.16,236.05c.49-.21.99-.49,1.51-.85.52-.36,1.03-.8,1.53-1.34.5-.54.92-1.16,1.26-1.88h-5.48v4.47c.3-.06.7-.19,1.19-.4Z"/>
      <path d="M630.59,232.27c-1.16-.25-2.32-.38-3.47-.38-.7,0-1.29.06-1.78.18-.49.12-.73.33-.73.63s.29.55.87.76c.58.21,1.3.42,2.17.65.87.22,1.8.48,2.81.76,1,.28,1.94.63,2.81,1.03.87.4,1.59.9,2.17,1.5.58.6.87,1.33.87,2.19,0,.92-.19,1.7-.57,2.33s-.9,1.13-1.55,1.52c-.66.39-1.42.66-2.29.83s-1.78.25-2.72.25c-1.55,0-3.11-.17-4.66-.51s-2.91-.77-4.07-1.27l1.42-3.53c.37.21.84.41,1.44.6.59.19,1.24.37,1.94.51.7.15,1.42.27,2.15.36.73.09,1.42.13,2.06.13.88,0,1.57-.08,2.06-.25s.73-.37.73-.6c0-.3-.29-.56-.87-.78-.58-.22-1.3-.46-2.17-.71-.87-.25-1.81-.53-2.83-.83-1.02-.3-1.96-.67-2.83-1.12s-1.59-.98-2.17-1.59c-.58-.61-.87-1.36-.87-2.26s.21-1.6.62-2.19c.41-.6.96-1.08,1.64-1.45.69-.37,1.49-.64,2.42-.8.93-.16,1.9-.25,2.9-.25,1.28,0,2.42.12,3.43.36,1,.24,2.12.57,3.34.98l-.78,3.94c-1.16-.39-2.32-.71-3.47-.96Z"/>
      <path d="M155.2,274.83c.35-.6.91-1.12,1.69-1.57.78-.45,1.77-.8,2.99-1.07s2.68-.4,4.39-.4c0-.95-.3-1.62-.89-1.99-.59-.37-1.38-.56-2.35-.56-.88,0-1.83.13-2.83.38-1.01.25-1.87.54-2.61.87l-.91-3.18c1.16-.51,2.35-.93,3.59-1.27,1.23-.34,2.49-.51,3.77-.51.85,0,1.67.11,2.45.34.78.22,1.46.59,2.03,1.1.58.51,1.04,1.18,1.37,2.01.34.83.5,1.88.5,3.13v9.08c0,.24-.09.45-.27.63-.18.18-.4.27-.64.27h-9.14c-1.01,0-1.87-.35-2.58-1.05-.72-.7-1.07-1.54-1.07-2.53v-1.79c0-.66.18-1.28.53-1.88ZM164.27,274.92c-.46,0-1,.02-1.62.07-.62.04-1.23.14-1.8.29-.58.15-1.07.37-1.46.67-.4.3-.59.7-.59,1.21v.67h5.48v-2.91Z"/>
      <path d="M176.15,267.54c.85-.6,1.78-1.08,2.79-1.45,1.01-.37,2-.56,2.97-.56.64,0,1.25.1,1.83.31s1.08.55,1.51,1.03c.43.48.77,1.11,1.03,1.9.26.79.39,1.75.39,2.88v9.53c0,.24-.09.45-.27.63-.18.18-.4.27-.64.27h-2.29c-.24,0-.46-.09-.64-.27s-.27-.39-.27-.63v-9.48c0-.86-.28-1.47-.84-1.81-.56-.34-1.24-.51-2.03-.51-.64,0-1.28.08-1.92.25-.64.16-1.17.37-1.6.6v10.96c0,.24-.09.45-.27.63s-.4.27-.64.27h-2.29c-.24,0-.46-.09-.64-.27s-.27-.39-.27-.63v-14.76c0-.24.09-.45.27-.63s.4-.27.64-.27h3.2v2.01Z"/>
      <path d="M200.96,259.26c0-.24.09-.45.27-.63.18-.18.4-.27.64-.27h2.29c.24,0,.46.09.64.27.18.18.27.39.27.63v21.91c0,.24-.09.45-.27.63s-.4.27-.64.27h-5.85c-1.34,0-2.53-.24-3.56-.72-1.04-.48-1.9-1.1-2.61-1.86-.7-.76-1.23-1.62-1.6-2.59-.37-.97-.55-1.96-.55-2.97,0-.92.16-1.83.48-2.71.32-.88.82-1.65,1.51-2.33s1.55-1.21,2.61-1.63c1.05-.42,2.29-.63,3.72-.63h2.65v-7.38ZM195.11,271.67c-.67.67-1.01,1.42-1.01,2.26,0,.51.09,1.01.27,1.5s.45.93.8,1.32.78.7,1.28.94c.5.24,1.09.36,1.76.36h2.74v-7.38h-2.74c-1.4,0-2.44.33-3.11,1.01Z"/>
      <path d="M224.04,269.84c-1.16-.25-2.32-.38-3.47-.38-.7,0-1.29.06-1.78.18-.49.12-.73.33-.73.63s.29.55.87.76,1.3.42,2.17.65,1.81.48,2.81.76c1.01.28,1.94.63,2.81,1.03s1.59.9,2.17,1.5c.58.6.87,1.33.87,2.19,0,.92-.19,1.7-.57,2.33s-.9,1.13-1.55,1.52-1.42.66-2.29.83-1.77.25-2.72.25c-1.55,0-3.11-.17-4.66-.51-1.55-.34-2.91-.77-4.07-1.27l1.42-3.53c.37.21.85.41,1.44.6.59.19,1.24.37,1.94.51.7.15,1.42.27,2.15.36.73.09,1.42.13,2.06.13.88,0,1.57-.08,2.06-.25.49-.16.73-.37.73-.6,0-.3-.29-.56-.87-.78s-1.3-.46-2.17-.71c-.87-.25-1.81-.53-2.83-.83-1.02-.3-1.97-.67-2.83-1.12s-1.59-.98-2.17-1.59c-.58-.61-.87-1.36-.87-2.26s.21-1.6.62-2.19c.41-.6.96-1.08,1.65-1.45.69-.37,1.49-.64,2.42-.8s1.9-.25,2.9-.25c1.28,0,2.42.12,3.43.36,1.01.24,2.12.57,3.34.98l-.78,3.94c-1.16-.39-2.32-.71-3.47-.96Z"/>
      <path d="M236.97,258.63c.18.18.27.39.27.63v7.65c.79-.42,1.65-.76,2.56-1.03.91-.27,1.8-.4,2.65-.4.73,0,1.42.1,2.06.29.64.19,1.2.55,1.67,1.07.47.52.85,1.21,1.14,2.08.29.86.43,1.97.43,3.31v8.94c0,.24-.09.45-.27.63-.18.18-.4.27-.64.27h-2.29c-.24,0-.46-.09-.64-.27s-.27-.39-.27-.63v-9.79c0-.75-.31-1.27-.94-1.57-.62-.3-1.27-.45-1.94-.45s-1.28.1-1.92.29c-.64.19-1.17.44-1.6.74v10.78c0,.24-.09.45-.27.63s-.4.27-.64.27h-2.29c-.24,0-.46-.09-.64-.27s-.27-.39-.27-.63v-21.91c0-.24.09-.45.27-.63.18-.18.4-.27.64-.27h2.29c.24,0,.46.09.64.27Z"/>
      <path d="M254.79,258.63c.18.18.27.39.27.63v2.01c0,.24-.09.45-.27.63-.18.18-.4.27-.64.27h-2.29c-.24,0-.46-.09-.64-.27-.18-.18-.27-.39-.27-.63v-2.01c0-.24.09-.45.27-.63.18-.18.4-.27.64-.27h2.29c.24,0,.46.09.64.27ZM254.79,265.79c.18.18.27.39.27.63v14.76c0,.24-.09.45-.27.63s-.4.27-.64.27h-2.29c-.24,0-.46-.09-.64-.27s-.27-.39-.27-.63v-14.76c0-.24.09-.45.27-.63s.4-.27.64-.27h2.29c.24,0,.46.09.64.27Z"/>
      <path d="M262.83,267.54c.85-.6,1.78-1.08,2.79-1.45,1-.37,2-.56,2.97-.56.64,0,1.25.1,1.83.31.58.21,1.08.55,1.51,1.03.43.48.77,1.11,1.03,1.9.26.79.39,1.75.39,2.88v9.53c0,.24-.09.45-.27.63s-.4.27-.64.27h-2.29c-.24,0-.46-.09-.64-.27-.18-.18-.27-.39-.27-.63v-9.48c0-.86-.28-1.47-.85-1.81s-1.24-.51-2.03-.51c-.64,0-1.28.08-1.92.25-.64.16-1.17.37-1.6.6v10.96c0,.24-.09.45-.27.63-.18.18-.4.27-.64.27h-2.28c-.24,0-.46-.09-.64-.27-.18-.18-.27-.39-.27-.63v-14.76c0-.24.09-.45.27-.63.18-.18.4-.27.64-.27h3.2v2.01Z"/>
      <path d="M278.35,266.6c.81-.71,1.78-1.07,2.9-1.07h5.03c1.55,0,2.7.34,3.45,1.01.75.67,1.12,1.48,1.12,2.44,0,.75-.21,1.51-.62,2.3-.41.79-1.01,1.55-1.8,2.28s-1.77,1.41-2.92,2.03c-1.16.63-2.48,1.15-3.98,1.57.3.45.71.77,1.21.96s1.07.29,1.71.29c.94,0,1.92-.14,2.92-.42,1-.28,1.86-.59,2.56-.92l.91,3.22c-1.13.51-2.31.93-3.54,1.27-1.23.34-2.51.51-3.82.51-.85,0-1.67-.11-2.45-.33-.78-.22-1.45-.6-2.03-1.12-.58-.52-1.04-1.2-1.37-2.04s-.5-1.88-.5-3.13v-5.9c0-1.25.4-2.24,1.21-2.95ZM282.44,273.62c.49-.21.99-.49,1.51-.85.52-.36,1.03-.8,1.53-1.34.5-.54.92-1.16,1.26-1.88h-5.48v4.47c.3-.06.7-.19,1.19-.4Z"/>
      <path d="M314.38,265.79c.15.18.26.39.32.63l2.7,11.18,2.97-11.18c.06-.24.17-.45.32-.63s.35-.27.59-.27h3.57l-4.11,15.65c-.06.24-.17.45-.32.63s-.35.27-.59.27h-5.26c-.24,0-.44-.09-.59-.27s-.26-.39-.32-.63l-1.96-8.23-1.96,8.23c-.06.24-.17.45-.32.63s-.35.27-.59.27h-5.26c-.24,0-.44-.09-.59-.27s-.26-.39-.32-.63l-4.11-15.65h3.56c.24,0,.44.09.59.27s.26.39.32.63l2.92,11.18,2.7-11.18c.06-.24.17-.45.32-.63s.35-.27.59-.27h4.25c.24,0,.44.09.59.27Z"/>
      <path d="M331.29,258.63c.18.18.27.39.27.63v2.01c0,.24-.09.45-.27.63-.18.18-.4.27-.64.27h-2.29c-.24,0-.46-.09-.64-.27-.18-.18-.27-.39-.27-.63v-2.01c0-.24.09-.45.27-.63.18-.18.4-.27.64-.27h2.29c.24,0,.46.09.64.27ZM331.29,265.79c.18.18.27.39.27.63v14.76c0,.24-.09.45-.27.63s-.4.27-.64.27h-2.29c-.24,0-.46-.09-.64-.27s-.27-.39-.27-.63v-14.76c0-.24.09-.45.27-.63s.4-.27.64-.27h2.29c.24,0,.46.09.64.27Z"/>
      <path d="M339.05,258.63c.18.18.27.39.27.63v2.77h4.25c.24,0,.46.09.64.27.18.18.27.39.27.63v2.46c0,.24-.09.45-.27.63-.18.18-.4.27-.64.27h-4.25v8.23c0,.66.1,1.2.3,1.63.2.43.46.78.78,1.03.32.25.69.43,1.12.54.43.1.88.16,1.37.16.18,0,.37-.01.57-.04.2-.03.39-.04.57-.04l.91,3.89c-1.1.27-2.12.4-3.06.4s-1.87-.14-2.67-.42c-.81-.28-1.51-.72-2.1-1.32-.59-.6-1.06-1.38-1.39-2.35-.33-.97-.5-2.12-.5-3.47v-15.25c0-.24.09-.45.27-.63.18-.18.4-.27.64-.27h2.28c.24,0,.46.09.64.27Z"/>
      <path d="M352.21,258.63c.18.18.27.39.27.63v7.65c.79-.42,1.65-.76,2.56-1.03.91-.27,1.8-.4,2.65-.4.73,0,1.42.1,2.06.29.64.19,1.2.55,1.67,1.07.47.52.85,1.21,1.14,2.08.29.86.43,1.97.43,3.31v8.94c0,.24-.09.45-.27.63-.18.18-.4.27-.64.27h-2.29c-.24,0-.46-.09-.64-.27s-.27-.39-.27-.63v-9.79c0-.75-.31-1.27-.94-1.57-.62-.3-1.27-.45-1.94-.45s-1.28.1-1.92.29c-.64.19-1.17.44-1.6.74v10.78c0,.24-.09.45-.27.63s-.4.27-.64.27h-2.29c-.24,0-.46-.09-.64-.27s-.27-.39-.27-.63v-21.91c0-.24.09-.45.27-.63.18-.18.4-.27.64-.27h2.29c.24,0,.46.09.64.27Z"/>
      <path d="M385.39,275.81c0,.98-.19,1.86-.57,2.64-.38.78-.91,1.43-1.58,1.97-.67.54-1.45.95-2.33,1.23s-1.83.42-2.83.42h.46c-1.01,0-1.95-.14-2.83-.42-.88-.28-1.66-.69-2.33-1.23-.67-.54-1.2-1.19-1.58-1.97-.38-.77-.57-1.65-.57-2.64v-4.02c0-.98.19-1.86.57-2.64s.91-1.43,1.58-1.97c.67-.54,1.45-.95,2.33-1.23.88-.28,1.83-.42,2.83-.42h-.46c1,0,1.95.14,2.83.42s1.66.69,2.33,1.23c.67.54,1.2,1.19,1.58,1.97s.57,1.65.57,2.64v.45h-4.11v-.63c0-.87-.31-1.42-.94-1.66-.62-.24-1.38-.36-2.26-.36h.37c-.91,0-1.66.13-2.24.4s-.87.8-.87,1.61v4.34c0,.83.33,1.38,1,1.63.67.25,1.42.38,2.24.38h-.59c.85,0,1.62-.14,2.29-.42s1-.81,1-1.59v-.58h4.11v.45Z"/>
      <path d="M399.6,265.95c.88.28,1.66.69,2.33,1.23.67.54,1.2,1.19,1.58,1.97s.57,1.65.57,2.64v4.02c0,.98-.19,1.86-.57,2.64-.38.78-.91,1.43-1.58,1.97-.67.54-1.45.95-2.33,1.23s-1.83.42-2.83.42h-1.37c-1.01,0-1.95-.14-2.83-.42-.88-.28-1.66-.69-2.33-1.23-.67-.54-1.2-1.19-1.58-1.97-.38-.77-.57-1.65-.57-2.64v-4.02c0-.98.19-1.86.57-2.64s.91-1.43,1.58-1.97c.67-.54,1.45-.95,2.33-1.23.88-.28,1.83-.42,2.83-.42h1.37c1,0,1.95.14,2.83.42ZM393.07,270c-.58.27-.87.8-.87,1.61v4.34c0,.83.3,1.38.89,1.63.59.25,1.3.38,2.12.38h1.92c.85,0,1.54-.14,2.06-.42s.78-.81.78-1.59v-4.34c0-.87-.31-1.42-.94-1.66-.62-.24-1.38-.36-2.26-.36h-1.46c-.91,0-1.66.13-2.24.4Z"/>
      <path d="M411.34,267.54c.85-.6,1.78-1.08,2.79-1.45,1.01-.37,2-.56,2.97-.56.64,0,1.25.1,1.83.31s1.08.55,1.51,1.03c.43.48.77,1.11,1.03,1.9.26.79.39,1.75.39,2.88v9.53c0,.24-.09.45-.27.63-.18.18-.4.27-.64.27h-2.29c-.24,0-.46-.09-.64-.27s-.27-.39-.27-.63v-9.48c0-.86-.28-1.47-.84-1.81-.56-.34-1.24-.51-2.03-.51-.64,0-1.28.08-1.92.25-.64.16-1.17.37-1.6.6v10.96c0,.24-.09.45-.27.63s-.4.27-.64.27h-2.29c-.24,0-.46-.09-.64-.27s-.27-.39-.27-.63v-14.76c0-.24.09-.45.27-.63s.4-.27.64-.27h3.2v2.01Z"/>
      <path d="M429.48,281.8c-.18.18-.4.27-.64.27h-2.29c-.24,0-.46-.09-.64-.27s-.27-.39-.27-.63v-17.49c0-1.04.17-1.9.5-2.57s.77-1.21,1.3-1.61c.53-.4,1.13-.69,1.8-.85s1.36-.25,2.06-.25c.85,0,1.67.08,2.45.25.78.16,1.42.37,1.94.6v3.58c-.27-.09-.78-.23-1.53-.42-.75-.19-1.47-.29-2.17-.29-.61,0-1.13.11-1.58.33-.44.22-.66.65-.66,1.27v4.92h4.94v4.03h-4.94v8.5c0,.24-.09.45-.27.63Z"/>
      <path d="M442.87,258.63c.18.18.27.39.27.63v2.01c0,.24-.09.45-.27.63-.18.18-.4.27-.64.27h-2.28c-.24,0-.46-.09-.64-.27-.18-.18-.27-.39-.27-.63v-2.01c0-.24.09-.45.27-.63.18-.18.4-.27.64-.27h2.28c.24,0,.46.09.64.27ZM442.87,265.79c.18.18.27.39.27.63v14.76c0,.24-.09.45-.27.63-.18.18-.4.27-.64.27h-2.28c-.24,0-.46-.09-.64-.27-.18-.18-.27-.39-.27-.63v-14.76c0-.24.09-.45.27-.63.18-.18.4-.27.64-.27h2.28c.24,0,.46.09.64.27Z"/>
      <path d="M457.31,259.26c0-.24.09-.45.27-.63.18-.18.4-.27.64-.27h2.29c.24,0,.46.09.64.27.18.18.27.39.27.63v21.91c0,.24-.09.45-.27.63-.18.18-.4.27-.64.27h-5.85c-1.34,0-2.53-.24-3.56-.72-1.04-.48-1.9-1.1-2.6-1.86-.7-.76-1.23-1.62-1.6-2.59-.37-.97-.55-1.96-.55-2.97,0-.92.16-1.83.48-2.71.32-.88.82-1.65,1.51-2.33s1.55-1.21,2.6-1.63c1.05-.42,2.29-.63,3.72-.63h2.65v-7.38ZM451.46,271.67c-.67.67-1,1.42-1,2.26,0,.51.09,1.01.27,1.5.18.49.45.93.8,1.32.35.39.78.7,1.28.94s1.09.36,1.76.36h2.74v-7.38h-2.74c-1.4,0-2.44.33-3.11,1.01Z"/>
      <path d="M466.29,266.6c.81-.71,1.78-1.07,2.9-1.07h5.03c1.55,0,2.7.34,3.45,1.01.75.67,1.12,1.48,1.12,2.44,0,.75-.21,1.51-.62,2.3-.41.79-1.01,1.55-1.8,2.28s-1.77,1.41-2.92,2.03c-1.16.63-2.48,1.15-3.98,1.57.3.45.71.77,1.21.96s1.07.29,1.71.29c.94,0,1.92-.14,2.92-.42,1-.28,1.86-.59,2.56-.92l.91,3.22c-1.13.51-2.31.93-3.54,1.27-1.23.34-2.51.51-3.82.51-.85,0-1.67-.11-2.45-.33-.78-.22-1.45-.6-2.03-1.12-.58-.52-1.04-1.2-1.37-2.04s-.5-1.88-.5-3.13v-5.9c0-1.25.4-2.24,1.21-2.95ZM470.38,273.62c.49-.21.99-.49,1.51-.85.52-.36,1.03-.8,1.53-1.34.5-.54.92-1.16,1.26-1.88h-5.48v4.47c.3-.06.7-.19,1.19-.4Z"/>
      <path d="M486.1,267.54c.85-.6,1.78-1.08,2.79-1.45,1.01-.37,2-.56,2.97-.56.64,0,1.25.1,1.83.31s1.08.55,1.51,1.03c.43.48.77,1.11,1.03,1.9.26.79.39,1.75.39,2.88v9.53c0,.24-.09.45-.27.63-.18.18-.4.27-.64.27h-2.29c-.24,0-.46-.09-.64-.27s-.27-.39-.27-.63v-9.48c0-.86-.28-1.47-.84-1.81-.56-.34-1.24-.51-2.03-.51-.64,0-1.28.08-1.92.25-.64.16-1.17.37-1.6.6v10.96c0,.24-.09.45-.27.63s-.4.27-.64.27h-2.29c-.24,0-.46-.09-.64-.27s-.27-.39-.27-.63v-14.76c0-.24.09-.45.27-.63s.4-.27.64-.27h3.2v2.01Z"/>
      <path d="M514.11,275.81c0,.98-.19,1.86-.57,2.64-.38.78-.91,1.43-1.58,1.97-.67.54-1.45.95-2.33,1.23s-1.83.42-2.83.42h.46c-1.01,0-1.95-.14-2.83-.42-.88-.28-1.66-.69-2.33-1.23-.67-.54-1.2-1.19-1.58-1.97-.38-.77-.57-1.65-.57-2.64v-4.02c0-.98.19-1.86.57-2.64s.91-1.43,1.58-1.97c.67-.54,1.45-.95,2.33-1.23.88-.28,1.83-.42,2.83-.42h-.46c1,0,1.95.14,2.83.42s1.66.69,2.33,1.23c.67.54,1.2,1.19,1.58,1.97s.57,1.65.57,2.64v.45h-4.11v-.63c0-.87-.31-1.42-.94-1.66-.62-.24-1.38-.36-2.26-.36h.37c-.91,0-1.66.13-2.24.4s-.87.8-.87,1.61v4.34c0,.83.33,1.38,1,1.63.67.25,1.42.38,2.24.38h-.59c.85,0,1.62-.14,2.29-.42s1-.81,1-1.59v-.58h4.11v.45Z"/>
      <path d="M518.52,266.6c.81-.71,1.78-1.07,2.9-1.07h5.03c1.55,0,2.7.34,3.45,1.01.75.67,1.12,1.48,1.12,2.44,0,.75-.21,1.51-.62,2.3-.41.79-1.01,1.55-1.8,2.28s-1.77,1.41-2.92,2.03c-1.16.63-2.48,1.15-3.98,1.57.3.45.71.77,1.21.96s1.07.29,1.71.29c.94,0,1.92-.14,2.92-.42,1-.28,1.86-.59,2.56-.92l.91,3.22c-1.13.51-2.31.93-3.54,1.27-1.23.34-2.51.51-3.82.51-.85,0-1.67-.11-2.45-.33-.78-.22-1.45-.6-2.03-1.12-.58-.52-1.04-1.2-1.37-2.04s-.5-1.88-.5-3.13v-5.9c0-1.25.4-2.24,1.21-2.95ZM522.61,273.62c.49-.21.99-.49,1.51-.85.52-.36,1.03-.8,1.53-1.34.5-.54.92-1.16,1.26-1.88h-5.48v4.47c.3-.06.7-.19,1.19-.4Z"/>
      <path d="M536.32,281.8c-.18-.18-.27-.39-.27-.63v-3.35c0-.24.09-.45.27-.63s.4-.27.64-.27h3.43c.24,0,.46.09.64.27.18.18.27.39.27.63v3.35c0,.24-.09.45-.27.63-.18.18-.4.27-.64.27h-3.43c-.24,0-.46-.09-.64-.27Z"/>
    </g>
  </g>
</svg>