<?xml version="1.0" encoding="UTF-8"?>
<svg id="Layer_1" xmlns="http://www.w3.org/2000/svg" version="1.1" viewBox="0 0 784.8 350.74">
  <!-- Generator: Adobe Illustrator 29.7.1, SVG Export Plug-In . SVG Version: 2.1.1 Build 8)  -->
  <defs>
    <style>
      .st0 {
        fill: #94d9f7;
      }

      .st1 {
        fill: #743fb2;
      }

      .st2 {
        display: none;
      }
    </style>
  </defs>
  <g class="st2">
    <g>
      <path d="M84.71,7.97c-.8.78-1.2,1.88-1.14,2.96l14.53,153.11-13.76-3.04c-.52-.12-1.04-.11-1.54-.02-.27,0-.54-.05-.81,0-.27,0-.54-.05-.81,0-.27,0-.54-.05-.81,0-.27,0-.54-.05-.81,0-.27,0-.55-.05-.81,0-.27,0-.54-.05-.81,0-.27,0-.54-.05-.81,0-.27,0-.54-.05-.81,0-.27,0-.54-.05-.81,0-.27,0-.54-.05-.81,0-.27,0-.54-.05-.81,0-.27,0-.54-.05-.81,0-.27,0-.54-.05-.81,0-.27,0-.54-.05-.81,0-.27,0-.54-.05-.81,0-.27,0-.55-.05-.81,0-.27,0-.55-.05-.81,0-.27,0-.54-.05-.81,0-.27,0-.55-.05-.81,0-.27,0-.54-.05-.81,0-1.73-.05-3.33.95-3.86,2.62l-7.73,24.2-17.4-9.34c-.69-.37-1.46-.44-2.23-.37-.27-.03-.53-.02-.81,0-.27-.03-.53-.02-.81,0-.27-.03-.53-.02-.81,0-.27-.03-.53-.02-.81,0-.27-.03-.53-.02-.81,0-.27-.03-.53-.02-.81,0-.27-.03-.53-.02-.81,0-.27-.03-.53-.02-.81,0-.27-.03-.53-.02-.81,0-.27-.03-.53-.02-.81,0-.28-.03-.53-.02-.81,0-.28-.03-.53-.02-.81,0-.27-.03-.53-.02-.81,0-.28-.03-.53-.02-.81,0-.27-.03-.53-.02-.81,0-.27-.03-.53-.02-.81,0-.28-.03-.53-.02-.81,0-.27-.03-.53-.02-.81,0-.27-.03-.53-.02-.81,0-.27-.03-.53-.02-.81,0-.73-.09-1.47-.04-2.16.29-1.14.54-1.94,1.58-2.15,2.8l-7.6,43.55-59.56,1.08c-1.85.03-3.42,1.33-3.77,3.11-.05.24-.07.48-.07.71,0,1.52.93,2.93,2.41,3.53l83.73,34.15c.63.26,1.29.29,1.95.21.27.03.53.03.81,0,.27.03.53.03.81,0,.27.03.53.03.81,0,.27.03.53.03.81,0,.27.03.53.03.81,0,.27.03.53.03.81,0,.27.03.53.03.81,0,.27.03.53.03.81,0,.27.03.53.03.81,0,.27.03.53.03.81,0,.28.03.53.03.81,0,.27.03.53.03.81,0,.27.03.53.03.81,0,.27.03.53.03.81,0,.27.03.53.03.81,0,.27.03.53.03.81,0,.27.03.53.03.81,0,.27.03.53.03.81,0,.27.03.53.03.81,0,.27.03.53.03.81,0,.69.06,1.39.01,2.03-.29,1-.46,1.75-1.32,2.07-2.36l5.09-16.61,5.33,4.7c.91.8,2.16,1.14,3.36.91.02,0,.04-.02.06-.03.25,0,.49.08.74.03.02,0,.04-.02.06-.03.25,0,.49.08.74.03.02,0,.04-.02.06-.03.25,0,.49.08.74.03.02,0,.04-.02.06-.03.25,0,.49.08.74.03.02,0,.04-.02.06-.03.25,0,.49.08.74.03.02,0,.04-.02.06-.03.25,0,.49.08.74.03.02,0,.04-.02.06-.03.25,0,.49.08.74.03.02,0,.04-.02.06-.03.25,0,.49.08.74.03.02,0,.04-.02.06-.03.25,0,.49.08.74.03.02,0,.04-.02.06-.03.25,0,.49.08.74.03.02,0,.04-.02.06-.03.25,0,.49.08.74.03.02,0,.04-.02.06-.03.25,0,.49.08.74.03.02,0,.04-.02.06-.03.25,0,.49.08.74.03.02,0,.04-.02.06-.03.25,0,.49.08.74.03.02,0,.04-.02.06-.03.25,0,.49.08.74.03.02,0,.04-.02.06-.03.25,0,.49.08.74.03.02,0,.04-.02.06-.03.25,0,.49.08.74.03.02,0,.04-.02.06-.03.25,0,.49.08.74.03.02,0,.04-.02.06-.03.25,0,.49.08.74.03.02,0,.04-.02.06-.03.25,0,.49.08.74.03.02,0,.04-.02.06-.03.25,0,.49.08.74.03,1.21-.23,2.23-1,2.77-2.09l14.22-28.64,3.55,2.01,14.88,114.23c.14,1.06.72,2.01,1.6,2.63s1.99.85,3.05.64h.02c.26,0,.52.05.79,0h.02c.26,0,.52.05.79,0h.02c.26,0,.52.05.79,0h.02c.26,0,.52.05.79,0h.02c.26,0,.52.05.79,0h.02c.26,0,.52.05.79,0h.02c.26,0,.53.05.79,0h.02c.26,0,.52.05.79,0h.02c.26,0,.52.05.79,0h.02c.26,0,.52.05.79,0h.02c.26,0,.52.05.79,0h.02c.26,0,.52.05.79,0h.02c.26,0,.52.05.79,0h.02c.26,0,.52.05.79,0h.02c.26,0,.52.05.79,0h.02c.26,0,.52.05.79,0h.02c.26,0,.52.05.79,0h.02c.26,0,.52.05.79,0h.02c.26,0,.53.05.79,0h.02c.26,0,.52.05.79,0h.02c.26,0,.53.05.79,0l615.62-39.84c1.74-.34,3.02-1.79,3.12-3.53l19.77-271.29c.09-2.02-1.5-3.89-3.64-4.04L104.68,6.87c-.09,0-.17.04-.26.04l-.55-.04c-.09,0-.17.04-.26.04l-.55-.04c-.09,0-.17.04-.26.04l-.55-.04c-.09,0-.17.04-.26.04l-.55-.04c-.09,0-.17.04-.26.04l-.55-.04c-.09,0-.17.04-.26.04l-.55-.04c-.09,0-.17.04-.26.04l-.55-.04c-.09,0-.17.04-.26.04l-.55-.04c-.09,0-.17.04-.26.04l-.55-.04c-.09,0-.17.04-.26.04l-.55-.04c-.09,0-.17.04-.26.04l-.55-.04c-.09,0-.17.04-.26.04l-.55-.04c-.09,0-.17.04-.26.04l-.55-.04c-.09,0-.17.04-.26.04l-.55-.04c-.09,0-.17.04-.26.04l-.55-.04c-.09,0-.17.04-.26.04l-.55-.04c-.09,0-.17.04-.26.04l-.55-.04c-.09,0-.17.04-.26.04l-.55-.04c-.09,0-.17.04-.26.04l-.55-.04c-.09,0-.17.04-.26.04l-.55-.04c-.09,0-.17.04-.26.04l-.55-.04c-1.13-.08-2.23.33-3.03,1.11h.07Z"/>
      <path class="st1" d="M123.44,172.46c.08,1.2-.43,2.37-1.36,3.16-.94.78-2.2,1.09-3.4.82l-32.53-7.19-10.56,33.06c-.35,1.1-1.18,1.98-2.27,2.41-1.09.43-2.31.36-3.34-.19l-31.24-16.77-7.22,41.37c-.31,1.81-1.9,3.15-3.78,3.18l-44.15.8,62.51,25.49,9.22-30.08c.39-1.26,1.4-2.23,2.69-2.59,1.29-.36,2.67-.04,3.67.84l19.4,17.08,17.5-35.26c.47-.96,1.33-1.68,2.37-1.99,1.04-.31,2.16-.19,3.1.35l22.09,12.52c1.05.6,1.76,1.64,1.92,2.83l14.59,112.02,608.54-38.43,19.37-264.57L108.61,14.8l14.83,157.66Z"/>
      <path d="M100.52,10.93l14.78,156.91-30.95-6.84c-1.99-.44-3.99.69-4.59,2.59l-10.21,31.96-31.87-17.11c-1.11-.59-2.44-.63-3.58-.09-1.14.54-1.94,1.58-2.15,2.8l-7.6,43.55-59.56,1.08c-1.85.03-3.42,1.33-3.77,3.11-.05.24-.07.48-.07.71,0,1.52.93,2.93,2.41,3.53l83.73,34.15c1.02.42,2.18.39,3.18-.07,1-.46,1.75-1.32,2.07-2.36l8.69-28.36,18.67,16.45c.91.8,2.16,1.14,3.36.91,1.21-.23,2.23-1,2.77-2.09l17.94-36.14,16.78,9.51,14.88,114.23c.14,1.06.72,2.01,1.6,2.63s1.99.85,3.05.64l615.62-39.84c1.74-.34,3.02-1.79,3.12-3.53l19.77-271.29c.09-2.02-1.5-3.89-3.64-4.04L104.68,6.87c-1.13-.08-2.23.33-3.03,1.11-.8.78-1.2,1.88-1.14,2.96h0ZM751.19,295.9l-608.54,38.43-14.59-112.02c-.16-1.18-.87-2.23-1.92-2.83l-22.09-12.52c-.94-.53-2.07-.66-3.1-.35-1.04.31-1.9,1.03-2.37,1.99l-17.5,35.26-19.4-17.08c-1-.88-2.38-1.2-3.67-.84-1.29.36-2.31,1.33-2.69,2.59l-9.22,30.08-62.51-25.49,44.15-.8c1.88-.03,3.47-1.37,3.78-3.18l7.22-41.37,31.24,16.77c1.03.55,2.25.62,3.34.19s1.92-1.31,2.27-2.41l10.56-33.06,32.53,7.19c1.2.27,2.46-.04,3.4-.82.94-.78,1.44-1.96,1.36-3.16L108.61,14.8l661.96,16.52-19.37,264.57h-.01Z"/>
    </g>
  </g>
  <g>
    <path d="M76.68,7.75c-.8.78-1.2,1.88-1.14,2.96l14.53,153.11-13.76-3.04c-.52-.12-1.04-.11-1.54-.02-.27,0-.54-.05-.81,0-.27,0-.54-.05-.81,0-.27,0-.54-.05-.81,0-.27,0-.54-.05-.81,0-.27,0-.55-.05-.81,0-.27,0-.54-.05-.81,0-.27,0-.54-.05-.81,0-.27,0-.54-.05-.81,0-.27,0-.54-.05-.81,0-.27,0-.54-.05-.81,0-.27,0-.54-.05-.81,0-.27,0-.54-.05-.81,0-.27,0-.54-.05-.81,0-.27,0-.54-.05-.81,0-.27,0-.54-.05-.81,0-.27,0-.55-.05-.81,0-.27,0-.55-.05-.81,0-.27,0-.54-.05-.81,0-.27,0-.55-.05-.81,0-.27,0-.54-.05-.81,0-1.73-.05-3.33.95-3.86,2.62l-7.73,24.2-17.4-9.34c-.69-.37-1.46-.44-2.23-.37-.27-.03-.53-.02-.81,0-.27-.03-.53-.02-.81,0-.27-.03-.53-.02-.81,0-.27-.03-.53-.02-.81,0-.27-.03-.53-.02-.81,0-.27-.03-.53-.02-.81,0-.27-.03-.53-.02-.81,0-.27-.03-.53-.02-.81,0-.27-.03-.53-.02-.81,0-.27-.03-.53-.02-.81,0-.28-.03-.53-.02-.81,0-.28-.03-.53-.02-.81,0-.27-.03-.53-.02-.81,0-.28-.03-.53-.02-.81,0-.27-.03-.53-.02-.81,0-.27-.03-.53-.02-.81,0-.28-.03-.53-.02-.81,0-.27-.03-.53-.02-.81,0-.27-.03-.53-.02-.81,0-.27-.03-.53-.02-.81,0-.73-.09-1.47-.04-2.16.29-1.14.54-1.94,1.58-2.15,2.8L-.62,224.49l-59.56,1.08c-1.85.03-3.42,1.33-3.77,3.11-.05.24-.07.48-.07.71,0,1.52.93,2.93,2.41,3.53l83.73,34.15c.63.26,1.29.29,1.95.21.27.03.53.03.81,0,.27.03.53.03.81,0,.27.03.53.03.81,0,.27.03.53.03.81,0,.27.03.53.03.81,0,.27.03.53.03.81,0,.27.03.53.03.81,0,.27.03.53.03.81,0,.27.03.53.03.81,0,.27.03.53.03.81,0,.28.03.53.03.81,0,.27.03.53.03.81,0,.27.03.53.03.81,0,.27.03.53.03.81,0,.27.03.53.03.81,0,.27.03.53.03.81,0,.27.03.53.03.81,0,.27.03.53.03.81,0,.27.03.53.03.81,0,.27.03.53.03.81,0,.69.06,1.39.01,2.03-.29,1-.46,1.75-1.32,2.07-2.36l5.09-16.61,5.33,4.7c.91.8,2.16,1.14,3.36.91.02,0,.04-.02.06-.03.25,0,.49.08.74.03.02,0,.04-.02.06-.03.25,0,.49.08.74.03.02,0,.04-.02.06-.03.25,0,.49.08.74.03.02,0,.04-.02.06-.03.25,0,.49.08.74.03.02,0,.04-.02.06-.03.25,0,.49.08.74.03.02,0,.04-.02.06-.03.25,0,.49.08.74.03.02,0,.04-.02.06-.03.25,0,.49.08.74.03.02,0,.04-.02.06-.03.25,0,.49.08.74.03.02,0,.04-.02.06-.03.25,0,.49.08.74.03.02,0,.04-.02.06-.03.25,0,.49.08.74.03.02,0,.04-.02.06-.03.25,0,.49.08.74.03.02,0,.04-.02.06-.03.25,0,.49.08.74.03.02,0,.04-.02.06-.03.25,0,.49.08.74.03.02,0,.04-.02.06-.03.25,0,.49.08.74.03.02,0,.04-.02.06-.03.25,0,.49.08.74.03.02,0,.04-.02.06-.03.25,0,.49.08.74.03.02,0,.04-.02.06-.03.25,0,.49.08.74.03.02,0,.04-.02.06-.03.25,0,.49.08.74.03.02,0,.04-.02.06-.03.25,0,.49.08.74.03.02,0,.04-.02.06-.03.25,0,.49.08.74.03.02,0,.04-.02.06-.03.25,0,.49.08.74.03,1.21-.23,2.23-1,2.77-2.09l14.22-28.64,3.55,2.01,14.88,114.23c.14,1.06.72,2.01,1.6,2.63s1.99.85,3.05.64h.02c.26,0,.52.05.79,0h.02c.26,0,.52.05.79,0h.02c.26,0,.52.05.79,0h.02c.26,0,.52.05.79,0h.02c.26,0,.52.05.79,0h.02c.26,0,.52.05.79,0h.02c.26,0,.53.05.79,0h.02c.26,0,.52.05.79,0h.02c.26,0,.52.05.79,0h.02c.26,0,.52.05.79,0h.02c.26,0,.52.05.79,0h.02c.26,0,.52.05.79,0h.02c.26,0,.52.05.79,0h.02c.26,0,.52.05.79,0h.02c.26,0,.52.05.79,0h.02c.26,0,.52.05.79,0h.02c.26,0,.52.05.79,0h.02c.26,0,.52.05.79,0h.02c.26,0,.53.05.79,0h.02c.26,0,.52.05.79,0h.02c.26,0,.53.05.79,0l615.62-39.84c1.74-.34,3.02-1.79,3.12-3.53l19.77-271.29c.09-2.02-1.5-3.89-3.64-4.04L96.65,6.64c-.09,0-.17.04-.26.04l-.55-.04c-.09,0-.17.04-.26.04l-.55-.04c-.09,0-.17.04-.26.04l-.55-.04c-.09,0-.17.04-.26.04l-.55-.04c-.09,0-.17.04-.26.04l-.55-.04c-.09,0-.17.04-.26.04l-.55-.04c-.09,0-.17.04-.26.04l-.55-.04c-.09,0-.17.04-.26.04l-.55-.04c-.09,0-.17.04-.26.04l-.55-.04c-.09,0-.17.04-.26.04l-.55-.04c-.09,0-.17.04-.26.04l-.55-.04c-.09,0-.17.04-.26.04l-.55-.04c-.09,0-.17.04-.26.04l-.55-.04c-.09,0-.17.04-.26.04l-.55-.04c-.09,0-.17.04-.26.04l-.55-.04c-.09,0-.17.04-.26.04l-.55-.04c-.09,0-.17.04-.26.04l-.55-.04c-.09,0-.17.04-.26.04l-.55-.04c-.09,0-.17.04-.26.04l-.55-.04c-.09,0-.17.04-.26.04l-.55-.04c-.09,0-.17.04-.26.04l-.55-.04c-1.13-.08-2.23.33-3.03,1.11h.07Z"/>
    <path class="st0" d="M115.41,172.23c.08,1.2-.43,2.37-1.36,3.16-.94.78-2.2,1.09-3.4.82l-32.53-7.19-10.56,33.06c-.35,1.1-1.18,1.98-2.27,2.41-1.09.43-2.31.36-3.34-.19l-31.24-16.77-7.22,41.37c-.31,1.81-1.9,3.15-3.78,3.18l-44.15.8,62.51,25.49,9.22-30.08c.39-1.26,1.4-2.23,2.69-2.59,1.29-.36,2.67-.04,3.67.84l19.4,17.08,17.5-35.26c.47-.96,1.33-1.68,2.37-1.99,1.04-.31,2.16-.19,3.1.35l22.09,12.52c1.05.6,1.76,1.64,1.92,2.83l14.59,112.02,608.54-38.43,19.37-264.57L100.58,14.58l14.83,157.66h0Z"/>
    <g>
      <g>
        <path d="M161.51,62.6c.2-.2.44-.3.71-.3h2.55c.27,0,.51.1.71.3.2.2.31.43.31.7v.7c0,1.2-.25,2.26-.76,3.19s-1.18,1.72-2.01,2.37c-.83.65-1.78,1.14-2.83,1.47-1.05.33-2.14.5-3.26.5s-2.22-.17-3.29-.5c-1.07-.33-2.03-.82-2.88-1.47-.85-.65-1.53-1.44-2.04-2.37s-.76-2-.76-3.19v-11.43c0-1.2.25-2.26.76-3.19.51-.93,1.19-1.72,2.04-2.37.85-.65,1.81-1.14,2.88-1.47,1.07-.33,2.17-.5,3.29-.5s2.21.17,3.26.5c1.05.33,2,.82,2.83,1.47.83.65,1.5,1.44,2.01,2.37.51.93.76,2,.76,3.19v.75c0,.27-.1.5-.31.7s-.44.3-.71.3h-2.55c-.27,0-.51-.1-.71-.3-.2-.2-.31-.43-.31-.7v-1.15c0-.43-.12-.81-.36-1.12s-.56-.58-.97-.8c-.41-.22-.88-.38-1.4-.5-.53-.12-1.06-.17-1.61-.17s-1.07.06-1.58.17c-.51.12-.97.28-1.38.5-.41.22-.74.48-.99.8s-.38.69-.38,1.12v12.22c0,.43.13.81.38,1.15.25.33.59.61.99.82.41.22.87.38,1.38.5s1.04.17,1.58.17,1.08-.06,1.61-.17.99-.28,1.4-.5c.41-.22.73-.49.97-.82.24-.33.36-.72.36-1.15v-1.1c0-.27.1-.5.31-.7Z"/>
        <path d="M182.15,53.54c.99.32,1.85.77,2.6,1.37s1.33,1.33,1.76,2.2.64,1.85.64,2.94v4.49c0,1.1-.21,2.08-.64,2.94-.42.87-1.01,1.6-1.76,2.2-.75.6-1.61,1.06-2.6,1.37-.99.32-2.04.47-3.16.47h-1.53c-1.12,0-2.18-.16-3.16-.47-.99-.32-1.85-.77-2.6-1.37-.75-.6-1.33-1.33-1.76-2.2-.42-.86-.64-1.85-.64-2.94v-4.49c0-1.1.21-2.08.64-2.94s1.01-1.6,1.76-2.2,1.61-1.06,2.6-1.37c.99-.32,2.04-.47,3.16-.47h1.53c1.12,0,2.18.16,3.16.47ZM174.86,58.06c-.65.3-.97.9-.97,1.8v4.84c0,.93.33,1.54.99,1.82.66.28,1.45.42,2.37.42h2.14c.95,0,1.72-.16,2.29-.47.58-.32.87-.91.87-1.77v-4.84c0-.96-.35-1.58-1.04-1.85-.7-.27-1.54-.4-2.52-.4h-1.63c-1.02,0-1.85.15-2.5.45Z"/>
        <path d="M195.26,56.31c-.07.03.19-.11.76-.42.58-.32,1.28-.67,2.12-1.05.83-.38,1.69-.74,2.57-1.07.88-.33,1.63-.5,2.24-.5.68,0,1.22.22,1.63.65s.61,1.23.61,2.39v3.74c0,.27-.1.5-.31.7-.2.2-.44.3-.71.3h-3.57v-2.25c0-.57-.31-.85-.92-.85-.37,0-.79.07-1.25.2-.46.13-.9.29-1.33.47-.42.18-.81.37-1.15.55-.34.18-.58.32-.71.42v10.93c0,.27-.1.5-.31.7-.2.2-.44.3-.71.3h-2.55c-.27,0-.51-.1-.71-.3-.2-.2-.31-.43-.31-.7v-16.47c0-.27.1-.5.31-.7.2-.2.44-.3.71-.3h3.57v3.24Z"/>
        <path d="M210.27,54.26c.9-.8,1.98-1.2,3.24-1.2h5.61c1.73,0,3.02.38,3.85,1.12s1.25,1.66,1.25,2.72c0,.83-.23,1.69-.69,2.57-.46.88-1.13,1.73-2.01,2.54-.88.81-1.97,1.57-3.26,2.27-1.29.7-2.77,1.28-4.44,1.75.34.5.79.86,1.35,1.07.56.22,1.2.32,1.91.32,1.05,0,2.14-.16,3.26-.47s2.07-.66,2.85-1.02l1.02,3.59c-1.26.57-2.57,1.04-3.95,1.42-1.38.38-2.8.57-4.26.57-.95,0-1.86-.12-2.73-.37-.87-.25-1.62-.67-2.27-1.25-.65-.58-1.16-1.34-1.53-2.27-.37-.93-.56-2.1-.56-3.49v-6.59c0-1.4.45-2.5,1.35-3.29ZM214.83,62.1c.54-.23,1.1-.55,1.68-.95.58-.4,1.15-.9,1.71-1.5.56-.6,1.03-1.3,1.4-2.1h-6.12v4.99c.34-.07.78-.22,1.33-.45Z"/>
        <path d="M238.49,70.53c0,.27-.1.5-.31.7-.2.2-.44.3-.71.3h-2.55c-.27,0-.51-.1-.71-.3-.2-.2-.31-.43-.31-.7v-24.45c0-.27.1-.5.31-.7.2-.2.44-.3.71-.3h9.07c1.5,0,2.82.26,3.98.77,1.16.52,2.12,1.2,2.91,2.05.78.85,1.38,1.81,1.78,2.89s.61,2.19.61,3.32c0,1.03-.18,2.04-.54,3.02-.36.98-.92,1.85-1.68,2.62-.76.76-1.73,1.38-2.91,1.85-1.17.47-2.56.7-4.15.7h-5.51v8.23ZM247.59,56.66c.73-.76,1.1-1.61,1.1-2.54,0-.57-.1-1.12-.31-1.67-.2-.55-.49-1.03-.87-1.45-.37-.42-.85-.76-1.43-1.02-.58-.27-1.22-.4-1.94-.4h-5.66v8.23h5.66c1.56,0,2.71-.38,3.44-1.15Z"/>
        <path d="M269.13,53.54c.99.32,1.85.77,2.6,1.37s1.33,1.33,1.76,2.2.64,1.85.64,2.94v4.49c0,1.1-.21,2.08-.64,2.94-.42.87-1.01,1.6-1.76,2.2-.75.6-1.61,1.06-2.6,1.37-.99.32-2.04.47-3.16.47h-1.53c-1.12,0-2.18-.16-3.16-.47-.99-.32-1.85-.77-2.6-1.37-.75-.6-1.33-1.33-1.76-2.2-.42-.86-.64-1.85-.64-2.94v-4.49c0-1.1.21-2.08.64-2.94s1.01-1.6,1.76-2.2,1.61-1.06,2.6-1.37c.99-.32,2.04-.47,3.16-.47h1.53c1.12,0,2.18.16,3.16.47ZM261.84,58.06c-.65.3-.97.9-.97,1.8v4.84c0,.93.33,1.54.99,1.82.66.28,1.45.42,2.37.42h2.14c.95,0,1.72-.16,2.29-.47.58-.32.87-.91.87-1.77v-4.84c0-.96-.35-1.58-1.04-1.85-.7-.27-1.54-.4-2.52-.4h-1.63c-1.02,0-1.85.15-2.5.45Z"/>
        <path d="M294.21,53.37c.17.2.29.43.36.7l3.01,12.47,3.31-12.47c.07-.27.19-.5.36-.7.17-.2.39-.3.66-.3h3.98l-4.59,17.46c-.07.27-.19.5-.36.7-.17.2-.39.3-.66.3h-5.86c-.27,0-.49-.1-.66-.3-.17-.2-.29-.43-.36-.7l-2.19-9.18-2.19,9.18c-.07.27-.19.5-.36.7-.17.2-.39.3-.66.3h-5.86c-.27,0-.49-.1-.66-.3-.17-.2-.29-.43-.36-.7l-4.59-17.46h3.98c.27,0,.49.1.66.3s.29.43.36.7l3.26,12.47,3.01-12.47c.07-.27.19-.5.36-.7s.39-.3.66-.3h4.74c.27,0,.49.1.66.3Z"/>
        <path d="M310.15,54.26c.9-.8,1.98-1.2,3.24-1.2h5.61c1.73,0,3.02.38,3.85,1.12s1.25,1.66,1.25,2.72c0,.83-.23,1.69-.69,2.57-.46.88-1.13,1.73-2.01,2.54-.88.81-1.97,1.57-3.26,2.27-1.29.7-2.77,1.28-4.44,1.75.34.5.79.86,1.35,1.07.56.22,1.2.32,1.91.32,1.05,0,2.14-.16,3.26-.47s2.07-.66,2.85-1.02l1.02,3.59c-1.26.57-2.57,1.04-3.95,1.42-1.38.38-2.8.57-4.26.57-.95,0-1.86-.12-2.73-.37-.87-.25-1.62-.67-2.27-1.25-.65-.58-1.16-1.34-1.53-2.27-.37-.93-.56-2.1-.56-3.49v-6.59c0-1.4.45-2.5,1.35-3.29ZM314.71,62.1c.54-.23,1.1-.55,1.68-.95.58-.4,1.15-.9,1.71-1.5.56-.6,1.03-1.3,1.4-2.1h-6.12v4.99c.34-.07.78-.22,1.33-.45Z"/>
        <path d="M332.25,56.31c-.07.03.19-.11.76-.42.58-.32,1.28-.67,2.12-1.05.83-.38,1.69-.74,2.57-1.07.88-.33,1.63-.5,2.24-.5.68,0,1.22.22,1.63.65s.61,1.23.61,2.39v3.74c0,.27-.1.5-.31.7-.2.2-.44.3-.71.3h-3.57v-2.25c0-.57-.31-.85-.92-.85-.37,0-.79.07-1.25.2-.46.13-.9.29-1.33.47-.42.18-.81.37-1.15.55-.34.18-.58.32-.71.42v10.93c0,.27-.1.5-.31.7-.2.2-.44.3-.71.3h-2.55c-.27,0-.51-.1-.71-.3-.2-.2-.31-.43-.31-.7v-16.47c0-.27.1-.5.31-.7.2-.2.44-.3.71-.3h3.57v3.24Z"/>
        <path d="M348.25,61.25c-.2-.2-.31-.43-.31-.7v-3.74c0-.27.1-.5.31-.7s.44-.3.71-.3h3.82c.27,0,.51.1.71.3.2.2.31.43.31.7v3.74c0,.27-.1.5-.31.7-.2.2-.44.3-.71.3h-3.82c-.27,0-.51-.1-.71-.3ZM348.25,71.23c-.2-.2-.31-.43-.31-.7v-3.74c0-.27.1-.5.31-.7.2-.2.44-.3.71-.3h3.82c.27,0,.51.1.71.3.2.2.31.43.31.7v3.74c0,.27-.1.5-.31.7-.2.2-.44.3-.71.3h-3.82c-.27,0-.51-.1-.71-.3Z"/>
        <path d="M161.51,96.84c.2-.2.44-.3.71-.3h2.55c.27,0,.51.1.71.3.2.2.31.43.31.7v.7c0,1.2-.25,2.26-.76,3.19s-1.18,1.72-2.01,2.37c-.83.65-1.78,1.14-2.83,1.47-1.05.33-2.14.5-3.26.5s-2.22-.17-3.29-.5c-1.07-.33-2.03-.82-2.88-1.47-.85-.65-1.53-1.44-2.04-2.37s-.76-2-.76-3.19v-11.43c0-1.2.25-2.26.76-3.19.51-.93,1.19-1.72,2.04-2.37.85-.65,1.81-1.14,2.88-1.47,1.07-.33,2.17-.5,3.29-.5s2.21.17,3.26.5c1.05.33,2,.82,2.83,1.47.83.65,1.5,1.44,2.01,2.37.51.93.76,2,.76,3.19v.75c0,.27-.1.5-.31.7s-.44.3-.71.3h-2.55c-.27,0-.51-.1-.71-.3-.2-.2-.31-.43-.31-.7v-1.15c0-.43-.12-.81-.36-1.12s-.56-.58-.97-.8c-.41-.22-.88-.38-1.4-.5-.53-.12-1.06-.17-1.61-.17s-1.07.06-1.58.17c-.51.12-.97.28-1.38.5-.41.22-.74.48-.99.8s-.38.69-.38,1.12v12.22c0,.43.13.81.38,1.15.25.33.59.61.99.82.41.22.87.38,1.38.5s1.04.17,1.58.17,1.08-.06,1.61-.17.99-.28,1.4-.5c.41-.22.73-.49.97-.82.24-.33.36-.72.36-1.15v-1.1c0-.27.1-.5.31-.7Z"/>
        <path d="M182.15,87.78c.99.32,1.85.77,2.6,1.37s1.33,1.33,1.76,2.2.64,1.85.64,2.94v4.49c0,1.1-.21,2.08-.64,2.94-.42.87-1.01,1.6-1.76,2.2-.75.6-1.61,1.06-2.6,1.37-.99.32-2.04.47-3.16.47h-1.53c-1.12,0-2.18-.16-3.16-.47-.99-.32-1.85-.77-2.6-1.37-.75-.6-1.33-1.33-1.76-2.2-.42-.86-.64-1.85-.64-2.94v-4.49c0-1.1.21-2.08.64-2.94s1.01-1.6,1.76-2.2,1.61-1.06,2.6-1.37c.99-.32,2.04-.47,3.16-.47h1.53c1.12,0,2.18.16,3.16.47ZM174.86,92.3c-.65.3-.97.9-.97,1.8v4.84c0,.93.33,1.54.99,1.82.66.28,1.45.42,2.37.42h2.14c.95,0,1.72-.16,2.29-.47.58-.32.87-.91.87-1.77v-4.84c0-.96-.35-1.58-1.04-1.85-.7-.27-1.54-.4-2.52-.4h-1.63c-1.02,0-1.85.15-2.5.45Z"/>
        <path d="M195.26,89.56c.95-.67,1.99-1.21,3.11-1.62s2.23-.62,3.31-.62c.71,0,1.39.12,2.04.35.65.23,1.21.62,1.68,1.15.48.53.86,1.24,1.15,2.12.29.88.43,1.95.43,3.22v10.63c0,.27-.1.5-.31.7-.2.2-.44.3-.71.3h-2.55c-.27,0-.51-.1-.71-.3-.2-.2-.31-.43-.31-.7v-10.58c0-.96-.31-1.64-.94-2.02s-1.38-.57-2.27-.57c-.71,0-1.43.09-2.14.27-.71.18-1.31.41-1.78.67v12.22c0,.27-.1.5-.31.7-.2.2-.44.3-.71.3h-2.55c-.27,0-.51-.1-.71-.3-.2-.2-.31-.43-.31-.7v-16.47c0-.27.1-.5.31-.7.2-.2.44-.3.71-.3h3.57v2.25Z"/>
        <path d="M215.5,105.47c-.2.2-.44.3-.71.3h-2.55c-.27,0-.51-.1-.71-.3-.2-.2-.31-.43-.31-.7v-19.51c0-1.16.19-2.12.56-2.87.37-.75.86-1.35,1.45-1.8s1.27-.76,2.01-.95c.75-.18,1.51-.27,2.29-.27.95,0,1.86.09,2.73.27.87.18,1.59.41,2.17.67v3.99c-.31-.1-.88-.26-1.71-.47-.83-.22-1.64-.32-2.42-.32-.68,0-1.27.12-1.76.37-.49.25-.74.72-.74,1.42v5.49h5.51v4.49h-5.51v9.48c0,.27-.1.5-.31.7Z"/>
        <path d="M230.43,79.63c.2.2.31.43.31.7v2.25c0,.27-.1.5-.31.7-.2.2-.44.3-.71.3h-2.55c-.27,0-.51-.1-.71-.3-.2-.2-.31-.43-.31-.7v-2.25c0-.27.1-.5.31-.7.2-.2.44-.3.71-.3h2.55c.27,0,.51.1.71.3ZM230.43,87.61c.2.2.31.43.31.7v16.47c0,.27-.1.5-.31.7-.2.2-.44.3-.71.3h-2.55c-.27,0-.51-.1-.71-.3-.2-.2-.31-.43-.31-.7v-16.47c0-.27.1-.5.31-.7.2-.2.44-.3.71-.3h2.55c.27,0,.51.1.71.3Z"/>
        <path d="M246.54,80.32c0-.27.1-.5.31-.7.2-.2.44-.3.71-.3h2.55c.27,0,.51.1.71.3.2.2.31.43.31.7v24.45c0,.27-.1.5-.31.7-.2.2-.44.3-.71.3h-6.53c-1.5,0-2.82-.27-3.98-.8-1.16-.53-2.12-1.22-2.91-2.07-.78-.85-1.38-1.81-1.78-2.89s-.61-2.19-.61-3.32c0-1.03.18-2.04.54-3.02.36-.98.92-1.85,1.68-2.59.76-.75,1.73-1.36,2.91-1.82s2.56-.7,4.15-.7h2.96v-8.23ZM240.02,94.17c-.75.75-1.12,1.59-1.12,2.52,0,.57.1,1.12.31,1.67.2.55.5,1.04.89,1.47.39.43.87.78,1.43,1.05.56.27,1.21.4,1.96.4h3.06v-8.23h-3.06c-1.56,0-2.72.37-3.47,1.12Z"/>
        <path d="M256.56,88.51c.9-.8,1.98-1.2,3.24-1.2h5.61c1.73,0,3.02.38,3.85,1.12s1.25,1.66,1.25,2.72c0,.83-.23,1.69-.69,2.57-.46.88-1.13,1.73-2.01,2.54-.88.81-1.97,1.57-3.26,2.27-1.29.7-2.77,1.28-4.44,1.75.34.5.79.86,1.35,1.07.56.22,1.2.32,1.91.32,1.05,0,2.14-.16,3.26-.47s2.07-.66,2.85-1.02l1.02,3.59c-1.26.57-2.57,1.04-3.95,1.42-1.38.38-2.8.57-4.26.57-.95,0-1.86-.12-2.73-.37-.87-.25-1.62-.67-2.27-1.25-.65-.58-1.16-1.34-1.53-2.27-.37-.93-.56-2.1-.56-3.49v-6.59c0-1.4.45-2.5,1.35-3.29ZM261.13,96.34c.54-.23,1.1-.55,1.68-.95.58-.4,1.15-.9,1.71-1.5.56-.6,1.03-1.3,1.4-2.1h-6.12v4.99c.34-.07.78-.22,1.33-.45Z"/>
        <path d="M278.66,89.56c.95-.67,1.99-1.21,3.11-1.62s2.23-.62,3.31-.62c.71,0,1.39.12,2.04.35.65.23,1.21.62,1.68,1.15.48.53.86,1.24,1.15,2.12.29.88.43,1.95.43,3.22v10.63c0,.27-.1.5-.31.7-.2.2-.44.3-.71.3h-2.55c-.27,0-.51-.1-.71-.3-.2-.2-.31-.43-.31-.7v-10.58c0-.96-.31-1.64-.94-2.02s-1.38-.57-2.27-.57c-.71,0-1.43.09-2.14.27-.71.18-1.31.41-1.78.67v12.22c0,.27-.1.5-.31.7-.2.2-.44.3-.71.3h-2.55c-.27,0-.51-.1-.71-.3-.2-.2-.31-.43-.31-.7v-16.47c0-.27.1-.5.31-.7.2-.2.44-.3.71-.3h3.57v2.25Z"/>
        <path d="M309.92,98.79c0,1.1-.21,2.08-.64,2.94-.42.87-1.01,1.6-1.76,2.2-.75.6-1.61,1.06-2.6,1.37-.99.32-2.04.47-3.16.47h.51c-1.12,0-2.17-.16-3.16-.47-.99-.32-1.85-.77-2.6-1.37-.75-.6-1.33-1.33-1.76-2.2-.42-.86-.64-1.85-.64-2.94v-4.49c0-1.1.21-2.08.64-2.94s1.01-1.6,1.76-2.2c.75-.6,1.61-1.06,2.6-1.37.99-.32,2.04-.47,3.16-.47h-.51c1.12,0,2.18.16,3.16.47.99.32,1.85.77,2.6,1.37s1.33,1.33,1.76,2.2.64,1.85.64,2.94v.5h-4.59v-.7c0-.96-.35-1.58-1.05-1.85-.7-.27-1.54-.4-2.52-.4h.41c-1.02,0-1.85.15-2.5.45-.65.3-.97.9-.97,1.8v4.84c0,.93.37,1.54,1.12,1.82.75.28,1.58.42,2.5.42h-.66c.95,0,1.8-.16,2.55-.47.75-.32,1.12-.91,1.12-1.77v-.65h4.59v.5Z"/>
        <path d="M314.84,88.51c.9-.8,1.98-1.2,3.24-1.2h5.61c1.73,0,3.02.38,3.85,1.12s1.25,1.66,1.25,2.72c0,.83-.23,1.69-.69,2.57-.46.88-1.13,1.73-2.01,2.54-.88.81-1.97,1.57-3.26,2.27-1.29.7-2.77,1.28-4.44,1.75.34.5.79.86,1.35,1.07.56.22,1.2.32,1.91.32,1.05,0,2.14-.16,3.26-.47s2.07-.66,2.85-1.02l1.02,3.59c-1.26.57-2.57,1.04-3.95,1.42-1.38.38-2.8.57-4.26.57-.95,0-1.86-.12-2.73-.37-.87-.25-1.62-.67-2.27-1.25-.65-.58-1.16-1.34-1.53-2.27-.37-.93-.56-2.1-.56-3.49v-6.59c0-1.4.45-2.5,1.35-3.29ZM319.4,96.34c.54-.23,1.1-.55,1.68-.95.58-.4,1.15-.9,1.71-1.5.56-.6,1.03-1.3,1.4-2.1h-6.12v4.99c.34-.07.78-.22,1.33-.45Z"/>
      </g>
      <g>
        <path d="M163.04,146.02c-.54.88-1.25,1.59-2.12,2.12s-1.85.9-2.96,1.1c-1.1.2-2.22.3-3.34.3s-2.27-.08-3.34-.25c-1.07-.17-1.98-.38-2.73-.65l1.33-4.04c.37.07,1.05.18,2.04.35.99.17,2.02.25,3.11.25.54,0,1.07-.03,1.58-.1s.96-.19,1.35-.38c.39-.18.71-.44.94-.77.24-.33.36-.75.36-1.25,0-.53-.29-1.08-.87-1.65-.58-.57-1.31-1.15-2.19-1.75s-1.84-1.23-2.85-1.9-1.97-1.38-2.85-2.15c-.88-.76-1.61-1.58-2.19-2.44-.58-.87-.87-1.8-.87-2.79,0-1.36.26-2.49.79-3.39.53-.9,1.22-1.61,2.06-2.12.85-.51,1.81-.88,2.88-1.1,1.07-.22,2.17-.32,3.29-.32,1.19,0,2.34.09,3.44.27,1.1.18,2.05.38,2.83.57l-1.33,4.04c-.37-.07-1.04-.18-1.99-.35s-1.95-.25-3.01-.25c-1.12,0-2.13.17-3.03.52-.9.35-1.35,1.02-1.35,2.02,0,.5.29,1.01.87,1.52.58.51,1.31,1.06,2.19,1.65s1.84,1.21,2.85,1.87c1.02.67,1.97,1.39,2.85,2.17.88.78,1.61,1.63,2.19,2.54s.87,1.9.87,2.97c0,1.36-.27,2.49-.82,3.37Z"/>
        <path d="M171.7,123.39c.2.2.31.43.31.7v8.53c.88-.47,1.83-.85,2.85-1.15,1.02-.3,2-.45,2.96-.45.82,0,1.58.11,2.29.32.71.22,1.33.62,1.86,1.2.53.58.95,1.36,1.27,2.32.32.96.48,2.2.48,3.69v9.98c0,.27-.1.5-.31.7-.2.2-.44.3-.71.3h-2.55c-.27,0-.51-.1-.71-.3-.2-.2-.31-.43-.31-.7v-10.93c0-.83-.35-1.41-1.05-1.75-.7-.33-1.42-.5-2.17-.5s-1.43.11-2.14.32c-.71.22-1.31.49-1.78.82v12.02c0,.27-.1.5-.31.7-.2.2-.44.3-.71.3h-2.55c-.27,0-.51-.1-.71-.3-.2-.2-.31-.43-.31-.7v-24.45c0-.27.1-.5.31-.7.2-.2.44-.3.71-.3h2.55c.27,0,.51.1.71.3Z"/>
        <path d="M188.66,132.27c.9-.8,1.98-1.2,3.24-1.2h5.61c1.73,0,3.02.38,3.85,1.12s1.25,1.66,1.25,2.72c0,.83-.23,1.69-.69,2.57-.46.88-1.13,1.73-2.01,2.54-.88.81-1.97,1.57-3.26,2.27-1.29.7-2.77,1.28-4.44,1.75.34.5.79.86,1.35,1.07.56.22,1.2.32,1.91.32,1.05,0,2.14-.16,3.26-.47s2.07-.66,2.85-1.02l1.02,3.59c-1.26.57-2.57,1.04-3.95,1.42-1.38.38-2.8.57-4.26.57-.95,0-1.86-.12-2.73-.37-.87-.25-1.62-.67-2.27-1.25-.65-.58-1.16-1.34-1.53-2.27-.37-.93-.56-2.1-.56-3.49v-6.59c0-1.4.45-2.5,1.35-3.29ZM193.22,140.11c.54-.23,1.1-.55,1.68-.95.58-.4,1.15-.9,1.71-1.5.56-.6,1.03-1.3,1.4-2.1h-6.12v4.99c.34-.07.78-.22,1.33-.45Z"/>
        <path d="M213.64,132.27c.9-.8,1.98-1.2,3.24-1.2h5.61c1.73,0,3.02.38,3.85,1.12s1.25,1.66,1.25,2.72c0,.83-.23,1.69-.69,2.57-.46.88-1.13,1.73-2.01,2.54-.88.81-1.97,1.57-3.26,2.27-1.29.7-2.77,1.28-4.44,1.75.34.5.79.86,1.35,1.07.56.22,1.2.32,1.91.32,1.05,0,2.14-.16,3.26-.47s2.07-.66,2.85-1.02l1.02,3.59c-1.26.57-2.57,1.04-3.95,1.42-1.38.38-2.8.57-4.26.57-.95,0-1.86-.12-2.73-.37-.87-.25-1.62-.67-2.27-1.25-.65-.58-1.16-1.34-1.53-2.27-.37-.93-.56-2.1-.56-3.49v-6.59c0-1.4.45-2.5,1.35-3.29ZM218.2,140.11c.54-.23,1.1-.55,1.68-.95.58-.4,1.15-.9,1.71-1.5.56-.6,1.03-1.3,1.4-2.1h-6.12v4.99c.34-.07.78-.22,1.33-.45Z"/>
        <path d="M235.74,133.87c1.09-.73,2.26-1.38,3.52-1.95,1.26-.57,2.45-.85,3.57-.85.88,0,1.65.22,2.29.67.65.45,1.14,1.21,1.48,2.27,1.16-.73,2.4-1.41,3.75-2.02,1.34-.62,2.61-.92,3.8-.92s2.12.44,2.88,1.32c.77.88,1.15,2.44,1.15,4.67v11.48c0,.27-.1.5-.31.7-.2.2-.44.3-.71.3h-2.55c-.27,0-.51-.1-.71-.3-.2-.2-.31-.43-.31-.7v-10.63c0-.86-.25-1.46-.74-1.8-.49-.33-1.08-.5-1.76-.5-.71,0-1.44.12-2.19.37-.75.25-1.39.54-1.94.87v11.68c0,.27-.1.5-.31.7-.2.2-.44.3-.71.3h-2.55c-.27,0-.51-.1-.71-.3-.2-.2-.31-.43-.31-.7v-10.63c0-.86-.25-1.46-.74-1.8-.49-.33-1.08-.5-1.76-.5-.71,0-1.44.12-2.19.37-.75.25-1.39.54-1.94.87v11.68c0,.27-.1.5-.31.7-.2.2-.44.3-.71.3h-2.55c-.27,0-.51-.1-.71-.3-.2-.2-.31-.43-.31-.7v-16.47c0-.27.1-.5.31-.7.2-.2.44-.3.71-.3h3.57v2.79Z"/>
        <path d="M266.53,123.39c.2.2.31.43.31.7v2.25c0,.27-.1.5-.31.7-.2.2-.44.3-.71.3h-2.55c-.27,0-.51-.1-.71-.3-.2-.2-.31-.43-.31-.7v-2.25c0-.27.1-.5.31-.7.2-.2.44-.3.71-.3h2.55c.27,0,.51.1.71.3ZM266.53,131.38c.2.2.31.43.31.7v16.47c0,.27-.1.5-.31.7-.2.2-.44.3-.71.3h-2.55c-.27,0-.51-.1-.71-.3-.2-.2-.31-.43-.31-.7v-16.47c0-.27.1-.5.31-.7.2-.2.44-.3.71-.3h2.55c.27,0,.51.1.71.3Z"/>
        <path d="M275.2,123.39c.2.2.31.43.31.7v3.09h4.74c.27,0,.51.1.71.3.2.2.31.43.31.7v2.74c0,.27-.1.5-.31.7-.2.2-.44.3-.71.3h-4.74v9.18c0,.73.11,1.34.33,1.82.22.48.51.87.87,1.15.36.28.77.48,1.25.6.48.12.99.17,1.53.17.2,0,.42-.02.64-.05.22-.03.43-.05.64-.05l1.02,4.34c-1.22.3-2.36.45-3.42.45s-2.08-.16-2.98-.47c-.9-.32-1.68-.81-2.35-1.47-.66-.67-1.18-1.54-1.55-2.62-.37-1.08-.56-2.37-.56-3.87v-17.01c0-.27.1-.5.31-.7.2-.2.44-.3.71-.3h2.55c.27,0,.51.1.71.3Z"/>
        <path d="M296.56,135.89c-1.29-.28-2.58-.42-3.87-.42-.78,0-1.44.07-1.99.2s-.82.37-.82.7.32.62.97.85c.65.23,1.45.47,2.42.72.97.25,2.01.53,3.14.85,1.12.32,2.17.7,3.14,1.15.97.45,1.78,1.01,2.42,1.67.65.67.97,1.48.97,2.45,0,1.03-.21,1.9-.64,2.59-.42.7-1,1.26-1.73,1.7-.73.43-1.58.74-2.55.92s-1.98.27-3.03.27c-1.73,0-3.47-.19-5.2-.57-1.73-.38-3.25-.86-4.54-1.42l1.58-3.94c.41.23.94.46,1.61.67.66.22,1.38.41,2.17.57s1.58.3,2.4.4c.82.1,1.58.15,2.29.15.99,0,1.75-.09,2.29-.27.54-.18.82-.41.82-.67,0-.33-.32-.62-.97-.87-.65-.25-1.45-.52-2.42-.8-.97-.28-2.02-.59-3.16-.92-1.14-.33-2.19-.75-3.16-1.25s-1.78-1.09-2.42-1.77c-.65-.68-.97-1.52-.97-2.52s.23-1.78.69-2.44c.46-.67,1.07-1.21,1.84-1.62s1.67-.71,2.7-.9c1.04-.18,2.12-.27,3.24-.27,1.43,0,2.7.13,3.82.4,1.12.27,2.36.63,3.72,1.1l-.87,4.39c-1.29-.43-2.58-.79-3.87-1.07Z"/>
        <path d="M312.9,141.46c.39-.67,1.02-1.25,1.89-1.75.87-.5,1.98-.9,3.34-1.2,1.36-.3,2.99-.45,4.89-.45,0-1.06-.33-1.8-.99-2.22-.66-.42-1.54-.62-2.63-.62-.99,0-2.04.14-3.16.42-1.12.28-2.09.61-2.91.97l-1.02-3.54c1.29-.57,2.63-1.04,4-1.42s2.78-.57,4.21-.57c.95,0,1.86.12,2.73.38.87.25,1.62.66,2.27,1.22.65.57,1.16,1.31,1.53,2.25.37.93.56,2.09.56,3.49v10.13c0,.27-.1.5-.31.7-.2.2-.44.3-.71.3h-10.2c-1.12,0-2.08-.39-2.88-1.17-.8-.78-1.2-1.72-1.2-2.82v-2c0-.73.2-1.43.59-2.1ZM323.02,141.55c-.51,0-1.11.03-1.81.08s-1.37.16-2.01.32c-.65.17-1.19.42-1.63.75-.44.33-.66.78-.66,1.35v.75h6.12v-3.24Z"/>
        <path d="M336.27,133.32c.95-.67,1.99-1.21,3.11-1.62s2.23-.62,3.31-.62c.71,0,1.39.12,2.04.35.65.23,1.21.62,1.68,1.15.48.53.86,1.24,1.15,2.12.29.88.43,1.95.43,3.22v10.63c0,.27-.1.5-.31.7-.2.2-.44.3-.71.3h-2.55c-.27,0-.51-.1-.71-.3-.2-.2-.31-.43-.31-.7v-10.58c0-.96-.31-1.64-.94-2.02s-1.38-.57-2.27-.57c-.71,0-1.43.09-2.14.27-.71.18-1.31.41-1.78.67v12.22c0,.27-.1.5-.31.7-.2.2-.44.3-.71.3h-2.55c-.27,0-.51-.1-.71-.3-.2-.2-.31-.43-.31-.7v-16.47c0-.27.1-.5.31-.7.2-.2.44-.3.71-.3h3.57v2.25Z"/>
        <path d="M362.63,123.39c.2.2.31.43.31.7v2.25c0,.27-.1.5-.31.7-.2.2-.44.3-.71.3h-2.55c-.27,0-.51-.1-.71-.3-.2-.2-.31-.43-.31-.7v-2.25c0-.27.1-.5.31-.7.2-.2.44-.3.71-.3h2.55c.27,0,.51.1.71.3ZM362.63,131.38c.2.2.31.43.31.7v16.47c0,.27-.1.5-.31.7-.2.2-.44.3-.71.3h-2.55c-.27,0-.51-.1-.71-.3-.2-.2-.31-.43-.31-.7v-16.47c0-.27.1-.5.31-.7.2-.2.44-.3.71-.3h2.55c.27,0,.51.1.71.3Z"/>
        <path d="M371.6,133.32c.95-.67,1.99-1.21,3.11-1.62s2.23-.62,3.31-.62c.71,0,1.39.12,2.04.35.65.23,1.21.62,1.68,1.15.48.53.86,1.24,1.15,2.12.29.88.43,1.95.43,3.22v10.63c0,.27-.1.5-.31.7-.2.2-.44.3-.71.3h-2.55c-.27,0-.51-.1-.71-.3-.2-.2-.31-.43-.31-.7v-10.58c0-.96-.31-1.64-.94-2.02s-1.38-.57-2.27-.57c-.71,0-1.43.09-2.14.27-.71.18-1.31.41-1.78.67v12.22c0,.27-.1.5-.31.7-.2.2-.44.3-.71.3h-2.55c-.27,0-.51-.1-.71-.3-.2-.2-.31-.43-.31-.7v-16.47c0-.27.1-.5.31-.7.2-.2.44-.3.71-.3h3.57v2.25Z"/>
        <path d="M391.64,149.24c-.17-.2-.29-.43-.36-.7l-4.84-17.46h3.77c.27,0,.49.1.66.3.17.2.29.43.36.7l3.62,12.77,3.57-12.77c.07-.27.19-.5.36-.7.17-.2.39-.3.66-.3h3.82l-4.89,17.46c-.07.27-.19.5-.36.7-.17.2-.39.3-.66.3h-5.05c-.27,0-.49-.1-.66-.3Z"/>
        <path d="M410.45,123.39c.2.2.31.43.31.7v2.25c0,.27-.1.5-.31.7-.2.2-.44.3-.71.3h-2.55c-.27,0-.51-.1-.71-.3-.21-.2-.31-.43-.31-.7v-2.25c0-.27.1-.5.31-.7.2-.2.44-.3.71-.3h2.55c.27,0,.51.1.71.3ZM410.45,131.38c.2.2.31.43.31.7v16.47c0,.27-.1.5-.31.7-.2.2-.44.3-.71.3h-2.55c-.27,0-.51-.1-.71-.3-.21-.2-.31-.43-.31-.7v-16.47c0-.27.1-.5.31-.7.2-.2.44-.3.71-.3h2.55c.27,0,.51.1.71.3Z"/>
        <path d="M425.8,135.89c-1.29-.28-2.58-.42-3.87-.42-.78,0-1.45.07-1.99.2-.54.13-.82.37-.82.7s.32.62.97.85c.65.23,1.45.47,2.42.72.97.25,2.01.53,3.13.85,1.12.32,2.17.7,3.13,1.15.97.45,1.78,1.01,2.42,1.67.65.67.97,1.48.97,2.45,0,1.03-.21,1.9-.64,2.59-.43.7-1,1.26-1.73,1.7-.73.43-1.58.74-2.55.92s-1.98.27-3.03.27c-1.73,0-3.47-.19-5.2-.57-1.73-.38-3.25-.86-4.54-1.42l1.58-3.94c.41.23.94.46,1.61.67.66.22,1.38.41,2.17.57s1.58.3,2.4.4c.82.1,1.58.15,2.29.15.99,0,1.75-.09,2.29-.27.54-.18.82-.41.82-.67,0-.33-.32-.62-.97-.87-.65-.25-1.45-.52-2.42-.8-.97-.28-2.02-.59-3.16-.92-1.14-.33-2.19-.75-3.16-1.25s-1.78-1.09-2.42-1.77c-.65-.68-.97-1.52-.97-2.52s.23-1.78.69-2.44c.46-.67,1.07-1.21,1.84-1.62s1.67-.71,2.7-.9c1.04-.18,2.12-.27,3.24-.27,1.43,0,2.7.13,3.82.4,1.12.27,2.36.63,3.72,1.1l-.87,4.39c-1.29-.43-2.58-.79-3.87-1.07Z"/>
        <path d="M440.23,123.39c.2.2.31.43.31.7v2.25c0,.27-.1.5-.31.7-.2.2-.44.3-.71.3h-2.55c-.27,0-.51-.1-.71-.3-.21-.2-.31-.43-.31-.7v-2.25c0-.27.1-.5.31-.7.2-.2.44-.3.71-.3h2.55c.27,0,.51.1.71.3ZM440.23,131.38c.2.2.31.43.31.7v16.47c0,.27-.1.5-.31.7-.2.2-.44.3-.71.3h-2.55c-.27,0-.51-.1-.71-.3-.21-.2-.31-.43-.31-.7v-16.47c0-.27.1-.5.31-.7.2-.2.44-.3.71-.3h2.55c.27,0,.51.1.71.3Z"/>
        <path d="M456.31,133.02c1.17.47,2.14,1.07,2.91,1.82.76.75,1.32,1.61,1.68,2.59s.54,1.99.54,3.02c0,1.13-.2,2.24-.61,3.32s-1,2.05-1.79,2.89c-.78.85-1.75,1.54-2.91,2.07-1.16.53-2.48.8-3.98.8h-6.53c-.27,0-.51-.1-.71-.3-.2-.2-.31-.43-.31-.7v-24.45c0-.27.1-.5.31-.7.2-.2.44-.3.71-.3h2.55c.27,0,.51.1.71.3.2.2.31.43.31.7v8.23h2.96c1.6,0,2.98.23,4.16.7ZM449.2,145.05h3.11c.71,0,1.36-.13,1.94-.4.58-.27,1.05-.62,1.43-1.05s.66-.92.87-1.47c.21-.55.31-1.11.31-1.67,0-.93-.37-1.77-1.1-2.52-.73-.75-1.88-1.12-3.44-1.12h-3.11v8.23Z"/>
        <path d="M469.29,123.39c.2.2.31.43.31.7v24.45c0,.27-.1.5-.31.7-.2.2-.44.3-.71.3h-2.55c-.27,0-.51-.1-.71-.3-.2-.2-.31-.43-.31-.7v-24.45c0-.27.1-.5.31-.7.2-.2.44-.3.71-.3h2.55c.27,0,.51.1.71.3Z"/>
        <path d="M475.02,132.27c.9-.8,1.98-1.2,3.24-1.2h5.61c1.73,0,3.02.38,3.85,1.12s1.25,1.66,1.25,2.72c0,.83-.23,1.69-.69,2.57s-1.13,1.73-2.01,2.54c-.88.81-1.97,1.57-3.26,2.27-1.29.7-2.77,1.28-4.44,1.75.34.5.79.86,1.35,1.07.56.22,1.2.32,1.91.32,1.05,0,2.14-.16,3.26-.47,1.12-.32,2.07-.66,2.85-1.02l1.02,3.59c-1.26.57-2.57,1.04-3.95,1.42-1.38.38-2.8.57-4.26.57-.95,0-1.86-.12-2.73-.37-.87-.25-1.62-.67-2.27-1.25-.65-.58-1.16-1.34-1.53-2.27-.37-.93-.56-2.1-.56-3.49v-6.59c0-1.4.45-2.5,1.35-3.29ZM479.58,140.11c.54-.23,1.1-.55,1.68-.95.58-.4,1.15-.9,1.71-1.5.56-.6,1.03-1.3,1.4-2.1h-6.12v4.99c.34-.07.78-.22,1.33-.45Z"/>
        <path d="M500,132.27c.9-.8,1.98-1.2,3.24-1.2h5.61c1.73,0,3.02.38,3.85,1.12.83.75,1.25,1.66,1.25,2.72,0,.83-.23,1.69-.69,2.57-.46.88-1.13,1.73-2.01,2.54-.88.81-1.97,1.57-3.26,2.27-1.29.7-2.77,1.28-4.44,1.75.34.5.79.86,1.35,1.07.56.22,1.2.32,1.91.32,1.05,0,2.14-.16,3.26-.47s2.07-.66,2.86-1.02l1.02,3.59c-1.26.57-2.57,1.04-3.95,1.42-1.38.38-2.79.57-4.26.57-.95,0-1.86-.12-2.73-.37-.87-.25-1.62-.67-2.27-1.25-.65-.58-1.16-1.34-1.53-2.27-.37-.93-.56-2.1-.56-3.49v-6.59c0-1.4.45-2.5,1.35-3.29ZM504.56,140.11c.54-.23,1.1-.55,1.68-.95.58-.4,1.15-.9,1.71-1.5s1.03-1.3,1.4-2.1h-6.12v4.99c.34-.07.78-.22,1.33-.45Z"/>
        <path d="M522.1,133.32c.95-.67,1.99-1.21,3.11-1.62,1.12-.42,2.23-.62,3.31-.62.71,0,1.39.12,2.04.35.65.23,1.21.62,1.68,1.15.47.53.86,1.24,1.15,2.12.29.88.43,1.95.43,3.22v10.63c0,.27-.1.5-.31.7-.2.2-.44.3-.71.3h-2.55c-.27,0-.51-.1-.71-.3-.2-.2-.3-.43-.3-.7v-10.58c0-.96-.31-1.64-.94-2.02s-1.38-.57-2.27-.57c-.71,0-1.43.09-2.14.27-.71.18-1.31.41-1.78.67v12.22c0,.27-.1.5-.31.7-.2.2-.44.3-.71.3h-2.55c-.27,0-.51-.1-.71-.3-.2-.2-.31-.43-.31-.7v-16.47c0-.27.1-.5.31-.7.2-.2.44-.3.71-.3h3.57v2.25Z"/>
        <path d="M539.41,132.27c.9-.8,1.98-1.2,3.24-1.2h5.61c1.73,0,3.02.38,3.85,1.12.83.75,1.25,1.66,1.25,2.72,0,.83-.23,1.69-.69,2.57s-1.13,1.73-2.01,2.54c-.88.81-1.97,1.57-3.26,2.27-1.29.7-2.77,1.28-4.44,1.75.34.5.79.86,1.35,1.07.56.22,1.2.32,1.91.32,1.05,0,2.14-.16,3.26-.47s2.07-.66,2.85-1.02l1.02,3.59c-1.26.57-2.57,1.04-3.95,1.42-1.38.38-2.8.57-4.26.57-.95,0-1.86-.12-2.73-.37-.87-.25-1.62-.67-2.27-1.25-.65-.58-1.16-1.34-1.53-2.27-.37-.93-.56-2.1-.56-3.49v-6.59c0-1.4.45-2.5,1.35-3.29ZM543.97,140.11c.54-.23,1.1-.55,1.68-.95.58-.4,1.15-.9,1.71-1.5.56-.6,1.03-1.3,1.4-2.1h-6.12v4.99c.34-.07.78-.22,1.33-.45Z"/>
        <path d="M561.51,134.32c-.07.03.19-.11.76-.42.58-.32,1.28-.67,2.12-1.05.83-.38,1.69-.74,2.57-1.07.88-.33,1.63-.5,2.24-.5.68,0,1.22.22,1.63.65s.61,1.23.61,2.39v3.74c0,.27-.1.5-.31.7-.2.2-.44.3-.71.3h-3.57v-2.25c0-.57-.31-.85-.92-.85-.37,0-.79.07-1.25.2-.46.13-.9.29-1.32.47-.43.18-.81.37-1.15.55-.34.18-.58.32-.71.42v10.93c0,.27-.1.5-.31.7-.2.2-.44.3-.71.3h-2.55c-.27,0-.51-.1-.71-.3-.2-.2-.31-.43-.31-.7v-16.47c0-.27.1-.5.31-.7.2-.2.44-.3.71-.3h3.57v3.24Z"/>
        <path d="M575.99,148.24c-.88-.87-1.33-1.93-1.33-3.19v-5.49c0-1.46.22-2.73.66-3.79s1.04-1.95,1.78-2.64c.75-.7,1.61-1.21,2.6-1.55.99-.33,2.04-.5,3.16-.5,1.29,0,2.58.21,3.87.62,1.29.42,2.53,1.04,3.72,1.87v15.97c0,2.69-.68,4.7-2.04,6.01-1.36,1.31-3.21,1.97-5.56,1.97-1.09,0-2.2-.12-3.34-.35-1.14-.23-2.42-.58-3.85-1.05l1.53-3.99c.75.3,1.56.57,2.45.8.88.23,1.72.35,2.5.35,1.05,0,1.94-.26,2.65-.77.71-.52,1.07-1.5,1.07-2.97h-6.63c-1.29,0-2.38-.43-3.26-1.3ZM585.88,136.07c-.88-.33-1.85-.5-2.91-.5-.99,0-1.85.32-2.6.95-.75.63-1.12,1.65-1.12,3.04v5.49h6.63v-8.98Z"/>
        <path d="M608.31,155.55c-1.36,1.31-3.21,1.97-5.56,1.97-1.09,0-2.2-.12-3.34-.35-1.14-.23-2.42-.58-3.85-1.05l1.53-3.99c.75.3,1.56.57,2.45.8.88.23,1.72.35,2.5.35,1.02,0,1.89-.27,2.63-.8.73-.53,1.1-1.51,1.1-2.94v-1.55c-2.07,1.16-4.01,1.75-5.81,1.75-1.6,0-2.9-.57-3.9-1.72-1-1.15-1.5-2.97-1.5-5.46v-10.48c0-.27.1-.5.31-.7.2-.2.44-.3.71-.3h2.55c.27,0,.51.1.71.3.2.2.31.43.31.7v11.23c0,.77.22,1.3.66,1.6.44.3,1,.45,1.68.45.75,0,1.53-.12,2.34-.37.82-.25,1.46-.54,1.94-.87v-12.03c0-.27.1-.5.31-.7.2-.2.44-.3.71-.3h2.55c.27,0,.51.1.71.3.2.2.31.43.31.7v17.46c0,2.69-.68,4.7-2.04,6.01Z"/>
        <path d="M624.83,149.24c-.2.2-.44.3-.71.3h-2.55c-.27,0-.51-.1-.71-.3-.21-.2-.31-.43-.31-.7v-19.51c0-1.16.19-2.12.56-2.87.37-.75.86-1.35,1.45-1.8s1.27-.76,2.01-.95c.75-.18,1.51-.27,2.29-.27.95,0,1.86.09,2.73.27.87.18,1.59.41,2.17.67v3.99c-.31-.1-.88-.26-1.71-.47-.83-.22-1.64-.32-2.42-.32-.68,0-1.27.12-1.76.37-.49.25-.74.72-.74,1.42v5.49h5.51v4.49h-5.51v9.48c0,.27-.1.5-.31.7Z"/>
        <path d="M639.77,123.39c.2.2.31.43.31.7v2.25c0,.27-.1.5-.31.7-.2.2-.44.3-.71.3h-2.55c-.27,0-.51-.1-.71-.3-.21-.2-.31-.43-.31-.7v-2.25c0-.27.1-.5.31-.7.2-.2.44-.3.71-.3h2.55c.27,0,.51.1.71.3ZM639.77,131.38c.2.2.31.43.31.7v16.47c0,.27-.1.5-.31.7-.2.2-.44.3-.71.3h-2.55c-.27,0-.51-.1-.71-.3-.21-.2-.31-.43-.31-.7v-16.47c0-.27.1-.5.31-.7.2-.2.44-.3.71-.3h2.55c.27,0,.51.1.71.3Z"/>
        <path d="M645.5,132.27c.9-.8,1.98-1.2,3.24-1.2h5.61c1.73,0,3.02.38,3.85,1.12s1.25,1.66,1.25,2.72c0,.83-.23,1.69-.69,2.57-.46.88-1.13,1.73-2.01,2.54-.88.81-1.97,1.57-3.26,2.27-1.29.7-2.77,1.28-4.44,1.75.34.5.79.86,1.35,1.07.56.22,1.2.32,1.91.32,1.05,0,2.14-.16,3.26-.47,1.12-.32,2.07-.66,2.86-1.02l1.02,3.59c-1.26.57-2.57,1.04-3.95,1.42-1.38.38-2.79.57-4.26.57-.95,0-1.86-.12-2.73-.37-.87-.25-1.62-.67-2.27-1.25-.65-.58-1.16-1.34-1.53-2.27-.38-.93-.56-2.1-.56-3.49v-6.59c0-1.4.45-2.5,1.35-3.29ZM650.07,140.11c.54-.23,1.11-.55,1.68-.95.58-.4,1.15-.9,1.71-1.5s1.03-1.3,1.4-2.1h-6.12v4.99c.34-.07.78-.22,1.32-.45Z"/>
        <path d="M667.3,123.39c.2.2.31.43.31.7v24.45c0,.27-.1.5-.31.7-.2.2-.44.3-.71.3h-2.55c-.27,0-.51-.1-.71-.3-.2-.2-.31-.43-.31-.7v-24.45c0-.27.1-.5.31-.7.2-.2.44-.3.71-.3h2.55c.27,0,.51.1.71.3Z"/>
        <path d="M683.41,124.09c0-.27.1-.5.31-.7s.44-.3.71-.3h2.55c.27,0,.51.1.71.3.2.2.31.43.31.7v24.45c0,.27-.1.5-.31.7-.2.2-.44.3-.71.3h-6.53c-1.5,0-2.82-.27-3.98-.8-1.16-.53-2.12-1.22-2.91-2.07-.78-.85-1.38-1.81-1.79-2.89-.41-1.08-.61-2.19-.61-3.32,0-1.03.18-2.04.54-3.02.36-.98.92-1.85,1.68-2.59.76-.75,1.73-1.36,2.91-1.82,1.17-.47,2.56-.7,4.16-.7h2.96v-8.23ZM676.88,137.94c-.75.75-1.12,1.59-1.12,2.52,0,.57.1,1.12.31,1.67.2.55.5,1.04.89,1.47.39.43.87.78,1.43,1.05.56.27,1.21.4,1.96.4h3.06v-8.23h-3.06c-1.56,0-2.72.37-3.47,1.12Z"/>
        <path d="M152.23,165.31c.2.2.31.43.31.7v3.09h4.74c.27,0,.51.1.71.3.2.2.31.43.31.7v2.74c0,.27-.1.5-.31.7-.2.2-.44.3-.71.3h-4.74v9.18c0,.73.11,1.34.33,1.82.22.48.51.87.87,1.15.36.28.77.48,1.25.6.48.12.99.17,1.53.17.2,0,.42-.02.64-.05.22-.03.43-.05.64-.05l1.02,4.34c-1.22.3-2.36.45-3.42.45s-2.08-.16-2.98-.47c-.9-.32-1.68-.81-2.35-1.47-.66-.67-1.18-1.54-1.55-2.62-.37-1.08-.56-2.37-.56-3.87v-17.01c0-.27.1-.5.31-.7.2-.2.44-.3.71-.3h2.55c.27,0,.51.1.71.3Z"/>
        <path d="M166.91,165.31c.2.2.31.43.31.7v8.53c.88-.47,1.83-.85,2.85-1.15,1.02-.3,2-.45,2.96-.45.82,0,1.58.11,2.29.32.71.22,1.33.62,1.86,1.2.53.58.95,1.36,1.27,2.32.32.96.48,2.2.48,3.69v9.98c0,.27-.1.5-.31.7-.2.2-.44.3-.71.3h-2.55c-.27,0-.51-.1-.71-.3-.2-.2-.31-.43-.31-.7v-10.93c0-.83-.35-1.41-1.05-1.75-.7-.33-1.42-.5-2.17-.5s-1.43.11-2.14.32c-.71.22-1.31.49-1.78.82v12.02c0,.27-.1.5-.31.7-.2.2-.44.3-.71.3h-2.55c-.27,0-.51-.1-.71-.3-.2-.2-.31-.43-.31-.7v-24.45c0-.27.1-.5.31-.7.2-.2.44-.3.71-.3h2.55c.27,0,.51.1.71.3Z"/>
        <path d="M182.59,183.37c.39-.67,1.02-1.25,1.89-1.75.87-.5,1.98-.9,3.34-1.2,1.36-.3,2.99-.45,4.89-.45,0-1.06-.33-1.8-.99-2.22-.66-.42-1.54-.62-2.63-.62-.99,0-2.04.14-3.16.42-1.12.28-2.09.61-2.91.97l-1.02-3.54c1.29-.57,2.63-1.04,4-1.42s2.78-.57,4.21-.57c.95,0,1.86.12,2.73.38.87.25,1.62.66,2.27,1.22.65.57,1.16,1.31,1.53,2.25.37.93.56,2.09.56,3.49v10.13c0,.27-.1.5-.31.7-.2.2-.44.3-.71.3h-10.2c-1.12,0-2.08-.39-2.88-1.17-.8-.78-1.2-1.72-1.2-2.82v-2c0-.73.2-1.43.59-2.1ZM192.71,183.47c-.51,0-1.11.03-1.81.08s-1.37.16-2.01.32c-.65.17-1.19.42-1.63.75-.44.33-.66.78-.66,1.35v.75h6.12v-3.24Z"/>
        <path d="M205.66,165.31c.2.2.31.43.31.7v3.09h4.74c.27,0,.51.1.71.3.2.2.31.43.31.7v2.74c0,.27-.1.5-.31.7-.2.2-.44.3-.71.3h-4.74v9.18c0,.73.11,1.34.33,1.82.22.48.51.87.87,1.15.36.28.77.48,1.25.6.48.12.99.17,1.53.17.2,0,.42-.02.64-.05.22-.03.43-.05.64-.05l1.02,4.34c-1.22.3-2.36.45-3.42.45s-2.08-.16-2.98-.47c-.9-.32-1.68-.81-2.35-1.47-.66-.67-1.18-1.54-1.55-2.62-.37-1.08-.56-2.37-.56-3.87v-17.01c0-.27.1-.5.31-.7.2-.2.44-.3.71-.3h2.55c.27,0,.51.1.71.3Z"/>
        <path d="M233.88,174.94c1.17.47,2.14,1.07,2.91,1.82.76.75,1.33,1.61,1.68,2.59s.54,1.99.54,3.02c0,1.13-.2,2.24-.61,3.32-.41,1.08-1,2.05-1.78,2.89-.78.85-1.75,1.54-2.91,2.07-1.16.53-2.48.8-3.98.8h-6.53c-.27,0-.51-.1-.71-.3-.2-.2-.31-.43-.31-.7v-24.45c0-.27.1-.5.31-.7.2-.2.44-.3.71-.3h2.55c.27,0,.51.1.71.3.2.2.31.43.31.7v8.23h2.96c1.6,0,2.98.23,4.16.7ZM226.76,186.96h3.11c.71,0,1.36-.13,1.94-.4.58-.27,1.05-.62,1.43-1.05.37-.43.66-.92.87-1.47.2-.55.31-1.11.31-1.67,0-.93-.37-1.77-1.1-2.52-.73-.75-1.88-1.12-3.44-1.12h-3.11v8.23Z"/>
        <path d="M254.85,173.47c.99.32,1.85.77,2.6,1.37s1.33,1.33,1.76,2.2.64,1.85.64,2.94v4.49c0,1.1-.21,2.08-.64,2.94-.42.87-1.01,1.6-1.76,2.2-.75.6-1.61,1.06-2.6,1.37-.99.32-2.04.47-3.16.47h-1.53c-1.12,0-2.18-.16-3.16-.47-.99-.32-1.85-.77-2.6-1.37-.75-.6-1.33-1.33-1.76-2.2-.42-.86-.64-1.85-.64-2.94v-4.49c0-1.1.21-2.08.64-2.94s1.01-1.6,1.76-2.2,1.61-1.06,2.6-1.37c.99-.32,2.04-.47,3.16-.47h1.53c1.12,0,2.18.16,3.16.47ZM247.56,177.98c-.65.3-.97.9-.97,1.8v4.84c0,.93.33,1.54.99,1.82.66.28,1.45.42,2.37.42h2.14c.95,0,1.72-.16,2.29-.47.58-.32.87-.91.87-1.77v-4.84c0-.96-.35-1.58-1.04-1.85-.7-.27-1.54-.4-2.52-.4h-1.63c-1.02,0-1.85.15-2.5.45Z"/>
        <path d="M275.66,173.47c.99.32,1.85.77,2.6,1.37s1.33,1.33,1.76,2.2.64,1.85.64,2.94v4.49c0,1.1-.21,2.08-.64,2.94-.42.87-1.01,1.6-1.76,2.2-.75.6-1.61,1.06-2.6,1.37-.99.32-2.04.47-3.16.47h-1.53c-1.12,0-2.18-.16-3.16-.47-.99-.32-1.85-.77-2.6-1.37-.75-.6-1.33-1.33-1.76-2.2-.42-.86-.64-1.85-.64-2.94v-4.49c0-1.1.21-2.08.64-2.94s1.01-1.6,1.76-2.2,1.61-1.06,2.6-1.37c.99-.32,2.04-.47,3.16-.47h1.53c1.12,0,2.18.16,3.16.47ZM268.37,177.98c-.65.3-.97.9-.97,1.8v4.84c0,.93.33,1.54.99,1.82.66.28,1.45.42,2.37.42h2.14c.95,0,1.72-.16,2.29-.47.58-.32.87-.91.87-1.77v-4.84c0-.96-.35-1.58-1.04-1.85-.7-.27-1.54-.4-2.52-.4h-1.63c-1.02,0-1.85.15-2.5.45Z"/>
        <path d="M295.13,177.81c-1.29-.28-2.58-.42-3.87-.42-.78,0-1.44.07-1.99.2s-.82.37-.82.7.32.62.97.85c.65.23,1.45.47,2.42.72.97.25,2.01.53,3.14.85,1.12.32,2.17.7,3.14,1.15.97.45,1.78,1.01,2.42,1.67.65.67.97,1.48.97,2.45,0,1.03-.21,1.9-.64,2.59-.42.7-1,1.26-1.73,1.7-.73.43-1.58.74-2.55.92s-1.98.27-3.03.27c-1.73,0-3.47-.19-5.2-.57-1.73-.38-3.25-.86-4.54-1.42l1.58-3.94c.41.23.94.46,1.61.67.66.22,1.38.41,2.17.57.78.17,1.58.3,2.4.4.82.1,1.58.15,2.29.15.99,0,1.75-.09,2.29-.27.54-.18.82-.41.82-.67,0-.33-.32-.62-.97-.87-.65-.25-1.45-.52-2.42-.8-.97-.28-2.02-.59-3.16-.92-1.14-.33-2.19-.75-3.16-1.25s-1.78-1.09-2.42-1.77c-.65-.68-.97-1.52-.97-2.52s.23-1.78.69-2.44c.46-.67,1.07-1.21,1.84-1.62s1.67-.71,2.7-.9c1.04-.18,2.12-.27,3.24-.27,1.43,0,2.7.13,3.82.4,1.12.27,2.36.63,3.72,1.1l-.87,4.39c-1.29-.43-2.58-.79-3.87-1.07Z"/>
        <path d="M309.56,165.31c.2.2.31.43.31.7v3.09h4.74c.27,0,.51.1.71.3.2.2.31.43.31.7v2.74c0,.27-.1.5-.31.7-.2.2-.44.3-.71.3h-4.74v9.18c0,.73.11,1.34.33,1.82.22.48.51.87.87,1.15.36.28.77.48,1.25.6.48.12.99.17,1.53.17.2,0,.42-.02.64-.05.22-.03.43-.05.64-.05l1.02,4.34c-1.22.3-2.36.45-3.42.45s-2.08-.16-2.98-.47c-.9-.32-1.68-.81-2.35-1.47-.66-.67-1.18-1.54-1.55-2.62-.37-1.08-.56-2.37-.56-3.87v-17.01c0-.27.1-.5.31-.7.2-.2.44-.3.71-.3h2.55c.27,0,.51.1.71.3Z"/>
        <path d="M330.92,177.81c-1.29-.28-2.58-.42-3.87-.42-.78,0-1.44.07-1.99.2s-.82.37-.82.7.32.62.97.85c.65.23,1.45.47,2.42.72.97.25,2.01.53,3.14.85,1.12.32,2.17.7,3.14,1.15.97.45,1.78,1.01,2.42,1.67.65.67.97,1.48.97,2.45,0,1.03-.21,1.9-.64,2.59-.42.7-1,1.26-1.73,1.7-.73.43-1.58.74-2.55.92s-1.98.27-3.03.27c-1.73,0-3.47-.19-5.2-.57-1.73-.38-3.25-.86-4.54-1.42l1.58-3.94c.41.23.94.46,1.61.67.66.22,1.38.41,2.17.57.78.17,1.58.3,2.4.4.82.1,1.58.15,2.29.15.99,0,1.75-.09,2.29-.27.54-.18.82-.41.82-.67,0-.33-.32-.62-.97-.87-.65-.25-1.45-.52-2.42-.8-.97-.28-2.02-.59-3.16-.92-1.14-.33-2.19-.75-3.16-1.25s-1.78-1.09-2.42-1.77c-.65-.68-.97-1.52-.97-2.52s.23-1.78.69-2.44c.46-.67,1.07-1.21,1.84-1.62s1.67-.71,2.7-.9c1.04-.18,2.12-.27,3.24-.27,1.43,0,2.7.13,3.82.4,1.12.27,2.36.63,3.72,1.1l-.87,4.39c-1.29-.43-2.58-.79-3.87-1.07Z"/>
        <path d="M358.14,177.81c-1.29-.28-2.58-.42-3.87-.42-.78,0-1.44.07-1.99.2s-.82.37-.82.7.32.62.97.85c.65.23,1.45.47,2.42.72.97.25,2.01.53,3.14.85,1.12.32,2.17.7,3.14,1.15.97.45,1.78,1.01,2.42,1.67.65.67.97,1.48.97,2.45,0,1.03-.21,1.9-.64,2.59-.42.7-1,1.26-1.73,1.7-.73.43-1.58.74-2.55.92s-1.98.27-3.03.27c-1.73,0-3.47-.19-5.2-.57-1.73-.38-3.25-.86-4.54-1.42l1.58-3.94c.41.23.94.46,1.61.67.66.22,1.38.41,2.17.57.78.17,1.58.3,2.4.4.82.1,1.58.15,2.29.15.99,0,1.75-.09,2.29-.27.54-.18.82-.41.82-.67,0-.33-.32-.62-.97-.87-.65-.25-1.45-.52-2.42-.8-.97-.28-2.02-.59-3.16-.92-1.14-.33-2.19-.75-3.16-1.25s-1.78-1.09-2.42-1.77c-.65-.68-.97-1.52-.97-2.52s.23-1.78.69-2.44c.46-.67,1.07-1.21,1.84-1.62s1.67-.71,2.7-.9c1.04-.18,2.12-.27,3.24-.27,1.43,0,2.7.13,3.82.4,1.12.27,2.36.63,3.72,1.1l-.87,4.39c-1.29-.43-2.58-.79-3.87-1.07Z"/>
        <path d="M369.64,174.19c.9-.8,1.98-1.2,3.24-1.2h5.61c1.73,0,3.02.38,3.85,1.12s1.25,1.66,1.25,2.72c0,.83-.23,1.69-.69,2.57-.46.88-1.13,1.73-2.01,2.54-.88.81-1.97,1.57-3.26,2.27-1.29.7-2.77,1.28-4.44,1.75.34.5.79.86,1.35,1.07.56.22,1.2.32,1.91.32,1.05,0,2.14-.16,3.26-.47s2.07-.66,2.85-1.02l1.02,3.59c-1.26.57-2.57,1.04-3.95,1.42-1.38.38-2.8.57-4.26.57-.95,0-1.86-.12-2.73-.37-.87-.25-1.62-.67-2.27-1.25-.65-.58-1.16-1.34-1.53-2.27-.37-.93-.56-2.1-.56-3.49v-6.59c0-1.4.45-2.5,1.35-3.29ZM374.2,182.02c.54-.23,1.1-.55,1.68-.95.58-.4,1.15-.9,1.71-1.5.56-.6,1.03-1.3,1.4-2.1h-6.12v4.99c.34-.07.78-.22,1.33-.45Z"/>
        <path d="M391.44,165.31c.2.2.31.43.31.7v24.45c0,.27-.1.5-.31.7-.2.2-.44.3-.71.3h-2.55c-.27,0-.51-.1-.71-.3-.2-.2-.31-.43-.31-.7v-24.45c0-.27.1-.5.31-.7.2-.2.44-.3.71-.3h2.55c.27,0,.51.1.71.3Z"/>
        <path d="M400.1,191.16c-.2.2-.44.3-.71.3h-2.55c-.27,0-.51-.1-.71-.3-.21-.2-.31-.43-.31-.7v-19.51c0-1.16.19-2.12.56-2.87.37-.75.86-1.35,1.45-1.8s1.27-.76,2.01-.95c.75-.18,1.51-.27,2.29-.27.95,0,1.86.09,2.73.27.87.18,1.59.41,2.17.67v3.99c-.31-.1-.88-.26-1.71-.47-.83-.22-1.64-.32-2.42-.32-.68,0-1.27.12-1.76.37-.49.25-.74.72-.74,1.42v5.49h5.51v4.49h-5.51v9.48c0,.27-.1.5-.31.7Z"/>
        <path d="M412.8,181.97h15.29v4.49h-15.29v-4.49Z"/>
        <path d="M435.56,174.19c.9-.8,1.98-1.2,3.24-1.2h5.61c1.73,0,3.02.38,3.85,1.12s1.25,1.66,1.25,2.72c0,.83-.23,1.69-.69,2.57-.46.88-1.13,1.73-2.01,2.54-.88.81-1.97,1.57-3.26,2.27-1.29.7-2.77,1.28-4.44,1.75.34.5.79.86,1.35,1.07.56.22,1.2.32,1.91.32,1.05,0,2.14-.16,3.26-.47,1.12-.32,2.07-.66,2.86-1.02l1.02,3.59c-1.26.57-2.57,1.04-3.95,1.42-1.38.38-2.79.57-4.26.57-.95,0-1.86-.12-2.73-.37-.87-.25-1.62-.67-2.27-1.25-.65-.58-1.16-1.34-1.53-2.27-.38-.93-.56-2.1-.56-3.49v-6.59c0-1.4.45-2.5,1.35-3.29ZM440.12,182.02c.54-.23,1.11-.55,1.68-.95.58-.4,1.15-.9,1.71-1.5s1.03-1.3,1.4-2.1h-6.12v4.99c.34-.07.78-.22,1.32-.45Z"/>
        <path d="M464.03,177.81c-1.29-.28-2.58-.42-3.87-.42-.78,0-1.45.07-1.99.2-.54.13-.82.37-.82.7s.32.62.97.85c.65.23,1.45.47,2.42.72.97.25,2.01.53,3.13.85,1.12.32,2.17.7,3.13,1.15.97.45,1.78,1.01,2.42,1.67.65.67.97,1.48.97,2.45,0,1.03-.21,1.9-.64,2.59-.43.7-1,1.26-1.73,1.7-.73.43-1.58.74-2.55.92s-1.98.27-3.03.27c-1.73,0-3.47-.19-5.2-.57-1.73-.38-3.25-.86-4.54-1.42l1.58-3.94c.41.23.94.46,1.61.67.66.22,1.38.41,2.17.57.78.17,1.58.3,2.4.4.82.1,1.58.15,2.29.15.99,0,1.75-.09,2.29-.27.54-.18.82-.41.82-.67,0-.33-.32-.62-.97-.87-.65-.25-1.45-.52-2.42-.8-.97-.28-2.02-.59-3.16-.92-1.14-.33-2.19-.75-3.16-1.25s-1.78-1.09-2.42-1.77c-.65-.68-.97-1.52-.97-2.52s.23-1.78.69-2.44c.46-.67,1.07-1.21,1.84-1.62s1.67-.71,2.7-.9c1.04-.18,2.12-.27,3.24-.27,1.43,0,2.7.13,3.82.4,1.12.27,2.36.63,3.72,1.1l-.87,4.39c-1.29-.43-2.58-.79-3.87-1.07Z"/>
        <path d="M478.46,165.31c.2.2.31.43.31.7v3.09h4.74c.27,0,.51.1.71.3.2.2.31.43.31.7v2.74c0,.27-.1.5-.31.7-.2.2-.44.3-.71.3h-4.74v9.18c0,.73.11,1.34.33,1.82s.51.87.87,1.15c.36.28.77.48,1.25.6.48.12.99.17,1.53.17.2,0,.42-.02.64-.05.22-.03.43-.05.64-.05l1.02,4.34c-1.22.3-2.36.45-3.42.45s-2.08-.16-2.98-.47c-.9-.32-1.68-.81-2.35-1.47-.66-.67-1.18-1.54-1.55-2.62-.37-1.08-.56-2.37-.56-3.87v-17.01c0-.27.1-.5.31-.7.2-.2.44-.3.71-.3h2.55c.27,0,.51.1.71.3Z"/>
        <path d="M490.21,174.19c.9-.8,1.98-1.2,3.24-1.2h5.61c1.73,0,3.02.38,3.85,1.12s1.25,1.66,1.25,2.72c0,.83-.23,1.69-.69,2.57-.46.88-1.13,1.73-2.01,2.54-.88.81-1.97,1.57-3.26,2.27-1.29.7-2.77,1.28-4.44,1.75.34.5.79.86,1.35,1.07.56.22,1.2.32,1.91.32,1.05,0,2.14-.16,3.26-.47,1.12-.32,2.07-.66,2.86-1.02l1.02,3.59c-1.26.57-2.57,1.04-3.95,1.42-1.38.38-2.79.57-4.26.57-.95,0-1.86-.12-2.73-.37-.87-.25-1.62-.67-2.27-1.25-.65-.58-1.16-1.34-1.53-2.27-.38-.93-.56-2.1-.56-3.49v-6.59c0-1.4.45-2.5,1.35-3.29ZM494.78,182.02c.54-.23,1.11-.55,1.68-.95.58-.4,1.15-.9,1.71-1.5s1.03-1.3,1.4-2.1h-6.12v4.99c.34-.07.78-.22,1.32-.45Z"/>
        <path d="M509.08,174.19c.9-.8,1.98-1.2,3.24-1.2h5.61c1.73,0,3.02.38,3.85,1.12s1.25,1.66,1.25,2.72c0,.83-.23,1.69-.69,2.57-.46.88-1.13,1.73-2.01,2.54-.88.81-1.97,1.57-3.26,2.27-1.29.7-2.77,1.28-4.44,1.75.34.5.79.86,1.35,1.07.56.22,1.2.32,1.91.32,1.05,0,2.14-.16,3.26-.47,1.12-.32,2.07-.66,2.86-1.02l1.02,3.59c-1.26.57-2.57,1.04-3.95,1.42-1.38.38-2.79.57-4.26.57-.95,0-1.86-.12-2.73-.37-.87-.25-1.62-.67-2.27-1.25-.65-.58-1.16-1.34-1.53-2.27-.38-.93-.56-2.1-.56-3.49v-6.59c0-1.4.45-2.5,1.35-3.29ZM513.64,182.02c.54-.23,1.11-.55,1.68-.95.58-.4,1.15-.9,1.71-1.5s1.03-1.3,1.4-2.1h-6.12v4.99c.34-.07.78-.22,1.32-.45Z"/>
        <path d="M531.18,175.79c1.09-.73,2.26-1.38,3.52-1.95,1.26-.57,2.45-.85,3.57-.85.88,0,1.65.22,2.29.67s1.14,1.21,1.48,2.27c1.16-.73,2.41-1.41,3.75-2.02,1.34-.62,2.61-.92,3.8-.92s2.12.44,2.88,1.32c.77.88,1.15,2.44,1.15,4.67v11.48c0,.27-.1.5-.31.7-.2.2-.44.3-.71.3h-2.55c-.27,0-.51-.1-.71-.3-.2-.2-.31-.43-.31-.7v-10.63c0-.86-.25-1.46-.74-1.8-.49-.33-1.08-.5-1.76-.5-.71,0-1.44.12-2.19.37-.75.25-1.39.54-1.94.87v11.68c0,.27-.1.5-.31.7-.2.2-.44.3-.71.3h-2.55c-.27,0-.51-.1-.71-.3-.2-.2-.31-.43-.31-.7v-10.63c0-.86-.25-1.46-.74-1.8-.49-.33-1.08-.5-1.76-.5-.71,0-1.44.12-2.19.37-.75.25-1.39.54-1.94.87v11.68c0,.27-.1.5-.31.7-.2.2-.44.3-.71.3h-2.55c-.27,0-.51-.1-.71-.3-.2-.2-.31-.43-.31-.7v-16.47c0-.27.1-.5.31-.7.2-.2.44-.3.71-.3h3.57v2.79Z"/>
        <path d="M563.88,183.37c.39-.67,1.02-1.25,1.89-1.75.87-.5,1.98-.9,3.34-1.2,1.36-.3,2.99-.45,4.89-.45,0-1.06-.33-1.8-.99-2.22-.66-.42-1.54-.62-2.62-.62-.99,0-2.04.14-3.16.42-1.12.28-2.09.61-2.91.97l-1.02-3.54c1.29-.57,2.62-1.04,4-1.42,1.38-.38,2.78-.57,4.21-.57.95,0,1.86.12,2.73.38.87.25,1.62.66,2.27,1.22.65.57,1.16,1.31,1.53,2.25.37.93.56,2.09.56,3.49v10.13c0,.27-.1.5-.3.7-.21.2-.44.3-.71.3h-10.2c-1.12,0-2.08-.39-2.88-1.17-.8-.78-1.2-1.72-1.2-2.82v-2c0-.73.2-1.43.59-2.1ZM574,183.47c-.51,0-1.11.03-1.81.08s-1.37.16-2.01.32c-.65.17-1.19.42-1.63.75-.44.33-.66.78-.66,1.35v.75h6.12v-3.24Z"/>
        <path d="M587.26,175.24c.95-.67,1.99-1.21,3.11-1.62,1.12-.42,2.23-.62,3.31-.62.71,0,1.39.12,2.04.35.65.23,1.21.62,1.68,1.15.48.53.86,1.24,1.15,2.12.29.88.43,1.95.43,3.22v10.63c0,.27-.1.5-.3.7-.21.2-.44.3-.71.3h-2.55c-.27,0-.51-.1-.71-.3-.2-.2-.31-.43-.31-.7v-10.58c0-.96-.31-1.64-.94-2.02s-1.38-.57-2.27-.57c-.71,0-1.43.09-2.14.27-.71.18-1.31.41-1.78.67v12.22c0,.27-.1.5-.31.7-.2.2-.44.3-.71.3h-2.55c-.27,0-.51-.1-.71-.3-.2-.2-.31-.43-.31-.7v-16.47c0-.27.1-.5.31-.7s.44-.3.71-.3h3.57v2.25Z"/>
        <path d="M614.94,166.01c0-.27.1-.5.31-.7.2-.2.44-.3.71-.3h2.55c.27,0,.51.1.71.3.2.2.31.43.31.7v24.45c0,.27-.1.5-.31.7-.2.2-.44.3-.71.3h-6.53c-1.5,0-2.82-.27-3.98-.8-1.16-.53-2.12-1.22-2.91-2.07-.78-.85-1.38-1.81-1.79-2.89-.41-1.08-.61-2.19-.61-3.32,0-1.03.18-2.04.54-3.02.36-.98.92-1.85,1.68-2.59.76-.75,1.73-1.36,2.91-1.82,1.17-.47,2.56-.7,4.16-.7h2.96v-8.23ZM608.42,179.85c-.75.75-1.12,1.59-1.12,2.52,0,.57.1,1.12.31,1.67.2.55.5,1.04.89,1.47.39.43.87.78,1.43,1.05.56.27,1.21.4,1.96.4h3.06v-8.23h-3.06c-1.56,0-2.72.37-3.47,1.12Z"/>
        <path d="M163.24,226.39c0,1.1-.21,2.08-.64,2.94-.42.87-1.01,1.6-1.76,2.2-.75.6-1.61,1.06-2.6,1.37-.99.32-2.04.47-3.16.47h.51c-1.12,0-2.17-.16-3.16-.47-.99-.32-1.85-.77-2.6-1.37-.75-.6-1.33-1.33-1.76-2.2-.42-.86-.64-1.85-.64-2.94v-4.49c0-1.1.21-2.08.64-2.94s1.01-1.6,1.76-2.2c.75-.6,1.61-1.06,2.6-1.37.99-.32,2.04-.47,3.16-.47h-.51c1.12,0,2.18.16,3.16.47.99.32,1.85.77,2.6,1.37s1.33,1.33,1.76,2.2.64,1.85.64,2.94v.5h-4.59v-.7c0-.96-.35-1.58-1.05-1.85-.7-.27-1.54-.4-2.52-.4h.41c-1.02,0-1.85.15-2.5.45-.65.3-.97.9-.97,1.8v4.84c0,.93.37,1.54,1.12,1.82.75.28,1.58.42,2.5.42h-.66c.95,0,1.8-.16,2.55-.47.75-.32,1.12-.91,1.12-1.77v-.65h4.59v.5Z"/>
        <path d="M179.1,215.39c.99.32,1.85.77,2.6,1.37s1.33,1.33,1.76,2.2.64,1.85.64,2.94v4.49c0,1.1-.21,2.08-.64,2.94-.42.87-1.01,1.6-1.76,2.2-.75.6-1.61,1.06-2.6,1.37-.99.32-2.04.47-3.16.47h-1.53c-1.12,0-2.18-.16-3.16-.47-.99-.32-1.85-.77-2.6-1.37-.75-.6-1.33-1.33-1.76-2.2-.42-.86-.64-1.85-.64-2.94v-4.49c0-1.1.21-2.08.64-2.94s1.01-1.6,1.76-2.2,1.61-1.06,2.6-1.37c.99-.32,2.04-.47,3.16-.47h1.53c1.12,0,2.18.16,3.16.47ZM171.81,219.9c-.65.3-.97.9-.97,1.8v4.84c0,.93.33,1.54.99,1.82.66.28,1.45.42,2.37.42h2.14c.95,0,1.72-.16,2.29-.47.58-.32.87-.91.87-1.77v-4.84c0-.96-.35-1.58-1.04-1.85-.7-.27-1.54-.4-2.52-.4h-1.63c-1.02,0-1.85.15-2.5.45Z"/>
        <path d="M199.34,231.18c-1.09.6-2.19,1.11-3.31,1.55s-2.17.65-3.16.65c-.68,0-1.34-.12-1.99-.35-.65-.23-1.21-.62-1.68-1.15-.48-.53-.86-1.24-1.15-2.12-.29-.88-.43-1.95-.43-3.22v-10.63c0-.27.1-.5.31-.7.2-.2.44-.3.71-.3h2.55c.27,0,.51.1.71.3.2.2.31.43.31.7v10.58c0,.96.32,1.64.97,2.02.65.38,1.41.57,2.29.57.68,0,1.37-.08,2.06-.22s1.3-.37,1.81-.67v-12.27c0-.27.1-.5.31-.7s.44-.3.71-.3h2.55c.27,0,.51.1.71.3.2.2.31.43.31.7v16.47c0,.27-.1.5-.31.7-.2.2-.44.3-.71.3h-3.57v-2.2Z"/>
        <path d="M212.59,218.15c-.07.03.19-.11.76-.42.58-.32,1.28-.67,2.12-1.05.83-.38,1.69-.74,2.57-1.07.88-.33,1.63-.5,2.24-.5.68,0,1.22.22,1.63.65s.61,1.23.61,2.39v3.74c0,.27-.1.5-.31.7-.2.2-.44.3-.71.3h-3.57v-2.25c0-.57-.31-.85-.92-.85-.37,0-.79.07-1.25.2-.46.13-.9.29-1.33.47-.42.18-.81.37-1.15.55-.34.18-.58.32-.71.42v10.93c0,.27-.1.5-.31.7-.2.2-.44.3-.71.3h-2.55c-.27,0-.51-.1-.71-.3-.2-.2-.31-.43-.31-.7v-16.47c0-.27.1-.5.31-.7.2-.2.44-.3.71-.3h3.57v3.24Z"/>
        <path d="M226.33,225.29c.39-.67,1.02-1.25,1.89-1.75.87-.5,1.98-.9,3.34-1.2,1.36-.3,2.99-.45,4.89-.45,0-1.06-.33-1.8-.99-2.22-.66-.42-1.54-.62-2.63-.62-.99,0-2.04.14-3.16.42-1.12.28-2.09.61-2.91.97l-1.02-3.54c1.29-.57,2.63-1.04,4-1.42s2.78-.57,4.21-.57c.95,0,1.86.12,2.73.38.87.25,1.62.66,2.27,1.22.65.57,1.16,1.31,1.53,2.25.37.93.56,2.09.56,3.49v10.13c0,.27-.1.5-.31.7-.2.2-.44.3-.71.3h-10.2c-1.12,0-2.08-.39-2.88-1.17-.8-.78-1.2-1.72-1.2-2.82v-2c0-.73.2-1.43.59-2.1ZM236.45,225.39c-.51,0-1.11.03-1.81.08s-1.37.16-2.01.32c-.65.17-1.19.42-1.63.75-.44.33-.66.78-.66,1.35v.75h6.12v-3.24Z"/>
        <path d="M245.93,232.08c-.88-.87-1.33-1.93-1.33-3.19v-5.49c0-1.46.22-2.73.66-3.79.44-1.06,1.04-1.95,1.78-2.64.75-.7,1.61-1.21,2.6-1.55.99-.33,2.04-.5,3.16-.5,1.29,0,2.58.21,3.87.62s2.53,1.04,3.72,1.87v15.97c0,2.69-.68,4.7-2.04,6.01-1.36,1.31-3.21,1.97-5.56,1.97-1.09,0-2.2-.12-3.34-.35-1.14-.23-2.42-.58-3.85-1.05l1.53-3.99c.75.3,1.56.57,2.45.8.88.23,1.72.35,2.5.35,1.05,0,1.94-.26,2.65-.77s1.07-1.5,1.07-2.97h-6.63c-1.29,0-2.38-.43-3.26-1.3ZM255.82,219.9c-.88-.33-1.85-.5-2.91-.5-.99,0-1.85.32-2.6.95-.75.63-1.12,1.65-1.12,3.04v5.49h6.63v-8.98Z"/>
        <path d="M265.84,216.11c.9-.8,1.98-1.2,3.24-1.2h5.61c1.73,0,3.02.38,3.85,1.12s1.25,1.66,1.25,2.72c0,.83-.23,1.69-.69,2.57-.46.88-1.13,1.73-2.01,2.54-.88.81-1.97,1.57-3.26,2.27-1.29.7-2.77,1.28-4.44,1.75.34.5.79.86,1.35,1.07.56.22,1.2.32,1.91.32,1.05,0,2.14-.16,3.26-.47s2.07-.66,2.85-1.02l1.02,3.59c-1.26.57-2.57,1.04-3.95,1.42-1.38.38-2.8.57-4.26.57-.95,0-1.86-.12-2.73-.37-.87-.25-1.62-.67-2.27-1.25-.65-.58-1.16-1.34-1.53-2.27-.37-.93-.56-2.1-.56-3.49v-6.59c0-1.4.45-2.5,1.35-3.29ZM270.4,223.94c.54-.23,1.1-.55,1.68-.95.58-.4,1.15-.9,1.71-1.5.56-.6,1.03-1.3,1.4-2.1h-6.12v4.99c.34-.07.78-.22,1.33-.45Z"/>
        <path d="M293.75,207.23c.2.2.31.43.31.7v2.25c0,.27-.1.5-.31.7-.2.2-.44.3-.71.3h-2.55c-.27,0-.51-.1-.71-.3-.2-.2-.31-.43-.31-.7v-2.25c0-.27.1-.5.31-.7.2-.2.44-.3.71-.3h2.55c.27,0,.51.1.71.3ZM293.75,215.21c.2.2.31.43.31.7v16.47c0,.27-.1.5-.31.7-.2.2-.44.3-.71.3h-2.55c-.27,0-.51-.1-.71-.3-.2-.2-.31-.43-.31-.7v-16.47c0-.27.1-.5.31-.7.2-.2.44-.3.71-.3h2.55c.27,0,.51.1.71.3Z"/>
        <path d="M302.73,217.16c.95-.67,1.99-1.21,3.11-1.62s2.23-.62,3.31-.62c.71,0,1.39.12,2.04.35.65.23,1.21.62,1.68,1.15.48.53.86,1.24,1.15,2.12.29.88.43,1.95.43,3.22v10.63c0,.27-.1.5-.31.7-.2.2-.44.3-.71.3h-2.55c-.27,0-.51-.1-.71-.3-.2-.2-.31-.43-.31-.7v-10.58c0-.96-.31-1.64-.94-2.02s-1.38-.57-2.27-.57c-.71,0-1.43.09-2.14.27-.71.18-1.31.41-1.78.67v12.22c0,.27-.1.5-.31.7-.2.2-.44.3-.71.3h-2.55c-.27,0-.51-.1-.71-.3-.2-.2-.31-.43-.31-.7v-16.47c0-.27.1-.5.31-.7.2-.2.44-.3.71-.3h3.57v2.25Z"/>
        <path d="M329.08,207.23c.2.2.31.43.31.7v3.09h4.74c.27,0,.51.1.71.3.2.2.31.43.31.7v2.74c0,.27-.1.5-.31.7-.2.2-.44.3-.71.3h-4.74v9.18c0,.73.11,1.34.33,1.82.22.48.51.87.87,1.15.36.28.77.48,1.25.6.48.12.99.17,1.53.17.2,0,.42-.02.64-.05.22-.03.43-.05.64-.05l1.02,4.34c-1.22.3-2.36.45-3.42.45s-2.08-.16-2.98-.47c-.9-.32-1.68-.81-2.35-1.47-.66-.67-1.18-1.54-1.55-2.62-.37-1.08-.56-2.37-.56-3.87v-17.01c0-.27.1-.5.31-.7.2-.2.44-.3.71-.3h2.55c.27,0,.51.1.71.3Z"/>
        <path d="M343.77,207.23c.2.2.31.43.31.7v8.53c.88-.47,1.83-.85,2.85-1.15,1.02-.3,2-.45,2.96-.45.82,0,1.58.11,2.29.32.71.22,1.33.62,1.86,1.2.53.58.95,1.36,1.27,2.32.32.96.48,2.2.48,3.69v9.98c0,.27-.1.5-.31.7-.2.2-.44.3-.71.3h-2.55c-.27,0-.51-.1-.71-.3-.2-.2-.31-.43-.31-.7v-10.93c0-.83-.35-1.41-1.05-1.75-.7-.33-1.42-.5-2.17-.5s-1.43.11-2.14.32c-.71.22-1.31.49-1.78.82v12.02c0,.27-.1.5-.31.7-.2.2-.44.3-.71.3h-2.55c-.27,0-.51-.1-.71-.3-.2-.2-.31-.43-.31-.7v-24.45c0-.27.1-.5.31-.7.2-.2.44-.3.71-.3h2.55c.27,0,.51.1.71.3Z"/>
        <path d="M371.65,215.39c.99.32,1.85.77,2.6,1.37s1.33,1.33,1.76,2.2.64,1.85.64,2.94v4.49c0,1.1-.21,2.08-.64,2.94-.42.87-1.01,1.6-1.76,2.2-.75.6-1.61,1.06-2.6,1.37-.99.32-2.04.47-3.16.47h-1.53c-1.12,0-2.18-.16-3.16-.47-.99-.32-1.85-.77-2.6-1.37-.75-.6-1.33-1.33-1.76-2.2-.42-.86-.64-1.85-.64-2.94v-4.49c0-1.1.21-2.08.64-2.94s1.01-1.6,1.76-2.2,1.61-1.06,2.6-1.37c.99-.32,2.04-.47,3.16-.47h1.53c1.12,0,2.18.16,3.16.47ZM364.36,219.9c-.65.3-.97.9-.97,1.8v4.84c0,.93.33,1.54.99,1.82.66.28,1.45.42,2.37.42h2.14c.95,0,1.72-.16,2.29-.47.58-.32.87-.91.87-1.77v-4.84c0-.96-.35-1.58-1.04-1.85-.7-.27-1.54-.4-2.52-.4h-1.63c-1.02,0-1.85.15-2.5.45Z"/>
        <path d="M391.13,219.73c-1.29-.28-2.58-.42-3.87-.42-.78,0-1.44.07-1.99.2s-.82.37-.82.7.32.62.97.85c.65.23,1.45.47,2.42.72.97.25,2.01.53,3.14.85,1.12.32,2.17.7,3.13,1.15.97.45,1.78,1.01,2.42,1.67.65.67.97,1.48.97,2.45,0,1.03-.21,1.9-.64,2.59-.43.7-1,1.26-1.73,1.7-.73.43-1.58.74-2.55.92-.97.18-1.98.27-3.03.27-1.73,0-3.47-.19-5.2-.57-1.73-.38-3.25-.86-4.54-1.42l1.58-3.94c.41.23.94.46,1.61.67.66.22,1.38.41,2.17.57.78.17,1.58.3,2.4.4.82.1,1.58.15,2.29.15.99,0,1.75-.09,2.29-.27.54-.18.82-.41.82-.67,0-.33-.32-.62-.97-.87-.65-.25-1.45-.52-2.42-.8-.97-.28-2.02-.59-3.16-.92-1.14-.33-2.19-.75-3.16-1.25s-1.78-1.09-2.42-1.77c-.65-.68-.97-1.52-.97-2.52s.23-1.78.69-2.44c.46-.67,1.07-1.21,1.84-1.62s1.67-.71,2.7-.9c1.04-.18,2.12-.27,3.24-.27,1.43,0,2.7.13,3.82.4,1.12.27,2.36.63,3.72,1.1l-.87,4.39c-1.29-.43-2.58-.79-3.87-1.07Z"/>
        <path d="M402.63,216.11c.9-.8,1.98-1.2,3.24-1.2h5.61c1.73,0,3.02.38,3.85,1.12s1.25,1.66,1.25,2.72c0,.83-.23,1.69-.69,2.57s-1.13,1.73-2.01,2.54c-.88.81-1.97,1.57-3.26,2.27-1.29.7-2.77,1.28-4.44,1.75.34.5.79.86,1.35,1.07.56.22,1.2.32,1.91.32,1.05,0,2.14-.16,3.26-.47,1.12-.32,2.07-.66,2.85-1.02l1.02,3.59c-1.26.57-2.57,1.04-3.95,1.42-1.38.38-2.8.57-4.26.57-.95,0-1.86-.12-2.73-.37-.87-.25-1.62-.67-2.27-1.25-.65-.58-1.16-1.34-1.53-2.27-.37-.93-.56-2.1-.56-3.49v-6.59c0-1.4.45-2.5,1.35-3.29ZM407.19,223.94c.54-.23,1.1-.55,1.68-.95.58-.4,1.15-.9,1.71-1.5.56-.6,1.03-1.3,1.4-2.1h-6.12v4.99c.34-.07.78-.22,1.33-.45Z"/>
        <path d="M426.33,225.29c.39-.67,1.02-1.25,1.89-1.75.87-.5,1.98-.9,3.34-1.2,1.36-.3,2.99-.45,4.89-.45,0-1.06-.33-1.8-.99-2.22-.66-.42-1.54-.62-2.62-.62-.99,0-2.04.14-3.16.42-1.12.28-2.09.61-2.91.97l-1.02-3.54c1.29-.57,2.63-1.04,4-1.42s2.78-.57,4.21-.57c.95,0,1.86.12,2.73.38.87.25,1.62.66,2.27,1.22.65.57,1.16,1.31,1.53,2.25.37.93.56,2.09.56,3.49v10.13c0,.27-.1.5-.31.7-.2.2-.44.3-.71.3h-10.2c-1.12,0-2.08-.39-2.88-1.17-.8-.78-1.2-1.72-1.2-2.82v-2c0-.73.2-1.43.59-2.1ZM436.45,225.39c-.51,0-1.11.03-1.81.08-.7.05-1.37.16-2.01.32-.64.17-1.19.42-1.63.75-.44.33-.66.78-.66,1.35v.75h6.12v-3.24Z"/>
        <path d="M449.71,218.15c-.07.03.19-.11.76-.42.58-.32,1.28-.67,2.12-1.05s1.69-.74,2.57-1.07c.88-.33,1.63-.5,2.24-.5.68,0,1.22.22,1.63.65.41.43.61,1.23.61,2.39v3.74c0,.27-.1.5-.31.7-.2.2-.44.3-.71.3h-3.57v-2.25c0-.57-.3-.85-.92-.85-.37,0-.79.07-1.25.2s-.9.29-1.33.47c-.42.18-.81.37-1.15.55-.34.18-.58.32-.71.42v10.93c0,.27-.1.5-.31.7-.2.2-.44.3-.71.3h-2.55c-.27,0-.51-.1-.71-.3-.2-.2-.31-.43-.31-.7v-16.47c0-.27.1-.5.31-.7.2-.2.44-.3.71-.3h3.57v3.24Z"/>
        <path d="M475.66,215.39c.99.32,1.85.77,2.6,1.37s1.33,1.33,1.76,2.2.64,1.85.64,2.94v4.49c0,1.1-.21,2.08-.64,2.94-.42.87-1.01,1.6-1.76,2.2-.75.6-1.61,1.06-2.6,1.37-.99.32-2.04.47-3.16.47h-1.53c-1.12,0-2.17-.16-3.16-.47-.99-.32-1.85-.77-2.6-1.37-.75-.6-1.33-1.33-1.76-2.2-.42-.86-.64-1.85-.64-2.94v-4.49c0-1.1.21-2.08.64-2.94s1.01-1.6,1.76-2.2,1.61-1.06,2.6-1.37c.99-.32,2.04-.47,3.16-.47h1.53c1.12,0,2.17.16,3.16.47ZM468.37,219.9c-.64.3-.97.9-.97,1.8v4.84c0,.93.33,1.54.99,1.82.66.28,1.45.42,2.37.42h2.14c.95,0,1.72-.16,2.29-.47s.87-.91.87-1.77v-4.84c0-.96-.35-1.58-1.04-1.85-.7-.27-1.54-.4-2.52-.4h-1.63c-1.02,0-1.85.15-2.5.45Z"/>
        <path d="M495.9,231.18c-1.09.6-2.19,1.11-3.31,1.55s-2.17.65-3.16.65c-.68,0-1.34-.12-1.99-.35-.65-.23-1.21-.62-1.68-1.15s-.86-1.24-1.15-2.12c-.29-.88-.43-1.95-.43-3.22v-10.63c0-.27.1-.5.31-.7.2-.2.44-.3.71-.3h2.55c.27,0,.51.1.71.3.2.2.31.43.31.7v10.58c0,.96.32,1.64.97,2.02.65.38,1.41.57,2.29.57.68,0,1.37-.08,2.06-.22s1.3-.37,1.81-.67v-12.27c0-.27.1-.5.3-.7.21-.2.44-.3.71-.3h2.55c.27,0,.51.1.71.3.2.2.31.43.31.7v16.47c0,.27-.1.5-.31.7-.2.2-.44.3-.71.3h-3.57v-2.2Z"/>
        <path d="M509.15,217.16c.95-.67,1.99-1.21,3.11-1.62,1.12-.42,2.23-.62,3.31-.62.71,0,1.39.12,2.04.35.65.23,1.21.62,1.68,1.15.47.53.86,1.24,1.15,2.12.29.88.43,1.95.43,3.22v10.63c0,.27-.1.5-.31.7-.2.2-.44.3-.71.3h-2.55c-.27,0-.51-.1-.71-.3-.2-.2-.3-.43-.3-.7v-10.58c0-.96-.31-1.64-.94-2.02s-1.38-.57-2.27-.57c-.71,0-1.43.09-2.14.27-.71.18-1.31.41-1.78.67v12.22c0,.27-.1.5-.31.7-.2.2-.44.3-.71.3h-2.55c-.27,0-.51-.1-.71-.3-.2-.2-.31-.43-.31-.7v-16.47c0-.27.1-.5.31-.7.2-.2.44-.3.71-.3h3.57v2.25Z"/>
        <path d="M536.84,207.93c0-.27.1-.5.31-.7.2-.2.44-.3.71-.3h2.55c.27,0,.51.1.71.3.2.2.3.43.3.7v24.45c0,.27-.1.5-.3.7-.21.2-.44.3-.71.3h-6.53c-1.49,0-2.82-.27-3.98-.8-1.15-.53-2.12-1.22-2.91-2.07-.78-.85-1.38-1.81-1.78-2.89s-.61-2.19-.61-3.32c0-1.03.18-2.04.54-3.02.36-.98.92-1.85,1.68-2.59.77-.75,1.73-1.36,2.91-1.82s2.56-.7,4.15-.7h2.96v-8.23ZM530.31,221.77c-.75.75-1.12,1.59-1.12,2.52,0,.57.1,1.12.31,1.67s.5,1.04.89,1.47c.39.43.87.78,1.43,1.05.56.27,1.21.4,1.96.4h3.06v-8.23h-3.06c-1.56,0-2.72.37-3.47,1.12Z"/>
        <path d="M555.9,207.23c.2.2.31.43.31.7v8.53c.88-.47,1.84-.85,2.86-1.15,1.02-.3,2-.45,2.96-.45.82,0,1.58.11,2.29.32.71.22,1.33.62,1.86,1.2.53.58.95,1.36,1.27,2.32.32.96.48,2.2.48,3.69v9.98c0,.27-.1.5-.31.7-.2.2-.44.3-.71.3h-2.55c-.27,0-.51-.1-.71-.3-.2-.2-.31-.43-.31-.7v-10.93c0-.83-.35-1.41-1.05-1.75-.7-.33-1.42-.5-2.17-.5s-1.43.11-2.14.32c-.71.22-1.31.49-1.79.82v12.02c0,.27-.1.5-.31.7-.2.2-.44.3-.71.3h-2.55c-.27,0-.51-.1-.71-.3-.21-.2-.31-.43-.31-.7v-24.45c0-.27.1-.5.31-.7.2-.2.44-.3.71-.3h2.55c.27,0,.51.1.71.3Z"/>
        <path d="M572.86,216.11c.9-.8,1.98-1.2,3.24-1.2h5.61c1.73,0,3.02.38,3.85,1.12.83.75,1.25,1.66,1.25,2.72,0,.83-.23,1.69-.69,2.57-.46.88-1.13,1.73-2.01,2.54-.88.81-1.97,1.57-3.26,2.27-1.29.7-2.77,1.28-4.44,1.75.34.5.79.86,1.35,1.07.56.22,1.2.32,1.91.32,1.05,0,2.14-.16,3.26-.47s2.07-.66,2.86-1.02l1.02,3.59c-1.26.57-2.57,1.04-3.95,1.42-1.38.38-2.79.57-4.26.57-.95,0-1.86-.12-2.73-.37-.87-.25-1.62-.67-2.27-1.25-.65-.58-1.16-1.34-1.53-2.27-.37-.93-.56-2.1-.56-3.49v-6.59c0-1.4.45-2.5,1.35-3.29ZM577.42,223.94c.54-.23,1.1-.55,1.68-.95.58-.4,1.15-.9,1.71-1.5s1.03-1.3,1.4-2.1h-6.12v4.99c.34-.07.78-.22,1.33-.45Z"/>
        <path d="M594.96,218.15c-.07.03.19-.11.76-.42.58-.32,1.28-.67,2.12-1.05.83-.38,1.69-.74,2.57-1.07.88-.33,1.63-.5,2.24-.5.68,0,1.22.22,1.63.65s.61,1.23.61,2.39v3.74c0,.27-.1.5-.3.7-.21.2-.44.3-.71.3h-3.57v-2.25c0-.57-.31-.85-.92-.85-.37,0-.79.07-1.25.2s-.9.29-1.33.47c-.42.18-.81.37-1.15.55-.34.18-.58.32-.71.42v10.93c0,.27-.1.5-.31.7-.2.2-.44.3-.71.3h-2.55c-.27,0-.51-.1-.71-.3-.2-.2-.31-.43-.31-.7v-16.47c0-.27.1-.5.31-.7.2-.2.44-.3.71-.3h3.57v3.24Z"/>
        <path d="M615.99,229.71c1.21,1.21,1.81,2.69,1.81,4.42,0,1.4-.43,2.85-1.3,4.37-.87,1.51-2.2,2.9-4,4.17l-1.43-2.04c.82-.6,1.52-1.33,2.12-2.2.6-.86.89-1.7.89-2.49,0-.63-.25-1.19-.76-1.67s-1.39-.77-2.65-.87v-5.49c2.35,0,4.12.61,5.33,1.82Z"/>
        <path d="M149.3,258.03c.9-.8,1.98-1.2,3.24-1.2h5.61c1.73,0,3.02.38,3.85,1.12s1.25,1.66,1.25,2.72c0,.83-.23,1.69-.69,2.57-.46.88-1.13,1.73-2.01,2.54-.88.81-1.97,1.57-3.26,2.27-1.29.7-2.77,1.28-4.44,1.75.34.5.79.86,1.35,1.07.56.22,1.2.32,1.91.32,1.05,0,2.14-.16,3.26-.47s2.07-.66,2.85-1.02l1.02,3.59c-1.26.57-2.57,1.04-3.95,1.42-1.38.38-2.8.57-4.26.57-.95,0-1.86-.12-2.73-.37-.87-.25-1.62-.67-2.27-1.25-.65-.58-1.16-1.34-1.53-2.27-.37-.93-.56-2.1-.56-3.49v-6.59c0-1.4.45-2.5,1.35-3.29ZM153.86,265.86c.54-.23,1.1-.55,1.68-.95.58-.4,1.15-.9,1.71-1.5.56-.6,1.03-1.3,1.4-2.1h-6.12v4.99c.34-.07.78-.22,1.33-.45Z"/>
        <path d="M177.77,261.64c-1.29-.28-2.58-.42-3.87-.42-.78,0-1.44.07-1.99.2s-.82.37-.82.7.32.62.97.85c.65.23,1.45.47,2.42.72.97.25,2.01.53,3.14.85,1.12.32,2.17.7,3.14,1.15.97.45,1.78,1.01,2.42,1.67.65.67.97,1.48.97,2.45,0,1.03-.21,1.9-.64,2.59-.42.7-1,1.26-1.73,1.7-.73.43-1.58.74-2.55.92s-1.98.27-3.03.27c-1.73,0-3.47-.19-5.2-.57-1.73-.38-3.25-.86-4.54-1.42l1.58-3.94c.41.23.94.46,1.61.67.66.22,1.38.41,2.17.57s1.58.3,2.4.4c.82.1,1.58.15,2.29.15.99,0,1.75-.09,2.29-.27.54-.18.82-.41.82-.67,0-.33-.32-.62-.97-.87-.65-.25-1.45-.52-2.42-.8-.97-.28-2.02-.59-3.16-.92-1.14-.33-2.19-.75-3.16-1.25s-1.78-1.09-2.42-1.77c-.65-.68-.97-1.52-.97-2.52s.23-1.78.69-2.44c.46-.67,1.07-1.21,1.84-1.62s1.67-.71,2.7-.9c1.04-.18,2.12-.27,3.24-.27,1.43,0,2.7.13,3.82.4,1.12.27,2.36.63,3.72,1.1l-.87,4.39c-1.29-.43-2.58-.79-3.87-1.07Z"/>
        <path d="M192.5,282.28c0,.27-.1.5-.31.7-.2.2-.44.3-.71.3h-2.55c-.27,0-.51-.1-.71-.3-.2-.2-.31-.43-.31-.7v-24.45c0-.27.1-.5.31-.7.2-.2.44-.3.71-.3h6.53c1.5,0,2.82.26,3.98.77,1.16.52,2.12,1.2,2.91,2.05.78.85,1.38,1.81,1.78,2.89.41,1.08.61,2.19.61,3.32,0,1.03-.18,2.04-.54,3.02-.36.98-.92,1.85-1.68,2.62-.76.76-1.73,1.38-2.91,1.85-1.17.47-2.56.7-4.16.7h-2.96v8.23ZM199.06,268.4c.73-.76,1.1-1.61,1.1-2.54,0-.57-.1-1.12-.31-1.67-.2-.55-.49-1.03-.87-1.45-.37-.42-.85-.76-1.43-1.02-.58-.27-1.22-.4-1.94-.4h-3.11v8.23h3.11c1.56,0,2.71-.38,3.44-1.15Z"/>
        <path d="M209.66,258.03c.9-.8,1.98-1.2,3.24-1.2h5.61c1.73,0,3.02.38,3.85,1.12s1.25,1.66,1.25,2.72c0,.83-.23,1.69-.69,2.57-.46.88-1.13,1.73-2.01,2.54-.88.81-1.97,1.57-3.26,2.27-1.29.7-2.77,1.28-4.44,1.75.34.5.79.86,1.35,1.07.56.22,1.2.32,1.91.32,1.05,0,2.14-.16,3.26-.47s2.07-.66,2.85-1.02l1.02,3.59c-1.26.57-2.57,1.04-3.95,1.42-1.38.38-2.8.57-4.26.57-.95,0-1.86-.12-2.73-.37-.87-.25-1.62-.67-2.27-1.25-.65-.58-1.16-1.34-1.53-2.27-.37-.93-.56-2.1-.56-3.49v-6.59c0-1.4.45-2.5,1.35-3.29ZM214.22,265.86c.54-.23,1.1-.55,1.68-.95.58-.4,1.15-.9,1.71-1.5.56-.6,1.03-1.3,1.4-2.1h-6.12v4.99c.34-.07.78-.22,1.33-.45Z"/>
        <path d="M242.47,268.3c0,1.1-.21,2.08-.64,2.94-.42.87-1.01,1.6-1.76,2.2-.75.6-1.61,1.06-2.6,1.37-.99.32-2.04.47-3.16.47h.51c-1.12,0-2.17-.16-3.16-.47-.99-.32-1.85-.77-2.6-1.37-.75-.6-1.33-1.33-1.76-2.2-.42-.86-.64-1.85-.64-2.94v-4.49c0-1.1.21-2.08.64-2.94s1.01-1.6,1.76-2.2c.75-.6,1.61-1.06,2.6-1.37.99-.32,2.04-.47,3.16-.47h-.51c1.12,0,2.18.16,3.16.47.99.32,1.85.77,2.6,1.37s1.33,1.33,1.76,2.2.64,1.85.64,2.94v.5h-4.59v-.7c0-.96-.35-1.58-1.05-1.85-.7-.27-1.54-.4-2.52-.4h.41c-1.02,0-1.85.15-2.5.45-.65.3-.97.9-.97,1.8v4.84c0,.93.37,1.54,1.12,1.82.75.28,1.58.42,2.5.42h-.66c.95,0,1.8-.16,2.55-.47.75-.32,1.12-.91,1.12-1.77v-.65h4.59v.5Z"/>
        <path d="M250.32,249.14c.2.2.31.43.31.7v2.25c0,.27-.1.5-.31.7-.2.2-.44.3-.71.3h-2.55c-.27,0-.51-.1-.71-.3-.2-.2-.31-.43-.31-.7v-2.25c0-.27.1-.5.31-.7.2-.2.44-.3.71-.3h2.55c.27,0,.51.1.71.3ZM250.32,257.13c.2.2.31.43.31.7v16.47c0,.27-.1.5-.31.7-.2.2-.44.3-.71.3h-2.55c-.27,0-.51-.1-.71-.3-.2-.2-.31-.43-.31-.7v-16.47c0-.27.1-.5.31-.7.2-.2.44-.3.71-.3h2.55c.27,0,.51.1.71.3Z"/>
        <path d="M254.78,267.21c.39-.67,1.02-1.25,1.89-1.75.87-.5,1.98-.9,3.34-1.2,1.36-.3,2.99-.45,4.89-.45,0-1.06-.33-1.8-.99-2.22-.66-.42-1.54-.62-2.63-.62-.99,0-2.04.14-3.16.42-1.12.28-2.09.61-2.91.97l-1.02-3.54c1.29-.57,2.63-1.04,4-1.42s2.78-.57,4.21-.57c.95,0,1.86.12,2.73.38.87.25,1.62.66,2.27,1.22.65.57,1.16,1.31,1.53,2.25.37.93.56,2.09.56,3.49v10.13c0,.27-.1.5-.31.7-.2.2-.44.3-.71.3h-10.2c-1.12,0-2.08-.39-2.88-1.17-.8-.78-1.2-1.72-1.2-2.82v-2c0-.73.2-1.43.59-2.1ZM264.9,267.31c-.51,0-1.11.03-1.81.08s-1.37.16-2.01.32c-.65.17-1.19.42-1.63.75-.44.33-.66.78-.66,1.35v.75h6.12v-3.24Z"/>
        <path d="M277.85,249.14c.2.2.31.43.31.7v24.45c0,.27-.1.5-.31.7-.2.2-.44.3-.71.3h-2.55c-.27,0-.51-.1-.71-.3-.2-.2-.31-.43-.31-.7v-24.45c0-.27.1-.5.31-.7.2-.2.44-.3.71-.3h2.55c.27,0,.51.1.71.3Z"/>
        <path d="M286.52,249.14c.2.2.31.43.31.7v24.45c0,.27-.1.5-.31.7-.2.2-.44.3-.71.3h-2.55c-.27,0-.51-.1-.71-.3-.2-.2-.31-.43-.31-.7v-24.45c0-.27.1-.5.31-.7.2-.2.44-.3.71-.3h2.55c.27,0,.51.1.71.3Z"/>
        <path d="M304.66,281.3c-1.36,1.31-3.21,1.97-5.56,1.97-1.09,0-2.2-.12-3.34-.35-1.14-.23-2.42-.58-3.85-1.05l1.53-3.99c.75.3,1.56.57,2.45.8.88.23,1.72.35,2.5.35,1.02,0,1.89-.27,2.63-.8.73-.53,1.1-1.51,1.1-2.94v-1.55c-2.07,1.16-4.01,1.75-5.81,1.75-1.6,0-2.9-.57-3.9-1.72-1-1.15-1.5-2.97-1.5-5.46v-10.48c0-.27.1-.5.31-.7.2-.2.44-.3.71-.3h2.55c.27,0,.51.1.71.3.2.2.31.43.31.7v11.23c0,.77.22,1.3.66,1.6.44.3,1,.45,1.68.45.75,0,1.53-.12,2.34-.37.82-.25,1.46-.54,1.94-.87v-12.03c0-.27.1-.5.31-.7.2-.2.44-.3.71-.3h2.55c.27,0,.51.1.71.3.2.2.31.43.31.7v17.46c0,2.69-.68,4.7-2.04,6.01Z"/>
        <path d="M332.19,268.3c0,1.1-.21,2.08-.64,2.94-.42.87-1.01,1.6-1.76,2.2-.75.6-1.61,1.06-2.6,1.37-.99.32-2.04.47-3.16.47h.51c-1.12,0-2.17-.16-3.16-.47-.99-.32-1.85-.77-2.6-1.37-.75-.6-1.33-1.33-1.76-2.2-.42-.86-.64-1.85-.64-2.94v-4.49c0-1.1.21-2.08.64-2.94s1.01-1.6,1.76-2.2c.75-.6,1.61-1.06,2.6-1.37.99-.32,2.04-.47,3.16-.47h-.51c1.12,0,2.18.16,3.16.47.99.32,1.85.77,2.6,1.37s1.33,1.33,1.76,2.2.64,1.85.64,2.94v.5h-4.59v-.7c0-.96-.35-1.58-1.05-1.85-.7-.27-1.54-.4-2.52-.4h.41c-1.02,0-1.85.15-2.5.45-.65.3-.97.9-.97,1.8v4.84c0,.93.37,1.54,1.12,1.82.75.28,1.58.42,2.5.42h-.66c.95,0,1.8-.16,2.55-.47.75-.32,1.12-.91,1.12-1.77v-.65h4.59v.5Z"/>
        <path d="M340.05,249.14c.2.2.31.43.31.7v8.53c.88-.47,1.83-.85,2.85-1.15,1.02-.3,2-.45,2.96-.45.82,0,1.58.11,2.29.32.71.22,1.33.62,1.86,1.2.53.58.95,1.36,1.27,2.32.32.96.48,2.2.48,3.69v9.98c0,.27-.1.5-.31.7-.2.2-.44.3-.71.3h-2.55c-.27,0-.51-.1-.71-.3-.2-.2-.31-.43-.31-.7v-10.93c0-.83-.35-1.41-1.05-1.75-.7-.33-1.42-.5-2.17-.5s-1.43.11-2.14.32c-.71.22-1.31.49-1.78.82v12.02c0,.27-.1.5-.31.7-.2.2-.44.3-.71.3h-2.55c-.27,0-.51-.1-.71-.3-.2-.2-.31-.43-.31-.7v-24.45c0-.27.1-.5.31-.7.2-.2.44-.3.71-.3h2.55c.27,0,.51.1.71.3Z"/>
        <path d="M359.93,249.14c.2.2.31.43.31.7v2.25c0,.27-.1.5-.31.7-.2.2-.44.3-.71.3h-2.55c-.27,0-.51-.1-.71-.3-.2-.2-.31-.43-.31-.7v-2.25c0-.27.1-.5.31-.7.2-.2.44-.3.71-.3h2.55c.27,0,.51.1.71.3ZM359.93,257.13c.2.2.31.43.31.7v16.47c0,.27-.1.5-.31.7-.2.2-.44.3-.71.3h-2.55c-.27,0-.51-.1-.71-.3-.2-.2-.31-.43-.31-.7v-16.47c0-.27.1-.5.31-.7.2-.2.44-.3.71-.3h2.55c.27,0,.51.1.71.3Z"/>
        <path d="M368.6,249.14c.2.2.31.43.31.7v24.45c0,.27-.1.5-.31.7-.2.2-.44.3-.71.3h-2.55c-.27,0-.51-.1-.71-.3-.2-.2-.31-.43-.31-.7v-24.45c0-.27.1-.5.31-.7.2-.2.44-.3.71-.3h2.55c.27,0,.51.1.71.3Z"/>
        <path d="M384.71,249.84c0-.27.1-.5.31-.7s.44-.3.71-.3h2.55c.27,0,.51.1.71.3.2.2.31.43.31.7v24.45c0,.27-.1.5-.31.7-.2.2-.44.3-.71.3h-6.53c-1.5,0-2.82-.27-3.98-.8-1.16-.53-2.12-1.22-2.91-2.07-.78-.85-1.38-1.81-1.78-2.89s-.61-2.19-.61-3.32c0-1.03.18-2.04.54-3.02.36-.98.92-1.85,1.68-2.59.76-.75,1.73-1.36,2.91-1.82s2.56-.7,4.15-.7h2.96v-8.23ZM378.18,263.69c-.75.75-1.12,1.59-1.12,2.52,0,.57.1,1.12.31,1.67.2.55.5,1.04.89,1.47.39.43.87.78,1.43,1.05.56.27,1.21.4,1.96.4h3.06v-8.23h-3.06c-1.56,0-2.72.37-3.47,1.12Z"/>
        <path d="M397.96,260.07c-.07.03.19-.11.76-.42.58-.32,1.28-.67,2.12-1.05.83-.38,1.69-.74,2.57-1.07.88-.33,1.63-.5,2.24-.5.68,0,1.22.22,1.63.65s.61,1.23.61,2.39v3.74c0,.27-.1.5-.3.7-.21.2-.44.3-.71.3h-3.57v-2.25c0-.57-.31-.85-.92-.85-.37,0-.79.07-1.25.2s-.9.29-1.33.47c-.42.18-.81.37-1.15.55-.34.18-.58.32-.71.42v10.93c0,.27-.1.5-.31.7-.2.2-.44.3-.71.3h-2.55c-.27,0-.51-.1-.71-.3-.2-.2-.31-.43-.31-.7v-16.47c0-.27.1-.5.31-.7.2-.2.44-.3.71-.3h3.57v3.24Z"/>
        <path d="M412.98,258.03c.9-.8,1.98-1.2,3.24-1.2h5.61c1.73,0,3.02.38,3.85,1.12s1.25,1.66,1.25,2.72c0,.83-.23,1.69-.69,2.57s-1.13,1.73-2.01,2.54c-.88.81-1.97,1.57-3.26,2.27-1.29.7-2.77,1.28-4.44,1.75.34.5.79.86,1.35,1.07.56.22,1.2.32,1.91.32,1.05,0,2.14-.16,3.26-.47,1.12-.32,2.07-.66,2.85-1.02l1.02,3.59c-1.26.57-2.57,1.04-3.95,1.42-1.38.38-2.8.57-4.26.57-.95,0-1.86-.12-2.73-.37-.87-.25-1.62-.67-2.27-1.25-.65-.58-1.16-1.34-1.53-2.27-.37-.93-.56-2.1-.56-3.49v-6.59c0-1.4.45-2.5,1.35-3.29ZM417.54,265.86c.54-.23,1.1-.55,1.68-.95.58-.4,1.15-.9,1.71-1.5.56-.6,1.03-1.3,1.4-2.1h-6.12v4.99c.34-.07.78-.22,1.33-.45Z"/>
        <path d="M435.08,259.07c.95-.67,1.99-1.21,3.11-1.62s2.23-.62,3.31-.62c.71,0,1.39.12,2.04.35.65.23,1.21.62,1.68,1.15s.86,1.24,1.15,2.12c.29.88.43,1.95.43,3.22v10.63c0,.27-.1.5-.31.7-.2.2-.44.3-.71.3h-2.55c-.27,0-.51-.1-.71-.3-.2-.2-.31-.43-.31-.7v-10.58c0-.96-.31-1.64-.94-2.02s-1.38-.57-2.27-.57c-.71,0-1.43.09-2.14.27-.71.18-1.31.41-1.79.67v12.22c0,.27-.1.5-.31.7-.2.2-.44.3-.71.3h-2.55c-.27,0-.51-.1-.71-.3-.21-.2-.31-.43-.31-.7v-16.47c0-.27.1-.5.31-.7.2-.2.44-.3.71-.3h3.57v2.25Z"/>
        <path d="M457.23,267.21c.39-.67,1.02-1.25,1.89-1.75.87-.5,1.98-.9,3.34-1.2,1.36-.3,2.99-.45,4.89-.45,0-1.06-.33-1.8-.99-2.22-.66-.42-1.54-.62-2.62-.62-.99,0-2.04.14-3.16.42-1.12.28-2.09.61-2.91.97l-1.02-3.54c1.29-.57,2.62-1.04,4-1.42,1.38-.38,2.78-.57,4.21-.57.95,0,1.86.12,2.73.38.87.25,1.62.66,2.27,1.22.65.57,1.16,1.31,1.53,2.25.37.93.56,2.09.56,3.49v10.13c0,.27-.1.5-.3.7-.21.2-.44.3-.71.3h-10.2c-1.12,0-2.08-.39-2.88-1.17-.8-.78-1.2-1.72-1.2-2.82v-2c0-.73.2-1.43.59-2.1ZM467.35,267.31c-.51,0-1.11.03-1.81.08s-1.37.16-2.01.32c-.65.17-1.19.42-1.63.75-.44.33-.66.78-.66,1.35v.75h6.12v-3.24Z"/>
        <path d="M480.6,259.07c.95-.67,1.99-1.21,3.11-1.62,1.12-.42,2.23-.62,3.31-.62.71,0,1.39.12,2.04.35.65.23,1.21.62,1.68,1.15.48.53.86,1.24,1.15,2.12.29.88.43,1.95.43,3.22v10.63c0,.27-.1.5-.3.7-.21.2-.44.3-.71.3h-2.55c-.27,0-.51-.1-.71-.3-.2-.2-.31-.43-.31-.7v-10.58c0-.96-.31-1.64-.94-2.02s-1.38-.57-2.27-.57c-.71,0-1.43.09-2.14.27-.71.18-1.31.41-1.78.67v12.22c0,.27-.1.5-.31.7-.2.2-.44.3-.71.3h-2.55c-.27,0-.51-.1-.71-.3-.2-.2-.31-.43-.31-.7v-16.47c0-.27.1-.5.31-.7.2-.2.44-.3.71-.3h3.57v2.25Z"/>
        <path d="M508.29,249.84c0-.27.1-.5.31-.7s.44-.3.71-.3h2.55c.27,0,.51.1.71.3.2.2.31.43.31.7v24.45c0,.27-.1.5-.31.7-.2.2-.44.3-.71.3h-6.53c-1.5,0-2.82-.27-3.98-.8-1.16-.53-2.12-1.22-2.91-2.07-.78-.85-1.38-1.81-1.79-2.89-.41-1.08-.61-2.19-.61-3.32,0-1.03.18-2.04.54-3.02.36-.98.92-1.85,1.68-2.59.76-.75,1.73-1.36,2.91-1.82,1.17-.47,2.56-.7,4.16-.7h2.96v-8.23ZM501.76,263.69c-.75.75-1.12,1.59-1.12,2.52,0,.57.1,1.12.31,1.67.2.55.5,1.04.89,1.47.39.43.87.78,1.43,1.05.56.27,1.21.4,1.96.4h3.06v-8.23h-3.06c-1.56,0-2.72.37-3.47,1.12Z"/>
        <path d="M527.35,249.14c.2.2.31.43.31.7v3.09h4.74c.27,0,.51.1.71.3.2.2.31.43.31.7v2.74c0,.27-.1.5-.31.7-.2.2-.44.3-.71.3h-4.74v9.18c0,.73.11,1.34.33,1.82.22.48.51.87.87,1.15.36.28.77.48,1.25.6.48.12.99.17,1.53.17.2,0,.42-.02.64-.05s.43-.05.64-.05l1.02,4.34c-1.22.3-2.36.45-3.42.45s-2.08-.16-2.98-.47c-.9-.32-1.68-.81-2.34-1.47-.66-.67-1.18-1.54-1.55-2.62-.38-1.08-.56-2.37-.56-3.87v-17.01c0-.27.1-.5.31-.7.2-.2.44-.3.71-.3h2.55c.27,0,.51.1.71.3Z"/>
        <path d="M539.11,258.03c.9-.8,1.98-1.2,3.24-1.2h5.61c1.73,0,3.02.38,3.85,1.12.83.75,1.25,1.66,1.25,2.72,0,.83-.23,1.69-.69,2.57-.46.88-1.13,1.73-2.01,2.54-.88.81-1.97,1.57-3.26,2.27-1.29.7-2.77,1.28-4.44,1.75.34.5.79.86,1.35,1.07.56.22,1.2.32,1.91.32,1.05,0,2.14-.16,3.26-.47s2.07-.66,2.86-1.02l1.02,3.59c-1.26.57-2.57,1.04-3.95,1.42-1.38.38-2.79.57-4.26.57-.95,0-1.86-.12-2.73-.37-.87-.25-1.62-.67-2.27-1.25-.65-.58-1.16-1.34-1.53-2.27-.37-.93-.56-2.1-.56-3.49v-6.59c0-1.4.45-2.5,1.35-3.29ZM543.67,265.86c.54-.23,1.1-.55,1.68-.95.58-.4,1.15-.9,1.71-1.5s1.03-1.3,1.4-2.1h-6.12v4.99c.34-.07.78-.22,1.33-.45Z"/>
        <path d="M557.97,258.03c.9-.8,1.98-1.2,3.24-1.2h5.61c1.73,0,3.02.38,3.85,1.12.83.75,1.25,1.66,1.25,2.72,0,.83-.23,1.69-.69,2.57-.46.88-1.13,1.73-2.01,2.54-.88.81-1.97,1.57-3.26,2.27-1.29.7-2.77,1.28-4.44,1.75.34.5.79.86,1.35,1.07.56.22,1.2.32,1.91.32,1.05,0,2.14-.16,3.26-.47s2.07-.66,2.86-1.02l1.02,3.59c-1.26.57-2.57,1.04-3.95,1.42-1.38.38-2.79.57-4.26.57-.95,0-1.86-.12-2.73-.37-.87-.25-1.62-.67-2.27-1.25-.65-.58-1.16-1.34-1.53-2.27-.37-.93-.56-2.1-.56-3.49v-6.59c0-1.4.45-2.5,1.35-3.29ZM562.53,265.86c.54-.23,1.1-.55,1.68-.95.58-.4,1.15-.9,1.71-1.5s1.03-1.3,1.4-2.1h-6.12v4.99c.34-.07.78-.22,1.33-.45Z"/>
        <path d="M580.07,259.07c.95-.67,1.99-1.21,3.11-1.62,1.12-.42,2.23-.62,3.31-.62.71,0,1.39.12,2.04.35.65.23,1.21.62,1.68,1.15.47.53.86,1.24,1.15,2.12.29.88.43,1.95.43,3.22v10.63c0,.27-.1.5-.31.7-.2.2-.44.3-.71.3h-2.55c-.27,0-.51-.1-.71-.3-.2-.2-.3-.43-.3-.7v-10.58c0-.96-.31-1.64-.94-2.02s-1.38-.57-2.27-.57c-.71,0-1.43.09-2.14.27-.71.18-1.31.41-1.78.67v12.22c0,.27-.1.5-.31.7-.2.2-.44.3-.71.3h-2.55c-.27,0-.51-.1-.71-.3-.2-.2-.31-.43-.31-.7v-16.47c0-.27.1-.5.31-.7.2-.2.44-.3.71-.3h3.57v2.25Z"/>
        <path d="M606.99,261.64c-1.29-.28-2.58-.42-3.87-.42-.78,0-1.45.07-1.99.2-.54.13-.82.37-.82.7s.32.62.97.85c.65.23,1.45.47,2.42.72.97.25,2.01.53,3.13.85,1.12.32,2.17.7,3.13,1.15.97.45,1.78,1.01,2.42,1.67.65.67.97,1.48.97,2.45,0,1.03-.21,1.9-.64,2.59-.43.7-1,1.26-1.73,1.7-.73.43-1.58.74-2.55.92s-1.98.27-3.03.27c-1.73,0-3.47-.19-5.2-.57-1.73-.38-3.25-.86-4.54-1.42l1.58-3.94c.41.23.94.46,1.61.67.66.22,1.38.41,2.17.57s1.58.3,2.4.4c.82.1,1.58.15,2.29.15.99,0,1.75-.09,2.29-.27.54-.18.82-.41.82-.67,0-.33-.32-.62-.97-.87-.65-.25-1.45-.52-2.42-.8-.97-.28-2.02-.59-3.16-.92-1.14-.33-2.19-.75-3.16-1.25s-1.78-1.09-2.42-1.77c-.65-.68-.97-1.52-.97-2.52s.23-1.78.69-2.44c.46-.67,1.07-1.21,1.84-1.62s1.67-.71,2.7-.9c1.04-.18,2.12-.27,3.24-.27,1.43,0,2.7.13,3.82.4,1.12.27,2.36.63,3.72,1.1l-.87,4.39c-1.29-.43-2.58-.79-3.87-1.07Z"/>
        <path d="M619.48,274.99c-.21-.2-.31-.43-.31-.7v-3.74c0-.27.1-.5.31-.7.2-.2.44-.3.71-.3h3.82c.27,0,.51.1.71.3.2.2.31.43.31.7v3.74c0,.27-.1.5-.31.7-.2.2-.44.3-.71.3h-3.82c-.27,0-.51-.1-.71-.3Z"/>
      </g>
    </g>
    <path d="M92.48,10.71l14.78,156.91-30.95-6.84c-1.99-.44-3.99.69-4.59,2.59l-10.21,31.96-31.87-17.11c-1.11-.59-2.44-.63-3.58-.09-1.14.54-1.94,1.58-2.15,2.8l-7.6,43.55-59.56,1.08c-1.85.03-3.42,1.33-3.77,3.11-.05.24-.07.48-.07.71,0,1.52.93,2.93,2.41,3.53l83.73,34.15c1.02.42,2.18.39,3.18-.07,1-.46,1.75-1.32,2.07-2.36l8.69-28.36,18.67,16.45c.91.8,2.16,1.14,3.36.91,1.21-.23,2.23-1,2.77-2.09l17.94-36.14,16.78,9.51,14.88,114.23c.14,1.06.72,2.01,1.6,2.63s1.99.85,3.05.64l615.62-39.84c1.74-.34,3.02-1.79,3.12-3.53l19.77-271.29c.09-2.02-1.5-3.89-3.64-4.04L96.65,6.64c-1.13-.08-2.23.33-3.03,1.11-.8.78-1.2,1.88-1.14,2.96ZM743.16,295.67l-608.54,38.43-14.59-112.02c-.16-1.18-.87-2.23-1.92-2.83l-22.09-12.52c-.94-.53-2.07-.66-3.1-.35-1.04.31-1.9,1.03-2.37,1.99l-17.5,35.26-19.4-17.08c-1-.88-2.38-1.2-3.67-.84-1.29.36-2.31,1.33-2.69,2.59l-9.22,30.08-62.51-25.49,44.15-.8c1.88-.03,3.47-1.37,3.78-3.18l7.22-41.37,31.24,16.77c1.03.55,2.25.62,3.34.19s1.92-1.31,2.27-2.41l10.56-33.06,32.53,7.19c1.2.27,2.46-.04,3.4-.82.94-.78,1.44-1.96,1.36-3.16L100.58,14.58l661.96,16.52-19.37,264.57h-.01Z"/>
  </g>
</svg>