<?xml version="1.0" encoding="UTF-8"?>
<svg xmlns="http://www.w3.org/2000/svg" xmlns:xlink="http://www.w3.org/1999/xlink" version="1.1" viewBox="0 0 867.42 1910.33">
  <!-- Generator: Adobe Illustrator 29.7.1, SVG Export Plug-In . SVG Version: 2.1.1 Build 8)  -->
  <defs>
    <style>
      .st0 {
        fill: none;
      }

      .st1 {
        isolation: isolate;
      }

      .st2 {
        clip-path: url(#clippath-1);
      }

      .st3 {
        fill: #067584;
        mix-blend-mode: multiply;
      }

      .st4 {
        fill: #50b3b7;
      }

      .st5 {
        clip-path: url(#clippath);
      }
    </style>
    <clipPath id="clippath">
      <rect class="st0" width="867.42" height="1910.33"/>
    </clipPath>
    <clipPath id="clippath-1">
      <rect class="st0" x="-1318.68" width="3469.35" height="1910.33"/>
    </clipPath>
  </defs>
  <g class="st1">
    <g id="Layer_1">
      <g class="st5">
        <g class="st2">
          <rect class="st3" x="-1318.68" y="-68.65" width="3469.35" height="1987.45"/>
          <g>
            <polygon class="st4" points="415.99 955.17 1919.36 -516.34 1283.98 -516.34 415.99 955.17"/>
            <polygon class="st4" points="-1087.37 2426.68 -451.99 2426.68 415.99 955.17 -1087.37 2426.68"/>
            <polygon class="st4" points="415.99 955.17 2671.04 1546.6 2671.04 955.17 415.99 955.17"/>
            <polygon class="st4" points="-1839.05 363.74 -1839.05 955.17 415.99 955.17 -1839.05 363.74"/>
            <polygon class="st4" points="415.99 -516.34 415.99 955.17 818.84 -516.34 415.99 -516.34"/>
            <polygon class="st4" points="13.15 2426.68 415.99 2426.68 415.99 955.17 13.15 2426.68"/>
            <polygon class="st4" points="415.99 955.17 2671.04 363.74 2671.04 -319.22 415.99 955.17"/>
            <polygon class="st4" points="-1839.05 1546.6 -1839.05 2229.55 415.99 955.17 -1839.05 1546.6"/>
            <polygon class="st4" points="-451.99 -516.34 415.99 955.17 13.15 -516.34 -451.99 -516.34"/>
            <polygon class="st4" points="415.99 955.17 818.84 2426.68 1283.98 2426.68 415.99 955.17"/>
            <polygon class="st4" points="-1839.05 -516.34 -1839.05 -319.22 415.99 955.17 -1087.37 -516.34 -1839.05 -516.34"/>
            <polygon class="st4" points="415.99 955.17 1919.36 2426.68 2671.04 2426.68 2671.04 2229.55 415.99 955.17"/>
          </g>
          <rect class="st0" x="-1318.68" width="3469.35" height="1910.33"/>
        </g>
      </g>
    </g>
  </g>
</svg>