<?xml version="1.0" encoding="UTF-8"?>
<svg id="Layer_1" xmlns="http://www.w3.org/2000/svg" version="1.1" viewBox="0 0 784.8 350.74">
  <!-- Generator: Adobe Illustrator 29.7.1, SVG Export Plug-In . SVG Version: 2.1.1 Build 8)  -->
  <defs>
    <style>
      .st0 {
        fill: #92f4ec;
      }
    </style>
  </defs>
  <g>
    <path d="M709.17,8.65c.8.78,1.2,1.88,1.14,2.96l-14.53,153.11,13.76-3.04c.52-.12,1.04-.11,1.54-.02.27,0,.54-.05.81,0,.27,0,.54-.05.81,0,.27,0,.54-.05.81,0,.27,0,.54-.05.81,0,.27,0,.55-.05.81,0,.27,0,.54-.05.81,0,.27,0,.54-.05.81,0,.27,0,.54-.05.81,0,.27,0,.54-.05.81,0,.27,0,.54-.05.81,0,.27,0,.54-.05.81,0,.27,0,.54-.05.81,0,.27,0,.54-.05.81,0,.27,0,.54-.05.81,0,.27,0,.54-.05.81,0,.27,0,.55-.05.81,0,.27,0,.55-.05.81,0,.27,0,.54-.05.81,0,.27,0,.55-.05.81,0,.27,0,.54-.05.81,0,1.73-.05,3.33.95,3.86,2.62l7.73,24.2,17.4-9.34c.69-.37,1.46-.44,2.23-.37.27-.03.53-.02.81,0,.27-.03.53-.02.81,0,.27-.03.53-.02.81,0,.27-.03.53-.02.81,0,.27-.03.53-.02.81,0,.27-.03.53-.02.81,0,.27-.03.53-.02.81,0,.27-.03.53-.02.81,0,.27-.03.53-.02.81,0,.27-.03.53-.02.81,0,.28-.03.53-.02.81,0,.28-.03.53-.02.81,0,.27-.03.53-.02.81,0,.28-.03.53-.02.81,0,.27-.03.53-.02.81,0,.27-.03.53-.02.81,0,.28-.03.53-.02.81,0,.27-.03.53-.02.81,0,.27-.03.53-.02.81,0,.27-.03.53-.02.81,0,.73-.09,1.47-.04,2.16.29,1.14.54,1.94,1.58,2.15,2.8l7.6,43.55,59.56,1.08c1.85.03,3.42,1.33,3.77,3.11.05.24.07.48.07.71,0,1.52-.93,2.93-2.41,3.53l-83.73,34.15c-.63.26-1.29.29-1.95.21-.27.03-.53.03-.81,0-.27.03-.53.03-.81,0-.27.03-.53.03-.81,0-.27.03-.53.03-.81,0-.27.03-.53.03-.81,0-.27.03-.53.03-.81,0-.27.03-.53.03-.81,0-.27.03-.53.03-.81,0-.27.03-.53.03-.81,0-.27.03-.53.03-.81,0-.28.03-.53.03-.81,0-.27.03-.53.03-.81,0-.27.03-.53.03-.81,0-.27.03-.53.03-.81,0-.27.03-.53.03-.81,0-.27.03-.53.03-.81,0-.27.03-.53.03-.81,0-.27.03-.53.03-.81,0-.27.03-.53.03-.81,0-.27.03-.53.03-.81,0-.69.06-1.39.01-2.03-.29-1-.46-1.75-1.32-2.07-2.36l-5.09-16.61-5.33,4.7c-.91.8-2.16,1.14-3.36.91-.02,0-.04-.02-.06-.03-.25,0-.49.08-.74.03-.02,0-.04-.02-.06-.03-.25,0-.49.08-.74.03-.02,0-.04-.02-.06-.03-.25,0-.49.08-.74.03-.02,0-.04-.02-.06-.03-.25,0-.49.08-.74.03-.02,0-.04-.02-.06-.03-.25,0-.49.08-.74.03-.02,0-.04-.02-.06-.03-.25,0-.49.08-.74.03-.02,0-.04-.02-.06-.03-.25,0-.49.08-.74.03-.02,0-.04-.02-.06-.03-.25,0-.49.08-.74.03-.02,0-.04-.02-.06-.03-.25,0-.49.08-.74.03-.02,0-.04-.02-.06-.03-.25,0-.49.08-.74.03-.02,0-.04-.02-.06-.03-.25,0-.49.08-.74.03-.02,0-.04-.02-.06-.03-.25,0-.49.08-.74.03-.02,0-.04-.02-.06-.03-.25,0-.49.08-.74.03-.02,0-.04-.02-.06-.03-.25,0-.49.08-.74.03-.02,0-.04-.02-.06-.03-.25,0-.49.08-.74.03-.02,0-.04-.02-.06-.03-.25,0-.49.08-.74.03-.02,0-.04-.02-.06-.03-.25,0-.49.08-.74.03-.02,0-.04-.02-.06-.03-.25,0-.49.08-.74.03-.02,0-.04-.02-.06-.03-.25,0-.49.08-.74.03-.02,0-.04-.02-.06-.03-.25,0-.49.08-.74.03-.02,0-.04-.02-.06-.03-.25,0-.49.08-.74.03-1.21-.23-2.23-1-2.77-2.09l-14.22-28.64-3.55,2.01-14.88,114.23c-.14,1.06-.72,2.01-1.6,2.63s-1.99.85-3.05.64h-.02c-.26,0-.52.05-.79,0h-.02c-.26,0-.52.05-.79,0h-.02c-.26,0-.52.05-.79,0h-.02c-.26,0-.52.05-.79,0h-.02c-.26,0-.52.05-.79,0h-.02c-.26,0-.52.05-.79,0h-.02c-.26,0-.53.05-.79,0h-.02c-.26,0-.52.05-.79,0h-.02c-.26,0-.52.05-.79,0h-.02c-.26,0-.52.05-.79,0h-.02c-.26,0-.52.05-.79,0h-.02c-.26,0-.52.05-.79,0h-.02c-.26,0-.52.05-.79,0h-.02c-.26,0-.52.05-.79,0h-.02c-.26,0-.52.05-.79,0h-.02c-.26,0-.52.05-.79,0h-.02c-.26,0-.52.05-.79,0h-.02c-.26,0-.52.05-.79,0h-.02c-.26,0-.53.05-.79,0h-.02c-.26,0-.52.05-.79,0h-.02c-.26,0-.53.05-.79,0L38.19,303.48c-1.74-.34-3.02-1.79-3.12-3.53L15.3,28.65c-.09-2.02,1.5-3.89,3.64-4.04L689.2,7.54c.09,0,.17.04.26.04l.55-.04c.09,0,.17.04.26.04l.55-.04c.09,0,.17.04.26.04l.55-.04c.09,0,.17.04.26.04l.55-.04c.09,0,.17.04.26.04l.55-.04c.09,0,.17.04.26.04l.55-.04c.09,0,.17.04.26.04l.55-.04c.09,0,.17.04.26.04l.55-.04c.09,0,.17.04.26.04l.55-.04c.09,0,.17.04.26.04l.55-.04c.09,0,.17.04.26.04l.55-.04c.09,0,.17.04.26.04l.55-.04c.09,0,.17.04.26.04l.55-.04c.09,0,.17.04.26.04l.55-.04c.09,0,.17.04.26.04l.55-.04c.09,0,.17.04.26.04l.55-.04c.09,0,.17.04.26.04l.55-.04c.09,0,.17.04.26.04l.55-.04c.09,0,.17.04.26.04l.55-.04c.09,0,.17.04.26.04l.55-.04c.09,0,.17.04.26.04l.55-.04c1.13-.08,2.23.33,3.03,1.11h-.07Z"/>
    <path class="st0" d="M670.45,173.13c-.08,1.2.43,2.37,1.36,3.16.94.78,2.2,1.09,3.4.82l32.53-7.19,10.56,33.06c.35,1.1,1.18,1.98,2.27,2.41,1.09.43,2.31.36,3.34-.19l31.24-16.77,7.22,41.37c.31,1.81,1.9,3.15,3.78,3.18l44.15.8-62.51,25.49-9.22-30.08c-.39-1.26-1.4-2.23-2.69-2.59s-2.67-.04-3.67.84l-19.4,17.08-17.5-35.26c-.47-.96-1.33-1.68-2.37-1.99-1.04-.31-2.16-.19-3.1.35l-22.09,12.52c-1.05.6-1.76,1.64-1.92,2.83l-14.59,112.02L42.7,296.57,23.32,32,685.28,15.48l-14.83,157.66h0Z"/>
    <path d="M692.23,8.65c-.8-.78-1.9-1.18-3.03-1.11L18.93,24.62c-2.14.14-3.72,2.01-3.64,4.04l19.77,271.29c.1,1.74,1.38,3.19,3.12,3.53l615.62,39.84c1.07.21,2.17-.02,3.05-.64.89-.62,1.47-1.57,1.6-2.63l14.88-114.23,16.78-9.51,17.94,36.14c.53,1.08,1.56,1.85,2.77,2.09,1.2.23,2.45-.11,3.36-.91l18.67-16.45,8.69,28.36c.32,1.04,1.07,1.89,2.07,2.36,1,.47,2.15.49,3.18.07l83.73-34.15c1.48-.6,2.41-2.01,2.41-3.53,0-.24-.02-.47-.07-.71-.35-1.78-1.92-3.08-3.77-3.11l-59.56-1.08-7.6-43.55c-.21-1.22-1.01-2.26-2.15-2.8-1.14-.54-2.47-.5-3.58.09l-31.87,17.11-10.21-31.96c-.61-1.91-2.6-3.03-4.59-2.59l-30.95,6.84,14.78-156.91c.06-1.08-.34-2.18-1.14-2.96h.01ZM23.32,32L685.28,15.48l-14.83,157.66c-.08,1.2.43,2.37,1.36,3.16.94.78,2.2,1.09,3.4.82l32.53-7.19,10.56,33.06c.35,1.1,1.18,1.98,2.27,2.41,1.09.43,2.31.36,3.34-.19l31.24-16.77,7.22,41.37c.31,1.81,1.9,3.15,3.78,3.18l44.15.8-62.51,25.49-9.22-30.08c-.39-1.26-1.4-2.23-2.69-2.59s-2.67-.04-3.67.84l-19.4,17.08-17.5-35.26c-.47-.96-1.33-1.68-2.37-1.99-1.04-.31-2.16-.19-3.1.35l-22.09,12.52c-1.05.6-1.76,1.64-1.92,2.83l-14.59,112.02L42.7,296.57,23.32,32Z"/>
  </g>
  <g>
    <g>
      <path d="M513.45,63.75c.27,0,.51.1.71.3s.31.43.31.7v20.96h2.8v5.49h-7.39c-.27,0-.51-.1-.71-.3-.2-.2-.31-.43-.31-.7v-25.45c0-.27.1-.5.31-.7s.44-.3.71-.3c0,0,3.57,0,3.57,0Z"/>
      <path d="M515.79,87.21c0-.43.15-.79.43-1.07.29-.28.66-.42,1.1-.42h3.67c-.58-1-.87-2.15-.87-3.44,0-.93.19-1.85.56-2.77.37-.91.92-1.72,1.63-2.42s1.58-1.26,2.6-1.7,2.19-.65,3.52-.65h2.4l-.76-2.99c.99-.33,1.97-.57,2.96-.72.99-.15,1.94-.22,2.85-.22,1.29,0,2.5.17,3.62.52s2.1.88,2.93,1.6,1.49,1.64,1.96,2.77c.48,1.13.71,2.48.71,4.04v5.99h2.8v5.49h-30.59c-.44,0-.81-.14-1.1-.42s-.43-.64-.43-1.07v-2.52ZM530.32,85.71v-5.49h-1.73c-.82,0-1.5.27-2.04.8-.54.53-.82,1.18-.82,1.95s.27,1.41.82,1.95c.54.53,1.22.8,2.04.8h1.73ZM539.5,79.72c0-1.4-.46-2.34-1.38-2.82s-2.07-.74-3.47-.77c.34.37.61.77.82,1.2.2.43.31.9.31,1.4v6.99h3.72v-5.99h0Z"/>
      <path d="M546.38,87.21c0-.43.14-.79.43-1.07s.65-.42,1.1-.42h4.84v-9.98c0-.27.1-.5.31-.7.2-.2.44-.3.71-.3h3.57c.27,0,.51.1.71.3.2.2.31.43.31.7v9.98h4.84v5.49h-15.29c-.44,0-.81-.14-1.1-.42s-.43-.64-.43-1.07v-2.5h0ZM548.98,70.59c-.54-.43-.82-.96-.82-1.6s.27-1.16.82-1.6,1.21-.65,1.99-.65,1.44.22,1.99.65.82.96.82,1.6-.27,1.17-.82,1.6c-.54.43-1.21.65-1.99.65s-1.44-.22-1.99-.65ZM555.61,70.59c-.54-.43-.82-.96-.82-1.6s.27-1.16.82-1.6c.54-.43,1.21-.65,1.99-.65s1.44.22,1.99.65c.54.43.82.96.82,1.6s-.27,1.17-.82,1.6c-.54.43-1.21.65-1.99.65s-1.45-.22-1.99-.65Z"/>
      <path d="M561.68,87.21c0-.43.15-.79.43-1.07.29-.28.66-.42,1.1-.42h2.8v-2.59c0-1.3.25-2.4.74-3.32s1.14-1.66,1.94-2.25c.8-.58,1.7-1.01,2.7-1.27,1-.27,2.01-.4,3.03-.4s2.04.14,3.06.42,1.92.72,2.7,1.32,1.42,1.36,1.91,2.3c.49.93.74,2.05.74,3.34v2.45h2.8v5.49h-4.23c-.78.86-1.8,1.5-3.06,1.9s-2.55.6-3.87.6c-1.39,0-2.72-.21-3.98-.62-1.26-.42-2.31-1.04-3.16-1.87h-4.13c-.44,0-.81-.14-1.1-.42s-.43-.64-.43-1.07v-2.52ZM571.62,86.71c0,.5.29.87.87,1.12s1.22.37,1.94.37,1.32-.12,1.91-.37c.59-.25.89-.62.89-1.12v-3.19c0-.77-.3-1.31-.89-1.65-.59-.33-1.23-.5-1.91-.5s-1.36.17-1.94.5-.87.88-.87,1.65v3.19Z"/>
      <path d="M584.11,87.21c0-.43.14-.79.43-1.07s.65-.42,1.1-.42h3.67c-.58-1-.87-2.15-.87-3.44,0-.93.19-1.85.56-2.77.37-.91.92-1.72,1.63-2.42s1.58-1.26,2.6-1.7c1.02-.43,2.19-.65,3.52-.65h2.4l-.76-2.99c.99-.33,1.97-.57,2.96-.72.99-.15,1.94-.22,2.86-.22,1.29,0,2.5.17,3.62.52s2.1.88,2.93,1.6,1.49,1.64,1.96,2.77c.48,1.13.71,2.48.71,4.04v5.99h2.8v5.49h-30.59c-.44,0-.81-.14-1.1-.42s-.43-.64-.43-1.07v-2.52ZM598.64,85.71v-5.49h-1.73c-.82,0-1.5.27-2.04.8-.54.53-.82,1.18-.82,1.95s.27,1.41.82,1.95c.54.53,1.22.8,2.04.8h1.73ZM607.81,79.72c0-1.4-.46-2.34-1.38-2.82s-2.07-.74-3.47-.77c.34.37.61.77.82,1.2.2.43.31.9.31,1.4v6.99h3.72v-5.99h0Z"/>
      <path d="M616.23,91.2c-.44,0-.81-.14-1.1-.42s-.43-.64-.43-1.07v-2.5c0-.43.15-.79.43-1.07.29-.28.66-.42,1.1-.42h2.8v-3.09c0-1.1.26-2.07.79-2.92.53-.85,1.21-1.55,2.06-2.12s1.83-.99,2.93-1.27,2.25-.42,3.44-.42c1.39,0,2.76.2,4.1.6s2.51,1.01,3.49,1.85v8.28c0,1.13-.23,2.11-.69,2.94s-1.06,1.51-1.81,2.05c-.75.53-1.62.93-2.6,1.2-.99.27-2.01.4-3.06.4-1.36,0-2.61-.17-3.75-.52s-2.25-.84-3.34-1.47h-4.38l.02-.03ZM624.64,86.96c.44.27.92.46,1.43.57.51.12,1.02.17,1.53.17.71,0,1.33-.12,1.86-.35.53-.23.79-.56.79-1v-4.54c-.31-.13-.68-.24-1.12-.32s-.9-.12-1.38-.12c-.82,0-1.54.16-2.17.47-.63.32-.94.82-.94,1.52v3.59h0Z"/>
    </g>
    <g>
      <path d="M284.33,163.74v4.49h-3.31v3.49c0,1.1-.4,2.04-1.2,2.82-.8.78-1.76,1.17-2.88,1.17h-6.63c-1.26,0-2.45-.23-3.57-.7s-2.1-1.11-2.93-1.92c-.83-.82-1.49-1.77-1.96-2.87-.48-1.1-.71-2.26-.71-3.49v-8.48c0-.27.1-.5.31-.7.2-.2.44-.3.71-.3h2.55c.27,0,.51.1.71.3.2.2.31.43.31.7v8.48c0,.53.11,1.06.33,1.6.22.53.52,1.01.89,1.45.37.43.82.78,1.33,1.05.51.27,1.07.4,1.68.4h6.47v-18.46c0-.27.1-.5.31-.7.2-.2.44-.3.71-.3h2.55c.27,0,.51.1.71.3.2.2.31.43.31.7v10.98h3.31ZM269.09,144.42c.54-.43,1.21-.65,1.99-.65s1.44.22,1.99.65c.54.43.82.96.82,1.6s-.27,1.17-.82,1.6c-.54.43-1.21.65-1.99.65s-1.44-.22-1.99-.65c-.54-.43-.82-.96-.82-1.6s.27-1.16.82-1.6Z"/>
      <path d="M283.24,167.8c-.29-.28-.43-.64-.43-1.07v-1.5c0-.43.14-.79.43-1.07.29-.28.65-.42,1.1-.42h3.31v-4.89c0-1,.23-1.89.69-2.67s1.07-1.44,1.84-1.97c.76-.53,1.65-.93,2.65-1.2s2.05-.4,3.14-.4c1.33,0,2.64.21,3.95.62,1.31.42,2.49,1.06,3.54,1.92v8.48c0,1.1-.21,2.06-.64,2.89-.42.83-.99,1.52-1.68,2.07s-1.5.96-2.42,1.22c-.92.27-1.89.4-2.91.4-1.29,0-2.4-.17-3.34-.52-.93-.35-1.95-.84-3.03-1.47h-5.1c-.44,0-.81-.14-1.1-.42h0ZM293.97,165.51c.61.15,1.22.22,1.83.22.82,0,1.53-.15,2.14-.45.61-.3.92-.76.92-1.4v-6.14c-.31-.17-.73-.32-1.27-.45-.54-.13-1.12-.2-1.73-.2-.88,0-1.71.18-2.47.55s-1.15,1.01-1.15,1.95v5.19c.54.33,1.12.57,1.73.72h0Z"/>
      <path d="M334.88,172.04c-.8.78-1.76,1.17-2.88,1.17h-6.63c-1.26,0-2.45-.23-3.57-.7s-2.1-1.11-2.93-1.92c-.83-.82-1.49-1.77-1.96-2.87-.48-1.1-.71-2.26-.71-3.49v-6.49c0-.27.1-.5.31-.7.2-.2.44-.3.71-.3h2.55c.27,0,.51.1.71.3.2.2.31.43.31.7v6.49c0,1.23.45,2.29,1.35,3.17s1.98,1.32,3.24,1.32h6.12v-15.97c0-.27.1-.5.31-.7.2-.2.44-.3.71-.3h2.55c.27,0,.51.1.71.3.2.2.31.43.31.7v16.47c0,1.1-.4,2.04-1.2,2.82h0ZM324.15,144.42c.54-.43,1.21-.65,1.99-.65s1.44.22,1.99.65c.54.43.82.96.82,1.6s-.27,1.17-.82,1.6c-.54.43-1.21.65-1.99.65s-1.44-.22-1.99-.65c-.54-.43-.82-.96-.82-1.6s.27-1.16.82-1.6Z"/>
      <path d="M343.37,156.45c.44-1.06,1.04-1.95,1.78-2.64s1.61-1.21,2.6-1.55c.99-.33,2.04-.5,3.16-.5,1.29,0,2.58.21,3.87.62s2.53,1.04,3.72,1.87v9.48h3.31v4.49h-3.31c0,1.5-.18,2.78-.54,3.84s-.86,1.94-1.5,2.62c-.65.68-1.41,1.18-2.29,1.5s-1.85.47-2.91.47c-1.19,0-2.4-.18-3.62-.55-1.22-.37-2.53-.88-3.93-1.55l1.48-3.49c.82.37,1.67.68,2.57.95s1.78.4,2.63.4c1.02,0,1.86-.29,2.52-.87s.99-1.69.99-3.32h-6.63c-1.29,0-2.38-.43-3.26-1.3-.88-.87-1.33-1.93-1.33-3.19v-3.49c0-1.46.22-2.73.66-3.79h.03ZM353.92,156.75c-.88-.33-1.85-.5-2.91-.5-.99,0-1.85.32-2.6.95s-1.12,1.65-1.12,3.04v3.49h6.63v-6.99h0Z"/>
      <path d="M360.73,167.8c-.29-.28-.43-.64-.43-1.07v-1.5c0-.43.14-.79.43-1.07.29-.28.65-.42,1.1-.42h4.18c-.31-.53-.53-1.11-.66-1.72s-.2-1.26-.2-1.92c0-.96.16-1.95.48-2.94.32-1,.83-1.9,1.53-2.69.7-.8,1.59-1.45,2.68-1.95s2.38-.75,3.87-.75h3.67c1.12,0,2.08.39,2.88,1.17.8.78,1.2,1.72,1.2,2.82v7.98h3.31v4.49h-22.94c-.44,0-.81-.14-1.1-.42h0ZM376.86,156.25h-3.47c-1.02,0-1.89.36-2.6,1.07s-1.07,1.61-1.07,2.67c0,.96.34,1.83,1.02,2.59.68.77,1.53,1.15,2.55,1.15h3.57v-7.49h0ZM371.31,144.42c.54-.43,1.21-.65,1.99-.65s1.44.22,1.99.65c.54.43.82.96.82,1.6s-.27,1.17-.82,1.6c-.54.43-1.21.65-1.99.65s-1.44-.22-1.99-.65c-.54-.43-.82-.96-.82-1.6s.27-1.16.82-1.6Z"/>
      <path d="M383.67,164.16c.29-.28.65-.42,1.1-.42h6.88l-3.01-5.09c-.2-.33-.35-.71-.43-1.12-.08-.42-.13-.82-.13-1.22,0-.57.08-1.12.25-1.67s.43-1.03.77-1.45.76-.76,1.27-1.02c.51-.27,1.1-.4,1.78-.4h10.71c.68,0,1.27.13,1.78.4.51.27.93.61,1.27,1.02s.6.9.77,1.45.25,1.11.25,1.67c0,.4-.04.8-.13,1.2s-.23.78-.43,1.15l-2.96,5.09h6.83v4.49h-25.49c-.44,0-.81-.14-1.1-.42s-.43-.64-.43-1.07v-1.5c0-.43.14-.79.43-1.07l.02-.02ZM392.57,156.25l4.64,7.49h.56l4.74-7.49h-9.94Z"/>
      <path d="M409.16,167.8c-.29-.28-.43-.64-.43-1.07v-1.5c0-.43.14-.79.43-1.07.29-.28.65-.42,1.1-.42h3.31v-10.98c0-.27.1-.5.31-.7.2-.2.44-.3.71-.3h2.55c.27,0,.51.1.71.3.2.2.3.43.3.7v5.49l6.27-4.99c.54-.43,1.12-.79,1.73-1.07.61-.28,1.31-.42,2.09-.42h6.22c1.12,0,2.08.39,2.88,1.17.8.78,1.2,1.72,1.2,2.82v7.98h3.31v4.49h-31.61c-.44,0-.81-.14-1.1-.42h.02ZM433.96,163.74v-7.49h-6.47l-9.43,7.49h15.91-.01ZM426.11,144.42c.54-.43,1.21-.65,1.99-.65s1.44.22,1.99.65.82.96.82,1.6-.27,1.17-.82,1.6c-.54.43-1.21.65-1.99.65s-1.44-.22-1.99-.65c-.54-.43-.82-.96-.82-1.6s.27-1.16.82-1.6Z"/>
      <path d="M440.77,164.16c.29-.28.65-.42,1.1-.42h5.35v-10.98c0-.27.1-.5.31-.7.2-.2.44-.3.71-.3h2.55c.27,0,.51.1.71.3.2.2.31.43.31.7v10.98h5.35v4.49h-15.29c-.44,0-.81-.14-1.1-.42s-.43-.64-.43-1.07v-1.5c0-.43.14-.79.43-1.07h0ZM442.94,144.42c.54-.43,1.21-.65,1.99-.65s1.45.22,1.99.65c.54.43.82.96.82,1.6s-.27,1.17-.82,1.6c-.54.43-1.21.65-1.99.65s-1.44-.22-1.99-.65-.82-.96-.82-1.6.27-1.16.82-1.6ZM449.57,144.42c.54-.43,1.21-.65,1.99-.65s1.44.22,1.99.65.82.96.82,1.6-.27,1.17-.82,1.6c-.54.43-1.21.65-1.99.65s-1.44-.22-1.99-.65-.82-.96-.82-1.6.27-1.16.82-1.6Z"/>
      <path d="M456.07,167.8c-.29-.28-.43-.64-.43-1.07v-1.5c0-.43.14-.79.43-1.07.29-.28.65-.42,1.1-.42h5.35v-10.98c0-.27.1-.5.3-.7.21-.2.44-.3.71-.3h2.55c.27,0,.51.1.71.3.2.2.31.43.31.7v10.98h5.61v-10.98c0-.27.1-.5.31-.7.2-.2.44-.3.71-.3h2.55c.27,0,.51.1.71.3.2.2.31.43.31.7v10.98h5.61v-10.98c0-.27.1-.5.31-.7.2-.2.44-.3.71-.3h2.55c.27,0,.51.1.71.3.2.2.31.43.31.7v10.98h5.35v4.49h-35.69c-.44,0-.81-.14-1.1-.42h.01Z"/>
      <path d="M491.75,164.16c.29-.28.65-.42,1.1-.42h3.31v-3.59c0-1.26.22-2.37.66-3.32s1.03-1.73,1.76-2.34c.73-.62,1.57-1.08,2.52-1.4s1.94-.47,2.96-.47,2,.15,2.93.45c.94.3,1.78.76,2.52,1.37.75.62,1.34,1.39,1.79,2.32.44.93.66,2.01.66,3.24v3.74h3.31v4.49h-5.25c-.75.8-1.66,1.41-2.73,1.85-1.07.43-2.17.65-3.29.65s-2.2-.21-3.24-.62c-1.04-.42-1.93-1.04-2.68-1.87h-5.25c-.44,0-.81-.14-1.1-.42s-.43-.64-.43-1.07v-1.5c0-.43.14-.79.43-1.07l.02-.02ZM501.8,165.73c.7.33,1.45.5,2.27.5s1.62-.17,2.29-.5c.68-.33,1.02-.83,1.02-1.5v-4.49c0-.9-.34-1.56-1.02-2s-1.45-.65-2.29-.65-1.57.22-2.27.65c-.7.43-1.04,1.1-1.04,2v4.49c0,.67.35,1.16,1.04,1.5Z"/>
      <path d="M518.6,141.78c0-.27.1-.5.31-.7s.44-.3.71-.3h2.55c.27,0,.51.1.71.3s.31.43.31.7v22.45c0,1.1-.4,2.04-1.2,2.82-.8.78-1.76,1.17-2.88,1.17h-3.82c-.44,0-.81-.14-1.1-.42s-.43-.64-.43-1.07v-1.5c0-.43.14-.79.43-1.07.29-.28.65-.42,1.1-.42h3.31v-21.96Z"/>
      <path d="M534.09,141.08c.2.2.31.43.31.7v25.45c0,.27-.1.5-.31.7-.2.2-.44.3-.71.3h-2.55c-.27,0-.51-.1-.71-.3s-.31-.43-.31-.7v-25.45c0-.27.1-.5.31-.7.2-.2.44-.3.71-.3h2.55c.27,0,.51.1.71.3Z"/>
      <path d="M552.24,168.23c-1.83,0-3.14-.34-3.92-1.02-.78-.68-1.17-1.56-1.17-2.62,0-.8.21-1.7.61-2.69l2.8-6.94c.37-.93.99-1.7,1.86-2.29.87-.6,1.83-.9,2.88-.9h7.65c.27,0,.51.1.71.3.21.2.31.43.31.7v10.98h3.31v4.49h-15.04ZM552.8,144.42c.54-.43,1.21-.65,1.99-.65s1.44.22,1.99.65.82.96.82,1.6-.27,1.17-.82,1.6c-.54.43-1.21.65-1.99.65s-1.44-.22-1.99-.65c-.54-.43-.82-.96-.82-1.6s.27-1.16.82-1.6ZM559.38,156.25h-4.38l-3.01,7.49h7.39v-7.49ZM559.43,144.42c.54-.43,1.21-.65,1.99-.65s1.44.22,1.99.65c.54.43.81.96.81,1.6s-.27,1.17-.81,1.6c-.54.43-1.21.65-1.99.65s-1.45-.22-1.99-.65-.82-.96-.82-1.6.27-1.16.82-1.6Z"/>
      <path d="M566.19,164.16c.29-.28.65-.42,1.1-.42h5.35v-10.98c0-.27.1-.5.3-.7.21-.2.44-.3.71-.3h2.55c.27,0,.51.1.71.3s.31.43.31.7v11.48c0,1.1-.4,2.04-1.2,2.82-.8.78-1.76,1.17-2.88,1.17h-5.86c-.44,0-.81-.14-1.1-.42s-.43-.64-.43-1.07v-1.5c0-.43.14-.79.43-1.07h.01ZM567.08,171.87c.54-.43,1.21-.65,1.99-.65s1.44.22,1.99.65.82.96.82,1.6-.27,1.16-.82,1.6-1.21.65-1.99.65-1.44-.22-1.99-.65-.82-.96-.82-1.6.27-1.16.82-1.6ZM573.71,171.87c.54-.43,1.21-.65,1.99-.65s1.44.22,1.99.65c.54.43.81.96.81,1.6s-.27,1.16-.81,1.6c-.54.43-1.21.65-1.99.65s-1.45-.22-1.99-.65-.82-.96-.82-1.6.27-1.16.82-1.6Z"/>
      <path d="M588.13,141.08c.2.2.31.43.31.7v21.96h3.31v4.49h-6.88c-.27,0-.51-.1-.71-.3s-.31-.43-.31-.7v-25.45c0-.27.1-.5.31-.7.2-.2.44-.3.71-.3h2.55c.27,0,.51.1.71.3Z"/>
      <path d="M590.66,164.16c.29-.28.65-.42,1.1-.42h3.31v-3.59c0-1.26.22-2.37.66-3.32.44-.95,1.03-1.73,1.76-2.34.73-.62,1.57-1.08,2.52-1.4.95-.32,1.94-.47,2.96-.47s2,.15,2.93.45,1.78.76,2.52,1.37c.75.62,1.34,1.39,1.78,2.32.44.93.66,2.01.66,3.24v3.74h3.31v4.49h-5.25c-.75.8-1.66,1.41-2.73,1.85-1.07.43-2.17.65-3.29.65s-2.2-.21-3.24-.62-1.93-1.04-2.68-1.87h-5.25c-.44,0-.81-.14-1.1-.42s-.43-.64-.43-1.07v-1.5c0-.43.14-.79.43-1.07l.03-.02ZM600.7,165.73c.7.33,1.45.5,2.27.5s1.61-.17,2.29-.5,1.02-.83,1.02-1.5v-4.49c0-.9-.34-1.56-1.02-2s-1.44-.65-2.29-.65-1.57.22-2.27.65-1.04,1.1-1.04,2v4.49c0,.67.35,1.16,1.04,1.5Z"/>
      <path d="M613.09,164.16c.29-.28.65-.42,1.1-.42h12.85c-.34-.8-.69-1.72-1.04-2.77s-.78-2.05-1.27-2.99-1.06-1.75-1.71-2.39c-.65-.65-1.44-.97-2.4-.97-.58,0-1.14.12-1.68.35-.54.23-1.1.53-1.68.9l-1.53-3.09c.92-.73,1.91-1.33,2.98-1.8s2.13-.7,3.19-.7,1.9.22,2.65.65,1.4,1.01,1.96,1.72c.56.72,1.06,1.54,1.5,2.47.44.93.88,1.9,1.3,2.89s.87,2,1.33,2.99c.46,1,.99,1.91,1.61,2.75h2.34v4.49h-20.39c-.44,0-.81-.14-1.1-.42s-.43-.64-.43-1.07v-1.5c0-.43.14-.79.43-1.07v-.02Z"/>
      <path d="M450.46,208.97c-.8-.78-1.2-1.72-1.2-2.82v-6.64h-8.21c-1.19,0-2.2.3-3.03.9-.83.6-1.25,1.6-1.25,2.99v.6h3.57c1.12,0,2.08.39,2.88,1.17.8.78,1.2,1.72,1.2,2.82v.5c0,1.26-.24,2.44-.71,3.52-.48,1.08-1.13,2.04-1.96,2.87s-1.81,1.48-2.93,1.95c-1.12.46-2.31.7-3.57.7h-7.39c-1.26,0-2.45-.23-3.57-.7s-2.1-1.12-2.93-1.95-1.49-1.79-1.96-2.87c-.48-1.08-.71-2.25-.71-3.52v-5.24c0-.27.1-.5.31-.7.2-.2.44-.3.71-.3h2.55c.27,0,.51.1.71.3.2.2.31.43.31.7v5.24c0,.57.1,1.12.31,1.67.2.55.48,1.03.84,1.45s.79.76,1.3,1.02c.51.27,1.05.4,1.63.4h7.9c1.33,0,2.42-.44,3.29-1.32s1.3-1.95,1.3-3.22h-4.59c-.88,0-1.61-.28-2.19-.85s-.87-1.28-.87-2.15v-1.8c0-1.6.21-2.95.64-4.07s1.02-2.02,1.78-2.72,1.67-1.21,2.73-1.52c1.05-.32,2.19-.47,3.42-.47h12.08c.27,0,.51.09.71.27.2.18.31.42.31.72v9.73h5.61v-9.73c0-.27.1-.5.31-.7.2-.2.44-.3.71-.3h2.55c.27,0,.51.1.71.3.2.2.31.43.31.7v9.73h5.61v-9.73c0-.27.1-.5.31-.7s.44-.3.71-.3h2.55c.27,0,.51.1.71.3s.31.43.31.7v9.73h5.35v4.49h-26.25c-1.12,0-2.08-.39-2.88-1.17l-.03.02ZM425.86,220.71c.54-.39,1.21-.58,1.99-.58s1.44.19,1.99.58c.54.39.82.87.82,1.44s-.27,1.05-.82,1.44c-.54.39-1.21.58-1.99.58s-1.45-.19-1.99-.58c-.54-.39-.82-.87-.82-1.44s.27-1.05.82-1.44ZM432.49,220.71c.54-.39,1.21-.58,1.99-.58s1.44.19,1.99.58c.54.39.82.87.82,1.44s-.27,1.05-.82,1.44c-.54.39-1.21.58-1.99.58s-1.45-.19-1.99-.58c-.54-.39-.82-.87-.82-1.44s.27-1.05.82-1.44Z"/>
      <path d="M478.5,209.72c-.29-.28-.43-.64-.43-1.07v-1.5c0-.43.14-.79.43-1.07.29-.28.65-.42,1.1-.42h4.18c-.31-.53-.53-1.11-.66-1.72-.13-.62-.2-1.26-.2-1.92,0-.96.16-1.95.48-2.94.32-1,.83-1.9,1.53-2.69.7-.8,1.59-1.45,2.68-1.95s2.38-.75,3.88-.75h3.67c1.12,0,2.08.39,2.88,1.17.8.78,1.2,1.72,1.2,2.82v7.98h3.31v4.49h-22.94c-.44,0-.81-.14-1.1-.42h-.01ZM494.63,198.17h-3.47c-1.02,0-1.89.36-2.6,1.07s-1.07,1.61-1.07,2.67c0,.96.34,1.83,1.02,2.59.68.77,1.53,1.15,2.55,1.15h3.57v-7.48h0ZM489.08,186.34c.54-.43,1.21-.65,1.99-.65s1.45.22,1.99.65c.54.43.82.96.82,1.6s-.27,1.17-.82,1.6c-.54.43-1.21.65-1.99.65s-1.44-.22-1.99-.65c-.54-.43-.82-.96-.82-1.6s.27-1.16.82-1.6Z"/>
      <path d="M501.44,206.08c.29-.28.65-.42,1.1-.42h5.35v-10.98c0-.27.1-.5.31-.7.2-.2.44-.3.71-.3h2.55c.27,0,.51.1.71.3.2.2.3.43.3.7v10.98h5.35v4.49h-15.29c-.44,0-.81-.14-1.1-.42s-.43-.64-.43-1.07v-1.5c0-.43.14-.79.43-1.07h.01ZM508.2,186.34c.54-.43,1.21-.65,1.99-.65s1.44.22,1.99.65c.54.43.81.96.81,1.6s-.27,1.17-.81,1.6c-.54.43-1.21.65-1.99.65s-1.45-.22-1.99-.65c-.54-.43-.82-.96-.82-1.6s.27-1.16.82-1.6Z"/>
      <path d="M521.14,183.7c0-.27.1-.5.31-.7s.44-.3.71-.3h2.55c.27,0,.51.1.71.3s.31.43.31.7v22.45c0,1.1-.4,2.04-1.2,2.82-.8.78-1.76,1.17-2.88,1.17h-3.82c-.44,0-.81-.14-1.1-.42s-.43-.64-.43-1.07v-1.5c0-.43.14-.79.43-1.07.29-.28.65-.42,1.1-.42h3.31v-21.96h0Z"/>
      <path d="M536.64,183c.2.2.31.43.31.7v25.45c0,.27-.1.5-.31.7-.2.2-.44.3-.71.3h-2.55c-.27,0-.51-.1-.71-.3s-.31-.43-.31-.7v-25.45c0-.27.1-.5.31-.7.2-.2.44-.3.71-.3h2.55c.27,0,.51.1.71.3Z"/>
      <path d="M572.89,195.42c-.71,0-1.39.08-2.04.22-.65.15-1.22.39-1.71.72-.49.33-.88.78-1.17,1.35s-.43,1.26-.43,2.1v2.1h5.61c1.12,0,2.08.39,2.88,1.17s1.2,1.72,1.2,2.82v1.75c0,1.23-.24,2.4-.71,3.49-.48,1.1-1.13,2.05-1.96,2.87-.83.81-1.81,1.46-2.93,1.92s-2.31.7-3.57.7h-9.18c-1.26,0-2.45-.23-3.57-.7s-2.1-1.11-2.93-1.92c-.83-.82-1.49-1.77-1.96-2.87-.48-1.1-.71-2.26-.71-3.49v-5.24c0-.27.1-.5.31-.7.2-.2.44-.3.71-.3h2.55c.27,0,.51.1.71.3s.31.43.31.7v5.64c0,.57.14,1.1.41,1.6.27.5.62.93,1.05,1.3.42.37.91.66,1.45.87.54.22,1.11.32,1.68.32h9.18c.65,0,1.25-.12,1.81-.37s1.04-.58,1.45-1c.41-.42.73-.9.97-1.45s.36-1.11.36-1.67v-1.25h-6.63c-.85,0-1.57-.29-2.17-.87s-.89-1.29-.89-2.12v-3.64c0-1.56.22-2.91.66-4.04s1.05-2.06,1.84-2.79c.78-.73,1.71-1.27,2.78-1.62,1.07-.35,2.24-.52,3.49-.52.92,0,1.85.08,2.8.25s1.94.42,2.96.75l-1.07,4.19c-1.19-.37-2.36-.55-3.52-.55l-.02-.02Z"/>
      <path d="M586.61,191.93c.95-.17,1.89-.25,2.8-.25,1.26,0,2.41.17,3.47.52,1.05.35,1.97.89,2.75,1.62s1.39,1.66,1.83,2.79c.44,1.13.66,2.48.66,4.04v8.48c0,.27-.1.5-.31.7-.2.2-.44.3-.71.3h-14.53v-4.49h10.96v-4.99c0-.8-.14-1.48-.43-2.05s-.67-1.02-1.15-1.37c-.48-.35-1.04-.6-1.68-.75-.65-.15-1.33-.22-2.04-.22-.58,0-1.17.05-1.78.15s-1.19.25-1.73.45l-1.12-4.19c1.05-.33,2.06-.58,3.01-.75h0ZM586.45,184.35c.54-.43,1.21-.65,1.99-.65s1.44.22,1.99.65c.54.43.82.96.82,1.6s-.27,1.16-.82,1.6c-.54.43-1.21.65-1.99.65s-1.44-.22-1.99-.65c-.54-.43-.82-.96-.82-1.6s.27-1.17.82-1.6Z"/>
      <path d="M608.3,179.08c-.25-.08-.5-.12-.74-.12-.27,0-.5.07-.69.2s-.28.37-.28.7c0,.27.12.52.36.75s.59.35,1.07.35h1.94v2.25h-6.32v-2.25h1.22c-.48-.4-.71-.92-.71-1.55,0-.76.31-1.36.92-1.8s1.33-.65,2.14-.65c.48,0,.96.09,1.45.27.49.18.91.41,1.25.67l-.97,1.5c-.17-.13-.38-.24-.64-.32h0ZM609.39,185.44c.24.17.39.42.46.75l2.55,21.21h-3.57c-.27,0-.54-.08-.79-.25s-.4-.42-.43-.75l-2.55-21.21h3.57c.27,0,.53.08.76.25h0ZM606.69,212.64c.1-.3.19-.57.26-.82s.14-.52.23-.82c.09-.3.21-.72.38-1.25.48.17,1.22.35,2.24.55s2.06.3,3.11.3c.61,0,1.19-.04,1.73-.12s1.03-.24,1.45-.47.76-.52,1.02-.87c.25-.35.38-.81.38-1.37v-24.05c0-.27.1-.5.3-.7.21-.2.44-.3.71-.3h2.55c.27,0,.51.1.71.3.21.2.31.43.31.7v24.05c0,1.4-.24,2.57-.71,3.52-.48.95-1.12,1.71-1.94,2.29s-1.76,1-2.83,1.25-2.18.37-3.34.37-2.39-.12-3.59-.35c-1.21-.23-2.34-.55-3.39-.95.17-.53.31-.95.41-1.25h.01Z"/>
      <path d="M633,183c.2.2.31.43.31.7v25.45c0,.27-.1.5-.31.7-.2.2-.44.3-.71.3h-2.55c-.27,0-.51-.1-.71-.3s-.31-.43-.31-.7v-25.45c0-.27.1-.5.31-.7.2-.2.44-.3.71-.3h2.55c.27,0,.51.1.71.3Z"/>
      <path d="M169.19,270.96c-.8.78-1.76,1.17-2.88,1.17h-6.63c-1.26,0-2.45-.23-3.57-.7s-2.1-1.11-2.93-1.92c-.83-.82-1.49-1.77-1.96-2.87-.48-1.1-.71-2.26-.71-3.49v-5.99c0-.27.1-.5.31-.7.2-.2.44-.3.71-.3h2.55c.27,0,.51.1.71.3.2.2.31.43.31.7v5.99c0,1.23.45,2.29,1.35,3.17.9.88,1.98,1.32,3.24,1.32h6.12v-17.96c0-.27.1-.5.31-.7.2-.2.44-.3.71-.3h2.55c.27,0,.51.1.71.3.2.2.31.43.31.7v10.98h5.61v-10.98c0-.27.1-.5.31-.7.2-.2.44-.3.71-.3h2.55c.27,0,.51.1.71.3.2.2.31.43.31.7v10.98h5.61v-10.98c0-.27.1-.5.31-.7.2-.2.44-.3.71-.3h2.55c.27,0,.51.1.71.3.2.2.31.43.31.7v10.98h5.35v4.49h-25.74v2.99c0,1.1-.4,2.04-1.2,2.82h-.02Z"/>
      <path d="M195.04,264.72c-.29-.28-.43-.64-.43-1.07v-1.5c0-.43.14-.79.43-1.07s.65-.42,1.1-.42h4.18c-.31-.53-.53-1.11-.66-1.72s-.2-1.26-.2-1.92c0-.96.16-1.95.48-2.94s.83-1.9,1.53-2.69c.7-.8,1.59-1.45,2.68-1.95s2.38-.75,3.87-.75h3.67c1.12,0,2.08.39,2.88,1.17s1.2,1.72,1.2,2.82v7.98h3.31v4.49h-22.94c-.44,0-.81-.14-1.1-.42h0ZM211.17,253.17h-3.47c-1.02,0-1.89.36-2.6,1.07s-1.07,1.61-1.07,2.67c0,.96.34,1.83,1.02,2.59.68.77,1.53,1.15,2.55,1.15h3.57v-7.48ZM205.62,241.34c.54-.43,1.21-.65,1.99-.65s1.44.22,1.99.65c.54.43.82.96.82,1.6s-.27,1.17-.82,1.6c-.54.43-1.21.65-1.99.65s-1.44-.22-1.99-.65c-.54-.43-.82-.96-.82-1.6s.27-1.16.82-1.6Z"/>
      <path d="M217.98,261.08c.29-.28.65-.42,1.1-.42h5.35v-10.98c0-.27.1-.5.31-.7.2-.2.44-.3.71-.3h2.55c.27,0,.51.1.71.3.2.2.31.43.31.7v10.98h5.35v4.49h-15.29c-.44,0-.81-.14-1.1-.42-.29-.28-.43-.64-.43-1.07v-1.5c0-.43.14-.79.43-1.07h0ZM224.74,241.34c.54-.43,1.21-.65,1.99-.65s1.44.22,1.99.65c.54.43.82.96.82,1.6s-.27,1.17-.82,1.6c-.54.43-1.21.65-1.99.65s-1.44-.22-1.99-.65-.82-.96-.82-1.6.27-1.16.82-1.6Z"/>
      <path d="M237.68,238.7c0-.27.1-.5.31-.7.2-.2.44-.3.71-.3h2.55c.27,0,.51.1.71.3.2.2.31.43.31.7v22.45c0,1.1-.4,2.04-1.2,2.82s-1.76,1.17-2.88,1.17h-3.82c-.44,0-.81-.14-1.1-.42-.29-.28-.43-.64-.43-1.07v-1.5c0-.43.14-.79.43-1.07s.65-.42,1.1-.42h3.31v-21.96h0Z"/>
      <path d="M253.18,238c.2.2.31.43.31.7v21.96h3.31v4.49h-6.88c-.27,0-.51-.1-.71-.3-.2-.2-.31-.43-.31-.7v-25.45c0-.27.1-.5.31-.7.2-.2.44-.3.71-.3h2.55c.27,0,.51.1.71.3Z"/>
      <path d="M255.71,261.08c.29-.28.65-.42,1.1-.42h5.35v-10.98c0-.27.1-.5.31-.7.2-.2.44-.3.71-.3h2.55c.27,0,.51.1.71.3.2.2.31.43.31.7v11.48c0,1.1-.4,2.04-1.2,2.82-.8.78-1.76,1.17-2.88,1.17h-5.86c-.44,0-.81-.14-1.1-.42-.29-.28-.43-.64-.43-1.07v-1.5c0-.43.14-.79.43-1.07h0ZM259.96,268.79c.54-.43,1.21-.65,1.99-.65s1.44.22,1.99.65.82.96.82,1.6-.27,1.16-.82,1.6-1.21.65-1.99.65-1.44-.22-1.99-.65c-.54-.43-.82-.96-.82-1.6s.27-1.16.82-1.6Z"/>
      <path d="M284.59,265.14c-1.84,0-3.14-.34-3.93-1.02-.78-.68-1.17-1.56-1.17-2.62,0-.8.2-1.7.61-2.69l2.8-6.94c.37-.93.99-1.7,1.86-2.29.87-.6,1.83-.9,2.88-.9h7.65c.27,0,.51.1.71.3.2.2.31.43.31.7v10.98h3.31v4.49h-15.04.01ZM285.15,241.34c.54-.43,1.21-.65,1.99-.65s1.44.22,1.99.65c.54.43.82.96.82,1.6s-.27,1.17-.82,1.6c-.54.43-1.21.65-1.99.65s-1.44-.22-1.99-.65c-.54-.43-.82-.96-.82-1.6s.27-1.16.82-1.6ZM291.73,253.17h-4.38l-3.01,7.48h7.39v-7.48ZM291.78,241.34c.54-.43,1.21-.65,1.99-.65s1.44.22,1.99.65.82.96.82,1.6-.27,1.17-.82,1.6c-.54.43-1.21.65-1.99.65s-1.44-.22-1.99-.65c-.54-.43-.82-.96-.82-1.6s.27-1.16.82-1.6Z"/>
      <path d="M298.53,264.72c-.29-.28-.43-.64-.43-1.07v-1.5c0-.43.14-.79.43-1.07.29-.28.65-.42,1.1-.42h4.18c-.31-.53-.53-1.11-.66-1.72s-.2-1.26-.2-1.92c0-.96.16-1.95.48-2.94s.83-1.9,1.53-2.69c.7-.8,1.59-1.45,2.68-1.95s2.38-.75,3.87-.75h3.67c1.12,0,2.08.39,2.88,1.17.8.78,1.2,1.72,1.2,2.82v7.98h3.31v4.49h-22.94c-.44,0-.81-.14-1.1-.42h0ZM305.8,241.34c.54-.43,1.21-.65,1.99-.65s1.44.22,1.99.65.82.96.82,1.6-.27,1.17-.82,1.6c-.54.43-1.21.65-1.99.65s-1.44-.22-1.99-.65-.82-.96-.82-1.6.27-1.16.82-1.6ZM314.67,253.17h-3.47c-1.02,0-1.89.36-2.6,1.07s-1.07,1.61-1.07,2.67c0,.96.34,1.83,1.02,2.59.68.77,1.53,1.15,2.55,1.15h3.57v-7.48h0ZM312.42,241.34c.54-.43,1.21-.65,1.99-.65s1.44.22,1.99.65c.54.43.82.96.82,1.6s-.27,1.17-.82,1.6c-.54.43-1.21.65-1.99.65s-1.44-.22-1.99-.65-.82-.96-.82-1.6.27-1.16.82-1.6Z"/>
      <path d="M321.47,261.08c.29-.28.65-.42,1.1-.42h5.35v-10.98c0-.27.1-.5.31-.7.2-.2.44-.3.71-.3h2.55c.27,0,.51.1.71.3.2.2.31.43.31.7v10.98h5.35v4.49h-15.29c-.44,0-.81-.14-1.1-.42s-.43-.64-.43-1.07v-1.5c0-.43.14-.79.43-1.07h0ZM323.64,242.34c.54-.43,1.21-.65,1.99-.65s1.44.22,1.99.65c.54.43.82.96.82,1.6s-.27,1.16-.82,1.6c-.54.43-1.21.65-1.99.65s-1.44-.22-1.99-.65c-.54-.43-.82-.96-.82-1.6s.27-1.16.82-1.6ZM326.95,237.35c.54-.43,1.21-.65,1.99-.65s1.44.22,1.99.65c.54.43.82.96.82,1.6s-.27,1.16-.82,1.6c-.54.43-1.21.65-1.99.65s-1.44-.22-1.99-.65-.82-.96-.82-1.6.27-1.16.82-1.6ZM330.27,242.34c.54-.43,1.21-.65,1.99-.65s1.44.22,1.99.65.82.96.82,1.6-.27,1.16-.82,1.6-1.21.65-1.99.65-1.44-.22-1.99-.65c-.54-.43-.82-.96-.82-1.6s.27-1.16.82-1.6Z"/>
      <path d="M341.18,238.7c0-.27.1-.5.31-.7.2-.2.44-.3.71-.3h2.55c.27,0,.51.1.71.3.2.2.31.43.31.7v22.45c0,1.1-.4,2.04-1.2,2.82-.8.78-1.76,1.17-2.88,1.17h-3.82c-.44,0-.81-.14-1.1-.42s-.43-.64-.43-1.07v-1.5c0-.43.14-.79.43-1.07.29-.28.65-.42,1.1-.42h3.31v-21.96h0Z"/>
      <path d="M356.68,238c.2.2.31.43.31.7v25.45c0,.27-.1.5-.31.7-.2.2-.44.3-.71.3h-2.55c-.27,0-.51-.1-.71-.3s-.31-.43-.31-.7v-25.45c0-.27.1-.5.31-.7.2-.2.44-.3.71-.3h2.55c.27,0,.51.1.71.3Z"/>
      <path d="M388.41,268.96c-.8.78-1.76,1.17-2.88,1.17h-6.63c-1.26,0-2.45-.23-3.57-.7s-2.1-1.11-2.93-1.92c-.83-.82-1.49-1.77-1.96-2.87-.48-1.1-.71-2.26-.71-3.49v-5.89c0-.27.1-.5.31-.7.2-.2.44-.3.71-.3h2.55c.27,0,.51.1.71.3.2.2.31.43.31.7v5.89c0,1.26.45,2.33,1.35,3.19.9.87,1.98,1.3,3.24,1.3h6.12v-26.94c0-.27.1-.5.31-.7.2-.2.44-.3.71-.3h2.55c.27,0,.51.1.71.3.2.2.31.43.31.7v27.44c0,1.1-.4,2.04-1.2,2.82h0Z"/>
      <path d="M400.52,238c.2.2.3.43.3.7v21.96h3.31v4.49h-6.88c-.27,0-.51-.1-.71-.3-.21-.2-.31-.43-.31-.7v-25.45c0-.27.1-.5.31-.7.2-.2.44-.3.71-.3h2.55c.27,0,.51.1.71.3h.01Z"/>
      <path d="M403.04,264.72c-.29-.28-.43-.64-.43-1.07v-1.5c0-.43.14-.79.43-1.07.29-.28.65-.42,1.1-.42h4.18c-.3-.53-.53-1.11-.66-1.72s-.2-1.26-.2-1.92c0-.96.16-1.95.48-2.94s.83-1.9,1.53-2.69c.7-.8,1.59-1.45,2.68-1.95s2.38-.75,3.88-.75h3.67c1.12,0,2.08.39,2.88,1.17.8.78,1.2,1.72,1.2,2.82v7.98h3.31v4.49h-22.94c-.44,0-.81-.14-1.1-.42h-.01ZM419.18,253.17h-3.47c-1.02,0-1.89.36-2.6,1.07s-1.07,1.61-1.07,2.67c0,.96.34,1.83,1.02,2.59.68.77,1.53,1.15,2.55,1.15h3.57v-7.48h0ZM413.62,241.34c.54-.43,1.21-.65,1.99-.65s1.44.22,1.99.65c.54.43.82.96.82,1.6s-.27,1.17-.82,1.6c-.54.43-1.21.65-1.99.65s-1.45-.22-1.99-.65c-.54-.43-.82-.96-.82-1.6s.27-1.16.82-1.6Z"/>
      <path d="M425.99,264.72c-.29-.28-.43-.64-.43-1.07v-1.5c0-.43.14-.79.43-1.07.29-.28.65-.42,1.1-.42h3.31v-21.96c0-.27.1-.5.31-.7s.44-.3.71-.3h2.55c.27,0,.51.1.71.3s.31.43.31.7v16.47l6.27-4.99c.54-.43,1.12-.79,1.73-1.07.61-.28,1.31-.42,2.09-.42h6.22c1.12,0,2.08.39,2.88,1.17.8.78,1.2,1.72,1.2,2.82v8.48c0,1.1-.4,2.04-1.2,2.82-.8.78-1.76,1.17-2.88,1.17h-24.22c-.44,0-.81-.14-1.1-.42h.01ZM450.79,260.65v-7.48h-6.47l-9.43,7.48h15.91-.01Z"/>
      <path d="M465.55,234.08c-.26-.08-.5-.12-.74-.12-.27,0-.5.07-.69.2-.19.13-.28.37-.28.7,0,.27.12.52.36.75s.59.35,1.07.35h1.94v2.25h-6.32v-2.25h1.22c-.48-.4-.71-.92-.71-1.55,0-.76.31-1.36.92-1.8.61-.43,1.33-.65,2.14-.65.48,0,.96.09,1.45.27.49.18.91.41,1.25.67l-.97,1.5c-.17-.13-.38-.24-.64-.32h0ZM466.64,240.44c.24.17.39.42.46.75l2.55,21.21h-3.57c-.27,0-.54-.08-.79-.25s-.4-.42-.43-.75l-2.55-21.21h3.57c.27,0,.53.08.77.25h0ZM463.94,267.64c.1-.3.19-.57.25-.82.07-.25.14-.52.23-.82.08-.3.21-.72.38-1.25.48.17,1.22.35,2.24.55,1.02.2,2.06.3,3.11.3.61,0,1.19-.04,1.73-.12s1.03-.24,1.45-.47c.43-.23.77-.52,1.02-.87.26-.35.38-.81.38-1.37v-24.05c0-.27.1-.5.31-.7s.44-.3.71-.3h2.55c.27,0,.51.1.71.3s.31.43.31.7v24.05c0,1.4-.24,2.57-.71,3.52-.48.95-1.12,1.71-1.94,2.29-.82.58-1.76,1-2.83,1.25-1.07.25-2.18.37-3.34.37s-2.39-.12-3.59-.35c-1.21-.23-2.34-.55-3.39-.95.17-.53.3-.95.41-1.25h.01Z"/>
      <path d="M490.25,238c.2.2.31.43.31.7v25.45c0,.27-.1.5-.31.7-.2.2-.44.3-.71.3h-2.55c-.27,0-.51-.1-.71-.3s-.31-.43-.31-.7v-25.45c0-.27.1-.5.31-.7s.44-.3.71-.3h2.55c.27,0,.51.1.71.3Z"/>
      <path d="M515.23,259.5c0-.76.24-1.35.71-1.75.48-.4,1-.6,1.58-.6.68,0,1.26.23,1.73.7l2.8,2.79h5.96v4.49h-1.48l1.48,1.5c1.02,1.06,1.53,2.23,1.53,3.49,0,1.06-.38,2-1.15,2.79-.77.8-1.91,1.2-3.44,1.2h-12.49c-1.26,0-2.45-.23-3.57-.7s-2.1-1.11-2.93-1.92c-.83-.81-1.49-1.77-1.96-2.87s-.71-2.26-.71-3.49v-5.99c0-.27.1-.5.31-.7.2-.2.44-.3.71-.3h2.55c.27,0,.51.1.71.3s.31.43.31.7v5.99c0,1.26.45,2.33,1.35,3.19.9.87,1.98,1.3,3.24,1.3h11.93l-8.46-8.43c-.48-.47-.71-1.03-.71-1.7h0ZM511.76,277.7c.54-.39,1.21-.58,1.99-.58s1.44.2,1.99.58c.54.39.81.87.81,1.44s-.27,1.05-.81,1.44-1.21.58-1.99.58-1.45-.19-1.99-.58c-.54-.39-.82-.87-.82-1.44s.27-1.05.82-1.44ZM518.39,277.7c.54-.39,1.21-.58,1.99-.58s1.44.2,1.99.58c.54.39.82.87.82,1.44s-.27,1.05-.82,1.44c-.54.39-1.21.58-1.99.58s-1.45-.19-1.99-.58c-.54-.39-.82-.87-.82-1.44s.27-1.05.82-1.44Z"/>
      <path d="M526.93,261.08c.29-.28.65-.42,1.1-.42h4.18c-.31-.53-.53-1.11-.66-1.72-.14-.62-.21-1.26-.21-1.92,0-.96.16-1.95.48-2.94.32-1,.83-1.9,1.53-2.69.7-.8,1.59-1.45,2.68-1.95,1.09-.5,2.38-.75,3.87-.75h3.67c1.12,0,2.08.39,2.88,1.17s1.2,1.72,1.2,2.82v11.48c0,.27-.1.5-.31.7-.2.2-.44.3-.71.3h-18.61c-.44,0-.81-.14-1.1-.42s-.43-.64-.43-1.07v-1.5c0-.43.14-.79.43-1.07v-.02ZM537,254.24c-.71.71-1.07,1.61-1.07,2.67,0,.96.34,1.83,1.02,2.59.68.77,1.56,1.15,2.65,1.15h3.47v-7.48h-3.47c-1.02,0-1.89.36-2.6,1.07h0ZM537.51,241.34c.54-.43,1.21-.65,1.99-.65s1.44.22,1.99.65.82.96.82,1.6-.27,1.17-.82,1.6c-.54.43-1.21.65-1.99.65s-1.44-.22-1.99-.65c-.54-.43-.82-.96-.82-1.6s.27-1.16.82-1.6Z"/>
      <path d="M575.69,249.67c0-.27.1-.5.31-.7.2-.2.44-.3.71-.3h2.55c.27,0,.51.1.71.3s.31.43.31.7v10.98h5.61v-10.98c0-.27.1-.5.3-.7.21-.2.44-.3.71-.3h2.55c.27,0,.51.1.71.3s.31.43.31.7v10.98h5.61v-10.98c0-.27.1-.5.31-.7.2-.2.44-.3.71-.3h2.55c.27,0,.51.1.71.3s.31.43.31.7v11.48c0,1.1-.4,2.04-1.2,2.82s-1.76,1.17-2.88,1.17h-16.31v2.99c0,1.1-.4,2.04-1.2,2.82s-1.76,1.17-2.88,1.17h-6.63c-1.26,0-2.45-.23-3.57-.7s-2.1-1.11-2.93-1.92c-.83-.82-1.49-1.77-1.96-2.87-.47-1.1-.71-2.26-.71-3.49v-5.99c0-.27.1-.5.31-.7.2-.2.44-.3.71-.3h2.55c.27,0,.51.1.71.3.2.2.31.43.31.7v5.99c0,1.23.45,2.29,1.35,3.17.9.88,1.98,1.32,3.24,1.32h6.12v-17.96h0Z"/>
      <path d="M601.01,268.96c1,.32,1.96.47,2.88.47s1.76-.3,2.42-.9.99-1.73.99-3.39v-15.47c0-.27.1-.5.31-.7.2-.2.44-.3.71-.3h2.55c.27,0,.51.1.71.3s.31.43.31.7v10.98h3.31v4.49h-3.31c0,1.5-.18,2.78-.54,3.84s-.86,1.94-1.5,2.62c-.65.68-1.41,1.18-2.29,1.5s-1.85.47-2.91.47c-1.19,0-2.44-.18-3.75-.55s-2.66-.88-4.05-1.55l1.48-3.54c.78.37,1.67.71,2.68,1.02h0Z"/>
      <path d="M614.13,261.05c.31-.27.66-.4,1.07-.4h4.94c-.78-.77-1.35-1.6-1.71-2.5s-.54-1.8-.54-2.69c0-1.1.22-2.08.66-2.94s1.04-1.6,1.79-2.2c.75-.6,1.62-1.06,2.62-1.37s2.08-.47,3.24-.47c1.09,0,2.21.14,3.36.42,1.16.28,2.33.71,3.52,1.27l-1.73,3.89c-.68-.27-1.43-.52-2.24-.75-.82-.23-1.65-.35-2.5-.35-.41,0-.86.06-1.35.17s-.95.3-1.38.55-.78.58-1.07,1-.43.94-.43,1.57c0,.47.1.95.31,1.45s.51.97.92,1.42.91.82,1.5,1.1c.6.28,1.27.42,2.01.42h6.83l-.92,4.49h-17.84c-.44,0-.81-.14-1.1-.42s-.43-.64-.43-1.07v-1.5c0-.46.15-.83.46-1.1h0ZM622.9,241.34c.54-.43,1.21-.65,1.99-.65s1.44.22,1.99.65c.54.43.82.96.82,1.6s-.27,1.17-.82,1.6c-.54.43-1.21.65-1.99.65s-1.45-.22-1.99-.65-.82-.96-.82-1.6.27-1.16.82-1.6Z"/>
    </g>
    <path d="M489.12,81.22c-.27,0-.51-.1-.71-.3-.2-.2-.31-.43-.31-.7v-3.99c0-.27.1-.5.31-.7.2-.2.44-.3.71-.3h4.08c.27,0,.51.1.71.3.2.2.31.43.31.7v3.99c0,.27-.1.5-.31.7-.2.2-.44.3-.71.3h-4.08ZM489.12,91.2c-.27,0-.51-.1-.71-.3-.2-.2-.31-.43-.31-.7v-3.99c0-.27.1-.5.31-.7.2-.2.44-.3.71-.3h4.08c.27,0,.51.1.71.3.2.2.31.43.31.7v3.99c0,.27-.1.5-.31.7-.2.2-.44.3-.71.3h-4.08Z"/>
    <path d="M401.88,212.37c-.2-.2-.31-.43-.31-.7v-3.74c0-.27.1-.5.31-.7.2-.2.44-.3.71-.3h3.82c.27,0,.51.1.71.3.2.2.31.43.31.7v3.74c0,.27-.1.5-.31.7-.2.2-.44.3-.71.3h-3.82c-.27,0-.51-.1-.71-.3Z"/>
    <path d="M132.86,264.84c-.2-.2-.31-.43-.31-.7v-3.74c0-.27.1-.5.31-.7.2-.2.44-.3.71-.3h3.82c.27,0,.51.1.71.3.2.2.31.43.31.7v3.74c0,.27-.1.5-.31.7-.2.2-.44.3-.71.3h-3.82c-.27,0-.51-.1-.71-.3Z"/>
  </g>
</svg>