<?xml version="1.0" encoding="UTF-8"?>
<svg id="Layer_1" xmlns="http://www.w3.org/2000/svg" version="1.1" viewBox="0 0 778.28 233.66">
  <!-- Generator: Adobe Illustrator 29.7.1, SVG Export Plug-In . SVG Version: 2.1.1 Build 8)  -->
  <defs>
    <style>
      .st0 {
        fill: #91f2b3;
      }
    </style>
  </defs>
  <g>
    <path d="M169.14,98.21c0,.27-.1.5-.31.7-.2.2-.44.3-.71.3h-2.55c-.27,0-.51-.1-.71-.3-.2-.2-.31-.43-.31-.7v-24.45c0-.27.1-.5.31-.7.2-.2.44-.3.71-.3h9.08c1.5,0,2.82.26,3.98.77,1.16.52,2.12,1.2,2.91,2.05.78.85,1.38,1.81,1.78,2.89.41,1.08.61,2.19.61,3.32,0,1.03-.18,2.04-.54,3.02-.36.98-.92,1.85-1.68,2.62-.76.76-1.73,1.38-2.91,1.85s-2.56.7-4.15.7h-5.51v8.23h0ZM178.24,84.34c.73-.76,1.1-1.61,1.1-2.54,0-.57-.1-1.12-.31-1.67s-.49-1.03-.87-1.45c-.37-.42-.85-.76-1.43-1.02-.58-.27-1.22-.4-1.94-.4h-5.66v8.23h5.66c1.56,0,2.71-.38,3.44-1.15h0Z"/>
    <path d="M188.85,81.95c.9-.8,1.98-1.2,3.24-1.2h5.61c1.73,0,3.02.38,3.85,1.12.83.75,1.25,1.66,1.25,2.72,0,.83-.23,1.69-.69,2.57s-1.13,1.73-2.01,2.54c-.88.81-1.97,1.57-3.26,2.27s-2.77,1.28-4.44,1.75c.34.5.79.86,1.35,1.07.56.22,1.2.32,1.91.32,1.05,0,2.14-.16,3.26-.47,1.12-.32,2.07-.66,2.86-1.02l1.02,3.59c-1.26.57-2.57,1.04-3.95,1.42-1.38.38-2.79.57-4.26.57-.95,0-1.86-.12-2.73-.37s-1.62-.67-2.27-1.25c-.65-.58-1.16-1.34-1.53-2.27s-.56-2.1-.56-3.49v-6.59c0-1.4.45-2.5,1.35-3.29h0ZM193.41,89.78c.54-.23,1.11-.55,1.68-.95.58-.4,1.15-.9,1.71-1.5s1.03-1.3,1.4-2.1h-6.12v4.99c.34-.07.78-.22,1.33-.45h0Z"/>
    <path d="M210.95,83.99c-.07.03.19-.11.76-.42.58-.32,1.28-.67,2.12-1.05.83-.38,1.69-.74,2.57-1.07s1.63-.5,2.24-.5c.68,0,1.22.22,1.63.65s.61,1.23.61,2.39v3.74c0,.27-.1.5-.31.7-.2.2-.44.3-.71.3h-3.57v-2.25c0-.57-.31-.85-.92-.85-.37,0-.79.07-1.25.2s-.9.29-1.33.47c-.42.18-.81.37-1.15.55s-.58.32-.71.42v10.93c0,.27-.1.5-.31.7-.2.2-.44.3-.71.3h-2.55c-.27,0-.51-.1-.71-.3-.2-.2-.31-.43-.31-.7v-16.47c0-.27.1-.5.31-.7s.44-.3.71-.3h3.57v3.24l.02.02Z"/>
    <path d="M235.57,85.56c-1.29-.28-2.58-.42-3.87-.42-.78,0-1.44.07-1.99.2s-.82.37-.82.7.32.62.97.85c.65.23,1.45.47,2.42.72s2.01.53,3.13.85c1.12.32,2.17.7,3.14,1.15.97.45,1.78,1.01,2.42,1.67.65.67.97,1.48.97,2.45,0,1.03-.21,1.9-.64,2.59-.42.7-1,1.26-1.73,1.7s-1.58.74-2.55.92-1.98.27-3.03.27c-1.73,0-3.47-.19-5.2-.57s-3.25-.86-4.54-1.42l1.58-3.94c.41.23.94.46,1.61.67.66.22,1.38.41,2.17.57.78.17,1.58.3,2.4.4s1.58.15,2.29.15c.99,0,1.75-.09,2.29-.27s.82-.41.82-.67c0-.33-.32-.62-.97-.87s-1.45-.52-2.42-.8c-.97-.28-2.02-.59-3.16-.92s-2.19-.75-3.16-1.25-1.78-1.09-2.42-1.77c-.65-.68-.97-1.52-.97-2.52s.23-1.78.69-2.44c.46-.67,1.07-1.21,1.83-1.62s1.67-.71,2.7-.9c1.04-.18,2.12-.27,3.24-.27,1.43,0,2.7.13,3.82.4,1.12.27,2.36.63,3.72,1.1l-.87,4.39c-1.29-.43-2.58-.79-3.87-1.07v-.03Z"/>
    <path d="M258,81.22c.99.32,1.85.77,2.6,1.37.75.6,1.33,1.33,1.76,2.2s.64,1.85.64,2.94v4.49c0,1.1-.21,2.08-.64,2.94-.42.87-1.01,1.6-1.76,2.2s-1.61,1.06-2.6,1.37c-.99.32-2.04.47-3.16.47h-1.53c-1.12,0-2.18-.16-3.16-.47-.99-.32-1.85-.77-2.6-1.37-.75-.6-1.33-1.33-1.76-2.2-.42-.86-.64-1.85-.64-2.94v-4.49c0-1.1.21-2.08.64-2.94s1.01-1.6,1.76-2.2,1.61-1.06,2.6-1.37c.99-.32,2.04-.47,3.16-.47h1.53c1.12,0,2.17.16,3.16.47ZM250.71,85.74c-.65.3-.97.9-.97,1.8v4.84c0,.93.33,1.54.99,1.82s1.45.42,2.37.42h2.14c.95,0,1.72-.16,2.29-.47.58-.32.87-.91.87-1.77v-4.84c0-.96-.35-1.58-1.04-1.85-.7-.27-1.54-.4-2.52-.4h-1.63c-1.02,0-1.85.15-2.5.45h0Z"/>
    <path d="M271.11,83c.95-.67,1.99-1.21,3.11-1.62,1.12-.42,2.23-.62,3.31-.62.71,0,1.39.12,2.04.35.65.23,1.21.62,1.68,1.15s.86,1.24,1.15,2.12c.29.88.43,1.95.43,3.22v10.63c0,.27-.1.5-.31.7-.2.2-.44.3-.71.3h-2.55c-.27,0-.51-.1-.71-.3-.2-.2-.31-.43-.31-.7v-10.58c0-.96-.31-1.64-.94-2.02s-1.38-.57-2.27-.57c-.71,0-1.43.09-2.14.27-.71.18-1.31.41-1.78.67v12.22c0,.27-.1.5-.31.7-.2.2-.44.3-.71.3h-2.55c-.27,0-.51-.1-.71-.3-.2-.2-.31-.43-.31-.7v-16.47c0-.27.1-.5.31-.7.2-.2.44-.3.71-.3h3.57v2.25h0Z"/>
    <path d="M287.14,91.13c.39-.67,1.02-1.25,1.89-1.75.87-.5,1.98-.9,3.34-1.2,1.36-.3,2.99-.45,4.89-.45,0-1.06-.33-1.8-.99-2.22s-1.54-.62-2.62-.62c-.99,0-2.04.14-3.16.42s-2.09.61-2.91.97l-1.02-3.54c1.29-.57,2.63-1.04,4-1.42,1.38-.38,2.78-.57,4.21-.57.95,0,1.86.12,2.73.38.87.25,1.62.66,2.27,1.22s1.16,1.31,1.53,2.25c.37.93.56,2.09.56,3.49v10.13c0,.27-.1.5-.31.7-.2.2-.44.3-.71.3h-10.2c-1.12,0-2.08-.39-2.88-1.17-.8-.78-1.2-1.72-1.2-2.82v-2c0-.73.2-1.43.59-2.1h-.01ZM297.26,91.23c-.51,0-1.11.03-1.81.08s-1.37.16-2.01.32c-.65.17-1.19.42-1.63.75s-.66.78-.66,1.35v.75h6.12v-3.24h0Z"/>
    <path d="M310.21,73.07c.2.2.31.43.31.7v24.45c0,.27-.1.5-.31.7-.2.2-.44.3-.71.3h-2.55c-.27,0-.51-.1-.71-.3-.2-.2-.31-.43-.31-.7v-24.45c0-.27.1-.5.31-.7.2-.2.44-.3.71-.3h2.55c.27,0,.51.1.71.3Z"/>
    <path d="M318.88,73.07c.2.2.31.43.31.7v2.25c0,.27-.1.5-.31.7-.2.2-.44.3-.71.3h-2.55c-.27,0-.51-.1-.71-.3-.2-.2-.31-.43-.31-.7v-2.25c0-.27.1-.5.31-.7.2-.2.44-.3.71-.3h2.55c.27,0,.51.1.71.3ZM318.88,81.05c.2.2.31.43.31.7v16.47c0,.27-.1.5-.31.7-.2.2-.44.3-.71.3h-2.55c-.27,0-.51-.1-.71-.3-.2-.2-.31-.43-.31-.7v-16.47c0-.27.1-.5.31-.7.2-.2.44-.3.71-.3h2.55c.27,0,.51.1.71.3Z"/>
    <path d="M327.54,73.07c.2.2.31.43.31.7v3.09h4.74c.27,0,.51.1.71.3.2.2.31.43.31.7v2.74c0,.27-.1.5-.31.7-.2.2-.44.3-.71.3h-4.74v9.18c0,.73.11,1.34.33,1.82s.51.87.87,1.15.77.48,1.25.6c.48.12.99.17,1.53.17.2,0,.42-.02.64-.05.22-.03.43-.05.64-.05l1.02,4.34c-1.22.3-2.36.45-3.42.45s-2.08-.16-2.98-.47c-.9-.32-1.68-.81-2.35-1.47-.66-.67-1.18-1.54-1.55-2.62s-.56-2.37-.56-3.87v-17.01c0-.27.1-.5.31-.7.2-.2.44-.3.71-.3h2.55c.27,0,.51.1.71.3h0Z"/>
    <path d="M351.71,105.22c-1.36,1.31-3.21,1.97-5.56,1.97-1.09,0-2.2-.12-3.34-.35-1.14-.23-2.42-.58-3.85-1.05l1.53-3.99c.75.3,1.56.57,2.45.8.88.23,1.72.35,2.5.35,1.02,0,1.89-.27,2.63-.8.73-.53,1.1-1.51,1.1-2.94v-1.55c-2.07,1.16-4.01,1.75-5.81,1.75-1.6,0-2.9-.57-3.9-1.72s-1.5-2.97-1.5-5.46v-10.48c0-.27.1-.5.31-.7.2-.2.44-.3.71-.3h2.55c.27,0,.51.1.71.3.2.2.31.43.31.7v11.23c0,.77.22,1.3.66,1.6.44.3,1,.45,1.68.45.75,0,1.53-.12,2.34-.37.82-.25,1.46-.54,1.94-.87v-12.03c0-.27.1-.5.31-.7s.44-.3.71-.3h2.55c.27,0,.51.1.71.3s.31.43.31.7v17.46c0,2.69-.68,4.7-2.04,6.01h0Z"/>
    <path d="M368.23,73.07c.2.2.31.43.31.7v3.09h4.74c.27,0,.51.1.71.3.2.2.31.43.31.7v2.74c0,.27-.1.5-.31.7-.2.2-.44.3-.71.3h-4.74v9.18c0,.73.11,1.34.33,1.82s.51.87.87,1.15.77.48,1.25.6c.48.12.99.17,1.53.17.2,0,.42-.02.64-.05.22-.03.43-.05.64-.05l1.02,4.34c-1.22.3-2.36.45-3.42.45s-2.08-.16-2.98-.47c-.9-.32-1.68-.81-2.35-1.47-.66-.67-1.18-1.54-1.55-2.62s-.56-2.37-.56-3.87v-17.01c0-.27.1-.5.31-.7.2-.2.44-.3.71-.3h2.55c.27,0,.51.1.71.3h0Z"/>
    <path d="M383.22,83.99c-.07.03.19-.11.76-.42.58-.32,1.28-.67,2.12-1.05s1.69-.74,2.57-1.07,1.63-.5,2.24-.5c.68,0,1.22.22,1.63.65s.61,1.23.61,2.39v3.74c0,.27-.1.5-.31.7-.2.2-.44.3-.71.3h-3.57v-2.25c0-.57-.31-.85-.92-.85-.37,0-.79.07-1.25.2s-.9.29-1.33.47c-.42.18-.81.37-1.15.55s-.58.32-.71.42v10.93c0,.27-.1.5-.31.7-.2.2-.44.3-.71.3h-2.55c-.27,0-.51-.1-.71-.3-.2-.2-.31-.43-.31-.7v-16.47c0-.27.1-.5.31-.7.2-.2.44-.3.71-.3h3.57v3.24l.02.02Z"/>
    <path d="M396.96,91.13c.39-.67,1.02-1.25,1.89-1.75.87-.5,1.98-.9,3.34-1.2,1.36-.3,2.99-.45,4.89-.45,0-1.06-.33-1.8-.99-2.22s-1.54-.62-2.63-.62c-.99,0-2.04.14-3.16.42s-2.09.61-2.91.97l-1.02-3.54c1.29-.57,2.62-1.04,4-1.42s2.78-.57,4.21-.57c.95,0,1.86.12,2.73.38.87.25,1.62.66,2.27,1.22.65.57,1.16,1.31,1.53,2.25.37.93.56,2.09.56,3.49v10.13c0,.27-.1.5-.31.7-.2.2-.44.3-.71.3h-10.2c-1.12,0-2.08-.39-2.88-1.17-.8-.78-1.2-1.72-1.2-2.82v-2c0-.73.2-1.43.59-2.1ZM407.08,91.23c-.51,0-1.11.03-1.81.08s-1.37.16-2.01.32c-.65.17-1.19.42-1.63.75s-.66.78-.66,1.35v.75h6.12v-3.24h0Z"/>
    <path d="M420.03,73.07c.2.2.31.43.31.7v2.25c0,.27-.1.5-.31.7-.2.2-.44.3-.71.3h-2.55c-.27,0-.51-.1-.71-.3-.2-.2-.31-.43-.31-.7v-2.25c0-.27.1-.5.31-.7.2-.2.44-.3.71-.3h2.55c.27,0,.51.1.71.3ZM420.03,81.05c.2.2.31.43.31.7v16.47c0,.27-.1.5-.31.7-.2.2-.44.3-.71.3h-2.55c-.27,0-.51-.1-.71-.3-.2-.2-.31-.43-.31-.7v-16.47c0-.27.1-.5.31-.7s.44-.3.71-.3h2.55c.27,0,.51.1.71.3Z"/>
    <path d="M428.69,73.07c.2.2.31.43.31.7v3.09h4.74c.27,0,.51.1.71.3.2.2.31.43.31.7v2.74c0,.27-.1.5-.31.7-.2.2-.44.3-.71.3h-4.74v9.18c0,.73.11,1.34.33,1.82s.51.87.87,1.15.77.48,1.25.6c.48.12.99.17,1.53.17.2,0,.42-.02.64-.05.22-.03.43-.05.64-.05l1.02,4.34c-1.22.3-2.36.45-3.42.45s-2.08-.16-2.98-.47c-.9-.32-1.68-.81-2.35-1.47-.66-.67-1.18-1.54-1.55-2.62s-.56-2.37-.56-3.87v-17.01c0-.27.1-.5.31-.7.2-.2.44-.3.71-.3h2.55c.27,0,.51.1.71.3h0Z"/>
    <path d="M450.05,85.56c-1.29-.28-2.58-.42-3.88-.42-.78,0-1.44.07-1.99.2s-.82.37-.82.7.32.62.97.85c.65.23,1.45.47,2.42.72s2.01.53,3.14.85c1.12.32,2.17.7,3.13,1.15.97.45,1.78,1.01,2.42,1.67s.97,1.48.97,2.45c0,1.03-.21,1.9-.64,2.59-.42.7-1,1.26-1.73,1.7-.73.43-1.58.74-2.55.92s-1.98.27-3.03.27c-1.73,0-3.47-.19-5.2-.57s-3.25-.86-4.54-1.42l1.58-3.94c.41.23.94.46,1.61.67.66.22,1.38.41,2.17.57.78.17,1.58.3,2.4.4s1.58.15,2.29.15c.99,0,1.75-.09,2.29-.27s.82-.41.82-.67c0-.33-.32-.62-.97-.87s-1.45-.52-2.42-.8c-.97-.28-2.02-.59-3.16-.92s-2.19-.75-3.16-1.25-1.78-1.09-2.42-1.77c-.65-.68-.97-1.52-.97-2.52s.23-1.78.69-2.44c.46-.67,1.07-1.21,1.84-1.62s1.67-.71,2.7-.9c1.04-.18,2.12-.27,3.24-.27,1.43,0,2.7.13,3.82.4,1.12.27,2.36.63,3.72,1.1l-.87,4.39c-1.29-.43-2.58-.79-3.87-1.07v-.03Z"/>
    <path d="M462.54,88.93c-.2-.2-.31-.43-.31-.7v-3.74c0-.27.1-.5.31-.7s.44-.3.71-.3h3.82c.27,0,.51.1.71.3s.31.43.31.7v3.74c0,.27-.1.5-.31.7-.2.2-.44.3-.71.3h-3.82c-.27,0-.51-.1-.71-.3ZM462.54,98.91c-.2-.2-.31-.43-.31-.7v-3.74c0-.27.1-.5.31-.7.2-.2.44-.3.71-.3h3.82c.27,0,.51.1.71.3.2.2.31.43.31.7v3.74c0,.27-.1.5-.31.7-.2.2-.44.3-.71.3h-3.82c-.27,0-.51-.1-.71-.3Z"/>
    <path d="M178.12,132.2c.2-.2.44-.3.71-.3h2.55c.27,0,.51.1.71.3s.31.43.31.7v.7c0,1.2-.25,2.26-.76,3.19s-1.18,1.72-2.01,2.37-1.78,1.14-2.83,1.47-2.14.5-3.26.5-2.22-.17-3.29-.5c-1.07-.33-2.03-.82-2.88-1.47s-1.53-1.44-2.04-2.37-.76-2-.76-3.19v-11.43c0-1.2.25-2.26.76-3.19s1.19-1.72,2.04-2.37c.85-.65,1.81-1.14,2.88-1.47s2.17-.5,3.29-.5,2.21.17,3.26.5c1.05.33,2,.82,2.83,1.47s1.5,1.44,2.01,2.37.76,2,.76,3.19v.75c0,.27-.1.5-.31.7s-.44.3-.71.3h-2.55c-.27,0-.51-.1-.71-.3-.2-.2-.31-.43-.31-.7v-1.15c0-.43-.12-.81-.36-1.12-.24-.32-.56-.58-.97-.8s-.88-.38-1.4-.5c-.53-.12-1.06-.18-1.61-.18s-1.07.06-1.58.18-.97.28-1.38.5-.74.48-.99.8-.38.69-.38,1.12v12.22c0,.43.13.81.38,1.15s.59.61.99.82c.41.21.87.38,1.38.5.51.12,1.04.18,1.58.18s1.08-.06,1.61-.18.99-.28,1.4-.5c.41-.22.73-.49.97-.82s.36-.71.36-1.15v-1.1c0-.27.1-.5.31-.7h0Z"/>
    <path d="M198.76,123.14c.99.32,1.85.77,2.6,1.37.75.6,1.33,1.33,1.76,2.2s.64,1.85.64,2.94v4.49c0,1.1-.21,2.08-.64,2.94-.42.87-1.01,1.6-1.76,2.2-.75.6-1.61,1.05-2.6,1.37s-2.04.47-3.16.47h-1.53c-1.12,0-2.17-.16-3.16-.47-.99-.32-1.85-.77-2.6-1.37-.75-.6-1.33-1.33-1.76-2.2-.42-.86-.64-1.85-.64-2.94v-4.49c0-1.1.21-2.08.64-2.94s1.01-1.6,1.76-2.2,1.61-1.06,2.6-1.37c.99-.32,2.04-.47,3.16-.47h1.53c1.12,0,2.18.16,3.16.47ZM191.47,127.66c-.65.3-.97.9-.97,1.8v4.84c0,.93.33,1.54.99,1.82.66.28,1.45.42,2.37.42h2.14c.95,0,1.72-.16,2.29-.47s.87-.91.87-1.77v-4.84c0-.96-.35-1.58-1.04-1.85-.7-.27-1.54-.4-2.52-.4h-1.63c-1.02,0-1.85.15-2.5.45h0Z"/>
    <path d="M211.87,125.46c1.09-.73,2.26-1.38,3.52-1.95,1.26-.57,2.45-.85,3.57-.85.88,0,1.65.22,2.29.67s1.14,1.21,1.48,2.27c1.16-.73,2.4-1.41,3.75-2.02s2.61-.92,3.8-.92,2.12.44,2.88,1.32c.77.88,1.15,2.44,1.15,4.67v11.48c0,.27-.1.5-.31.7-.2.2-.44.3-.71.3h-2.55c-.27,0-.51-.1-.71-.3-.2-.2-.31-.43-.31-.7v-10.63c0-.86-.25-1.46-.74-1.79-.49-.33-1.08-.5-1.76-.5s-1.44.12-2.19.38-1.39.54-1.94.87v11.68c0,.27-.1.5-.31.7-.2.2-.44.3-.71.3h-2.55c-.27,0-.51-.1-.71-.3-.2-.2-.31-.43-.31-.7v-10.63c0-.86-.25-1.46-.74-1.79-.49-.33-1.08-.5-1.76-.5s-1.44.12-2.19.38c-.75.25-1.39.54-1.94.87v11.68c0,.27-.1.5-.31.7-.2.2-.44.3-.71.3h-2.55c-.27,0-.51-.1-.71-.3-.2-.2-.31-.43-.31-.7v-16.47c0-.27.1-.5.31-.7.2-.2.44-.3.71-.3h3.57v2.79h0Z"/>
    <path d="M242.96,148.11c0,.27-.1.5-.31.7s-.44.3-.71.3h-2.55c-.27,0-.51-.1-.71-.3s-.31-.43-.31-.7v-24.45c0-.27.1-.5.31-.7.2-.2.44-.3.71-.3h6.53c1.5,0,2.82.26,3.98.77s2.12,1.2,2.91,2.05c.78.85,1.38,1.81,1.78,2.89.41,1.08.61,2.19.61,3.32,0,1.03-.18,2.04-.54,3.02-.36.98-.92,1.85-1.68,2.62s-1.73,1.38-2.91,1.85c-1.17.47-2.56.7-4.16.7h-2.96v8.23h.01ZM249.52,134.24c.73-.76,1.1-1.61,1.1-2.54,0-.56-.1-1.12-.31-1.67-.2-.55-.49-1.03-.87-1.45s-.85-.76-1.43-1.02c-.58-.27-1.22-.4-1.94-.4h-3.11v8.23h3.11c1.56,0,2.71-.38,3.44-1.15h0Z"/>
    <path d="M258.85,133.04c.39-.66,1.02-1.25,1.89-1.75.87-.5,1.98-.9,3.34-1.2s2.99-.45,4.89-.45c0-1.06-.33-1.8-.99-2.22s-1.54-.62-2.62-.62c-.99,0-2.04.14-3.16.42s-2.09.61-2.91.97l-1.02-3.54c1.29-.56,2.63-1.04,4-1.42,1.38-.38,2.78-.57,4.21-.57.95,0,1.86.12,2.73.38.87.25,1.62.66,2.27,1.22s1.16,1.31,1.53,2.25c.37.93.56,2.09.56,3.49v10.13c0,.27-.1.5-.31.7-.2.2-.44.3-.71.3h-10.2c-1.12,0-2.08-.39-2.88-1.17-.8-.78-1.2-1.72-1.2-2.82v-2c0-.73.2-1.43.59-2.1h-.01ZM268.97,133.14c-.51,0-1.11.03-1.81.08s-1.37.16-2.01.32c-.65.17-1.19.42-1.63.75s-.66.78-.66,1.35v.75h6.12v-3.24h0Z"/>
    <path d="M288.59,127.48c-1.29-.28-2.58-.42-3.87-.42-.78,0-1.44.07-1.99.2s-.82.37-.82.7.32.62.97.85,1.45.47,2.42.72,2.01.53,3.13.85,2.17.7,3.14,1.15,1.78,1.01,2.42,1.67c.65.66.97,1.48.97,2.45,0,1.03-.21,1.89-.64,2.59s-1,1.26-1.73,1.7c-.73.43-1.58.74-2.55.92s-1.98.28-3.03.28c-1.73,0-3.47-.19-5.2-.57s-3.25-.86-4.54-1.42l1.58-3.94c.41.23.94.46,1.61.67.66.21,1.38.41,2.17.57.78.17,1.58.3,2.4.4s1.58.15,2.29.15c.99,0,1.75-.09,2.29-.27s.82-.41.82-.67c0-.33-.32-.62-.97-.87s-1.45-.52-2.42-.8-2.02-.59-3.16-.92-2.19-.75-3.16-1.25-1.78-1.09-2.42-1.77-.97-1.52-.97-2.52.23-1.78.69-2.45,1.07-1.21,1.83-1.62,1.67-.71,2.7-.9,2.12-.28,3.24-.28c1.43,0,2.7.13,3.82.4,1.12.27,2.36.63,3.72,1.1l-.87,4.39c-1.29-.43-2.58-.79-3.87-1.07v-.02Z"/>
    <path d="M309.7,127.48c-1.29-.28-2.58-.42-3.87-.42-.78,0-1.44.07-1.99.2s-.82.37-.82.7.32.62.97.85,1.45.47,2.42.72,2.01.53,3.13.85,2.17.7,3.14,1.15,1.78,1.01,2.42,1.67c.65.66.97,1.48.97,2.45,0,1.03-.21,1.89-.64,2.59s-1,1.26-1.73,1.7c-.73.43-1.58.74-2.55.92s-1.98.28-3.03.28c-1.73,0-3.47-.19-5.2-.57s-3.25-.86-4.54-1.42l1.58-3.94c.41.23.94.46,1.61.67.66.21,1.38.41,2.17.57.78.17,1.58.3,2.4.4s1.58.15,2.29.15c.99,0,1.75-.09,2.29-.27s.82-.41.82-.67c0-.33-.32-.62-.97-.87s-1.45-.52-2.42-.8-2.02-.59-3.16-.92-2.19-.75-3.16-1.25-1.78-1.09-2.42-1.77-.97-1.52-.97-2.52.23-1.78.69-2.45,1.07-1.21,1.83-1.62,1.67-.71,2.7-.9,2.12-.28,3.24-.28c1.43,0,2.7.13,3.82.4,1.12.27,2.36.63,3.72,1.1l-.87,4.39c-1.29-.43-2.58-.79-3.87-1.07v-.02Z"/>
    <path d="M324.13,114.98c.2.2.31.43.31.7v2.25c0,.27-.1.5-.31.7-.2.2-.44.3-.71.3h-2.55c-.27,0-.51-.1-.71-.3-.2-.2-.31-.43-.31-.7v-2.25c0-.27.1-.5.31-.7.2-.2.44-.3.71-.3h2.55c.27,0,.51.1.71.3ZM324.13,122.97c.2.2.31.43.31.7v16.47c0,.27-.1.5-.31.7-.2.2-.44.3-.71.3h-2.55c-.27,0-.51-.1-.71-.3-.2-.2-.31-.43-.31-.7v-16.47c0-.27.1-.5.31-.7.2-.2.44-.3.71-.3h2.55c.27,0,.51.1.71.3Z"/>
    <path d="M340.8,123.14c.99.32,1.85.77,2.6,1.37.75.6,1.33,1.33,1.76,2.2s.64,1.85.64,2.94v4.49c0,1.1-.21,2.08-.64,2.94-.42.87-1.01,1.6-1.76,2.2-.75.6-1.61,1.05-2.6,1.37-.99.32-2.04.47-3.16.47h-1.53c-1.12,0-2.18-.16-3.16-.47s-1.85-.77-2.6-1.37c-.75-.6-1.33-1.33-1.76-2.2-.42-.86-.64-1.85-.64-2.94v-4.49c0-1.1.21-2.08.64-2.94s1.01-1.6,1.76-2.2,1.61-1.06,2.6-1.37,2.04-.47,3.16-.47h1.53c1.12,0,2.17.16,3.16.47ZM333.51,127.66c-.65.3-.97.9-.97,1.8v4.84c0,.93.33,1.54.99,1.82.66.28,1.45.42,2.37.42h2.14c.95,0,1.72-.16,2.29-.47.58-.32.87-.91.87-1.77v-4.84c0-.96-.35-1.58-1.04-1.85-.7-.27-1.54-.4-2.52-.4h-1.63c-1.02,0-1.85.15-2.5.45Z"/>
    <path d="M353.9,124.91c.95-.67,1.99-1.21,3.11-1.62,1.12-.42,2.23-.62,3.31-.62.71,0,1.39.12,2.04.35s1.21.62,1.68,1.15c.48.53.86,1.24,1.15,2.12.29.88.43,1.95.43,3.22v10.63c0,.27-.1.5-.31.7-.2.2-.44.3-.71.3h-2.55c-.27,0-.51-.1-.71-.3-.2-.2-.31-.43-.31-.7v-10.58c0-.96-.31-1.64-.94-2.02s-1.38-.57-2.27-.57c-.71,0-1.43.09-2.14.28s-1.31.41-1.78.67v12.22c0,.27-.1.5-.31.7-.2.2-.44.3-.71.3h-2.55c-.27,0-.51-.1-.71-.3-.2-.2-.31-.43-.31-.7v-16.47c0-.27.1-.5.31-.7.2-.2.44-.3.71-.3h3.57v2.25h0Z"/>
    <path d="M369.94,133.04c.39-.66,1.02-1.25,1.89-1.75.87-.5,1.98-.9,3.34-1.2s2.99-.45,4.89-.45c0-1.06-.33-1.8-.99-2.22s-1.54-.62-2.63-.62c-.99,0-2.04.14-3.16.42s-2.09.61-2.91.97l-1.02-3.54c1.29-.56,2.62-1.04,4-1.42s2.78-.57,4.21-.57c.95,0,1.86.12,2.73.38.87.25,1.62.66,2.27,1.22s1.16,1.31,1.53,2.25c.37.93.56,2.09.56,3.49v10.13c0,.27-.1.5-.31.7-.2.2-.44.3-.71.3h-10.2c-1.12,0-2.08-.39-2.88-1.17-.8-.78-1.2-1.72-1.2-2.82v-2c0-.73.2-1.43.59-2.1h0ZM380.06,133.14c-.51,0-1.11.03-1.81.08s-1.37.16-2.01.32c-.65.17-1.19.42-1.63.75s-.66.78-.66,1.35v.75h6.12v-3.24h0Z"/>
    <path d="M393,114.98c.2.2.31.43.31.7v3.09h4.74c.27,0,.51.1.71.3s.31.43.31.7v2.74c0,.27-.1.5-.31.7-.2.2-.44.3-.71.3h-4.74v9.18c0,.73.11,1.34.33,1.82.22.48.51.87.87,1.15s.77.48,1.25.6.99.17,1.53.17c.2,0,.42-.02.64-.05s.43-.05.64-.05l1.02,4.34c-1.22.3-2.36.45-3.42.45s-2.08-.16-2.98-.47c-.9-.32-1.68-.81-2.35-1.47-.66-.66-1.18-1.54-1.55-2.62s-.56-2.37-.56-3.87v-17.01c0-.27.1-.5.31-.7s.44-.3.71-.3h2.55c.27,0,.51.1.71.3h0Z"/>
    <path d="M404.76,123.87c.9-.8,1.98-1.2,3.24-1.2h5.61c1.73,0,3.02.38,3.85,1.12.83.75,1.25,1.66,1.25,2.72,0,.83-.23,1.69-.69,2.57s-1.13,1.73-2.01,2.54-1.97,1.57-3.26,2.27-2.77,1.28-4.44,1.75c.34.5.79.86,1.35,1.07.56.22,1.2.32,1.91.32,1.05,0,2.14-.16,3.26-.47,1.12-.32,2.07-.66,2.85-1.02l1.02,3.59c-1.26.56-2.57,1.04-3.95,1.42s-2.8.57-4.26.57c-.95,0-1.86-.12-2.73-.38-.87-.25-1.62-.66-2.27-1.25-.65-.58-1.16-1.34-1.53-2.27-.37-.93-.56-2.1-.56-3.49v-6.59c0-1.4.45-2.5,1.35-3.29v.02ZM409.32,131.7c.54-.23,1.1-.55,1.68-.95s1.15-.9,1.71-1.5,1.03-1.3,1.4-2.1h-6.12v4.99c.34-.07.78-.21,1.33-.45h0Z"/>
    <path d="M429.64,137.46c1.21,1.21,1.81,2.69,1.81,4.42,0,1.4-.43,2.85-1.3,4.37-.87,1.51-2.2,2.9-4,4.17l-1.43-2.04c.82-.6,1.52-1.33,2.12-2.2s.89-1.7.89-2.49c0-.63-.25-1.19-.76-1.67s-1.39-.77-2.65-.87v-5.49c2.34,0,4.12.61,5.33,1.82v-.02Z"/>
    <path d="M460.25,122.97c.17.2.29.43.36.7l3.01,12.47,3.31-12.47c.07-.27.19-.5.36-.7.17-.2.39-.3.66-.3h3.98l-4.59,17.46c-.07.27-.19.5-.36.7-.17.2-.39.3-.66.3h-5.86c-.27,0-.49-.1-.66-.3s-.29-.43-.36-.7l-2.19-9.18-2.19,9.18c-.07.27-.19.5-.36.7-.17.2-.39.3-.66.3h-5.86c-.27,0-.49-.1-.66-.3s-.29-.43-.36-.7l-4.59-17.46h3.98c.27,0,.49.1.66.3.17.2.29.43.36.7l3.26,12.47,3.01-12.47c.07-.27.19-.5.36-.7.17-.2.39-.3.66-.3h4.74c.27,0,.49.1.66.3h-.01Z"/>
    <path d="M474.91,133.04c.39-.66,1.02-1.25,1.89-1.75.87-.5,1.98-.9,3.34-1.2s2.99-.45,4.89-.45c0-1.06-.33-1.8-.99-2.22s-1.54-.62-2.63-.62c-.99,0-2.04.14-3.16.42s-2.09.61-2.91.97l-1.02-3.54c1.29-.56,2.62-1.04,4-1.42s2.78-.57,4.21-.57c.95,0,1.86.12,2.73.38.87.25,1.62.66,2.27,1.22s1.16,1.31,1.53,2.25c.37.93.56,2.09.56,3.49v10.13c0,.27-.1.5-.31.7-.2.2-.44.3-.71.3h-10.2c-1.12,0-2.08-.39-2.88-1.17-.8-.78-1.2-1.72-1.2-2.82v-2c0-.73.2-1.43.59-2.1h0ZM485.03,133.14c-.51,0-1.11.03-1.81.08s-1.37.16-2.01.32c-.65.17-1.19.42-1.63.75s-.66.78-.66,1.35v.75h6.12v-3.24h0Z"/>
    <path d="M498.28,125.91c-.07.03.19-.11.76-.42.58-.32,1.28-.67,2.12-1.05.83-.38,1.69-.74,2.57-1.07s1.63-.5,2.24-.5c.68,0,1.22.21,1.63.65.41.43.61,1.23.61,2.39v3.74c0,.27-.1.5-.31.7-.2.2-.44.3-.71.3h-3.57v-2.25c0-.56-.31-.85-.92-.85-.37,0-.79.07-1.25.2s-.9.29-1.33.47-.81.37-1.15.55-.58.32-.71.42v10.93c0,.27-.1.5-.31.7-.2.2-.44.3-.71.3h-2.55c-.27,0-.51-.1-.71-.3-.2-.2-.31-.43-.31-.7v-16.47c0-.27.1-.5.31-.7.2-.2.44-.3.71-.3h3.57v3.24l.02.02Z"/>
    <path d="M516.53,125.46c1.09-.73,2.26-1.38,3.52-1.95s2.45-.85,3.57-.85c.88,0,1.65.22,2.29.67.65.45,1.14,1.21,1.48,2.27,1.16-.73,2.41-1.41,3.75-2.02,1.34-.62,2.61-.92,3.8-.92s2.12.44,2.88,1.32,1.15,2.44,1.15,4.67v11.48c0,.27-.1.5-.31.7-.2.2-.44.3-.71.3h-2.55c-.27,0-.51-.1-.71-.3s-.31-.43-.31-.7v-10.63c0-.86-.25-1.46-.74-1.79-.49-.33-1.08-.5-1.76-.5s-1.44.12-2.19.38c-.75.25-1.39.54-1.94.87v11.68c0,.27-.1.5-.31.7-.2.2-.44.3-.71.3h-2.55c-.27,0-.51-.1-.71-.3s-.31-.43-.31-.7v-10.63c0-.86-.25-1.46-.74-1.79-.49-.33-1.08-.5-1.76-.5s-1.44.12-2.19.38-1.39.54-1.94.87v11.68c0,.27-.1.5-.31.7-.2.2-.44.3-.71.3h-2.55c-.27,0-.51-.1-.71-.3s-.31-.43-.31-.7v-16.47c0-.27.1-.5.31-.7.2-.2.44-.3.71-.3h3.57v2.79h0Z"/>
    <path d="M550.41,137.46c1.21,1.21,1.81,2.69,1.81,4.42,0,1.4-.43,2.85-1.3,4.37-.87,1.51-2.2,2.9-4,4.17l-1.43-2.04c.82-.6,1.52-1.33,2.12-2.2s.89-1.7.89-2.49c0-.63-.25-1.19-.76-1.67s-1.39-.77-2.65-.87v-5.49c2.34,0,4.12.61,5.33,1.82v-.02Z"/>
    <path d="M569.05,148.11c0,.27-.1.5-.31.7-.2.2-.44.3-.71.3h-2.55c-.27,0-.51-.1-.71-.3s-.31-.43-.31-.7v-24.45c0-.27.1-.5.31-.7.2-.2.44-.3.71-.3h6.53c1.5,0,2.82.26,3.98.77,1.16.52,2.12,1.2,2.91,2.05.78.85,1.38,1.81,1.78,2.89.41,1.08.61,2.19.61,3.32,0,1.03-.18,2.04-.54,3.02-.36.98-.92,1.85-1.68,2.62s-1.73,1.38-2.91,1.85c-1.17.47-2.56.7-4.16.7h-2.96v8.23h0ZM575.6,134.24c.73-.76,1.1-1.61,1.1-2.54,0-.56-.1-1.12-.31-1.67s-.49-1.03-.87-1.45c-.37-.42-.85-.76-1.43-1.02-.58-.27-1.22-.4-1.94-.4h-3.11v8.23h3.11c1.56,0,2.71-.38,3.44-1.15h.01Z"/>
    <path d="M589.44,125.91c-.07.03.19-.11.76-.42.58-.32,1.28-.67,2.12-1.05s1.69-.74,2.57-1.07,1.63-.5,2.24-.5c.68,0,1.22.21,1.63.65.41.43.61,1.23.61,2.39v3.74c0,.27-.1.5-.31.7-.2.2-.44.3-.71.3h-3.57v-2.25c0-.56-.31-.85-.92-.85-.37,0-.79.07-1.25.2s-.9.29-1.33.47-.81.37-1.15.55c-.34.18-.58.32-.71.42v10.93c0,.27-.1.5-.31.7-.2.2-.44.3-.71.3h-2.55c-.27,0-.51-.1-.71-.3s-.31-.43-.31-.7v-16.47c0-.27.1-.5.31-.7.2-.2.44-.3.71-.3h3.57v3.24l.02.02Z"/>
    <path d="M615.39,123.14c.99.32,1.85.77,2.6,1.37.75.6,1.33,1.33,1.76,2.2s.64,1.85.64,2.94v4.49c0,1.1-.21,2.08-.64,2.94-.42.87-1.01,1.6-1.76,2.2-.75.6-1.61,1.05-2.6,1.37s-2.04.47-3.16.47h-1.53c-1.12,0-2.17-.16-3.16-.47-.99-.32-1.85-.77-2.6-1.37-.75-.6-1.33-1.33-1.76-2.2-.42-.86-.64-1.85-.64-2.94v-4.49c0-1.1.21-2.08.64-2.94s1.01-1.6,1.76-2.2,1.61-1.06,2.6-1.37c.99-.32,2.04-.47,3.16-.47h1.53c1.12,0,2.18.16,3.16.47ZM608.1,127.66c-.65.3-.97.9-.97,1.8v4.84c0,.93.33,1.54.99,1.82.66.28,1.45.42,2.37.42h2.14c.95,0,1.72-.16,2.29-.47s.87-.91.87-1.77v-4.84c0-.96-.35-1.58-1.04-1.85-.7-.27-1.54-.4-2.52-.4h-1.63c-1.02,0-1.85.15-2.5.45Z"/>
    <path d="M628.18,114.98c.2.2.31.43.31.7v3.09h4.74c.27,0,.51.1.71.3s.31.43.31.7v2.74c0,.27-.1.5-.31.7-.2.2-.44.3-.71.3h-4.74v9.18c0,.73.11,1.34.33,1.82.22.48.51.87.87,1.15s.77.48,1.25.6.99.17,1.53.17c.2,0,.42-.02.64-.05.22-.03.43-.05.64-.05l1.02,4.34c-1.22.3-2.36.45-3.42.45s-2.08-.16-2.98-.47c-.9-.32-1.68-.81-2.35-1.47-.66-.66-1.18-1.54-1.55-2.62s-.56-2.37-.56-3.87v-17.01c0-.27.1-.5.31-.7s.44-.3.71-.3h2.55c.27,0,.51.1.71.3h-.01Z"/>
    <path d="M639.94,123.87c.9-.8,1.98-1.2,3.24-1.2h5.61c1.73,0,3.02.38,3.85,1.12.83.75,1.25,1.66,1.25,2.72,0,.83-.23,1.69-.69,2.57s-1.13,1.73-2.01,2.54-1.97,1.57-3.26,2.27c-1.29.7-2.77,1.28-4.44,1.75.34.5.79.86,1.35,1.07s1.2.32,1.91.32c1.05,0,2.14-.16,3.26-.47,1.12-.32,2.07-.66,2.86-1.02l1.02,3.59c-1.26.56-2.57,1.04-3.95,1.42s-2.79.57-4.26.57c-.95,0-1.86-.12-2.73-.38-.87-.25-1.62-.66-2.27-1.25-.65-.58-1.16-1.34-1.53-2.27s-.56-2.1-.56-3.49v-6.59c0-1.4.45-2.5,1.35-3.29v.02ZM644.5,131.7c.54-.23,1.11-.55,1.68-.95.58-.4,1.15-.9,1.71-1.5s1.03-1.3,1.4-2.1h-6.12v4.99c.34-.07.78-.21,1.33-.45h0Z"/>
    <path d="M672.74,134.14c0,1.1-.21,2.08-.64,2.94-.42.87-1.01,1.6-1.76,2.2-.75.6-1.61,1.05-2.6,1.37-.99.32-2.04.47-3.16.47h.51c-1.12,0-2.17-.16-3.16-.47-.99-.32-1.85-.77-2.6-1.37-.75-.6-1.33-1.33-1.76-2.2-.42-.86-.64-1.85-.64-2.94v-4.49c0-1.1.21-2.08.64-2.94s1.01-1.6,1.76-2.2,1.61-1.06,2.6-1.37c.99-.32,2.04-.47,3.16-.47h-.51c1.12,0,2.17.16,3.16.47.99.32,1.85.77,2.6,1.37.75.6,1.33,1.33,1.76,2.2s.64,1.85.64,2.94v.5h-4.59v-.7c0-.96-.35-1.58-1.04-1.85-.7-.27-1.54-.4-2.52-.4h.41c-1.02,0-1.85.15-2.5.45-.65.3-.97.9-.97,1.8v4.84c0,.93.37,1.54,1.12,1.82.75.28,1.58.42,2.5.42h-.66c.95,0,1.8-.16,2.55-.47.75-.32,1.12-.91,1.12-1.77v-.65h4.59v.5h-.01Z"/>
    <path d="M680.59,114.98c.2.2.31.43.31.7v3.09h4.74c.27,0,.51.1.71.3.2.2.31.43.31.7v2.74c0,.27-.1.5-.31.7-.2.2-.44.3-.71.3h-4.74v9.18c0,.73.11,1.34.33,1.82s.51.87.87,1.15.77.48,1.25.6c.48.12.99.17,1.53.17.2,0,.42-.02.64-.05s.43-.05.64-.05l1.02,4.34c-1.22.3-2.36.45-3.42.45s-2.08-.16-2.98-.47-1.68-.81-2.34-1.47c-.66-.66-1.18-1.54-1.55-2.62s-.56-2.37-.56-3.87v-17.01c0-.27.1-.5.31-.7.2-.2.44-.3.71-.3h2.55c.27,0,.51.1.71.3h-.02Z"/>
    <path d="M695.28,114.98c.2.2.31.43.31.7v2.25c0,.27-.1.5-.31.7-.2.2-.44.3-.71.3h-2.55c-.27,0-.51-.1-.71-.3-.2-.2-.31-.43-.31-.7v-2.25c0-.27.1-.5.31-.7.2-.2.44-.3.71-.3h2.55c.27,0,.51.1.71.3ZM695.28,122.97c.2.2.31.43.31.7v16.47c0,.27-.1.5-.31.7-.2.2-.44.3-.71.3h-2.55c-.27,0-.51-.1-.71-.3s-.31-.43-.31-.7v-16.47c0-.27.1-.5.31-.7.2-.2.44-.3.71-.3h2.55c.27,0,.51.1.71.3Z"/>
    <path d="M703.74,140.83c-.17-.2-.29-.43-.36-.7l-4.84-17.46h3.77c.27,0,.49.1.66.3.17.2.29.43.36.7l3.62,12.77,3.57-12.77c.07-.27.19-.5.36-.7s.39-.3.66-.3h3.82l-4.89,17.46c-.07.27-.19.5-.36.7s-.39.3-.66.3h-5.05c-.27,0-.49-.1-.66-.3Z"/>
    <path d="M719.62,123.87c.9-.8,1.98-1.2,3.24-1.2h5.61c1.73,0,3.02.38,3.85,1.12.83.75,1.25,1.66,1.25,2.72,0,.83-.23,1.69-.69,2.57s-1.13,1.73-2.01,2.54-1.97,1.57-3.26,2.27c-1.29.7-2.77,1.28-4.44,1.75.34.5.79.86,1.35,1.07.56.22,1.2.32,1.91.32,1.05,0,2.14-.16,3.26-.47,1.12-.32,2.07-.66,2.85-1.02l1.02,3.59c-1.26.56-2.57,1.04-3.95,1.42s-2.8.57-4.26.57c-.95,0-1.86-.12-2.73-.38-.87-.25-1.62-.66-2.27-1.25-.65-.58-1.16-1.34-1.53-2.27-.37-.93-.56-2.1-.56-3.49v-6.59c0-1.4.45-2.5,1.35-3.29v.02ZM724.18,131.7c.54-.23,1.1-.55,1.68-.95s1.15-.9,1.71-1.5,1.03-1.3,1.4-2.1h-6.12v4.99c.34-.07.78-.21,1.33-.45h0Z"/>
  </g>
  <g>
    <path d="M675.31,3.8c.8.78,1.2,1.88,1.14,2.96l5.46,94.41,13.76-3.04c.52-.12,1.04-.11,1.54-.02.27,0,.54-.05.81,0,.27,0,.54-.05.81,0,.27,0,.54-.05.81,0,.27,0,.54-.05.81,0,.27,0,.55-.05.81,0,.27,0,.54-.05.81,0,.27,0,.54-.05.81,0,.27,0,.54-.05.81,0,.27,0,.54-.05.81,0,.27,0,.54-.05.81,0,.27,0,.54-.05.81,0,.27,0,.54-.05.81,0,.27,0,.54-.05.81,0,.27,0,.54-.05.81,0,.27,0,.54-.05.81,0,.27,0,.55-.05.81,0,.27,0,.55-.05.81,0,.27,0,.54-.05.81,0,.27,0,.55-.05.81,0,.27,0,.54-.05.81,0,1.73-.05,3.33.95,3.86,2.62l7.73,24.2,17.4-9.34c.69-.37,1.46-.44,2.23-.37.27-.03.53-.02.81,0,.27-.03.53-.02.81,0,.27-.03.53-.02.81,0,.27-.03.53-.02.81,0,.27-.03.53-.02.81,0,.27-.03.53-.02.81,0,.27-.03.53-.02.81,0,.27-.03.53-.02.81,0,.27-.03.53-.02.81,0,.27-.03.53-.02.81,0,.28-.03.53-.02.81,0,.28-.03.53-.02.81,0,.27-.03.53-.02.81,0,.28-.03.53-.02.81,0,.27-.03.53-.02.81,0,.27-.03.53-.02.81,0,.28-.03.53-.02.81,0,.27-.03.53-.02.81,0,.27-.03.53-.02.81,0,.27-.03.53-.02.81,0,.73-.09,1.47-.04,2.16.29,1.14.54,1.94,1.58,2.15,2.8l7.6,43.55,59.56,1.08c1.85.03,3.42,1.33,3.77,3.11.05.24.07.48.07.71,0,1.52-.93,2.93-2.41,3.53l-83.73,34.15c-.63.26-1.29.29-1.95.21-.27.03-.53.03-.81,0-.27.03-.53.03-.81,0-.27.03-.53.03-.81,0-.27.03-.53.03-.81,0-.27.03-.53.03-.81,0-.27.03-.53.03-.81,0-.27.03-.53.03-.81,0-.27.03-.53.03-.81,0-.27.03-.53.03-.81,0-.27.03-.53.03-.81,0-.28.03-.53.03-.81,0-.27.03-.53.03-.81,0-.27.03-.53.03-.81,0-.27.03-.53.03-.81,0-.27.03-.53.03-.81,0-.27.03-.53.03-.81,0-.27.03-.53.03-.81,0-.27.03-.53.03-.81,0-.27.03-.53.03-.81,0-.27.03-.53.03-.81,0-.69.06-1.39.01-2.03-.29-1-.46-1.75-1.32-2.07-2.36l-5.09-16.61-5.33,4.7c-.91.8-2.16,1.14-3.36.91-.02,0-.04-.02-.06-.03-.25,0-.49.08-.74.03-.02,0-.04-.02-.06-.03-.25,0-.49.08-.74.03-.02,0-.04-.02-.06-.03-.25,0-.49.08-.74.03-.02,0-.04-.02-.06-.03-.25,0-.49.08-.74.03-.02,0-.04-.02-.06-.03-.25,0-.49.08-.74.03-.02,0-.04-.02-.06-.03-.25,0-.49.08-.74.03-.02,0-.04-.02-.06-.03-.25,0-.49.08-.74.03-.02,0-.04-.02-.06-.03-.25,0-.49.08-.74.03-.02,0-.04-.02-.06-.03-.25,0-.49.08-.74.03-.02,0-.04-.02-.06-.03-.25,0-.49.08-.74.03-.02,0-.04-.02-.06-.03-.25,0-.49.08-.74.03-.02,0-.04-.02-.06-.03-.25,0-.49.08-.74.03-.02,0-.04-.02-.06-.03-.25,0-.49.08-.74.03-.02,0-.04-.02-.06-.03-.25,0-.49.08-.74.03-.02,0-.04-.02-.06-.03-.25,0-.49.08-.74.03-.02,0-.04-.02-.06-.03-.25,0-.49.08-.74.03-.02,0-.04-.02-.06-.03-.25,0-.49.08-.74.03-.02,0-.04-.02-.06-.03-.25,0-.49.08-.74.03-.02,0-.04-.02-.06-.03-.25,0-.49.08-.74.03-.02,0-.04-.02-.06-.03-.25,0-.49.08-.74.03-.02,0-.04-.02-.06-.03-.25,0-.49.08-.74.03-1.21-.23-2.23-1-2.77-2.09l-14.22-28.64-3.55,2.01-8.88,65.31c-.14,1.06-.72,2.01-1.6,2.63-.88.62-1.99.85-3.05.64h-.02c-.26,0-.52.05-.79,0h-.02c-.26,0-.52.05-.79,0h-.02c-.26,0-.52.05-.79,0h-.02c-.26,0-.52.05-.79,0h-.02c-.26,0-.52.05-.79,0h-.02c-.26,0-.52.05-.79,0h-.02c-.26,0-.53.05-.79,0h-.02c-.26,0-.52.05-.79,0h-.02c-.26,0-.52.05-.79,0h-.02c-.26,0-.52.05-.79,0h-.02c-.26,0-.52.05-.79,0h-.02c-.26,0-.52.05-.79,0h-.02c-.26,0-.52.05-.79,0h-.02c-.26,0-.52.05-.79,0h-.02c-.26,0-.52.05-.79,0h-.02c-.26,0-.52.05-.79,0h-.02c-.26,0-.52.05-.79,0h-.02c-.26,0-.52.05-.79,0h-.02c-.26,0-.53.05-.79,0h-.02c-.26,0-.52.05-.79,0h-.02c-.26,0-.53.05-.79,0L30.31,191.01c-1.74-.34-3.02-1.79-3.12-3.53L1.42,23.81c-.09-2.02,1.5-3.89,3.64-4.04L655.34,2.69c.09,0,.17.04.26.04l.55-.04c.09,0,.17.04.26.04l.55-.04c.09,0,.17.04.26.04l.55-.04c.09,0,.17.04.26.04l.55-.04c.09,0,.17.04.26.04l.55-.04c.09,0,.17.04.26.04l.55-.04c.09,0,.17.04.26.04l.55-.04c.09,0,.17.04.26.04l.55-.04c.09,0,.17.04.26.04l.55-.04c.09,0,.17.04.26.04l.55-.04c.09,0,.17.04.26.04l.55-.04c.09,0,.17.04.26.04l.55-.04c.09,0,.17.04.26.04l.55-.04c.09,0,.17.04.26.04l.55-.04c.09,0,.17.04.26.04l.55-.04c.09,0,.17.04.26.04l.55-.04c.09,0,.17.04.26.04l.55-.04c.09,0,.17.04.26.04l.55-.04c.09,0,.17.04.26.04l.55-.04c.09,0,.17.04.26.04l.55-.04c.09,0,.17.04.26.04l.55-.04c1.13-.08,2.23.33,3.03,1.11Z"/>
    <path class="st0" d="M656.58,109.58c-.08,1.2.43,2.37,1.36,3.16.94.78,2.2,1.09,3.4.82l32.53-7.19,10.56,33.06c.35,1.1,1.18,1.98,2.27,2.41,1.09.43,2.31.36,3.34-.19l31.24-16.77,7.22,41.37c.31,1.81,1.9,3.15,3.78,3.18l44.15.8-62.51,25.49-9.22-30.08c-.39-1.26-1.4-2.23-2.69-2.59-1.29-.36-2.67-.04-3.67.84l-19.4,17.08-17.5-35.26c-.47-.96-1.33-1.68-2.37-1.99-1.04-.31-2.16-.19-3.1.35l-22.09,12.52c-1.05.6-1.76,1.64-1.92,2.83l-8.59,63.1L34.82,184.1,9.45,27.15,651.42,10.63l5.16,98.95Z"/>
    <path d="M658.36,3.8c-.8-.78-1.9-1.18-3.03-1.11L5.06,19.77c-2.14.14-3.72,2.01-3.64,4.04l25.77,163.67c.1,1.74,1.38,3.19,3.12,3.53l615.62,39.84c1.07.21,2.17-.02,3.05-.64.89-.62,1.47-1.57,1.6-2.63l8.88-65.31,16.78-9.51,17.94,36.14c.53,1.08,1.56,1.85,2.77,2.09,1.2.23,2.45-.11,3.36-.91l18.67-16.45,8.69,28.36c.32,1.04,1.07,1.89,2.07,2.36,1,.47,2.15.49,3.18.07l83.73-34.15c1.48-.6,2.41-2.01,2.41-3.53,0-.24-.02-.47-.07-.71-.35-1.78-1.92-3.08-3.77-3.11l-59.56-1.08-7.6-43.55c-.21-1.22-1.01-2.26-2.15-2.8-1.14-.54-2.47-.5-3.58.09l-31.87,17.11-10.21-31.96c-.61-1.91-2.6-3.03-4.59-2.59l-30.95,6.84-5.21-98.21c.06-1.08-.34-2.18-1.14-2.96ZM9.45,27.15L651.42,10.63l5.16,98.95c-.08,1.2.43,2.37,1.36,3.16.94.78,2.2,1.09,3.4.82l32.53-7.19,10.56,33.06c.35,1.1,1.18,1.98,2.27,2.41,1.09.43,2.31.36,3.34-.19l31.24-16.77,7.22,41.37c.31,1.81,1.9,3.15,3.78,3.18l44.15.8-62.51,25.49-9.22-30.08c-.39-1.26-1.4-2.23-2.69-2.59-1.29-.36-2.67-.04-3.67.84l-19.4,17.08-17.5-35.26c-.47-.96-1.33-1.68-2.37-1.99-1.04-.31-2.16-.19-3.1.35l-22.09,12.52c-1.05.6-1.76,1.64-1.92,2.83l-8.59,63.1L34.82,184.1,9.45,27.15Z"/>
  </g>
  <g>
    <g>
      <path d="M517.67,72.66c.27,0,.51.1.71.3s.31.43.31.7v20.96h2.8v5.49h-7.39c-.27,0-.51-.1-.71-.3-.2-.2-.31-.43-.31-.7v-25.45c0-.27.1-.5.31-.7s.44-.3.71-.3h3.57Z"/>
      <path d="M520.02,96.12c0-.43.14-.79.43-1.07.29-.28.65-.42,1.1-.42h3.67c-.58-1-.87-2.15-.87-3.44,0-.93.19-1.85.56-2.77.37-.91.92-1.72,1.63-2.42.71-.7,1.58-1.26,2.6-1.7s2.19-.65,3.52-.65h2.4l-.76-2.99c.99-.33,1.97-.57,2.96-.72.99-.15,1.94-.22,2.85-.22,1.29,0,2.5.17,3.62.52s2.1.88,2.93,1.6c.83.72,1.49,1.64,1.96,2.77.48,1.13.71,2.48.71,4.04v5.99h2.8v5.49h-30.59c-.44,0-.81-.14-1.1-.42s-.43-.64-.43-1.07v-2.5ZM534.54,94.62v-5.49h-1.73c-.82,0-1.5.27-2.04.8-.54.53-.82,1.18-.82,1.95s.27,1.41.82,1.95c.54.53,1.22.8,2.04.8h1.73ZM543.72,88.63c0-1.4-.46-2.34-1.38-2.82-.92-.48-2.07-.74-3.47-.77.34.37.61.77.82,1.2.2.43.31.9.31,1.4v6.99h3.72v-5.99Z"/>
      <path d="M550.6,96.12c0-.43.15-.79.43-1.07.29-.28.66-.42,1.1-.42h4.84v-9.98c0-.27.1-.5.31-.7.2-.2.44-.3.71-.3h3.57c.27,0,.51.1.71.3.2.2.31.43.31.7v11.48c0,1.1-.4,2.04-1.2,2.82-.8.78-1.76,1.17-2.88,1.17h-6.37c-.44,0-.81-.14-1.1-.42-.29-.28-.43-.64-.43-1.07v-2.5ZM553.21,79.5c-.54-.43-.82-.96-.82-1.6s.27-1.16.82-1.6c.54-.43,1.21-.65,1.99-.65s1.44.22,1.99.65c.54.43.82.96.82,1.6s-.27,1.17-.82,1.6c-.54.43-1.21.65-1.99.65s-1.45-.22-1.99-.65ZM559.83,79.5c-.54-.43-.82-.96-.82-1.6s.27-1.16.82-1.6c.54-.43,1.21-.65,1.99-.65s1.44.22,1.99.65c.54.43.82.96.82,1.6s-.27,1.17-.82,1.6c-.54.43-1.21.65-1.99.65s-1.45-.22-1.99-.65Z"/>
      <path d="M572.73,72.66c.27,0,.51.1.71.3s.31.43.31.7v20.96h2.8v5.49h-7.39c-.27,0-.51-.1-.71-.3-.2-.2-.31-.43-.31-.7v-25.45c0-.27.1-.5.31-.7s.44-.3.71-.3h3.57Z"/>
      <path d="M576.61,100.11c-.44,0-.81-.14-1.1-.42s-.43-.64-.43-1.07v-2.5c0-.43.14-.79.43-1.07.29-.28.65-.42,1.1-.42h3.67c-.58-1.1-.87-2.28-.87-3.54,0-.96.19-1.9.56-2.79.37-.9.92-1.69,1.63-2.37.71-.68,1.58-1.23,2.6-1.65s2.17-.62,3.47-.62h5c1.12,0,2.08.39,2.88,1.17.8.78,1.2,1.72,1.2,2.82v6.99h2.8v5.49h-22.94ZM591.13,94.62v-5.49h-3.16c-.82,0-1.51.27-2.09.8-.58.53-.87,1.18-.87,1.95s.27,1.37.82,1.92c.54.55,1.26.82,2.14.82h3.16ZM586.09,79.5c-.54-.43-.82-.96-.82-1.6s.27-1.16.82-1.6c.54-.43,1.21-.65,1.99-.65s1.44.22,1.99.65c.54.43.82.96.82,1.6s-.27,1.17-.82,1.6c-.54.43-1.21.65-1.99.65s-1.45-.22-1.99-.65Z"/>
      <path d="M598.02,96.12c0-.43.14-.79.43-1.07.29-.28.65-.42,1.1-.42h2.8v-9.98c0-.27.1-.5.3-.7.21-.2.44-.3.71-.3h3.57c.27,0,.51.1.71.3.2.2.31.43.31.7v4.89l5.1-4.39c.54-.46,1.12-.83,1.73-1.1.61-.27,1.31-.4,2.09-.4h7.39c1.12,0,2.08.39,2.88,1.17.8.78,1.2,1.72,1.2,2.82v8.48c0,1.1-.4,2.04-1.2,2.82-.8.78-1.76,1.17-2.88,1.17h-24.73c-.44,0-.81-.14-1.1-.42s-.43-.64-.43-1.07v-2.5ZM609.08,94.62h13.66v-5.49h-6.17l-7.5,5.49Z"/>
      <path d="M250.55,140.91c-1.79,0-3.06-.33-3.82-1s-1.14-1.51-1.14-2.55c0-.78.2-1.65.6-2.62l2.73-6.75c.36-.91.97-1.65,1.81-2.23.84-.58,1.78-.87,2.8-.87h7.44c.26,0,.5.1.69.29.2.19.3.42.3.68v10.69h3.23v4.37h-14.64ZM251.09,117.74c.53-.42,1.17-.63,1.94-.63s1.41.21,1.94.63c.53.42.79.94.79,1.55s-.26,1.13-.79,1.55c-.53.42-1.17.63-1.94.63s-1.41-.21-1.94-.63c-.53-.42-.79-.94-.79-1.55s.26-1.13.79-1.55ZM257.49,129.25h-4.27l-2.93,7.29h7.2v-7.29ZM257.54,117.74c.53-.42,1.17-.63,1.94-.63s1.41.21,1.94.63c.53.42.79.94.79,1.55s-.26,1.13-.79,1.55c-.53.42-1.17.63-1.94.63s-1.41-.21-1.94-.63c-.53-.42-.79-.94-.79-1.55s.26-1.13.79-1.55Z"/>
      <path d="M264.12,136.95c.28-.28.64-.41,1.07-.41h5.21v-10.69c0-.26.1-.49.3-.68.2-.2.43-.29.69-.29h2.48c.26,0,.5.1.69.29.2.19.3.42.3.68v10.69h5.21v4.37h-14.89c-.43,0-.79-.14-1.07-.41s-.42-.62-.42-1.04v-1.46c0-.42.14-.77.42-1.04ZM265.98,144.45c.53-.42,1.17-.63,1.94-.63s1.41.21,1.94.63c.53.42.79.94.79,1.55s-.26,1.13-.79,1.55c-.53.42-1.17.63-1.94.63s-1.41-.21-1.94-.63c-.53-.42-.79-.94-.79-1.55s.26-1.13.79-1.55ZM272.43,144.45c.53-.42,1.17-.63,1.94-.63s1.41.21,1.94.63c.53.42.79.94.79,1.55s-.26,1.13-.79,1.55c-.53.42-1.17.63-1.94.63s-1.41-.21-1.94-.63c-.53-.42-.79-.94-.79-1.55s.26-1.13.79-1.55Z"/>
      <path d="M279,140.49c-.28-.28-.42-.62-.42-1.04v-1.46c0-.42.14-.77.42-1.04s.64-.41,1.07-.41h3.23v-4.76c0-.97.22-1.84.67-2.6.45-.76,1.04-1.4,1.79-1.92s1.6-.91,2.58-1.17c.98-.26,1.99-.39,3.05-.39,1.29,0,2.57.2,3.85.61,1.27.4,2.42,1.03,3.45,1.87v8.26c0,1.07-.21,2.01-.62,2.82-.41.81-.96,1.48-1.64,2.02-.68.54-1.46.93-2.36,1.19-.89.26-1.84.39-2.83.39-1.26,0-2.34-.17-3.25-.51s-1.89-.82-2.95-1.43h-4.96c-.43,0-.79-.14-1.07-.41ZM289.45,138.26c.6.15,1.19.22,1.79.22.79,0,1.49-.14,2.08-.44.6-.29.89-.75.89-1.36v-5.97c-.3-.16-.71-.31-1.24-.44s-1.09-.2-1.69-.2c-.86,0-1.66.18-2.41.54-.74.36-1.12.99-1.12,1.89v5.05c.53.32,1.09.56,1.69.7Z"/>
      <path d="M309.3,114.49c.2.19.3.42.3.68v21.37h3.23v4.37h-6.7c-.26,0-.5-.1-.69-.29-.2-.2-.3-.42-.3-.68v-24.77c0-.26.1-.49.3-.68.2-.19.43-.29.69-.29h2.48c.26,0,.5.1.69.29Z"/>
      <path d="M311.76,136.95c.28-.28.64-.41,1.07-.41h12.5c-.33-.78-.67-1.68-1.02-2.7-.35-1.02-.76-1.99-1.24-2.91-.48-.92-1.03-1.7-1.66-2.33s-1.41-.95-2.33-.95c-.56,0-1.11.11-1.64.34s-1.08.52-1.64.88l-1.49-3.01c.89-.71,1.86-1.29,2.9-1.75s2.08-.68,3.1-.68,1.85.21,2.58.63c.73.42,1.36.98,1.91,1.68.55.7,1.03,1.5,1.46,2.4.43.91.85,1.85,1.27,2.82s.84,1.94,1.29,2.91.97,1.86,1.56,2.67h2.28v4.37h-19.85c-.43,0-.79-.14-1.07-.41s-.42-.62-.42-1.04v-1.46c0-.42.14-.77.42-1.04Z"/>
      <path d="M348.58,140.42c-.88-.32-1.61-.76-2.21-1.31-.6-.55-1.04-1.19-1.34-1.92-.3-.73-.45-1.51-.45-2.36,0-1.36.42-2.78,1.27-4.25.84-1.47,2.14-2.82,3.9-4.05l1.39,1.99c-1.12.78-1.9,1.57-2.33,2.38-.43.81-.65,1.54-.65,2.19,0,.91.31,1.66.94,2.26.63.6,1.47.93,2.53,1v4.57c-1.16,0-2.18-.16-3.05-.49Z"/>
      <path d="M358.82,131.68c0-1.17.26-2.18.77-3.04.51-.86,1.17-1.56,1.98-2.11s1.75-.96,2.8-1.24,2.13-.41,3.23-.41c1.19,0,2.35.16,3.47.48s2.17.81,3.13,1.46v14.09h-15.38v-9.23ZM361.35,117.74c.53-.42,1.17-.63,1.94-.63s1.41.21,1.94.63c.53.42.79.94.79,1.55s-.26,1.13-.79,1.55c-.53.42-1.17.63-1.94.63s-1.41-.21-1.94-.63c-.53-.42-.79-.94-.79-1.55s.26-1.13.79-1.55ZM369.74,129.79c-1.09-.36-2-.53-2.73-.53-.99,0-1.86.23-2.61.68-.74.45-1.12,1.12-1.12,1.99v4.62h6.45v-6.75ZM367.81,117.74c.53-.42,1.17-.63,1.94-.63s1.41.21,1.94.63c.53.42.79.94.79,1.55s-.26,1.13-.79,1.55c-.53.42-1.17.63-1.94.63s-1.41-.21-1.94-.63c-.53-.42-.79-.94-.79-1.55s.26-1.13.79-1.55Z"/>
      <path d="M383.34,123.18c.93-.16,1.84-.24,2.73-.24,1.22,0,2.35.17,3.37.51,1.03.34,1.92.87,2.68,1.58s1.36,1.62,1.79,2.72c.43,1.1.65,2.41.65,3.93v8.26c0,.26-.1.49-.3.68-.2.19-.43.29-.7.29h-14.14v-4.37h10.67v-4.86c0-.78-.14-1.44-.42-1.99-.28-.55-.65-.99-1.12-1.33s-1.01-.58-1.64-.73c-.63-.15-1.29-.22-1.98-.22-.56,0-1.14.05-1.74.14-.6.1-1.16.24-1.69.44l-1.09-4.08c1.03-.32,2-.57,2.93-.73Z"/>
      <path d="M401.65,129.45c.43-1.04,1.01-1.89,1.74-2.57.73-.68,1.57-1.18,2.53-1.51s1.98-.48,3.08-.48c1.26,0,2.51.2,3.77.61,1.26.41,2.46,1.01,3.62,1.82v13.6c0,1.46-.17,2.7-.52,3.74-.35,1.04-.84,1.88-1.46,2.55-.63.66-1.37,1.15-2.23,1.46-.86.31-1.8.46-2.83.46-1.16,0-2.33-.18-3.52-.53-1.19-.36-2.46-.86-3.82-1.51l1.44-3.4c.79.36,1.63.66,2.51.92.88.26,1.73.39,2.56.39.99,0,1.81-.28,2.46-.85.65-.57.97-1.64.97-3.23h-6.45c-1.26,0-2.32-.42-3.18-1.26-.86-.84-1.29-1.88-1.29-3.11v-3.4c0-1.42.21-2.65.64-3.69ZM411.92,129.74c-.86-.32-1.8-.48-2.83-.48-.96,0-1.8.31-2.53.92-.73.62-1.09,1.6-1.09,2.96v3.4h6.45v-6.8Z"/>
      <path d="M425.52,123.18c.93-.16,1.84-.24,2.73-.24,1.22,0,2.35.17,3.37.51,1.03.34,1.92.87,2.68,1.58s1.36,1.62,1.79,2.72c.43,1.1.65,2.41.65,3.93v8.26c0,.26-.1.49-.3.68-.2.19-.43.29-.7.29h-14.14v-4.37h10.67v-4.86c0-.78-.14-1.44-.42-1.99-.28-.55-.65-.99-1.12-1.33s-1.01-.58-1.64-.73c-.63-.15-1.29-.22-1.99-.22-.56,0-1.14.05-1.74.14-.59.1-1.16.24-1.69.44l-1.09-4.08c1.03-.32,2-.57,2.93-.73Z"/>
      <path d="M443.83,129.45c.43-1.04,1.01-1.89,1.74-2.57.73-.68,1.57-1.18,2.53-1.51.96-.32,1.98-.48,3.08-.48,1.26,0,2.51.2,3.77.61,1.26.41,2.46,1.01,3.62,1.82v13.6c0,1.46-.17,2.7-.52,3.74-.35,1.04-.83,1.88-1.46,2.55s-1.37,1.15-2.23,1.46c-.86.31-1.8.46-2.83.46-1.16,0-2.33-.18-3.52-.53-1.19-.36-2.46-.86-3.82-1.51l1.44-3.4c.79.36,1.63.66,2.51.92.88.26,1.73.39,2.56.39.99,0,1.81-.28,2.46-.85.65-.57.97-1.64.97-3.23h-6.45c-1.26,0-2.32-.42-3.18-1.26-.86-.84-1.29-1.88-1.29-3.11v-3.4c0-1.42.21-2.65.65-3.69ZM454.1,129.74c-.86-.32-1.8-.48-2.83-.48-.96,0-1.8.31-2.53.92-.73.62-1.09,1.6-1.09,2.96v3.4h6.45v-6.8Z"/>
      <path d="M475.71,140.42c-.88-.32-1.61-.76-2.21-1.31-.6-.55-1.04-1.19-1.34-1.92-.3-.73-.45-1.51-.45-2.36,0-1.36.42-2.78,1.26-4.25.84-1.47,2.14-2.82,3.9-4.05l1.39,1.99c-1.12.78-1.9,1.57-2.33,2.38-.43.81-.64,1.54-.64,2.19,0,.91.31,1.66.94,2.26.63.6,1.47.93,2.53,1v4.57c-1.16,0-2.17-.16-3.05-.49Z"/>
      <path d="M490.92,140.91c-1.79,0-3.06-.33-3.82-1-.76-.66-1.14-1.51-1.14-2.55,0-.78.2-1.65.59-2.62l2.73-6.75c.36-.91.97-1.65,1.81-2.23.84-.58,1.78-.87,2.8-.87h7.44c.27,0,.5.1.7.29.2.19.3.42.3.68v10.69h3.23v4.37h-14.64ZM491.47,117.74c.53-.42,1.17-.63,1.93-.63s1.41.21,1.94.63c.53.42.79.94.79,1.55s-.27,1.13-.79,1.55c-.53.42-1.17.63-1.94.63s-1.41-.21-1.93-.63c-.53-.42-.79-.94-.79-1.55s.26-1.13.79-1.55ZM497.87,129.25h-4.27l-2.93,7.29h7.2v-7.29ZM497.92,117.74c.53-.42,1.17-.63,1.94-.63s1.41.21,1.94.63c.53.42.79.94.79,1.55s-.26,1.13-.79,1.55c-.53.42-1.17.63-1.94.63s-1.41-.21-1.94-.63c-.53-.42-.79-.94-.79-1.55s.26-1.13.79-1.55Z"/>
      <path d="M504.49,140.49c-.28-.28-.42-.62-.42-1.04v-1.46c0-.42.14-.77.42-1.04s.64-.41,1.07-.41h4.07c-.3-.52-.51-1.08-.64-1.68-.13-.6-.2-1.22-.2-1.87,0-.94.16-1.89.47-2.87.31-.97.81-1.85,1.49-2.62.68-.78,1.55-1.41,2.61-1.89,1.06-.49,2.32-.73,3.77-.73h3.57c1.09,0,2.03.38,2.8,1.14.78.76,1.17,1.68,1.17,2.74v7.77h3.23v4.37h-22.33c-.43,0-.79-.14-1.07-.41ZM520.2,129.25h-3.38c-.99,0-1.84.35-2.53,1.04-.69.7-1.04,1.56-1.04,2.6,0,.94.33,1.78.99,2.53.66.74,1.49,1.12,2.48,1.12h3.47v-7.29ZM514.79,117.74c.53-.42,1.17-.63,1.94-.63s1.41.21,1.93.63c.53.42.79.94.79,1.55s-.27,1.13-.79,1.55c-.53.42-1.17.63-1.93.63s-1.41-.21-1.94-.63c-.53-.42-.79-.94-.79-1.55s.26-1.13.79-1.55Z"/>
      <path d="M526.82,140.49c-.28-.28-.42-.62-.42-1.04v-1.46c0-.42.14-.77.42-1.04s.64-.41,1.07-.41h3.23v-21.37c0-.26.1-.49.3-.68.2-.19.43-.29.7-.29h2.48c.26,0,.5.1.7.29.2.19.3.42.3.68v16.03l6.1-4.86c.53-.42,1.09-.77,1.69-1.04s1.27-.41,2.04-.41h6.05c1.09,0,2.03.38,2.8,1.14s1.17,1.68,1.17,2.74v8.26c0,1.07-.39,1.98-1.17,2.74-.78.76-1.71,1.14-2.8,1.14h-23.57c-.43,0-.79-.14-1.07-.41ZM550.96,136.54v-7.29h-6.3l-9.18,7.29h15.48Z"/>
      <path d="M566.05,114.49c.2.19.3.42.3.68v21.37h3.23v4.37h-6.7c-.26,0-.5-.1-.7-.29-.2-.2-.3-.42-.3-.68v-24.77c0-.26.1-.49.3-.68.2-.19.43-.29.7-.29h2.48c.27,0,.5.1.7.29Z"/>
      <path d="M568.51,136.95c.28-.28.64-.41,1.07-.41h6.7l-2.93-4.96c-.2-.32-.34-.69-.42-1.09-.08-.4-.12-.8-.12-1.19,0-.55.08-1.09.25-1.63.17-.53.41-1,.74-1.41.33-.4.75-.74,1.24-.99.5-.26,1.07-.39,1.74-.39h10.42c.66,0,1.24.13,1.74.39.5.26.91.59,1.24.99.33.41.58.88.75,1.41.16.54.25,1.08.25,1.63,0,.39-.04.78-.12,1.17-.08.39-.22.76-.42,1.12l-2.88,4.96h6.65v4.37h-24.81c-.43,0-.79-.14-1.07-.41s-.42-.62-.42-1.04v-1.46c0-.42.14-.77.42-1.04ZM577.16,129.25l4.52,7.29h.55l4.61-7.29h-9.68Z"/>
      <path d="M593.32,136.95c.28-.28.64-.41,1.07-.41h5.21v-10.69c0-.26.1-.49.3-.68.2-.2.43-.29.69-.29h2.48c.26,0,.5.1.69.29.2.19.3.42.3.68v10.69h5.21v4.37h-14.89c-.43,0-.79-.14-1.07-.41s-.42-.62-.42-1.04v-1.46c0-.42.14-.77.42-1.04ZM595.43,117.74c.53-.42,1.17-.63,1.94-.63s1.41.21,1.94.63c.53.42.79.94.79,1.55s-.26,1.13-.79,1.55c-.53.42-1.17.63-1.94.63s-1.41-.21-1.94-.63c-.53-.42-.79-.94-.79-1.55s.26-1.13.79-1.55ZM601.88,117.74c.53-.42,1.17-.63,1.94-.63s1.41.21,1.93.63c.53.42.79.94.79,1.55s-.26,1.13-.79,1.55c-.53.42-1.17.63-1.93.63s-1.41-.21-1.94-.63c-.53-.42-.79-.94-.79-1.55s.27-1.13.79-1.55Z"/>
      <path d="M608.2,140.49c-.28-.28-.42-.62-.42-1.04v-1.46c0-.42.14-.77.42-1.04s.64-.41,1.07-.41h3.22v-4.76c0-.97.22-1.84.67-2.6.45-.76,1.04-1.4,1.79-1.92s1.6-.91,2.58-1.17c.98-.26,1.99-.39,3.05-.39,1.29,0,2.57.2,3.85.61,1.27.4,2.42,1.03,3.45,1.87v8.26c0,1.07-.21,2.01-.62,2.82-.41.81-.96,1.48-1.64,2.02-.68.54-1.46.93-2.36,1.19-.89.26-1.84.39-2.83.39-1.26,0-2.34-.17-3.25-.51s-1.89-.82-2.95-1.43h-4.96c-.43,0-.79-.14-1.07-.41ZM618.65,138.26c.6.15,1.19.22,1.79.22.79,0,1.49-.14,2.08-.44.6-.29.89-.75.89-1.36v-5.97c-.3-.16-.71-.31-1.24-.44s-1.09-.2-1.69-.2c-.86,0-1.66.18-2.41.54-.74.36-1.12.99-1.12,1.89v5.05c.53.32,1.09.56,1.69.7Z"/>
    </g>
    <path d="M496.62,90.13c-.27,0-.51-.1-.71-.3-.21-.2-.31-.43-.31-.7v-3.99c0-.27.1-.5.31-.7.2-.2.44-.3.71-.3h4.08c.27,0,.51.1.71.3.2.2.3.43.3.7v3.99c0,.27-.1.5-.3.7-.21.2-.44.3-.71.3h-4.08ZM496.62,100.11c-.27,0-.51-.1-.71-.3-.21-.2-.31-.43-.31-.7v-3.99c0-.27.1-.5.31-.7.2-.2.44-.3.71-.3h4.08c.27,0,.51.1.71.3.2.2.3.43.3.7v3.99c0,.27-.1.5-.3.7-.21.2-.44.3-.71.3h-4.08Z"/>
    <path d="M230.81,134.87c-.2-.2-.31-.43-.31-.7v-3.74c0-.27.1-.5.31-.7.2-.2.44-.3.71-.3h3.82c.27,0,.51.1.71.3.2.2.31.43.31.7v3.74c0,.27-.1.5-.31.7-.2.2-.44.3-.71.3h-3.82c-.27,0-.51-.1-.71-.3Z"/>
  </g>
</svg>