<?xml version="1.0" encoding="UTF-8"?>
<svg id="Layer_1" xmlns="http://www.w3.org/2000/svg" version="1.1" viewBox="0 0 699.08 194.23">
  <!-- Generator: Adobe Illustrator 29.7.1, SVG Export Plug-In . SVG Version: 2.1.1 Build 8)  -->
  <defs>
    <style>
      .st0 {
        fill: #fae1de;
      }

      .st1 {
        font-family: AbdoMaster-Black, AbdoMaster-Black;
        font-size: 31.31px;
        font-weight: 800;
      }

      .st1, .st2 {
        fill: #f9ddd9;
      }

      .st1, .st3 {
        isolation: isolate;
      }

      .st4 {
        fill: #007db5;
        stroke: #020202;
        stroke-miterlimit: 10;
        stroke-width: 16.87px;
      }
    </style>
  </defs>
  <g>
    <path class="st4" d="M304.99,61.64H39c-16.65,0-30.14,13.21-30.14,29.5v65.87c0,16.29,13.49,29.5,30.14,29.5h621.09c16.65,0,30.14-13.21,30.14-29.5v-65.87c0-16.29-13.49-29.5-30.14-29.5h-265.99l-44.55-48.92-44.55,48.92h-.01Z"/>
    <g>
      <path class="st0" d="M533.88,161.43c.26-.17.11-.56-.61-.49l-.51.66,1.12-.18h0Z"/>
      <path class="st0" d="M529.03,160.2c-.85.32-1.83.88-1.28,1.49.84-.64,1.04-.37,1.95-1.13.72-.08,1.26.21,1.14.46.26-.17,1.12.15,1.51-.27-.94-.51-2.13-.53-3.37-.11-.27-.15,0-.32.05-.44Z"/>
      <path class="st0" d="M458.55,159.17l.45.08c-.12-.04-.28-.07-.45-.08Z"/>
      <path class="st0" d="M414.88,158.81c.33-.02.47-.08.49-.14-.31.04-.56.08-.49.14Z"/>
      <path class="st0" d="M407.42,158.08c.16.02.29.03.44.04-.17-.06-.34-.09-.44-.04Z"/>
      <path class="st0" d="M458.55,159.17l-1.17-.21c-.08.22.6.16,1.17.21Z"/>
      <path class="st0" d="M519.31,161.8c.24-.03.45-.09.63-.17-.2.03-.39.05-.6.07-.01.04-.02.07-.04.1h0Z"/>
      <path class="st0" d="M477.8,158.63h.35c.1-.08.2-.17.29-.27l-.65.27h0Z"/>
      <path class="st0" d="M492.57,158.53c-.33-.02-.45.54-.58.78.19-.23.44-.34.73-.39,0-.11-.04-.23-.15-.4h0Z"/>
      <path class="st0" d="M516,159.52l.42-.08c-.11.02-.29.05-.42.08Z"/>
      <path class="st0" d="M467.22,158.51c-.02-.08-.08-.16-.13-.2,0,.07.05.14.13.2Z"/>
      <path class="st0" d="M53.97,162.74v-.1c-.09.06-.11.1,0,.1Z"/>
      <path class="st0" d="M36.85,159.95l.24-.03c.03-.11.05-.21.05-.32l-.29.35Z"/>
      <path class="st0" d="M393.77,157.36h.06c.36-.06.16-.05-.06,0Z"/>
      <path class="st0" d="M268.5,157.77c1.42.5-2.31.65-.17,1.2-.2-.22,1.94-.88.17-1.2Z"/>
      <path class="st0" d="M518.93,161.73h-.61c.28.02.46.02.61,0Z"/>
      <path class="st0" d="M268.33,158.98h0l.22.06c-.09-.02-.14-.04-.22-.06Z"/>
      <path class="st0" d="M362.33,157.7c.06.1.19.17.32.25-.01-.06-.08-.13-.32-.25Z"/>
      <path class="st0" d="M385.75,158.5l-.58-.08c.23.05.42.07.58.08Z"/>
      <path class="st0" d="M350.17,158.49c-.32-.04-.42-.12-.85-.04.04.03.08.05.13.07.16-.08.36-.11.72-.02h0Z"/>
      <path class="st0" d="M337.51,158.49c.07.04.16.08.23.11.13,0,.27-.02.4-.03l-.63-.08Z"/>
      <path class="st0" d="M92.45,162.47c-.28-.16-.45-.33-.58-.51.2.4-1.66.54.58.51Z"/>
      <path class="st0" d="M519.31,161.48c-.07.14-.18.21-.38.24.15,0,.28-.02.42-.03.04-.08.04-.16-.04-.21Z"/>
      <path class="st0" d="M349.65,162.92l-2.01-.08c.56.05,1.29.08,2.01.08Z"/>
      <path class="st0" d="M183.26,162.39l-.46.07c.18,0,.34,0,.46-.07Z"/>
      <path class="st0" d="M341.67,162.92c-.36-.2-.74-.31-1.13-.39-.08.04-.18.08-.23.15l1.37.24h0Z"/>
      <path class="st0" d="M91.86,161.96h0Z"/>
      <path class="st0" d="M78.61,163.29c1.92.02.9-.72,1.31-1.15,2.29-.21,1.06.54,1.84.92,1.43-.2,2.52-.87,3.59-.85.08.12.29.17.04.32,1.51-.59,4.48-.03,6.24-.77.13.07.2.13.23.18-.28-.37-.33-.75-.27-1.01.86,0,1.59-.47,1.92.02-.53,0-.57.18-.82.33l.9-.21c.81.69-1.23.24-1.23.75,1.76-.23,3.8-.8,5.15-.6.28.68-3.15.23-1.35.83l-2.08-.26c1.59,1.07-1.26-.07.2,1.07,2.74.2,3.06-.35,5.8-.15.62-.38-.2-.56.41-.94,3.88-.68,3.06,1.71,5.91.8.74-.45,1.03-1.31,3.06-.86l-.69.77c2.65.08,1.51-1.1,4.29-.59-.49.3-2.08.25-1.68.35,1.8.61,1.27-.44,2.66-.44l.29.68c2.82-.11,5.93-.6,9.06-.72-.17.2-.71.41.02.62,3.94-.34,8.42.08,12.22.49l1.45-.59c.34,0,.63.27.26.38,1.48.22.08-.37.79-.6.84-.04,1.11.34.58.51,2.62-.5,7.45-1.07,10.21-.44l-.54.17c2.15.24,2.42-1.2,4.41-.66l-.38.1c4.66.25,9.81-.28,13.36.6.68-.85,4.61.38,4.91-.8,2.66.58,1.9.8,5.64,1.19,1,.05,1.49-.74,2.73-.86l.03.62,1.68-.65.89.74,1.16-.16c-.46-.04-.98-.28-.91-.45,1.81-.28,4.42.43,4.46.74l4.29-.52c-.1.25-.81.33-1.38.49,2.29-.63.42.65,2.51.07-.28-.14.15-.37.2-.49,1.05.37,3.42.38,5.19.22l-.34.42c3.18.11,6.7-.2,10.27-.2-1.28-.2-.99-.93.06-1.01l.42.65c.68-.4-1.09-.25.29-.74,1.33.08.9.74.13.95l1.62-.23c.1.19-.28.3-.38.54.66-.4,2.8.65,3.76-.05l.09.19c3.57,0,5.19-.22,8.09-.25.06-.56,1.19-.44,2.06-.89,2.14.18,4.51.62,7.08.57,1.81-.28.53-.48,1.34-.81.13.51,2.7.46,1.37.83,3.09-.08,3.94-.1,7.85-.52-.42-.21-.9-.3-.65-.48.71-.08,1.61.21,1.51.46l-.19.05c4.38-.77,10.12,1.49,13.61.43l-.2.05,3.62-.56c1.67.09-1,.38.23.7,3.91-.85,6.17.12,9.39-.45,2.49,1.51,8.83-.11,12.19.86l-.19-.36c.87-.35,1.05.2,1.69.29-.09-.28-.94-.32-.4-.51,7.36-.43,15.19.52,22.73.84,2.76.1,1.57-1.84,5.04-.99l-.99.66c5.57-.79,11.38.03,16.83-.65-.32.15-.33.35-.87.35,1.15.48,4.26.02,4.28-.37.85.04.2.35.72.55,1.15.28,2.9-.61,3.51-.14.1.08-.32.16-.54.19.75-.23,3.51.06,2.79-.49,2.05.26,3.91-.25,5.54.08,1.06-.62,3.5.3,3.84-.58-.15.9,3.59.73,4.88.3-.43.27,1.12.28.62.66,1.48,0,2.83-.18,2.57-.65,2.72,1.08,5.47-.87,7,.52,4.38-.49,8.44-.82,12.39-1.03-.14.9-4.36.09-4.19,1.04,3.74-.37,5.9-1.15,9.61-.93.96.12-.55.39-.87.55,3.74-.37,7.23.08,10.55-.41,0,.08-.37.18-.71.24.66-.03,1.52.13,1.45-.28l-.64.11c-1.05-.6,2.6-1.24,2.72-1.56-1.11,1.18,3.29.3,1.52,1.78.43-.08.97-.27.87-.55.64.08.84.24.19.55,2.35-.22,1.51-.66,3.64-.65,0,.2-.44.28-.66.51,1.08-.39,2.16-.77,3.96-.61-.11.12.1.28-.44.27,3.09-.06,5.26-1.03,8.65-.66-1,.86,1.15.28,1.33,1.03l1.82-.22-.73-.36c1.6,0,3.01-.53,4.38-.29l-1.19.31,2.99-.14-1.69-.28c1.61-.38-.17-.94,1.95-.74-.43.08,1.6,0,2.43.45h0c.79-.24,1.6-.49,2.78-.3.31.24-.25.83-.05.98.78-.62,3.74-.17,4.72-.84-.33.16-.35.55-.24.63l.65-.51c.74.16.85.24.73.55,2.22.09-.71-.95,1.93-.54-.21.04-.11.12-.54.19,2.65.21,5.12-.32,7.55-.07.72.75-2.13.18-1.31.82,3.51-.14,7.27-.9,10.67-.72l-.63-.08c.47-1.06,2.53.52,4.25.02-.42.08-.55.59-.44.47,2.33.17,4.76-.26,8.28-.59l-.44.27c1.37.24,3.61.14,5.09.26.44-.27,1.29-.23.77-.62,4.57,1.55,8.71-.83,12.76.46-.48,0-1.15.24-.77.24l3.45-.25c-.27-.46-.45-.28-1.18-.64.44-.27,1.41-.49,2.27-.49-1.55.31.01.74.68,1-.11-.14.12-.3.06-.44,1.8.82.3-.93,2.76-.38l-.13.24c.92-.12,1.77-.44,2.76-.38.41.53-.98.25-1.04.69,1.4-.03,2.75-1.01,4.02-.48-.59.15-1.45.15-2.04.3,1.38.63,1.53.47,2.56.57h-.1l2.36.27-.6-.17c1.75-1.39,3.56-.25,5.91-1.17-2.29.86-.38.5-.55,1.11.6.17,1.51.36,1.25.53,1.11-.49,1.86.39,3.42-.33.07.2,1.19.02.94.51,1.45-.15-.34-.34-.22-.58,2.23-.67,5.24.81,8.44-.11,2.76-.38,3.27-1.03,5.84-1.36.87.31-.71.71-.71.71,1.4.29,2.45.23,3.76,0-.27.17,0,.31.41.53,1.06-.05.71-.71,2.1-.42-.24.22-.55.57-1.05.78,1.24-.18,2.47-.54,3.76-.72.34.34-.78.52-1.23.74,1.45-.15,3.75-.31,4.2-.85l-.93-.19c.53-.03.27.46-.12.56-1.24.42-1.79-.19-1.86-.38l.92-.12c-.94-1.14-3.68.18-5.53.12l.77-.83-1.89.69c-.4-.22-.68-.68.23-.81-1.32-.41-1.17.3-2.31-.16-.13-.07-.07-.11.05-.14l-1.29.25c.25-.17-.22-.59.58-.47-2.32-.48-3.74.62-4.62,0l.19-.05c-3.22.28-.31.61-2.73,1.33l-1.63-1.51-.32.61c-.33-.02-.99-.07-.87-.31-1.24.42.21.27-.51.66-1.6-.56-4.41.26-4.77-.71-.57.46,1.53.36-.18.68-.49-1.05-1.97.18-3.44-.3.45-.54,1.83-.25.37-.74-.88.91-2.85-.2-4.08-.03-.06.73-2.68.3-4.75.55.13-.24-3.89-.4-5.82-.66l.06-.12c-.37.73-2.36.6-3.8.75.06-.44.32-.61,1.1-.81h-1.36c-.32.24-.74.36-1.63.45l.34-.55c-1.81.03-3.64.65-5.97.28-.13.51,1.85,1.43-.61,1.77-.09-.28-.18-.75.46-.86-.21.04-.75.23-1.18.11l.98-.47c-1.06-.2-.55.39-1.4.35.02-.4-.63-.28-.51-.6.22-.04.74.16,1.06,0-.96-.07-2.11-.3-2.49-.6.08.22,0,.53-.7.58-1.81.03-.62-.48-1.67-.68-.44.27-1.59,0-1.62.58-.53,0-.63-.28-.83-.44-.94.26-4.37.07-3.32.7l.24.04s-.1,0-.15.03h0c-3.07.59-6.37-.33-9.42-.08v-.2c-1.81.23-4.04.13-5.34.56-.54,0-1.27-.36-1.04-.6-1.39.15-1.54.37-3.55.04,1.4-.34-.48-.31,1.43-.25-1.8-.17-2.21-.49-4.15.05.66-.51-1.36-.64-2.22-.49l1.26.36c-.96.07-1.81.03-2.66,0l.46-.67c-3.69-.81-6.66,1.38-9.47.02-.98.47,2.01.33,1.13.87-1.7-.09-3.47-1.04-4-1.05-2.33-.37-2.17.97-4.61.72.31.24.61.87-1.21,1.09-1.7-.09-2.09-1-1.02-1.19.41-.02.6.06.59.14.55-.09,1.27-.19.6-.45l-.22.24c-.84-.24-3.18-.22-2.63-.61-1.28.23-.55.39.4.51-2.18-.34-3.41,0-5.65-.24.36.13.69.41.33.41-3.29-.29-1.45.45-3.68.55-1.27-.36.45-.86-1.79-.56-1.37-.24-.29-.63.25-.82-2.05.46-3.82-.3-4.99-.38l1.08-.19c-.64.11-1.17.11-1.71.11l.62.47c-.63-.08-1.17-.08-1.16-.28-.65.31.5.79-.79,1.21-.84-.24-2.57.26-2.86-.37,2.65.21-.29-.63,1.95-.73-.43.08-.96.07-1.6,0-.1-.07.09-.13.26-.17-2.54-.56-1.17.71-3.8.7.33-.35-.61-.67-1.04-.6,1.06,0,.51.59-.47.86-1.69-.28-1.83.21-2.72.17l1.01.13c-.34.35-1.19.31-2.36.42-.1-.28,1.07-.19.65-.31-1.31.62-2.95-.65-4.77-.23-.84-.24-.08-.67-.82-.83-2.04.46-2.21-.49-4.35-.11.62.48.73.36-.78.83l3.53-.34-2.26.69c1.06,0,2.25-.3,2.88-.22-1.08.39-.97.27-.46.67-1.46-.72-2.89.42-4.57-.07l.05-1.18c-2.53-.53-4.5.61-7.78.31l1.06.21c-.44.47-2.03.07-3.09.26.1-.4-.57-.54-1.02-.78.06.29-2.4-.03-2.7.76l-1.47-.52c-2.65-.21-3.03,1.12-5.58.99.77-.43-.39-.71,1.32-1.02-.85,0-1.62-.08-1.63.2-.5-.25-2.36.53-3.14.16-.36.17-.48.59-1.43.55-.1-.08,0-.19,0-.19,0,.19-1.5.27-.66.7-2.62-1.23-7.33.09-9.61-.97-1.86.13-4.1.26-5.78.29.11-.12,0-.2.32-.16-2.33-.37-1.43,1.13-4.08.72-1.35-.64,1.41-.35.56-.59-.37-1.3-3.2.18-4.98-.58l.43-.08c-1.36-.44-3.32.49-5.55.4,0,0,.11-.11.01-.2-1.52.66-4.4.88-6.54,1.07.67-.51.97-.27.57-.79-.96.07.28.83-1.63.97-.62-.28-2-.52-2.19-1.07l1.81-.03c-.93-.71-2.34.02-3.29-.1l.12-.31c-2.77.1-2.81.89-5.78.83l.31.24c-1.63.78-1.36-.44-2.99.14l-.49-.79c-1.07.19-3.76.76-5.68.91,1.09-.59,3.34-.88,4.74-1.23-1.06,0-3.62.06-4.17.45.43-.08.97-.27,1.39-.15-1.31.62-3.02.93-5.14.91.38-1.53-5.53-.39-7.06-1.57-3.75.57-7.44-.24-11.81-.15,1.55,1.19-1.28.03-1.01,1.26-1.02.08-1.41.06-1.5-.02l-3.08-.73c-.73-.36.97-.27.87-.54-2.23-.09-.93-.52-2.41-.84.3.44-.77.63-2.04.46l1.79.56c-3.11.65-2.69-1.03-5.83-.38l.99-.38c-1.61.23-5.94,0-7.52.97-.28-.14-.66-.48.05-.56-3.85-.15-8.57,1.05-11.56.44l.29-.3c-.72.09-1.25.56-2.15.26.05-.12.29-.3-.04-.32-.38.1-1.91.52-2.86.35l.81-.34c-3.75-.39-5.76.82-8.91,1.02,0-.88-2.95-1.17-4.42-1.31l.05-.12c-4.37-.11-7.43.73-11.47,1.08-2.51-.96-8.51-.4-12.55-.94.62.16-.1.69-.82.77-.95-.18-2.62.61-2.47-.2l.34.02c-.71-.79-2.66-.58-4.18-.6l-.25,1.06c-3.98-1.54-10.42.56-12.59-.81-.96.26-2.15.26-3.1.53l.05-.57c-2.66-.14-3.99-.22-7.28-.08l.67-.4c-1.85-.04-2.34,1.63-4.05,1.67l-.51-.85c-3.24,0-6.51-.73-9.71.04.05-.12.15-.37.67-.4-1.52-.02-5.89-.57-5.34.59-.04-.76-3.34-.07-5.09.26l.27-.56c-1.47.71-1.52.91-3.58,1.1-.49-.07-.43-.45.22-.3-1.63-.29-1.27.53-3.24.23l.73-.36c-1.67-.04-1.54.15-2.46.56-1.05.22-3.17-.14-3.42-.64-.23.31-1.14.72-2.13.57-.13-.19.23-.31.41-.37-2.8-.38-4.16.65-6.08.1-.04-.18-.17-.28-.32-.33,2.22,0,4.01.04,3.84.08,0-.51-1.8-.6-.37-1.31-1.44.39-3.91,1.23-5.66.99-.08-.05-.17-.1-.23-.18l.18-.06c-.4-.05-.77,0-1.11.08-.56-.08-.91-.15-1.45-.15-.21-.42-2.06-.23-2.95-.25.07.56-1.1.47,0,.94-.14-.04.17-.07.76-.09.13-.02.29-.02.38-.06-.02.02-.04.03-.06.05.59-.02,1.35-.03,2.23-.04-.71.29-1.45.53-2.44.21-.46.36-.97.73-1.25.91-1.23-.78-3.59-1.21-3.92-1.69-2.73.32-6.44.21-8.16,1.26-.78.14-.89-.3-1.18-.47.45-.11.98-.09,1.23-.24-1.55.27-4.6.11-4.97.84-1.96-.33,1.1-.68-1.59-.56l.36-.23c-5.29-1.18-8.61,1.88-14.48.37.41.09.61.14.69.26-6.69-.67-13.79.63-20.39-.43-1.88-.21-2.08.26-3.23.62l-.41-.6-1.96.7c-2.78.51-4.81-1.48-8.33-.52l.45.41c-1.26-.08-4,.24-3.79-.23-.13.07-.41.42-.91.21l-.04-.32-3.1.54c-2.4-.23.38-1.25-3.13-1.32-1.3.12-3.71.92-3.22,1.13.53.02,1.35.2,1.38.51l-1.19.16c-.22.93-1.13,1.88,1.79,2.54l2.04-.57.66.45-1.72.03c.97.42,1.59.05,2.28-.21.16.24.45.41.86.5l2-.89c.24.36-.9.72.45.92.94-.41-.9-.82.65-1.09.98.42.69.77,1.84.41.16.24-.08.39-.54.5,1.02-.29,2.7-.12,3.23-.62,1.02.52,3.44-.14,3.34.75.32-.21,1.8-.69,2.73-.73-1.71,1.06,3.51.06,3.05,1.19,1.27-.95,4.58-.42,6.82-.95-.13.08-.37.23-.57.18,1.26.08,1.63.36,2.44.54.16-.78,2.13-.96,3.19-1.45,1.55.76-.94.92-.45,1.65-.08-.64,2.69-.63,2.16-1.16,1.18.47,1.02.23,1.63.88.21-.98,1.1-.17,2.08-.77,1.71.48.44.92,2.32.62.9.3-.78.65-.78.65l.12.17h0ZM123.37,161.6h0c-.39.02-.71.04-.92.04.19,0,.46-.02.92-.04ZM127.13,161.59c-.46-.02-1.03-.03-1.63-.02-.13-.19.01-.39.39-.38-.21.13.68.24,1.24.41h0ZM119.17,157.69c.6-.08.79.03.88.15-.28,0-.61.03-1.04.07-.02.02-.05.04-.07.07.06-.11.12-.21.24-.28h0Z"/>
      <path class="st0" d="M118.1,158.43c-.09,0-.13.04-.25.04.12.05.24.09.36.13.07-.06.15-.12.21-.18h-.32Z"/>
      <path class="st0" d="M459.08,159.26h-.08c.07,0,.13.03.17.07-.05-.03-.05-.04-.09-.07h0Z"/>
      <polygon class="st0" points="179.07 162.66 179.07 162.52 178.74 162.65 179.07 162.66"/>
      <path class="st0" d="M479.8,161.19s.12.1.27.14c-.01-.04-.13-.09-.27-.14Z"/>
      <path class="st0" d="M488.75,161.32l1.27.2c-.55-.11-.95-.17-1.27-.2Z"/>
      <path class="st0" d="M495.63,161.6c.09-.1.11-.17.13-.24h-.01l-.12.24Z"/>
      <path class="st0" d="M386.23,162.26c-.09,0-.18,0-.27.03-.62.11-.2.07.27-.03Z"/>
      <path class="st0" d="M418.78,160.94c-.35.1-.69.2-1.05.27.58.04,1.03.05,1.05-.27Z"/>
      <path class="st0" d="M349.87,162.93h-.22.22Z"/>
      <path class="st0" d="M416.22,161.2c.58.11,1.06.09,1.51,0-.48-.04-1.03-.1-1.51,0Z"/>
      <path class="st0" d="M525.45,161.85l.33.02s.01-.07.04-.09l-.37.07h0Z"/>
      <path class="st0" d="M525.82,161.78l.37-.07c-.17,0-.32,0-.37.07Z"/>
      <path class="st0" d="M526.96,161.58l-.77.14c.27,0,.6.02.77-.14Z"/>
      <path class="st0" d="M516.34,161.59l-.1.2c.06-.04.09-.11.1-.2Z"/>
      <path class="st0" d="M513.57,161.65c.66.05,1.66.43,2.58.31l.09-.16c-.43.3-2.04-.49-2.66-.15h-.01Z"/>
      <path class="st0" d="M502.02,159.13l2.32.16c-.41-.22-.94-.51.12-.56-2.92-.65.6.49-2.44.4Z"/>
      <path class="st0" d="M494.83,158.82c1.25-.1-.01-.32.05-.44-.79.2-.98.25-.05.44Z"/>
      <path class="st0" d="M442.85,158.81l.13-.51c-.96.07,0,.2-.13.51Z"/>
      <polygon class="st0" points="432.92 161.46 433.85 161.78 434.3 161.31 432.92 161.46"/>
      <polygon class="st0" points="427.05 157.81 427.47 157.74 425.87 157.93 427.05 157.81"/>
      <path class="st0" d="M339.76,158l.29.63c.65-.11.79-.82-.29-.63Z"/>
      <path class="st0" d="M302.08,158.64c-.41-.32-1.47-.52-2.12-.21.85.04,1.69.29,2.12.21Z"/>
      <polygon class="st0" points="189.07 157.61 189.82 157.4 188.39 157.58 189.07 157.61"/>
    </g>
    <g>
      <path d="M79.9,100.84c-.37-.42-.9-.66-1.45-.66-.76,0-1.46.45-1.79,1.15-.33.69-.21,1.49.29,2.07,2.66,3.05,2.94,9.34-.89,13.85-.5.59-.6,1.38-.27,2.07s1.03,1.13,1.78,1.13h0c.56,0,1.09-.25,1.46-.68,2.13-2.51,3.51-5.89,3.79-9.27.3-3.72-.74-7.14-2.93-9.65h0Z"/>
      <path d="M83.45,97.66c-.36-.3-.81-.46-1.28-.46-.84,0-1.6.52-1.89,1.29-.27.73-.05,1.54.57,2.06,2.01,1.66,2.9,4.43,2.82,8.71-.1,5.23-1.79,8.37-3.19,10.08-.48.59-.58,1.38-.24,2.07.33.68,1.03,1.12,1.77,1.12h0c.57,0,1.1-.26,1.47-.71,2.58-3.15,3.97-7.36,4.12-12.49.16-5.33-1.24-9.25-4.15-11.66h0Z"/>
      <path d="M48.89,105.07c-2.04,3.61-1.73,8.06.79,11.33.38.49.96.78,1.59.78h0c.23,0,.45-.04.66-.11.04.98.07,1.95.11,2.9.04,1.05.08,2.11.11,3.16.06,1.52.22,2.86.49,4.1.31,1.42,1.11,2.33,2.43,2.8,1,.35,2.08.36,2.95.36h.64c.68,0,1.36,0,2.04-.02h1.34l4.44-.03h2.23c.93,0,1.65-.05,2.31-.15,1.38-.21,2.4-1.25,2.8-2.85.26-1.04.33-2.1.39-3.12.03-.42.05-.82.09-1.21l.61-6.29c.09.01.18.02.27.02h0c.63,0,1.21-.28,1.59-.78,2.52-3.27,2.83-7.71.79-11.33-.3-.53-.8-.87-1.38-.96l.33-3.38c.05-.47.11-.95.18-1.46.21-1.57.43-3.2.15-4.82-.36-2.07-2.04-2.87-3.4-3.16,0-1.49,0-2.97-.04-4.44-.02-1.05-.88-1.88-1.95-1.89-.16,0-.36-.01-.57-.03-.27-.02-.58-.04-.89-.04-.44,0-.82.04-1.16.14-.4.11-1.45.39-1.71,2.22-.17,1.18-.29,2.41-.36,3.68-1.83-.05-3.66-.08-5.45-.11-.96-.02-1.92-.03-2.87-.05h-.33c-1.87,0-3.38.33-4.63,1-1.69.91-2.49,2.59-2.4,4.98l.34,7.92c-.26-.11-.53-.18-.82-.18-.71,0-1.33.37-1.68.98l-.03.03h0ZM51.72,111.82c-.25-.93-.29-1.9-.12-2.85l.12,2.85Z"/>
      <path d="M43.62,110.89c.27,3.38,1.66,6.76,3.79,9.27.37.43.9.68,1.46.68h0c.75,0,1.45-.44,1.78-1.13.33-.69.23-1.48-.27-2.07-3.83-4.51-3.55-10.8-.89-13.85.51-.58.62-1.38.29-2.07-.33-.7-1.03-1.15-1.79-1.15-.55,0-1.08.24-1.45.66-2.19,2.51-3.23,5.93-2.93,9.65h.01Z"/>
      <path d="M42.97,122.21c.37.45.9.71,1.47.71h0c.74,0,1.43-.44,1.77-1.12s.24-1.48-.24-2.07c-1.99-2.43-3.07-5.83-3.19-10.09-.13-4.18.8-7.02,2.82-8.69.62-.51.84-1.32.57-2.06-.29-.77-1.05-1.29-1.89-1.29-.46,0-.92.16-1.28.46-2.9,2.4-4.26,6.21-4.15,11.65.1,5,1.52,9.33,4.12,12.5Z"/>
      <path class="st2" d="M78.59,98.64c-.37-.42-.9-.66-1.45-.66-.76,0-1.46.45-1.79,1.15-.33.69-.21,1.49.29,2.07,2.66,3.05,2.94,9.34-.89,13.85-.5.59-.6,1.38-.27,2.07s1.03,1.13,1.78,1.13h0c.56,0,1.09-.25,1.46-.68,2.13-2.51,3.51-5.89,3.79-9.27.3-3.72-.74-7.14-2.93-9.65h0Z"/>
      <path class="st2" d="M82.14,95.46c-.36-.3-.81-.46-1.28-.46-.84,0-1.6.52-1.89,1.29-.27.73-.05,1.54.57,2.06,2.01,1.66,2.9,4.43,2.82,8.71-.1,5.23-1.79,8.37-3.19,10.08-.48.59-.58,1.38-.24,2.07.33.68,1.03,1.12,1.77,1.12h0c.57,0,1.1-.26,1.47-.71,2.58-3.15,3.97-7.36,4.12-12.49.16-5.33-1.24-9.25-4.15-11.66h0Z"/>
      <path class="st2" d="M47.58,102.87c-2.04,3.61-1.73,8.06.79,11.33.38.49.96.78,1.59.78h0c.23,0,.45-.04.66-.11.04.98.07,1.95.11,2.9.04,1.05.07,2.11.11,3.16.06,1.52.22,2.86.49,4.1.31,1.42,1.11,2.33,2.43,2.8,1,.35,2.08.36,2.95.36h.64c.68,0,1.36,0,2.04-.02h1.34l4.44-.03h2.23c.93,0,1.65-.05,2.31-.15,1.38-.21,2.4-1.25,2.8-2.85.26-1.04.33-2.1.39-3.12.03-.42.05-.82.09-1.21l.61-6.29c.09.01.18.02.27.02h0c.63,0,1.21-.28,1.59-.78,2.52-3.27,2.83-7.71.79-11.33-.3-.53-.8-.87-1.38-.96l.33-3.38c.05-.47.11-.95.18-1.46.21-1.57.43-3.2.15-4.82-.36-2.07-2.04-2.87-3.4-3.16,0-1.49,0-2.97-.04-4.44-.02-1.05-.88-1.88-1.95-1.89-.16,0-.36-.01-.57-.03-.27-.02-.58-.04-.89-.04-.44,0-.82.04-1.16.14-.4.11-1.45.39-1.71,2.22-.17,1.18-.29,2.41-.36,3.68-1.83-.05-3.66-.08-5.45-.11-.96-.02-1.92-.03-2.87-.05h-.33c-1.87,0-3.38.33-4.63,1-1.69.91-2.49,2.59-2.4,4.98l.34,7.92c-.26-.11-.53-.18-.82-.18-.71,0-1.33.37-1.68.98l-.03.03h0ZM50.41,109.62c-.25-.93-.29-1.9-.12-2.85l.12,2.85Z"/>
      <path class="st2" d="M42.31,108.7c.27,3.38,1.66,6.76,3.79,9.27.37.43.9.68,1.46.68h0c.75,0,1.45-.44,1.78-1.13.33-.69.23-1.48-.27-2.07-3.83-4.51-3.55-10.8-.89-13.85.51-.58.62-1.38.29-2.07-.33-.7-1.03-1.15-1.79-1.15-.55,0-1.08.24-1.45.66-2.19,2.51-3.23,5.93-2.93,9.65h.01Z"/>
      <path class="st2" d="M41.66,120.02c.37.45.9.71,1.47.71h0c.74,0,1.43-.44,1.77-1.12s.24-1.48-.24-2.07c-1.99-2.43-3.07-5.83-3.19-10.09-.13-4.18.8-7.02,2.82-8.69.62-.51.84-1.32.57-2.06-.29-.77-1.05-1.29-1.89-1.29-.46,0-.92.16-1.28.46-2.9,2.4-4.26,6.21-4.15,11.65.1,5,1.52,9.33,4.12,12.5Z"/>
      <g>
        <path d="M52.17,94.08c-.05-1.29.14-2.3,1.36-2.96.97-.53,2.21-.57,3.3-.58,2.97-.03,5.95.15,8.92.22,1.47.04,2.94.07,4.4.11.63.02,1.24.03,1.85.19.92.24,1.17,1.09,1.2,1.91.05,1.29-.21,2.64-.33,3.93-.15,1.56-.3,3.13-.45,4.69-.58,6.01-1.16,12.02-1.75,18.03-.14,1.44-.28,2.88-.42,4.33-.07.74-.18,1.49-1.01,1.74-.77.22-1.81.06-2.6.06-3.01.02-6.01.03-9.02.06-.97,0-1.95.03-2.9-.18-1.39-.31-1.3-2.62-1.38-3.72-.24-3.03-.23-6.1-.36-9.14-.27-6.23-.53-12.45-.8-18.68-.03-.59-.96-.59-.94,0,.26,5.99.51,11.97.77,17.96.13,2.94.22,5.89.33,8.83.05,1.29.18,2.58.46,3.85.19.88.61,1.43,1.47,1.73.8.28,1.75.27,2.59.28,1.29,0,2.57-.02,3.86-.03,1.48,0,2.96-.02,4.44-.03,1.42,0,2.92.11,4.33-.1.91-.14,1.38-.96,1.58-1.75.33-1.31.31-2.77.44-4.11.29-3.01.58-6.01.87-9.02.44-4.57.88-9.14,1.33-13.7.18-1.9.67-4,.34-5.9-.27-1.59-1.83-2.04-3.25-2.11-4.56-.23-9.15-.26-13.72-.35-1.43-.03-2.93.13-4.21.81-1.4.76-1.68,2.19-1.63,3.64.02.59.96.59.94,0h-.01Z"/>
        <path d="M67.79,90.32c.02-1.31.1-2.62.23-3.93.02-.19.18-1.66.17-1.66.64-.04,1.29,0,1.93.01l-.47-.46c.05,1.95.06,3.9.03,5.86,0,.59.93.59.94,0,.02-1.95.01-3.9-.03-5.86,0-.25-.21-.46-.47-.46-.68,0-1.56-.16-2.22.01-.51.14-.57.56-.63,1.01-.26,1.82-.39,3.64-.42,5.48,0,.59.93.59.94,0h0Z"/>
        <path d="M67.72,87.02h2.15c.6,0,.6-.92,0-.92h-2.15c-.6,0-.6.92,0,.92h0Z"/>
        <path d="M53.78,93.77c-.13,3.01-.09,6.02.13,9.03.1,1.35.22,2.71.41,4.06.19,1.29.97,1.48,2.17,1.66,2.91.43,5.85.71,8.79.86,1.21.06,2.6.28,3.79,0,1.05-.24,1.19-1.59,1.36-2.41.59-2.82,1.01-5.68,1.3-8.54.13-1.27.35-2.61.22-3.88-.1-.96-.62-1.47-1.58-1.58-3.01-.34-6.09-.39-9.12-.55-1.46-.08-2.92-.15-4.38-.21-1.07-.05-2.05.09-2.76.94-.31.38-.42.81-.49,1.28-.08.58.86.58.94,0,.21-1.53,1.88-1.32,3.04-1.27,1.22.05,2.43.11,3.65.18,2.43.13,4.86.27,7.3.43.61.04,1.22.08,1.82.12.77.05.68.92.68,1.45-.02,1.15-.17,2.31-.29,3.45-.25,2.43-.63,4.85-1.09,7.25-.11.54-.22,1.09-.34,1.63-.18.8-.77.9-1.51.89-1.21-.03-2.42-.08-3.62-.16-2.49-.15-4.98-.42-7.45-.77-.89-.13-1.41-.23-1.54-1.26-.07-.59-.14-1.19-.2-1.78-.12-1.2-.2-2.39-.27-3.59-.13-2.41-.12-4.82-.02-7.23.03-.59-.91-.59-.94,0h0Z"/>
        <path d="M54.94,111.72c4.65-.01,9.29.17,13.93.55-.16-.15-.31-.31-.47-.46-.08,1.65-.2,3.3-.35,4.94-.08.82-.16,1.64-.26,2.46-.05.47-.11.94-.17,1.41-.06.49.09,1.3-.52,1.34-3.7.25-7.41.51-11.11.76.16.15.31.31.47.46-.05-3.92-.37-7.82-.94-11.69-.09-.58-.99-.33-.9.24.55,3.79.85,7.62.9,11.45,0,.24.21.48.47.46,2.1-.14,4.2-.29,6.29-.43.99-.07,1.97-.14,2.96-.2l1.48-.1c.33-.02.85.03,1.16-.14.53-.3.5-.9.58-1.44.14-1.05.27-2.11.38-3.16.23-2.11.39-4.23.5-6.35.01-.26-.22-.44-.47-.46-4.63-.38-9.28-.56-13.93-.55-.6,0-.6.92,0,.92h0Z"/>
        <path d="M55.56,115.88c4.31-.12,8.61-.01,12.91.31.6.04.6-.87,0-.92-4.3-.32-8.6-.42-12.91-.31-.6.02-.6.93,0,.92h0Z"/>
        <path d="M56,120.17c3.98-.29,7.98-.45,11.97-.47.6,0,.6-.92,0-.92-4,.02-7.99.18-11.97.47-.6.04-.6.96,0,.92h0Z"/>
        <path d="M65.06,111.7c-.57,3.55-.9,7.13-.97,10.73-.01.59.92.59.94,0,.07-3.51.38-7.01.94-10.48.09-.58-.81-.83-.9-.24h-.01Z"/>
        <path d="M59.58,111.56c.08,3.6.16,7.2.24,10.8,0,.59.95.59.94,0-.08-3.6-.16-7.2-.24-10.8,0-.59-.95-.59-.94,0h0Z"/>
        <path d="M74.13,103.64c1.58,2.8,1.29,6.27-.67,8.81-.36.47.45.93.81.46,2.16-2.8,2.4-6.67.67-9.74-.29-.52-1.1-.06-.81.46h0Z"/>
        <path d="M76.8,100.24c3.79,4.33,2.66,11.58-.88,15.74-.38.45.28,1.1.66.65,3.88-4.57,5.02-12.29.88-17.03-.39-.45-1.05.2-.66.65h0Z"/>
        <path d="M80.51,97.23c2.91,2.41,3.42,6.33,3.35,9.85-.08,3.87-1,7.89-3.52,10.97-.37.46.28,1.11.66.65,2.7-3.3,3.67-7.46,3.8-11.61.11-3.73-.55-7.96-3.62-10.5-.46-.38-1.12.27-.66.65h-.01Z"/>
        <path d="M48.89,103.58c-1.73,3.06-1.48,6.94.67,9.74.36.47,1.17,0,.81-.46-1.96-2.54-2.25-6.01-.67-8.81.29-.52-.52-.98-.81-.46h0Z"/>
        <path d="M46.37,100c-4.14,4.74-3.01,12.46.88,17.03.39.45,1.04-.2.66-.65-3.53-4.16-4.66-11.4-.88-15.74.39-.45-.27-1.1-.66-.65h0Z"/>
        <path d="M42.66,96.98c-3.09,2.56-3.7,6.75-3.62,10.5.08,4.14,1.11,8.34,3.8,11.61.38.46,1.03-.19.66-.65-2.54-3.1-3.4-7.08-3.52-10.97-.11-3.51.46-7.46,3.35-9.85.46-.38-.2-1.03-.66-.65h0Z"/>
        <path d="M56.15,106.6c-.31-2.62-.51-5.24-.59-7.87-.04-1.21-.36-2.96.18-4.08.57-1.18,4.01-.44,4.97-.31.29.04.42-.4.12-.44-1.35-.19-2.83-.46-4.19-.22-1.23.22-1.57,1.03-1.59,2.17-.05,3.58.22,7.19.64,10.74.03.29.5.29.47,0h-.01Z"/>
        <path d="M61.84,94.4c3.19.29,6.39.54,9.59.76.3.02.3-.44,0-.46-3.2-.22-6.4-.47-9.59-.76-.3-.03-.3.43,0,.46h0Z"/>
        <path d="M68.37,101.48c.12,2.15-1.33,3.73-2.87,5.06-.23.2.11.52.33.32,1.63-1.41,3.14-3.12,3.01-5.38-.02-.29-.48-.3-.47,0h0Z"/>
        <path d="M55.81,93.12c.26.26.52.53.78.79.21.21.54-.11.33-.32-.26-.26-.52-.53-.78-.79-.21-.21-.54.11-.33.32h0Z"/>
        <path d="M56.76,93.17c.19.2.38.4.57.6.21.22.54-.11.33-.32-.19-.2-.38-.4-.57-.6-.21-.22-.54.11-.33.32h0Z"/>
        <path d="M57.56,93.17c.25.27.49.6.81.79.26.15.5-.25.24-.4-.12-.07-.21-.18-.31-.28-.13-.15-.27-.29-.4-.44-.2-.22-.53.11-.33.32h0Z"/>
        <path d="M58.58,93.35c.11,0,.26.21.34.28.14.13.28.26.41.4.22.21.55-.12.33-.32-.17-.17-.34-.33-.52-.5-.17-.16-.32-.31-.57-.32-.3,0-.3.45,0,.46h0Z"/>
        <path d="M61.91,93.28c.13.17.27.34.4.5.08.1.25.08.33,0,.1-.1.08-.23,0-.32-.13-.17-.27-.34-.4-.5-.08-.1-.25-.08-.33,0-.1.1-.08.23,0,.32h0Z"/>
        <path d="M62.75,93.37c.27.35.52.7.77,1.06.17.24.57.02.4-.23-.25-.36-.5-.71-.77-1.06-.18-.23-.59,0-.4.23h0Z"/>
        <path d="M63.82,93.36c.35.29.58.69.87,1.04.19.23.52-.1.33-.32-.29-.35-.52-.75-.87-1.04-.23-.19-.56.13-.33.32h0Z"/>
        <path d="M65.09,93.55c.26.32.51.68.81.97.22.21.55-.12.33-.32-.3-.29-.55-.65-.81-.97-.19-.23-.52.1-.33.32h0Z"/>
        <path d="M66.44,93.63c.15.15.28.31.4.49.12.19.2.39.36.55.21.21.54-.11.33-.32-.14-.14-.22-.35-.33-.51-.12-.19-.27-.36-.43-.52-.21-.21-.54.11-.33.32h0Z"/>
        <path d="M67.56,93.74c.16.11.28.35.39.51.13.18.25.36.37.55.16.25.56.02.4-.23-.15-.23-.3-.46-.46-.68-.14-.19-.27-.41-.46-.54-.25-.17-.48.23-.24.4h0Z"/>
        <path d="M68.72,93.63c.33.41.69.81,1.06,1.19.21.21.54-.11.33-.32-.37-.38-.72-.78-1.06-1.19-.19-.23-.52.09-.33.32h0Z"/>
        <path d="M70.07,93.8c.26.2.57.42.68.74.1.28.55.16.45-.12-.15-.41-.46-.68-.8-.94-.1-.08-.23-.1-.33,0-.08.08-.1.25,0,.32h0Z"/>
        <path d="M54.07,97.75c.12.27.3.52.52.72.22.2.55-.12.33-.32-.2-.18-.34-.39-.45-.63-.05-.11-.22-.14-.32-.08-.12.07-.13.2-.08.31h0Z"/>
        <path d="M54.11,99.39c.32.37.65.73.99,1.09.21.22.54-.11.33-.32-.34-.35-.67-.72-.99-1.09-.2-.23-.52.1-.33.32h0Z"/>
        <path d="M54.35,101.38c.33.2.56.56.8.85.19.23.52-.1.33-.32-.27-.33-.53-.69-.9-.92-.26-.16-.49.24-.24.4h.01Z"/>
        <path d="M54.49,102.81c.29.12.55.37.73.61.08.1.2.15.32.08.1-.06.16-.21.08-.31-.23-.31-.54-.62-.9-.78-.12-.05-.25-.04-.32.08-.06.1-.03.26.08.31h0Z"/>
        <path d="M67.68,85.33c.76-.04,1.51-.02,2.27.05.3.03.3-.43,0-.46-.76-.07-1.51-.09-2.27-.05-.3.01-.3.47,0,.46h0Z"/>
        <path d="M67.85,86.06c.73-.05,1.46-.03,2.18.07.29.04.42-.4.12-.44-.77-.1-1.53-.14-2.31-.09-.3.02-.3.48,0,.46h0Z"/>
        <path d="M67.54,87.63h.7c.3,0,.3-.46,0-.46h-.7c-.3,0-.3.46,0,.46h0Z"/>
        <path d="M67.45,88.18c.44,0,.87,0,1.31.03.3.01.3-.44,0-.46-.44-.02-.87-.03-1.31-.03-.3,0-.3.46,0,.46h0Z"/>
        <path d="M67.46,88.74c.59.09,1.19.15,1.79.2.3.02.3-.43,0-.46-.56-.04-1.11-.1-1.67-.19-.29-.04-.42.4-.12.44h0Z"/>
        <path d="M67.59,89.59c.79.03,1.57.12,2.34.26.29.05.42-.39.12-.44-.82-.15-1.64-.24-2.47-.27-.3-.01-.3.45,0,.46h.01Z"/>
        <path d="M67.98,84.61c-.15.2-.25.41-.32.65-.04.15.12.35.29.28.4-.16.75-.36,1.08-.63-.12-.02-.24-.03-.37-.05,0,.01.02.02.02.04v-.23c-.08.16-.29.3-.41.42-.14.14-.28.27-.42.41-.14.14-.04.4.17.39.29,0,.5-.18.74-.32.3-.18.59-.35.89-.53-.09-.12-.19-.24-.28-.36-.39.43-.75.88-1.08,1.36-.1.14.03.36.2.34.25-.02.4-.15.6-.29.26-.19.53-.38.79-.57-.11-.03-.21-.05-.32-.08,0,0-.27.54-.3.61-.12.27.28.5.4.23.13-.28.5-.77.3-1.07-.06-.1-.21-.16-.32-.08-.19.14-.38.27-.56.41-.15.11-.4.38-.59.4.07.11.13.23.2.34.31-.44.64-.86,1-1.27.17-.19-.05-.5-.28-.36-.21.13-.42.25-.64.38-.2.12-.52.4-.76.41.06.13.11.26.17.39.24-.24.49-.48.73-.72.14-.14.27-.28.15-.47-.08-.13-.25-.14-.37-.05-.26.22-.55.39-.87.52l.29.28c.06-.2.15-.37.27-.54.18-.24-.23-.47-.4-.23h0Z"/>
        <path d="M64.69,92.17c.6,0,.6-.92,0-.92s-.6.92,0,.92h0Z"/>
        <path d="M62.85,91.96c.6,0,.6-.92,0-.92s-.6.92,0,.92h0Z"/>
        <path d="M60.73,91.84c.6,0,.6-.92,0-.92s-.6.92,0,.92h0Z"/>
        <path d="M56.24,109.5c1.3.09,2.6.23,3.89.44.29.05.42-.39.12-.44-1.33-.21-2.67-.36-4.02-.45-.3-.02-.3.44,0,.46h.01Z"/>
        <path d="M61.38,110.01c.26,0,.52.02.78.06.29.05.42-.39.12-.44s-.6-.08-.9-.08-.3.46,0,.46h0Z"/>
        <path d="M67.56,110.62c.68,0,1.51.15,2.13-.19.58-.31.95-.94,1.13-1.54.09-.28-.36-.4-.45-.12-.16.52-.46.95-.92,1.26-.43.3-1.38.13-1.89.13-.3,0-.3.46,0,.46h0Z"/>
        <path d="M68.96,120.37c-.06.62-.11,1.25-.2,1.88-.14.99-1.05,1.24-1.91,1.42-.3.06-.17.5.12.44.79-.16,1.48-.37,1.97-1.02.5-.67.4-1.94.47-2.72.03-.29-.44-.29-.47,0h.02Z"/>
        <path d="M56.24,112.39c.61-.01,1.23,0,1.84,0,.3,0,.3-.45,0-.46-.61-.02-1.23-.02-1.84,0-.3,0-.3.46,0,.46h0Z"/>
        <path d="M61.1,112.56c.61.02,1.23.06,1.84.11.3.02.3-.43,0-.46-.61-.05-1.22-.09-1.84-.11-.3-.01-.3.45,0,.46h0Z"/>
        <path d="M66.31,112.79c.35-.01.71,0,1.06.06.29.04.42-.4.12-.44-.39-.06-.79-.09-1.18-.07-.3.01-.3.47,0,.46h0Z"/>
        <path d="M66.5,115.72c.3,0,.3-.46,0-.46s-.3.46,0,.46h0Z"/>
        <path d="M66,116.76c.31-.04.61-.02.91.06.29.07.42-.37.12-.44-.38-.1-.77-.11-1.16-.06-.3.04-.17.48.12.44h0Z"/>
        <path d="M61.01,116.56l1.22.03c.3,0,.3-.45,0-.46-.41,0-.81-.02-1.22-.03-.3,0-.3.45,0,.46h0Z"/>
        <path d="M56.61,116.57h1.28c.3,0,.3-.46,0-.46h-1.28c-.3,0-.3.46,0,.46h0Z"/>
        <path d="M56.86,120.81h1.28c.3,0,.3-.46,0-.46h-1.28c-.3,0-.3.46,0,.46h0Z"/>
        <path d="M61.26,120.59c.43,0,.85.02,1.28.03.3,0,.3-.45,0-.46-.43,0-.85-.02-1.28-.03-.3,0-.3.45,0,.46h0Z"/>
        <path d="M65.56,120.39h1.06c.3,0,.3-.46,0-.46h-1.06c-.3,0-.3.46,0,.46h0Z"/>
        <path d="M53.09,122.92h.62c.3,0,.3-.46,0-.46h-.62c-.3,0-.3.46,0,.46h0Z"/>
        <path d="M53.18,123.53c.32.01.64,0,.97-.03.3-.03.3-.49,0-.46-.32.03-.64.04-.97.03-.3-.01-.3.44,0,.46h0Z"/>
        <path d="M53.12,124.22c.52.03,1.04.04,1.56.03.3,0,.3-.46,0-.46-.52,0-1.04,0-1.56-.03-.3-.02-.3.44,0,.46h0Z"/>
        <path d="M53.34,124.89c.85.06,1.69.01,2.53-.14.3-.05.17-.5-.12-.44-.8.15-1.59.19-2.4.13-.3-.02-.3.44,0,.46h0Z"/>
        <path d="M53.78,125.58c1.1.12,2.2.12,3.31,0,.3-.03.3-.49,0-.46-1.1.12-2.2.13-3.31,0-.3-.03-.3.42,0,.46h0Z"/>
      </g>
    </g>
  </g>
  <g class="st3">
    <g class="st3">
      <text class="st1" transform="translate(92.45 107.72) scale(1.02 1)"><tspan x="0" y="0">Insert Your Mobile Number</tspan></text>
    </g>
  </g>
</svg>