<?xml version="1.0" encoding="UTF-8"?>
<svg id="Layer_1" xmlns="http://www.w3.org/2000/svg" version="1.1" viewBox="0 0 699.08 194.23">
  <!-- Generator: Adobe Illustrator 29.7.1, SVG Export Plug-In . SVG Version: 2.1.1 Build 8)  -->
  <defs>
    <style>
      .st0 {
        fill: #fae1de;
      }

      .st1 {
        fill: #f9ddd9;
      }

      .st2 {
        fill: #007db5;
        stroke: #020202;
        stroke-miterlimit: 10;
        stroke-width: 16.87px;
      }

      .st3 {
        fill: #f2e1de;
      }
    </style>
  </defs>
  <g>
    <path class="st2" d="M394.1,61.64h-.01s-44.55-48.92-44.55-48.92l-44.55,48.92H39c-16.65,0-30.14,13.21-30.14,29.5v65.87c0,16.29,13.49,29.5,30.14,29.5h621.09c16.65,0,30.14-13.21,30.14-29.5v-65.87c0-16.29-13.49-29.5-30.14-29.5h-265.99s0,0,0,0Z"/>
    <g>
      <path class="st0" d="M165.21,161.42h0l1.12.18-.51-.66c-.72-.07-.87.32-.61.49h0Z"/>
      <path class="st0" d="M170.11,160.64c-1.24-.42-2.43-.4-3.37.11.39.42,1.25.1,1.51.27-.12-.25.42-.54,1.14-.46.91.76,1.11.49,1.95,1.13.55-.61-.43-1.17-1.28-1.49.05.12.32.29.05.44Z"/>
      <path class="st0" d="M240.09,159.25l.45-.08c-.17,0-.33.04-.45.08Z"/>
      <path class="st0" d="M283.72,158.67c.02.06.16.12.49.14.07-.06-.18-.1-.49-.14Z"/>
      <path class="st0" d="M291.23,158.12c.15,0,.28-.02.44-.04-.1-.05-.27-.02-.44.04Z"/>
      <path class="st0" d="M241.71,158.96l-1.17.21c.57-.05,1.25,0,1.17-.21Z"/>
      <path class="st0" d="M179.79,161.8h0s-.03-.06-.04-.1c-.21-.02-.4-.04-.6-.07.18.08.39.14.63.17h0Z"/>
      <path class="st0" d="M221.3,158.63h0l-.65-.27c.09.1.19.19.29.27h.35s0,0,0,0Z"/>
      <path class="st0" d="M206.52,158.52h0c-.11.17-.15.29-.15.4.29.05.54.16.73.39-.13-.24-.25-.8-.58-.78h0Z"/>
      <path class="st0" d="M182.67,159.44l.42.08c-.13-.03-.31-.06-.42-.08Z"/>
      <path class="st0" d="M232,158.31c-.05.04-.11.12-.13.2.08-.06.13-.13.13-.2Z"/>
      <path class="st0" d="M645.12,162.64v.1c.11,0,.09-.04,0-.1Z"/>
      <path class="st0" d="M661.95,159.6c0,.11.02.21.05.32l.24.03-.29-.35Z"/>
      <path class="st0" d="M305.26,157.36h.06c-.22-.05-.42-.06-.06,0Z"/>
      <path class="st0" d="M430.76,158.97c2.14-.55-1.59-.7-.17-1.2-1.77.32.37.98.17,1.2Z"/>
      <path class="st0" d="M180.77,161.73h-.61c.15.02.33.02.61,0Z"/>
      <path class="st0" d="M430.54,159.04l.22-.06h0c-.08.02-.13.04-.22.06Z"/>
      <path class="st0" d="M336.44,157.95c.13-.08.26-.15.32-.25-.24.12-.31.19-.32.25Z"/>
      <path class="st0" d="M313.92,158.42l-.58.08c.16,0,.35-.03.58-.08Z"/>
      <path class="st0" d="M348.92,158.5h0c.36-.09.56-.06.72.02.05-.02.09-.04.13-.07-.43-.08-.53,0-.85.04h0Z"/>
      <path class="st0" d="M360.95,158.57c.13,0,.27.03.4.03.07-.03.16-.07.23-.11l-.63.08Z"/>
      <path class="st0" d="M607.22,161.96c-.13.18-.3.35-.58.51,2.24.03.38-.11.58-.51Z"/>
      <path class="st0" d="M179.74,161.69c.14,0,.27.03.42.03-.2-.03-.31-.1-.38-.24-.08.05-.08.13-.04.21Z"/>
      <path class="st0" d="M351.45,162.84l-2.01.08c.72,0,1.45-.03,2.01-.08Z"/>
      <path class="st0" d="M516.29,162.46l-.46-.07c.12.07.28.07.46.07Z"/>
      <path class="st0" d="M357.41,162.92h0l1.37-.24c-.05-.07-.15-.11-.23-.15-.39.08-.77.19-1.13.39h0Z"/>
      <path class="st0" d="M607.23,161.96h0Z"/>
      <path class="st0" d="M620.48,163.3h0l.12-.17s-1.68-.35-.78-.65c1.88.3.61-.14,2.32-.62.98.6,1.87-.21,2.08.77.61-.65.45-.41,1.63-.88-.53.53,2.24.52,2.16,1.16.49-.73-2-.89-.45-1.65,1.06.49,3.03.67,3.19,1.45.81-.18,1.18-.46,2.44-.54-.2.05-.44-.1-.57-.18,2.24.53,5.55,0,6.82.95-.46-1.13,4.76-.13,3.05-1.19.93.04,2.41.52,2.73.73-.1-.89,2.32-.23,3.34-.75.53.5,2.21.33,3.23.62-.46-.11-.7-.26-.54-.5,1.15.36.86,0,1.84-.41,1.55.27-.29.68.65,1.09,1.35-.2.21-.56.45-.92l2,.89c.41-.09.7-.26.86-.5.69.26,1.31.63,2.28.21l-1.72-.03.66-.45,2.04.57c2.92-.66,2.01-1.61,1.79-2.54l-1.19-.16c.03-.31.85-.49,1.38-.51.49-.21-1.92-1.01-3.22-1.13-3.51.07-.73,1.09-3.13,1.32l-3.1-.54-.04.32c-.5.21-.78-.14-.91-.21.21.47-2.53.15-3.79.23l.45-.41c-3.52-.96-5.55,1.03-8.33.52l-1.96-.7-.41.6c-1.15-.36-1.35-.83-3.23-.62-6.6,1.06-13.7-.24-20.39.43.08-.12.28-.17.69-.26-5.87,1.51-9.19-1.55-14.48-.37l.36.23c-2.69-.12.37.23-1.59.56-.37-.73-3.42-.57-4.97-.84.25.15.78.13,1.23.24-.29.17-.4.61-1.18.47-1.72-1.05-5.43-.94-8.16-1.26-.33.48-2.69.91-3.92,1.69-.28-.18-.79-.55-1.25-.91-.99.32-1.73.08-2.44-.21.88,0,1.64.02,2.23.04-.02-.02-.04-.03-.06-.05.09.04.25.04.38.06.59.02.9.05.76.09,1.1-.47-.07-.38,0-.94-.89.02-2.74-.17-2.95.25-.54,0-.89.07-1.45.15-.34-.08-.71-.13-1.11-.08l.18.06c-.06.08-.15.13-.23.18-1.75.24-4.22-.6-5.66-.99,1.43.71-.37.8-.37,1.31-.17-.04,1.62-.08,3.84-.08-.15.05-.28.15-.32.33-1.92.55-3.28-.48-6.08-.1.18.06.54.18.41.37-.99.15-1.9-.26-2.13-.57-.25.5-2.37.86-3.42.64-.92-.41-.79-.6-2.46-.56l.73.36c-1.97.3-1.61-.52-3.24-.23.65-.15.71.23.22.3-2.06-.19-2.11-.39-3.58-1.1l.27.56c-1.75-.33-5.05-1.02-5.09-.26.55-1.16-3.82-.61-5.34-.59.52.03.62.28.67.4-3.2-.77-6.47-.04-9.71-.04l-.51.85c-1.71-.04-2.2-1.71-4.05-1.67l.67.4c-3.29-.14-4.62-.06-7.28.08l.05.57c-.95-.27-2.14-.27-3.1-.53-2.17,1.37-8.61-.73-12.59.81l-.25-1.06c-1.52.02-3.47-.19-4.18.6l.34-.02c.15.81-1.52.02-2.47.2-.72-.08-1.44-.61-.82-.77-4.04.54-10.04-.02-12.55.94-4.04-.35-7.1-1.19-11.47-1.08l.05.12c-1.47.14-4.42.43-4.42,1.31-3.15-.2-5.16-1.41-8.91-1.02l.81.34c-.95.17-2.48-.25-2.86-.35-.33.02-.09.2-.04.32-.9.3-1.43-.17-2.15-.26l.29.3c-2.99.61-7.71-.59-11.56-.44.71.08.33.42.05.56-1.58-.97-5.91-.74-7.52-.97l.99.38c-3.14-.65-2.72,1.03-5.83.38l1.79-.56c-1.27.17-2.34-.02-2.04-.46-1.48.32-.18.75-2.41.84-.1.27,1.6.18.87.54l-3.08.73c-.09.08-.48.1-1.5.02.27-1.23-2.56-.07-1.01-1.26-4.37-.09-8.06.72-11.81.15-1.53,1.18-7.44.04-7.06,1.57-2.12.02-3.83-.29-5.14-.91.42-.12.96.07,1.39.15-.55-.39-3.11-.45-4.17-.45,1.4.35,3.65.64,4.74,1.23-1.92-.15-4.61-.72-5.68-.91l-.49.79c-1.63-.58-1.36.64-2.99-.14l.31-.24c-2.97.06-3.01-.73-5.78-.83l.12.31c-.95.12-2.36-.61-3.29.1l1.81.03c-.19.55-1.57.79-2.19,1.07-1.91-.14-.67-.9-1.63-.97-.4.52-.1.28.57.79-2.14-.19-5.02-.41-6.54-1.07-.1.09.01.2.01.2-2.23.09-4.19-.84-5.55-.4l.43.08c-1.78.76-4.61-.72-4.98.58-.85.24,1.91-.05.56.59-2.65.41-1.75-1.09-4.08-.72.32-.04.21.04.32.16-1.68-.03-3.92-.16-5.78-.29-2.28,1.06-6.99-.26-9.61.97.84-.43-.66-.51-.66-.7,0,0,.1.11,0,.19-.95.04-1.07-.38-1.43-.55-.78.37-2.64-.41-3.14-.16-.01-.28-.78-.2-1.63-.2,1.71.31.55.59,1.32,1.02-2.55.13-2.93-1.2-5.58-.99l-1.47.52c-.3-.79-2.76-.47-2.7-.76-.45.24-1.12.38-1.02.78-1.06-.19-2.65.21-3.09-.26l1.06-.21c-3.28.3-5.25-.84-7.78-.31l.05,1.18c-1.68.49-3.11-.65-4.57.07.51-.4.62-.28-.46-.67.63-.08,1.82.22,2.88.22l-2.26-.69,3.53.34c-1.51-.47-1.4-.35-.78-.83-2.14-.38-2.31.57-4.35.11-.74.16.02.59-.82.83-1.82-.42-3.46.85-4.77.23-.42.12.75.03.65.31-1.17-.11-2.02-.07-2.36-.42l1.01-.13c-.89.04-1.03-.45-2.72-.17-.98-.27-1.53-.86-.47-.86-.43-.07-1.37.25-1.04.6-2.63.01-1.26-1.26-3.8-.7.17.04.36.1.26.17-.64.07-1.17.08-1.6,0,2.24.1-.7.94,1.95.73-.29.63-2.02.13-2.86.37-1.29-.42-.14-.9-.79-1.21.01.2-.53.2-1.16.28l.62-.47c-.54,0-1.07,0-1.71-.11l1.08.19c-1.17.08-2.94.84-4.99.38.54.19,1.62.58.25.82-2.24-.3-.52.2-1.79.56-2.23-.1-.39-.84-3.68-.55-.36,0-.03-.28.33-.41-2.24.24-3.47-.1-5.65.24.95-.12,1.68-.28.4-.51.55.39-1.79.37-2.63.61l-.22-.24c-.67.26.05.36.6.45-.01-.08.18-.16.59-.14,1.07.19.68,1.1-1.02,1.19-1.82-.22-1.52-.85-1.21-1.09-2.44.25-2.28-1.09-4.61-.72-.53.01-2.3.96-4,1.05-.88-.54,2.11-.4,1.13-.87-2.81,1.36-5.78-.83-9.47-.02l.46.67c-.85.03-1.7.07-2.66,0l1.26-.36c-.86-.15-2.88-.02-2.22.49-1.94-.54-2.35-.22-4.15-.05,1.91-.06.03-.09,1.43.25-2.01.33-2.16.11-3.55-.04.23.24-.5.6-1.04.6-1.3-.43-3.53-.33-5.34-.56v.2c-3.05-.25-6.35.67-9.42.08h0s-.15-.03-.15-.03l.24-.04c1.05-.63-2.38-.44-3.32-.7-.2.16-.3.44-.83.44-.03-.58-1.18-.31-1.62-.58-1.05.2.14.71-1.67.68-.7-.05-.78-.36-.7-.58-.38.3-1.53.53-2.49.6.32.16.84-.04,1.06,0,.12.32-.53.2-.51.6-.85.04-.34-.55-1.4-.35l.98.47c-.43.12-.97-.07-1.18-.11.64.11.55.58.46.86-2.46-.34-.48-1.26-.61-1.77-2.33.37-4.16-.25-5.97-.28l.34.55c-.89-.09-1.31-.21-1.63-.45h-1.36c.78.2,1.04.37,1.1.81-1.44-.15-3.43-.02-3.8-.75l.06.12c-1.93.26-5.95.42-5.82.66-2.07-.25-4.69.18-4.75-.55-1.23-.17-3.2.94-4.08.03-1.46.49-.08.2.37.74-1.47.48-2.95-.75-3.44.3-1.71-.32.39-.22-.18-.68-.36.97-3.17.15-4.77.71-.72-.39.73-.24-.51-.66.12.24-.54.29-.87.31l-.32-.61-1.63,1.51c-2.42-.72.49-1.05-2.73-1.33l.19.05c-.88.62-2.3-.48-4.62,0,.8-.12.33.3.58.47l-1.29-.25c.12.03.18.07.05.14-1.14.46-.99-.25-2.31.16.91.13.63.59.23.81l-1.89-.69.77.83c-1.85.06-4.59-1.26-5.53-.12l.92.12c-.07.19-.62.8-1.86.38-.39-.1-.65-.59-.12-.56l-.93.19c.45.54,2.75.7,4.2.85-.45-.22-1.57-.4-1.23-.74,1.29.18,2.52.54,3.76.72-.5-.21-.81-.56-1.05-.78,1.39-.29,1.04.37,2.1.42.41-.22.68-.36.41-.53,1.31.23,2.36.29,3.76,0,0,0-1.58-.4-.71-.71,2.57.33,3.08.98,5.84,1.36,3.2.92,6.21-.56,8.44.11.12.24-1.67.43-.22.58-.25-.49.87-.31.94-.51,1.56.72,2.31-.16,3.42.33-.26-.17.65-.36,1.25-.53-.17-.61,1.74-.25-.55-1.11,2.35.92,4.16-.22,5.91,1.17l-.6.17,2.36-.27h-.1c1.03-.1,1.18.06,2.56-.57-.59-.15-1.45-.15-2.04-.3,1.27-.53,2.62.45,4.02.48-.06-.44-1.45-.16-1.04-.69.99-.06,1.84.26,2.76.38l-.13-.24c2.46-.55.96,1.2,2.76.38-.06.14.17.3.06.44.67-.26,2.23-.69.68-1,.86,0,1.83.22,2.27.49-.73.36-.91.18-1.18.64l3.45.25c.38,0-.29-.24-.77-.24,4.05-1.29,8.19,1.09,12.76-.46-.52.39.33.35.77.62,1.48-.12,3.72-.02,5.09-.26l-.44-.27c3.52.33,5.95.76,8.28.59.11.12-.02-.39-.44-.47,1.72.5,3.78-1.08,4.25-.02l-.63.08c3.4-.18,7.16.58,10.67.72.82-.64-2.03-.07-1.31-.82,2.43-.25,4.9.28,7.55.07-.43-.07-.33-.15-.54-.19,2.64-.41-.29.63,1.93.54-.12-.31,0-.39.73-.55l.65.51c.11-.08.09-.47-.24-.63.98.67,3.94.22,4.72.84.2-.15-.36-.74-.05-.98,1.18-.19,1.99.06,2.78.3h0c.83-.45,2.86-.37,2.43-.45,2.12-.2.34.36,1.95.74l-1.69.28,2.99.14-1.19-.31c1.37-.24,2.78.29,4.38.29l-.73.36,1.82.22c.18-.75,2.33-.17,1.33-1.03,3.39-.37,5.56.6,8.65.66-.54,0-.33-.15-.44-.27,1.8-.16,2.88.22,3.96.61-.22-.23-.66-.31-.66-.51,2.13-.01,1.29.43,3.64.65-.65-.31-.45-.47.19-.55-.1.28.44.47.87.55-1.77-1.48,2.63-.6,1.52-1.78.12.32,3.77.96,2.72,1.56l-.64-.11c-.07.41.79.25,1.45.28-.34-.06-.71-.16-.71-.24,3.32.49,6.81.04,10.55.41-.32-.16-1.83-.43-.87-.55,3.71-.22,5.87.56,9.61.93.17-.95-4.05-.14-4.19-1.04,3.95.21,8.01.54,12.39,1.03,1.53-1.39,4.28.56,7-.52-.26.47,1.09.65,2.57.65-.5-.38,1.05-.39.62-.66,1.29.43,5.03.6,4.88-.3.34.88,2.78-.04,3.84.58,1.63-.33,3.49.18,5.54-.08-.72.55,2.04.26,2.79.49-.22-.03-.64-.11-.54-.19.61-.47,2.36.42,3.51.14.52-.2-.13-.51.72-.55.02.39,3.13.85,4.28.37-.54,0-.55-.2-.87-.35,5.45.68,11.26-.14,16.83.65l-.99-.66c3.47-.85,2.28,1.09,5.04.99,7.54-.32,15.37-1.27,22.73-.84.54.19-.31.23-.4.51.64-.09.82-.64,1.69-.29l-.19.36c3.36-.97,9.7.65,12.19-.86,3.22.57,5.48-.4,9.39.45,1.23-.32-1.44-.61.23-.7l3.62.56-.2-.05c3.49,1.06,9.23-1.2,13.61-.43l-.19-.05c-.1-.25.8-.54,1.51-.46.25.18-.23.27-.65.48,3.91.42,4.76.44,7.85.52-1.33-.37,1.24-.32,1.37-.83.81.33-.47.53,1.34.81,2.57.05,4.94-.39,7.08-.57.87.45,2,.33,2.06.89,2.9.03,4.52.25,8.09.25l.09-.19c.96.7,3.1-.35,3.76.05-.1-.24-.48-.35-.38-.54l1.62.23c-.77-.21-1.2-.87.13-.95,1.38.49-.39.34.29.74l.42-.65c1.05.08,1.34.81.06,1.01,3.57,0,7.09.31,10.27.2l-.34-.42c1.77.16,4.14.15,5.19-.22.05.12.48.35.2.49,2.09.58.22-.7,2.51-.07-.57-.16-1.28-.24-1.38-.49l4.29.52c.04-.31,2.65-1.02,4.46-.74.07.17-.45.41-.91.45l1.16.16.89-.74,1.68.65.03-.62c1.24.12,1.73.91,2.73.86,3.74-.39,2.98-.61,5.64-1.19.3,1.18,4.23-.05,4.91.8,3.55-.88,8.7-.35,13.36-.6l-.38-.1c1.99-.54,2.26.9,4.41.66l-.54-.17c2.76-.63,7.59-.06,10.21.44-.53-.17-.26-.55.58-.51.71.23-.69.82.79.6-.37-.11-.08-.38.26-.38l1.45.59c3.8-.41,8.28-.83,12.22-.49.73-.21.19-.42.02-.62,3.13.12,6.24.61,9.06.72l.29-.68c1.39,0,.86,1.05,2.66.44.4-.1-1.19-.05-1.68-.35,2.78-.51,1.64.67,4.29.59l-.69-.77c2.03-.45,2.32.41,3.06.86,2.85.91,2.03-1.48,5.91-.8.61.38-.21.56.41.94,2.74-.2,3.06.35,5.8.15,1.46-1.14-1.39,0,.2-1.07l-2.08.26c1.8-.6-1.63-.15-1.35-.83,1.35-.2,3.39.37,5.15.6,0-.51-2.04-.06-1.23-.75l.9.21c-.25-.15-.29-.33-.82-.33.33-.49,1.06-.02,1.92-.02.06.26.01.64-.27,1.01.03-.05.1-.11.23-.18,1.76.74,4.73.18,6.24.77-.25-.15-.04-.2.04-.32,1.07-.02,2.16.65,3.59.85.78-.38-.45-1.13,1.84-.92.41.43-.61,1.17,1.31,1.15h0ZM576.64,161.64c-.21,0-.53-.02-.92-.04h0c.46.02.73.04.92.04ZM571.96,161.6h0c.56-.17,1.45-.28,1.24-.41.38,0,.52.19.39.38-.6,0-1.17,0-1.63.02h0ZM579.91,157.7h0c.12.07.18.17.24.28-.02-.03-.05-.05-.07-.07-.43-.04-.76-.07-1.04-.07.09-.12.28-.23.88-.15h0Z"/>
      <path class="st0" d="M580.99,158.42h-.32c.06.06.14.12.21.18.12-.04.24-.08.36-.13-.12,0-.16-.04-.25-.04h0Z"/>
      <path class="st0" d="M240.01,159.26h0s-.04.04-.09.07c.04-.04.1-.07.17-.07h-.08s0,0,0,0Z"/>
      <polygon class="st0" points="520.35 162.65 520.02 162.52 520.02 162.66 520.35 162.65"/>
      <path class="st0" d="M219.02,161.33c.15-.04.27-.14.27-.14-.14.05-.26.1-.27.14Z"/>
      <path class="st0" d="M209.07,161.52l1.27-.2c-.32.03-.72.09-1.27.2Z"/>
      <path class="st0" d="M203.34,161.36h-.01c.02.07.04.14.13.24l-.12-.24Z"/>
      <path class="st0" d="M313.13,162.29c-.09-.03-.18-.03-.27-.03.47.1.89.14.27.03Z"/>
      <path class="st0" d="M281.36,161.21c-.36-.07-.7-.17-1.05-.27.02.32.47.31,1.05.27Z"/>
      <path class="st0" d="M349.44,162.93h-.22s.22,0,.22,0Z"/>
      <path class="st0" d="M281.36,161.2c.45.09.93.11,1.51,0-.48-.1-1.03-.04-1.51,0Z"/>
      <path class="st0" d="M173.64,161.85h0l-.37-.07s.04.09.04.09l.33-.02h0Z"/>
      <path class="st0" d="M172.9,161.71l.37.07c-.05-.07-.2-.07-.37-.07Z"/>
      <path class="st0" d="M172.9,161.72l-.77-.14c.17.16.5.14.77.14Z"/>
      <path class="st0" d="M182.85,161.79l-.1-.2c0,.09.04.16.1.2Z"/>
      <path class="st0" d="M185.52,161.65h-.01c-.62-.34-2.23.45-2.66.15l.09.16c.92.12,1.92-.26,2.58-.31h0Z"/>
      <path class="st0" d="M194.63,158.73c1.06.05.53.34.12.56l2.32-.16c-3.04.09.48-1.05-2.44-.4Z"/>
      <path class="st0" d="M204.21,158.38c.06.12-1.2.34.05.44.93-.19.74-.24-.05-.44Z"/>
      <path class="st0" d="M256.11,158.3l.13.51c-.13-.31.83-.44-.13-.51Z"/>
      <polygon class="st0" points="264.79 161.31 265.24 161.78 266.17 161.46 264.79 161.31"/>
      <polygon class="st0" points="273.22 157.93 271.62 157.74 272.04 157.81 273.22 157.93"/>
      <path class="st0" d="M359.04,158.63l.29-.63c-1.08-.19-.94.52-.29.63Z"/>
      <path class="st0" d="M399.13,158.43c-.65-.31-1.71-.11-2.12.21.43.08,1.27-.17,2.12-.21Z"/>
      <polygon class="st0" points="510.7 157.58 509.27 157.4 510.02 157.61 510.7 157.58"/>
    </g>
    <g>
      <path d="M619.2,100.85h0c-2.19,2.51-3.23,5.93-2.93,9.65.28,3.38,1.66,6.76,3.79,9.27.37.43.9.68,1.46.68h0c.75,0,1.45-.44,1.78-1.13s.23-1.48-.27-2.07c-3.83-4.51-3.55-10.8-.89-13.85.5-.58.62-1.38.29-2.07-.33-.7-1.03-1.15-1.79-1.15-.55,0-1.08.24-1.45.66h0Z"/>
      <path d="M615.64,97.67h0c-2.91,2.41-4.31,6.33-4.15,11.66.15,5.13,1.54,9.34,4.12,12.49.37.45.9.71,1.47.71h0c.74,0,1.44-.44,1.77-1.12.34-.69.24-1.48-.24-2.07-1.4-1.71-3.09-4.85-3.19-10.08-.08-4.28.81-7.05,2.82-8.71.62-.52.84-1.33.57-2.06-.29-.77-1.05-1.29-1.89-1.29-.47,0-.92.16-1.28.46h0Z"/>
      <path d="M650.2,105.06h0l-.03-.03c-.35-.61-.97-.98-1.68-.98-.29,0-.56.07-.82.18l.34-7.92c.09-2.39-.71-4.07-2.4-4.98-1.25-.67-2.76-1-4.63-1h-.33c-.95.02-1.91.03-2.87.05-1.79.03-3.62.06-5.45.11-.07-1.27-.19-2.5-.36-3.68-.26-1.83-1.31-2.11-1.71-2.22-.34-.1-.72-.14-1.16-.14-.31,0-.62.02-.89.04-.21.02-.41.03-.57.03-1.07.01-1.93.84-1.95,1.89-.04,1.47-.04,2.95-.04,4.44-1.36.29-3.04,1.09-3.4,3.16-.28,1.62-.06,3.25.15,4.82.07.51.13.99.18,1.46l.33,3.38c-.58.09-1.08.43-1.38.96-2.04,3.62-1.73,8.06.79,11.33.38.5.96.78,1.59.78h0c.09,0,.18,0,.27-.02l.61,6.29c.04.39.06.79.09,1.21.06,1.02.13,2.08.39,3.12.4,1.6,1.42,2.64,2.8,2.85.66.1,1.38.15,2.31.15h2.23s4.44.03,4.44.03h1.34c.68.02,1.36.02,2.04.02h.64c.87,0,1.95,0,2.95-.36,1.32-.47,2.12-1.38,2.43-2.8.27-1.24.43-2.58.49-4.1.03-1.05.07-2.11.11-3.16.04-.95.07-1.92.11-2.9.21.07.43.11.66.11h0c.63,0,1.21-.29,1.59-.78,2.52-3.27,2.83-7.72.79-11.33h0ZM647.49,108.97c.17.95.13,1.92-.12,2.85l.12-2.85Z"/>
      <path d="M655.47,110.88h0c.3-3.72-.74-7.14-2.93-9.65-.37-.42-.9-.66-1.45-.66-.76,0-1.46.45-1.79,1.15-.33.69-.22,1.49.29,2.07,2.66,3.05,2.94,9.34-.89,13.85-.5.59-.6,1.38-.27,2.07.33.69,1.03,1.13,1.78,1.13h0c.56,0,1.09-.25,1.46-.68,2.13-2.51,3.52-5.89,3.79-9.27h0Z"/>
      <path d="M660.24,109.71c.11-5.44-1.25-9.25-4.15-11.65-.36-.3-.82-.46-1.28-.46-.84,0-1.6.52-1.89,1.29-.27.74-.05,1.55.57,2.06,2.02,1.67,2.95,4.51,2.82,8.69-.12,4.26-1.2,7.66-3.19,10.09-.48.59-.58,1.39-.24,2.07s1.03,1.12,1.77,1.12h0c.57,0,1.1-.26,1.47-.71,2.6-3.17,4.02-7.5,4.12-12.5Z"/>
      <path class="st1" d="M620.51,98.65h0c-2.19,2.51-3.23,5.93-2.93,9.65.28,3.38,1.66,6.76,3.79,9.27.37.43.9.68,1.46.68h0c.75,0,1.45-.44,1.78-1.13s.23-1.48-.27-2.07c-3.83-4.51-3.55-10.8-.89-13.85.5-.58.62-1.38.29-2.07-.33-.7-1.03-1.15-1.79-1.15-.55,0-1.08.24-1.45.66h0Z"/>
      <path class="st1" d="M616.95,95.47h0c-2.91,2.41-4.31,6.33-4.15,11.66.15,5.13,1.54,9.34,4.12,12.49.37.45.9.71,1.47.71h0c.74,0,1.44-.44,1.77-1.12.34-.69.24-1.48-.24-2.07-1.4-1.71-3.09-4.85-3.19-10.08-.08-4.28.81-7.05,2.82-8.71.62-.52.84-1.33.57-2.06-.29-.77-1.05-1.29-1.89-1.29-.47,0-.92.16-1.28.46h0Z"/>
      <path class="st1" d="M651.51,102.86h0l-.03-.03c-.35-.61-.97-.98-1.68-.98-.29,0-.56.07-.82.18l.34-7.92c.09-2.39-.71-4.07-2.4-4.98-1.25-.67-2.76-1-4.63-1h-.33c-.95.02-1.91.03-2.87.05-1.79.03-3.62.06-5.45.11-.07-1.27-.19-2.5-.36-3.68-.26-1.83-1.31-2.11-1.71-2.22-.34-.1-.72-.14-1.16-.14-.31,0-.62.02-.89.04-.21.02-.41.03-.57.03-1.07.01-1.93.84-1.95,1.89-.04,1.47-.04,2.95-.04,4.44-1.36.29-3.04,1.09-3.4,3.16-.28,1.62-.06,3.25.15,4.82.07.51.13.99.18,1.46l.33,3.38c-.58.09-1.08.43-1.38.96-2.04,3.62-1.73,8.06.79,11.33.38.5.96.78,1.59.78h0c.09,0,.18,0,.27-.02l.61,6.29c.04.39.06.79.09,1.21.06,1.02.13,2.08.39,3.12.4,1.6,1.42,2.64,2.8,2.85.66.1,1.38.15,2.31.15h2.23s4.44.03,4.44.03h1.34c.68.02,1.36.02,2.04.02h.64c.87,0,1.95,0,2.95-.36,1.32-.47,2.12-1.38,2.43-2.8.27-1.24.43-2.58.49-4.1.04-1.05.07-2.11.11-3.16.04-.95.07-1.92.11-2.9.21.07.43.11.66.11h0c.63,0,1.21-.29,1.59-.78,2.52-3.27,2.83-7.72.79-11.33h0ZM648.8,106.77c.17.95.13,1.92-.12,2.85l.12-2.85Z"/>
      <path class="st1" d="M656.78,108.69h0c.3-3.72-.74-7.14-2.93-9.65-.37-.42-.9-.66-1.45-.66-.76,0-1.46.45-1.79,1.15-.33.69-.22,1.49.29,2.07,2.66,3.05,2.94,9.34-.89,13.85-.5.59-.6,1.38-.27,2.07.33.69,1.03,1.13,1.78,1.13h0c.56,0,1.09-.25,1.46-.68,2.13-2.51,3.52-5.89,3.79-9.27h0Z"/>
      <path class="st1" d="M661.55,107.52c.11-5.44-1.25-9.25-4.15-11.65-.36-.3-.82-.46-1.28-.46-.84,0-1.6.52-1.89,1.29-.27.74-.05,1.55.57,2.06,2.02,1.67,2.95,4.51,2.82,8.69-.12,4.26-1.2,7.66-3.19,10.09-.48.59-.58,1.39-.24,2.07s1.03,1.12,1.77,1.12h0c.57,0,1.1-.26,1.47-.71,2.6-3.17,4.02-7.5,4.12-12.5Z"/>
      <g>
        <path d="M646.92,94.09h0c-.02.59.92.59.94,0,.05-1.45-.23-2.88-1.63-3.64-1.28-.68-2.78-.84-4.21-.81-4.57.09-9.16.12-13.72.35-1.42.07-2.98.52-3.25,2.11-.33,1.9.16,4,.34,5.9.45,4.56.89,9.13,1.33,13.7.29,3.01.58,6.01.87,9.02.13,1.34.11,2.8.44,4.11.2.79.67,1.61,1.58,1.75,1.41.21,2.91.1,4.33.1,1.48.01,2.96.03,4.44.03,1.29.01,2.57.03,3.86.03.84-.01,1.79,0,2.59-.28.86-.3,1.28-.85,1.47-1.73.28-1.27.41-2.56.46-3.85.11-2.94.2-5.89.33-8.83.26-5.99.51-11.97.77-17.96.02-.59-.91-.59-.94,0-.27,6.23-.53,12.45-.8,18.68-.13,3.04-.12,6.11-.36,9.14-.08,1.1,0,3.41-1.38,3.72-.95.21-1.93.18-2.9.18-3.01-.03-6.01-.04-9.02-.06-.79,0-1.83.16-2.6-.06-.83-.25-.94-1-1.01-1.74-.14-1.45-.28-2.89-.42-4.33-.59-6.01-1.17-12.02-1.75-18.03-.15-1.56-.3-3.13-.45-4.69-.12-1.29-.38-2.64-.33-3.93.03-.82.28-1.67,1.2-1.91.61-.16,1.22-.17,1.85-.19,1.46-.04,2.93-.07,4.4-.11,2.97-.07,5.95-.25,8.92-.22,1.09.01,2.33.05,3.3.58,1.22.66,1.41,1.67,1.36,2.96h0Z"/>
        <path d="M631.3,90.32c.01.59.94.59.94,0-.03-1.84-.16-3.66-.42-5.48-.06-.45-.12-.87-.63-1.01-.66-.17-1.54-.01-2.22-.01-.26,0-.47.21-.47.46-.04,1.96-.05,3.91-.03,5.86.01.59.94.59.94,0-.03-1.96-.02-3.91.03-5.86l-.47.46c.64-.01,1.29-.05,1.93-.01-.01,0,.15,1.47.17,1.66.13,1.31.21,2.62.23,3.93h0Z"/>
        <path d="M631.37,87.02c.6,0,.6-.92,0-.92h-2.15c-.6,0-.6.92,0,.92h2.15Z"/>
        <path d="M645.31,93.77c-.03-.59-.97-.59-.94,0,.1,2.41.11,4.82-.02,7.23-.07,1.2-.15,2.39-.27,3.59-.06.59-.13,1.19-.2,1.78-.13,1.03-.65,1.13-1.54,1.26-2.47.35-4.96.62-7.45.77-1.2.08-2.41.13-3.62.16-.74.01-1.33-.09-1.51-.89-.12-.54-.23-1.09-.34-1.63-.46-2.4-.84-4.82-1.09-7.25-.12-1.14-.27-2.3-.29-3.45,0-.53-.09-1.4.68-1.45.6-.04,1.21-.08,1.82-.12,2.44-.16,4.87-.3,7.3-.43,1.22-.07,2.43-.13,3.65-.18,1.16-.05,2.83-.26,3.04,1.27.08.58,1.02.58.94,0-.07-.47-.18-.9-.49-1.28-.71-.85-1.69-.99-2.76-.94-1.46.06-2.92.13-4.38.21-3.03.16-6.11.21-9.12.55-.96.11-1.48.62-1.58,1.58-.13,1.27.09,2.61.22,3.88.29,2.86.71,5.72,1.3,8.54.17.82.31,2.17,1.36,2.41,1.19.28,2.58.06,3.79,0,2.94-.15,5.88-.43,8.79-.86,1.2-.18,1.98-.37,2.17-1.66.19-1.35.31-2.71.41-4.06.22-3.01.26-6.02.13-9.03h0Z"/>
        <path d="M644.15,111.73h0c.6,0,.6-.92,0-.92-4.65,0-9.3.17-13.93.55-.25.02-.48.2-.47.46.11,2.12.27,4.24.5,6.35.11,1.05.24,2.11.38,3.16.08.54.05,1.14.58,1.44.31.17.83.12,1.16.14l1.48.1c.99.06,1.97.13,2.96.2,2.09.14,4.19.29,6.29.43.26.02.47-.22.47-.46.05-3.83.35-7.66.9-11.45.09-.57-.81-.82-.9-.24-.57,3.87-.89,7.77-.94,11.69.16-.15.31-.31.47-.46-3.7-.25-7.41-.51-11.11-.76-.61-.04-.46-.85-.52-1.34-.06-.47-.12-.94-.17-1.41-.1-.82-.18-1.64-.26-2.46-.15-1.64-.27-3.29-.35-4.94-.16.15-.31.31-.47.46,4.64-.38,9.28-.56,13.93-.55h0Z"/>
        <path d="M643.53,115.88c.6.01.6-.9,0-.92-4.31-.11-8.61-.01-12.91.31-.6.05-.6.96,0,.92,4.3-.32,8.6-.43,12.91-.31h0Z"/>
        <path d="M643.09,120.17c.6.04.6-.88,0-.92-3.98-.29-7.97-.45-11.97-.47-.6,0-.6.92,0,.92,3.99.02,7.99.18,11.97.47h0Z"/>
        <path d="M634.03,111.71h-.01c-.09-.59-.99-.34-.9.24.56,3.47.87,6.97.94,10.48.02.59.95.59.94,0-.07-3.6-.4-7.18-.97-10.73h0Z"/>
        <path d="M639.51,111.56c.01-.59-.94-.59-.94,0-.08,3.6-.16,7.2-.24,10.8-.01.59.94.59.94,0,.08-3.6.16-7.2.24-10.8h0Z"/>
        <path d="M624.96,103.63h0c.29-.52-.52-.98-.81-.46-1.73,3.07-1.49,6.94.67,9.74.36.47,1.17.01.81-.46-1.96-2.54-2.25-6.01-.67-8.81h0Z"/>
        <path d="M622.29,100.25h0c.39-.45-.27-1.1-.66-.65-4.14,4.74-3,12.46.88,17.03.38.45,1.04-.2.66-.65-3.54-4.16-4.67-11.41-.88-15.74h0Z"/>
        <path d="M618.58,97.24h-.01c.46-.38-.2-1.03-.66-.65-3.07,2.54-3.73,6.77-3.62,10.5.13,4.15,1.1,8.31,3.8,11.61.38.46,1.03-.19.66-.65-2.52-3.08-3.44-7.1-3.52-10.97-.07-3.52.44-7.44,3.35-9.85h0Z"/>
        <path d="M650.2,103.59h0c-.29-.52-1.1-.06-.81.46,1.58,2.8,1.29,6.27-.67,8.81-.36.46.45.93.81.46,2.15-2.8,2.4-6.68.67-9.74h0Z"/>
        <path d="M652.72,99.99h0c-.39-.45-1.05.2-.66.65,3.78,4.34,2.65,11.58-.88,15.74-.38.45.27,1.1.66.65,3.89-4.57,5.02-12.29.88-17.03h0Z"/>
        <path d="M656.42,96.97h0c-.46-.38-1.12.27-.66.65,2.89,2.39,3.46,6.34,3.35,9.85-.12,3.89-.98,7.87-3.52,10.97-.37.46.28,1.11.66.65,2.69-3.27,3.72-7.47,3.8-11.61.08-3.75-.53-7.94-3.62-10.5h0Z"/>
        <path d="M642.94,106.59h0c-.03.29.44.29.47,0,.42-3.55.69-7.16.64-10.74-.02-1.14-.36-1.95-1.59-2.17-1.36-.24-2.84.03-4.19.22-.3.04-.17.48.12.44.96-.13,4.4-.87,4.97.31.54,1.12.22,2.87.18,4.08-.08,2.63-.28,5.25-.59,7.87h0Z"/>
        <path d="M637.25,94.4c.3-.03.3-.49,0-.46-3.19.29-6.39.54-9.59.76-.3.02-.3.48,0,.46,3.2-.22,6.4-.47,9.59-.76h0Z"/>
        <path d="M630.72,101.48c.01-.3-.45-.29-.47,0-.13,2.26,1.38,3.97,3.01,5.38.22.2.56-.12.33-.32-1.54-1.33-2.99-2.91-2.87-5.06h0Z"/>
        <path d="M643.28,93.12c.21-.21-.12-.53-.33-.32-.26.26-.52.53-.78.79-.21.21.12.53.33.32.26-.26.52-.53.78-.79h0Z"/>
        <path d="M642.33,93.17c.21-.21-.12-.54-.33-.32-.19.2-.38.4-.57.6-.21.21.12.54.33.32.19-.2.38-.4.57-.6h0Z"/>
        <path d="M641.52,93.16h0c.2-.21-.13-.54-.33-.32-.13.15-.27.29-.4.44-.1.1-.19.21-.31.28-.26.15-.02.55.24.4.32-.19.56-.52.81-.79h0Z"/>
        <path d="M640.52,93.35h0c.3-.01.3-.46,0-.46-.25.01-.4.16-.57.32-.18.17-.35.33-.52.5-.22.2.11.53.33.32.13-.14.27-.27.41-.4.08-.07.23-.28.34-.28h0Z"/>
        <path d="M637.18,93.28c.08-.09.1-.22,0-.32-.08-.08-.25-.1-.33,0-.13.16-.27.33-.4.5-.08.09-.1.22,0,.32.08.08.25.1.33,0,.13-.16.27-.33.4-.5h0Z"/>
        <path d="M636.34,93.37c.19-.23-.22-.46-.4-.23-.27.35-.52.7-.77,1.06-.17.25.23.47.4.23.25-.36.5-.71.77-1.06h0Z"/>
        <path d="M635.27,93.36c.23-.19-.1-.51-.33-.32-.35.29-.58.69-.87,1.04-.19.22.14.55.33.32.29-.35.52-.75.87-1.04h0Z"/>
        <path d="M634,93.55c.19-.22-.14-.55-.33-.32-.26.32-.51.68-.81.97-.22.2.11.53.33.32.3-.29.55-.65.81-.97h0Z"/>
        <path d="M632.65,93.64h0c.21-.21-.12-.53-.33-.32-.16.16-.31.33-.43.52-.11.16-.19.37-.33.51-.21.21.12.53.33.32.16-.16.24-.36.36-.55.12-.18.25-.34.4-.49h0Z"/>
        <path d="M631.53,93.75h0c.24-.17.01-.57-.24-.4-.19.13-.32.35-.46.54-.16.22-.31.45-.46.68-.16.25.24.48.4.23.12-.19.24-.37.37-.55.11-.16.23-.4.39-.51h0Z"/>
        <path d="M630.37,93.63c.19-.23-.14-.55-.33-.32-.34.41-.69.81-1.06,1.19-.21.21.12.53.33.32.37-.38.73-.78,1.06-1.19h0Z"/>
        <path d="M629.02,93.8c.1-.07.08-.24,0-.32-.1-.1-.23-.08-.33,0-.34.26-.65.53-.8.94-.1.28.35.4.45.12.11-.32.42-.54.68-.74h0Z"/>
        <path d="M645.02,97.75c.05-.11.04-.24-.08-.31-.1-.06-.27-.03-.32.08-.11.24-.25.45-.45.63-.22.2.11.52.33.32.22-.2.4-.45.52-.72h0Z"/>
        <path d="M644.98,99.39c.19-.22-.13-.55-.33-.32-.32.37-.65.74-.99,1.09-.21.21.12.54.33.32.34-.36.67-.72.99-1.09h0Z"/>
        <path d="M644.74,101.39h0c.25-.16.02-.56-.24-.4-.37.23-.63.59-.9.92-.19.22.14.55.33.32.24-.29.47-.65.8-.85h0Z"/>
        <path d="M644.61,102.8h0c.11-.05.14-.21.08-.31-.07-.12-.2-.13-.32-.08-.36.16-.67.47-.9.78-.08.1-.02.25.08.31.12.07.24.02.32-.08.18-.24.44-.49.73-.61h0Z"/>
        <path d="M631.41,85.33c.3.01.3-.45,0-.46-.76-.04-1.51-.02-2.27.05-.3.03-.3.49,0,.46.76-.07,1.51-.09,2.27-.05h0Z"/>
        <path d="M631.25,86.06h0c.3.02.3-.44,0-.46-.78-.05-1.54-.01-2.31.09-.3.04-.17.48.12.44.72-.1,1.45-.12,2.18-.07h0Z"/>
        <path d="M631.55,87.63c.3,0,.3-.46,0-.46h-.7c-.3,0-.3.46,0,.46h.7Z"/>
        <path d="M631.64,88.18c.3,0,.3-.46,0-.46-.44,0-.87.01-1.31.03-.3.02-.3.47,0,.46.44-.03.87-.03,1.31-.03h0Z"/>
        <path d="M631.63,88.73h0c.3-.04.17-.48-.12-.44-.56.09-1.11.15-1.67.19-.3.03-.3.48,0,.46.6-.05,1.2-.11,1.79-.2h0Z"/>
        <path d="M631.5,89.6h.01c.3-.01.3-.47,0-.46-.83.03-1.65.12-2.47.27-.3.05-.17.49.12.44.77-.14,1.55-.23,2.34-.26h0Z"/>
        <path d="M631.11,84.62h0c-.17-.24-.58,0-.4.23.12.17.21.34.27.54l.29-.28c-.32-.13-.61-.3-.87-.52-.12-.09-.29-.08-.37.05-.12.19.01.33.15.47.24.24.49.48.73.72.06-.13.11-.26.17-.39-.24-.01-.56-.29-.76-.41-.22-.13-.43-.25-.64-.38-.23-.14-.45.17-.28.36.36.41.69.83,1,1.27.07-.11.13-.23.2-.34-.19-.02-.44-.29-.59-.4-.18-.14-.37-.27-.56-.41-.11-.08-.26-.02-.32.08-.2.3.17.79.3,1.07.12.27.52.04.4-.23-.03-.07-.3-.61-.3-.61-.11.03-.21.05-.32.08.26.19.53.38.79.57.2.14.35.27.6.29.17.02.3-.2.2-.34-.33-.48-.69-.93-1.08-1.36-.09.12-.19.24-.28.36.3.18.59.35.89.53.24.14.45.32.74.32.21.01.31-.25.17-.39-.14-.14-.28-.27-.42-.41-.12-.12-.33-.26-.41-.42v.23s.02-.03.02-.04c-.13.02-.25.03-.37.05.33.27.68.47,1.08.63.17.07.33-.13.29-.28-.07-.24-.17-.45-.32-.65h0Z"/>
        <path d="M634.4,92.17c.6,0,.6-.92,0-.92s-.6.92,0,.92h0Z"/>
        <path d="M636.24,91.96c.6,0,.6-.92,0-.92s-.6.92,0,.92h0Z"/>
        <path d="M638.36,91.84c.6,0,.6-.92,0-.92s-.6.92,0,.92h0Z"/>
        <path d="M642.85,109.51h0c.3-.02.3-.48,0-.46-1.35.09-2.69.24-4.02.45-.3.05-.17.49.12.44,1.29-.21,2.59-.35,3.89-.44h0Z"/>
        <path d="M637.71,110.01c.3,0,.3-.46,0-.46s-.6.03-.9.08-.17.49.12.44c.26-.04.52-.06.78-.06h0Z"/>
        <path d="M631.53,110.62c.3,0,.3-.46,0-.46-.51,0-1.46.17-1.89-.13-.46-.31-.76-.74-.92-1.26-.09-.28-.54-.16-.45.12.18.6.55,1.23,1.13,1.54.62.34,1.45.19,2.13.19h0Z"/>
        <path d="M630.15,120.37c-.03-.29-.5-.29-.47,0,.07.78-.03,2.05.47,2.72.49.65,1.18.86,1.97,1.02.29.06.42-.38.12-.44-.86-.18-1.77-.43-1.91-1.42-.09-.63-.14-1.26-.2-1.88h.02Z"/>
        <path d="M642.85,112.39c.3,0,.3-.46,0-.46-.61-.02-1.23-.02-1.84,0-.3.01-.3.46,0,.46.61,0,1.23-.01,1.84,0h0Z"/>
        <path d="M637.99,112.56c.3-.01.3-.47,0-.46-.62.02-1.23.06-1.84.11-.3.03-.3.48,0,.46.61-.05,1.23-.09,1.84-.11h0Z"/>
        <path d="M632.78,112.8h0c.3.01.3-.45,0-.46-.39-.02-.79.01-1.18.07-.3.04-.17.48.12.44.35-.06.71-.07,1.06-.06h0Z"/>
        <path d="M632.59,115.72c.3,0,.3-.46,0-.46s-.3.46,0,.46h0Z"/>
        <path d="M633.1,116.76h0c.29.04.42-.4.12-.44-.39-.05-.78-.04-1.16.06-.3.07-.17.51.12.44.3-.08.6-.1.91-.06h0Z"/>
        <path d="M638.08,116.56c.3-.01.3-.46,0-.46-.41.01-.81.03-1.22.03-.3.01-.3.46,0,.46l1.22-.03h0Z"/>
        <path d="M642.48,116.57c.3,0,.3-.46,0-.46h-1.28c-.3,0-.3.46,0,.46h1.28Z"/>
        <path d="M642.23,120.81c.3,0,.3-.46,0-.46h-1.28c-.3,0-.3.46,0,.46h1.28Z"/>
        <path d="M637.83,120.59c.3-.01.3-.46,0-.46-.43.01-.85.03-1.28.03-.3.01-.3.46,0,.46.43-.01.85-.03,1.28-.03h0Z"/>
        <path d="M633.53,120.39c.3,0,.3-.46,0-.46h-1.06c-.3,0-.3.46,0,.46h1.06Z"/>
        <path d="M646,122.92c.3,0,.3-.46,0-.46h-.62c-.3,0-.3.46,0,.46h.62Z"/>
        <path d="M645.91,123.53c.3-.02.3-.47,0-.46-.33.01-.65,0-.97-.03-.3-.03-.3.43,0,.46.33.03.65.04.97.03h0Z"/>
        <path d="M645.97,124.22c.3-.02.3-.48,0-.46-.52.03-1.04.03-1.56.03-.3,0-.3.46,0,.46.52.01,1.04,0,1.56-.03h0Z"/>
        <path d="M645.74,124.9h0c.3-.02.3-.48,0-.46-.81.06-1.6.02-2.4-.13-.29-.06-.42.39-.12.44.84.15,1.68.2,2.53.14h0Z"/>
        <path d="M645.31,125.58c.3-.04.3-.49,0-.46-1.11.13-2.21.12-3.31,0-.3-.03-.3.43,0,.46,1.11.12,2.21.12,3.31,0h0Z"/>
      </g>
    </g>
  </g>
  <g>
    <path class="st3" d="M393.49,109.16h12.72c-.47-.91-.71-1.89-.71-2.94,0-.8.15-1.57.46-2.32.3-.75.75-1.4,1.33-1.97s1.28-1.02,2.11-1.37c.83-.35,1.77-.52,2.82-.52h4.06c.44,0,.87.09,1.28.27.42.18.77.42,1.06.73s.52.66.7,1.06c.18.4.27.82.27,1.26v5.8h2.28v4.56h-29.62c-.44,0-.86-.09-1.26-.27-.4-.18-.75-.41-1.06-.7s-.54-.63-.72-1.04c-.18-.4-.27-.83-.27-1.3v-9.53c0-.22.08-.41.25-.58.17-.17.36-.25.58-.25h2.9c.22,0,.42.08.58.25.17.17.25.36.25.58v8.29ZM415.03,109.16v-4.56h-2.57c-.66,0-1.23.22-1.7.66s-.7.98-.7,1.62.23,1.17.7,1.62,1.04.66,1.7.66h2.57ZM411.18,96.61c-.44-.36-.66-.8-.66-1.33s.22-.97.66-1.33c.44-.36.98-.54,1.62-.54s1.17.18,1.62.54c.44.36.66.8.66,1.33s-.22.97-.66,1.33c-.44.36-.98.54-1.62.54s-1.17-.18-1.62-.54Z"/>
    <path class="st3" d="M420.67,110.41c0-.36.12-.66.35-.89.24-.23.53-.35.89-.35h3.94v-8.29c0-.22.08-.41.25-.58s.36-.25.58-.25h2.9c.22,0,.41.08.58.25.17.17.25.36.25.58v9.53c0,.91-.33,1.69-.97,2.34s-1.43.97-2.34.97h-5.18c-.36,0-.66-.12-.89-.35s-.35-.53-.35-.89v-2.07ZM422.78,96.61c-.44-.36-.66-.8-.66-1.33s.22-.97.66-1.33c.44-.36.98-.54,1.62-.54s1.17.18,1.62.54c.44.36.66.8.66,1.33s-.22.97-.66,1.33c-.44.36-.98.54-1.62.54s-1.17-.18-1.62-.54ZM428.17,96.61c-.44-.36-.66-.8-.66-1.33s.22-.97.66-1.33c.44-.36.98-.54,1.62-.54s1.17.18,1.62.54c.44.36.66.8.66,1.33s-.22.97-.66,1.33c-.44.36-.98.54-1.62.54s-1.17-.18-1.62-.54Z"/>
    <path class="st3" d="M438.65,90.93c.22,0,.42.08.58.25.17.17.25.36.25.58v17.4h2.28v4.56h-6.01c-.22,0-.42-.08-.58-.25-.17-.17-.25-.36-.25-.58v-21.13c0-.22.08-.41.25-.58.17-.17.36-.25.58-.25h2.9Z"/>
    <path class="st3" d="M440.55,110.41c0-.36.12-.66.35-.89.24-.23.53-.35.89-.35h2.98c-.47-.83-.7-1.78-.7-2.86,0-.77.15-1.54.46-2.3s.75-1.43,1.33-2.01,1.28-1.05,2.11-1.41c.83-.36,1.78-.54,2.86-.54h1.95l-.62-2.49c.8-.28,1.6-.48,2.4-.6.8-.12,1.57-.19,2.32-.19,1.05,0,2.03.15,2.94.43.91.29,1.71.73,2.38,1.33.68.59,1.21,1.36,1.59,2.3.39.94.58,2.06.58,3.36v4.97h2.28v4.56h-24.86c-.36,0-.66-.12-.89-.35s-.35-.53-.35-.89v-2.07ZM452.36,109.16v-4.56h-1.41c-.66,0-1.22.22-1.66.66-.44.44-.66.98-.66,1.62s.22,1.17.66,1.62c.44.44.99.66,1.66.66h1.41ZM459.82,104.19c0-1.16-.37-1.94-1.12-2.34s-1.68-.61-2.82-.64c.28.3.5.64.66.99.17.36.25.75.25,1.16v5.8h3.02v-4.97Z"/>
    <path class="st3" d="M468.93,109.16v-17.4c0-.22.08-.41.25-.58.17-.17.36-.25.58-.25h2.9c.22,0,.41.08.58.25.17.17.25.36.25.58v18.64c0,.91-.33,1.69-.97,2.34s-1.43.97-2.34.97h-3.52c-.36,0-.66-.12-.89-.35s-.35-.53-.35-.89v-2.07c0-.36.12-.66.35-.89.24-.23.53-.35.89-.35h2.28Z"/>
    <path class="st3" d="M481.73,90.93c.22,0,.42.08.58.25.17.17.25.36.25.58v21.13c0,.22-.08.41-.25.58-.17.17-.36.25-.58.25h-2.9c-.22,0-.42-.08-.58-.25-.17-.17-.25-.36-.25-.58v-21.13c0-.22.08-.41.25-.58.17-.17.36-.25.58-.25h2.9Z"/>
    <path class="st3" d="M492.09,106.26c0-1.05.22-1.97.66-2.75.44-.79,1.02-1.44,1.74-1.95.72-.51,1.55-.89,2.49-1.14.94-.25,1.89-.37,2.86-.37,1.05,0,2.09.16,3.13.48,1.04.32,1.97.79,2.8,1.43v7.21h2.28v4.56h-11.39v4.97h-4.56v-12.43ZM501.2,109.16v-4.18c-.36-.11-.7-.2-1.01-.27-.32-.07-.6-.1-.85-.1-.75,0-1.38.17-1.91.5-.53.33-.79.79-.79,1.37v2.69h4.56Z"/>
    <path class="st3" d="M506.84,110.41c0-.36.12-.66.35-.89.24-.23.53-.35.89-.35h2.98c-.47-.91-.7-1.89-.7-2.94,0-.8.15-1.57.46-2.32.3-.75.75-1.4,1.33-1.97s1.28-1.02,2.11-1.37c.83-.35,1.77-.52,2.82-.52h4.06c.91,0,1.69.33,2.34.97.65.65.97,1.43.97,2.34v9.53c0,.22-.08.41-.25.58-.17.17-.36.25-.58.25h-15.54c-.36,0-.66-.12-.89-.35s-.35-.53-.35-.89v-2.07ZM513.09,96.61c-.44-.36-.66-.8-.66-1.33s.22-.97.66-1.33c.44-.36.98-.54,1.62-.54s1.17.18,1.62.54c.44.36.66.8.66,1.33s-.22.97-.66,1.33c-.44.36-.98.54-1.62.54s-1.17-.18-1.62-.54ZM517.32,104.61c-.66,0-1.23.22-1.7.66s-.7.98-.7,1.62.22,1.14.66,1.6c.44.46,1.02.68,1.74.68h2.57v-4.56h-2.57ZM518.48,96.61c-.44-.36-.66-.8-.66-1.33s.22-.97.66-1.33c.44-.36.98-.54,1.62-.54s1.17.18,1.62.54c.44.36.66.8.66,1.33s-.22.97-.66,1.33c-.44.36-.98.54-1.62.54s-1.17-.18-1.62-.54Z"/>
    <path class="st3" d="M529,100.88c0-.22.08-.41.25-.58.17-.17.36-.25.58-.25h2.9c.22,0,.41.08.58.25s.25.36.25.58v12.84c0,1.24-.17,2.32-.5,3.23-.33.91-.79,1.66-1.37,2.26s-1.26,1.03-2.05,1.3-1.64.42-2.55.42c-.97,0-1.97-.15-3.02-.44s-2.1-.71-3.15-1.26l1.2-3.44c.55.22,1.18.44,1.88.64s1.37.31,2.01.31c.8,0,1.5-.21,2.09-.64s.89-1.22.89-2.38v-12.84Z"/>
    <path class="st3" d="M560.03,109.16h2.28v4.56h-2.28v2.9c0,.91-.33,1.69-.97,2.34s-1.43.97-2.34.97h-6.21c-1.02,0-1.99-.19-2.9-.58-.91-.39-1.71-.92-2.38-1.6s-1.21-1.47-1.59-2.38-.58-1.88-.58-2.9v-5.39c0-.22.08-.41.25-.58s.36-.25.58-.25h2.9c.22,0,.42.08.58.25s.25.36.25.58v5.39c0,.8.28,1.48.85,2.05s1.25.85,2.05.85h4.97v-23.61c0-.22.08-.41.25-.58.17-.17.36-.25.58-.25h2.9c.22,0,.41.08.58.25s.25.36.25.58v17.4Z"/>
    <path class="st3" d="M561.11,110.41c0-.36.12-.66.35-.89.24-.23.53-.35.89-.35h9.61c-.25-.58-.5-1.21-.75-1.91-.25-.69-.54-1.34-.87-1.95-.33-.61-.72-1.12-1.18-1.53-.46-.42-1.01-.62-1.68-.62-.47,0-.93.08-1.37.25-.44.17-.87.4-1.28.7l-1.24-3.23c.75-.61,1.57-1.1,2.49-1.49.91-.39,1.81-.58,2.69-.58,1.27,0,2.29.36,3.07,1.08.77.72,1.44,1.6,1.99,2.65.55,1.05,1.06,2.17,1.51,3.38.46,1.2.99,2.29,1.59,3.25h1.99v4.56h-16.57c-.36,0-.66-.12-.89-.35s-.35-.53-.35-.89v-2.07ZM567.16,96.2c-.44-.36-.66-.8-.66-1.33s.22-.97.66-1.33c.44-.36.98-.54,1.62-.54s1.17.18,1.62.54c.44.36.66.8.66,1.33s-.22.97-.66,1.33c-.44.36-.98.54-1.62.54s-1.17-.18-1.62-.54Z"/>
    <path class="st3" d="M583.03,99.22c1.66-.55,3.23-.83,4.72-.83,1.05,0,2.03.14,2.94.43.91.29,1.71.74,2.38,1.35s1.21,1.38,1.59,2.32c.39.94.58,2.06.58,3.36v7.04c0,.22-.08.41-.25.58s-.36.25-.58.25h-12.22v-4.56h8.49v-3.31c0-1.1-.37-1.88-1.12-2.32-.75-.44-1.62-.66-2.61-.66-.47,0-.96.04-1.47.1-.51.07-1,.17-1.47.31l-1-4.06Z"/>
    <path class="st3" d="M603.53,90.93c.22,0,.42.08.58.25.17.17.25.36.25.58v21.13c0,.22-.08.41-.25.58-.17.17-.36.25-.58.25h-2.9c-.22,0-.42-.08-.58-.25-.17-.17-.25-.36-.25-.58v-21.13c0-.22.08-.41.25-.58.17-.17.36-.25.58-.25h2.9Z"/>
  </g>
</svg>