<?xml version="1.0" encoding="UTF-8"?>
<svg id="Layer_1" xmlns="http://www.w3.org/2000/svg" version="1.1" viewBox="0 0 699.08 194.23">
  <!-- Generator: Adobe Illustrator 29.7.1, SVG Export Plug-In . SVG Version: 2.1.1 Build 8)  -->
  <defs>
    <style>
      .st0 {
        font-size: 31.92px;
      }

      .st0, .st1, .st2, .st3 {
        fill: #f9ddd9;
      }

      .st0, .st4, .st3 {
        isolation: isolate;
      }

      .st0, .st3 {
        font-family: AbdoMaster-Black, AbdoMaster-Black;
        font-weight: 800;
      }

      .st5 {
        fill: #fae1de;
      }

      .st6 {
        fill: #007db5;
        stroke: #020202;
        stroke-miterlimit: 10;
        stroke-width: 16.87px;
      }

      .st2 {
        font-family: AbdoMaster-Bold, AbdoMaster-Bold;
        font-size: 31.31px;
        font-weight: 700;
      }

      .st3 {
        font-size: 31.86px;
      }

      .st7 {
        display: none;
      }
    </style>
  </defs>
  <g class="st7">
    <path class="st6" d="M304.99,61.64H39c-16.65,0-30.14,13.21-30.14,29.5v65.87c0,16.29,13.49,29.5,30.14,29.5h621.09c16.65,0,30.14-13.21,30.14-29.5v-65.87c0-16.29-13.49-29.5-30.14-29.5h-265.99l-44.55-48.92-44.55,48.92h-.01Z"/>
    <g>
      <path class="st5" d="M533.88,161.43c.26-.17.11-.56-.61-.49l-.51.66,1.12-.18h0Z"/>
      <path class="st5" d="M529.03,160.2c-.85.32-1.83.88-1.28,1.49.84-.64,1.04-.37,1.95-1.13.72-.08,1.26.21,1.14.46.26-.17,1.12.15,1.51-.27-.94-.51-2.13-.53-3.37-.11-.27-.15,0-.32.05-.44Z"/>
      <path class="st5" d="M458.55,159.17l.45.08c-.12-.04-.28-.07-.45-.08Z"/>
      <path class="st5" d="M414.88,158.81c.33-.02.47-.08.49-.14-.31.04-.56.08-.49.14Z"/>
      <path class="st5" d="M407.42,158.08c.16.02.29.03.44.04-.17-.06-.34-.09-.44-.04Z"/>
      <path class="st5" d="M458.55,159.17l-1.17-.21c-.08.22.6.16,1.17.21Z"/>
      <path class="st5" d="M519.31,161.8c.24-.03.45-.09.63-.17-.2.03-.39.05-.6.07-.01.04-.02.07-.04.1h0Z"/>
      <path class="st5" d="M477.8,158.63h.35c.1-.08.2-.17.29-.27l-.65.27h0Z"/>
      <path class="st5" d="M492.57,158.53c-.33-.02-.45.54-.58.78.19-.23.44-.34.73-.39,0-.11-.04-.23-.15-.4h0Z"/>
      <path class="st5" d="M516,159.52l.42-.08c-.11.02-.29.05-.42.08Z"/>
      <path class="st5" d="M467.22,158.51c-.02-.08-.08-.16-.13-.2,0,.07.05.14.13.2Z"/>
      <path class="st5" d="M53.97,162.74v-.1c-.09.06-.11.1,0,.1Z"/>
      <path class="st5" d="M36.85,159.95l.24-.03c.03-.11.05-.21.05-.32l-.29.35Z"/>
      <path class="st5" d="M393.77,157.36s.04,0,.06,0c.36-.06.16-.05-.06,0Z"/>
      <path class="st5" d="M268.5,157.77c1.42.5-2.31.65-.17,1.2-.2-.22,1.94-.88.17-1.2Z"/>
      <path class="st5" d="M518.93,161.73c-.2,0-.4,0-.61,0,.28.02.46.02.61,0Z"/>
      <path class="st5" d="M268.33,158.98h0l.22.06c-.09-.02-.14-.04-.22-.06Z"/>
      <path class="st5" d="M362.33,157.7c.06.1.19.17.32.25-.01-.06-.08-.13-.32-.25Z"/>
      <path class="st5" d="M385.75,158.5l-.58-.08c.23.05.42.07.58.08Z"/>
      <path class="st5" d="M350.17,158.49c-.32-.04-.42-.12-.85-.04.04.03.08.05.13.07.16-.08.36-.11.72-.02h0Z"/>
      <path class="st5" d="M337.51,158.49c.07.04.16.08.23.11.13,0,.27-.02.4-.03l-.63-.08Z"/>
      <path class="st5" d="M92.45,162.47c-.28-.16-.45-.33-.58-.51.2.4-1.66.54.58.51Z"/>
      <path class="st5" d="M519.31,161.48c-.07.14-.18.21-.38.24.15,0,.28-.02.42-.03.04-.08.04-.16-.04-.21Z"/>
      <path class="st5" d="M349.65,162.92l-2.01-.08c.56.05,1.29.08,2.01.08Z"/>
      <path class="st5" d="M183.26,162.39l-.46.07c.18,0,.34,0,.46-.07Z"/>
      <path class="st5" d="M341.67,162.92c-.36-.2-.74-.31-1.13-.39-.08.04-.18.08-.23.15l1.37.24h0Z"/>
      <path class="st5" d="M91.86,161.96h0Z"/>
      <path class="st5" d="M78.61,163.29c1.92.02.9-.72,1.31-1.15,2.29-.21,1.06.54,1.84.92,1.43-.2,2.52-.87,3.59-.85.08.12.29.17.04.32,1.51-.59,4.48-.03,6.24-.77.13.07.2.13.23.18-.28-.37-.33-.75-.27-1.01.86,0,1.59-.47,1.92.02-.53,0-.57.18-.82.33l.9-.21c.81.69-1.23.24-1.23.75,1.76-.23,3.8-.8,5.15-.6.28.68-3.15.23-1.35.83l-2.08-.26c1.59,1.07-1.26-.07.2,1.07,2.74.2,3.06-.35,5.8-.15.62-.38-.2-.56.41-.94,3.88-.68,3.06,1.71,5.91.8.74-.45,1.03-1.31,3.06-.86l-.69.77c2.65.08,1.51-1.1,4.29-.59-.49.3-2.08.25-1.68.35,1.8.61,1.27-.44,2.66-.44l.29.68c2.82-.11,5.93-.6,9.06-.72-.17.2-.71.41.02.62,3.94-.34,8.42.08,12.22.49l1.45-.59c.34,0,.63.27.26.38,1.48.22.08-.37.79-.6.84-.04,1.11.34.58.51,2.62-.5,7.45-1.07,10.21-.44l-.54.17c2.15.24,2.42-1.2,4.41-.66l-.38.1c4.66.25,9.81-.28,13.36.6.68-.85,4.61.38,4.91-.8,2.66.58,1.9.8,5.64,1.19,1,.05,1.49-.74,2.73-.86l.03.62,1.68-.65.89.74,1.16-.16c-.46-.04-.98-.28-.91-.45,1.81-.28,4.42.43,4.46.74l4.29-.52c-.1.25-.81.33-1.38.49,2.29-.63.42.65,2.51.07-.28-.14.15-.37.2-.49,1.05.37,3.42.38,5.19.22l-.34.42c3.18.11,6.7-.2,10.27-.2-1.28-.2-.99-.93.06-1.01l.42.65c.68-.4-1.09-.25.29-.74,1.33.08.9.74.13.95l1.62-.23c.1.19-.28.3-.38.54.66-.4,2.8.65,3.76-.05l.09.19c3.57,0,5.19-.22,8.09-.25.06-.56,1.19-.44,2.06-.89,2.14.18,4.51.62,7.08.57,1.81-.28.53-.48,1.34-.81.13.51,2.7.46,1.37.83,3.09-.08,3.94-.1,7.85-.52-.42-.21-.9-.3-.65-.48.71-.08,1.61.21,1.51.46l-.19.05c4.38-.77,10.12,1.49,13.61.43l-.2.05,3.62-.56c1.67.09-1,.38.23.7,3.91-.85,6.17.12,9.39-.45,2.49,1.51,8.83-.11,12.19.86l-.19-.36c.87-.35,1.05.2,1.69.29-.09-.28-.94-.32-.4-.51,7.36-.43,15.19.52,22.73.84,2.76.1,1.57-1.84,5.04-.99l-.99.66c5.57-.79,11.38.03,16.83-.65-.32.15-.33.35-.87.35,1.15.48,4.26.02,4.28-.37.85.04.2.35.72.55,1.15.28,2.9-.61,3.51-.14.1.08-.32.16-.54.19.75-.23,3.51.06,2.79-.49,2.05.26,3.91-.25,5.54.08,1.06-.62,3.5.3,3.84-.58-.15.9,3.59.73,4.88.3-.43.27,1.12.28.62.66,1.48,0,2.83-.18,2.57-.65,2.72,1.08,5.47-.87,7,.52,4.38-.49,8.44-.82,12.39-1.03-.14.9-4.36.09-4.19,1.04,3.74-.37,5.9-1.15,9.61-.93.96.12-.55.39-.87.55,3.74-.37,7.23.08,10.55-.41,0,.08-.37.18-.71.24.66-.03,1.52.13,1.45-.28l-.64.11c-1.05-.6,2.6-1.24,2.72-1.56-1.11,1.18,3.29.3,1.52,1.78.43-.08.97-.27.87-.55.64.08.84.24.19.55,2.35-.22,1.51-.66,3.64-.65,0,.2-.44.28-.66.51,1.08-.39,2.16-.77,3.96-.61-.11.12.1.28-.44.27,3.09-.06,5.26-1.03,8.65-.66-1,.86,1.15.28,1.33,1.03l1.82-.22-.73-.36c1.6,0,3.01-.53,4.38-.29l-1.19.31,2.99-.14-1.69-.28c1.61-.38-.17-.94,1.95-.74-.43.08,1.6,0,2.43.45h0c.79-.24,1.6-.49,2.78-.3.31.24-.25.83-.05.98.78-.62,3.74-.17,4.72-.84-.33.16-.35.55-.24.63l.65-.51c.74.16.85.24.73.55,2.22.09-.71-.95,1.93-.54-.21.04-.11.12-.54.19,2.65.21,5.12-.32,7.55-.07.72.75-2.13.18-1.31.82,3.51-.14,7.27-.9,10.67-.72l-.63-.08c.47-1.06,2.53.52,4.25.02-.42.08-.55.59-.44.47,2.33.17,4.76-.26,8.28-.59l-.44.27c1.37.24,3.61.14,5.09.26.44-.27,1.29-.23.77-.62,4.57,1.55,8.71-.83,12.76.46-.48,0-1.15.24-.77.24l3.45-.25c-.27-.46-.45-.28-1.18-.64.44-.27,1.41-.49,2.27-.49-1.55.31.01.74.68,1-.11-.14.12-.3.06-.44,1.8.82.3-.93,2.76-.38l-.13.24c.92-.12,1.77-.44,2.76-.38.41.53-.98.25-1.04.69,1.4-.03,2.75-1.01,4.02-.48-.59.15-1.45.15-2.04.3,1.38.63,1.53.47,2.56.57h-.1l2.36.27-.6-.17c1.75-1.39,3.56-.25,5.91-1.17-2.29.86-.38.5-.55,1.11.6.17,1.51.36,1.25.53,1.11-.49,1.86.39,3.42-.33.07.2,1.19.02.94.51,1.45-.15-.34-.34-.22-.58,2.23-.67,5.24.81,8.44-.11,2.76-.38,3.27-1.03,5.84-1.36.87.31-.71.71-.71.71,1.4.29,2.45.23,3.76,0-.27.17,0,.31.41.53,1.06-.05.71-.71,2.1-.42-.24.22-.55.57-1.05.78,1.24-.18,2.47-.54,3.76-.72.34.34-.78.52-1.23.74,1.45-.15,3.75-.31,4.2-.85l-.93-.19c.53-.03.27.46-.12.56-1.24.42-1.79-.19-1.86-.38l.92-.12c-.94-1.14-3.68.18-5.53.12l.77-.83-1.89.69c-.4-.22-.68-.68.23-.81-1.32-.41-1.17.3-2.31-.16-.13-.07-.07-.11.05-.14l-1.29.25c.25-.17-.22-.59.58-.47-2.32-.48-3.74.62-4.62,0l.19-.05c-3.22.28-.31.61-2.73,1.33l-1.63-1.51-.32.61c-.33-.02-.99-.07-.87-.31-1.24.42.21.27-.51.66-1.6-.56-4.41.26-4.77-.71-.57.46,1.53.36-.18.68-.49-1.05-1.97.18-3.44-.3.45-.54,1.83-.25.37-.74-.88.91-2.85-.2-4.08-.03-.06.73-2.68.3-4.75.55.13-.24-3.89-.4-5.82-.66l.06-.12c-.37.73-2.36.6-3.8.75.06-.44.32-.61,1.1-.81h-1.36c-.32.24-.74.36-1.63.45l.34-.55c-1.81.03-3.64.65-5.97.28-.13.51,1.85,1.43-.61,1.77-.09-.28-.18-.75.46-.86-.21.04-.75.23-1.18.11l.98-.47c-1.06-.2-.55.39-1.4.35.02-.4-.63-.28-.51-.6.22-.04.74.16,1.06,0-.96-.07-2.11-.3-2.49-.6.08.22,0,.53-.7.58-1.81.03-.62-.48-1.67-.68-.44.27-1.59,0-1.62.58-.53,0-.63-.28-.83-.44-.94.26-4.37.07-3.32.7l.24.04s-.1,0-.15.03h0c-3.07.59-6.37-.33-9.42-.08v-.2c-1.81.23-4.04.13-5.34.56-.54,0-1.27-.36-1.04-.6-1.39.15-1.54.37-3.55.04,1.4-.34-.48-.31,1.43-.25-1.8-.17-2.21-.49-4.15.05.66-.51-1.36-.64-2.22-.49l1.26.36c-.96.07-1.81.03-2.66,0l.46-.67c-3.69-.81-6.66,1.38-9.47.02-.98.47,2.01.33,1.13.87-1.7-.09-3.47-1.04-4-1.05-2.33-.37-2.17.97-4.61.72.31.24.61.87-1.21,1.09-1.7-.09-2.09-1-1.02-1.19.41-.02.6.06.59.14.55-.09,1.27-.19.6-.45l-.22.24c-.84-.24-3.18-.22-2.63-.61-1.28.23-.55.39.4.51-2.18-.34-3.41,0-5.65-.24.36.13.69.41.33.41-3.29-.29-1.45.45-3.68.55-1.27-.36.45-.86-1.79-.56-1.37-.24-.29-.63.25-.82-2.05.46-3.82-.3-4.99-.38l1.08-.19c-.64.11-1.17.11-1.71.11l.62.47c-.63-.08-1.17-.08-1.16-.28-.65.31.5.79-.79,1.21-.84-.24-2.57.26-2.86-.37,2.65.21-.29-.63,1.95-.73-.43.08-.96.07-1.6,0-.1-.07.09-.13.26-.17-2.54-.56-1.17.71-3.8.7.33-.35-.61-.67-1.04-.6,1.06,0,.51.59-.47.86-1.69-.28-1.83.21-2.72.17l1.01.13c-.34.35-1.19.31-2.36.42-.1-.28,1.07-.19.65-.31-1.31.62-2.95-.65-4.77-.23-.84-.24-.08-.67-.82-.83-2.04.46-2.21-.49-4.35-.11.62.48.73.36-.78.83l3.53-.34-2.26.69c1.06,0,2.25-.3,2.88-.22-1.08.39-.97.27-.46.67-1.46-.72-2.89.42-4.57-.07l.05-1.18c-2.53-.53-4.5.61-7.78.31l1.06.21c-.44.47-2.03.07-3.09.26.1-.4-.57-.54-1.02-.78.06.29-2.4-.03-2.7.76l-1.47-.52c-2.65-.21-3.03,1.12-5.58.99.77-.43-.39-.71,1.32-1.02-.85,0-1.62-.08-1.63.2-.5-.25-2.36.53-3.14.16-.36.17-.48.59-1.43.55-.1-.08,0-.19,0-.19,0,.19-1.5.27-.66.7-2.62-1.23-7.33.09-9.61-.97-1.86.13-4.1.26-5.78.29.11-.12,0-.2.32-.16-2.33-.37-1.43,1.13-4.08.72-1.35-.64,1.41-.35.56-.59-.37-1.3-3.2.18-4.98-.58l.43-.08c-1.36-.44-3.32.49-5.55.4,0,0,.11-.11.01-.2-1.52.66-4.4.88-6.54,1.07.67-.51.97-.27.57-.79-.96.07.28.83-1.63.97-.62-.28-2-.52-2.19-1.07l1.81-.03c-.93-.71-2.34.02-3.29-.1l.12-.31c-2.77.1-2.81.89-5.78.83l.31.24c-1.63.78-1.36-.44-2.99.14l-.49-.79c-1.07.19-3.76.76-5.68.91,1.09-.59,3.34-.88,4.74-1.23-1.06,0-3.62.06-4.17.45.43-.08.97-.27,1.39-.15-1.31.62-3.02.93-5.14.91.38-1.53-5.53-.39-7.06-1.57-3.75.57-7.44-.24-11.81-.15,1.55,1.19-1.28.03-1.01,1.26-1.02.08-1.41.06-1.5-.02l-3.08-.73c-.73-.36.97-.27.87-.54-2.23-.09-.93-.52-2.41-.84.3.44-.77.63-2.04.46l1.79.56c-3.11.65-2.69-1.03-5.83-.38l.99-.38c-1.61.23-5.94,0-7.52.97-.28-.14-.66-.48.05-.56-3.85-.15-8.57,1.05-11.56.44l.29-.3c-.72.09-1.25.56-2.15.26.05-.12.29-.3-.04-.32-.38.1-1.91.52-2.86.35l.81-.34c-3.75-.39-5.76.82-8.91,1.02,0-.88-2.95-1.17-4.42-1.31l.05-.12c-4.37-.11-7.43.73-11.47,1.08-2.51-.96-8.51-.4-12.55-.94.62.16-.1.69-.82.77-.95-.18-2.62.61-2.47-.2l.34.02c-.71-.79-2.66-.58-4.18-.6l-.25,1.06c-3.98-1.54-10.42.56-12.59-.81-.96.26-2.15.26-3.1.53l.05-.57c-2.66-.14-3.99-.22-7.28-.08l.67-.4c-1.85-.04-2.34,1.63-4.05,1.67l-.51-.85c-3.24,0-6.51-.73-9.71.04.05-.12.15-.37.67-.4-1.52-.02-5.89-.57-5.34.59-.04-.76-3.34-.07-5.09.26l.27-.56c-1.47.71-1.52.91-3.58,1.1-.49-.07-.43-.45.22-.3-1.63-.29-1.27.53-3.24.23l.73-.36c-1.67-.04-1.54.15-2.46.56-1.05.22-3.17-.14-3.42-.64-.23.31-1.14.72-2.13.57-.13-.19.23-.31.41-.37-2.8-.38-4.16.65-6.08.1-.04-.18-.17-.28-.32-.33,2.22,0,4.01.04,3.84.08,0-.51-1.8-.6-.37-1.31-1.44.39-3.91,1.23-5.66.99-.08-.05-.17-.1-.23-.18l.18-.06c-.4-.05-.77,0-1.11.08-.56-.08-.91-.15-1.45-.15-.21-.42-2.06-.23-2.95-.25.07.56-1.1.47,0,.94-.14-.04.17-.07.76-.09.13-.02.29-.02.38-.06-.02.02-.04.03-.06.05.59-.02,1.35-.03,2.23-.04-.71.29-1.45.53-2.44.21-.46.36-.97.73-1.25.91-1.23-.78-3.59-1.21-3.92-1.69-2.73.32-6.44.21-8.16,1.26-.78.14-.89-.3-1.18-.47.45-.11.98-.09,1.23-.24-1.55.27-4.6.11-4.97.84-1.96-.33,1.1-.68-1.59-.56l.36-.23c-5.29-1.18-8.61,1.88-14.48.37.41.09.61.14.69.26-6.69-.67-13.79.63-20.39-.43-1.88-.21-2.08.26-3.23.62l-.41-.6-1.96.7c-2.78.51-4.81-1.48-8.33-.52l.45.41c-1.26-.08-4,.24-3.79-.23-.13.07-.41.42-.91.21l-.04-.32-3.1.54c-2.4-.23.38-1.25-3.13-1.32-1.3.12-3.71.92-3.22,1.13.53.02,1.35.2,1.38.51l-1.19.16c-.22.93-1.13,1.88,1.79,2.54l2.04-.57.66.45-1.72.03c.97.42,1.59.05,2.28-.21.16.24.45.41.86.5l2-.89c.24.36-.9.72.45.92.94-.41-.9-.82.65-1.09.98.42.69.77,1.84.41.16.24-.08.39-.54.5,1.02-.29,2.7-.12,3.23-.62,1.02.52,3.44-.14,3.34.75.32-.21,1.8-.69,2.73-.73-1.71,1.06,3.51.06,3.05,1.19,1.27-.95,4.58-.42,6.82-.95-.13.08-.37.23-.57.18,1.26.08,1.63.36,2.44.54.16-.78,2.13-.96,3.19-1.45,1.55.76-.94.92-.45,1.65-.08-.64,2.69-.63,2.16-1.16,1.18.47,1.02.23,1.63.88.21-.98,1.1-.17,2.08-.77,1.71.48.44.92,2.32.62.9.3-.78.65-.78.65l.12.17ZM123.37,161.6h0c-.39.02-.71.04-.92.04.19,0,.46-.02.92-.04ZM127.13,161.59c-.46-.02-1.03-.03-1.63-.02-.13-.19.01-.39.39-.38-.21.13.68.24,1.24.41h0ZM119.17,157.69c.6-.08.79.03.88.15-.28,0-.61.03-1.04.07-.02.02-.05.04-.07.07.06-.11.12-.21.24-.28h0Z"/>
      <path class="st5" d="M118.1,158.43c-.09,0-.13.04-.25.04.12.05.24.09.36.13.07-.06.15-.12.21-.18h-.32Z"/>
      <path class="st5" d="M459.08,159.26h-.08c.07,0,.13.03.17.07-.05-.03-.05-.04-.09-.07h0Z"/>
      <polygon class="st5" points="179.07 162.66 179.07 162.52 178.74 162.65 179.07 162.66"/>
      <path class="st5" d="M479.8,161.19s.12.1.27.14c-.01-.04-.13-.09-.27-.14Z"/>
      <path class="st5" d="M488.75,161.32l1.27.2c-.55-.11-.95-.17-1.27-.2Z"/>
      <path class="st5" d="M495.63,161.6c.09-.1.11-.17.13-.24h-.01l-.12.24Z"/>
      <path class="st5" d="M386.23,162.26c-.09,0-.18,0-.27.03-.62.11-.2.07.27-.03Z"/>
      <path class="st5" d="M418.78,160.94c-.35.1-.69.2-1.05.27.58.04,1.03.05,1.05-.27Z"/>
      <path class="st5" d="M349.87,162.93h-.22.22Z"/>
      <path class="st5" d="M416.22,161.2c.58.11,1.06.09,1.51,0-.48-.04-1.03-.1-1.51,0Z"/>
      <path class="st5" d="M525.45,161.85l.33.02s.01-.07.04-.09l-.37.07h0Z"/>
      <path class="st5" d="M525.82,161.78l.37-.07c-.17,0-.32,0-.37.07Z"/>
      <path class="st5" d="M526.96,161.58l-.77.14c.27,0,.6.02.77-.14Z"/>
      <path class="st5" d="M516.34,161.59l-.1.2c.06-.04.09-.11.1-.2Z"/>
      <path class="st5" d="M513.57,161.65c.66.05,1.66.43,2.58.31l.09-.16c-.43.3-2.04-.49-2.66-.15h-.01Z"/>
      <path class="st5" d="M502.02,159.13l2.32.16c-.41-.22-.94-.51.12-.56-2.92-.65.6.49-2.44.4Z"/>
      <path class="st5" d="M494.83,158.82c1.25-.1-.01-.32.05-.44-.79.2-.98.25-.05.44Z"/>
      <path class="st5" d="M442.85,158.81l.13-.51c-.96.07,0,.2-.13.51Z"/>
      <polygon class="st5" points="432.92 161.46 433.85 161.78 434.3 161.31 432.92 161.46"/>
      <polygon class="st5" points="427.05 157.81 427.47 157.74 425.87 157.93 427.05 157.81"/>
      <path class="st5" d="M339.76,158l.29.63c.65-.11.79-.82-.29-.63Z"/>
      <path class="st5" d="M302.08,158.64c-.41-.32-1.47-.52-2.12-.21.85.04,1.69.29,2.12.21Z"/>
      <polygon class="st5" points="189.07 157.61 189.82 157.4 188.39 157.58 189.07 157.61"/>
    </g>
    <g>
      <path d="M79.9,100.84c-.37-.42-.9-.66-1.45-.66-.76,0-1.46.45-1.79,1.15-.33.69-.21,1.49.29,2.07,2.66,3.05,2.94,9.34-.89,13.85-.5.59-.6,1.38-.27,2.07s1.03,1.13,1.78,1.13h0c.56,0,1.09-.25,1.46-.68,2.13-2.51,3.51-5.89,3.79-9.27.3-3.72-.74-7.14-2.93-9.65h0Z"/>
      <path d="M83.45,97.66c-.36-.3-.81-.46-1.28-.46-.84,0-1.6.52-1.89,1.29-.27.73-.05,1.54.57,2.06,2.01,1.66,2.9,4.43,2.82,8.71-.1,5.23-1.79,8.37-3.19,10.08-.48.59-.58,1.38-.24,2.07.33.68,1.03,1.12,1.77,1.12h0c.57,0,1.1-.26,1.47-.71,2.58-3.15,3.97-7.36,4.12-12.49.16-5.33-1.24-9.25-4.15-11.66h0Z"/>
      <path d="M48.89,105.07c-2.04,3.61-1.73,8.06.79,11.33.38.49.96.78,1.59.78h0c.23,0,.45-.04.66-.11.04.98.07,1.95.11,2.9.04,1.05.08,2.11.11,3.16.06,1.52.22,2.86.49,4.1.31,1.42,1.11,2.33,2.43,2.8,1,.35,2.08.36,2.95.36h.64c.68,0,1.36,0,2.04-.02.45,0,.9,0,1.34,0l4.44-.03h.15c.33,0,.67,0,1,0,.36,0,.72,0,1.08,0,.93,0,1.65-.05,2.31-.15,1.38-.21,2.4-1.25,2.8-2.85.26-1.04.33-2.1.39-3.12.03-.42.05-.82.09-1.21l.61-6.29c.09.01.18.02.27.02h0c.63,0,1.21-.28,1.59-.78,2.52-3.27,2.83-7.71.79-11.33-.3-.53-.8-.87-1.38-.96l.33-3.38c.05-.47.11-.95.18-1.46.21-1.57.43-3.2.15-4.82-.36-2.07-2.04-2.87-3.4-3.16,0-1.49,0-2.97-.04-4.44-.02-1.05-.88-1.88-1.95-1.89-.16,0-.36-.01-.57-.03-.27-.02-.58-.04-.89-.04-.44,0-.82.04-1.16.14-.4.11-1.45.39-1.71,2.22-.17,1.18-.29,2.41-.36,3.68-1.83-.05-3.66-.08-5.45-.11-.96-.02-1.92-.03-2.87-.05h-.33c-1.87,0-3.38.33-4.63,1-1.69.91-2.49,2.59-2.4,4.98l.34,7.92c-.26-.11-.53-.18-.82-.18-.71,0-1.33.37-1.68.98l-.03.03ZM51.72,111.82c-.25-.93-.29-1.9-.12-2.85l.12,2.85Z"/>
      <path d="M43.62,110.89c.27,3.38,1.66,6.76,3.79,9.27.37.43.9.68,1.46.68h0c.75,0,1.45-.44,1.78-1.13.33-.69.23-1.48-.27-2.07-3.83-4.51-3.55-10.8-.89-13.85.51-.58.62-1.38.29-2.07-.33-.7-1.03-1.15-1.79-1.15-.55,0-1.08.24-1.45.66-2.19,2.51-3.23,5.93-2.93,9.65h.01Z"/>
      <path d="M42.97,122.21c.37.45.9.71,1.47.71h0c.74,0,1.43-.44,1.77-1.12s.24-1.48-.24-2.07c-1.99-2.43-3.07-5.83-3.19-10.09-.13-4.18.8-7.02,2.82-8.69.62-.51.84-1.32.57-2.06-.29-.77-1.05-1.29-1.89-1.29-.46,0-.92.16-1.28.46-2.9,2.4-4.26,6.21-4.15,11.65.1,5,1.52,9.33,4.12,12.5Z"/>
      <path class="st1" d="M78.59,98.64c-.37-.42-.9-.66-1.45-.66-.76,0-1.46.45-1.79,1.15-.33.69-.21,1.49.29,2.07,2.66,3.05,2.94,9.34-.89,13.85-.5.59-.6,1.38-.27,2.07s1.03,1.13,1.78,1.13h0c.56,0,1.09-.25,1.46-.68,2.13-2.51,3.51-5.89,3.79-9.27.3-3.72-.74-7.14-2.93-9.65h0Z"/>
      <path class="st1" d="M82.14,95.46c-.36-.3-.81-.46-1.28-.46-.84,0-1.6.52-1.89,1.29-.27.73-.05,1.54.57,2.06,2.01,1.66,2.9,4.43,2.82,8.71-.1,5.23-1.79,8.37-3.19,10.08-.48.59-.58,1.38-.24,2.07.33.68,1.03,1.12,1.77,1.12h0c.57,0,1.1-.26,1.47-.71,2.58-3.15,3.97-7.36,4.12-12.49.16-5.33-1.24-9.25-4.15-11.66h0Z"/>
      <path class="st1" d="M47.58,102.87c-2.04,3.61-1.73,8.06.79,11.33.38.49.96.78,1.59.78h0c.23,0,.45-.04.66-.11.04.98.07,1.95.11,2.9.04,1.05.07,2.11.11,3.16.06,1.52.22,2.86.49,4.1.31,1.42,1.11,2.33,2.43,2.8,1,.35,2.08.36,2.95.36h.64c.68,0,1.36,0,2.04-.02.45,0,.9,0,1.34,0l4.44-.03h.15c.33,0,.67,0,1,0,.36,0,.72,0,1.08,0,.93,0,1.65-.05,2.31-.15,1.38-.21,2.4-1.25,2.8-2.85.26-1.04.33-2.1.39-3.12.03-.42.05-.82.09-1.21l.61-6.29c.09.01.18.02.27.02h0c.63,0,1.21-.28,1.59-.78,2.52-3.27,2.83-7.71.79-11.33-.3-.53-.8-.87-1.38-.96l.33-3.38c.05-.47.11-.95.18-1.46.21-1.57.43-3.2.15-4.82-.36-2.07-2.04-2.87-3.4-3.16,0-1.49,0-2.97-.04-4.44-.02-1.05-.88-1.88-1.95-1.89-.16,0-.36-.01-.57-.03-.27-.02-.58-.04-.89-.04-.44,0-.82.04-1.16.14-.4.11-1.45.39-1.71,2.22-.17,1.18-.29,2.41-.36,3.68-1.83-.05-3.66-.08-5.45-.11-.96-.02-1.92-.03-2.87-.05h-.33c-1.87,0-3.38.33-4.63,1-1.69.91-2.49,2.59-2.4,4.98l.34,7.92c-.26-.11-.53-.18-.82-.18-.71,0-1.33.37-1.68.98l-.03.03ZM50.41,109.62c-.25-.93-.29-1.9-.12-2.85l.12,2.85Z"/>
      <path class="st1" d="M42.31,108.7c.27,3.38,1.66,6.76,3.79,9.27.37.43.9.68,1.46.68h0c.75,0,1.45-.44,1.78-1.13.33-.69.23-1.48-.27-2.07-3.83-4.51-3.55-10.8-.89-13.85.51-.58.62-1.38.29-2.07-.33-.7-1.03-1.15-1.79-1.15-.55,0-1.08.24-1.45.66-2.19,2.51-3.23,5.93-2.93,9.65h.01Z"/>
      <path class="st1" d="M41.66,120.02c.37.45.9.71,1.47.71h0c.74,0,1.43-.44,1.77-1.12s.24-1.48-.24-2.07c-1.99-2.43-3.07-5.83-3.19-10.09-.13-4.18.8-7.02,2.82-8.69.62-.51.84-1.32.57-2.06-.29-.77-1.05-1.29-1.89-1.29-.46,0-.92.16-1.28.46-2.9,2.4-4.26,6.21-4.15,11.65.1,5,1.52,9.33,4.12,12.5Z"/>
      <g>
        <path d="M52.17,94.08c-.05-1.29.14-2.3,1.36-2.96.97-.53,2.21-.57,3.3-.58,2.97-.03,5.95.15,8.92.22,1.47.04,2.94.07,4.4.11.63.02,1.24.03,1.85.19.92.24,1.17,1.09,1.2,1.91.05,1.29-.21,2.64-.33,3.93-.15,1.56-.3,3.13-.45,4.69-.58,6.01-1.16,12.02-1.75,18.03-.14,1.44-.28,2.88-.42,4.33-.07.74-.18,1.49-1.01,1.74-.77.22-1.81.06-2.6.06-3.01.02-6.01.03-9.02.06-.97,0-1.95.03-2.9-.18-1.39-.31-1.3-2.62-1.38-3.72-.24-3.03-.23-6.1-.36-9.14-.27-6.23-.53-12.45-.8-18.68-.03-.59-.96-.59-.94,0,.26,5.99.51,11.97.77,17.96.13,2.94.22,5.89.33,8.83.05,1.29.18,2.58.46,3.85.19.88.61,1.43,1.47,1.73.8.28,1.75.27,2.59.28,1.29,0,2.57-.02,3.86-.03,1.48,0,2.96-.02,4.44-.03,1.42,0,2.92.11,4.33-.1.91-.14,1.38-.96,1.58-1.75.33-1.31.31-2.77.44-4.11.29-3.01.58-6.01.87-9.02.44-4.57.88-9.14,1.33-13.7.18-1.9.67-4,.34-5.9-.27-1.59-1.83-2.04-3.25-2.11-4.56-.23-9.15-.26-13.72-.35-1.43-.03-2.93.13-4.21.81-1.4.76-1.68,2.19-1.63,3.64.02.59.96.59.94,0h-.01Z"/>
        <path d="M67.79,90.32c.02-1.31.1-2.62.23-3.93.02-.19.18-1.66.17-1.66.64-.04,1.29,0,1.93.01l-.47-.46c.05,1.95.06,3.9.03,5.86,0,.59.93.59.94,0,.02-1.95.01-3.9-.03-5.86,0-.25-.21-.46-.47-.46-.68,0-1.56-.16-2.22.01-.51.14-.57.56-.63,1.01-.26,1.82-.39,3.64-.42,5.48,0,.59.93.59.94,0h0Z"/>
        <path d="M67.72,87.02h2.15c.6,0,.6-.92,0-.92h-2.15c-.6,0-.6.92,0,.92h0Z"/>
        <path d="M53.78,93.77c-.13,3.01-.09,6.02.13,9.03.1,1.35.22,2.71.41,4.06.19,1.29.97,1.48,2.17,1.66,2.91.43,5.85.71,8.79.86,1.21.06,2.6.28,3.79,0,1.05-.24,1.19-1.59,1.36-2.41.59-2.82,1.01-5.68,1.3-8.54.13-1.27.35-2.61.22-3.88-.1-.96-.62-1.47-1.58-1.58-3.01-.34-6.09-.39-9.12-.55-1.46-.08-2.92-.15-4.38-.21-1.07-.05-2.05.09-2.76.94-.31.38-.42.81-.49,1.28-.08.58.86.58.94,0,.21-1.53,1.88-1.32,3.04-1.27,1.22.05,2.43.11,3.65.18,2.43.13,4.86.27,7.3.43.61.04,1.22.08,1.82.12.77.05.68.92.68,1.45-.02,1.15-.17,2.31-.29,3.45-.25,2.43-.63,4.85-1.09,7.25-.11.54-.22,1.09-.34,1.63-.18.8-.77.9-1.51.89-1.21-.03-2.42-.08-3.62-.16-2.49-.15-4.98-.42-7.45-.77-.89-.13-1.41-.23-1.54-1.26-.07-.59-.14-1.19-.2-1.78-.12-1.2-.2-2.39-.27-3.59-.13-2.41-.12-4.82-.02-7.23.03-.59-.91-.59-.94,0h0Z"/>
        <path d="M54.94,111.72c4.65-.01,9.29.17,13.93.55-.16-.15-.31-.31-.47-.46-.08,1.65-.2,3.3-.35,4.94-.08.82-.16,1.64-.26,2.46-.05.47-.11.94-.17,1.41-.06.49.09,1.3-.52,1.34-3.7.25-7.41.51-11.11.76.16.15.31.31.47.46-.05-3.92-.37-7.82-.94-11.69-.09-.58-.99-.33-.9.24.55,3.79.85,7.62.9,11.45,0,.24.21.48.47.46,2.1-.14,4.2-.29,6.29-.43.99-.07,1.97-.14,2.96-.2l1.48-.1c.33-.02.85.03,1.16-.14.53-.3.5-.9.58-1.44.14-1.05.27-2.11.38-3.16.23-2.11.39-4.23.5-6.35.01-.26-.22-.44-.47-.46-4.63-.38-9.28-.56-13.93-.55-.6,0-.6.92,0,.92h0Z"/>
        <path d="M55.56,115.88c4.31-.12,8.61-.01,12.91.31.6.04.6-.87,0-.92-4.3-.32-8.6-.42-12.91-.31-.6.02-.6.93,0,.92h0Z"/>
        <path d="M56,120.17c3.98-.29,7.98-.45,11.97-.47.6,0,.6-.92,0-.92-4,.02-7.99.18-11.97.47-.6.04-.6.96,0,.92h0Z"/>
        <path d="M65.06,111.7c-.57,3.55-.9,7.13-.97,10.73-.01.59.92.59.94,0,.07-3.51.38-7.01.94-10.48.09-.58-.81-.83-.9-.24h-.01Z"/>
        <path d="M59.58,111.56c.08,3.6.16,7.2.24,10.8,0,.59.95.59.94,0-.08-3.6-.16-7.2-.24-10.8,0-.59-.95-.59-.94,0h0Z"/>
        <path d="M74.13,103.64c1.58,2.8,1.29,6.27-.67,8.81-.36.47.45.93.81.46,2.16-2.8,2.4-6.67.67-9.74-.29-.52-1.1-.06-.81.46h0Z"/>
        <path d="M76.8,100.24c3.79,4.33,2.66,11.58-.88,15.74-.38.45.28,1.1.66.65,3.88-4.57,5.02-12.29.88-17.03-.39-.45-1.05.2-.66.65h0Z"/>
        <path d="M80.51,97.23c2.91,2.41,3.42,6.33,3.35,9.85-.08,3.87-1,7.89-3.52,10.97-.37.46.28,1.11.66.65,2.7-3.3,3.67-7.46,3.8-11.61.11-3.73-.55-7.96-3.62-10.5-.46-.38-1.12.27-.66.65h-.01Z"/>
        <path d="M48.89,103.58c-1.73,3.06-1.48,6.94.67,9.74.36.47,1.17,0,.81-.46-1.96-2.54-2.25-6.01-.67-8.81.29-.52-.52-.98-.81-.46h0Z"/>
        <path d="M46.37,100c-4.14,4.74-3.01,12.46.88,17.03.39.45,1.04-.2.66-.65-3.53-4.16-4.66-11.4-.88-15.74.39-.45-.27-1.1-.66-.65h0Z"/>
        <path d="M42.66,96.98c-3.09,2.56-3.7,6.75-3.62,10.5.08,4.14,1.11,8.34,3.8,11.61.38.46,1.03-.19.66-.65-2.54-3.1-3.4-7.08-3.52-10.97-.11-3.51.46-7.46,3.35-9.85.46-.38-.2-1.03-.66-.65h0Z"/>
        <path d="M56.15,106.6c-.31-2.62-.51-5.24-.59-7.87-.04-1.21-.36-2.96.18-4.08.57-1.18,4.01-.44,4.97-.31.29.04.42-.4.12-.44-1.35-.19-2.83-.46-4.19-.22-1.23.22-1.57,1.03-1.59,2.17-.05,3.58.22,7.19.64,10.74.03.29.5.29.47,0h-.01Z"/>
        <path d="M61.84,94.4c3.19.29,6.39.54,9.59.76.3.02.3-.44,0-.46-3.2-.22-6.4-.47-9.59-.76-.3-.03-.3.43,0,.46h0Z"/>
        <path d="M68.37,101.48c.12,2.15-1.33,3.73-2.87,5.06-.23.2.11.52.33.32,1.63-1.41,3.14-3.12,3.01-5.38-.02-.29-.48-.3-.47,0h0Z"/>
        <path d="M55.81,93.12c.26.26.52.53.78.79.21.21.54-.11.33-.32-.26-.26-.52-.53-.78-.79-.21-.21-.54.11-.33.32h0Z"/>
        <path d="M56.76,93.17c.19.2.38.4.57.6.21.22.54-.11.33-.32-.19-.2-.38-.4-.57-.6-.21-.22-.54.11-.33.32h0Z"/>
        <path d="M57.56,93.17c.25.27.49.6.81.79.26.15.5-.25.24-.4-.12-.07-.21-.18-.31-.28-.13-.15-.27-.29-.4-.44-.2-.22-.53.11-.33.32h0Z"/>
        <path d="M58.58,93.35c.11,0,.26.21.34.28.14.13.28.26.41.4.22.21.55-.12.33-.32-.17-.17-.34-.33-.52-.5-.17-.16-.32-.31-.57-.32-.3,0-.3.45,0,.46h0Z"/>
        <path d="M61.91,93.28c.13.17.27.34.4.5.08.1.25.08.33,0,.1-.1.08-.23,0-.32-.13-.17-.27-.34-.4-.5-.08-.1-.25-.08-.33,0-.1.1-.08.23,0,.32h0Z"/>
        <path d="M62.75,93.37c.27.35.52.7.77,1.06.17.24.57.02.4-.23-.25-.36-.5-.71-.77-1.06-.18-.23-.59,0-.4.23h0Z"/>
        <path d="M63.82,93.36c.35.29.58.69.87,1.04.19.23.52-.1.33-.32-.29-.35-.52-.75-.87-1.04-.23-.19-.56.13-.33.32h0Z"/>
        <path d="M65.09,93.55c.26.32.51.68.81.97.22.21.55-.12.33-.32-.3-.29-.55-.65-.81-.97-.19-.23-.52.1-.33.32h0Z"/>
        <path d="M66.44,93.63c.15.15.28.31.4.49.12.19.2.39.36.55.21.21.54-.11.33-.32-.14-.14-.22-.35-.33-.51-.12-.19-.27-.36-.43-.52-.21-.21-.54.11-.33.32h0Z"/>
        <path d="M67.56,93.74c.16.11.28.35.39.51.13.18.25.36.37.55.16.25.56.02.4-.23-.15-.23-.3-.46-.46-.68-.14-.19-.27-.41-.46-.54-.25-.17-.48.23-.24.4h0Z"/>
        <path d="M68.72,93.63c.33.41.69.81,1.06,1.19.21.21.54-.11.33-.32-.37-.38-.72-.78-1.06-1.19-.19-.23-.52.09-.33.32h0Z"/>
        <path d="M70.07,93.8c.26.2.57.42.68.74.1.28.55.16.45-.12-.15-.41-.46-.68-.8-.94-.1-.08-.23-.1-.33,0-.08.08-.1.25,0,.32h0Z"/>
        <path d="M54.07,97.75c.12.27.3.52.52.72.22.2.55-.12.33-.32-.2-.18-.34-.39-.45-.63-.05-.11-.22-.14-.32-.08-.12.07-.13.2-.08.31h0Z"/>
        <path d="M54.11,99.39c.32.37.65.73.99,1.09.21.22.54-.11.33-.32-.34-.35-.67-.72-.99-1.09-.2-.23-.52.1-.33.32h0Z"/>
        <path d="M54.35,101.38c.33.2.56.56.8.85.19.23.52-.1.33-.32-.27-.33-.53-.69-.9-.92-.26-.16-.49.24-.24.4h.01Z"/>
        <path d="M54.49,102.81c.29.12.55.37.73.61.08.1.2.15.32.08.1-.06.16-.21.08-.31-.23-.31-.54-.62-.9-.78-.12-.05-.25-.04-.32.08-.06.1-.03.26.08.31h0Z"/>
        <path d="M67.68,85.33c.76-.04,1.51-.02,2.27.05.3.03.3-.43,0-.46-.76-.07-1.51-.09-2.27-.05-.3.01-.3.47,0,.46h0Z"/>
        <path d="M67.85,86.06c.73-.05,1.46-.03,2.18.07.29.04.42-.4.12-.44-.77-.1-1.53-.14-2.31-.09-.3.02-.3.48,0,.46h0Z"/>
        <path d="M67.54,87.63h.7c.3,0,.3-.46,0-.46h-.7c-.3,0-.3.46,0,.46h0Z"/>
        <path d="M67.45,88.18c.44,0,.87,0,1.31.03.3.01.3-.44,0-.46-.44-.02-.87-.03-1.31-.03-.3,0-.3.46,0,.46h0Z"/>
        <path d="M67.46,88.74c.59.09,1.19.15,1.79.2.3.02.3-.43,0-.46-.56-.04-1.11-.1-1.67-.19-.29-.04-.42.4-.12.44h0Z"/>
        <path d="M67.59,89.59c.79.03,1.57.12,2.34.26.29.05.42-.39.12-.44-.82-.15-1.64-.24-2.47-.27-.3-.01-.3.45,0,.46h.01Z"/>
        <path d="M67.98,84.61c-.15.2-.25.41-.32.65-.04.15.12.35.29.28.4-.16.75-.36,1.08-.63-.12-.02-.24-.03-.37-.05,0,.01.02.02.02.04v-.23c-.08.16-.29.3-.41.42-.14.14-.28.27-.42.41-.14.14-.04.4.17.39.29,0,.5-.18.74-.32.3-.18.59-.35.89-.53-.09-.12-.19-.24-.28-.36-.39.43-.75.88-1.08,1.36-.1.14.03.36.2.34.25-.02.4-.15.6-.29.26-.19.53-.38.79-.57-.11-.03-.21-.05-.32-.08,0,0-.27.54-.3.61-.12.27.28.5.4.23.13-.28.5-.77.3-1.07-.06-.1-.21-.16-.32-.08-.19.14-.38.27-.56.41-.15.11-.4.38-.59.4.07.11.13.23.2.34.31-.44.64-.86,1-1.27.17-.19-.05-.5-.28-.36-.21.13-.42.25-.64.38-.2.12-.52.4-.76.41.06.13.11.26.17.39.24-.24.49-.48.73-.72.14-.14.27-.28.15-.47-.08-.13-.25-.14-.37-.05-.26.22-.55.39-.87.52l.29.28c.06-.2.15-.37.27-.54.18-.24-.23-.47-.4-.23h0Z"/>
        <path d="M64.69,92.17c.6,0,.6-.92,0-.92s-.6.92,0,.92h0Z"/>
        <path d="M62.85,91.96c.6,0,.6-.92,0-.92s-.6.92,0,.92h0Z"/>
        <path d="M60.73,91.84c.6,0,.6-.92,0-.92s-.6.92,0,.92h0Z"/>
        <path d="M56.24,109.5c1.3.09,2.6.23,3.89.44.29.05.42-.39.12-.44-1.33-.21-2.67-.36-4.02-.45-.3-.02-.3.44,0,.46h.01Z"/>
        <path d="M61.38,110.01c.26,0,.52.02.78.06.29.05.42-.39.12-.44s-.6-.08-.9-.08-.3.46,0,.46h0Z"/>
        <path d="M67.56,110.62c.68,0,1.51.15,2.13-.19.58-.31.95-.94,1.13-1.54.09-.28-.36-.4-.45-.12-.16.52-.46.95-.92,1.26-.43.3-1.38.13-1.89.13-.3,0-.3.46,0,.46h0Z"/>
        <path d="M68.96,120.37c-.06.62-.11,1.25-.2,1.88-.14.99-1.05,1.24-1.91,1.42-.3.06-.17.5.12.44.79-.16,1.48-.37,1.97-1.02.5-.67.4-1.94.47-2.72.03-.29-.44-.29-.47,0h.02Z"/>
        <path d="M56.24,112.39c.61-.01,1.23,0,1.84,0,.3,0,.3-.45,0-.46-.61-.02-1.23-.02-1.84,0-.3,0-.3.46,0,.46h0Z"/>
        <path d="M61.1,112.56c.61.02,1.23.06,1.84.11.3.02.3-.43,0-.46-.61-.05-1.22-.09-1.84-.11-.3-.01-.3.45,0,.46h0Z"/>
        <path d="M66.31,112.79c.35-.01.71,0,1.06.06.29.04.42-.4.12-.44-.39-.06-.79-.09-1.18-.07-.3.01-.3.47,0,.46h0Z"/>
        <path d="M66.5,115.72c.3,0,.3-.46,0-.46s-.3.46,0,.46h0Z"/>
        <path d="M66,116.76c.31-.04.61-.02.91.06.29.07.42-.37.12-.44-.38-.1-.77-.11-1.16-.06-.3.04-.17.48.12.44h0Z"/>
        <path d="M61.01,116.56l1.22.03c.3,0,.3-.45,0-.46-.41,0-.81-.02-1.22-.03-.3,0-.3.45,0,.46h0Z"/>
        <path d="M56.61,116.57h1.28c.3,0,.3-.46,0-.46h-1.28c-.3,0-.3.46,0,.46h0Z"/>
        <path d="M56.86,120.81h1.28c.3,0,.3-.46,0-.46h-1.28c-.3,0-.3.46,0,.46h0Z"/>
        <path d="M61.26,120.59c.43,0,.85.02,1.28.03.3,0,.3-.45,0-.46-.43,0-.85-.02-1.28-.03-.3,0-.3.45,0,.46h0Z"/>
        <path d="M65.56,120.39h1.06c.3,0,.3-.46,0-.46h-1.06c-.3,0-.3.46,0,.46h0Z"/>
        <path d="M53.09,122.92h.62c.3,0,.3-.46,0-.46h-.62c-.3,0-.3.46,0,.46h0Z"/>
        <path d="M53.18,123.53c.32.01.64,0,.97-.03.3-.03.3-.49,0-.46-.32.03-.64.04-.97.03-.3-.01-.3.44,0,.46h0Z"/>
        <path d="M53.12,124.22c.52.03,1.04.04,1.56.03.3,0,.3-.46,0-.46-.52,0-1.04,0-1.56-.03-.3-.02-.3.44,0,.46h0Z"/>
        <path d="M53.34,124.89c.85.06,1.69.01,2.53-.14.3-.05.17-.5-.12-.44-.8.15-1.59.19-2.4.13-.3-.02-.3.44,0,.46h0Z"/>
        <path d="M53.78,125.58c1.1.12,2.2.12,3.31,0,.3-.03.3-.49,0-.46-1.1.12-2.2.13-3.31,0-.3-.03-.3.42,0,.46h0Z"/>
      </g>
    </g>
  </g>
  <g class="st7">
    <text class="st2" transform="translate(92.45 115.72) scale(1.02 1)"><tspan x="0" y="0">Insert Your Mobile Number</tspan></text>
  </g>
  <g class="st7">
    <path class="st5" d="M535.3,159.06c.25-.16.11-.51-.58-.45l-.49.6,1.07-.16h0Z"/>
    <path class="st5" d="M530.65,157.94c-.81.29-1.74.81-1.22,1.36.81-.58,1-.34,1.86-1.03.69-.07,1.21.19,1.09.42.25-.16,1.07.13,1.45-.25-.9-.47-2.04-.49-3.23-.1-.25-.13,0-.29.05-.4h0Z"/>
    <path class="st5" d="M463.17,157l.43.07c-.12-.04-.27-.06-.43-.07Z"/>
    <path class="st5" d="M421.36,156.68c.32-.01.45-.08.47-.13-.3.04-.54.08-.47.13Z"/>
    <path class="st5" d="M414.21,156.01c.16.02.28.03.42.04-.16-.05-.32-.09-.42-.04Z"/>
    <path class="st5" d="M463.17,157l-1.12-.19c-.07.2.57.14,1.12.19Z"/>
    <path class="st5" d="M521.35,159.4c.23-.03.42-.08.6-.16-.19.03-.38.05-.57.06,0,.03-.02.06-.04.1Z"/>
    <path class="st5" d="M481.6,156.52h.34c.1-.07.19-.15.28-.25l-.62.25h0Z"/>
    <path class="st5" d="M495.75,156.42c-.32-.02-.43.49-.55.71.18-.21.42-.31.7-.35,0-.1-.04-.21-.14-.36h0Z"/>
    <path class="st5" d="M518.17,157.33l.4-.07c-.1.02-.28.04-.4.07Z"/>
    <path class="st5" d="M471.48,156.4c-.02-.08-.07-.14-.13-.18,0,.06.05.12.13.18Z"/>
    <path class="st5" d="M75.83,160.25s0-.06,0-.09c-.08.05-.1.09,0,.09Z"/>
    <path class="st5" d="M59.42,157.72l.22-.03c.02-.1.05-.19.05-.29l-.28.32h0Z"/>
    <path class="st5" d="M401.15,155.35h.06c.34-.06.15-.05-.06,0Z"/>
    <path class="st5" d="M281.21,155.73c1.36.46-2.21.59-.16,1.1-.19-.2,1.86-.8.16-1.1Z"/>
    <path class="st5" d="M520.98,159.33h-.58c.26.01.44.01.58,0Z"/>
    <path class="st5" d="M281.05,156.83h0l.21.05c-.09-.02-.13-.03-.21-.05Z"/>
    <path class="st5" d="M371.05,155.66c.06.09.18.16.31.23,0-.05-.08-.12-.31-.23Z"/>
    <path class="st5" d="M393.47,156.39l-.55-.07c.22.05.4.06.55.07Z"/>
    <path class="st5" d="M359.4,156.38c-.3-.04-.4-.11-.81-.04.04.03.07.04.13.06.15-.07.35-.1.69-.02h0Z"/>
    <path class="st5" d="M347.28,156.39c.07.04.15.07.22.1.12,0,.26-.02.39-.03l-.61-.08h0Z"/>
    <path class="st5" d="M112.65,160.01c-.27-.14-.43-.3-.56-.46.19.36-1.6.49.56.46Z"/>
    <path class="st5" d="M521.34,159.11c-.07.13-.17.19-.36.22.14,0,.28-.01.4-.03.04-.08.04-.15-.04-.19h0Z"/>
    <path class="st5" d="M358.91,160.42l-1.92-.08c.54.05,1.24.08,1.92.08Z"/>
    <path class="st5" d="M199.6,159.94l-.44.06c.17.01.33,0,.44-.06Z"/>
    <path class="st5" d="M351.27,160.42c-.34-.18-.71-.29-1.08-.36-.08.04-.17.08-.22.13l1.3.22h0Z"/>
    <path class="st5" d="M112.1,159.54h0Z"/>
    <path class="st5" d="M99.41,160.76c1.83.01.86-.66,1.25-1.05,2.19-.19,1.01.49,1.76.84,1.36-.18,2.42-.79,3.44-.77.07.11.28.15.04.29,1.45-.53,4.29-.03,5.98-.7.13.06.19.12.22.16-.28-.34-.31-.68-.26-.92.82-.01,1.53-.42,1.83.01-.51-.01-.54.16-.78.3l.86-.19c.78.63-1.18.22-1.18.69,1.68-.21,3.64-.73,4.93-.55.27.62-3.01.21-1.29.76l-1.99-.23c1.52.97-1.21-.07.19.97,2.62.18,2.93-.32,5.55-.14.59-.34-.19-.51.4-.85,3.72-.62,2.93,1.56,5.66.73.71-.41.98-1.19,2.93-.78l-.66.7c2.54.07,1.45-1.01,4.11-.53-.47.27-2,.23-1.61.32,1.72.55,1.22-.4,2.54-.4l.28.62c2.71-.1,5.68-.55,8.68-.66-.16.18-.68.38.02.57,3.77-.31,8.06.08,11.7.45l1.39-.53c.32,0,.6.24.25.34,1.42.21.07-.34.75-.55.81-.03,1.07.31.55.47,2.5-.45,7.13-.98,9.77-.4l-.51.16c2.06.22,2.32-1.1,4.23-.6l-.37.1c4.46.23,9.39-.26,12.79.55.65-.77,4.41.34,4.7-.73,2.55.53,1.82.73,5.4,1.08.95.05,1.42-.67,2.61-.78l.03.56,1.61-.59.86.67,1.11-.14c-.44-.03-.94-.25-.87-.41,1.74-.25,4.23.39,4.27.68l4.11-.47c-.09.23-.78.3-1.32.45,2.19-.58.4.59,2.41.07-.27-.13.15-.34.19-.45,1,.34,3.28.34,4.97.2l-.32.38c3.04.1,6.42-.18,9.83-.18-1.22-.18-.95-.85.06-.92l.4.6c.65-.37-1.04-.23.28-.67,1.27.07.86.68.13.87l1.55-.21c.09.18-.28.27-.37.49.63-.37,2.68.6,3.6-.04l.09.18c3.41,0,4.97-.2,7.75-.23.05-.51,1.14-.4,1.97-.82,2.04.16,4.32.57,6.78.52,1.73-.25.51-.43,1.28-.74.13.47,2.59.42,1.31.76,2.96-.08,3.78-.1,7.51-.47-.4-.19-.86-.27-.63-.43.68-.08,1.54.2,1.45.42l-.18.05c4.2-.7,9.69,1.36,13.03.39l-.19.05,3.47-.51c1.6.08-.95.35.22.64,3.74-.78,5.9.11,8.99-.4,2.39,1.38,8.46-.1,11.67.78l-.19-.32c.83-.32,1.01.18,1.62.26-.09-.25-.9-.29-.39-.47,7.05-.39,14.54.47,21.76.77,2.64.09,1.5-1.68,4.83-.9l-.95.6c5.33-.72,10.9.03,16.12-.59-.31.14-.32.32-.83.32,1.1.44,4.08.02,4.09-.34.81.04.19.32.69.51,1.1.26,2.77-.55,3.36-.12.1.07-.31.14-.51.18.72-.21,3.35.05,2.67-.45,1.96.24,3.75-.23,5.31.08,1.02-.56,3.35.27,3.68-.53-.14.82,3.44.66,4.67.27-.42.25,1.07.26.59.6,1.42-.01,2.71-.16,2.46-.59,2.6.99,5.23-.79,6.7.47,4.2-.45,8.08-.74,11.86-.94-.13.82-4.17.08-4.01.95,3.59-.34,5.65-1.04,9.2-.84.92.11-.52.36-.83.5,3.58-.34,6.92.08,10.1-.37,0,.08-.35.16-.68.23.63-.03,1.46.12,1.39-.25l-.61.1c-1-.54,2.49-1.13,2.6-1.42-1.07,1.07,3.15.27,1.45,1.62.41-.07.93-.25.83-.5.61.08.81.22.19.5,2.25-.21,1.45-.6,3.49-.59,0,.18-.42.25-.63.47,1.03-.35,2.07-.71,3.79-.55-.1.11.1.25-.42.25,2.96-.05,5.04-.94,8.28-.6-.95.79,1.1.26,1.27.94l1.74-.21-.7-.33c1.53.01,2.88-.49,4.19-.26l-1.13.28,2.86-.13-1.62-.26c1.54-.35-.16-.86,1.87-.67-.41.07,1.53,0,2.33.41h0c.75-.22,1.54-.45,2.66-.27.29.22-.24.75-.04.9.75-.57,3.58-.16,4.52-.76-.31.14-.33.5-.23.58l.63-.46c.71.15.81.22.69.51,2.12.08-.68-.86,1.85-.49-.2.03-.1.11-.51.18,2.53.19,4.9-.29,7.23-.07.69.69-2.04.16-1.25.75,3.36-.12,6.96-.82,10.21-.66l-.6-.08c.45-.97,2.42.48,4.07.02-.4.07-.53.53-.42.43,2.23.16,4.56-.24,7.93-.54l-.42.25c1.31.22,3.46.13,4.88.24.42-.25,1.23-.21.74-.57,4.37,1.41,8.34-.76,12.22.42-.46,0-1.1.22-.74.22l3.3-.23c-.26-.42-.43-.25-1.13-.58.42-.25,1.35-.45,2.17-.45-1.48.28.01.68.66.91-.1-.13.11-.27.06-.4,1.73.75.29-.85,2.65-.34l-.13.22c.88-.11,1.69-.4,2.65-.34.4.49-.94.23-1,.63,1.33-.03,2.64-.92,3.85-.44-.57.14-1.39.14-1.95.27,1.32.57,1.47.42,2.45.52h-.1s2.26.25,2.26.25l-.57-.16c1.67-1.27,3.41-.23,5.66-1.06-2.19.79-.37.45-.53,1.01.57.15,1.45.32,1.2.48,1.07-.45,1.77.35,3.28-.3.07.18,1.14.02.9.47,1.39-.14-.33-.31-.21-.53,2.13-.61,5.02.73,8.08-.1,2.65-.34,3.14-.95,5.59-1.24.83.28-.68.64-.68.64,1.33.26,2.34.21,3.6,0-.25.16,0,.29.4.49,1.01-.05.68-.64,2.01-.38-.23.2-.52.51-1.01.71,1.19-.16,2.37-.49,3.6-.66.33.31-.75.47-1.18.67,1.39-.14,3.59-.28,4.02-.77l-.89-.18c.51-.02.26.42-.11.51-1.19.38-1.71-.17-1.78-.35l.88-.12c-.9-1.04-3.53.16-5.29.11l.74-.76-1.81.63c-.39-.2-.65-.62.22-.73-1.27-.38-1.13.27-2.21-.15-.12-.06-.07-.1.04-.13l-1.24.23c.25-.16-.21-.53.55-.42-2.22-.44-3.59.57-4.42,0l.19-.05c-3.09.25-.3.55-2.61,1.21l-1.56-1.37-.31.55c-.32-.02-.95-.06-.83-.28-1.19.38.2.24-.48.6-1.53-.51-4.22.24-4.57-.65-.55.42,1.46.33-.17.62-.47-.95-1.89.16-3.29-.27.43-.49,1.75-.23.36-.67-.84.83-2.72-.18-3.91-.02-.05.66-2.56.27-4.55.5.13-.23-3.73-.36-5.57-.6l.05-.11c-.36.67-2.26.54-3.64.68.05-.4.31-.55,1.05-.74h-1.3c-.31.22-.72.33-1.56.4l.33-.5c-1.73.03-3.49.59-5.72.25-.13.47,1.77,1.3-.58,1.61-.09-.25-.17-.69.44-.79-.2.03-.72.21-1.13.1l.94-.42c-1.01-.18-.53.36-1.34.32.01-.36-.6-.25-.48-.54.21-.03.71.15,1.02,0-.92-.06-2.02-.28-2.39-.55.08.21,0,.49-.67.53-1.73.03-.59-.43-1.6-.62-.42.25-1.52,0-1.55.53-.51,0-.6-.25-.8-.4-.89.24-4.18.07-3.18.64l.23.04s-.1.01-.15.02h0c-2.94.53-6.1-.3-9.01-.08v-.18c-1.74.21-3.87.12-5.11.51-.51,0-1.22-.33-.99-.54-1.33.14-1.48.34-3.4.04,1.33-.32-.46-.28,1.37-.23-1.73-.16-2.12-.45-3.97.05.63-.46-1.3-.58-2.12-.45l1.21.33c-.92.07-1.73.03-2.55-.01l.45-.6c-3.53-.74-6.37,1.25-9.07.02-.93.42,1.92.3,1.08.79-1.63-.08-3.32-.95-3.83-.95-2.23-.34-2.08.88-4.41.66.3.21.58.79-1.16.99-1.63-.08-2-.9-.98-1.08.39-.02.58.05.56.12.53-.08,1.22-.17.57-.4l-.21.22c-.81-.22-3.05-.2-2.52-.55-1.23.21-.53.36.39.47-2.09-.32-3.26,0-5.41-.22.34.12.66.37.31.37-3.15-.27-1.39.41-3.53.51-1.22-.33.43-.79-1.71-.51-1.31-.23-.28-.58.25-.75-1.96.42-3.66-.27-4.78-.35l1.03-.17c-.62.1-1.13.1-1.64.1l.59.43c-.6-.08-1.12-.08-1.11-.26-.63.28.48.72-.76,1.11-.81-.22-2.46.23-2.74-.34,2.54.19-.28-.58,1.87-.67-.42.07-.92.07-1.53,0-.09-.06.09-.12.25-.15-2.43-.51-1.12.65-3.64.64.32-.32-.58-.62-.99-.54,1.01,0,.48.54-.45.79-1.62-.25-1.75.18-2.6.16l.96.12c-.33.32-1.13.28-2.26.38-.1-.25,1.02-.17.62-.28-1.25.57-2.83-.59-4.57-.21-.81-.22-.07-.61-.79-.75-1.95.42-2.12-.45-4.17-.1.59.43.69.33-.75.75l3.38-.31-2.17.63c1.02,0,2.15-.27,2.76-.2-1.03.36-.92.25-.44.61-1.39-.65-2.77.38-4.38-.06l.05-1.08c-2.42-.48-4.3.55-7.45.28l1.01.18c-.42.42-1.94.06-2.96.23.1-.36-.54-.49-.98-.71.05.27-2.3-.03-2.59.69l-1.4-.47c-2.54-.19-2.9,1.03-5.34.9.74-.39-.37-.64,1.26-.92-.81,0-1.55-.07-1.56.18-.48-.23-2.26.49-3.01.14-.34.16-.45.53-1.37.51-.1-.08,0-.18,0-.18,0,.18-1.43.24-.63.64-2.51-1.12-7.02.08-9.21-.88-1.78.12-3.92.23-5.54.26.1-.11,0-.18.31-.14-2.23-.34-1.37,1.03-3.91.66-1.3-.58,1.35-.32.54-.53-.35-1.19-3.06.16-4.76-.53l.41-.07c-1.3-.4-3.18.45-5.32.36,0,0,.1-.1.01-.18-1.45.6-4.21.8-6.26.97.64-.47.93-.25.54-.71-.92.07.27.75-1.57.89-.6-.25-1.92-.47-2.09-.98l1.73-.03c-.89-.65-2.24.02-3.15-.09l.12-.28c-2.65.09-2.69.81-5.54.75l.3.21c-1.56.71-1.3-.4-2.86.13l-.47-.72c-1.03.17-3.6.69-5.44.83,1.04-.53,3.2-.81,4.53-1.12-1.02,0-3.46.05-3.99.41.41-.07.92-.25,1.33-.14-1.25.57-2.89.84-4.92.83.36-1.4-5.29-.35-6.76-1.43-3.59.51-7.12-.22-11.3-.14,1.48,1.08-1.22.03-.96,1.14-.98.07-1.35.05-1.43-.02l-2.95-.66c-.7-.32.92-.25.83-.49-2.13-.08-.89-.47-2.3-.77.29.4-.74.57-1.96.42l1.71.51c-2.98.6-2.58-.93-5.58-.35l.95-.35c-1.54.21-5.69,0-7.2.89-.28-.13-.63-.43.04-.51-3.68-.14-8.2.95-11.06.4l.28-.27c-.69.08-1.2.51-2.06.24.04-.11.28-.27-.04-.29-.37.1-1.83.48-2.74.32l.78-.31c-3.59-.36-5.52.75-8.53.93,0-.8-2.82-1.06-4.23-1.19l.05-.12c-4.18-.1-7.11.66-10.99.98-2.41-.87-8.15-.36-12.02-.85.59.14-.1.62-.78.71-.91-.16-2.5.55-2.36-.18h.32c-.69-.71-2.55-.51-4-.53l-.24.96c-3.81-1.4-9.98.51-12.05-.74-.92.24-2.06.24-2.97.48l.05-.51c-2.55-.13-3.82-.2-6.96-.08l.64-.37c-1.77-.03-2.24,1.49-3.88,1.52l-.49-.77c-3.09.01-6.23-.66-9.3.03.05-.11.14-.34.64-.37-1.46-.02-5.64-.52-5.11.53-.04-.69-3.2-.07-4.87.23l.26-.51c-1.41.65-1.45.83-3.43,1.01-.47-.07-.41-.4.21-.27-1.56-.27-1.22.48-3.1.21l.7-.32c-1.6-.04-1.48.14-2.36.51-1.01.21-3.04-.13-3.27-.59-.22.28-1.1.65-2.04.52-.13-.17.22-.28.39-.34-2.68-.34-3.98.59-5.82.09-.04-.17-.16-.25-.31-.3,2.12.01,3.84.04,3.68.08,0-.47-1.72-.55-.35-1.2-1.38.35-3.74,1.12-5.41.9-.08-.05-.16-.09-.22-.16l.17-.05c-.39-.05-.73,0-1.06.08-.54-.08-.87-.14-1.39-.14-.2-.38-1.97-.21-2.83-.23.07.51-1.05.43,0,.85-.13-.03.16-.06.73-.08.13-.01.28-.02.37-.05-.01.01-.04.03-.06.05.56-.01,1.3-.03,2.13-.03-.68.26-1.39.48-2.33.19-.44.33-.92.66-1.2.83-1.17-.71-3.44-1.1-3.75-1.54-2.62.29-6.17.19-7.81,1.15-.75.12-.86-.27-1.13-.42.43-.1.94-.08,1.17-.22-1.49.25-4.41.1-4.76.77-1.88-.3,1.05-.62-1.52-.51l.35-.21c-5.07-1.08-8.24,1.71-13.86.34.39.08.58.12.66.23-6.4-.61-13.2.57-19.52-.39-1.8-.19-1.99.23-3.09.56l-.39-.55-1.88.64c-2.66.47-4.61-1.35-7.97-.47l.43.37c-1.21-.07-3.83.22-3.63-.21-.13.07-.4.38-.87.19l-.04-.29-2.97.49c-2.3-.21.36-1.14-3-1.2-1.25.11-3.56.84-3.09,1.03.51.01,1.29.18,1.33.47l-1.14.15c-.21.85-1.09,1.72,1.72,2.31l1.95-.52.63.41-1.65.03c.93.38,1.52.04,2.18-.19.16.22.43.37.82.45l1.92-.81c.23.33-.86.66.42.84.9-.38-.86-.75.63-.99.93.38.66.7,1.76.37.16.22-.07.36-.51.45.98-.26,2.59-.11,3.09-.56.98.47,3.3-.12,3.2.68.31-.19,1.72-.63,2.62-.66-1.64.96,3.35.05,2.92,1.09,1.22-.86,4.38-.38,6.53-.86-.12.07-.36.21-.54.16,1.21.07,1.56.34,2.34.49.16-.71,2.04-.88,3.06-1.32,1.48.69-.9.84-.43,1.5-.07-.58,2.57-.58,2.07-1.06,1.13.42.98.21,1.56.8.2-.89,1.06-.15,2-.7,1.64.44.42.84,2.22.56.86.27-.75.59-.75.59l-.06-.02h0ZM142.27,159.22h0c-.37.02-.69.03-.89.04.19,0,.44-.02.89-.04ZM145.87,159.2c-.44-.02-.98-.02-1.57-.02-.13-.18,0-.36.37-.35-.19.12.65.22,1.19.37ZM138.25,155.65c.57-.08.76.03.84.13-.27,0-.58.03-1,.06-.01.02-.05.04-.07.06.05-.1.12-.19.22-.26h0Z"/>
    <path class="st5" d="M137.22,156.33c-.08.01-.13.03-.24.03.12.05.22.08.34.12.07-.05.14-.11.2-.16h-.31Z"/>
    <path class="st5" d="M463.68,157.09h-.07c.06,0,.12.03.16.06-.05-.03-.05-.04-.08-.06h0Z"/>
    <polygon class="st5" points="195.59 160.18 195.58 160.06 195.27 160.17 195.59 160.18"/>
    <path class="st5" d="M483.52,158.85s.11.09.26.13c-.01-.03-.13-.08-.26-.13Z"/>
    <path class="st5" d="M492.08,158.96l1.22.18c-.52-.1-.91-.15-1.22-.18Z"/>
    <path class="st5" d="M498.67,159.22c.08-.09.1-.16.13-.22h-.01l-.12.23h0Z"/>
    <path class="st5" d="M393.93,159.81c-.09,0-.18,0-.25.02-.6.1-.19.06.25-.02Z"/>
    <path class="st5" d="M425.1,158.62c-.33.1-.66.18-1,.24.55.04.98.05,1-.24Z"/>
    <path class="st5" d="M359.12,160.43h-.22.22Z"/>
    <path class="st5" d="M422.65,158.85c.55.1,1.02.08,1.45,0-.45-.03-.99-.09-1.45,0Z"/>
    <path class="st5" d="M527.22,159.45l.32.02s.01-.06.04-.08l-.36.06Z"/>
    <path class="st5" d="M527.58,159.39l.35-.06c-.16,0-.31,0-.35.06Z"/>
    <path class="st5" d="M528.67,159.2l-.74.13c.25,0,.57.02.74-.13Z"/>
    <path class="st5" d="M518.5,159.21l-.1.18c.05-.04.09-.1.1-.18Z"/>
    <path class="st5" d="M515.85,159.27c.63.04,1.59.4,2.47.28l.08-.15c-.42.27-1.95-.45-2.55-.13Z"/>
    <path class="st5" d="M504.79,156.97l2.22.15c-.39-.2-.9-.47.11-.51-2.8-.59.57.45-2.33.36Z"/>
    <path class="st5" d="M497.9,156.68c1.19-.09-.01-.29.05-.4-.76.18-.94.23-.05.4Z"/>
    <path class="st5" d="M448.14,156.68l.12-.47c-.92.07,0,.18-.12.47Z"/>
    <polygon class="st5" points="438.63 159.09 439.52 159.37 439.95 158.95 438.63 159.09"/>
    <polygon class="st5" points="433.02 155.77 433.41 155.7 431.88 155.87 433.02 155.77"/>
    <path class="st5" d="M349.44,155.94l.28.58c.62-.1.75-.75-.28-.58Z"/>
    <path class="st5" d="M313.36,156.52c-.4-.29-1.41-.47-2.04-.19.81.04,1.62.26,2.04.19Z"/>
    <polygon class="st5" points="205.16 155.59 205.89 155.39 204.52 155.55 205.16 155.59"/>
  </g>
  <g class="st7">
    <path class="st6" d="M304.94,58.54H38.72c-16.66,0-30.16,13.44-30.16,30.02v67.03c0,16.58,13.5,30.02,30.16,30.02h621.61c16.66,0,30.16-13.44,30.16-30.02v-67.02c0-16.58-13.5-30.02-30.16-30.02h-355.4,0Z"/>
    <g class="st4">
      <text class="st3" transform="translate(51.54 106.18)"><tspan x="0" y="0">Insert Your Name</tspan></text>
    </g>
    <g>
      <path class="st5" d="M534.03,159.65c.25-.12.11-.38-.59-.34l-.49.45,1.08-.12h0Z"/>
      <path class="st5" d="M529.34,158.81c-.82.22-1.77.6-1.24,1.02.81-.44,1.01-.25,1.88-.77.7-.05,1.22.14,1.1.32.25-.12,1.08.1,1.46-.18-.91-.35-2.06-.36-3.26-.08-.26-.1,0-.22.05-.3h0Z"/>
      <path class="st5" d="M461.21,158.11l.44.05c-.12-.03-.27-.05-.44-.05Z"/>
      <path class="st5" d="M418.99,157.85c.32-.01.45-.05.47-.1-.3.03-.54.05-.47.1Z"/>
      <path class="st5" d="M411.78,157.35c.16.01.28.02.42.03-.16-.04-.33-.06-.42-.03Z"/>
      <path class="st5" d="M461.21,158.11l-1.13-.14c-.08.15.58.11,1.13.14Z"/>
      <path class="st5" d="M519.95,159.9c.24-.02.43-.06.61-.12-.19.02-.38.03-.57.05,0,.03-.02.05-.04.07h0Z"/>
      <path class="st5" d="M479.82,157.74h.34c.1-.05.19-.12.28-.18l-.63.18Z"/>
      <path class="st5" d="M494.1,157.67c-.32-.01-.43.37-.56.53.18-.16.42-.23.7-.27,0-.08-.04-.16-.14-.27h0Z"/>
      <path class="st5" d="M516.74,158.35l.4-.05c-.1.01-.28.03-.4.05Z"/>
      <path class="st5" d="M469.6,157.66c-.02-.05-.07-.11-.13-.14,0,.05.05.1.13.14Z"/>
      <path class="st5" d="M70.13,160.55v-.07c-.08.04-.11.07,0,.07Z"/>
      <path class="st5" d="M53.58,158.64l.23-.02c.02-.08.05-.14.05-.22l-.28.24h0Z"/>
      <path class="st5" d="M398.59,156.86s.04,0,.06,0c.35-.04.15-.03-.06,0Z"/>
      <path class="st5" d="M277.5,157.15c1.37.34-2.23.45-.16.82-.19-.15,1.88-.6.16-.82Z"/>
      <path class="st5" d="M519.58,159.85c-.19,0-.39,0-.59,0,.27.01.45.01.59,0Z"/>
      <path class="st5" d="M277.33,157.97h0l.22.04c-.09-.01-.14-.03-.22-.04Z"/>
      <path class="st5" d="M368.2,157.09c.06.07.19.12.31.17,0-.04-.08-.09-.31-.17Z"/>
      <path class="st5" d="M390.84,157.64l-.56-.05c.22.03.4.05.56.05Z"/>
      <path class="st5" d="M356.44,157.63c-.31-.03-.41-.08-.83-.03.04.02.07.03.13.05.15-.05.35-.08.7-.01h0Z"/>
      <path class="st5" d="M344.21,157.64c.07.03.15.05.22.08.12,0,.26-.01.39-.02l-.61-.05h0Z"/>
      <path class="st5" d="M107.32,160.36c-.27-.11-.43-.23-.57-.35.19.27-1.61.37.57.35Z"/>
      <path class="st5" d="M519.94,159.69c-.07.1-.18.14-.37.16.14,0,.28-.01.41-.02.04-.05.04-.11-.04-.14Z"/>
      <path class="st5" d="M355.95,160.68l-1.95-.05c.54.03,1.25.05,1.95.05Z"/>
      <path class="st5" d="M195.11,160.31l-.45.05c.17,0,.33,0,.45-.05Z"/>
      <path class="st5" d="M348.24,160.68c-.35-.14-.72-.21-1.1-.27-.08.03-.17.05-.22.1l1.32.16Z"/>
      <path class="st5" d="M106.75,160.01h0Z"/>
      <path class="st5" d="M93.95,160.93c1.85.01.87-.49,1.26-.79,2.21-.14,1.02.37,1.77.63,1.38-.14,2.44-.6,3.47-.58.07.08.28.12.04.22,1.46-.4,4.33-.02,6.03-.53.13.05.19.09.22.12-.28-.25-.32-.51-.26-.69.83,0,1.54-.32,1.86.01-.51,0-.55.12-.79.23l.87-.14c.78.47-1.19.16-1.19.51,1.7-.16,3.68-.55,4.97-.41.27.47-3.04.16-1.3.57l-2.01-.18c1.54.73-1.22-.05.19.73,2.65.14,2.96-.24,5.6-.1.6-.26-.19-.38.4-.64,3.76-.47,2.95,1.17,5.72.55.72-.31.99-.9,2.96-.59l-.67.53c2.56.05,1.46-.75,4.15-.4-.48.21-2.01.17-1.63.24,1.74.42,1.23-.3,2.56-.3l.28.47c2.73-.08,5.73-.41,8.76-.49-.16.14-.69.29.02.42,3.81-.23,8.14.05,11.82.34l1.4-.4c.33,0,.6.18.25.26,1.43.15.07-.25.76-.41.81-.03,1.07.23.56.35,2.53-.34,7.2-.73,9.87-.3l-.52.12c2.07.16,2.34-.82,4.26-.45l-.37.07c4.5.17,9.48-.19,12.91.41.66-.58,4.46.26,4.75-.55,2.57.4,1.83.55,5.46.82.97.03,1.44-.51,2.64-.59l.03.42,1.63-.45.86.51,1.12-.11c-.45-.03-.95-.19-.88-.31,1.75-.19,4.27.29,4.32.51l4.15-.36c-.09.17-.78.23-1.33.34,2.21-.43.4.45,2.43.05-.27-.1.15-.25.19-.34,1.01.25,3.31.26,5.01.15l-.33.29c3.07.08,6.48-.14,9.93-.14-1.24-.14-.95-.64.06-.69l.4.45c.66-.27-1.06-.17.28-.51,1.29.05.86.51.13.65l1.57-.16c.09.13-.28.21-.37.38.64-.27,2.71.45,3.63-.03l.09.13c3.45,0,5.01-.15,7.82-.17.05-.38,1.16-.3,1.99-.61,2.07.12,4.35.42,6.84.39,1.74-.19.51-.33,1.3-.55.13.35,2.61.32,1.33.57,2.98-.05,3.82-.07,7.59-.36-.41-.14-.87-.21-.63-.33.69-.05,1.56.14,1.46.32l-.18.03c4.23-.53,9.78,1.02,13.16.29l-.19.03,3.5-.38c1.61.06-.97.26.22.48,3.77-.58,5.96.08,9.07-.31,2.41,1.03,8.54-.08,11.79.59l-.19-.25c.84-.24,1.01.14,1.63.2-.09-.19-.91-.22-.39-.35,7.11-.29,14.68.36,21.97.58,2.67.07,1.51-1.26,4.88-.68l-.95.45c5.38-.54,11,.02,16.27-.45-.31.1-.32.24-.83.24,1.11.33,4.12.01,4.13-.25.82.03.19.24.69.38,1.12.19,2.8-.42,3.39-.1.1.05-.31.11-.51.13.73-.16,3.39.04,2.69-.34,1.98.18,3.78-.17,5.36.05,1.03-.42,3.38.21,3.71-.4-.14.62,3.47.5,4.72.21-.42.18,1.09.19.6.45,1.42,0,2.74-.12,2.48-.45,2.63.74,5.29-.6,6.76.36,4.23-.34,8.16-.56,11.97-.71-.13.62-4.21.06-4.05.71,3.62-.25,5.7-.79,9.29-.64.93.08-.53.27-.84.38,3.62-.25,6.99.05,10.2-.28,0,.05-.36.12-.69.16.63-.02,1.48.09,1.4-.19l-.62.08c-1.01-.41,2.52-.85,2.63-1.07-1.07.81,3.18.21,1.47,1.22.42-.05.94-.18.84-.38.62.05.81.16.19.38,2.27-.15,1.46-.45,3.52-.45,0,.14-.42.19-.63.35,1.04-.27,2.09-.53,3.82-.42-.1.08.1.19-.42.18,2.98-.04,5.08-.71,8.36-.45-.97.59,1.11.19,1.29.71l1.76-.15-.71-.25c1.54,0,2.91-.36,4.23-.2l-1.15.21,2.89-.1-1.63-.19c1.56-.26-.16-.64,1.89-.51-.42.05,1.54,0,2.35.31h0c.76-.16,1.55-.34,2.69-.21.3.16-.24.57-.04.67.75-.42,3.61-.12,4.56-.58-.32.11-.34.38-.23.43l.63-.35c.72.11.82.16.7.38,2.15.06-.69-.65,1.87-.37-.2.03-.1.08-.52.13,2.56.14,4.95-.22,7.31-.05.69.51-2.06.12-1.26.56,3.39-.1,7.03-.62,10.31-.49l-.61-.05c.45-.73,2.45.36,4.11.01-.41.05-.54.4-.42.32,2.25.12,4.6-.18,8.01-.4l-.42.18c1.33.16,3.49.1,4.92.18.42-.18,1.24-.16.75-.42,4.41,1.06,8.42-.57,12.34.32-.47,0-1.12.16-.75.16l3.34-.17c-.26-.32-.44-.19-1.14-.44.42-.18,1.36-.34,2.19-.34-1.5.21.01.51.66.69-.11-.1.11-.21.06-.3,1.74.56.29-.64,2.67-.26l-.13.16c.89-.08,1.71-.3,2.67-.26.4.36-.95.17-1.01.47,1.35-.02,2.66-.69,3.88-.33-.57.1-1.39.1-1.97.21,1.33.43,1.48.32,2.47.39h-.1l2.28.18-.58-.12c1.68-.95,3.44-.17,5.71-.8-2.21.59-.37.34-.54.76.58.12,1.46.25,1.22.36,1.07-.34,1.8.27,3.31-.23.07.14,1.15.01.91.35,1.39-.1-.33-.23-.22-.4,2.15-.46,5.06.55,8.16-.08,2.67-.26,3.17-.71,5.64-.93.83.21-.69.49-.69.49,1.35.2,2.36.16,3.64,0-.26.12,0,.21.4.36,1.02-.03.69-.49,2.03-.29-.23.15-.53.39-1.02.53,1.2-.12,2.39-.37,3.64-.49.33.23-.75.36-1.19.51,1.4-.1,3.62-.21,4.06-.58l-.89-.13c.51-.02.26.32-.11.38-1.2.29-1.73-.13-1.8-.26l.89-.08c-.91-.78-3.56.12-5.35.08l.75-.57-1.83.47c-.39-.15-.66-.47.22-.55-1.28-.28-1.13.21-2.23-.11-.12-.05-.07-.08.04-.1l-1.25.17c.25-.12-.21-.4.56-.32-2.24-.33-3.62.42-4.47,0l.19-.03c-3.12.19-.3.42-2.64.91l-1.57-1.03-.31.42c-.32-.01-.95-.05-.84-.21-1.19.29.2.18-.49.45-1.54-.38-4.26.18-4.61-.49-.55.32,1.48.25-.17.47-.47-.72-1.91.12-3.32-.21.43-.37,1.77-.17.36-.51-.85.62-2.75-.14-3.94-.02-.06.5-2.59.21-4.59.38.13-.16-3.76-.27-5.62-.45l.05-.08c-.36.5-2.28.41-3.68.51.05-.3.31-.42,1.07-.55h-1.31c-.31.16-.72.25-1.57.31l.33-.38c-1.74.02-3.52.45-5.77.19-.13.35,1.79.98-.59,1.21-.09-.19-.18-.51.45-.59-.2.03-.73.16-1.14.08l.95-.32c-1.02-.14-.54.27-1.36.24.01-.27-.6-.19-.49-.41.21-.03.72.11,1.03,0-.92-.05-2.04-.21-2.41-.41.08.15,0,.36-.68.4-1.74.02-.6-.32-1.62-.47-.42.18-1.54,0-1.57.4-.51,0-.6-.19-.81-.3-.9.18-4.23.05-3.21.48l.23.03s-.1,0-.15.02h0c-2.97.4-6.16-.23-9.1-.05v-.14c-1.75.16-3.91.09-5.16.38-.52,0-1.22-.25-1.01-.41-1.34.1-1.49.25-3.43.03,1.35-.23-.46-.21,1.39-.17-1.74-.12-2.14-.34-4.01.03.64-.35-1.31-.44-2.14-.34l1.22.25c-.93.05-1.74.02-2.58,0l.45-.46c-3.57-.55-6.44.95-9.15.01-.95.32,1.94.23,1.1.6-1.64-.06-3.35-.71-3.87-.72-2.25-.25-2.1.66-4.45.49.3.16.59.6-1.17.75-1.64-.06-2.02-.69-.98-.82.4-.01.58.04.57.1.53-.06,1.23-.13.57-.31l-.22.16c-.81-.16-3.08-.15-2.54-.42-1.24.16-.53.27.39.35-2.11-.23-3.3,0-5.46-.16.34.09.66.28.32.28-3.18-.2-1.4.31-3.56.38-1.22-.25.44-.59-1.73-.38-1.33-.16-.28-.43.25-.56-1.98.32-3.7-.21-4.82-.26l1.04-.13c-.63.08-1.13.08-1.66.08l.6.32c-.61-.05-1.13-.05-1.12-.19-.63.21.48.54-.77.83-.81-.16-2.48.18-2.77-.25,2.56.14-.28-.43,1.89-.5-.42.05-.93.05-1.54,0-.09-.05.09-.09.25-.12-2.45-.38-1.13.49-3.67.48.32-.24-.59-.46-1.01-.41,1.02,0,.49.4-.45.59-1.63-.19-1.77.14-2.62.12l.98.09c-.33.24-1.15.21-2.28.29-.1-.19,1.03-.13.63-.21-1.26.42-2.86-.45-4.61-.16-.81-.16-.08-.46-.8-.57-1.98.32-2.13-.34-4.21-.08.6.33.7.25-.76.57l3.41-.23-2.18.47c1.03,0,2.17-.21,2.79-.15-1.04.27-.93.18-.44.46-1.41-.49-2.79.29-4.41-.05l.05-.81c-2.45-.36-4.35.42-7.52.21l1.02.14c-.42.32-1.96.05-2.99.18.1-.27-.54-.37-.98-.53.05.2-2.33-.02-2.61.52l-1.42-.36c-2.56-.14-2.93.77-5.39.68.75-.29-.38-.49,1.27-.7-.82,0-1.57-.05-1.57.14-.48-.17-2.28.36-3.04.11-.35.12-.46.4-1.39.38-.1-.05,0-.13,0-.13,0,.13-1.45.18-.64.48-2.53-.84-7.08.06-9.3-.66-1.8.09-3.96.18-5.59.2.1-.08,0-.14.31-.11-2.25-.25-1.38.77-3.94.49-1.3-.44,1.36-.24.54-.4-.36-.89-3.09.12-4.81-.4l.42-.05c-1.32-.3-3.21.34-5.36.27,0,0,.1-.08.01-.14-1.47.45-4.26.6-6.32.73.64-.35.94-.18.54-.54-.92.05.27.57-1.58.66-.6-.19-1.94-.36-2.12-.73l1.74-.02c-.89-.49-2.26.01-3.18-.07l.12-.21c-2.68.07-2.71.61-5.59.57l.3.16c-1.57.53-1.32-.3-2.89.1l-.48-.54c-1.04.13-3.63.52-5.49.62,1.05-.4,3.23-.6,4.58-.84-1.03,0-3.5.04-4.03.31.42-.05.94-.18,1.35-.1-1.26.42-2.92.64-4.97.62.37-1.05-5.34-.27-6.83-1.08-3.62.39-7.19-.16-11.41-.1,1.5.82-1.23.02-.98.86-.98.05-1.36.04-1.45-.01l-2.98-.5c-.71-.25.93-.18.84-.37-2.15-.06-.9-.36-2.33-.58.29.3-.75.43-1.98.32l1.73.38c-3.01.45-2.6-.71-5.64-.26l.96-.26c-1.56.16-5.74,0-7.27.66-.28-.1-.64-.33.04-.38-3.72-.1-8.28.72-11.18.3l.28-.21c-.69.06-1.21.38-2.08.18.04-.08.28-.21-.04-.22-.37.07-1.84.36-2.77.24l.78-.23c-3.63-.27-5.57.56-8.61.7,0-.6-2.85-.8-4.27-.9l.05-.08c-4.23-.08-7.18.5-11.09.74-2.43-.66-8.23-.27-12.13-.64.6.11-.1.47-.79.53-.92-.12-2.53.42-2.39-.14h.33c-.69-.53-2.57-.38-4.04-.4l-.25.73c-3.85-1.06-10.07.38-12.17-.55-.92.18-2.08.18-3,.36l.05-.39c-2.57-.1-3.85-.15-7.03-.05l.65-.27c-1.79-.03-2.27,1.12-3.91,1.14l-.5-.58c-3.12,0-6.29-.5-9.39.03.05-.08.14-.25.65-.27-1.47-.01-5.7-.39-5.16.4-.04-.52-3.23-.05-4.91.18l.26-.38c-1.42.49-1.47.62-3.46.75-.47-.05-.41-.31.22-.21-1.57-.2-1.22.36-3.13.16l.71-.25c-1.62-.03-1.49.1-2.38.38-1.01.15-3.07-.1-3.31-.44-.22.21-1.1.49-2.06.39-.13-.13.22-.21.4-.25-2.71-.26-4.02.45-5.88.07-.04-.12-.16-.19-.31-.23,2.15,0,3.88.03,3.72.05,0-.35-1.74-.41-.36-.9-1.39.27-3.77.84-5.46.68-.08-.03-.16-.07-.22-.12l.17-.04c-.39-.03-.74,0-1.07.05-.54-.05-.88-.1-1.4-.1-.2-.29-1.99-.16-2.86-.17.07.38-1.06.32,0,.64-.13-.03.16-.05.74-.06.13-.01.28-.01.37-.04-.01.01-.04.02-.06.03.57-.01,1.31-.02,2.15-.03-.69.2-1.4.36-2.36.14-.45.25-.93.5-1.21.62-1.19-.53-3.47-.83-3.79-1.16-2.64.22-6.23.14-7.89.86-.75.1-.86-.21-1.15-.32.43-.08.95-.06,1.19-.16-1.5.18-4.45.08-4.81.58-1.89-.23,1.07-.47-1.54-.38l.35-.16c-5.11-.81-8.32,1.29-13.99.25.4.06.59.1.67.18-6.47-.46-13.33.43-19.71-.29-1.81-.14-2.01.18-3.12.42l-.4-.41-1.89.48c-2.68.35-4.65-1.01-8.05-.36l.44.28c-1.22-.05-3.87.16-3.66-.16-.13.05-.4.29-.88.14l-.04-.22-3,.37c-2.33-.16.37-.86-3.03-.9-1.26.08-3.59.63-3.12.77.51.01,1.3.14,1.34.35l-1.16.11c-.21.64-1.1,1.29,1.74,1.74l1.98-.39.63.31-1.66.02c.94.29,1.54.03,2.21-.14.16.16.43.28.83.34l1.94-.61c.23.25-.87.49.43.63.91-.28-.87-.56.63-.75.95.29.67.53,1.77.28.16.16-.08.27-.51.34.98-.2,2.61-.08,3.12-.42.98.36,3.33-.1,3.23.51.31-.14,1.74-.47,2.64-.5-1.66.73,3.39.04,2.95.82,1.22-.65,4.42-.29,6.59-.65-.12.05-.36.16-.55.12,1.22.05,1.57.25,2.36.37.16-.53,2.06-.66,3.09-.99,1.5.52-.91.63-.44,1.13-.07-.44,2.6-.43,2.09-.79,1.15.32.98.16,1.57.6.2-.67,1.07-.12,2.01-.53,1.66.33.42.63,2.24.42.86.21-.75.45-.75.45v.12ZM137.21,159.77h0c-.37.01-.69.03-.89.03.19,0,.45-.01.89-.03ZM140.85,159.76c-.44-.01-.99-.02-1.58-.01-.13-.13,0-.27.37-.26-.2.09.66.16,1.2.28h0ZM133.16,157.09c.57-.05.77.02.85.1-.27,0-.59.02-1.01.05-.01.01-.05.03-.07.05.05-.08.12-.14.22-.19h0Z"/>
      <path class="st5" d="M132.13,157.59c-.08,0-.13.03-.24.03.12.03.23.06.34.09.07-.04.14-.08.2-.12h-.31,0Z"/>
      <path class="st5" d="M461.72,158.17h-.07c.07,0,.12.02.16.05-.05-.02-.05-.03-.08-.05h0Z"/>
      <polygon class="st5" points="191.06 160.5 191.05 160.4 190.73 160.48 191.06 160.5"/>
      <path class="st5" d="M481.75,159.49s.11.07.26.1c-.01-.03-.13-.06-.26-.1Z"/>
      <path class="st5" d="M490.4,159.57l1.22.14c-.53-.08-.92-.12-1.22-.14Z"/>
      <path class="st5" d="M497.05,159.77c.08-.07.11-.12.13-.16h-.01l-.12.16h0Z"/>
      <path class="st5" d="M391.3,160.22c-.09,0-.18,0-.25.02-.6.08-.19.05.25-.02Z"/>
      <path class="st5" d="M422.77,159.32c-.34.07-.66.14-1.01.18.56.03,1,.03,1.01-.18Z"/>
      <path class="st5" d="M356.16,160.68h-.22.22Z"/>
      <path class="st5" d="M420.3,159.49c.56.08,1.03.06,1.46,0-.46-.03-1-.07-1.46,0Z"/>
      <path class="st5" d="M525.88,159.94h.32s.01-.03.04-.05l-.36.05h0Z"/>
      <path class="st5" d="M526.23,159.9l.36-.05c-.16,0-.31,0-.36.05Z"/>
      <path class="st5" d="M527.34,159.75l-.75.1c.26,0,.58.01.75-.1Z"/>
      <path class="st5" d="M517.07,159.77l-.1.14c.05-.03.09-.08.1-.14Z"/>
      <path class="st5" d="M514.4,159.81c.64.03,1.6.3,2.49.21l.08-.11c-.42.21-1.97-.34-2.57-.1Z"/>
      <path class="st5" d="M503.23,158.08l2.24.11c-.4-.15-.91-.35.11-.38-2.83-.45.58.34-2.36.27h0Z"/>
      <path class="st5" d="M496.28,157.86c1.21-.07-.01-.22.05-.3-.76.14-.95.17-.05.3Z"/>
      <path class="st5" d="M446.04,157.86l.12-.35c-.93.05,0,.14-.12.35Z"/>
      <polygon class="st5" points="436.44 159.67 437.34 159.89 437.77 159.57 436.44 159.67"/>
      <polygon class="st5" points="430.76 157.18 431.17 157.13 429.62 157.25 430.76 157.18"/>
      <path class="st5" d="M346.39,157.3l.28.43c.63-.08.76-.56-.28-.43Z"/>
      <path class="st5" d="M309.96,157.74c-.4-.21-1.42-.36-2.05-.14.82.03,1.63.2,2.05.14Z"/>
      <polygon class="st5" points="200.71 157.04 201.45 156.89 200.07 157.01 200.71 157.04"/>
    </g>
  </g>
  <g class="st7">
    <path class="st5" d="M535.68,159.25c.25-.16.11-.51-.58-.45l-.49.6,1.07-.16h0Z"/>
    <path class="st5" d="M531.04,158.13c-.81.3-1.74.81-1.22,1.36.81-.58,1-.34,1.86-1.03.69-.07,1.21.19,1.09.42.25-.16,1.07.13,1.45-.25-.9-.47-2.04-.49-3.23-.1-.25-.13,0-.29.05-.4h0Z"/>
    <path class="st5" d="M463.55,157.19l.43.07c-.12-.04-.27-.06-.43-.07Z"/>
    <path class="st5" d="M421.73,156.86c.32-.01.45-.08.47-.13-.3.04-.54.08-.47.13Z"/>
    <path class="st5" d="M414.59,156.2c.16.02.28.03.42.04-.16-.05-.32-.09-.42-.04Z"/>
    <path class="st5" d="M463.55,157.19l-1.12-.19c-.07.2.57.14,1.12.19Z"/>
    <path class="st5" d="M521.73,159.59c.23-.03.42-.08.6-.16-.19.03-.38.05-.57.06,0,.03-.02.06-.04.1Z"/>
    <path class="st5" d="M481.98,156.7h.34c.1-.07.19-.15.28-.25l-.62.25h0Z"/>
    <path class="st5" d="M496.13,156.61c-.32-.02-.43.49-.55.71.18-.21.42-.31.7-.35,0-.1-.04-.21-.14-.36h0Z"/>
    <path class="st5" d="M518.56,157.51l.4-.07c-.1.02-.28.04-.4.07Z"/>
    <path class="st5" d="M471.86,156.59c-.02-.08-.07-.14-.13-.19,0,.06.05.12.13.19Z"/>
    <path class="st5" d="M76.2,160.44s0-.06,0-.09c-.08.05-.1.09,0,.09Z"/>
    <path class="st5" d="M59.79,157.91l.22-.03c.02-.1.05-.19.05-.29l-.28.32h0Z"/>
    <path class="st5" d="M401.53,155.54h.06c.34-.06.15-.05-.06,0Z"/>
    <path class="st5" d="M281.59,155.91c1.36.46-2.21.59-.16,1.1-.19-.2,1.86-.8.16-1.1Z"/>
    <path class="st5" d="M521.36,159.52h-.58c.26.01.44.01.58,0Z"/>
    <path class="st5" d="M281.43,157.01h0l.21.05c-.09-.02-.13-.03-.21-.05Z"/>
    <path class="st5" d="M371.43,155.85c.06.09.18.16.31.23,0-.05-.08-.12-.31-.23Z"/>
    <path class="st5" d="M393.85,156.57l-.55-.07c.22.05.4.06.55.07Z"/>
    <path class="st5" d="M359.78,156.57c-.3-.04-.4-.11-.81-.04.04.03.07.04.13.06.15-.07.35-.1.69-.02h0Z"/>
    <path class="st5" d="M347.66,156.57c.07.04.15.07.22.1.12,0,.26-.02.39-.03l-.61-.08h0Z"/>
    <path class="st5" d="M113.02,160.2c-.27-.14-.43-.3-.56-.46.19.36-1.6.49.56.46Z"/>
    <path class="st5" d="M521.72,159.31c-.07.13-.17.19-.36.22.14,0,.28-.01.4-.03.04-.08.04-.15-.04-.19h0Z"/>
    <path class="st5" d="M359.29,160.62l-1.92-.08c.54.05,1.24.08,1.92.08Z"/>
    <path class="st5" d="M199.98,160.13l-.44.06c.17.01.33,0,.44-.06Z"/>
    <path class="st5" d="M351.65,160.62c-.34-.18-.71-.29-1.08-.36-.08.04-.17.08-.22.13l1.3.22h0Z"/>
    <path class="st5" d="M112.47,159.73h0Z"/>
    <path class="st5" d="M99.78,160.95c1.83.01.86-.66,1.25-1.05,2.19-.19,1.01.49,1.76.84,1.36-.18,2.42-.8,3.44-.77.07.11.28.15.04.29,1.45-.54,4.29-.03,5.98-.7.13.06.19.12.22.16-.28-.34-.31-.68-.26-.93.82-.01,1.53-.43,1.83.01-.51-.01-.54.16-.78.3l.86-.19c.78.63-1.18.22-1.18.69,1.68-.21,3.64-.73,4.93-.55.27.62-3.01.21-1.29.76l-1.99-.23c1.52.97-1.21-.07.19.97,2.62.18,2.93-.32,5.55-.14.59-.34-.19-.51.4-.85,3.72-.62,2.93,1.56,5.66.73.71-.41.98-1.19,2.93-.78l-.66.7c2.54.07,1.45-1.01,4.11-.54-.47.27-2,.23-1.61.32,1.72.56,1.22-.4,2.54-.4l.28.62c2.71-.1,5.68-.55,8.68-.66-.16.19-.68.38.02.57,3.77-.31,8.06.08,11.7.45l1.39-.54c.32,0,.6.24.25.34,1.42.21.07-.34.75-.55.81-.03,1.07.31.55.47,2.5-.45,7.13-.98,9.77-.4l-.51.16c2.06.22,2.32-1.1,4.23-.6l-.37.1c4.46.23,9.39-.26,12.79.55.65-.77,4.41.34,4.7-.73,2.55.54,1.82.73,5.41,1.08.95.05,1.42-.67,2.61-.78l.03.56,1.61-.59.86.67,1.11-.14c-.44-.03-.94-.25-.87-.41,1.74-.25,4.23.39,4.27.68l4.11-.47c-.09.23-.78.3-1.32.45,2.19-.58.4.59,2.41.07-.27-.13.15-.34.19-.45,1,.34,3.28.34,4.97.2l-.32.38c3.04.1,6.42-.19,9.83-.18-1.22-.18-.95-.85.06-.92l.4.6c.65-.37-1.04-.23.28-.67,1.27.07.86.68.13.87l1.55-.21c.09.18-.28.27-.37.49.63-.37,2.68.6,3.6-.04l.09.18c3.41,0,4.97-.2,7.75-.23.05-.51,1.14-.4,1.97-.82,2.04.16,4.32.57,6.78.52,1.73-.25.51-.43,1.28-.74.13.47,2.59.43,1.31.76,2.96-.08,3.78-.1,7.51-.47-.4-.19-.86-.27-.63-.43.68-.08,1.54.2,1.45.42l-.18.05c4.2-.7,9.69,1.37,13.03.39l-.19.05,3.47-.51c1.6.08-.95.35.22.64,3.74-.78,5.9.11,8.99-.4,2.39,1.38,8.46-.1,11.68.78l-.19-.32c.83-.32,1.01.19,1.62.26-.09-.25-.9-.3-.39-.47,7.05-.39,14.54.47,21.76.77,2.64.09,1.5-1.68,4.83-.91l-.95.6c5.33-.72,10.9.03,16.12-.59-.31.14-.32.32-.83.32,1.1.44,4.08.02,4.09-.34.81.04.19.32.69.51,1.1.26,2.77-.56,3.36-.12.1.07-.31.14-.51.18.72-.21,3.35.05,2.67-.45,1.96.24,3.75-.23,5.31.08,1.02-.56,3.35.27,3.68-.53-.14.82,3.44.67,4.67.27-.42.25,1.07.26.59.6,1.42-.01,2.71-.16,2.46-.59,2.6.99,5.23-.8,6.7.47,4.2-.45,8.08-.74,11.86-.94-.13.82-4.17.08-4.01.95,3.59-.34,5.65-1.04,9.2-.84.92.11-.52.36-.83.5,3.58-.34,6.92.08,10.1-.37,0,.08-.35.16-.68.23.63-.03,1.46.12,1.39-.25l-.61.1c-1-.54,2.49-1.13,2.6-1.42-1.07,1.07,3.15.27,1.45,1.63.41-.07.93-.25.83-.5.61.08.81.22.19.5,2.25-.21,1.45-.6,3.49-.59,0,.18-.42.25-.63.47,1.03-.35,2.07-.71,3.79-.56-.1.11.1.25-.42.25,2.96-.05,5.04-.94,8.28-.6-.95.79,1.1.26,1.27.94l1.74-.21-.7-.33c1.53.01,2.88-.49,4.19-.26l-1.13.28,2.86-.13-1.62-.26c1.54-.35-.16-.86,1.87-.67-.41.07,1.53,0,2.33.41h0c.75-.22,1.54-.45,2.66-.27.29.22-.24.76-.04.9.75-.57,3.58-.16,4.52-.76-.31.14-.33.5-.23.58l.63-.46c.71.15.81.22.69.51,2.12.08-.68-.86,1.85-.49-.2.03-.1.11-.51.18,2.53.19,4.9-.3,7.23-.07.69.69-2.04.16-1.25.75,3.36-.12,6.96-.82,10.21-.66l-.6-.08c.45-.97,2.42.48,4.07.02-.4.07-.53.54-.42.43,2.23.16,4.56-.24,7.93-.54l-.42.25c1.31.22,3.46.13,4.88.24.42-.25,1.23-.21.74-.57,4.37,1.41,8.34-.76,12.22.42-.46,0-1.1.22-.74.22l3.3-.23c-.26-.42-.43-.25-1.13-.58.42-.25,1.35-.45,2.17-.45-1.48.28.01.68.66.91-.1-.13.11-.27.06-.4,1.73.75.29-.85,2.65-.34l-.13.22c.88-.11,1.69-.4,2.65-.34.4.49-.94.23-1,.63,1.33-.03,2.64-.93,3.85-.44-.57.14-1.39.14-1.95.27,1.32.57,1.47.43,2.45.52h-.1s2.26.25,2.26.25l-.57-.16c1.67-1.27,3.41-.23,5.66-1.06-2.19.79-.37.45-.53,1.01.57.15,1.45.32,1.2.48,1.07-.45,1.77.35,3.28-.3.07.18,1.14.02.9.47,1.39-.14-.33-.31-.21-.54,2.13-.61,5.02.73,8.08-.1,2.65-.34,3.14-.95,5.59-1.24.83.28-.68.65-.68.65,1.33.26,2.34.21,3.6,0-.25.16,0,.29.4.49,1.01-.05.68-.65,2.01-.38-.23.2-.52.51-1.01.71,1.19-.16,2.37-.49,3.6-.66.33.31-.75.47-1.18.67,1.39-.14,3.59-.28,4.02-.78l-.89-.18c.51-.02.26.42-.11.51-1.19.38-1.71-.17-1.78-.35l.88-.12c-.9-1.04-3.53.16-5.29.11l.74-.76-1.81.63c-.39-.2-.65-.62.22-.73-1.27-.38-1.13.27-2.21-.15-.12-.06-.07-.1.04-.13l-1.24.23c.25-.16-.21-.54.55-.43-2.22-.44-3.59.57-4.42,0l.19-.05c-3.09.25-.3.56-2.61,1.21l-1.56-1.37-.31.56c-.32-.02-.95-.06-.83-.28-1.19.38.2.24-.48.6-1.53-.51-4.22.24-4.57-.65-.55.43,1.46.33-.17.62-.47-.95-1.89.16-3.29-.27.43-.49,1.75-.23.36-.67-.84.83-2.72-.19-3.91-.02-.05.67-2.56.27-4.55.5.13-.23-3.73-.36-5.57-.6l.05-.11c-.36.67-2.26.54-3.64.68.05-.4.31-.56,1.05-.74h-1.3c-.31.22-.72.33-1.56.4l.33-.5c-1.73.03-3.49.59-5.72.25-.13.47,1.77,1.3-.58,1.61-.09-.25-.17-.69.44-.79-.2.03-.72.21-1.13.1l.94-.43c-1.01-.19-.53.36-1.34.32.01-.36-.6-.25-.48-.54.21-.03.71.15,1.02,0-.92-.06-2.02-.28-2.39-.55.08.21,0,.49-.67.54-1.73.03-.59-.43-1.6-.62-.42.25-1.52,0-1.55.53-.51,0-.6-.25-.8-.4-.89.24-4.18.07-3.18.64l.23.04s-.1.01-.15.02h0c-2.94.54-6.1-.3-9.01-.08v-.18c-1.74.21-3.87.12-5.11.51-.51,0-1.22-.33-.99-.54-1.33.14-1.48.34-3.4.04,1.33-.32-.46-.28,1.37-.23-1.73-.16-2.12-.45-3.97.05.63-.46-1.3-.58-2.12-.45l1.21.33c-.92.07-1.73.03-2.55-.01l.45-.6c-3.53-.74-6.37,1.26-9.07.02-.93.43,1.92.3,1.08.8-1.63-.08-3.32-.95-3.83-.95-2.23-.34-2.08.89-4.41.66.3.21.58.8-1.16,1-1.63-.08-2-.91-.98-1.08.39-.02.58.05.56.12.53-.08,1.22-.17.57-.4l-.21.22c-.81-.22-3.05-.2-2.52-.56-1.23.21-.53.36.39.47-2.09-.32-3.26,0-5.41-.22.34.12.66.37.31.37-3.15-.27-1.39.41-3.53.51-1.22-.33.43-.79-1.71-.51-1.31-.23-.28-.58.25-.75-1.96.42-3.66-.27-4.78-.35l1.03-.17c-.62.1-1.13.1-1.64.1l.59.43c-.6-.08-1.12-.08-1.11-.26-.63.28.48.72-.76,1.11-.81-.22-2.46.23-2.74-.34,2.54.19-.28-.58,1.87-.67-.42.07-.92.07-1.53,0-.09-.06.09-.12.25-.15-2.43-.51-1.12.65-3.64.64.32-.32-.58-.62-.99-.54,1.01,0,.48.54-.45.79-1.62-.25-1.75.19-2.6.16l.96.12c-.33.32-1.13.28-2.26.38-.1-.25,1.02-.17.62-.28-1.25.57-2.83-.59-4.57-.21-.81-.22-.07-.61-.79-.76-1.95.42-2.12-.45-4.17-.1.59.43.69.33-.75.76l3.38-.31-2.17.63c1.02,0,2.15-.27,2.76-.2-1.03.36-.92.25-.44.61-1.39-.65-2.77.38-4.38-.06l.05-1.08c-2.42-.48-4.3.56-7.45.28l1.01.19c-.42.43-1.94.06-2.96.23.1-.36-.54-.49-.98-.71.05.27-2.3-.03-2.59.69l-1.4-.47c-2.54-.19-2.9,1.03-5.34.91.74-.39-.37-.65,1.26-.93-.81,0-1.55-.07-1.56.18-.48-.23-2.26.49-3.01.14-.34.16-.45.54-1.37.51-.1-.08,0-.18,0-.18,0,.18-1.43.24-.63.64-2.51-1.13-7.02.08-9.21-.89-1.78.12-3.92.23-5.54.26.1-.11,0-.18.31-.14-2.23-.34-1.37,1.04-3.91.66-1.3-.58,1.35-.32.54-.54-.35-1.19-3.06.16-4.76-.53l.41-.07c-1.3-.4-3.18.45-5.32.36,0,0,.1-.1.01-.18-1.45.6-4.21.8-6.26.97.64-.47.93-.25.54-.71-.92.07.27.76-1.57.89-.6-.25-1.92-.47-2.09-.98l1.73-.03c-.89-.65-2.24.02-3.15-.09l.12-.28c-2.65.09-2.69.81-5.54.76l.3.21c-1.56.71-1.3-.4-2.86.13l-.47-.72c-1.03.17-3.6.69-5.44.83,1.04-.54,3.2-.81,4.53-1.13-1.02,0-3.46.05-3.99.41.41-.07.92-.25,1.33-.14-1.25.57-2.89.84-4.92.83.36-1.4-5.29-.35-6.76-1.43-3.59.51-7.12-.22-11.3-.14,1.48,1.08-1.22.03-.96,1.15-.98.07-1.35.05-1.43-.02l-2.95-.67c-.7-.32.92-.25.83-.49-2.13-.08-.89-.47-2.3-.77.29.4-.74.57-1.96.42l1.71.51c-2.98.6-2.58-.93-5.58-.35l.95-.35c-1.54.21-5.69,0-7.2.89-.28-.13-.63-.43.04-.51-3.68-.14-8.2.95-11.06.4l.28-.27c-.69.08-1.2.51-2.06.24.04-.11.28-.27-.04-.29-.37.1-1.83.48-2.74.32l.78-.31c-3.59-.36-5.52.75-8.53.93,0-.8-2.82-1.06-4.23-1.19l.05-.12c-4.18-.1-7.11.67-10.99.98-2.41-.87-8.15-.36-12.02-.85.59.14-.1.62-.78.71-.91-.16-2.5.56-2.36-.18h.32c-.69-.71-2.55-.51-4-.54l-.24.96c-3.81-1.4-9.98.51-12.06-.74-.92.24-2.06.24-2.97.48l.05-.51c-2.55-.13-3.82-.2-6.96-.08l.64-.37c-1.77-.03-2.24,1.49-3.88,1.52l-.49-.77c-3.09.01-6.23-.67-9.3.03.05-.11.14-.34.64-.37-1.46-.02-5.64-.52-5.11.54-.04-.69-3.2-.07-4.87.23l.26-.51c-1.41.65-1.45.83-3.43,1.01-.47-.07-.41-.4.21-.27-1.56-.27-1.22.48-3.1.21l.7-.32c-1.6-.04-1.48.14-2.36.51-1.01.21-3.04-.13-3.27-.59-.22.28-1.1.65-2.04.52-.13-.17.22-.28.39-.34-2.68-.34-3.98.59-5.82.09-.04-.17-.16-.25-.31-.3,2.12.01,3.84.04,3.68.08,0-.47-1.72-.55-.35-1.2-1.38.35-3.74,1.12-5.41.9-.08-.05-.16-.09-.22-.16l.17-.05c-.39-.05-.73,0-1.06.08-.54-.08-.87-.14-1.39-.14-.2-.38-1.97-.21-2.83-.23.07.51-1.05.43,0,.85-.13-.03.16-.06.73-.08.13-.01.28-.02.37-.05-.01.01-.04.03-.06.05.56-.01,1.3-.03,2.13-.03-.68.26-1.39.48-2.33.19-.44.33-.92.67-1.2.83-1.17-.71-3.44-1.11-3.75-1.54-2.62.29-6.17.19-7.81,1.15-.75.12-.86-.27-1.13-.43.43-.1.94-.08,1.17-.22-1.49.25-4.41.1-4.76.77-1.88-.3,1.05-.62-1.52-.51l.35-.21c-5.07-1.08-8.24,1.72-13.86.34.39.08.58.12.66.23-6.4-.61-13.2.57-19.53-.39-1.8-.19-1.99.23-3.09.56l-.39-.55-1.88.64c-2.66.47-4.61-1.35-7.97-.47l.43.37c-1.21-.07-3.83.22-3.63-.21-.13.07-.4.38-.87.19l-.04-.29-2.97.49c-2.3-.21.36-1.15-3-1.2-1.25.11-3.56.84-3.09,1.03.51.01,1.29.18,1.33.47l-1.14.15c-.21.85-1.09,1.72,1.72,2.31l1.95-.52.63.41-1.65.03c.93.38,1.52.04,2.18-.19.16.22.43.37.82.45l1.92-.81c.23.33-.86.66.42.84.9-.38-.86-.75.63-1,.93.38.66.7,1.76.37.16.22-.07.36-.51.45.98-.26,2.59-.11,3.09-.56.98.47,3.3-.12,3.2.68.31-.19,1.72-.63,2.62-.67-1.64.96,3.35.05,2.92,1.09,1.22-.86,4.38-.38,6.53-.86-.12.07-.36.21-.54.16,1.21.07,1.56.34,2.34.49.16-.71,2.04-.88,3.06-1.32,1.48.69-.9.84-.43,1.5-.07-.58,2.57-.58,2.07-1.06,1.13.43.98.21,1.56.8.2-.89,1.06-.15,2-.7,1.64.44.42.84,2.22.56.86.27-.75.59-.75.59l-.06-.02h0ZM142.64,159.41h0c-.37.02-.69.03-.89.04.19,0,.44-.02.89-.04ZM146.24,159.39c-.44-.02-.98-.02-1.57-.02-.13-.18,0-.36.37-.35-.19.12.65.22,1.19.37ZM138.62,155.84c.57-.08.76.03.84.13-.27,0-.58.03-1,.06-.01.02-.05.04-.07.06.05-.1.12-.19.22-.26h0Z"/>
    <path class="st5" d="M137.59,156.51c-.08.01-.13.03-.24.03.12.05.22.08.34.12.07-.05.14-.11.2-.16h-.31Z"/>
    <path class="st5" d="M464.06,157.27h-.07c.06,0,.12.03.16.06-.05-.03-.05-.04-.08-.06h0Z"/>
    <polygon class="st5" points="195.96 160.38 195.96 160.25 195.64 160.36 195.96 160.38"/>
    <path class="st5" d="M483.9,159.04s.11.09.26.13c-.01-.03-.13-.08-.26-.13Z"/>
    <path class="st5" d="M492.46,159.15l1.22.19c-.52-.1-.91-.15-1.22-.19Z"/>
    <path class="st5" d="M499.05,159.41c.08-.09.1-.16.13-.22h-.01l-.12.23h0Z"/>
    <path class="st5" d="M394.31,160.01c-.09,0-.18,0-.25.02-.6.1-.19.06.25-.02Z"/>
    <path class="st5" d="M425.48,158.81c-.33.1-.66.19-1,.24.55.04.98.05,1-.24Z"/>
    <path class="st5" d="M359.5,160.62h-.22.22Z"/>
    <path class="st5" d="M423.02,159.04c.55.1,1.02.08,1.45,0-.45-.03-.99-.09-1.45,0Z"/>
    <path class="st5" d="M527.6,159.64l.32.02s.01-.06.04-.08l-.36.06Z"/>
    <path class="st5" d="M527.96,159.58l.35-.06c-.16,0-.31,0-.35.06Z"/>
    <path class="st5" d="M529.05,159.39l-.74.13c.25,0,.57.02.74-.13Z"/>
    <path class="st5" d="M518.88,159.4l-.1.19c.05-.04.09-.1.1-.19Z"/>
    <path class="st5" d="M516.23,159.46c.63.04,1.59.4,2.47.28l.08-.15c-.42.27-1.95-.45-2.55-.13Z"/>
    <path class="st5" d="M505.17,157.16l2.22.15c-.39-.2-.9-.47.11-.51-2.8-.59.57.45-2.33.36Z"/>
    <path class="st5" d="M498.29,156.87c1.19-.09-.01-.29.05-.4-.76.18-.94.23-.05.4Z"/>
    <path class="st5" d="M448.52,156.87l.12-.47c-.92.07,0,.18-.12.47Z"/>
    <polygon class="st5" points="439.01 159.28 439.9 159.57 440.33 159.14 439.01 159.28"/>
    <polygon class="st5" points="433.39 155.96 433.79 155.89 432.26 156.06 433.39 155.96"/>
    <path class="st5" d="M349.82,156.12l.28.58c.62-.1.75-.75-.28-.58Z"/>
    <path class="st5" d="M313.74,156.7c-.4-.29-1.41-.47-2.04-.19.81.04,1.62.26,2.04.19Z"/>
    <polygon class="st5" points="205.54 155.77 206.26 155.58 204.89 155.74 205.54 155.77"/>
  </g>
  <g>
    <path class="st6" d="M305.2,58.54H39.08c-16.66,0-30.15,13.47-30.15,30.08v67.16c0,16.61,13.5,30.08,30.15,30.08h621.38c16.66,0,30.15-13.47,30.15-30.08v-67.15c0-16.61-13.5-30.08-30.15-30.08h-355.26,0Z"/>
    <g class="st4">
      <text class="st0" transform="translate(51.89 106.27)"><tspan x="0" y="0">Select The Emirate</tspan></text>
    </g>
    <g>
      <path class="st5" d="M534.2,159.84c.25-.12.11-.38-.59-.34l-.49.45,1.08-.12h0Z"/>
      <path class="st5" d="M529.51,159c-.82.22-1.77.6-1.24,1.02.81-.44,1.01-.25,1.88-.78.7-.05,1.21.14,1.1.32.25-.12,1.08.1,1.46-.19-.91-.35-2.06-.36-3.26-.08-.26-.1,0-.22.05-.3h0Z"/>
      <path class="st5" d="M461.41,158.3l.44.05c-.12-.03-.27-.05-.44-.05Z"/>
      <path class="st5" d="M419.2,158.04c.32-.01.45-.05.47-.1-.3.03-.54.05-.47.1Z"/>
      <path class="st5" d="M412,157.54c.16.01.28.02.42.03-.16-.04-.33-.06-.42-.03Z"/>
      <path class="st5" d="M461.41,158.3l-1.13-.14c-.08.15.58.11,1.13.14Z"/>
      <path class="st5" d="M520.12,160.09c.24-.02.43-.06.61-.12-.19.02-.38.03-.57.05,0,.03-.02.05-.04.07h0Z"/>
      <path class="st5" d="M480.01,157.93h.34c.1-.05.19-.12.28-.19l-.63.19Z"/>
      <path class="st5" d="M494.28,157.86c-.32-.01-.43.37-.56.54.18-.16.42-.23.7-.27,0-.08-.04-.16-.14-.27h0Z"/>
      <path class="st5" d="M516.92,158.54l.4-.05c-.1.01-.28.03-.4.05Z"/>
      <path class="st5" d="M469.79,157.84c-.02-.05-.07-.11-.13-.14,0,.05.05.1.13.14Z"/>
      <path class="st5" d="M70.47,160.74v-.07c-.08.04-.11.07,0,.07Z"/>
      <path class="st5" d="M53.93,158.83l.23-.02c.02-.08.05-.14.05-.22l-.28.24h0Z"/>
      <path class="st5" d="M398.81,157.05s.04,0,.06,0c.35-.04.15-.03-.06,0Z"/>
      <path class="st5" d="M277.77,157.34c1.37.34-2.23.45-.16.82-.19-.15,1.88-.6.16-.82Z"/>
      <path class="st5" d="M519.75,160.05c-.19,0-.39,0-.59,0,.27.01.45.01.59,0Z"/>
      <path class="st5" d="M277.6,158.16h0l.22.04c-.09-.01-.14-.03-.22-.04Z"/>
      <path class="st5" d="M368.43,157.28c.06.07.19.12.31.17,0-.04-.08-.09-.31-.17Z"/>
      <path class="st5" d="M391.06,157.83l-.56-.05c.22.03.4.05.56.05Z"/>
      <path class="st5" d="M356.68,157.82c-.31-.03-.41-.08-.83-.03.04.02.07.03.13.05.15-.05.35-.08.7-.01h0Z"/>
      <path class="st5" d="M344.45,157.83c.07.03.15.05.22.08.12,0,.26-.01.39-.02l-.61-.05h0Z"/>
      <path class="st5" d="M107.65,160.55c-.27-.11-.43-.23-.57-.35.19.27-1.61.37.57.35Z"/>
      <path class="st5" d="M520.11,159.88c-.07.1-.18.14-.37.16.14,0,.28-.01.41-.02.04-.05.04-.11-.04-.14Z"/>
      <path class="st5" d="M356.19,160.87l-1.95-.05c.54.03,1.25.05,1.95.05Z"/>
      <path class="st5" d="M195.4,160.5l-.45.05c.17,0,.33,0,.45-.05Z"/>
      <path class="st5" d="M348.47,160.87c-.35-.14-.72-.21-1.1-.27-.08.03-.17.05-.22.1l1.32.16Z"/>
      <path class="st5" d="M107.08,160.2h0Z"/>
      <path class="st5" d="M94.28,161.12c1.85.01.87-.49,1.26-.79,2.21-.14,1.02.37,1.77.63,1.38-.14,2.44-.6,3.47-.58.07.08.28.12.04.22,1.46-.4,4.33-.02,6.03-.53.13.05.19.09.22.12-.28-.25-.32-.51-.26-.69.83,0,1.54-.32,1.86.01-.51,0-.55.12-.79.23l.87-.14c.78.47-1.18.16-1.18.51,1.7-.16,3.67-.55,4.97-.41.27.47-3.04.16-1.3.57l-2.01-.18c1.54.73-1.22-.05.19.73,2.65.14,2.96-.24,5.6-.1.6-.26-.19-.38.39-.65,3.76-.47,2.95,1.17,5.72.55.72-.31.99-.9,2.96-.59l-.67.53c2.56.05,1.46-.76,4.14-.4-.48.21-2.01.17-1.62.24,1.74.42,1.23-.3,2.56-.3l.28.47c2.73-.08,5.73-.41,8.76-.49-.16.14-.69.29.02.43,3.81-.23,8.14.05,11.81.34l1.4-.4c.33,0,.6.19.25.26,1.43.15.07-.25.76-.41.81-.03,1.07.23.56.35,2.53-.34,7.2-.73,9.87-.3l-.52.12c2.07.16,2.34-.82,4.26-.45l-.37.07c4.5.17,9.47-.19,12.91.41.66-.58,4.46.26,4.75-.55,2.57.4,1.83.55,5.46.82.97.03,1.44-.51,2.64-.59l.03.43,1.62-.45.86.51,1.12-.11c-.45-.03-.95-.19-.88-.31,1.75-.19,4.27.3,4.31.51l4.14-.36c-.09.17-.78.23-1.33.34,2.21-.43.4.45,2.43.05-.27-.1.15-.25.19-.34,1.01.25,3.31.26,5.01.15l-.33.29c3.07.08,6.48-.14,9.93-.14-1.24-.14-.95-.64.06-.69l.4.45c.66-.27-1.06-.17.28-.51,1.29.05.86.51.13.65l1.56-.16c.09.13-.28.21-.37.38.64-.27,2.71.45,3.63-.03l.09.13c3.45,0,5.01-.15,7.82-.17.05-.38,1.16-.3,1.99-.61,2.06.12,4.35.43,6.84.39,1.74-.19.51-.33,1.3-.56.13.35,2.61.32,1.33.57,2.98-.05,3.82-.07,7.59-.36-.41-.14-.87-.21-.63-.33.69-.05,1.56.14,1.46.32l-.18.03c4.23-.53,9.78,1.02,13.15.3l-.19.03,3.5-.38c1.61.06-.97.26.22.48,3.77-.58,5.96.08,9.07-.31,2.41,1.04,8.53-.08,11.78.59l-.19-.25c.84-.24,1.01.14,1.63.2-.09-.19-.91-.22-.39-.35,7.11-.3,14.67.36,21.96.58,2.67.07,1.51-1.26,4.87-.68l-.95.45c5.38-.54,11,.02,16.27-.45-.31.1-.32.24-.83.24,1.11.33,4.11.01,4.13-.25.82.03.19.24.69.38,1.12.19,2.8-.42,3.39-.1.1.05-.31.11-.51.13.73-.16,3.39.04,2.69-.34,1.97.18,3.78-.17,5.36.05,1.03-.43,3.38.21,3.71-.4-.14.62,3.47.5,4.72.21-.42.19,1.09.19.6.45,1.42,0,2.73-.12,2.48-.45,2.63.74,5.28-.6,6.76.36,4.23-.34,8.16-.56,11.97-.71-.13.62-4.21.06-4.05.71,3.61-.25,5.7-.79,9.29-.64.93.08-.53.27-.84.38,3.61-.25,6.98.05,10.19-.28,0,.05-.36.12-.69.16.63-.02,1.48.09,1.4-.19l-.62.08c-1.01-.41,2.52-.85,2.63-1.07-1.07.81,3.17.21,1.47,1.22.42-.05.94-.19.84-.38.62.05.81.16.19.38,2.27-.15,1.46-.45,3.52-.45,0,.14-.42.19-.63.35,1.04-.27,2.09-.53,3.82-.42-.1.08.1.19-.42.19,2.98-.04,5.08-.71,8.36-.45-.97.59,1.11.19,1.29.71l1.76-.15-.71-.25c1.54,0,2.91-.36,4.23-.2l-1.15.21,2.89-.1-1.63-.19c1.56-.26-.16-.65,1.89-.51-.42.05,1.54,0,2.35.31h0c.76-.16,1.55-.34,2.69-.21.3.16-.24.57-.04.67.75-.43,3.61-.12,4.56-.58-.32.11-.34.38-.23.43l.63-.35c.72.11.82.16.7.38,2.15.06-.69-.65,1.87-.37-.2.03-.1.08-.52.13,2.56.14,4.95-.22,7.3-.05.69.51-2.06.12-1.26.56,3.39-.1,7.03-.62,10.31-.49l-.61-.05c.45-.73,2.44.36,4.11.01-.41.05-.54.4-.42.32,2.25.12,4.6-.18,8-.4l-.42.19c1.33.16,3.49.1,4.92.18.42-.19,1.24-.16.75-.43,4.41,1.06,8.41-.57,12.33.32-.47,0-1.12.16-.75.16l3.34-.17c-.26-.32-.44-.19-1.14-.44.42-.19,1.36-.34,2.19-.34-1.5.21.01.51.66.69-.11-.1.11-.21.06-.3,1.74.56.29-.64,2.67-.26l-.13.16c.89-.08,1.71-.3,2.67-.26.39.36-.95.17-1.01.47,1.35-.02,2.66-.69,3.88-.33-.57.1-1.39.1-1.97.21,1.33.43,1.48.32,2.47.39h-.1l2.28.19-.58-.12c1.68-.95,3.44-.17,5.71-.8-2.21.59-.37.34-.54.76.58.12,1.46.25,1.21.36,1.07-.34,1.8.27,3.31-.23.07.14,1.15.01.91.35,1.39-.1-.33-.23-.22-.4,2.15-.46,5.06.56,8.16-.08,2.67-.26,3.17-.71,5.64-.93.83.21-.69.49-.69.49,1.35.2,2.36.16,3.64,0-.26.12,0,.21.39.36,1.02-.03.69-.49,2.03-.29-.23.15-.53.39-1.02.54,1.2-.12,2.39-.37,3.64-.49.33.23-.75.36-1.19.51,1.4-.1,3.62-.21,4.05-.58l-.89-.13c.51-.02.26.32-.11.38-1.2.29-1.73-.13-1.8-.26l.89-.08c-.91-.78-3.56.12-5.34.08l.75-.57-1.83.47c-.39-.15-.66-.47.22-.56-1.28-.28-1.13.21-2.23-.11-.12-.05-.07-.08.04-.1l-1.25.17c.25-.12-.21-.4.56-.32-2.24-.33-3.62.43-4.46,0l.19-.03c-3.12.19-.3.42-2.64.91l-1.57-1.04-.31.42c-.32-.01-.95-.05-.84-.21-1.19.29.2.19-.49.45-1.54-.38-4.26.18-4.61-.49-.55.32,1.48.25-.17.47-.47-.72-1.91.12-3.32-.21.43-.37,1.77-.17.36-.51-.85.62-2.75-.14-3.94-.02-.06.5-2.59.21-4.59.38.13-.16-3.76-.27-5.62-.45l.05-.08c-.36.5-2.28.41-3.67.51.05-.3.31-.42,1.07-.56h-1.31c-.31.16-.72.25-1.57.31l.33-.38c-1.74.02-3.52.45-5.77.19-.13.35,1.79.98-.59,1.21-.09-.19-.18-.51.45-.59-.2.03-.73.16-1.14.08l.95-.32c-1.02-.14-.54.27-1.36.24.01-.27-.6-.19-.49-.41.21-.03.72.11,1.03,0-.92-.05-2.04-.21-2.41-.41.08.15,0,.36-.68.4-1.74.02-.6-.32-1.62-.47-.42.19-1.54,0-1.56.4-.51,0-.6-.19-.8-.3-.9.18-4.23.05-3.2.48l.23.03s-.1,0-.15.02h0c-2.97.4-6.16-.23-9.1-.05v-.14c-1.75.16-3.9.09-5.16.38-.52,0-1.22-.25-1.01-.41-1.34.1-1.49.25-3.43.03,1.35-.23-.46-.21,1.39-.17-1.74-.12-2.14-.34-4.01.03.64-.35-1.31-.44-2.14-.34l1.22.25c-.93.05-1.74.02-2.58,0l.45-.46c-3.57-.56-6.44.95-9.15.01-.95.32,1.94.23,1.1.6-1.64-.06-3.35-.71-3.87-.72-2.25-.25-2.1.67-4.45.49.3.16.59.6-1.17.75-1.64-.06-2.02-.69-.98-.82.39-.01.58.04.57.1.53-.06,1.23-.13.57-.31l-.22.16c-.81-.16-3.08-.15-2.54-.42-1.24.16-.53.27.39.35-2.11-.23-3.29,0-5.46-.16.34.09.66.28.32.28-3.18-.2-1.4.31-3.55.38-1.22-.25.44-.59-1.73-.38-1.33-.16-.28-.43.25-.56-1.97.32-3.7-.21-4.82-.26l1.04-.13c-.63.08-1.13.08-1.65.08l.6.32c-.61-.05-1.13-.05-1.12-.19-.63.21.48.54-.77.83-.81-.16-2.48.18-2.76-.25,2.56.14-.28-.43,1.89-.5-.42.05-.93.05-1.54,0-.09-.05.09-.09.25-.12-2.45-.38-1.13.49-3.67.48.32-.24-.59-.46-1.01-.41,1.02,0,.49.4-.45.59-1.63-.19-1.77.14-2.62.12l.98.09c-.33.24-1.15.21-2.28.29-.1-.19,1.03-.13.63-.21-1.26.43-2.85-.45-4.61-.16-.81-.16-.08-.46-.8-.57-1.97.32-2.13-.34-4.21-.08.6.33.7.25-.76.57l3.41-.23-2.18.47c1.03,0,2.17-.21,2.79-.15-1.04.27-.93.19-.44.46-1.41-.49-2.79.29-4.41-.05l.05-.81c-2.44-.36-4.34.42-7.52.21l1.02.14c-.42.32-1.96.05-2.99.18.1-.27-.54-.37-.98-.54.05.2-2.33-.02-2.61.52l-1.42-.36c-2.56-.14-2.93.77-5.39.68.75-.3-.38-.49,1.27-.7-.82,0-1.56-.05-1.57.14-.48-.17-2.28.36-3.04.11-.35.12-.46.4-1.39.38-.1-.05,0-.13,0-.13,0,.13-1.45.19-.64.48-2.53-.84-7.08.06-9.29-.67-1.8.09-3.96.18-5.59.2.1-.08,0-.14.31-.11-2.25-.25-1.38.78-3.94.49-1.3-.44,1.36-.24.54-.4-.36-.89-3.09.12-4.81-.4l.42-.05c-1.32-.3-3.21.34-5.36.27,0,0,.1-.08.01-.14-1.47.45-4.26.6-6.32.73.64-.35.94-.19.54-.54-.92.05.27.57-1.58.67-.6-.19-1.94-.36-2.12-.73l1.74-.02c-.89-.49-2.26.01-3.18-.07l.12-.21c-2.68.07-2.71.61-5.59.57l.3.16c-1.57.54-1.32-.3-2.88.1l-.48-.54c-1.04.13-3.63.52-5.49.62,1.05-.4,3.23-.6,4.58-.84-1.03,0-3.5.04-4.03.31.42-.05.94-.19,1.35-.1-1.26.43-2.92.64-4.97.62.37-1.05-5.34-.27-6.83-1.08-3.62.39-7.19-.16-11.41-.1,1.5.82-1.23.02-.98.86-.98.05-1.36.04-1.45-.01l-2.98-.5c-.71-.25.93-.19.84-.37-2.15-.06-.9-.36-2.33-.58.29.3-.75.43-1.97.32l1.73.38c-3.01.45-2.6-.71-5.63-.26l.96-.26c-1.56.16-5.74,0-7.27.67-.28-.1-.64-.33.04-.38-3.72-.1-8.28.72-11.17.3l.28-.21c-.69.06-1.21.38-2.08.18.04-.08.28-.21-.04-.22-.37.07-1.84.36-2.76.24l.78-.23c-3.63-.27-5.57.56-8.61.7,0-.6-2.85-.8-4.27-.9l.05-.08c-4.23-.08-7.18.5-11.09.74-2.43-.66-8.23-.27-12.12-.65.6.11-.1.47-.79.53-.92-.12-2.53.42-2.38-.14h.33c-.69-.53-2.57-.38-4.04-.4l-.25.73c-3.85-1.06-10.07.38-12.17-.56-.92.18-2.08.18-3,.36l.05-.39c-2.57-.1-3.85-.15-7.03-.05l.65-.27c-1.79-.03-2.27,1.12-3.91,1.15l-.5-.58c-3.12,0-6.29-.5-9.38.03.05-.08.14-.25.65-.27-1.47-.01-5.69-.39-5.16.4-.04-.52-3.23-.05-4.91.18l.26-.38c-1.42.49-1.47.62-3.46.76-.47-.05-.41-.31.22-.21-1.57-.2-1.22.36-3.13.16l.71-.25c-1.62-.03-1.49.1-2.38.38-1.01.15-3.07-.1-3.31-.44-.22.21-1.1.49-2.06.39-.13-.13.22-.21.39-.25-2.71-.26-4.02.45-5.88.07-.04-.12-.16-.19-.31-.23,2.15,0,3.88.03,3.72.05,0-.35-1.74-.41-.36-.9-1.39.27-3.77.84-5.46.68-.08-.03-.16-.07-.22-.12l.17-.04c-.39-.03-.74,0-1.07.05-.54-.05-.88-.1-1.4-.1-.2-.29-1.99-.16-2.85-.17.07.38-1.06.32,0,.65-.13-.03.16-.05.74-.06.13-.01.28-.01.37-.04-.01.01-.04.02-.06.03.57-.01,1.31-.02,2.15-.03-.69.2-1.4.36-2.35.14-.45.25-.93.5-1.21.62-1.18-.54-3.47-.83-3.79-1.16-2.64.22-6.22.14-7.88.86-.75.1-.86-.21-1.15-.32.43-.08.95-.06,1.18-.16-1.5.19-4.45.08-4.81.58-1.89-.23,1.07-.47-1.54-.38l.35-.16c-5.11-.81-8.32,1.29-13.99.25.39.06.59.1.67.18-6.47-.46-13.32.43-19.7-.3-1.81-.14-2.01.18-3.12.43l-.39-.41-1.89.48c-2.68.35-4.65-1.02-8.05-.36l.44.28c-1.22-.05-3.87.16-3.66-.16-.13.05-.4.29-.88.14l-.04-.22-3,.37c-2.33-.16.37-.86-3.03-.91-1.26.08-3.59.63-3.12.78.51.01,1.3.14,1.34.35l-1.16.11c-.21.64-1.1,1.29,1.74,1.74l1.97-.39.63.31-1.66.02c.94.29,1.54.03,2.21-.14.16.16.43.28.83.34l1.94-.61c.23.25-.87.49.43.63.91-.28-.87-.56.63-.75.95.29.67.53,1.77.28.16.16-.08.27-.51.34.98-.2,2.61-.08,3.12-.43.98.36,3.33-.1,3.23.51.31-.14,1.74-.47,2.64-.5-1.65.73,3.39.04,2.95.82,1.22-.65,4.42-.29,6.59-.65-.12.05-.36.16-.55.12,1.22.05,1.57.25,2.36.37.16-.54,2.06-.66,3.09-1,1.5.52-.91.63-.44,1.13-.07-.44,2.6-.43,2.09-.8,1.15.32.98.16,1.57.6.2-.67,1.07-.12,2.01-.53,1.65.33.42.63,2.24.43.86.21-.75.45-.75.45v.12ZM137.53,159.96h0c-.37.01-.69.03-.89.03.19,0,.45-.01.89-.03ZM141.17,159.95c-.44-.01-.99-.02-1.58-.01-.13-.13,0-.27.37-.26-.2.09.66.16,1.2.28h0ZM133.48,157.28c.57-.05.77.02.85.1-.27,0-.59.02-1.01.05-.01.01-.05.03-.07.05.05-.08.12-.14.22-.19h0Z"/>
      <path class="st5" d="M132.45,157.78c-.08,0-.13.03-.24.03.12.03.23.06.34.09.07-.04.14-.08.2-.12h-.31,0Z"/>
      <path class="st5" d="M461.92,158.36h-.07c.07,0,.12.02.16.05-.05-.02-.05-.03-.08-.05h0Z"/>
      <polygon class="st5" points="191.36 160.69 191.35 160.6 191.03 160.68 191.36 160.69"/>
      <path class="st5" d="M481.94,159.68s.11.07.26.1c-.01-.03-.13-.06-.26-.1Z"/>
      <path class="st5" d="M490.58,159.77l1.22.14c-.53-.08-.92-.12-1.22-.14Z"/>
      <path class="st5" d="M497.24,159.96c.08-.07.11-.12.13-.16h-.01l-.12.16h0Z"/>
      <path class="st5" d="M391.53,160.41c-.09,0-.18,0-.25.02-.6.08-.19.05.25-.02Z"/>
      <path class="st5" d="M422.98,159.51c-.34.07-.66.14-1.01.19.56.03,1,.03,1.01-.19Z"/>
      <path class="st5" d="M356.4,160.88h-.22.22Z"/>
      <path class="st5" d="M420.51,159.68c.56.08,1.03.06,1.46,0-.46-.03-1-.07-1.46,0Z"/>
      <path class="st5" d="M526.05,160.14h.32s.01-.03.04-.05l-.36.05h0Z"/>
      <path class="st5" d="M526.4,160.09l.36-.05c-.16,0-.31,0-.36.05Z"/>
      <path class="st5" d="M527.51,159.94l-.75.1c.26,0,.58.01.75-.1Z"/>
      <path class="st5" d="M517.24,159.96l-.1.14c.05-.03.09-.08.1-.14Z"/>
      <path class="st5" d="M514.57,160c.64.03,1.6.3,2.49.21l.08-.11c-.42.21-1.97-.34-2.57-.1Z"/>
      <path class="st5" d="M503.41,158.27l2.24.11c-.39-.15-.91-.35.11-.38-2.82-.45.58.34-2.35.27h0Z"/>
      <path class="st5" d="M496.46,158.05c1.21-.07-.01-.22.05-.3-.76.14-.95.17-.05.3Z"/>
      <path class="st5" d="M446.24,158.05l.12-.35c-.93.05,0,.14-.12.35Z"/>
      <polygon class="st5" points="436.64 159.86 437.54 160.08 437.98 159.76 436.64 159.86"/>
      <polygon class="st5" points="430.97 157.36 431.37 157.31 429.82 157.44 430.97 157.36"/>
      <path class="st5" d="M346.63,157.49l.28.43c.63-.08.76-.56-.28-.43Z"/>
      <path class="st5" d="M310.21,157.93c-.39-.21-1.42-.36-2.05-.14.82.03,1.63.2,2.05.14Z"/>
      <polygon class="st5" points="201.01 157.23 201.75 157.07 200.37 157.2 201.01 157.23"/>
    </g>
  </g>
</svg>