<?xml version="1.0" encoding="UTF-8"?>
<svg id="Layer_1" xmlns="http://www.w3.org/2000/svg" version="1.1" viewBox="0 0 389.83 203.14">
  <!-- Generator: Adobe Illustrator 29.7.1, SVG Export Plug-In . SVG Version: 2.1.1 Build 8)  -->
  <defs>
    <style>
      .st0 {
        fill: #c806f7;
      }

      .st1 {
        fill: #9424ff;
      }

      .st2, .st3 {
        fill: #fff;
      }

      .st4 {
        opacity: .3;
      }

      .st5 {
        fill: #050505;
        stroke: #020202;
        stroke-width: 7.17px;
      }

      .st5, .st3 {
        stroke-miterlimit: 10;
      }

      .st3 {
        stroke: #fff;
        stroke-width: 6.92px;
      }
    </style>
  </defs>
  <g>
    <g class="st4">
      <path class="st5" d="M22.14,102.99c-.28.39-.46.9-.47,1.39,0,.25.03.49.09.71l.05.16s.05.12.03.08l-.03-.08-.24-.64-.42-1.27c-.25-.84-.48-1.68-.67-2.52-.4-1.68-.65-3.38-.8-5.08-.28-3.41-.08-6.87.7-10.27,1.48-6.83,5.73-13.27,11.66-18.15,5.99-4.88,13.64-8.18,21.68-9.75,8.06-1.59,16.52-1.31,24.39.41l-3.9,1.83h0c2.64-7.62,7.27-14.71,13.72-20.68,3.22-2.98,6.91-5.63,10.95-7.88,4.06-2.23,8.47-4.01,13.07-5.34,4.6-1.32,9.4-2.21,14.26-2.58,4.86-.36,9.75-.27,14.57.26,9.66,1,18.92,3.93,27.16,8.09h0l-5.01.97c5.25-7.25,12.32-13.72,20.98-18.5,8.57-4.85,18.71-8,29.26-8.88,10.54-.97,21.47.69,31.08,4.42,9.63,3.77,17.88,9.38,24.39,16.27h0l-6.85-.99c6.86-3.65,14.71-6.09,22.89-6.95,8.17-.83,16.63-.08,24.39,2.32,3.89,1.18,7.57,2.83,10.94,4.82,3.38,1.98,6.46,4.3,9.08,6.91,5.26,5.24,8.91,11.25,10.88,17.86h0l-5.22-3.18c8.51-.22,17.06,1.46,24.4,4.9,7.33,3.43,13.39,8.66,16.99,14.88,3.65,6.21,4.63,13.34,3.04,19.94-1.57,6.62-5.54,12.74-11.13,17.53h0l-.24-3.29c7.72,5.46,13.58,12.82,15.87,21.08,1.11,4.12,1.44,8.44.5,12.67-.89,4.23-3.02,8.28-5.98,11.78-5.97,7.04-15.19,11.9-25.13,14.03-4.97,1.08-10.14,1.58-15.29,1.37-5.14-.23-10.21-1.09-15.07-2.44l3.9-1.66c-1.7,5.7-5.02,11.33-10.47,15.68-2.71,2.16-5.92,3.91-9.32,5.27-3.43,1.33-7.1,2.15-10.79,2.65-3.71.51-7.45.49-11.15.28-3.7-.26-7.33-.88-10.87-1.71-7.05-1.75-13.65-4.55-19.56-8.08h0l7.94-2.05c-.76,1.96-1.62,3.64-2.63,5.35-1,1.69-2.1,3.34-3.35,4.93-2.47,3.18-5.44,6.15-8.93,8.73-3.49,2.57-7.47,4.81-11.87,6.35-4.38,1.54-9.04,2.54-13.77,2.89-9.48.76-19.01-1.09-27.22-4.67-8.29-3.54-15.15-9.02-20.13-15.37l8.4.21c-2.54,2.81-5.4,5.43-8.6,7.76-3.26,2.29-6.82,4.29-10.64,5.94-3.83,1.64-7.95,2.84-12.19,3.64-4.25.79-8.67,1.13-13.08.85-4.41-.26-8.8-1.07-12.93-2.44-4.14-1.37-7.98-3.33-11.31-5.7-3.33-2.37-6.16-5.12-8.52-8.06-2.37-2.96-4.28-6.06-5.72-9.47l8.13,1.77c-5.91,4.13-12.91,7.42-20.62,8.98-3.83.82-7.82,1.27-11.84,1.18-4.01-.06-8.07-.53-11.98-1.62-3.89-1.1-7.64-2.76-10.86-5.03-3.24-2.25-5.83-5.15-7.59-8.23-1.76-3.09-2.8-6.35-3.23-9.58-.44-3.25-.43-6.41.14-9.71l6.26,4.59c-8.14,1.73-17.05,1-24.61-2.04-7.57-3-13.88-8.39-16.79-15.01-2.96-6.59-2.49-13.95.8-20.25,1.63-3.16,3.95-6.08,6.83-8.59,1.42-1.27,3.02-2.4,4.69-3.43l1.29-.74.65-.37.31-.18s.01,0,.02.02c.04.07.18.4.66.71h-.02ZM31.53,106.04c-1.1,1.03-2.53,2.09-4.06,2.88l-.57.29-.24.14-.46.27-.93.53c-1.2.75-2.35,1.55-3.36,2.46-2.06,1.79-3.72,3.89-4.89,6.15-2.36,4.53-2.65,9.73-.62,14.24,1.98,4.52,6.34,8.28,11.74,10.43,5.4,2.18,11.78,2.71,17.64,1.46l7.28-1.55-1.02,6.15c-.82,4.92-.21,10.34,2.25,14.59,2.4,4.3,6.91,7.36,12.53,8.95,2.8.78,5.83,1.13,8.88,1.18,3.06.07,6.16-.28,9.16-.92,6.06-1.22,11.66-3.85,16.48-7.2l5.67-3.94,2.46,5.71c2.27,5.27,6.23,10.34,11.3,13.96,5.08,3.66,11.53,5.74,18.29,6.13,3.38.22,6.82-.04,10.17-.67,3.35-.63,6.65-1.58,9.73-2.9,3.08-1.33,5.97-2.96,8.63-4.82,2.61-1.91,4.96-4.06,7.06-6.37l4.41-4.85,3.99,5.06c4.09,5.18,9.65,9.64,16.34,12.48,6.61,2.88,14.19,4.33,21.53,3.73,3.67-.27,7.24-1.05,10.6-2.21,3.36-1.17,6.41-2.89,9.16-4.91,2.74-2.03,5.15-4.43,7.19-7.04,1.02-1.31,1.94-2.67,2.77-4.08.82-1.38,1.57-2.89,2.08-4.2l2.18-5.63,5.77,3.57h0c4.85,3.21,10.31,5.83,16.16,7.55,2.94.81,5.94,1.47,9,1.81,3.05.29,6.14.45,9.17.16,3.01-.28,6-.81,8.77-1.75,2.75-.97,5.34-2.22,7.6-3.84,4.52-3.24,7.69-7.82,9.49-12.77l.91-2.5,2.99.84c4.31,1.21,8.79,1.97,13.32,2.19,4.54.2,9.09-.25,13.47-1.18,8.76-1.84,16.8-6.12,21.88-12.09,2.53-2.98,4.31-6.34,5.07-9.89.82-3.55.54-7.26-.4-10.84-1.96-7.18-7.11-13.75-13.97-18.62l-2.07-1.47,1.82-1.82h0c4.62-4.37,7.66-9.77,8.64-15.35.99-5.58-.2-11.32-3.42-16.16-3.18-4.85-8.27-8.83-14.27-11.32-6.01-2.5-12.83-3.53-19.48-3.1l-4.11.27-1.11-3.46h0c-.74-2.56-1.94-5.18-3.41-7.63-1.5-2.45-3.31-4.75-5.41-6.83-2.1-2.09-4.54-3.91-7.19-5.47s-5.55-2.88-8.64-3.81c-6.15-1.9-12.91-2.52-19.51-1.85-6.6.7-12.99,2.68-18.59,5.66l-4.01,2.13-2.85-3.12h0c-5.28-5.91-12.38-10.99-20.4-14.31-8.02-3.31-17.11-4.91-26.16-4.26-9.03.57-17.94,3.09-25.64,7.23-7.78,4.05-14.27,9.7-19.21,16.13l-1.91,2.49-3.1-1.52h0c-7.37-3.77-15.64-6.44-24.26-7.38-4.3-.49-8.66-.6-12.97-.3-4.32.31-8.57,1.07-12.65,2.22-4.08,1.16-7.99,2.7-11.58,4.65-3.58,1.97-6.85,4.29-9.74,6.92-5.78,5.25-10.06,11.71-12.47,18.51h0l-.79,2.4-3.11-.57c-6.93-1.27-14.21-1.26-20.96.32-6.73,1.55-12.91,4.52-17.55,8.62-2.31,2.05-4.19,4.39-5.65,6.86-1.48,2.47-2.44,5.13-2.91,7.87-.49,2.73-.52,5.54-.15,8.33.19,1.39.47,2.78.86,4.15.18.68.41,1.36.64,2.02l.38.98.2.47.02.06.06.15.08.23c.1.31.17.64.21.98.07.68-.03,1.37-.23,1.94h0Z"/>
    </g>
    <path class="st3" d="M28.2,102.94c-.27.38-.44.87-.45,1.34,0,.24.03.47.09.68l.05.15s.05.12.03.08l-.03-.08-.23-.62-.4-1.22c-.24-.81-.47-1.62-.64-2.43-.38-1.62-.62-3.26-.77-4.9-.27-3.29-.08-6.63.68-9.91,1.43-6.59,5.53-12.8,11.25-17.51,5.78-4.71,13.16-7.89,20.92-9.4,7.78-1.54,15.94-1.27,23.53.4l-3.76,1.77h0c2.55-7.35,7.01-14.19,13.24-19.95,3.11-2.87,6.67-5.44,10.56-7.61,3.91-2.15,8.17-3.87,12.61-5.16,4.44-1.28,9.07-2.13,13.76-2.49,4.68-.35,9.41-.26,14.06.25,9.33.97,18.26,3.79,26.2,7.8h0l-4.83.94c5.07-6.99,11.88-13.24,20.24-17.85,8.27-4.68,18.05-7.72,28.23-8.57,10.17-.93,20.72.66,29.98,4.26,9.29,3.64,17.26,9.05,23.54,15.7h0l-6.61-.95c6.62-3.52,14.2-5.87,22.08-6.71,7.88-.8,16.04-.08,23.54,2.24,3.76,1.14,7.3,2.73,10.56,4.65,3.26,1.91,6.23,4.15,8.76,6.66,5.07,5.06,8.6,10.85,10.5,17.23h0l-5.04-3.07c8.22-.21,16.47,1.41,23.54,4.73,7.07,3.31,12.92,8.35,16.39,14.36,3.52,5.99,4.47,12.87,2.93,19.24-1.52,6.39-5.35,12.29-10.74,16.91h0l-.24-3.17c7.45,5.27,13.1,12.37,15.31,20.34,1.07,3.97,1.39,8.15.48,12.22-.86,4.08-2.91,7.99-5.77,11.37-5.76,6.79-14.65,11.48-24.25,13.53-4.8,1.04-9.79,1.53-14.75,1.32-4.96-.22-9.85-1.05-14.54-2.36l3.76-1.6c-1.64,5.5-4.85,10.93-10.1,15.13-2.62,2.09-5.71,3.77-8.99,5.09-3.31,1.29-6.85,2.08-10.41,2.56-3.58.49-7.19.47-10.76.27-3.57-.25-7.07-.85-10.49-1.65-6.81-1.69-13.17-4.39-18.88-7.8h0l7.67-1.98c-.74,1.89-1.56,3.51-2.54,5.16-.96,1.63-2.03,3.22-3.23,4.76-2.39,3.06-5.25,5.93-8.62,8.43-3.37,2.48-7.21,4.64-11.45,6.13-4.23,1.49-8.72,2.45-13.29,2.78-9.15.73-18.34-1.05-26.27-4.5-8-3.42-14.62-8.7-19.43-14.83l8.1.2c-2.45,2.71-5.21,5.23-8.3,7.49-3.14,2.21-6.58,4.14-10.26,5.73-3.69,1.58-7.67,2.74-11.76,3.51-4.1.76-8.36,1.09-12.62.82-4.25-.25-8.49-1.03-12.48-2.35-3.99-1.32-7.7-3.21-10.91-5.5-3.22-2.29-5.94-4.94-8.22-7.78-2.28-2.85-4.13-5.85-5.52-9.13l7.84,1.71c-5.71,3.99-12.46,7.16-19.9,8.67-3.7.79-7.54,1.22-11.43,1.14-3.87-.06-7.79-.52-11.56-1.56-3.76-1.06-7.37-2.66-10.48-4.86-3.13-2.17-5.63-4.97-7.32-7.94-1.7-2.98-2.7-6.13-3.12-9.24-.42-3.13-.42-6.18.14-9.36l6.04,4.43c-7.86,1.67-16.45.97-23.75-1.97-7.3-2.89-13.4-8.1-16.2-14.48-2.85-6.36-2.4-13.46.77-19.54,1.57-3.05,3.81-5.87,6.59-8.29,1.37-1.22,2.91-2.31,4.53-3.31l1.24-.72.62-.36.3-.17s.01,0,.02.02c.04.07.17.39.63.68h.03ZM37.27,105.88c-1.06.99-2.44,2.02-3.92,2.78l-.55.28-.24.14-.44.26-.89.51c-1.15.72-2.27,1.49-3.24,2.37-1.98,1.73-3.59,3.75-4.72,5.94-2.28,4.37-2.55,9.39-.6,13.74,1.91,4.36,6.12,7.99,11.33,10.07,5.21,2.1,11.36,2.62,17.02,1.41l7.03-1.5-.98,5.93c-.79,4.74-.2,9.98,2.17,14.07,2.31,4.15,6.67,7.11,12.09,8.63,2.7.75,5.63,1.09,8.57,1.14,2.95.07,5.94-.27,8.84-.89,5.85-1.17,11.25-3.71,15.9-6.94l5.47-3.8,2.37,5.51c2.19,5.09,6.01,9.98,10.91,13.47,4.9,3.53,11.13,5.54,17.65,5.91,3.26.21,6.58-.04,9.82-.64,3.23-.61,6.41-1.52,9.39-2.8,2.97-1.29,5.76-2.86,8.33-4.65,2.52-1.84,4.78-3.92,6.81-6.15l4.25-4.67,3.85,4.88c3.95,5,9.32,9.3,15.76,12.05,6.38,2.78,13.69,4.17,20.77,3.6,3.54-.26,6.99-1.01,10.22-2.14,3.24-1.13,6.18-2.79,8.83-4.74,2.65-1.96,4.97-4.27,6.94-6.8.99-1.26,1.88-2.58,2.67-3.93.79-1.33,1.52-2.79,2.01-4.05l2.1-5.43,5.57,3.45h0c4.68,3.1,9.94,5.62,15.59,7.28,2.83.78,5.74,1.42,8.68,1.74,2.94.28,5.93.44,8.84.15,2.91-.27,5.79-.79,8.46-1.69,2.65-.94,5.15-2.14,7.33-3.7,4.36-3.13,7.42-7.55,9.16-12.32l.88-2.41,2.89.81c4.16,1.16,8.48,1.9,12.85,2.12,4.38.19,8.77-.24,13-1.14,8.45-1.77,16.21-5.9,21.11-11.66,2.44-2.87,4.16-6.11,4.89-9.54.79-3.43.52-7.01-.39-10.45-1.89-6.93-6.86-13.26-13.48-17.97l-1.99-1.42,1.76-1.76h0c4.45-4.22,7.39-9.42,8.34-14.81.96-5.39-.2-10.93-3.3-15.59-3.07-4.68-7.98-8.52-13.77-10.93-5.8-2.41-12.38-3.41-18.8-2.99l-3.97.26-1.07-3.34h0c-.71-2.47-1.88-5-3.29-7.36-1.44-2.36-3.19-4.58-5.22-6.59-2.02-2.01-4.38-3.77-6.94-5.28s-5.36-2.78-8.34-3.67c-5.94-1.84-12.46-2.43-18.82-1.78-6.37.68-12.53,2.59-17.94,5.46l-3.87,2.05-2.75-3.01h0c-5.1-5.7-11.95-10.61-19.68-13.81-7.74-3.19-16.51-4.73-25.24-4.11-8.71.55-17.31,2.98-24.74,6.97-7.51,3.91-13.77,9.36-18.54,15.56l-1.84,2.4-2.99-1.46h0c-7.11-3.63-15.09-6.22-23.41-7.12-4.15-.47-8.35-.58-12.52-.29-4.16.3-8.27,1.04-12.2,2.14-3.93,1.11-7.71,2.61-11.18,4.49-3.45,1.9-6.61,4.14-9.4,6.68-5.57,5.07-9.71,11.3-12.04,17.86h0l-.76,2.32-3-.55c-6.69-1.22-13.71-1.21-20.22.31-6.5,1.5-12.46,4.36-16.93,8.32-2.23,1.98-4.04,4.23-5.45,6.62-1.43,2.38-2.36,4.95-2.81,7.59-.47,2.64-.5,5.35-.14,8.04.19,1.34.45,2.69.83,4,.18.66.4,1.31.62,1.95l.36.94.19.45.02.06.06.15.08.22c.1.3.17.62.2.95.07.66-.03,1.32-.22,1.88l.02-.03Z"/>
    <path class="st1" d="M37.71,102.69c-.69-1.56-6.77-16.01,3.83-28.74,9.05-10.87,26.49-15.95,43.39-12.4,1.18-3.45,6.79-18.34,25.02-26.82,17.49-8.14,39.84-7.24,57.94,2.15,12.08-16.51,33.88-25.8,55.31-23.6,21.82,2.24,34.36,15.47,36.87,18.24,13.7-7.37,30.95-8.24,44.77-2.15,16.36,7.21,20.51,20.92,21.13,23.13,16.74-.79,31.84,7.3,36.87,19.31,4.11,9.8.97,20.93-7.97,28.94,12.56,8.83,17.82,22.22,13.24,33.29-6.18,14.93-29.76,24.41-52.74,17.64-1.27,3.86-4.31,10.48-11.85,15.02-12.76,7.68-33.31,6.33-50.04-4.29-.54,1.44-6.95,17.65-26.34,22.53-17.02,4.28-36.75-1.99-47.34-15.77-11.73,13.35-31.58,18.65-47.47,13.63-15.43-4.88-20.96-17.54-21.82-19.62-15.46,11.07-36.15,10.92-46.65,2.45-9.54-7.7-7.56-19.75-7.26-21.43-13.23,2.77-26.84-2.43-32.25-11.83-6.07-10.54-.46-24.01,13.35-29.67h.01Z"/>
    <path d="M33.32,101.26c-.26.36-.43.84-.44,1.3,0,.23.03.46.08.66l.05.15s.05.12.03.08l-.03-.07-.22-.6-.39-1.18c-.23-.79-.45-1.57-.62-2.36-.37-1.57-.6-3.16-.75-4.75-.26-3.19-.07-6.42.66-9.6,1.38-6.39,5.36-12.41,10.91-16.97,5.6-4.56,12.76-7.65,20.28-9.11,7.54-1.49,15.45-1.23,22.81.38l-3.64,1.71h0c2.47-7.12,6.8-13.76,12.83-19.34,3.01-2.78,6.46-5.27,10.24-7.37,3.79-2.09,7.92-3.75,12.23-5,4.31-1.24,8.79-2.07,13.33-2.42,4.54-.34,9.12-.25,13.63.24,9.04.94,17.69,3.67,25.4,7.56h0l-4.68.91c4.91-6.78,11.52-12.83,19.62-17.3,8.02-4.54,17.5-7.48,27.36-8.31,9.86-.91,20.08.64,29.06,4.13,9,3.53,16.72,8.77,22.81,15.22h0l-6.41-.92c6.41-3.41,13.76-5.69,21.4-6.5,7.64-.78,15.55-.08,22.81,2.17,3.64,1.1,7.08,2.65,10.23,4.5,3.16,1.85,6.04,4.02,8.49,6.46,4.92,4.9,8.33,10.52,10.17,16.7h0l-4.88-2.98c7.96-.21,15.96,1.37,22.82,4.58,6.85,3.21,12.52,8.1,15.89,13.92,3.41,5.81,4.33,12.48,2.84,18.65-1.47,6.19-5.19,11.91-10.41,16.39h0l-.23-3.07c7.22,5.1,12.7,11.99,14.84,19.71,1.03,3.85,1.35,7.9.47,11.85-.83,3.95-2.82,7.74-5.59,11.02-5.59,6.58-14.2,11.13-23.5,13.12-4.65,1.01-9.49,1.48-14.3,1.28-4.81-.22-9.55-1.02-14.09-2.29l3.65-1.55c-1.59,5.33-4.7,10.6-9.79,14.66-2.54,2.02-5.54,3.65-8.72,4.93-3.21,1.25-6.64,2.01-10.09,2.48-3.47.48-6.97.46-10.43.26-3.46-.24-6.85-.82-10.17-1.6-6.6-1.63-12.77-4.26-18.3-7.56h0l7.43-1.92c-.71,1.84-1.52,3.4-2.46,5-.93,1.58-1.97,3.12-3.13,4.61-2.31,2.97-5.09,5.75-8.35,8.17-3.26,2.4-6.99,4.5-11.1,5.94-4.1,1.44-8.46,2.38-12.88,2.7-8.86.71-17.78-1.02-25.46-4.36-7.75-3.31-14.17-8.44-18.83-14.38l7.85.2c-2.37,2.63-5.05,5.07-8.05,7.26-3.05,2.14-6.37,4.02-9.95,5.56-3.58,1.53-7.43,2.66-11.4,3.4-3.97.74-8.11,1.05-12.23.79-4.12-.24-8.23-1-12.09-2.28-3.87-1.28-7.47-3.11-10.58-5.33-3.12-2.21-5.76-4.79-7.97-7.54-2.21-2.77-4-5.67-5.35-8.85l7.6,1.66c-5.53,3.87-12.07,6.94-19.29,8.4-3.58.76-7.31,1.18-11.07,1.11-3.75-.06-7.55-.5-11.21-1.51-3.64-1.03-7.14-2.58-10.16-4.71-3.03-2.11-5.45-4.82-7.1-7.7-1.65-2.89-2.62-5.94-3.02-8.96-.41-3.04-.4-5.99.13-9.08l5.86,4.3c-7.62,1.62-15.94.94-23.02-1.91-7.08-2.8-12.99-7.85-15.71-14.04-2.77-6.16-2.32-13.05.75-18.94,1.53-2.96,3.7-5.69,6.39-8.03,1.33-1.19,2.82-2.24,4.39-3.21l1.21-.69.6-.34.29-.16s0,0,.02.02c.04.06.17.38.61.66h.02ZM42.11,104.11c-1.03.96-2.37,1.95-3.8,2.7l-.53.27-.23.13-.43.25-.87.5c-1.12.7-2.2,1.45-3.14,2.3-1.92,1.68-3.48,3.64-4.58,5.76-2.21,4.23-2.47,9.1-.58,13.31,1.85,4.22,5.93,7.74,10.98,9.76,5.05,2.04,11.02,2.54,16.5,1.37l6.81-1.45-.95,5.75c-.76,4.6-.19,9.67,2.1,13.64,2.24,4.02,6.46,6.89,11.72,8.37,2.62.73,5.46,1.06,8.31,1.11,2.86.07,5.76-.26,8.57-.86,5.67-1.14,10.91-3.6,15.41-6.73l5.3-3.69,2.3,5.34c2.12,4.93,5.83,9.67,10.57,13.05,4.75,3.42,10.79,5.37,17.11,5.73,3.16.21,6.38-.04,9.52-.62,3.13-.59,6.22-1.47,9.1-2.72s5.58-2.77,8.07-4.51c2.44-1.79,4.64-3.8,6.6-5.96l4.12-4.53,3.73,4.73c3.83,4.85,9.03,9.02,15.28,11.68,6.18,2.69,13.27,4.05,20.14,3.48,3.43-.25,6.77-.98,9.91-2.07,3.14-1.1,5.99-2.71,8.56-4.59,2.57-1.9,4.82-4.14,6.72-6.59.96-1.22,1.82-2.5,2.59-3.81.77-1.29,1.47-2.7,1.95-3.93l2.03-5.26,5.4,3.34h0c4.53,3,9.64,5.45,15.11,7.06,2.75.76,5.56,1.37,8.42,1.69,2.85.27,5.74.42,8.57.15,2.82-.27,5.61-.76,8.2-1.64,2.57-.91,4.99-2.08,7.1-3.59,4.23-3.03,7.19-7.31,8.88-11.95l.85-2.34,2.8.78c4.03,1.13,8.22,1.84,12.46,2.05,4.24.18,8.5-.23,12.6-1.1,8.19-1.72,15.72-5.72,20.47-11.3,2.36-2.78,4.03-5.93,4.74-9.25.76-3.32.51-6.79-.38-10.13-1.83-6.71-6.65-12.85-13.07-17.42l-1.93-1.37,1.7-1.7h0c4.32-4.09,7.17-9.13,8.08-14.36.93-5.22-.19-10.59-3.19-15.11-2.97-4.54-7.73-8.26-13.34-10.59-5.62-2.34-12-3.31-18.22-2.9l-3.85.25-1.04-3.24h0c-.69-2.4-1.82-4.85-3.19-7.13-1.4-2.29-3.09-4.44-5.06-6.39-1.96-1.95-4.24-3.66-6.73-5.11-2.48-1.46-5.19-2.69-8.08-3.56-5.75-1.78-12.07-2.35-18.25-1.73-6.17.66-12.15,2.51-17.39,5.29l-3.75,1.99-2.66-2.92h0c-4.94-5.53-11.58-10.28-19.08-13.39-7.5-3.09-16.01-4.59-24.47-3.98-8.45.53-16.78,2.89-23.98,6.76-7.27,3.79-13.35,9.07-17.97,15.09l-1.79,2.33-2.9-1.42h0c-6.89-3.52-14.63-6.02-22.69-6.9-4.02-.46-8.1-.56-12.13-.28-4.04.29-8.01,1-11.83,2.08-3.81,1.08-7.47,2.53-10.83,4.35-3.35,1.84-6.41,4.02-9.11,6.48-5.4,4.91-9.41,10.95-11.67,17.31h0l-.73,2.24-2.91-.53c-6.48-1.19-13.29-1.18-19.6.3-6.3,1.45-12.08,4.23-16.41,8.06-2.16,1.92-3.92,4.1-5.28,6.42-1.38,2.31-2.28,4.8-2.72,7.36-.46,2.56-.48,5.18-.14,7.79.18,1.3.44,2.6.8,3.88.17.64.38,1.27.6,1.89l.35.91.19.44.02.06.06.14.08.21c.1.29.16.6.19.92.07.64-.03,1.28-.22,1.82l.03-.02Z"/>
  </g>
  <g>
    <path class="st0" d="M139.8,100.21c1.22-2.05,2.8-3.73,4.74-5.04s4.16-2.3,6.69-2.95c2.53-.66,5.09-.98,7.69-.98,2.84,0,5.6.39,8.29,1.16,2.68.77,5.17,1.93,7.46,3.48v33.6h-26.04v13.9h-10.65v-35.92c0-2.78.61-5.19,1.83-7.24ZM164.01,102.94c-2.6-.85-4.77-1.27-6.51-1.27-2.37,0-4.44.54-6.21,1.62-1.78,1.08-2.66,2.67-2.66,4.75v11.01h15.39v-16.1Z"/>
    <path class="st0" d="M190.76,91.93c.47-.46,1.03-.7,1.66-.7h5.92c.63,0,1.18.23,1.66.7s.71,1,.71,1.62v35.92c0,3.48-.41,6.43-1.24,8.86-.83,2.43-1.99,4.44-3.49,6.02-1.5,1.58-3.28,2.74-5.33,3.48-2.05.73-4.3,1.1-6.75,1.1-2.76,0-5.66-.41-8.7-1.22-3.04-.81-6.18-1.99-9.41-3.53l3.43-8.23c1.82.85,3.89,1.62,6.21,2.32s4.6,1.04,6.81,1.04c1.11,0,2.13-.15,3.08-.46s1.78-.83,2.49-1.56c.71-.73,1.26-1.74,1.66-3.01.39-1.27.59-2.88.59-4.81v-35.92c0-.62.24-1.16.71-1.62ZM190.76,74.2c1.26-1,2.8-1.51,4.62-1.51s3.35.5,4.62,1.51c1.26,1,1.89,2.24,1.89,3.71s-.63,2.7-1.89,3.71-2.8,1.51-4.62,1.51-3.35-.5-4.62-1.51c-1.26-1-1.89-2.24-1.89-3.71s.63-2.7,1.89-3.71Z"/>
    <path class="st0" d="M224.85,66.44c.47.46.71,1,.71,1.62v50.98h7.69v10.43h-15.98c-.63,0-1.18-.23-1.66-.7-.47-.46-.71-1-.71-1.62v-59.09c0-.62.24-1.16.71-1.62.47-.46,1.03-.7,1.66-.7h5.92c.63,0,1.18.23,1.66.7Z"/>
    <path class="st0" d="M230.71,120.03c.67-.66,1.52-.99,2.54-.99h29.83c-.79-1.85-1.6-4-2.43-6.43-.83-2.43-1.82-4.75-2.96-6.95-1.14-2.2-2.47-4.05-3.97-5.56-1.5-1.51-3.35-2.26-5.56-2.26-1.34,0-2.64.27-3.91.81s-2.56,1.24-3.91,2.09l-3.55-7.18c2.13-1.7,4.44-3.09,6.92-4.17,2.49-1.08,4.95-1.62,7.4-1.62s4.42.5,6.16,1.51c1.74,1,3.26,2.34,4.56,4,1.3,1.66,2.47,3.57,3.49,5.73,1.03,2.16,2.03,4.4,3.02,6.72.99,2.32,2.01,4.63,3.08,6.95s2.31,4.44,3.73,6.37h5.45v10.43h-47.35c-1.03,0-1.87-.33-2.54-.98-.67-.66-1.01-1.49-1.01-2.49v-3.48c0-1,.34-1.83,1.01-2.49Z"/>
  </g>
  <g>
    <path class="st2" d="M142.95,94.06c1.22-2.05,2.8-3.73,4.74-5.04s4.16-2.3,6.69-2.95c2.53-.66,5.09-.98,7.69-.98,2.84,0,5.6.39,8.29,1.16,2.68.77,5.17,1.93,7.46,3.48v33.6h-26.04v13.9h-10.65v-35.92c0-2.78.61-5.19,1.83-7.24ZM167.15,96.78c-2.6-.85-4.77-1.27-6.51-1.27-2.37,0-4.44.54-6.21,1.62-1.78,1.08-2.66,2.67-2.66,4.75v11.01h15.39v-16.1Z"/>
    <path class="st2" d="M193.91,85.77c.47-.46,1.03-.7,1.66-.7h5.92c.63,0,1.18.23,1.66.7s.71,1,.71,1.62v35.92c0,3.48-.41,6.43-1.24,8.86-.83,2.43-1.99,4.44-3.49,6.02-1.5,1.58-3.28,2.74-5.33,3.48-2.05.73-4.3,1.1-6.75,1.1-2.76,0-5.66-.41-8.7-1.22-3.04-.81-6.18-1.99-9.41-3.53l3.43-8.23c1.82.85,3.89,1.62,6.21,2.32s4.6,1.04,6.81,1.04c1.11,0,2.13-.15,3.08-.46s1.78-.83,2.49-1.56c.71-.73,1.26-1.74,1.66-3.01.4-1.27.59-2.88.59-4.81v-35.92c0-.62.24-1.16.71-1.62ZM193.91,68.05c1.26-1,2.8-1.51,4.62-1.51s3.35.5,4.62,1.51c1.26,1,1.89,2.24,1.89,3.71s-.63,2.7-1.89,3.71-2.8,1.51-4.62,1.51-3.35-.5-4.62-1.51c-1.26-1-1.89-2.24-1.89-3.71s.63-2.7,1.89-3.71Z"/>
    <path class="st2" d="M228,60.28c.47.46.71,1,.71,1.62v50.98h7.69v10.43h-15.98c-.63,0-1.18-.23-1.66-.7-.47-.46-.71-1-.71-1.62v-59.09c0-.62.24-1.16.71-1.62.47-.46,1.03-.7,1.66-.7h5.92c.63,0,1.18.23,1.66.7Z"/>
    <path class="st2" d="M233.86,113.87c.67-.66,1.52-.99,2.54-.99h29.83c-.79-1.85-1.6-4-2.43-6.43-.83-2.43-1.82-4.75-2.96-6.95-1.14-2.2-2.47-4.06-3.97-5.56-1.5-1.51-3.35-2.26-5.56-2.26-1.34,0-2.64.27-3.91.81s-2.56,1.24-3.91,2.09l-3.55-7.18c2.13-1.7,4.44-3.09,6.92-4.17,2.49-1.08,4.95-1.62,7.4-1.62s4.42.5,6.16,1.51c1.74,1,3.26,2.34,4.56,4,1.3,1.66,2.47,3.57,3.49,5.73,1.03,2.16,2.03,4.4,3.02,6.72.99,2.32,2.01,4.63,3.08,6.95s2.31,4.44,3.73,6.37h5.45v10.43h-47.35c-1.03,0-1.87-.33-2.54-.98-.67-.66-1.01-1.49-1.01-2.49v-3.48c0-1,.34-1.83,1.01-2.49Z"/>
  </g>
</svg>