<?xml version="1.0" encoding="UTF-8"?>
<svg xmlns="http://www.w3.org/2000/svg" xmlns:xlink="http://www.w3.org/1999/xlink" version="1.1" viewBox="0 0 867.42 1910.33">
  <!-- Generator: Adobe Illustrator 29.7.1, SVG Export Plug-In . SVG Version: 2.1.1 Build 8)  -->
  <defs>
    <style>
      .st0 {
        fill: #1e58f9;
      }

      .st1 {
        fill: none;
      }

      .st2 {
        fill: #441a36;
      }

      .st3 {
        fill: #9424ff;
      }

      .st4 {
        isolation: isolate;
      }

      .st5 {
        fill: #c9094e;
      }

      .st6 {
        clip-path: url(#clippath-1);
      }

      .st7 {
        clip-path: url(#clippath-3);
      }

      .st8 {
        clip-path: url(#clippath-4);
      }

      .st9 {
        clip-path: url(#clippath-2);
      }

      .st10 {
        clip-path: url(#clippath-7);
      }

      .st11 {
        clip-path: url(#clippath-6);
      }

      .st12 {
        clip-path: url(#clippath-5);
      }

      .st13 {
        fill: #0303ed;
      }

      .st14 {
        fill: #067584;
        mix-blend-mode: multiply;
      }

      .st15 {
        fill: #50b3b7;
      }

      .st16 {
        fill: #494949;
      }

      .st17 {
        clip-path: url(#clippath);
      }
    </style>
    <clipPath id="clippath">
      <rect class="st1" width="867.42" height="1910.33"/>
    </clipPath>
    <clipPath id="clippath-1">
      <rect class="st1" x="-1318.68" width="3469.35" height="1910.33"/>
    </clipPath>
    <clipPath id="clippath-2">
      <rect class="st1" width="867.42" height="1910.33"/>
    </clipPath>
    <clipPath id="clippath-3">
      <rect class="st1" x="-1318.68" width="3469.35" height="1910.33"/>
    </clipPath>
    <clipPath id="clippath-4">
      <rect class="st1" x="0" width="867.42" height="1910.33"/>
    </clipPath>
    <clipPath id="clippath-5">
      <rect class="st1" x="-1318.68" width="3469.35" height="1910.33"/>
    </clipPath>
    <clipPath id="clippath-6">
      <rect class="st1" x="-3.84" width="871.26" height="1918.79"/>
    </clipPath>
    <clipPath id="clippath-7">
      <rect class="st1" x="-1328.36" width="3484.72" height="1918.79"/>
    </clipPath>
  </defs>
  <g class="st4">
    <g id="Layer_1">
      <g class="st17">
        <g class="st6">
          <rect class="st14" x="-1318.68" y="-68.65" width="3469.35" height="1987.45"/>
          <g>
            <polygon class="st15" points="415.99 955.17 1919.36 -516.34 1283.98 -516.34 415.99 955.17"/>
            <polygon class="st15" points="-1087.37 2426.68 -451.99 2426.68 415.99 955.17 -1087.37 2426.68"/>
            <polygon class="st15" points="415.99 955.17 2671.04 1546.6 2671.04 955.17 415.99 955.17"/>
            <polygon class="st15" points="-1839.05 363.74 -1839.05 955.17 415.99 955.17 -1839.05 363.74"/>
            <polygon class="st15" points="415.99 -516.34 415.99 955.17 818.84 -516.34 415.99 -516.34"/>
            <polygon class="st15" points="13.15 2426.68 415.99 2426.68 415.99 955.17 13.15 2426.68"/>
            <polygon class="st15" points="415.99 955.17 2671.04 363.74 2671.04 -319.22 415.99 955.17"/>
            <polygon class="st15" points="-1839.05 1546.6 -1839.05 2229.55 415.99 955.17 -1839.05 1546.6"/>
            <polygon class="st15" points="-451.99 -516.34 415.99 955.17 13.15 -516.34 -451.99 -516.34"/>
            <polygon class="st15" points="415.99 955.17 818.84 2426.68 1283.98 2426.68 415.99 955.17"/>
            <polygon class="st15" points="-1839.05 -516.34 -1839.05 -319.22 415.99 955.17 -1087.37 -516.34 -1839.05 -516.34"/>
            <polygon class="st15" points="415.99 955.17 1919.36 2426.68 2671.04 2426.68 2671.04 2229.55 415.99 955.17"/>
          </g>
          <rect class="st1" x="-1318.68" width="3469.35" height="1910.33"/>
        </g>
      </g>
      <g class="st9">
        <g class="st7">
          <rect class="st2" x="-1318.68" y="-68.65" width="3469.35" height="1987.45"/>
          <g>
            <polygon class="st5" points="415.99 955.17 1919.36 -516.34 1283.98 -516.34 415.99 955.17"/>
            <polygon class="st5" points="-1087.37 2426.68 -451.99 2426.68 415.99 955.17 -1087.37 2426.68"/>
            <polygon class="st5" points="415.99 955.17 2671.04 1546.6 2671.04 955.17 415.99 955.17"/>
            <polygon class="st5" points="-1839.05 363.74 -1839.05 955.17 415.99 955.17 -1839.05 363.74"/>
            <polygon class="st5" points="415.99 -516.34 415.99 955.17 818.84 -516.34 415.99 -516.34"/>
            <polygon class="st5" points="13.15 2426.68 415.99 2426.68 415.99 955.17 13.15 2426.68"/>
            <polygon class="st5" points="415.99 955.17 2671.04 363.74 2671.04 -319.22 415.99 955.17"/>
            <polygon class="st5" points="-1839.05 1546.6 -1839.05 2229.55 415.99 955.17 -1839.05 1546.6"/>
            <polygon class="st5" points="-451.99 -516.34 415.99 955.17 13.15 -516.34 -451.99 -516.34"/>
            <polygon class="st5" points="415.99 955.17 818.84 2426.68 1283.98 2426.68 415.99 955.17"/>
            <polygon class="st5" points="-1839.05 -516.34 -1839.05 -319.22 415.99 955.17 -1087.37 -516.34 -1839.05 -516.34"/>
            <polygon class="st5" points="415.99 955.17 1919.36 2426.68 2671.04 2426.68 2671.04 2229.55 415.99 955.17"/>
          </g>
          <rect class="st1" x="-1318.68" width="3469.35" height="1910.33"/>
        </g>
      </g>
      <g class="st8">
        <g class="st12">
          <rect class="st0" x="-1318.68" y="-68.65" width="3469.35" height="1987.45"/>
          <g>
            <polygon class="st13" points="415.99 955.17 1919.36 -516.34 1283.98 -516.34 415.99 955.17"/>
            <polygon class="st13" points="-1087.37 2426.68 -451.99 2426.68 415.99 955.17 -1087.37 2426.68"/>
            <polygon class="st13" points="415.99 955.17 2671.04 1546.6 2671.04 955.17 415.99 955.17"/>
            <polygon class="st13" points="-1839.05 363.74 -1839.05 955.17 415.99 955.17 -1839.05 363.74"/>
            <polygon class="st13" points="415.99 -516.34 415.99 955.17 818.84 -516.34 415.99 -516.34"/>
            <polygon class="st13" points="13.15 2426.68 415.99 2426.68 415.99 955.17 13.15 2426.68"/>
            <polygon class="st13" points="415.99 955.17 2671.04 363.74 2671.04 -319.22 415.99 955.17"/>
            <polygon class="st13" points="-1839.05 1546.6 -1839.05 2229.55 415.99 955.17 -1839.05 1546.6"/>
            <polygon class="st13" points="-451.99 -516.34 415.99 955.17 13.15 -516.34 -451.99 -516.34"/>
            <polygon class="st13" points="415.99 955.17 818.84 2426.68 1283.98 2426.68 415.99 955.17"/>
            <polygon class="st13" points="-1839.05 -516.34 -1839.05 -319.22 415.99 955.17 -1087.37 -516.34 -1839.05 -516.34"/>
            <polygon class="st13" points="415.99 955.17 1919.36 2426.68 2671.04 2426.68 2671.04 2229.55 415.99 955.17"/>
          </g>
          <rect class="st1" x="-1318.68" width="3469.35" height="1910.33"/>
        </g>
      </g>
      <g class="st11">
        <g class="st10">
          <rect class="st16" x="-1328.36" y="-68.96" width="3484.72" height="1996.25"/>
          <g>
            <polygon class="st3" points="414 959.4 1924.02 -518.63 1285.82 -518.63 414 959.4"/>
            <polygon class="st3" points="-1096.03 2437.42 -457.83 2437.42 414 959.4 -1096.03 2437.42"/>
            <polygon class="st3" points="414 959.4 2679.03 1553.45 2679.03 959.4 414 959.4"/>
            <polygon class="st3" points="-1851.04 365.35 -1851.04 959.4 414 959.4 -1851.04 365.35"/>
            <polygon class="st3" points="414 -518.63 414 959.4 818.62 -518.63 414 -518.63"/>
            <polygon class="st3" points="9.37 2437.42 414 2437.42 414 959.4 9.37 2437.42"/>
            <polygon class="st3" points="414 959.4 2679.03 365.35 2679.03 -320.63 414 959.4"/>
            <polygon class="st3" points="-1851.04 1553.45 -1851.04 2239.43 414 959.4 -1851.04 1553.45"/>
            <polygon class="st3" points="-457.83 -518.63 414 959.4 9.37 -518.63 -457.83 -518.63"/>
            <polygon class="st3" points="414 959.4 818.62 2437.42 1285.82 2437.42 414 959.4"/>
            <polygon class="st3" points="-1851.04 -518.63 -1851.04 -320.63 414 959.4 -1096.03 -518.63 -1851.04 -518.63"/>
            <polygon class="st3" points="414 959.4 1924.02 2437.42 2679.03 2437.42 2679.03 2239.43 414 959.4"/>
          </g>
          <rect class="st1" x="-1328.36" width="3484.72" height="1918.79"/>
        </g>
      </g>
    </g>
  </g>
</svg>