<?xml version="1.0" encoding="UTF-8"?>
<svg id="Layer_1" xmlns="http://www.w3.org/2000/svg" version="1.1" viewBox="0 0 784.8 350.74">
  <!-- Generator: Adobe Illustrator 29.7.1, SVG Export Plug-In . SVG Version: 2.1.1 Build 8)  -->
  <defs>
    <style>
      .st0 {
        fill: #94d9f7;
      }

      .st1 {
        fill: #933468;
      }

      .st2 {
        isolation: isolate;
      }

      .st3 {
        fill: #78619e;
      }

      .st4 {
        fill: #743fb2;
      }

      .st5 {
        display: none;
      }
    </style>
  </defs>
  <g class="st5">
    <g>
      <path d="M84.71,7.97c-.8.78-1.2,1.88-1.14,2.96l14.53,153.11-13.76-3.04c-.52-.12-1.04-.11-1.54-.02-.27,0-.54-.05-.81,0-.27,0-.54-.05-.81,0-.27,0-.54-.05-.81,0-.27,0-.54-.05-.81,0-.27,0-.55-.05-.81,0-.27,0-.54-.05-.81,0-.27,0-.54-.05-.81,0-.27,0-.54-.05-.81,0-.27,0-.54-.05-.81,0-.27,0-.54-.05-.81,0-.27,0-.54-.05-.81,0-.27,0-.54-.05-.81,0-.27,0-.54-.05-.81,0-.27,0-.54-.05-.81,0-.27,0-.54-.05-.81,0-.27,0-.55-.05-.81,0-.27,0-.55-.05-.81,0-.27,0-.54-.05-.81,0-.27,0-.55-.05-.81,0-.27,0-.54-.05-.81,0-1.73-.05-3.33.95-3.86,2.62l-7.73,24.2-17.4-9.34c-.69-.37-1.46-.44-2.23-.37-.27-.03-.53-.02-.81,0-.27-.03-.53-.02-.81,0-.27-.03-.53-.02-.81,0-.27-.03-.53-.02-.81,0-.27-.03-.53-.02-.81,0-.27-.03-.53-.02-.81,0-.27-.03-.53-.02-.81,0-.27-.03-.53-.02-.81,0-.27-.03-.53-.02-.81,0-.27-.03-.53-.02-.81,0-.28-.03-.53-.02-.81,0-.28-.03-.53-.02-.81,0-.27-.03-.53-.02-.81,0-.28-.03-.53-.02-.81,0-.27-.03-.53-.02-.81,0-.27-.03-.53-.02-.81,0-.28-.03-.53-.02-.81,0-.27-.03-.53-.02-.81,0-.27-.03-.53-.02-.81,0-.27-.03-.53-.02-.81,0-.73-.09-1.47-.04-2.16.29-1.14.54-1.94,1.58-2.15,2.8l-7.6,43.55-59.56,1.08c-1.85.03-3.42,1.33-3.77,3.11-.05.24-.07.48-.07.71,0,1.52.93,2.93,2.41,3.53l83.73,34.15c.63.26,1.29.29,1.95.21.27.03.53.03.81,0,.27.03.53.03.81,0,.27.03.53.03.81,0,.27.03.53.03.81,0,.27.03.53.03.81,0,.27.03.53.03.81,0,.27.03.53.03.81,0,.27.03.53.03.81,0,.27.03.53.03.81,0,.27.03.53.03.81,0,.28.03.53.03.81,0,.27.03.53.03.81,0,.27.03.53.03.81,0,.27.03.53.03.81,0,.27.03.53.03.81,0,.27.03.53.03.81,0,.27.03.53.03.81,0,.27.03.53.03.81,0,.27.03.53.03.81,0,.27.03.53.03.81,0,.69.06,1.39.01,2.03-.29,1-.46,1.75-1.32,2.07-2.36l5.09-16.61,5.33,4.7c.91.8,2.16,1.14,3.36.91.02,0,.04-.02.06-.03.25,0,.49.08.74.03.02,0,.04-.02.06-.03.25,0,.49.08.74.03.02,0,.04-.02.06-.03.25,0,.49.08.74.03.02,0,.04-.02.06-.03.25,0,.49.08.74.03.02,0,.04-.02.06-.03.25,0,.49.08.74.03.02,0,.04-.02.06-.03.25,0,.49.08.74.03.02,0,.04-.02.06-.03.25,0,.49.08.74.03.02,0,.04-.02.06-.03.25,0,.49.08.74.03.02,0,.04-.02.06-.03.25,0,.49.08.74.03.02,0,.04-.02.06-.03.25,0,.49.08.74.03.02,0,.04-.02.06-.03.25,0,.49.08.74.03.02,0,.04-.02.06-.03.25,0,.49.08.74.03.02,0,.04-.02.06-.03.25,0,.49.08.74.03.02,0,.04-.02.06-.03.25,0,.49.08.74.03.02,0,.04-.02.06-.03.25,0,.49.08.74.03.02,0,.04-.02.06-.03.25,0,.49.08.74.03.02,0,.04-.02.06-.03.25,0,.49.08.74.03.02,0,.04-.02.06-.03.25,0,.49.08.74.03.02,0,.04-.02.06-.03.25,0,.49.08.74.03.02,0,.04-.02.06-.03.25,0,.49.08.74.03.02,0,.04-.02.06-.03.25,0,.49.08.74.03,1.21-.23,2.23-1,2.77-2.09l14.22-28.64,3.55,2.01,14.88,114.23c.14,1.06.72,2.01,1.6,2.63s1.99.85,3.05.64h.02c.26,0,.52.05.79,0h.02c.26,0,.52.05.79,0h.02c.26,0,.52.05.79,0h.02c.26,0,.52.05.79,0h.02c.26,0,.52.05.79,0h.02c.26,0,.52.05.79,0h.02c.26,0,.53.05.79,0h.02c.26,0,.52.05.79,0h.02c.26,0,.52.05.79,0h.02c.26,0,.52.05.79,0h.02c.26,0,.52.05.79,0h.02c.26,0,.52.05.79,0h.02c.26,0,.52.05.79,0h.02c.26,0,.52.05.79,0h.02c.26,0,.52.05.79,0h.02c.26,0,.52.05.79,0h.02c.26,0,.52.05.79,0h.02c.26,0,.52.05.79,0h.02c.26,0,.53.05.79,0h.02c.26,0,.52.05.79,0h.02c.26,0,.53.05.79,0l615.62-39.84c1.74-.34,3.02-1.79,3.12-3.53l19.77-271.29c.09-2.02-1.5-3.89-3.64-4.04L104.68,6.87c-.09,0-.17.04-.26.04l-.55-.04c-.09,0-.17.04-.26.04l-.55-.04c-.09,0-.17.04-.26.04l-.55-.04c-.09,0-.17.04-.26.04l-.55-.04c-.09,0-.17.04-.26.04l-.55-.04c-.09,0-.17.04-.26.04l-.55-.04c-.09,0-.17.04-.26.04l-.55-.04c-.09,0-.17.04-.26.04l-.55-.04c-.09,0-.17.04-.26.04l-.55-.04c-.09,0-.17.04-.26.04l-.55-.04c-.09,0-.17.04-.26.04l-.55-.04c-.09,0-.17.04-.26.04l-.55-.04c-.09,0-.17.04-.26.04l-.55-.04c-.09,0-.17.04-.26.04l-.55-.04c-.09,0-.17.04-.26.04l-.55-.04c-.09,0-.17.04-.26.04l-.55-.04c-.09,0-.17.04-.26.04l-.55-.04c-.09,0-.17.04-.26.04l-.55-.04c-.09,0-.17.04-.26.04l-.55-.04c-.09,0-.17.04-.26.04l-.55-.04c-.09,0-.17.04-.26.04l-.55-.04c-1.13-.08-2.23.33-3.03,1.11h.07Z"/>
      <path class="st4" d="M123.44,172.46c.08,1.2-.43,2.37-1.36,3.16-.94.78-2.2,1.09-3.4.82l-32.53-7.19-10.56,33.06c-.35,1.1-1.18,1.98-2.27,2.41-1.09.43-2.31.36-3.34-.19l-31.24-16.77-7.22,41.37c-.31,1.81-1.9,3.15-3.78,3.18l-44.15.8,62.51,25.49,9.22-30.08c.39-1.26,1.4-2.23,2.69-2.59,1.29-.36,2.67-.04,3.67.84l19.4,17.08,17.5-35.26c.47-.96,1.33-1.68,2.37-1.99,1.04-.31,2.16-.19,3.1.35l22.09,12.52c1.05.6,1.76,1.64,1.92,2.83l14.59,112.02,608.54-38.43,19.37-264.57L108.61,14.8l14.83,157.66Z"/>
      <path d="M100.52,10.93l14.78,156.91-30.95-6.84c-1.99-.44-3.99.69-4.59,2.59l-10.21,31.96-31.87-17.11c-1.11-.59-2.44-.63-3.58-.09-1.14.54-1.94,1.58-2.15,2.8l-7.6,43.55-59.56,1.08c-1.85.03-3.42,1.33-3.77,3.11-.05.24-.07.48-.07.71,0,1.52.93,2.93,2.41,3.53l83.73,34.15c1.02.42,2.18.39,3.18-.07,1-.46,1.75-1.32,2.07-2.36l8.69-28.36,18.67,16.45c.91.8,2.16,1.14,3.36.91,1.21-.23,2.23-1,2.77-2.09l17.94-36.14,16.78,9.51,14.88,114.23c.14,1.06.72,2.01,1.6,2.63s1.99.85,3.05.64l615.62-39.84c1.74-.34,3.02-1.79,3.12-3.53l19.77-271.29c.09-2.02-1.5-3.89-3.64-4.04L104.68,6.87c-1.13-.08-2.23.33-3.03,1.11-.8.78-1.2,1.88-1.14,2.96h0ZM751.19,295.9l-608.54,38.43-14.59-112.02c-.16-1.18-.87-2.23-1.92-2.83l-22.09-12.52c-.94-.53-2.07-.66-3.1-.35-1.04.31-1.9,1.03-2.37,1.99l-17.5,35.26-19.4-17.08c-1-.88-2.38-1.2-3.67-.84-1.29.36-2.31,1.33-2.69,2.59l-9.22,30.08-62.51-25.49,44.15-.8c1.88-.03,3.47-1.37,3.78-3.18l7.22-41.37,31.24,16.77c1.03.55,2.25.62,3.34.19s1.92-1.31,2.27-2.41l10.56-33.06,32.53,7.19c1.2.27,2.46-.04,3.4-.82.94-.78,1.44-1.96,1.36-3.16L108.61,14.8l661.96,16.52-19.37,264.57h-.01Z"/>
    </g>
  </g>
  <g class="st5">
    <g>
      <path d="M76.68,7.75c-.8.78-1.2,1.88-1.14,2.96l14.53,153.11-13.76-3.04c-.52-.12-1.04-.11-1.54-.02-.27,0-.54-.05-.81,0-.27,0-.54-.05-.81,0-.27,0-.54-.05-.81,0-.27,0-.54-.05-.81,0-.27,0-.55-.05-.81,0-.27,0-.54-.05-.81,0-.27,0-.54-.05-.81,0-.27,0-.54-.05-.81,0-.27,0-.54-.05-.81,0-.27,0-.54-.05-.81,0-.27,0-.54-.05-.81,0-.27,0-.54-.05-.81,0-.27,0-.54-.05-.81,0-.27,0-.54-.05-.81,0-.27,0-.54-.05-.81,0-.27,0-.55-.05-.81,0-.27,0-.55-.05-.81,0-.27,0-.54-.05-.81,0-.27,0-.55-.05-.81,0-.27,0-.54-.05-.81,0-1.73-.05-3.33.95-3.86,2.62l-7.73,24.2-17.4-9.34c-.69-.37-1.46-.44-2.23-.37-.27-.03-.53-.02-.81,0-.27-.03-.53-.02-.81,0-.27-.03-.53-.02-.81,0-.27-.03-.53-.02-.81,0-.27-.03-.53-.02-.81,0-.27-.03-.53-.02-.81,0-.27-.03-.53-.02-.81,0-.27-.03-.53-.02-.81,0-.27-.03-.53-.02-.81,0-.27-.03-.53-.02-.81,0-.28-.03-.53-.02-.81,0-.28-.03-.53-.02-.81,0-.27-.03-.53-.02-.81,0-.28-.03-.53-.02-.81,0-.27-.03-.53-.02-.81,0-.27-.03-.53-.02-.81,0-.28-.03-.53-.02-.81,0-.27-.03-.53-.02-.81,0-.27-.03-.53-.02-.81,0-.27-.03-.53-.02-.81,0-.73-.09-1.47-.04-2.16.29-1.14.54-1.94,1.58-2.15,2.8L-.62,224.49l-59.56,1.08c-1.85.03-3.42,1.33-3.77,3.11-.05.24-.07.48-.07.71,0,1.52.93,2.93,2.41,3.53l83.73,34.15c.63.26,1.29.29,1.95.21.27.03.53.03.81,0,.27.03.53.03.81,0,.27.03.53.03.81,0,.27.03.53.03.81,0,.27.03.53.03.81,0,.27.03.53.03.81,0,.27.03.53.03.81,0,.27.03.53.03.81,0,.27.03.53.03.81,0,.27.03.53.03.81,0,.28.03.53.03.81,0,.27.03.53.03.81,0,.27.03.53.03.81,0,.27.03.53.03.81,0,.27.03.53.03.81,0,.27.03.53.03.81,0,.27.03.53.03.81,0,.27.03.53.03.81,0,.27.03.53.03.81,0,.27.03.53.03.81,0,.69.06,1.39.01,2.03-.29,1-.46,1.75-1.32,2.07-2.36l5.09-16.61,5.33,4.7c.91.8,2.16,1.14,3.36.91.02,0,.04-.02.06-.03.25,0,.49.08.74.03.02,0,.04-.02.06-.03.25,0,.49.08.74.03.02,0,.04-.02.06-.03.25,0,.49.08.74.03.02,0,.04-.02.06-.03.25,0,.49.08.74.03.02,0,.04-.02.06-.03.25,0,.49.08.74.03.02,0,.04-.02.06-.03.25,0,.49.08.74.03.02,0,.04-.02.06-.03.25,0,.49.08.74.03.02,0,.04-.02.06-.03.25,0,.49.08.74.03.02,0,.04-.02.06-.03.25,0,.49.08.74.03.02,0,.04-.02.06-.03.25,0,.49.08.74.03.02,0,.04-.02.06-.03.25,0,.49.08.74.03.02,0,.04-.02.06-.03.25,0,.49.08.74.03.02,0,.04-.02.06-.03.25,0,.49.08.74.03.02,0,.04-.02.06-.03.25,0,.49.08.74.03.02,0,.04-.02.06-.03.25,0,.49.08.74.03.02,0,.04-.02.06-.03.25,0,.49.08.74.03.02,0,.04-.02.06-.03.25,0,.49.08.74.03.02,0,.04-.02.06-.03.25,0,.49.08.74.03.02,0,.04-.02.06-.03.25,0,.49.08.74.03.02,0,.04-.02.06-.03.25,0,.49.08.74.03.02,0,.04-.02.06-.03.25,0,.49.08.74.03,1.21-.23,2.23-1,2.77-2.09l14.22-28.64,3.55,2.01,14.88,114.23c.14,1.06.72,2.01,1.6,2.63s1.99.85,3.05.64h.02c.26,0,.52.05.79,0h.02c.26,0,.52.05.79,0h.02c.26,0,.52.05.79,0h.02c.26,0,.52.05.79,0h.02c.26,0,.52.05.79,0h.02c.26,0,.52.05.79,0h.02c.26,0,.53.05.79,0h.02c.26,0,.52.05.79,0h.02c.26,0,.52.05.79,0h.02c.26,0,.52.05.79,0h.02c.26,0,.52.05.79,0h.02c.26,0,.52.05.79,0h.02c.26,0,.52.05.79,0h.02c.26,0,.52.05.79,0h.02c.26,0,.52.05.79,0h.02c.26,0,.52.05.79,0h.02c.26,0,.52.05.79,0h.02c.26,0,.52.05.79,0h.02c.26,0,.53.05.79,0h.02c.26,0,.52.05.79,0h.02c.26,0,.53.05.79,0l615.62-39.84c1.74-.34,3.02-1.79,3.12-3.53l19.77-271.29c.09-2.02-1.5-3.89-3.64-4.04L96.65,6.64c-.09,0-.17.04-.26.04l-.55-.04c-.09,0-.17.04-.26.04l-.55-.04c-.09,0-.17.04-.26.04l-.55-.04c-.09,0-.17.04-.26.04l-.55-.04c-.09,0-.17.04-.26.04l-.55-.04c-.09,0-.17.04-.26.04l-.55-.04c-.09,0-.17.04-.26.04l-.55-.04c-.09,0-.17.04-.26.04l-.55-.04c-.09,0-.17.04-.26.04l-.55-.04c-.09,0-.17.04-.26.04l-.55-.04c-.09,0-.17.04-.26.04l-.55-.04c-.09,0-.17.04-.26.04l-.55-.04c-.09,0-.17.04-.26.04l-.55-.04c-.09,0-.17.04-.26.04l-.55-.04c-.09,0-.17.04-.26.04l-.55-.04c-.09,0-.17.04-.26.04l-.55-.04c-.09,0-.17.04-.26.04l-.55-.04c-.09,0-.17.04-.26.04l-.55-.04c-.09,0-.17.04-.26.04l-.55-.04c-.09,0-.17.04-.26.04l-.55-.04c-.09,0-.17.04-.26.04l-.55-.04c-1.13-.08-2.23.33-3.03,1.11h.07Z"/>
      <path class="st0" d="M115.41,172.23c.08,1.2-.43,2.37-1.36,3.16-.94.78-2.2,1.09-3.4.82l-32.53-7.19-10.56,33.06c-.35,1.1-1.18,1.98-2.27,2.41-1.09.43-2.31.36-3.34-.19l-31.24-16.77-7.22,41.37c-.31,1.81-1.9,3.15-3.78,3.18l-44.15.8,62.51,25.49,9.22-30.08c.39-1.26,1.4-2.23,2.69-2.59,1.29-.36,2.67-.04,3.67.84l19.4,17.08,17.5-35.26c.47-.96,1.33-1.68,2.37-1.99,1.04-.31,2.16-.19,3.1.35l22.09,12.52c1.05.6,1.76,1.64,1.92,2.83l14.59,112.02,608.54-38.43,19.37-264.57L100.58,14.58l14.83,157.66h0Z"/>
      <path d="M92.48,10.71l14.78,156.91-30.95-6.84c-1.99-.44-3.99.69-4.59,2.59l-10.21,31.96-31.87-17.11c-1.11-.59-2.44-.63-3.58-.09-1.14.54-1.94,1.58-2.15,2.8l-7.6,43.55-59.56,1.08c-1.85.03-3.42,1.33-3.77,3.11-.05.24-.07.48-.07.71,0,1.52.93,2.93,2.41,3.53l83.73,34.15c1.02.42,2.18.39,3.18-.07,1-.46,1.75-1.32,2.07-2.36l8.69-28.36,18.67,16.45c.91.8,2.16,1.14,3.36.91,1.21-.23,2.23-1,2.77-2.09l17.94-36.14,16.78,9.51,14.88,114.23c.14,1.06.72,2.01,1.6,2.63s1.99.85,3.05.64l615.62-39.84c1.74-.34,3.02-1.79,3.12-3.53l19.77-271.29c.09-2.02-1.5-3.89-3.64-4.04L96.65,6.64c-1.13-.08-2.23.33-3.03,1.11-.8.78-1.2,1.88-1.14,2.96ZM743.16,295.67l-608.54,38.43-14.59-112.02c-.16-1.18-.87-2.23-1.92-2.83l-22.09-12.52c-.94-.53-2.07-.66-3.1-.35-1.04.31-1.9,1.03-2.37,1.99l-17.5,35.26-19.4-17.08c-1-.88-2.38-1.2-3.67-.84-1.29.36-2.31,1.33-2.69,2.59l-9.22,30.08-62.51-25.49,44.15-.8c1.88-.03,3.47-1.37,3.78-3.18l7.22-41.37,31.24,16.77c1.03.55,2.25.62,3.34.19s1.92-1.31,2.27-2.41l10.56-33.06,32.53,7.19c1.2.27,2.46-.04,3.4-.82.94-.78,1.44-1.96,1.36-3.16L100.58,14.58l661.96,16.52-19.37,264.57h-.01Z"/>
    </g>
  </g>
  <g class="st5">
    <g>
      <path d="M76.68,8.55c-.8.78-1.2,1.88-1.14,2.96l14.53,153.11-13.76-3.04c-.52-.12-1.04-.11-1.54-.02-.27,0-.54-.05-.81,0-.27,0-.54-.05-.81,0-.27,0-.54-.05-.81,0-.27,0-.54-.05-.81,0-.27,0-.55-.05-.81,0-.27,0-.54-.05-.81,0-.27,0-.54-.05-.81,0-.27,0-.54-.05-.81,0-.27,0-.54-.05-.81,0-.27,0-.54-.05-.81,0-.27,0-.54-.05-.81,0-.27,0-.54-.05-.81,0-.27,0-.54-.05-.81,0-.27,0-.54-.05-.81,0-.27,0-.54-.05-.81,0-.27,0-.55-.05-.81,0-.27,0-.55-.05-.81,0-.27,0-.54-.05-.81,0-.27,0-.55-.05-.81,0-.27,0-.54-.05-.81,0-1.73-.05-3.33.95-3.86,2.62l-7.73,24.2-17.4-9.34c-.69-.37-1.46-.44-2.23-.37-.27-.03-.53-.02-.81,0-.27-.03-.53-.02-.81,0-.27-.03-.53-.02-.81,0-.27-.03-.53-.02-.81,0-.27-.03-.53-.02-.81,0-.27-.03-.53-.02-.81,0-.27-.03-.53-.02-.81,0-.27-.03-.53-.02-.81,0-.27-.03-.53-.02-.81,0-.27-.03-.53-.02-.81,0-.28-.03-.53-.02-.81,0-.28-.03-.53-.02-.81,0-.27-.03-.53-.02-.81,0-.28-.03-.53-.02-.81,0-.27-.03-.53-.02-.81,0-.27-.03-.53-.02-.81,0-.28-.03-.53-.02-.81,0-.27-.03-.53-.02-.81,0-.27-.03-.53-.02-.81,0-.27-.03-.53-.02-.81,0-.73-.09-1.47-.04-2.16.29-1.14.54-1.94,1.58-2.15,2.8L-.62,225.29l-59.56,1.08c-1.85.03-3.42,1.33-3.77,3.11-.05.24-.07.48-.07.71,0,1.52.93,2.93,2.41,3.53l83.73,34.15c.63.26,1.29.29,1.95.21.27.03.53.03.81,0,.27.03.53.03.81,0,.27.03.53.03.81,0,.27.03.53.03.81,0,.27.03.53.03.81,0,.27.03.53.03.81,0,.27.03.53.03.81,0,.27.03.53.03.81,0,.27.03.53.03.81,0,.27.03.53.03.81,0,.28.03.53.03.81,0,.27.03.53.03.81,0,.27.03.53.03.81,0,.27.03.53.03.81,0,.27.03.53.03.81,0,.27.03.53.03.81,0,.27.03.53.03.81,0,.27.03.53.03.81,0,.27.03.53.03.81,0,.27.03.53.03.81,0,.69.06,1.39.01,2.03-.29,1-.46,1.75-1.32,2.07-2.36l5.09-16.61,5.33,4.7c.91.8,2.16,1.14,3.36.91.02,0,.04-.02.06-.03.25,0,.49.08.74.03.02,0,.04-.02.06-.03.25,0,.49.08.74.03.02,0,.04-.02.06-.03.25,0,.49.08.74.03.02,0,.04-.02.06-.03.25,0,.49.08.74.03.02,0,.04-.02.06-.03.25,0,.49.08.74.03.02,0,.04-.02.06-.03.25,0,.49.08.74.03.02,0,.04-.02.06-.03.25,0,.49.08.74.03.02,0,.04-.02.06-.03.25,0,.49.08.74.03.02,0,.04-.02.06-.03.25,0,.49.08.74.03.02,0,.04-.02.06-.03.25,0,.49.08.74.03.02,0,.04-.02.06-.03.25,0,.49.08.74.03.02,0,.04-.02.06-.03.25,0,.49.08.74.03.02,0,.04-.02.06-.03.25,0,.49.08.74.03.02,0,.04-.02.06-.03.25,0,.49.08.74.03.02,0,.04-.02.06-.03.25,0,.49.08.74.03.02,0,.04-.02.06-.03.25,0,.49.08.74.03.02,0,.04-.02.06-.03.25,0,.49.08.74.03.02,0,.04-.02.06-.03.25,0,.49.08.74.03.02,0,.04-.02.06-.03.25,0,.49.08.74.03.02,0,.04-.02.06-.03.25,0,.49.08.74.03.02,0,.04-.02.06-.03.25,0,.49.08.74.03,1.21-.23,2.23-1,2.77-2.09l14.22-28.64,3.55,2.01,14.88,114.23c.14,1.06.72,2.01,1.6,2.63s1.99.85,3.05.64h.02c.26,0,.52.05.79,0h.02c.26,0,.52.05.79,0h.02c.26,0,.52.05.79,0h.02c.26,0,.52.05.79,0h.02c.26,0,.52.05.79,0h.02c.26,0,.52.05.79,0h.02c.26,0,.53.05.79,0h.02c.26,0,.52.05.79,0h.02c.26,0,.52.05.79,0h.02c.26,0,.52.05.79,0h.02c.26,0,.52.05.79,0h.02c.26,0,.52.05.79,0h.02c.26,0,.52.05.79,0h.02c.26,0,.52.05.79,0h.02c.26,0,.52.05.79,0h.02c.26,0,.52.05.79,0h.02c.26,0,.52.05.79,0h.02c.26,0,.52.05.79,0h.02c.26,0,.53.05.79,0h.02c.26,0,.52.05.79,0h.02c.26,0,.53.05.79,0l615.62-39.84c1.74-.34,3.02-1.79,3.12-3.53l19.77-271.29c.09-2.02-1.5-3.89-3.64-4.04L96.65,7.45c-.09,0-.17.04-.26.04l-.55-.04c-.09,0-.17.04-.26.04l-.55-.04c-.09,0-.17.04-.26.04l-.55-.04c-.09,0-.17.04-.26.04l-.55-.04c-.09,0-.17.04-.26.04l-.55-.04c-.09,0-.17.04-.26.04l-.55-.04c-.09,0-.17.04-.26.04l-.55-.04c-.09,0-.17.04-.26.04l-.55-.04c-.09,0-.17.04-.26.04l-.55-.04c-.09,0-.17.04-.26.04l-.55-.04c-.09,0-.17.04-.26.04l-.55-.04c-.09,0-.17.04-.26.04l-.55-.04c-.09,0-.17.04-.26.04l-.55-.04c-.09,0-.17.04-.26.04l-.55-.04c-.09,0-.17.04-.26.04l-.55-.04c-.09,0-.17.04-.26.04l-.55-.04c-.09,0-.17.04-.26.04l-.55-.04c-.09,0-.17.04-.26.04l-.55-.04c-.09,0-.17.04-.26.04l-.55-.04c-.09,0-.17.04-.26.04l-.55-.04c-.09,0-.17.04-.26.04l-.55-.04c-1.13-.08-2.23.33-3.03,1.11h.07Z"/>
      <path class="st1" d="M115.41,173.04c.08,1.2-.43,2.37-1.36,3.16-.94.78-2.2,1.09-3.4.82l-32.53-7.19-10.56,33.06c-.35,1.1-1.18,1.98-2.27,2.41-1.09.43-2.31.36-3.34-.19l-31.24-16.77-7.22,41.37c-.31,1.81-1.9,3.15-3.78,3.18l-44.15.8,62.51,25.49,9.22-30.08c.39-1.26,1.4-2.23,2.69-2.59,1.29-.36,2.67-.04,3.67.84l19.4,17.08,17.5-35.26c.47-.96,1.33-1.68,2.37-1.99,1.04-.31,2.16-.19,3.1.35l22.09,12.52c1.05.6,1.76,1.64,1.92,2.83l14.59,112.02,608.54-38.43,19.37-264.57L100.58,15.38l14.83,157.66h0Z"/>
      <path d="M92.48,11.51l14.78,156.91-30.95-6.84c-1.99-.44-3.99.69-4.59,2.59l-10.21,31.96-31.87-17.11c-1.11-.59-2.44-.63-3.58-.09-1.14.54-1.94,1.58-2.15,2.8l-7.6,43.55-59.56,1.08c-1.85.03-3.42,1.33-3.77,3.11-.05.24-.07.48-.07.71,0,1.52.93,2.93,2.41,3.53l83.73,34.15c1.02.42,2.18.39,3.18-.07,1-.46,1.75-1.32,2.07-2.36l8.69-28.36,18.67,16.45c.91.8,2.16,1.14,3.36.91,1.21-.23,2.23-1,2.77-2.09l17.94-36.14,16.78,9.51,14.88,114.23c.14,1.06.72,2.01,1.6,2.63s1.99.85,3.05.64l615.62-39.84c1.74-.34,3.02-1.79,3.12-3.53l19.77-271.29c.09-2.02-1.5-3.89-3.64-4.04L96.65,7.45c-1.13-.08-2.23.33-3.03,1.11-.8.78-1.2,1.88-1.14,2.96h0ZM743.16,296.48l-608.54,38.43-14.59-112.02c-.16-1.18-.87-2.23-1.92-2.83l-22.09-12.52c-.94-.53-2.07-.66-3.1-.35-1.04.31-1.9,1.03-2.37,1.99l-17.5,35.26-19.4-17.08c-1-.88-2.38-1.2-3.67-.84-1.29.36-2.31,1.33-2.69,2.59l-9.22,30.08-62.51-25.49,44.15-.8c1.88-.03,3.47-1.37,3.78-3.18l7.22-41.37,31.24,16.77c1.03.55,2.25.62,3.34.19s1.92-1.31,2.27-2.41l10.56-33.06,32.53,7.19c1.2.27,2.46-.04,3.4-.82.94-.78,1.44-1.96,1.36-3.16L100.58,15.38l661.96,16.52-19.37,264.57h-.01Z"/>
    </g>
  </g>
  <g class="st5">
    <g>
      <path d="M76.68,8.55c-.8.78-1.2,1.88-1.14,2.96l14.53,153.11-13.76-3.04c-.52-.12-1.04-.11-1.54-.02-.27,0-.54-.05-.81,0-.27,0-.54-.05-.81,0-.27,0-.54-.05-.81,0-.27,0-.54-.05-.81,0-.27,0-.55-.05-.81,0-.27,0-.54-.05-.81,0-.27,0-.54-.05-.81,0-.27,0-.54-.05-.81,0-.27,0-.54-.05-.81,0-.27,0-.54-.05-.81,0-.27,0-.54-.05-.81,0-.27,0-.54-.05-.81,0-.27,0-.54-.05-.81,0-.27,0-.54-.05-.81,0-.27,0-.54-.05-.81,0-.27,0-.55-.05-.81,0-.27,0-.55-.05-.81,0-.27,0-.54-.05-.81,0-.27,0-.55-.05-.81,0-.27,0-.54-.05-.81,0-1.73-.05-3.33.95-3.86,2.62l-7.73,24.2-17.4-9.34c-.69-.37-1.46-.44-2.23-.37-.27-.03-.53-.02-.81,0-.27-.03-.53-.02-.81,0-.27-.03-.53-.02-.81,0-.27-.03-.53-.02-.81,0-.27-.03-.53-.02-.81,0-.27-.03-.53-.02-.81,0-.27-.03-.53-.02-.81,0-.27-.03-.53-.02-.81,0-.27-.03-.53-.02-.81,0-.27-.03-.53-.02-.81,0-.28-.03-.53-.02-.81,0-.28-.03-.53-.02-.81,0-.27-.03-.53-.02-.81,0-.28-.03-.53-.02-.81,0-.27-.03-.53-.02-.81,0-.27-.03-.53-.02-.81,0-.28-.03-.53-.02-.81,0-.27-.03-.53-.02-.81,0-.27-.03-.53-.02-.81,0-.27-.03-.53-.02-.81,0-.73-.09-1.47-.04-2.16.29-1.14.54-1.94,1.58-2.15,2.8L-.62,225.29l-59.56,1.08c-1.85.03-3.42,1.33-3.77,3.11-.05.24-.07.48-.07.71,0,1.52.93,2.93,2.41,3.53l83.73,34.15c.63.26,1.29.29,1.95.21.27.03.53.03.81,0,.27.03.53.03.81,0,.27.03.53.03.81,0,.27.03.53.03.81,0,.27.03.53.03.81,0,.27.03.53.03.81,0,.27.03.53.03.81,0,.27.03.53.03.81,0,.27.03.53.03.81,0,.27.03.53.03.81,0,.28.03.53.03.81,0,.27.03.53.03.81,0,.27.03.53.03.81,0,.27.03.53.03.81,0,.27.03.53.03.81,0,.27.03.53.03.81,0,.27.03.53.03.81,0,.27.03.53.03.81,0,.27.03.53.03.81,0,.27.03.53.03.81,0,.69.06,1.39.01,2.03-.29,1-.46,1.75-1.32,2.07-2.36l5.09-16.61,5.33,4.7c.91.8,2.16,1.14,3.36.91.02,0,.04-.02.06-.03.25,0,.49.08.74.03.02,0,.04-.02.06-.03.25,0,.49.08.74.03.02,0,.04-.02.06-.03.25,0,.49.08.74.03.02,0,.04-.02.06-.03.25,0,.49.08.74.03.02,0,.04-.02.06-.03.25,0,.49.08.74.03.02,0,.04-.02.06-.03.25,0,.49.08.74.03.02,0,.04-.02.06-.03.25,0,.49.08.74.03.02,0,.04-.02.06-.03.25,0,.49.08.74.03.02,0,.04-.02.06-.03.25,0,.49.08.74.03.02,0,.04-.02.06-.03.25,0,.49.08.74.03.02,0,.04-.02.06-.03.25,0,.49.08.74.03.02,0,.04-.02.06-.03.25,0,.49.08.74.03.02,0,.04-.02.06-.03.25,0,.49.08.74.03.02,0,.04-.02.06-.03.25,0,.49.08.74.03.02,0,.04-.02.06-.03.25,0,.49.08.74.03.02,0,.04-.02.06-.03.25,0,.49.08.74.03.02,0,.04-.02.06-.03.25,0,.49.08.74.03.02,0,.04-.02.06-.03.25,0,.49.08.74.03.02,0,.04-.02.06-.03.25,0,.49.08.74.03.02,0,.04-.02.06-.03.25,0,.49.08.74.03.02,0,.04-.02.06-.03.25,0,.49.08.74.03,1.21-.23,2.23-1,2.77-2.09l14.22-28.64,3.55,2.01,14.88,114.23c.14,1.06.72,2.01,1.6,2.63s1.99.85,3.05.64h.02c.26,0,.52.05.79,0h.02c.26,0,.52.05.79,0h.02c.26,0,.52.05.79,0h.02c.26,0,.52.05.79,0h.02c.26,0,.52.05.79,0h.02c.26,0,.52.05.79,0h.02c.26,0,.53.05.79,0h.02c.26,0,.52.05.79,0h.02c.26,0,.52.05.79,0h.02c.26,0,.52.05.79,0h.02c.26,0,.52.05.79,0h.02c.26,0,.52.05.79,0h.02c.26,0,.52.05.79,0h.02c.26,0,.52.05.79,0h.02c.26,0,.52.05.79,0h.02c.26,0,.52.05.79,0h.02c.26,0,.52.05.79,0h.02c.26,0,.52.05.79,0h.02c.26,0,.53.05.79,0h.02c.26,0,.52.05.79,0h.02c.26,0,.53.05.79,0l615.62-39.84c1.74-.34,3.02-1.79,3.12-3.53l19.77-271.29c.09-2.02-1.5-3.89-3.64-4.04L96.65,7.45c-.09,0-.17.04-.26.04l-.55-.04c-.09,0-.17.04-.26.04l-.55-.04c-.09,0-.17.04-.26.04l-.55-.04c-.09,0-.17.04-.26.04l-.55-.04c-.09,0-.17.04-.26.04l-.55-.04c-.09,0-.17.04-.26.04l-.55-.04c-.09,0-.17.04-.26.04l-.55-.04c-.09,0-.17.04-.26.04l-.55-.04c-.09,0-.17.04-.26.04l-.55-.04c-.09,0-.17.04-.26.04l-.55-.04c-.09,0-.17.04-.26.04l-.55-.04c-.09,0-.17.04-.26.04l-.55-.04c-.09,0-.17.04-.26.04l-.55-.04c-.09,0-.17.04-.26.04l-.55-.04c-.09,0-.17.04-.26.04l-.55-.04c-.09,0-.17.04-.26.04l-.55-.04c-.09,0-.17.04-.26.04l-.55-.04c-.09,0-.17.04-.26.04l-.55-.04c-.09,0-.17.04-.26.04l-.55-.04c-.09,0-.17.04-.26.04l-.55-.04c-.09,0-.17.04-.26.04l-.55-.04c-1.13-.08-2.23.33-3.03,1.11h.07Z"/>
      <path class="st3" d="M115.41,173.04c.08,1.2-.43,2.37-1.36,3.16-.94.78-2.2,1.09-3.4.82l-32.53-7.19-10.56,33.06c-.35,1.1-1.18,1.98-2.27,2.41-1.09.43-2.31.36-3.34-.19l-31.24-16.77-7.22,41.37c-.31,1.81-1.9,3.15-3.78,3.18l-44.15.8,62.51,25.49,9.22-30.08c.39-1.26,1.4-2.23,2.69-2.59,1.29-.36,2.67-.04,3.67.84l19.4,17.08,17.5-35.26c.47-.96,1.33-1.68,2.37-1.99,1.04-.31,2.16-.19,3.1.35l22.09,12.52c1.05.6,1.76,1.64,1.92,2.83l14.59,112.02,608.54-38.43,19.37-264.57L100.58,15.38l14.83,157.66h0Z"/>
      <path d="M92.48,11.51l14.78,156.91-30.95-6.84c-1.99-.44-3.99.69-4.59,2.59l-10.21,31.96-31.87-17.11c-1.11-.59-2.44-.63-3.58-.09-1.14.54-1.94,1.58-2.15,2.8l-7.6,43.55-59.56,1.08c-1.85.03-3.42,1.33-3.77,3.11-.05.24-.07.48-.07.71,0,1.52.93,2.93,2.41,3.53l83.73,34.15c1.02.42,2.18.39,3.18-.07,1-.46,1.75-1.32,2.07-2.36l8.69-28.36,18.67,16.45c.91.8,2.16,1.14,3.36.91,1.21-.23,2.23-1,2.77-2.09l17.94-36.14,16.78,9.51,14.88,114.23c.14,1.06.72,2.01,1.6,2.63s1.99.85,3.05.64l615.62-39.84c1.74-.34,3.02-1.79,3.12-3.53l19.77-271.29c.09-2.02-1.5-3.89-3.64-4.04L96.65,7.45c-1.13-.08-2.23.33-3.03,1.11-.8.78-1.2,1.88-1.14,2.96h0ZM743.16,296.48l-608.54,38.43-14.59-112.02c-.16-1.18-.87-2.23-1.92-2.83l-22.09-12.52c-.94-.53-2.07-.66-3.1-.35-1.04.31-1.9,1.03-2.37,1.99l-17.5,35.26-19.4-17.08c-1-.88-2.38-1.2-3.67-.84-1.29.36-2.31,1.33-2.69,2.59l-9.22,30.08-62.51-25.49,44.15-.8c1.88-.03,3.47-1.37,3.78-3.18l7.22-41.37,31.24,16.77c1.03.55,2.25.62,3.34.19s1.92-1.31,2.27-2.41l10.56-33.06,32.53,7.19c1.2.27,2.46-.04,3.4-.82.94-.78,1.44-1.96,1.36-3.16L100.58,15.38l661.96,16.52-19.37,264.57h-.01Z"/>
    </g>
  </g>
  <g class="st5">
    <path d="M76.68,8.55c-.8.78-1.2,1.88-1.14,2.96l14.53,153.11-13.76-3.04c-.52-.12-1.04-.11-1.54-.02-.27,0-.54-.05-.81,0-.27,0-.54-.05-.81,0-.27,0-.54-.05-.81,0-.27,0-.54-.05-.81,0-.27,0-.55-.05-.81,0-.27,0-.54-.05-.81,0-.27,0-.54-.05-.81,0-.27,0-.54-.05-.81,0-.27,0-.54-.05-.81,0-.27,0-.54-.05-.81,0-.27,0-.54-.05-.81,0-.27,0-.54-.05-.81,0-.27,0-.54-.05-.81,0-.27,0-.54-.05-.81,0-.27,0-.54-.05-.81,0-.27,0-.55-.05-.81,0-.27,0-.55-.05-.81,0-.27,0-.54-.05-.81,0-.27,0-.55-.05-.81,0-.27,0-.54-.05-.81,0-1.73-.05-3.33.95-3.86,2.62l-7.73,24.2-17.4-9.34c-.69-.37-1.46-.44-2.23-.37-.27-.03-.53-.02-.81,0-.27-.03-.53-.02-.81,0-.27-.03-.53-.02-.81,0-.27-.03-.53-.02-.81,0-.27-.03-.53-.02-.81,0-.27-.03-.53-.02-.81,0-.27-.03-.53-.02-.81,0-.27-.03-.53-.02-.81,0-.27-.03-.53-.02-.81,0-.27-.03-.53-.02-.81,0-.28-.03-.53-.02-.81,0-.28-.03-.53-.02-.81,0-.27-.03-.53-.02-.81,0-.28-.03-.53-.02-.81,0-.27-.03-.53-.02-.81,0-.27-.03-.53-.02-.81,0-.28-.03-.53-.02-.81,0-.27-.03-.53-.02-.81,0-.27-.03-.53-.02-.81,0-.27-.03-.53-.02-.81,0-.73-.09-1.47-.04-2.16.29-1.14.54-1.94,1.58-2.15,2.8L-.62,225.29l-59.56,1.08c-1.85.03-3.42,1.33-3.77,3.11-.05.24-.07.48-.07.71,0,1.52.93,2.93,2.41,3.53l83.73,34.15c.63.26,1.29.29,1.95.21.27.03.53.03.81,0,.27.03.53.03.81,0,.27.03.53.03.81,0,.27.03.53.03.81,0,.27.03.53.03.81,0,.27.03.53.03.81,0,.27.03.53.03.81,0,.27.03.53.03.81,0,.27.03.53.03.81,0,.27.03.53.03.81,0,.28.03.53.03.81,0,.27.03.53.03.81,0,.27.03.53.03.81,0,.27.03.53.03.81,0,.27.03.53.03.81,0,.27.03.53.03.81,0,.27.03.53.03.81,0,.27.03.53.03.81,0,.27.03.53.03.81,0,.27.03.53.03.81,0,.69.06,1.39.01,2.03-.29,1-.46,1.75-1.32,2.07-2.36l5.09-16.61,5.33,4.7c.91.8,2.16,1.14,3.36.91.02,0,.04-.02.06-.03.25,0,.49.08.74.03.02,0,.04-.02.06-.03.25,0,.49.08.74.03.02,0,.04-.02.06-.03.25,0,.49.08.74.03.02,0,.04-.02.06-.03.25,0,.49.08.74.03.02,0,.04-.02.06-.03.25,0,.49.08.74.03.02,0,.04-.02.06-.03.25,0,.49.08.74.03.02,0,.04-.02.06-.03.25,0,.49.08.74.03.02,0,.04-.02.06-.03.25,0,.49.08.74.03.02,0,.04-.02.06-.03.25,0,.49.08.74.03.02,0,.04-.02.06-.03.25,0,.49.08.74.03.02,0,.04-.02.06-.03.25,0,.49.08.74.03.02,0,.04-.02.06-.03.25,0,.49.08.74.03.02,0,.04-.02.06-.03.25,0,.49.08.74.03.02,0,.04-.02.06-.03.25,0,.49.08.74.03.02,0,.04-.02.06-.03.25,0,.49.08.74.03.02,0,.04-.02.06-.03.25,0,.49.08.74.03.02,0,.04-.02.06-.03.25,0,.49.08.74.03.02,0,.04-.02.06-.03.25,0,.49.08.74.03.02,0,.04-.02.06-.03.25,0,.49.08.74.03.02,0,.04-.02.06-.03.25,0,.49.08.74.03.02,0,.04-.02.06-.03.25,0,.49.08.74.03,1.21-.23,2.23-1,2.77-2.09l14.22-28.64,3.55,2.01,14.88,114.23c.14,1.06.72,2.01,1.6,2.63s1.99.85,3.05.64h.02c.26,0,.52.05.79,0h.02c.26,0,.52.05.79,0h.02c.26,0,.52.05.79,0h.02c.26,0,.52.05.79,0h.02c.26,0,.52.05.79,0h.02c.26,0,.52.05.79,0h.02c.26,0,.53.05.79,0h.02c.26,0,.52.05.79,0h.02c.26,0,.52.05.79,0h.02c.26,0,.52.05.79,0h.02c.26,0,.52.05.79,0h.02c.26,0,.52.05.79,0h.02c.26,0,.52.05.79,0h.02c.26,0,.52.05.79,0h.02c.26,0,.52.05.79,0h.02c.26,0,.52.05.79,0h.02c.26,0,.52.05.79,0h.02c.26,0,.52.05.79,0h.02c.26,0,.53.05.79,0h.02c.26,0,.52.05.79,0h.02c.26,0,.53.05.79,0l615.62-39.84c1.74-.34,3.02-1.79,3.12-3.53l19.77-271.29c.09-2.02-1.5-3.89-3.64-4.04L96.65,7.45c-.09,0-.17.04-.26.04l-.55-.04c-.09,0-.17.04-.26.04l-.55-.04c-.09,0-.17.04-.26.04l-.55-.04c-.09,0-.17.04-.26.04l-.55-.04c-.09,0-.17.04-.26.04l-.55-.04c-.09,0-.17.04-.26.04l-.55-.04c-.09,0-.17.04-.26.04l-.55-.04c-.09,0-.17.04-.26.04l-.55-.04c-.09,0-.17.04-.26.04l-.55-.04c-.09,0-.17.04-.26.04l-.55-.04c-.09,0-.17.04-.26.04l-.55-.04c-.09,0-.17.04-.26.04l-.55-.04c-.09,0-.17.04-.26.04l-.55-.04c-.09,0-.17.04-.26.04l-.55-.04c-.09,0-.17.04-.26.04l-.55-.04c-.09,0-.17.04-.26.04l-.55-.04c-.09,0-.17.04-.26.04l-.55-.04c-.09,0-.17.04-.26.04l-.55-.04c-.09,0-.17.04-.26.04l-.55-.04c-.09,0-.17.04-.26.04l-.55-.04c-.09,0-.17.04-.26.04l-.55-.04c-1.13-.08-2.23.33-3.03,1.11h.07Z"/>
    <path class="st4" d="M115.41,173.04c.08,1.2-.43,2.37-1.36,3.16-.94.78-2.2,1.09-3.4.82l-32.53-7.19-10.56,33.06c-.35,1.1-1.18,1.98-2.27,2.41-1.09.43-2.31.36-3.34-.19l-31.24-16.77-7.22,41.37c-.31,1.81-1.9,3.15-3.78,3.18l-44.15.8,62.51,25.49,9.22-30.08c.39-1.26,1.4-2.23,2.69-2.59,1.29-.36,2.67-.04,3.67.84l19.4,17.08,17.5-35.26c.47-.96,1.33-1.68,2.37-1.99,1.04-.31,2.16-.19,3.1.35l22.09,12.52c1.05.6,1.76,1.64,1.92,2.83l14.59,112.02,608.54-38.43,19.37-264.57L100.58,15.38l14.83,157.66h0Z"/>
    <path d="M92.48,11.51l14.78,156.91-30.95-6.84c-1.99-.44-3.99.69-4.59,2.59l-10.21,31.96-31.87-17.11c-1.11-.59-2.44-.63-3.58-.09-1.14.54-1.94,1.58-2.15,2.8l-7.6,43.55-59.56,1.08c-1.85.03-3.42,1.33-3.77,3.11-.05.24-.07.48-.07.71,0,1.52.93,2.93,2.41,3.53l83.73,34.15c1.02.42,2.18.39,3.18-.07,1-.46,1.75-1.32,2.07-2.36l8.69-28.36,18.67,16.45c.91.8,2.16,1.14,3.36.91,1.21-.23,2.23-1,2.77-2.09l17.94-36.14,16.78,9.51,14.88,114.23c.14,1.06.72,2.01,1.6,2.63s1.99.85,3.05.64l615.62-39.84c1.74-.34,3.02-1.79,3.12-3.53l19.77-271.29c.09-2.02-1.5-3.89-3.64-4.04L96.65,7.45c-1.13-.08-2.23.33-3.03,1.11-.8.78-1.2,1.88-1.14,2.96h0ZM743.16,296.48l-608.54,38.43-14.59-112.02c-.16-1.18-.87-2.23-1.92-2.83l-22.09-12.52c-.94-.53-2.07-.66-3.1-.35-1.04.31-1.9,1.03-2.37,1.99l-17.5,35.26-19.4-17.08c-1-.88-2.38-1.2-3.67-.84-1.29.36-2.31,1.33-2.69,2.59l-9.22,30.08-62.51-25.49,44.15-.8c1.88-.03,3.47-1.37,3.78-3.18l7.22-41.37,31.24,16.77c1.03.55,2.25.62,3.34.19s1.92-1.31,2.27-2.41l10.56-33.06,32.53,7.19c1.2.27,2.46-.04,3.4-.82.94-.78,1.44-1.96,1.36-3.16L100.58,15.38l661.96,16.52-19.37,264.57h-.01Z"/>
  </g>
  <g>
    <g>
      <path d="M76.67,8.32c-.8.78-1.2,1.88-1.14,2.96l14.53,153.11-13.76-3.04c-.52-.12-1.04-.11-1.54-.02-.27,0-.54-.05-.81,0-.27,0-.54-.05-.81,0-.27,0-.54-.05-.81,0-.27,0-.54-.05-.81,0-.27,0-.55-.05-.81,0-.27,0-.54-.05-.81,0-.27,0-.54-.05-.81,0-.27,0-.54-.05-.81,0-.27,0-.54-.05-.81,0-.27,0-.54-.05-.81,0-.27,0-.54-.05-.81,0-.27,0-.54-.05-.81,0-.27,0-.54-.05-.81,0-.27,0-.54-.05-.81,0-.27,0-.54-.05-.81,0-.27,0-.55-.05-.81,0-.27,0-.55-.05-.81,0-.27,0-.54-.05-.81,0-.27,0-.55-.05-.81,0-.27,0-.54-.05-.81,0-1.73-.05-3.33.95-3.86,2.62l-7.73,24.2-17.4-9.34c-.69-.37-1.46-.44-2.23-.37-.27-.03-.53-.02-.81,0-.27-.03-.53-.02-.81,0-.27-.03-.53-.02-.81,0-.27-.03-.53-.02-.81,0-.27-.03-.53-.02-.81,0-.27-.03-.53-.02-.81,0-.27-.03-.53-.02-.81,0-.27-.03-.53-.02-.81,0-.27-.03-.53-.02-.81,0-.27-.03-.53-.02-.81,0-.28-.03-.53-.02-.81,0-.28-.03-.53-.02-.81,0-.27-.03-.53-.02-.81,0-.28-.03-.53-.02-.81,0-.27-.03-.53-.02-.81,0-.27-.03-.53-.02-.81,0-.28-.03-.53-.02-.81,0-.27-.03-.53-.02-.81,0-.27-.03-.53-.02-.81,0-.27-.03-.53-.02-.81,0-.73-.09-1.47-.04-2.16.29-1.14.54-1.94,1.58-2.15,2.8L-.63,225.06l-59.56,1.08c-1.85.03-3.42,1.33-3.77,3.11-.05.24-.07.48-.07.71,0,1.52.93,2.93,2.41,3.53l83.73,34.15c.63.26,1.29.29,1.95.21.27.03.53.03.81,0,.27.03.53.03.81,0,.27.03.53.03.81,0,.27.03.53.03.81,0,.27.03.53.03.81,0,.27.03.53.03.81,0,.27.03.53.03.81,0,.27.03.53.03.81,0,.27.03.53.03.81,0,.27.03.53.03.81,0,.28.03.53.03.81,0,.27.03.53.03.81,0,.27.03.53.03.81,0,.27.03.53.03.81,0,.27.03.53.03.81,0,.27.03.53.03.81,0,.27.03.53.03.81,0,.27.03.53.03.81,0,.27.03.53.03.81,0,.27.03.53.03.81,0,.69.06,1.39.01,2.03-.29,1-.46,1.75-1.32,2.07-2.36l5.09-16.61,5.33,4.7c.91.8,2.16,1.14,3.36.91.02,0,.04-.02.06-.03.25,0,.49.08.74.03.02,0,.04-.02.06-.03.25,0,.49.08.74.03.02,0,.04-.02.06-.03.25,0,.49.08.74.03.02,0,.04-.02.06-.03.25,0,.49.08.74.03.02,0,.04-.02.06-.03.25,0,.49.08.74.03.02,0,.04-.02.06-.03.25,0,.49.08.74.03.02,0,.04-.02.06-.03.25,0,.49.08.74.03.02,0,.04-.02.06-.03.25,0,.49.08.74.03.02,0,.04-.02.06-.03.25,0,.49.08.74.03.02,0,.04-.02.06-.03.25,0,.49.08.74.03.02,0,.04-.02.06-.03.25,0,.49.08.74.03.02,0,.04-.02.06-.03.25,0,.49.08.74.03.02,0,.04-.02.06-.03.25,0,.49.08.74.03.02,0,.04-.02.06-.03.25,0,.49.08.74.03.02,0,.04-.02.06-.03.25,0,.49.08.74.03.02,0,.04-.02.06-.03.25,0,.49.08.74.03.02,0,.04-.02.06-.03.25,0,.49.08.74.03.02,0,.04-.02.06-.03.25,0,.49.08.74.03.02,0,.04-.02.06-.03.25,0,.49.08.74.03.02,0,.04-.02.06-.03.25,0,.49.08.74.03.02,0,.04-.02.06-.03.25,0,.49.08.74.03,1.21-.23,2.23-1,2.77-2.09l14.22-28.64,3.55,2.01,14.88,114.23c.14,1.06.72,2.01,1.6,2.63s1.99.85,3.05.64h.02c.26,0,.52.05.79,0h.02c.26,0,.52.05.79,0h.02c.26,0,.52.05.79,0h.02c.26,0,.52.05.79,0h.02c.26,0,.52.05.79,0h.02c.26,0,.52.05.79,0h.02c.26,0,.53.05.79,0h.02c.26,0,.52.05.79,0h.02c.26,0,.52.05.79,0h.02c.26,0,.52.05.79,0h.02c.26,0,.52.05.79,0h.02c.26,0,.52.05.79,0h.02c.26,0,.52.05.79,0h.02c.26,0,.52.05.79,0h.02c.26,0,.52.05.79,0h.02c.26,0,.52.05.79,0h.02c.26,0,.52.05.79,0h.02c.26,0,.52.05.79,0h.02c.26,0,.53.05.79,0h.02c.26,0,.52.05.79,0h.02c.26,0,.53.05.79,0l615.62-39.84c1.74-.34,3.02-1.79,3.12-3.53l19.77-271.29c.09-2.02-1.5-3.89-3.64-4.04L96.64,7.22c-.09,0-.17.04-.26.04l-.55-.04c-.09,0-.17.04-.26.04l-.55-.04c-.09,0-.17.04-.26.04l-.55-.04c-.09,0-.17.04-.26.04l-.55-.04c-.09,0-.17.04-.26.04l-.55-.04c-.09,0-.17.04-.26.04l-.55-.04c-.09,0-.17.04-.26.04l-.55-.04c-.09,0-.17.04-.26.04l-.55-.04c-.09,0-.17.04-.26.04l-.55-.04c-.09,0-.17.04-.26.04l-.55-.04c-.09,0-.17.04-.26.04l-.55-.04c-.09,0-.17.04-.26.04l-.55-.04c-.09,0-.17.04-.26.04l-.55-.04c-.09,0-.17.04-.26.04l-.55-.04c-.09,0-.17.04-.26.04l-.55-.04c-.09,0-.17.04-.26.04l-.55-.04c-.09,0-.17.04-.26.04l-.55-.04c-.09,0-.17.04-.26.04l-.55-.04c-.09,0-.17.04-.26.04l-.55-.04c-.09,0-.17.04-.26.04l-.55-.04c-.09,0-.17.04-.26.04l-.55-.04c-1.13-.08-2.23.33-3.03,1.11h.07Z"/>
      <path class="st4" d="M115.4,172.81c.08,1.2-.43,2.37-1.36,3.16-.94.78-2.2,1.09-3.4.82l-32.53-7.19-10.56,33.06c-.35,1.1-1.18,1.98-2.27,2.41-1.09.43-2.31.36-3.34-.19l-31.24-16.77-7.22,41.37c-.31,1.81-1.9,3.15-3.78,3.18l-44.15.8,62.51,25.49,9.22-30.08c.39-1.26,1.4-2.23,2.69-2.59,1.29-.36,2.67-.04,3.67.84l19.4,17.08,17.5-35.26c.47-.96,1.33-1.68,2.37-1.99,1.04-.31,2.16-.19,3.1.35l22.09,12.52c1.05.6,1.76,1.64,1.92,2.83l14.59,112.02,608.54-38.43,19.37-264.57L100.56,15.15l14.83,157.66h.01Z"/>
      <path d="M92.47,11.28l14.78,156.91-30.95-6.84c-1.99-.44-3.99.69-4.59,2.59l-10.21,31.96-31.87-17.11c-1.11-.59-2.44-.63-3.58-.09-1.14.54-1.94,1.58-2.15,2.8l-7.6,43.55-59.56,1.08c-1.85.03-3.42,1.33-3.77,3.11-.05.24-.07.48-.07.71,0,1.52.93,2.93,2.41,3.53l83.73,34.15c1.02.42,2.18.39,3.18-.07,1-.46,1.75-1.32,2.07-2.36l8.69-28.36,18.67,16.45c.91.8,2.16,1.14,3.36.91,1.21-.23,2.23-1,2.77-2.09l17.94-36.14,16.78,9.51,14.88,114.23c.14,1.06.72,2.01,1.6,2.63s1.99.85,3.05.64l615.62-39.84c1.74-.34,3.02-1.79,3.12-3.53l19.77-271.29c.09-2.02-1.5-3.89-3.64-4.04L96.64,7.22c-1.13-.08-2.23.33-3.03,1.11-.8.78-1.2,1.88-1.14,2.96h0ZM743.15,296.25l-608.54,38.43-14.59-112.02c-.16-1.18-.87-2.23-1.92-2.83l-22.09-12.52c-.94-.53-2.07-.66-3.1-.35-1.04.31-1.9,1.03-2.37,1.99l-17.5,35.26-19.4-17.08c-1-.88-2.38-1.2-3.67-.84-1.29.36-2.31,1.33-2.69,2.59l-9.22,30.08-62.51-25.49,44.15-.8c1.88-.03,3.47-1.37,3.78-3.18l7.22-41.37,31.24,16.77c1.03.55,2.25.62,3.34.19s1.92-1.31,2.27-2.41l10.56-33.06,32.53,7.19c1.2.27,2.46-.04,3.4-.82.94-.78,1.44-1.96,1.36-3.16L100.56,15.15l661.96,16.52-19.37,264.57h0Z"/>
    </g>
    <g>
      <g class="st2">
        <g class="st2">
          <path d="M176.96,58.98c-.27,0-.51-.1-.71-.3-.2-.2-.31-.43-.31-.7v-.5c0-.77-.31-1.29-.94-1.57-.63-.28-1.33-.42-2.11-.42s-1.48.14-2.11.42-.94.81-.94,1.57v8.48c0,.77.31,1.29.94,1.57.63.28,1.33.42,2.11.42s1.48-.14,2.11-.42c.63-.28.94-.81.94-1.57v-.5c0-.27.1-.5.31-.7s.44-.3.71-.3h5.09c.27,0,.51.1.71.3s.31.43.31.7v2.05c0,1.5-.3,2.72-.89,3.67-.59.95-1.37,1.71-2.32,2.27-.95.57-2.04.96-3.28,1.17-1.24.22-2.49.32-3.74.32s-2.54-.11-3.74-.32c-1.21-.22-2.28-.6-3.23-1.15-.95-.55-1.71-1.31-2.29-2.27-.58-.96-.87-2.2-.87-3.69v-11.53c0-1.5.29-2.73.87-3.69.58-.96,1.34-1.72,2.29-2.27.95-.55,2.03-.93,3.23-1.15,1.2-.22,2.45-.32,3.74-.32s2.5.11,3.74.32c1.24.22,2.33.61,3.28,1.17.95.57,1.72,1.32,2.32,2.27.59.95.89,2.17.89,3.67v2c0,.27-.1.5-.31.7-.2.2-.44.3-.71.3h-5.09Z"/>
          <path d="M199.1,56.49c1.12,0,2.17.16,3.16.47.98.32,1.85.77,2.6,1.37.75.6,1.33,1.33,1.76,2.2.42.87.64,1.85.64,2.94v4.49c0,1.1-.21,2.08-.64,2.94-.42.87-1.01,1.6-1.76,2.2-.75.6-1.61,1.06-2.6,1.37-.98.32-2.04.47-3.16.47h-4.07c-1.12,0-2.17-.16-3.16-.47-.98-.32-1.85-.77-2.6-1.37-.75-.6-1.33-1.33-1.76-2.2-.42-.86-.64-1.85-.64-2.94v-4.49c0-1.1.21-2.08.64-2.94.42-.86,1.01-1.6,1.76-2.2.75-.6,1.61-1.06,2.6-1.37.98-.32,2.04-.47,3.16-.47h4.07ZM200.12,64.22c0-.27-.1-.5-.31-.7-.2-.2-.44-.3-.71-.3h-4.07c-.27,0-.51.1-.71.3-.2.2-.31.43-.31.7v2.99c0,.27.1.5.31.7.2.2.44.3.71.3h4.07c.27,0,.51-.1.71-.3.2-.2.31-.43.31-.7v-2.99Z"/>
          <path d="M229.38,63.47c0,.27-.1.5-.31.7s-.44.3-.71.3h-6.11v-1.15c0-.5-.15-.85-.46-1.05-.31-.2-.66-.3-1.07-.3-.81,0-1.66.27-2.54.8v11.18c0,.27-.1.5-.31.7s-.44.3-.71.3h-5.09c-.27,0-.51-.1-.71-.3s-.31-.43-.31-.7v-16.47c0-.27.1-.5.31-.7s.44-.3.71-.3h6.11v2c.98-.63,2.04-1.12,3.18-1.47,1.14-.35,2.21-.52,3.23-.52,1.32,0,2.45.32,3.38.95.93.63,1.4,1.65,1.4,3.04v2.99Z"/>
          <path d="M242.87,69.61c.54,0,1.11-.05,1.71-.15.59-.1,1.18-.22,1.76-.37.58-.15,1.11-.32,1.6-.52.49-.2.92-.4,1.3-.6l1.02,4.99c-.58.33-1.26.62-2.04.87-.78.25-1.57.46-2.37.62-.8.17-1.59.29-2.37.37-.78.08-1.46.12-2.04.12-1.22,0-2.38-.13-3.46-.4-1.09-.27-2.04-.71-2.88-1.32-.83-.62-1.48-1.43-1.96-2.44-.48-1.01-.71-2.29-.71-3.82v-5.64c0-1.33.51-2.47,1.53-3.42,1.02-.95,2.54-1.42,4.58-1.42h6.62c1.73,0,3.01.37,3.84,1.12.83.75,1.25,1.66,1.25,2.72,0,.83-.23,1.68-.69,2.54-.46.87-1.12,1.69-1.98,2.47-.87.78-1.93,1.48-3.18,2.1-1.26.62-2.68,1.09-4.28,1.42.27.27.65.46,1.15.57.49.12,1.03.17,1.6.17ZM239.56,62.48v3.09c.81-.37,1.57-.81,2.27-1.32.69-.52,1.13-1.11,1.3-1.77h-3.56Z"/>
          <path d="M267.04,66.97v6.99c0,.27-.1.5-.31.7s-.44.3-.71.3h-5.09c-.27,0-.51-.1-.71-.3s-.31-.43-.31-.7v-24.45c0-.27.1-.5.31-.7.2-.2.44-.3.71-.3h11.6c1.53,0,2.88.27,4.05.8,1.17.53,2.14,1.23,2.9,2.1.76.87,1.34,1.85,1.73,2.97.39,1.12.58,2.24.58,3.37s-.2,2.3-.58,3.39c-.39,1.1-.97,2.08-1.73,2.94-.76.87-1.73,1.56-2.9,2.1-1.17.53-2.52.8-4.05.8h-5.5ZM272.08,59.98c.88,0,1.53-.23,1.96-.7.42-.47.64-.98.64-1.55s-.21-1.08-.64-1.55c-.42-.47-1.08-.7-1.96-.7h-5.04v4.49h5.04Z"/>
          <path d="M297.33,56.49c1.12,0,2.17.16,3.16.47.98.32,1.85.77,2.6,1.37.75.6,1.33,1.33,1.76,2.2.42.87.64,1.85.64,2.94v4.49c0,1.1-.21,2.08-.64,2.94-.42.87-1.01,1.6-1.76,2.2-.75.6-1.61,1.06-2.6,1.37-.98.32-2.04.47-3.16.47h-4.07c-1.12,0-2.17-.16-3.16-.47-.98-.32-1.85-.77-2.6-1.37-.75-.6-1.33-1.33-1.76-2.2-.42-.86-.64-1.85-.64-2.94v-4.49c0-1.1.21-2.08.64-2.94.42-.86,1.01-1.6,1.76-2.2.75-.6,1.61-1.06,2.6-1.37.98-.32,2.04-.47,3.16-.47h4.07ZM298.35,64.22c0-.27-.1-.5-.31-.7-.2-.2-.44-.3-.71-.3h-4.07c-.27,0-.51.1-.71.3-.2.2-.31.43-.31.7v2.99c0,.27.1.5.31.7.2.2.44.3.71.3h4.07c.27,0,.51-.1.71-.3.2-.2.31-.43.31-.7v-2.99Z"/>
          <path d="M321,57.49c.07-.27.19-.5.36-.7.17-.2.39-.3.66-.3h5.45c.27,0,.49.1.66.3.17.2.29.43.36.7l2.75,12.08,1.93-12.08c.07-.27.19-.5.36-.7.17-.2.39-.3.66-.3h6.46l-2.85,17.46c-.07.27-.19.5-.36.7-.17.2-.39.3-.66.3h-8.86c-.27,0-.49-.1-.66-.3-.17-.2-.29-.43-.36-.7l-2.19-9.18-2.19,9.18c-.07.27-.19.5-.36.7-.17.2-.39.3-.66.3h-8.86c-.27,0-.49-.1-.66-.3-.17-.2-.29-.43-.36-.7l-2.85-17.46h6.46c.27,0,.49.1.66.3.17.2.29.43.36.7l1.93,12.08,2.8-12.08Z"/>
          <path d="M354.64,69.61c.54,0,1.11-.05,1.71-.15.59-.1,1.18-.22,1.76-.37.58-.15,1.11-.32,1.6-.52.49-.2.92-.4,1.3-.6l1.02,4.99c-.58.33-1.26.62-2.04.87-.78.25-1.57.46-2.37.62-.8.17-1.59.29-2.37.37-.78.08-1.46.12-2.04.12-1.22,0-2.38-.13-3.46-.4-1.09-.27-2.04-.71-2.88-1.32-.83-.62-1.48-1.43-1.96-2.44-.48-1.01-.71-2.29-.71-3.82v-5.64c0-1.33.51-2.47,1.53-3.42,1.02-.95,2.54-1.42,4.58-1.42h6.62c1.73,0,3.01.37,3.84,1.12.83.75,1.25,1.66,1.25,2.72,0,.83-.23,1.68-.69,2.54-.46.87-1.12,1.69-1.98,2.47-.87.78-1.93,1.48-3.18,2.1-1.26.62-2.68,1.09-4.28,1.42.27.27.65.46,1.15.57.49.12,1.03.17,1.6.17ZM351.33,62.48v3.09c.81-.37,1.57-.81,2.27-1.32.69-.52,1.13-1.11,1.3-1.77h-3.56Z"/>
          <path d="M383.91,63.47c0,.27-.1.5-.31.7s-.44.3-.71.3h-6.11v-1.15c0-.5-.15-.85-.46-1.05-.31-.2-.66-.3-1.07-.3-.81,0-1.66.27-2.54.8v11.18c0,.27-.1.5-.31.7s-.44.3-.71.3h-5.09c-.27,0-.51-.1-.71-.3s-.31-.43-.31-.7v-16.47c0-.27.1-.5.31-.7s.44-.3.71-.3h6.11v2c.98-.63,2.04-1.12,3.18-1.47,1.14-.35,2.21-.52,3.23-.52,1.32,0,2.45.32,3.38.95.93.63,1.4,1.65,1.4,3.04v2.99Z"/>
          <path d="M390.01,64.97c-.27,0-.51-.1-.71-.3s-.31-.43-.31-.7v-3.99c0-.27.1-.5.31-.7.2-.2.44-.3.71-.3h4.07c.27,0,.51.1.71.3.2.2.31.43.31.7v3.99c0,.27-.1.5-.31.7s-.44.3-.71.3h-4.07ZM390.01,74.95c-.27,0-.51-.1-.71-.3s-.31-.43-.31-.7v-3.99c0-.27.1-.5.31-.7s.44-.3.71-.3h4.07c.27,0,.51.1.71.3s.31.43.31.7v3.99c0,.27-.1.5-.31.7s-.44.3-.71.3h-4.07Z"/>
        </g>
        <g class="st2">
          <path d="M164.95,101.71c1.15.57,2.25.97,3.28,1.2,1.03.23,1.94.35,2.72.35.88,0,1.59-.14,2.14-.42.54-.28.81-.66.81-1.12,0-.67-.29-1.22-.87-1.67-.58-.45-1.3-.88-2.16-1.3-.87-.42-1.81-.85-2.82-1.3-1.02-.45-1.96-1.01-2.83-1.67-.87-.67-1.59-1.46-2.16-2.4-.58-.93-.87-2.1-.87-3.49,0-1.16.25-2.2.76-3.09.51-.9,1.2-1.65,2.06-2.25.87-.6,1.88-1.05,3.05-1.35,1.17-.3,2.42-.45,3.74-.45,1.39,0,2.8.17,4.22.5,1.43.33,2.85.83,4.28,1.5l-2.04,5.49c-1.15-.57-2.25-.96-3.28-1.2-1.04-.23-1.94-.35-2.72-.35-.92,0-1.64.14-2.16.42-.53.28-.79.66-.79,1.12,0,.67.29,1.22.87,1.67.58.45,1.3.88,2.16,1.3.87.42,1.81.85,2.82,1.3,1.02.45,1.96,1.01,2.82,1.67.87.67,1.59,1.46,2.16,2.4.58.93.87,2.1.87,3.49,0,1.17-.25,2.2-.76,3.09-.51.9-1.2,1.65-2.06,2.25s-1.88,1.05-3.05,1.35c-1.17.3-2.42.45-3.74.45-1.39,0-2.8-.17-4.22-.5-1.43-.33-2.85-.83-4.28-1.5l2.04-5.49Z"/>
          <path d="M184.59,91.73c0-.27.1-.5.31-.7s.44-.3.71-.3h5.09c.27,0,.51.1.71.3s.31.43.31.7v9.98c0,.87.15,1.46.46,1.8.31.33.7.5,1.17.5.58,0,1.15-.19,1.73-.57.58-.38.98-.79,1.22-1.22v-10.48c0-.27.1-.5.31-.7s.44-.3.71-.3h5.09c.27,0,.51.1.71.3s.31.43.31.7v16.47c0,.27-.1.5-.31.7s-.44.3-.71.3h-6.11v-2c-.54.57-1.35,1.04-2.42,1.42-1.07.38-2.2.57-3.38.57-.75,0-1.48-.1-2.19-.3s-1.34-.53-1.88-1c-.54-.47-.98-1.08-1.32-1.85-.34-.77-.51-1.71-.51-2.84v-11.48Z"/>
          <path d="M214.62,109.19v6.99c0,.27-.1.5-.31.7s-.44.3-.71.3h-5.09c-.27,0-.51-.1-.71-.3s-.31-.43-.31-.7v-24.45c0-.27.1-.5.31-.7s.44-.3.71-.3h9.06c1.53,0,2.88.27,4.05.8,1.17.53,2.14,1.23,2.9,2.1.76.87,1.34,1.85,1.73,2.97.39,1.11.58,2.24.58,3.37s-.2,2.3-.58,3.39c-.39,1.1-.97,2.08-1.73,2.94-.76.87-1.73,1.56-2.9,2.1-1.17.53-2.52.8-4.05.8h-2.95ZM217.12,102.2c.88,0,1.53-.23,1.96-.7.42-.47.64-.98.64-1.55s-.21-1.08-.64-1.55c-.42-.47-1.08-.7-1.96-.7h-2.49v4.49h2.49Z"/>
          <path d="M240.83,103.85c.54,0,1.11-.05,1.71-.15.59-.1,1.18-.22,1.76-.37.58-.15,1.11-.32,1.6-.52.49-.2.92-.4,1.3-.6l1.02,4.99c-.58.33-1.26.62-2.04.87-.78.25-1.57.46-2.37.62-.8.17-1.59.29-2.37.37-.78.08-1.46.12-2.04.12-1.22,0-2.38-.13-3.46-.4-1.09-.27-2.04-.71-2.88-1.32-.83-.62-1.48-1.43-1.96-2.44-.48-1.01-.71-2.29-.71-3.82v-5.64c0-1.33.51-2.47,1.53-3.42,1.02-.95,2.54-1.42,4.58-1.42h6.62c1.73,0,3.01.37,3.84,1.12.83.75,1.25,1.66,1.25,2.72,0,.83-.23,1.68-.69,2.54-.46.87-1.12,1.69-1.98,2.47-.87.78-1.93,1.48-3.18,2.1-1.26.62-2.68,1.09-4.28,1.42.27.27.65.46,1.15.57.49.12,1.03.17,1.6.17ZM237.52,96.71v3.09c.81-.37,1.57-.81,2.27-1.32.69-.52,1.13-1.11,1.3-1.77h-3.56Z"/>
          <path d="M270.1,97.71c0,.27-.1.5-.31.7s-.44.3-.71.3h-6.11v-1.15c0-.5-.15-.85-.46-1.05-.31-.2-.66-.3-1.07-.3-.81,0-1.66.27-2.54.8v11.18c0,.27-.1.5-.31.7s-.44.3-.71.3h-5.09c-.27,0-.51-.1-.71-.3s-.31-.43-.31-.7v-16.47c0-.27.1-.5.31-.7s.44-.3.71-.3h6.11v2c.98-.63,2.04-1.12,3.18-1.47,1.14-.35,2.21-.52,3.23-.52,1.32,0,2.45.32,3.38.95.93.63,1.4,1.65,1.4,3.04v2.99Z"/>
          <path d="M294.43,97.11c-1.19-.5-2.43-.93-3.72-1.3-1.29-.37-2.48-.55-3.56-.55-.54,0-.98.06-1.3.17-.32.12-.48.31-.48.57,0,.33.29.6.87.8.58.2,1.3.39,2.16.57.87.18,1.81.41,2.83.67,1.02.27,1.96.62,2.82,1.07.87.45,1.59,1.04,2.16,1.77.58.73.87,1.66.87,2.79,0,1-.23,1.85-.69,2.54-.46.7-1.08,1.26-1.86,1.7-.78.43-1.7.75-2.75.95s-2.17.3-3.36.3c-1.73,0-3.5-.18-5.29-.55-1.8-.37-3.43-.85-4.89-1.45l1.83-4.34c.54.23,1.14.46,1.78.67.64.22,1.31.42,2.01.6.7.18,1.37.32,2.04.42.66.1,1.26.15,1.81.15.61,0,1.14-.07,1.58-.22.44-.15.66-.41.66-.77,0-.27-.29-.49-.87-.67-.58-.18-1.3-.37-2.16-.57-.87-.2-1.81-.44-2.83-.72-1.02-.28-1.96-.67-2.82-1.15-.87-.48-1.59-1.08-2.16-1.8-.58-.71-.87-1.62-.87-2.72,0-1.03.21-1.89.64-2.57.42-.68,1.01-1.23,1.76-1.65.75-.42,1.62-.71,2.62-.87,1-.17,2.06-.25,3.18-.25,1.73,0,3.38.16,4.96.47,1.58.32,2.96.66,4.15,1.02l-1.12,4.89Z"/>
          <path d="M312.65,108.39c-1.53.5-3,.75-4.43.75-1.19,0-2.29-.18-3.31-.55-1.02-.37-1.89-.91-2.62-1.62-.73-.71-1.31-1.62-1.73-2.72-.42-1.1-.64-2.38-.64-3.84v-16.67c0-.27.1-.5.31-.7.2-.2.44-.3.71-.3h5.09c.27,0,.51.1.71.3.2.2.31.43.31.7v2.5h4.07c.27,0,.51.1.71.3.2.2.31.43.31.7v3.99c0,.27-.1.5-.31.7-.2.2-.44.3-.71.3h-4.07v8.18c0,.96.26,1.72.79,2.27.53.55,1.26.82,2.21.82h.51c.17,0,.36-.03.56-.1l1.53,4.99Z"/>
          <path d="M333.52,97.71c0,.27-.1.5-.31.7s-.44.3-.71.3h-6.11v-1.15c0-.5-.15-.85-.46-1.05-.31-.2-.66-.3-1.07-.3-.81,0-1.66.27-2.54.8v11.18c0,.27-.1.5-.31.7s-.44.3-.71.3h-5.09c-.27,0-.51-.1-.71-.3s-.31-.43-.31-.7v-16.47c0-.27.1-.5.31-.7s.44-.3.71-.3h6.11v2c.98-.63,2.04-1.12,3.18-1.47,1.14-.35,2.21-.52,3.23-.52,1.32,0,2.45.32,3.38.95.93.63,1.4,1.65,1.4,3.04v2.99Z"/>
          <path d="M347,103.85c.54,0,1.11-.05,1.71-.15.59-.1,1.18-.22,1.76-.37.58-.15,1.11-.32,1.6-.52.49-.2.92-.4,1.3-.6l1.02,4.99c-.58.33-1.26.62-2.04.87-.78.25-1.57.46-2.37.62-.8.17-1.59.29-2.37.37-.78.08-1.46.12-2.04.12-1.22,0-2.38-.13-3.46-.4-1.09-.27-2.04-.71-2.88-1.32-.83-.62-1.48-1.43-1.96-2.44-.48-1.01-.71-2.29-.71-3.82v-5.64c0-1.33.51-2.47,1.53-3.42,1.02-.95,2.54-1.42,4.58-1.42h6.62c1.73,0,3.01.37,3.84,1.12.83.75,1.25,1.66,1.25,2.72,0,.83-.23,1.68-.69,2.54-.46.87-1.12,1.69-1.98,2.47-.87.78-1.93,1.48-3.18,2.1-1.26.62-2.68,1.09-4.28,1.42.27.27.65.46,1.15.57.49.12,1.03.17,1.6.17ZM343.7,96.71v3.09c.81-.37,1.57-.81,2.27-1.32.69-.52,1.13-1.11,1.3-1.77h-3.56Z"/>
          <path d="M376.78,108.19c0,.27-.1.5-.31.7s-.44.3-.71.3h-5.09c-.27,0-.51-.1-.71-.3s-.31-.43-.31-.7v-10.23c0-.76-.19-1.3-.56-1.6-.37-.3-.75-.45-1.12-.45-.58,0-1.15.19-1.71.57-.56.38-.96.79-1.2,1.22v10.48c0,.27-.1.5-.31.7s-.44.3-.71.3h-5.09c-.27,0-.51-.1-.71-.3s-.31-.43-.31-.7v-16.47c0-.27.1-.5.31-.7s.44-.3.71-.3h6.11v2c1.02-.57,2.07-1.04,3.16-1.42,1.09-.38,2.14-.57,3.16-.57.75,0,1.45.12,2.11.37s1.23.67,1.71,1.27c.47.6.86,1.37,1.15,2.32.29.95.43,2.12.43,3.52v9.98Z"/>
          <path d="M398.16,109.19c0,1.53-.24,2.8-.71,3.82-.47,1.01-1.13,1.83-1.96,2.44-.83.62-1.79,1.06-2.88,1.32-1.09.27-2.24.4-3.46.4s-2.57-.17-4.15-.5c-1.58-.33-2.96-.83-4.15-1.5l1.53-3.99c.64.2,1.36.37,2.14.52.78.15,1.56.22,2.34.22,1.12,0,2.09-.2,2.93-.6.83-.4,1.25-1.11,1.25-2.15h-6.11c-1.43,0-2.63-.48-3.61-1.45-.98-.96-1.48-2.15-1.48-3.54v-4.99c0-1.46.28-2.73.84-3.79.56-1.06,1.3-1.95,2.21-2.64.92-.7,1.98-1.21,3.18-1.55,1.2-.33,2.45-.5,3.74-.5,1.49,0,2.96.21,4.4.62,1.44.42,2.76,1.04,3.94,1.87v15.97ZM391.03,102.2v-4.24c-.58-.17-1.09-.25-1.53-.25-.68,0-1.27.13-1.78.4-.51.27-.76.63-.76,1.1v2.99h4.07Z"/>
          <path d="M414.95,108.39c-1.53.5-3,.75-4.43.75-1.19,0-2.29-.18-3.31-.55-1.02-.37-1.89-.91-2.62-1.62-.73-.71-1.31-1.62-1.73-2.72-.42-1.1-.64-2.38-.64-3.84v-16.67c0-.27.1-.5.3-.7.2-.2.44-.3.71-.3h5.09c.27,0,.51.1.71.3.2.2.3.43.3.7v2.5h4.07c.27,0,.51.1.71.3.2.2.3.43.3.7v3.99c0,.27-.1.5-.3.7-.2.2-.44.3-.71.3h-4.07v8.18c0,.96.26,1.72.79,2.27.53.55,1.26.82,2.21.82h.51c.17,0,.36-.03.56-.1l1.53,4.99Z"/>
          <path d="M436.33,108.19c0,.27-.1.5-.31.7-.2.2-.44.3-.71.3h-5.09c-.27,0-.51-.1-.71-.3s-.31-.43-.31-.7v-9.98c0-.86-.2-1.46-.58-1.8-.39-.33-.84-.5-1.35-.5-.44,0-.9.09-1.38.27-.47.18-.9.41-1.27.67v11.33c0,.27-.1.5-.31.7s-.44.3-.71.3h-5.09c-.27,0-.51-.1-.71-.3-.2-.2-.31-.43-.31-.7v-24.45c0-.27.1-.5.31-.7.2-.2.44-.3.71-.3h5.09c.27,0,.51.1.71.3.2.2.31.43.31.7v8.03c.78-.3,1.59-.54,2.42-.72.83-.18,1.64-.27,2.42-.27.88,0,1.73.13,2.54.4.81.27,1.53.71,2.16,1.32.63.62,1.14,1.43,1.53,2.44.39,1.02.6,2.27.64,3.77v9.48Z"/>
          <path d="M442.95,109.19c-.27,0-.51-.1-.71-.3s-.31-.43-.31-.7v-4.99c0-.27.1-.5.31-.7s.44-.3.71-.3h5.09c.27,0,.51.1.71.3s.31.43.31.7v4.99c0,.27-.1.5-.31.7s-.44.3-.71.3h-5.09Z"/>
        </g>
      </g>
      <g class="st2">
        <g class="st2">
          <path d="M183.57,126.51c.27,0,.51.1.71.3.2.2.31.43.31.7v24.45c0,.27-.1.5-.31.7s-.44.3-.71.3h-5.09c-.27,0-.51-.1-.71-.3s-.31-.43-.31-.7v-8.48h-7.63v8.48c0,.27-.1.5-.31.7s-.44.3-.71.3h-5.09c-.27,0-.51-.1-.71-.3s-.31-.43-.31-.7v-24.45c0-.27.1-.5.31-.7.2-.2.44-.3.71-.3h5.09c.27,0,.51.1.71.3.2.2.31.43.31.7v8.98h7.63v-8.98c0-.27.1-.5.31-.7.2-.2.44-.3.71-.3h5.09Z"/>
          <path d="M199.1,147.62c.54,0,1.11-.05,1.71-.15.59-.1,1.18-.22,1.76-.37.58-.15,1.11-.32,1.6-.52.49-.2.92-.4,1.3-.6l1.02,4.99c-.58.33-1.26.62-2.04.87-.78.25-1.57.46-2.37.62-.8.17-1.59.29-2.37.37-.78.08-1.46.12-2.04.12-1.22,0-2.38-.13-3.46-.4-1.09-.27-2.04-.71-2.88-1.32-.83-.62-1.48-1.43-1.96-2.44-.48-1.01-.71-2.29-.71-3.82v-5.64c0-1.33.51-2.47,1.53-3.42,1.02-.95,2.54-1.42,4.58-1.42h6.62c1.73,0,3.01.37,3.84,1.12.83.75,1.25,1.66,1.25,2.72,0,.83-.23,1.68-.69,2.54-.46.87-1.12,1.69-1.98,2.47-.87.78-1.93,1.48-3.18,2.1-1.26.62-2.68,1.09-4.28,1.42.27.27.65.46,1.15.57.49.12,1.03.17,1.6.17ZM195.79,140.48v3.09c.81-.37,1.57-.81,2.27-1.32.69-.52,1.13-1.11,1.3-1.77h-3.56Z"/>
          <path d="M223.27,152.96v6.99c0,.27-.1.5-.31.7s-.44.3-.71.3h-5.09c-.27,0-.51-.1-.71-.3s-.31-.43-.31-.7v-24.45c0-.27.1-.5.31-.7s.44-.3.71-.3h9.06c1.53,0,2.88.27,4.05.8,1.17.53,2.14,1.23,2.9,2.1.76.87,1.34,1.85,1.73,2.97.39,1.11.58,2.24.58,3.37s-.2,2.3-.58,3.39c-.39,1.1-.97,2.08-1.73,2.94-.76.87-1.73,1.56-2.9,2.1-1.17.53-2.52.8-4.05.8h-2.95ZM225.77,145.97c.88,0,1.53-.23,1.96-.7.42-.47.64-.98.64-1.55s-.21-1.08-.64-1.55c-.42-.47-1.08-.7-1.96-.7h-2.49v4.49h2.49Z"/>
          <path d="M251.01,134.5c1.12,0,2.17.16,3.16.47.98.32,1.85.77,2.6,1.37.75.6,1.33,1.33,1.76,2.2.42.87.64,1.85.64,2.94v4.49c0,1.1-.21,2.08-.64,2.94-.42.87-1.01,1.6-1.76,2.2-.75.6-1.61,1.06-2.6,1.37-.98.32-2.04.47-3.16.47h-4.07c-1.12,0-2.17-.16-3.16-.47-.98-.32-1.85-.77-2.6-1.37-.75-.6-1.33-1.33-1.76-2.2-.42-.86-.64-1.85-.64-2.94v-4.49c0-1.1.21-2.08.64-2.94.42-.86,1.01-1.6,1.76-2.2.75-.6,1.61-1.06,2.6-1.37.98-.32,2.04-.47,3.16-.47h4.07ZM252.03,142.23c0-.27-.1-.5-.31-.7-.2-.2-.44-.3-.71-.3h-4.07c-.27,0-.51.1-.71.3-.2.2-.31.43-.31.7v2.99c0,.27.1.5.31.7.2.2.44.3.71.3h4.07c.27,0,.51-.1.71-.3.2-.2.31-.43.31-.7v-2.99Z"/>
          <path d="M278.14,140.88c-1.19-.5-2.43-.93-3.72-1.3-1.29-.37-2.48-.55-3.56-.55-.54,0-.98.06-1.3.17-.32.12-.48.31-.48.57,0,.33.29.6.87.8.58.2,1.3.39,2.16.57.87.18,1.81.41,2.83.67,1.02.27,1.96.62,2.82,1.07.87.45,1.59,1.04,2.16,1.77.58.73.87,1.66.87,2.79,0,1-.23,1.85-.69,2.54-.46.7-1.08,1.26-1.86,1.7-.78.43-1.7.75-2.75.95s-2.17.3-3.36.3c-1.73,0-3.5-.18-5.29-.55-1.8-.37-3.43-.85-4.89-1.45l1.83-4.34c.54.23,1.14.46,1.78.67.64.22,1.31.42,2.01.6.7.18,1.37.32,2.04.42.66.1,1.26.15,1.81.15.61,0,1.14-.07,1.58-.22.44-.15.66-.41.66-.77,0-.27-.29-.49-.87-.67-.58-.18-1.3-.37-2.16-.57-.87-.2-1.81-.44-2.83-.72-1.02-.28-1.96-.67-2.82-1.15-.87-.48-1.59-1.08-2.16-1.8-.58-.71-.87-1.62-.87-2.72,0-1.03.21-1.89.64-2.57.42-.68,1.01-1.23,1.76-1.65.75-.42,1.62-.71,2.62-.87,1-.17,2.06-.25,3.18-.25,1.73,0,3.38.16,4.96.47,1.58.32,2.96.66,4.15,1.02l-1.12,4.89Z"/>
          <path d="M298.81,140.88c-1.19-.5-2.43-.93-3.72-1.3-1.29-.37-2.48-.55-3.56-.55-.54,0-.98.06-1.3.17-.32.12-.48.31-.48.57,0,.33.29.6.87.8.58.2,1.3.39,2.16.57.87.18,1.81.41,2.83.67,1.02.27,1.96.62,2.82,1.07.87.45,1.59,1.04,2.16,1.77.58.73.87,1.66.87,2.79,0,1-.23,1.85-.69,2.54-.46.7-1.08,1.26-1.86,1.7-.78.43-1.7.75-2.75.95s-2.17.3-3.36.3c-1.73,0-3.5-.18-5.29-.55-1.8-.37-3.43-.85-4.89-1.45l1.83-4.34c.54.23,1.14.46,1.78.67.64.22,1.31.42,2.01.6.7.18,1.37.32,2.04.42.66.1,1.26.15,1.81.15.61,0,1.14-.07,1.58-.22.44-.15.66-.41.66-.77,0-.27-.29-.49-.87-.67-.58-.18-1.3-.37-2.16-.57-.87-.2-1.81-.44-2.83-.72-1.02-.28-1.96-.67-2.82-1.15-.87-.48-1.59-1.08-2.16-1.8-.58-.71-.87-1.62-.87-2.72,0-1.03.21-1.89.64-2.57.42-.68,1.01-1.23,1.76-1.65.75-.42,1.62-.71,2.62-.87,1-.17,2.06-.25,3.18-.25,1.73,0,3.38.16,4.96.47,1.58.32,2.96.66,4.15,1.02l-1.12,4.89Z"/>
          <path d="M314.74,147.62c.54,0,1.11-.05,1.71-.15.59-.1,1.18-.22,1.76-.37.58-.15,1.11-.32,1.6-.52.49-.2.92-.4,1.3-.6l1.02,4.99c-.58.33-1.26.62-2.04.87-.78.25-1.57.46-2.37.62-.8.17-1.59.29-2.37.37-.78.08-1.46.12-2.04.12-1.22,0-2.38-.13-3.46-.4-1.09-.27-2.04-.71-2.88-1.32-.83-.62-1.48-1.43-1.96-2.44-.48-1.01-.71-2.29-.71-3.82v-5.64c0-1.33.51-2.47,1.53-3.42,1.02-.95,2.54-1.42,4.58-1.42h6.62c1.73,0,3.01.37,3.84,1.12.83.75,1.25,1.66,1.25,2.72,0,.83-.23,1.68-.69,2.54-.46.87-1.12,1.69-1.98,2.47-.87.78-1.93,1.48-3.18,2.1-1.26.62-2.68,1.09-4.28,1.42.27.27.65.46,1.15.57.49.12,1.03.17,1.6.17ZM311.43,140.48v3.09c.81-.37,1.57-.81,2.27-1.32.69-.52,1.13-1.11,1.3-1.77h-3.56Z"/>
          <path d="M340.85,140.88c-1.19-.5-2.43-.93-3.72-1.3-1.29-.37-2.48-.55-3.56-.55-.54,0-.98.06-1.3.17-.32.12-.48.31-.48.57,0,.33.29.6.87.8.58.2,1.3.39,2.16.57.87.18,1.81.41,2.83.67,1.02.27,1.96.62,2.82,1.07.87.45,1.59,1.04,2.16,1.77.58.73.87,1.66.87,2.79,0,1-.23,1.85-.69,2.54-.46.7-1.08,1.26-1.86,1.7-.78.43-1.7.75-2.75.95s-2.17.3-3.36.3c-1.73,0-3.5-.18-5.29-.55-1.8-.37-3.43-.85-4.89-1.45l1.83-4.34c.54.23,1.14.46,1.78.67.64.22,1.31.42,2.01.6.7.18,1.37.32,2.04.42.66.1,1.26.15,1.81.15.61,0,1.14-.07,1.58-.22.44-.15.66-.41.66-.77,0-.27-.29-.49-.87-.67-.58-.18-1.3-.37-2.16-.57-.87-.2-1.81-.44-2.83-.72-1.02-.28-1.96-.67-2.82-1.15-.87-.48-1.59-1.08-2.16-1.8-.58-.71-.87-1.62-.87-2.72,0-1.03.21-1.89.64-2.57.42-.68,1.01-1.23,1.76-1.65.75-.42,1.62-.71,2.62-.87,1-.17,2.06-.25,3.18-.25,1.73,0,3.38.16,4.96.47,1.58.32,2.96.66,4.15,1.02l-1.12,4.89Z"/>
          <path d="M361.51,140.88c-1.19-.5-2.43-.93-3.72-1.3-1.29-.37-2.48-.55-3.56-.55-.54,0-.98.06-1.3.17-.32.12-.48.31-.48.57,0,.33.29.6.87.8.58.2,1.3.39,2.16.57.87.18,1.81.41,2.83.67,1.02.27,1.96.62,2.82,1.07.87.45,1.59,1.04,2.16,1.77.58.73.87,1.66.87,2.79,0,1-.23,1.85-.69,2.54-.46.7-1.08,1.26-1.86,1.7-.78.43-1.7.75-2.75.95s-2.17.3-3.36.3c-1.73,0-3.5-.18-5.29-.55-1.8-.37-3.43-.85-4.89-1.45l1.83-4.34c.54.23,1.14.46,1.78.67.64.22,1.31.42,2.01.6.7.18,1.37.32,2.04.42.66.1,1.26.15,1.81.15.61,0,1.14-.07,1.58-.22.44-.15.66-.41.66-.77,0-.27-.29-.49-.87-.67-.58-.18-1.3-.37-2.16-.57-.87-.2-1.81-.44-2.83-.72-1.02-.28-1.96-.67-2.82-1.15-.87-.48-1.59-1.08-2.16-1.8-.58-.71-.87-1.62-.87-2.72,0-1.03.21-1.89.64-2.57.42-.68,1.01-1.23,1.76-1.65.75-.42,1.62-.71,2.62-.87,1-.17,2.06-.25,3.18-.25,1.73,0,3.38.16,4.96.47,1.58.32,2.96.66,4.15,1.02l-1.12,4.89Z"/>
          <path d="M377.44,147.62c.54,0,1.11-.05,1.71-.15.59-.1,1.18-.22,1.76-.37.58-.15,1.11-.32,1.6-.52.49-.2.92-.4,1.3-.6l1.02,4.99c-.58.33-1.26.62-2.04.87-.78.25-1.57.46-2.37.62-.8.17-1.59.29-2.37.37-.78.08-1.46.12-2.04.12-1.22,0-2.38-.13-3.46-.4-1.09-.27-2.04-.71-2.88-1.32-.83-.62-1.48-1.43-1.96-2.44-.48-1.01-.71-2.29-.71-3.82v-5.64c0-1.33.51-2.47,1.53-3.42,1.02-.95,2.54-1.42,4.58-1.42h6.62c1.73,0,3.01.37,3.84,1.12.83.75,1.25,1.66,1.25,2.72,0,.83-.23,1.68-.69,2.54-.46.87-1.12,1.69-1.98,2.47-.87.78-1.93,1.48-3.18,2.1-1.26.62-2.68,1.09-4.28,1.42.27.27.65.46,1.15.57.49.12,1.03.17,1.6.17ZM374.13,140.48v3.09c.81-.37,1.57-.81,2.27-1.32.69-.52,1.13-1.11,1.3-1.77h-3.56Z"/>
          <path d="M403.55,140.88c-1.19-.5-2.43-.93-3.72-1.3-1.29-.37-2.48-.55-3.56-.55-.54,0-.98.06-1.3.17-.32.12-.48.31-.48.57,0,.33.29.6.87.8.58.2,1.3.39,2.16.57.87.18,1.81.41,2.82.67,1.02.27,1.96.62,2.83,1.07.87.45,1.59,1.04,2.16,1.77.58.73.87,1.66.87,2.79,0,1-.23,1.85-.69,2.54-.46.7-1.08,1.26-1.86,1.7-.78.43-1.7.75-2.75.95-1.05.2-2.17.3-3.36.3-1.73,0-3.5-.18-5.29-.55-1.8-.37-3.43-.85-4.89-1.45l1.83-4.34c.54.23,1.14.46,1.78.67.64.22,1.31.42,2.01.6.7.18,1.37.32,2.04.42.66.1,1.26.15,1.81.15.61,0,1.14-.07,1.58-.22.44-.15.66-.41.66-.77,0-.27-.29-.49-.87-.67-.58-.18-1.3-.37-2.16-.57-.87-.2-1.81-.44-2.82-.72-1.02-.28-1.96-.67-2.83-1.15-.87-.48-1.59-1.08-2.16-1.8-.58-.71-.87-1.62-.87-2.72,0-1.03.21-1.89.64-2.57.42-.68,1.01-1.23,1.76-1.65.75-.42,1.62-.71,2.62-.87,1-.17,2.06-.25,3.18-.25,1.73,0,3.38.16,4.96.47,1.58.32,2.96.66,4.15,1.02l-1.12,4.89Z"/>
          <path d="M421.26,126.51c.27,0,.51.1.71.3.2.2.31.43.31.7v3.49c0,.27-.1.5-.31.7-.2.2-.44.3-.71.3h-5.09c-.27,0-.51-.1-.71-.3s-.31-.43-.31-.7v-3.49c0-.27.1-.5.31-.7.2-.2.44-.3.71-.3h5.09ZM421.26,134.5c.27,0,.51.1.71.3.2.2.31.43.31.7v16.47c0,.27-.1.5-.31.7-.2.2-.44.3-.71.3h-5.09c-.27,0-.51-.1-.71-.3s-.31-.43-.31-.7v-16.47c0-.27.1-.5.31-.7s.44-.3.71-.3h5.09Z"/>
          <path d="M433.48,151.96c0,.27-.1.5-.31.7s-.44.3-.71.3h-5.09c-.27,0-.51-.1-.71-.3-.2-.2-.31-.43-.31-.7v-16.47c0-.27.1-.5.31-.7.2-.2.44-.3.71-.3h6.11v2c.98-.57,2-1.04,3.05-1.42,1.05-.38,2.07-.57,3.05-.57.92,0,1.75.22,2.49.65.75.43,1.34,1.17,1.78,2.2,1.19-.9,2.38-1.6,3.59-2.1s2.33-.75,3.38-.75c1.46,0,2.66.51,3.61,1.52.95,1.02,1.42,2.67,1.42,4.96v10.98c0,.27-.1.5-.3.7-.2.2-.44.3-.71.3h-5.09c-.27,0-.51-.1-.71-.3s-.3-.43-.3-.7v-9.98c0-.86-.14-1.46-.41-1.8-.27-.33-.61-.5-1.02-.5-.48,0-.98.19-1.5.57-.53.38-.91.79-1.14,1.22v10.48c0,.27-.1.5-.31.7s-.44.3-.71.3h-5.09c-.27,0-.51-.1-.71-.3s-.31-.43-.31-.7v-9.98c0-.86-.14-1.46-.41-1.8-.27-.33-.61-.5-1.02-.5-.48,0-.98.19-1.5.57-.53.38-.91.79-1.14,1.22v10.48Z"/>
          <path d="M467.07,151.96c0,.27-.1.5-.3.7s-.44.3-.71.3h-5.09c-.27,0-.51-.1-.71-.3-.2-.2-.3-.43-.3-.7v-16.47c0-.27.1-.5.3-.7.2-.2.44-.3.71-.3h6.11v2c.98-.57,2-1.04,3.05-1.42,1.05-.38,2.07-.57,3.05-.57.92,0,1.75.22,2.49.65.75.43,1.34,1.17,1.78,2.2,1.19-.9,2.38-1.6,3.59-2.1,1.2-.5,2.33-.75,3.38-.75,1.46,0,2.66.51,3.61,1.52.95,1.02,1.42,2.67,1.42,4.96v10.98c0,.27-.1.5-.31.7-.2.2-.44.3-.71.3h-5.09c-.27,0-.51-.1-.71-.3s-.31-.43-.31-.7v-9.98c0-.86-.14-1.46-.41-1.8-.27-.33-.61-.5-1.02-.5-.48,0-.98.19-1.5.57-.53.38-.91.79-1.15,1.22v10.48c0,.27-.1.5-.31.7s-.44.3-.71.3h-5.09c-.27,0-.51-.1-.71-.3s-.31-.43-.31-.7v-9.98c0-.86-.14-1.46-.41-1.8-.27-.33-.61-.5-1.02-.5-.47,0-.97.19-1.5.57-.53.38-.91.79-1.15,1.22v10.48Z"/>
          <path d="M503.97,147.62c.54,0,1.11-.05,1.71-.15.59-.1,1.18-.22,1.76-.37.58-.15,1.11-.32,1.6-.52.49-.2.92-.4,1.3-.6l1.02,4.99c-.58.33-1.26.62-2.04.87-.78.25-1.57.46-2.37.62-.8.17-1.59.29-2.37.37-.78.08-1.46.12-2.04.12-1.22,0-2.38-.13-3.46-.4-1.09-.27-2.04-.71-2.88-1.32-.83-.62-1.49-1.43-1.96-2.44-.47-1.01-.71-2.29-.71-3.82v-5.64c0-1.33.51-2.47,1.53-3.42,1.02-.95,2.54-1.42,4.58-1.42h6.62c1.73,0,3.01.37,3.84,1.12.83.75,1.25,1.66,1.25,2.72,0,.83-.23,1.68-.69,2.54-.46.87-1.12,1.69-1.99,2.47-.87.78-1.93,1.48-3.18,2.1-1.26.62-2.68,1.09-4.28,1.42.27.27.65.46,1.15.57.49.12,1.03.17,1.6.17ZM500.66,140.48v3.09c.81-.37,1.57-.81,2.26-1.32.69-.52,1.13-1.11,1.3-1.77h-3.56Z"/>
          <path d="M533.75,151.96c0,.27-.1.5-.3.7s-.44.3-.71.3h-5.09c-.27,0-.51-.1-.71-.3-.2-.2-.3-.43-.3-.7v-10.23c0-.76-.19-1.3-.56-1.6s-.75-.45-1.12-.45c-.58,0-1.15.19-1.71.57-.56.38-.96.79-1.2,1.22v10.48c0,.27-.1.5-.31.7-.2.2-.44.3-.71.3h-5.09c-.27,0-.51-.1-.71-.3s-.31-.43-.31-.7v-16.47c0-.27.1-.5.31-.7s.44-.3.71-.3h6.11v2c1.02-.57,2.07-1.04,3.16-1.42,1.09-.38,2.14-.57,3.16-.57.75,0,1.45.12,2.11.37s1.23.67,1.71,1.27c.47.6.86,1.37,1.15,2.32.29.95.43,2.12.43,3.52v9.98Z"/>
          <path d="M552.48,140.88c-1.19-.5-2.43-.93-3.71-1.3-1.29-.37-2.48-.55-3.56-.55-.54,0-.98.06-1.3.17-.32.12-.48.31-.48.57,0,.33.29.6.87.8.58.2,1.3.39,2.16.57.87.18,1.81.41,2.83.67,1.02.27,1.96.62,2.83,1.07.87.45,1.59,1.04,2.16,1.77.58.73.87,1.66.87,2.79,0,1-.23,1.85-.69,2.54-.46.7-1.08,1.26-1.86,1.7-.78.43-1.7.75-2.75.95s-2.17.3-3.36.3c-1.73,0-3.5-.18-5.29-.55-1.8-.37-3.43-.85-4.89-1.45l1.83-4.34c.54.23,1.14.46,1.78.67.64.22,1.31.42,2.01.6.7.18,1.37.32,2.04.42.66.1,1.26.15,1.81.15.61,0,1.14-.07,1.58-.22.44-.15.66-.41.66-.77,0-.27-.29-.49-.87-.67-.58-.18-1.3-.37-2.16-.57-.87-.2-1.81-.44-2.83-.72-1.02-.28-1.96-.67-2.82-1.15-.87-.48-1.59-1.08-2.16-1.8-.58-.71-.87-1.62-.87-2.72,0-1.03.21-1.89.64-2.57.42-.68,1.01-1.23,1.76-1.65.75-.42,1.62-.71,2.62-.87,1-.17,2.06-.25,3.18-.25,1.73,0,3.38.16,4.96.47,1.58.32,2.96.66,4.15,1.02l-1.12,4.89Z"/>
          <path d="M568.41,147.62c.54,0,1.11-.05,1.71-.15.59-.1,1.18-.22,1.76-.37.58-.15,1.11-.32,1.6-.52.49-.2.92-.4,1.3-.6l1.02,4.99c-.58.33-1.26.62-2.04.87-.78.25-1.57.46-2.37.62-.8.17-1.59.29-2.37.37-.78.08-1.46.12-2.04.12-1.22,0-2.38-.13-3.46-.4-1.09-.27-2.04-.71-2.88-1.32-.83-.62-1.49-1.43-1.96-2.44-.47-1.01-.71-2.29-.71-3.82v-5.64c0-1.33.51-2.47,1.53-3.42,1.02-.95,2.54-1.42,4.58-1.42h6.62c1.73,0,3.01.37,3.84,1.12.83.75,1.25,1.66,1.25,2.72,0,.83-.23,1.68-.69,2.54-.46.87-1.12,1.69-1.99,2.47-.87.78-1.93,1.48-3.18,2.1-1.26.62-2.68,1.09-4.28,1.42.27.27.65.46,1.15.57.49.12,1.03.17,1.6.17ZM565.1,140.48v3.09c.81-.37,1.57-.81,2.26-1.32.69-.52,1.13-1.11,1.3-1.77h-3.56Z"/>
          <path d="M600.62,140.88c-1.19-.5-2.43-.93-3.71-1.3-1.29-.37-2.48-.55-3.56-.55-.54,0-.98.06-1.3.17-.32.12-.48.31-.48.57,0,.33.29.6.87.8.58.2,1.3.39,2.16.57.87.18,1.81.41,2.83.67,1.02.27,1.96.62,2.83,1.07.87.45,1.59,1.04,2.16,1.77.58.73.87,1.66.87,2.79,0,1-.23,1.85-.69,2.54-.46.7-1.08,1.26-1.86,1.7-.78.43-1.7.75-2.75.95s-2.17.3-3.36.3c-1.73,0-3.5-.18-5.29-.55-1.8-.37-3.43-.85-4.89-1.45l1.83-4.34c.54.23,1.14.46,1.78.67.64.22,1.31.42,2.01.6.7.18,1.37.32,2.04.42.66.1,1.26.15,1.81.15.61,0,1.14-.07,1.58-.22.44-.15.66-.41.66-.77,0-.27-.29-.49-.87-.67-.58-.18-1.3-.37-2.16-.57-.87-.2-1.81-.44-2.83-.72-1.02-.28-1.96-.67-2.82-1.15-.87-.48-1.59-1.08-2.16-1.8-.58-.71-.87-1.62-.87-2.72,0-1.03.21-1.89.64-2.57.42-.68,1.01-1.23,1.76-1.65.75-.42,1.62-.71,2.62-.87,1-.17,2.06-.25,3.18-.25,1.73,0,3.38.16,4.96.47,1.58.32,2.96.66,4.15,1.02l-1.12,4.89Z"/>
          <path d="M606.12,135.5c0-.27.1-.5.31-.7.2-.2.44-.3.71-.3h5.09c.27,0,.51.1.71.3s.31.43.31.7v9.98c0,.87.15,1.46.46,1.8.31.33.7.5,1.17.5.58,0,1.15-.19,1.73-.57.58-.38.98-.79,1.22-1.22v-10.48c0-.27.1-.5.31-.7s.44-.3.71-.3h5.09c.27,0,.51.1.71.3.2.2.31.43.31.7v16.47c0,.27-.1.5-.31.7-.2.2-.44.3-.71.3h-6.11v-2c-.54.57-1.35,1.04-2.42,1.42-1.07.38-2.2.57-3.38.57-.75,0-1.48-.1-2.19-.3-.71-.2-1.34-.53-1.88-1-.54-.47-.98-1.08-1.32-1.85-.34-.77-.51-1.71-.51-2.84v-11.48Z"/>
          <path d="M636.15,152.96v6.99c0,.27-.1.5-.31.7s-.44.3-.71.3h-5.09c-.27,0-.51-.1-.71-.3-.2-.2-.31-.43-.31-.7v-24.45c0-.27.1-.5.31-.7.2-.2.44-.3.71-.3h9.06c1.53,0,2.88.27,4.05.8,1.17.53,2.14,1.23,2.9,2.1.76.87,1.34,1.85,1.73,2.97.39,1.11.58,2.24.58,3.37s-.2,2.3-.58,3.39c-.39,1.1-.97,2.08-1.73,2.94-.76.87-1.73,1.56-2.9,2.1-1.17.53-2.52.8-4.05.8h-2.95ZM638.65,145.97c.88,0,1.53-.23,1.96-.7.42-.47.64-.98.64-1.55s-.21-1.08-.64-1.55c-.42-.47-1.08-.7-1.96-.7h-2.49v4.49h2.49Z"/>
          <path d="M662.36,147.62c.54,0,1.11-.05,1.71-.15.59-.1,1.18-.22,1.76-.37s1.11-.32,1.6-.52.92-.4,1.3-.6l1.02,4.99c-.58.33-1.26.62-2.04.87-.78.25-1.57.46-2.37.62-.8.17-1.59.29-2.37.37-.78.08-1.46.12-2.04.12-1.22,0-2.38-.13-3.46-.4-1.09-.27-2.04-.71-2.88-1.32-.83-.62-1.48-1.43-1.96-2.44-.48-1.01-.71-2.29-.71-3.82v-5.64c0-1.33.51-2.47,1.53-3.42,1.02-.95,2.54-1.42,4.58-1.42h6.62c1.73,0,3.01.37,3.84,1.12s1.25,1.66,1.25,2.72c0,.83-.23,1.68-.69,2.54-.46.87-1.12,1.69-1.98,2.47-.87.78-1.93,1.48-3.18,2.1-1.26.62-2.68,1.09-4.28,1.42.27.27.65.46,1.15.57.49.12,1.03.17,1.6.17ZM659.06,140.48v3.09c.81-.37,1.57-.81,2.26-1.32.7-.52,1.13-1.11,1.3-1.77h-3.56Z"/>
          <path d="M691.63,141.48c0,.27-.1.5-.31.7s-.44.3-.71.3h-6.11v-1.15c0-.5-.15-.85-.46-1.05-.31-.2-.66-.3-1.07-.3-.81,0-1.66.27-2.54.8v11.18c0,.27-.1.5-.3.7s-.44.3-.71.3h-5.09c-.27,0-.51-.1-.71-.3-.2-.2-.3-.43-.3-.7v-16.47c0-.27.1-.5.3-.7.2-.2.44-.3.71-.3h6.11v2c.98-.63,2.04-1.12,3.18-1.47,1.14-.35,2.21-.52,3.23-.52,1.32,0,2.45.32,3.38.95.93.63,1.4,1.65,1.4,3.04v2.99Z"/>
        </g>
        <g class="st2">
          <path d="M181.54,193.88c0,.27-.1.5-.31.7-.2.2-.44.3-.71.3h-5.09c-.27,0-.51-.1-.71-.3-.2-.2-.31-.43-.31-.7v-9.98c0-.87-.2-1.46-.59-1.8-.39-.33-.84-.5-1.35-.5-.44,0-.9.09-1.37.27-.48.18-.9.41-1.27.67v11.33c0,.27-.1.5-.31.7-.2.2-.44.3-.71.3h-5.09c-.27,0-.51-.1-.71-.3-.2-.2-.31-.43-.31-.7v-24.45c0-.27.1-.5.31-.7.2-.2.44-.3.71-.3h5.09c.27,0,.51.1.71.3.2.2.31.43.31.7v8.03c.78-.3,1.59-.54,2.42-.72.83-.18,1.64-.27,2.42-.27.88,0,1.73.13,2.54.4s1.53.71,2.16,1.32c.63.62,1.14,1.43,1.53,2.44.39,1.02.6,2.27.64,3.77v9.48Z"/>
          <path d="M185.1,177.42c0-.27.1-.5.31-.7.2-.2.44-.3.71-.3h5.09c.27,0,.51.1.71.3.2.2.31.43.31.7v9.98c0,.87.15,1.46.46,1.8.31.33.7.5,1.17.5.58,0,1.15-.19,1.73-.57.58-.38.98-.79,1.22-1.22v-10.48c0-.27.1-.5.31-.7.2-.2.44-.3.71-.3h5.09c.27,0,.51.1.71.3.2.2.31.43.31.7v16.47c0,.27-.1.5-.31.7-.2.2-.44.3-.71.3h-6.11v-2c-.54.57-1.35,1.04-2.42,1.42s-2.2.57-3.38.57c-.75,0-1.48-.1-2.19-.3-.71-.2-1.34-.53-1.88-1-.54-.46-.98-1.08-1.32-1.85-.34-.77-.51-1.71-.51-2.84v-11.48Z"/>
          <path d="M215.13,193.88c0,.27-.1.5-.31.7-.2.2-.44.3-.71.3h-5.09c-.27,0-.51-.1-.71-.3-.2-.2-.31-.43-.31-.7v-16.47c0-.27.1-.5.31-.7.2-.2.44-.3.71-.3h6.11v2c.98-.57,2-1.04,3.05-1.42,1.05-.38,2.07-.57,3.05-.57.92,0,1.75.22,2.49.65.75.43,1.34,1.17,1.78,2.2,1.19-.9,2.38-1.6,3.59-2.1,1.2-.5,2.33-.75,3.38-.75,1.46,0,2.66.51,3.61,1.52.95,1.01,1.42,2.67,1.42,4.96v10.98c0,.27-.1.5-.31.7-.2.2-.44.3-.71.3h-5.09c-.27,0-.51-.1-.71-.3-.2-.2-.31-.43-.31-.7v-9.98c0-.87-.14-1.46-.41-1.8-.27-.33-.61-.5-1.02-.5-.48,0-.98.19-1.5.57-.53.38-.91.79-1.15,1.22v10.48c0,.27-.1.5-.31.7-.2.2-.44.3-.71.3h-5.09c-.27,0-.51-.1-.71-.3-.2-.2-.31-.43-.31-.7v-9.98c0-.87-.14-1.46-.41-1.8-.27-.33-.61-.5-1.02-.5-.48,0-.98.19-1.5.57-.53.38-.91.79-1.15,1.22v10.48Z"/>
          <path d="M241.09,188.89c0-1.7.81-3.03,2.44-3.99,1.63-.96,4.34-1.46,8.14-1.5-.14-.6-.5-1.02-1.09-1.27-.59-.25-1.3-.38-2.11-.38-.54,0-1.12.05-1.73.15s-1.2.22-1.76.37c-.56.15-1.09.32-1.6.52-.51.2-.93.4-1.27.6l-1.02-4.99c.58-.33,1.25-.62,2.04-.87.78-.25,1.57-.46,2.37-.62.8-.17,1.59-.29,2.37-.38.78-.08,1.46-.12,2.04-.12,1.22,0,2.37.13,3.46.4,1.09.27,2.04.71,2.88,1.32.83.62,1.48,1.43,1.96,2.45.47,1.01.71,2.29.71,3.82v9.48c0,.27-.1.5-.31.7-.2.2-.44.3-.71.3h-12.72c-1.12,0-2.08-.39-2.88-1.17-.8-.78-1.2-1.72-1.2-2.82v-2ZM251.78,188.89v-2.35c-.81.17-1.57.43-2.26.8-.7.37-1.13.88-1.3,1.55h3.56Z"/>
          <path d="M281.81,193.88c0,.27-.1.5-.31.7-.2.2-.44.3-.71.3h-5.09c-.27,0-.51-.1-.71-.3-.2-.2-.31-.43-.31-.7v-10.23c0-.76-.19-1.3-.56-1.6-.37-.3-.75-.45-1.12-.45-.58,0-1.15.19-1.71.57-.56.38-.96.79-1.2,1.22v10.48c0,.27-.1.5-.31.7-.2.2-.44.3-.71.3h-5.09c-.27,0-.51-.1-.71-.3-.2-.2-.31-.43-.31-.7v-16.47c0-.27.1-.5.31-.7.2-.2.44-.3.71-.3h6.11v2c1.02-.57,2.07-1.04,3.16-1.42,1.09-.38,2.14-.57,3.16-.57.75,0,1.45.12,2.11.37s1.23.67,1.71,1.27c.47.6.86,1.37,1.15,2.32.29.95.43,2.12.43,3.52v9.98Z"/>
          <path d="M306.64,182.8c-1.19-.5-2.43-.93-3.72-1.3s-2.48-.55-3.56-.55c-.54,0-.98.06-1.3.17-.32.12-.48.31-.48.57,0,.33.29.6.87.8.58.2,1.3.39,2.16.57.87.18,1.81.41,2.83.67,1.02.27,1.96.62,2.82,1.07.87.45,1.59,1.04,2.16,1.77.58.73.87,1.66.87,2.79,0,1-.23,1.85-.69,2.54-.46.7-1.08,1.26-1.86,1.7-.78.43-1.7.75-2.75.95-1.05.2-2.17.3-3.36.3-1.73,0-3.5-.18-5.29-.55-1.8-.37-3.43-.85-4.89-1.45l1.83-4.34c.54.23,1.14.46,1.78.67.64.22,1.31.42,2.01.6.7.18,1.37.32,2.04.42.66.1,1.26.15,1.81.15.61,0,1.14-.07,1.58-.22.44-.15.66-.41.66-.77,0-.27-.29-.49-.87-.67-.58-.18-1.3-.37-2.16-.57-.87-.2-1.81-.44-2.83-.72-1.02-.28-1.96-.67-2.82-1.15-.87-.48-1.59-1.08-2.16-1.8-.58-.71-.87-1.62-.87-2.72,0-1.03.21-1.89.64-2.57.42-.68,1.01-1.23,1.76-1.65.75-.42,1.62-.71,2.62-.87,1-.17,2.06-.25,3.18-.25,1.73,0,3.38.16,4.96.47,1.58.32,2.96.66,4.15,1.02l-1.12,4.89Z"/>
          <path d="M324.87,194.08c-1.53.5-3,.75-4.43.75-1.19,0-2.29-.18-3.31-.55-1.02-.37-1.89-.91-2.62-1.62-.73-.71-1.31-1.62-1.73-2.72-.42-1.1-.64-2.38-.64-3.84v-16.67c0-.27.1-.5.31-.7.2-.2.44-.3.71-.3h5.09c.27,0,.51.1.71.3.2.2.31.43.31.7v2.5h4.07c.27,0,.51.1.71.3.2.2.31.43.31.7v3.99c0,.27-.1.5-.31.7-.2.2-.44.3-.71.3h-4.07v8.18c0,.96.26,1.72.79,2.27.53.55,1.26.82,2.21.82h.51c.17,0,.36-.03.56-.1l1.53,4.99Z"/>
          <path d="M345.73,183.4c0,.27-.1.5-.31.7s-.44.3-.71.3h-6.11v-1.15c0-.5-.15-.85-.46-1.05s-.66-.3-1.07-.3c-.81,0-1.66.27-2.54.8v11.18c0,.27-.1.5-.31.7-.2.2-.44.3-.71.3h-5.09c-.27,0-.51-.1-.71-.3-.2-.2-.31-.43-.31-.7v-16.47c0-.27.1-.5.31-.7.2-.2.44-.3.71-.3h6.11v2c.98-.63,2.04-1.12,3.18-1.47,1.14-.35,2.21-.52,3.23-.52,1.32,0,2.45.32,3.38.95.93.63,1.4,1.65,1.4,3.04v2.99Z"/>
          <path d="M359.22,189.54c.54,0,1.11-.05,1.71-.15.59-.1,1.18-.22,1.76-.37.58-.15,1.11-.32,1.6-.52.49-.2.92-.4,1.3-.6l1.02,4.99c-.58.33-1.26.62-2.04.87-.78.25-1.57.46-2.37.62-.8.17-1.59.29-2.37.38-.78.08-1.46.12-2.04.12-1.22,0-2.38-.13-3.46-.4-1.09-.27-2.04-.71-2.88-1.32-.83-.62-1.48-1.43-1.96-2.45-.48-1.01-.71-2.29-.71-3.82v-5.64c0-1.33.51-2.47,1.53-3.42s2.54-1.42,4.58-1.42h6.62c1.73,0,3.01.37,3.84,1.12.83.75,1.25,1.66,1.25,2.72,0,.83-.23,1.68-.69,2.54s-1.12,1.69-1.98,2.47c-.87.78-1.93,1.48-3.18,2.1-1.26.62-2.68,1.09-4.28,1.42.27.27.65.46,1.15.57.49.12,1.03.18,1.6.18ZM355.91,182.4v3.09c.81-.37,1.57-.81,2.27-1.32.69-.51,1.13-1.11,1.3-1.77h-3.56Z"/>
          <path d="M389,193.88c0,.27-.1.5-.31.7-.2.2-.44.3-.71.3h-5.09c-.27,0-.51-.1-.71-.3-.2-.2-.31-.43-.31-.7v-10.23c0-.76-.19-1.3-.56-1.6-.37-.3-.75-.45-1.12-.45-.58,0-1.15.19-1.71.57-.56.38-.96.79-1.2,1.22v10.48c0,.27-.1.5-.31.7-.2.2-.44.3-.71.3h-5.09c-.27,0-.51-.1-.71-.3-.2-.2-.31-.43-.31-.7v-16.47c0-.27.1-.5.31-.7.2-.2.44-.3.71-.3h6.11v2c1.02-.57,2.07-1.04,3.16-1.42,1.09-.38,2.14-.57,3.16-.57.75,0,1.45.12,2.11.37s1.23.67,1.71,1.27c.47.6.86,1.37,1.15,2.32.29.95.43,2.12.43,3.52v9.98Z"/>
          <path d="M410.37,194.88c0,1.53-.24,2.8-.71,3.82-.48,1.01-1.13,1.83-1.96,2.45-.83.62-1.79,1.06-2.88,1.32-1.09.27-2.24.4-3.46.4s-2.57-.17-4.15-.5c-1.58-.33-2.96-.83-4.15-1.5l1.53-3.99c.64.2,1.36.37,2.14.52.78.15,1.56.22,2.34.22,1.12,0,2.09-.2,2.93-.6.83-.4,1.25-1.12,1.25-2.15h-6.11c-1.42,0-2.63-.48-3.61-1.45-.98-.96-1.48-2.15-1.48-3.54v-4.99c0-1.46.28-2.73.84-3.79s1.3-1.95,2.21-2.64,1.98-1.21,3.18-1.55c1.2-.33,2.45-.5,3.74-.5,1.49,0,2.96.21,4.4.62s2.76,1.04,3.95,1.87v15.97ZM403.25,187.89v-4.24c-.58-.17-1.09-.25-1.53-.25-.68,0-1.27.13-1.78.4-.51.27-.76.63-.76,1.1v2.99h4.07Z"/>
          <path d="M427.17,194.08c-1.53.5-3,.75-4.43.75-1.19,0-2.29-.18-3.31-.55-1.02-.37-1.89-.91-2.62-1.62-.73-.71-1.31-1.62-1.73-2.72s-.64-2.38-.64-3.84v-16.67c0-.27.1-.5.31-.7.2-.2.44-.3.71-.3h5.09c.27,0,.51.1.71.3.2.2.31.43.31.7v2.5h4.07c.27,0,.51.1.71.3.2.2.31.43.31.7v3.99c0,.27-.1.5-.31.7-.2.2-.44.3-.71.3h-4.07v8.18c0,.96.26,1.72.79,2.27.53.55,1.26.82,2.21.82h.51c.17,0,.36-.03.56-.1l1.53,4.99Z"/>
          <path d="M448.54,193.88c0,.27-.1.5-.3.7-.2.2-.44.3-.71.3h-5.09c-.27,0-.51-.1-.71-.3-.2-.2-.3-.43-.3-.7v-9.98c0-.87-.2-1.46-.59-1.8-.39-.33-.84-.5-1.35-.5-.44,0-.9.09-1.37.27-.48.18-.9.41-1.27.67v11.33c0,.27-.1.5-.31.7-.2.2-.44.3-.71.3h-5.09c-.27,0-.51-.1-.71-.3-.2-.2-.31-.43-.31-.7v-24.45c0-.27.1-.5.31-.7.2-.2.44-.3.71-.3h5.09c.27,0,.51.1.71.3.2.2.31.43.31.7v8.03c.78-.3,1.59-.54,2.42-.72.83-.18,1.64-.27,2.42-.27.88,0,1.73.13,2.54.4s1.54.71,2.16,1.32c.63.62,1.14,1.43,1.53,2.44.39,1.02.6,2.27.64,3.77v9.48Z"/>
          <path d="M455.16,194.88c-.27,0-.51-.1-.71-.3-.2-.2-.3-.43-.3-.7v-4.99c0-.27.1-.5.3-.7.2-.2.44-.3.71-.3h5.09c.27,0,.51.1.71.3.2.2.3.43.3.7v4.99c0,.27-.1.5-.3.7-.2.2-.44.3-.71.3h-5.09Z"/>
        </g>
      </g>
    </g>
  </g>
</svg>