<?xml version="1.0" encoding="UTF-8"?>
<svg id="Layer_1" xmlns="http://www.w3.org/2000/svg" version="1.1" viewBox="0 0 778.28 233.66">
  <!-- Generator: Adobe Illustrator 29.7.1, SVG Export Plug-In . SVG Version: 2.1.1 Build 8)  -->
  <defs>
    <style>
      .st0 {
        fill: #9b87c1;
      }
    </style>
  </defs>
  <g>
    <path d="M676.41,4.46c.8.78,1.2,1.88,1.14,2.96l5.46,94.41,13.76-3.04c.52-.12,1.04-.11,1.54-.02.27,0,.54-.05.81,0,.27,0,.54-.05.81,0,.27,0,.54-.05.81,0,.27,0,.54-.05.81,0,.27,0,.55-.05.81,0,.27,0,.54-.05.81,0,.27,0,.54-.05.81,0,.27,0,.54-.05.81,0,.27,0,.54-.05.81,0,.27,0,.54-.05.81,0,.27,0,.54-.05.81,0,.27,0,.54-.05.81,0,.27,0,.54-.05.81,0,.27,0,.54-.05.81,0,.27,0,.54-.05.81,0,.27,0,.55-.05.81,0,.27,0,.55-.05.81,0,.27,0,.54-.05.81,0,.27,0,.55-.05.81,0,.27,0,.54-.05.81,0,1.73-.05,3.33.95,3.86,2.62l7.73,24.2,17.4-9.34c.69-.37,1.46-.44,2.23-.37.27-.03.53-.02.81,0,.27-.03.53-.02.81,0,.27-.03.53-.02.81,0,.27-.03.53-.02.81,0,.27-.03.53-.02.81,0,.27-.03.53-.02.81,0,.27-.03.53-.02.81,0,.27-.03.53-.02.81,0,.27-.03.53-.02.81,0,.27-.03.53-.02.81,0,.28-.03.53-.02.81,0,.28-.03.53-.02.81,0,.27-.03.53-.02.81,0,.28-.03.53-.02.81,0,.27-.03.53-.02.81,0,.27-.03.53-.02.81,0,.28-.03.53-.02.81,0,.27-.03.53-.02.81,0,.27-.03.53-.02.81,0,.27-.03.53-.02.81,0,.73-.09,1.47-.04,2.16.29,1.14.54,1.94,1.58,2.15,2.8l7.6,43.55,59.56,1.08c1.85.03,3.42,1.33,3.77,3.11.05.24.07.48.07.71,0,1.52-.93,2.93-2.41,3.53l-83.73,34.15c-.63.26-1.29.29-1.95.21-.27.03-.53.03-.81,0-.27.03-.53.03-.81,0-.27.03-.53.03-.81,0-.27.03-.53.03-.81,0-.27.03-.53.03-.81,0-.27.03-.53.03-.81,0-.27.03-.53.03-.81,0-.27.03-.53.03-.81,0-.27.03-.53.03-.81,0-.27.03-.53.03-.81,0-.28.03-.53.03-.81,0-.27.03-.53.03-.81,0-.27.03-.53.03-.81,0-.27.03-.53.03-.81,0-.27.03-.53.03-.81,0-.27.03-.53.03-.81,0-.27.03-.53.03-.81,0-.27.03-.53.03-.81,0-.27.03-.53.03-.81,0-.27.03-.53.03-.81,0-.69.06-1.39,0-2.03-.29-1-.46-1.75-1.32-2.07-2.36l-5.09-16.61-5.33,4.7c-.91.8-2.16,1.14-3.36.91-.02,0-.04-.02-.06-.03-.25,0-.49.08-.74.03-.02,0-.04-.02-.06-.03-.25,0-.49.08-.74.03-.02,0-.04-.02-.06-.03-.25,0-.49.08-.74.03-.02,0-.04-.02-.06-.03-.25,0-.49.08-.74.03-.02,0-.04-.02-.06-.03-.25,0-.49.08-.74.03-.02,0-.04-.02-.06-.03-.25,0-.49.08-.74.03-.02,0-.04-.02-.06-.03-.25,0-.49.08-.74.03-.02,0-.04-.02-.06-.03-.25,0-.49.08-.74.03-.02,0-.04-.02-.06-.03-.25,0-.49.08-.74.03-.02,0-.04-.02-.06-.03-.25,0-.49.08-.74.03-.02,0-.04-.02-.06-.03-.25,0-.49.08-.74.03-.02,0-.04-.02-.06-.03-.25,0-.49.08-.74.03-.02,0-.04-.02-.06-.03-.25,0-.49.08-.74.03-.02,0-.04-.02-.06-.03-.25,0-.49.08-.74.03-.02,0-.04-.02-.06-.03-.25,0-.49.08-.74.03-.02,0-.04-.02-.06-.03-.25,0-.49.08-.74.03-.02,0-.04-.02-.06-.03-.25,0-.49.08-.74.03-.02,0-.04-.02-.06-.03-.25,0-.49.08-.74.03-.02,0-.04-.02-.06-.03-.25,0-.49.08-.74.03-.02,0-.04-.02-.06-.03-.25,0-.49.08-.74.03-.02,0-.04-.02-.06-.03-.25,0-.49.08-.74.03-1.21-.23-2.23-1-2.77-2.09l-14.22-28.64-3.55,2.01-8.88,65.31c-.14,1.06-.72,2.01-1.6,2.63-.88.62-1.99.85-3.05.64h-.02c-.26,0-.52.05-.79,0h-.02c-.26,0-.52.05-.79,0h-.02c-.26,0-.52.05-.79,0h-.02c-.26,0-.52.05-.79,0h-.02c-.26,0-.52.05-.79,0h-.02c-.26,0-.52.05-.79,0h-.02c-.26,0-.53.05-.79,0h-.02c-.26,0-.52.05-.79,0h-.02c-.26,0-.52.05-.79,0h-.02c-.26,0-.52.05-.79,0h-.02c-.26,0-.52.05-.79,0h-.02c-.26,0-.52.05-.79,0h-.02c-.26,0-.52.05-.79,0h-.02c-.26,0-.52.05-.79,0h-.02c-.26,0-.52.05-.79,0h-.02c-.26,0-.52.05-.79,0h-.02c-.26,0-.52.05-.79,0h-.02c-.26,0-.52.05-.79,0h-.02c-.26,0-.53.05-.79,0h-.02c-.26,0-.52.05-.79,0h-.02c-.26,0-.53.05-.79,0L31.41,191.67c-1.74-.34-3.02-1.79-3.12-3.53L2.52,24.47c-.09-2.02,1.5-3.89,3.64-4.04L656.44,3.36c.09,0,.17.04.26.04l.55-.04c.09,0,.17.04.26.04l.55-.04c.09,0,.17.04.26.04l.55-.04c.09,0,.17.04.26.04l.55-.04c.09,0,.17.04.26.04l.55-.04c.09,0,.17.04.26.04l.55-.04c.09,0,.17.04.26.04l.55-.04c.09,0,.17.04.26.04l.55-.04c.09,0,.17.04.26.04l.55-.04c.09,0,.17.04.26.04l.55-.04c.09,0,.17.04.26.04l.55-.04c.09,0,.17.04.26.04l.55-.04c.09,0,.17.04.26.04l.55-.04c.09,0,.17.04.26.04l.55-.04c.09,0,.17.04.26.04l.55-.04c.09,0,.17.04.26.04l.55-.04c.09,0,.17.04.26.04l.55-.04c.09,0,.17.04.26.04l.55-.04c.09,0,.17.04.26.04l.55-.04c.09,0,.17.04.26.04l.55-.04c.09,0,.17.04.26.04l.55-.04c1.13-.08,2.23.33,3.03,1.11h-.07Z"/>
    <path class="st0" d="M657.68,110.24c-.08,1.2.43,2.37,1.36,3.16.94.78,2.2,1.09,3.4.82l32.53-7.19,10.56,33.06c.35,1.1,1.18,1.98,2.27,2.41,1.09.43,2.31.36,3.34-.19l31.24-16.77,7.22,41.37c.31,1.81,1.9,3.15,3.78,3.18l44.15.8-62.51,25.49-9.22-30.08c-.39-1.26-1.4-2.23-2.69-2.59s-2.67-.04-3.67.84l-19.4,17.08-17.5-35.26c-.47-.96-1.33-1.68-2.37-1.99-1.04-.31-2.16-.19-3.1.35l-22.09,12.52c-1.05.6-1.76,1.64-1.92,2.83l-8.59,63.1L35.92,184.76,10.55,27.81,652.52,11.29l5.16,98.95Z"/>
    <path d="M659.46,4.46c-.8-.78-1.9-1.18-3.03-1.11L6.16,20.43c-2.14.14-3.72,2.01-3.64,4.04l25.77,163.67c.1,1.74,1.38,3.19,3.12,3.53l615.62,39.84c1.07.21,2.17-.02,3.05-.64.89-.62,1.47-1.57,1.6-2.63l8.88-65.31,16.78-9.51,17.94,36.14c.53,1.08,1.56,1.85,2.77,2.09,1.2.23,2.45-.11,3.36-.91l18.67-16.45,8.69,28.36c.32,1.04,1.07,1.89,2.07,2.36s2.15.49,3.18.07l83.73-34.15c1.48-.6,2.41-2.01,2.41-3.53,0-.24-.02-.47-.07-.71-.35-1.78-1.92-3.08-3.77-3.11l-59.56-1.08-7.6-43.55c-.21-1.22-1.01-2.26-2.15-2.8s-2.47-.5-3.58.09l-31.87,17.11-10.21-31.96c-.61-1.91-2.6-3.03-4.59-2.59l-30.95,6.84-5.21-98.21c.06-1.08-.34-2.18-1.14-2.96h0ZM10.55,27.81L652.52,11.29l5.16,98.95c-.08,1.2.43,2.37,1.36,3.16.94.78,2.2,1.09,3.4.82l32.53-7.19,10.56,33.06c.35,1.1,1.18,1.98,2.27,2.41,1.09.43,2.31.36,3.34-.19l31.24-16.77,7.22,41.37c.31,1.81,1.9,3.15,3.78,3.18l44.15.8-62.51,25.49-9.22-30.08c-.39-1.26-1.4-2.23-2.69-2.59s-2.67-.04-3.67.84l-19.4,17.08-17.5-35.26c-.47-.96-1.33-1.68-2.37-1.99-1.04-.31-2.16-.19-3.1.35l-22.09,12.52c-1.05.6-1.76,1.64-1.92,2.83l-8.59,63.1L35.92,184.76,10.55,27.81Z"/>
  </g>
  <g>
    <path d="M567.8,72.71h-15.55c-1.83,0-3.14-.34-3.93-1.02-.78-.68-1.17-1.55-1.17-2.62,0-.8.2-1.7.61-2.7l2.8-6.94c.37-.93.98-1.7,1.81-2.3s1.81-.9,2.93-.9h8.67c.27,0,.51.1.71.3s.31.43.31.7v9.98h2.8v5.49h.01ZM559.39,67.22v-5.49h-3.77l-2.19,5.49h5.96Z"/>
    <path d="M566.32,68.72c0-.43.14-.79.43-1.07s.65-.42,1.1-.42h4.84v-9.98c0-.27.1-.5.31-.7.2-.2.44-.3.71-.3h3.57c.27,0,.51.1.71.3s.31.43.31.7v11.48c0,1.1-.4,2.04-1.2,2.82s-1.76,1.17-2.88,1.17h-6.37c-.44,0-.81-.14-1.1-.42s-.43-.64-.43-1.07v-2.5h0ZM568.92,52.1c-.54-.43-.82-.96-.82-1.6s.27-1.16.82-1.6,1.21-.65,1.99-.65,1.44.22,1.99.65.82.96.82,1.6-.27,1.17-.82,1.6c-.54.43-1.21.65-1.99.65s-1.44-.22-1.99-.65ZM575.55,52.1c-.54-.43-.82-.96-.82-1.6s.27-1.16.82-1.6c.54-.43,1.21-.65,1.99-.65s1.44.22,1.99.65c.54.43.82.96.82,1.6s-.27,1.17-.82,1.6c-.54.43-1.21.65-1.99.65s-1.45-.22-1.99-.65Z"/>
    <path d="M588.45,45.26c.27,0,.51.1.71.3s.31.43.31.7v20.96h2.8v5.49h-7.39c-.27,0-.51-.1-.71-.3-.2-.2-.31-.43-.31-.7v-25.45c0-.27.1-.5.31-.7s.44-.3.71-.3h3.57Z"/>
    <path d="M592.32,72.71c-.44,0-.81-.14-1.1-.42s-.43-.64-.43-1.07v-2.5c0-.43.15-.79.43-1.07.29-.28.66-.42,1.1-.42h3.67c-.58-1.1-.87-2.28-.87-3.54,0-.96.19-1.9.56-2.79.37-.9.92-1.69,1.63-2.37s1.58-1.23,2.6-1.65,2.17-.62,3.47-.62h5c1.12,0,2.08.39,2.88,1.17s1.2,1.72,1.2,2.82v6.99h2.8v5.49h-22.94v-.02ZM606.85,67.22v-5.49h-3.16c-.82,0-1.51.27-2.09.8s-.87,1.18-.87,1.95.27,1.37.82,1.92c.54.55,1.26.82,2.14.82h3.16ZM601.8,52.1c-.54-.43-.82-.96-.82-1.6s.27-1.16.82-1.6c.54-.43,1.21-.65,1.99-.65s1.44.22,1.99.65c.54.43.82.96.82,1.6s-.27,1.17-.82,1.6c-.54.43-1.21.65-1.99.65s-1.45-.22-1.99-.65Z"/>
    <path d="M613.73,68.72c0-.43.14-.79.43-1.07s.65-.42,1.1-.42h2.8v-9.98c0-.27.1-.5.31-.7.2-.2.44-.3.71-.3h3.57c.27,0,.51.1.71.3s.31.43.31.7v4.89l5.1-4.39c.54-.46,1.12-.83,1.73-1.1.61-.27,1.31-.4,2.09-.4h7.39c1.12,0,2.08.39,2.88,1.17s1.2,1.72,1.2,2.82v8.48c0,1.1-.4,2.04-1.2,2.82s-1.76,1.17-2.88,1.17h-24.73c-.44,0-.81-.14-1.1-.42s-.43-.64-.43-1.07v-2.5h0ZM624.79,67.22h13.66v-5.49h-6.17l-7.5,5.49h.01Z"/>
    <path d="M208.13,117.22c-.78.76-1.71,1.14-2.8,1.14h-6.45c-1.22,0-2.38-.23-3.47-.68s-2.04-1.08-2.85-1.87c-.81-.79-1.45-1.72-1.91-2.79s-.69-2.2-.69-3.4v-6.31c0-.26.1-.49.3-.68s.43-.29.69-.29h2.48c.26,0,.5.1.69.29.2.19.3.42.3.68v6.31c0,1.2.44,2.23,1.31,3.08.88.86,1.93,1.29,3.15,1.29h5.95v-15.54c0-.26.1-.49.3-.68s.43-.29.69-.29h2.48c.26,0,.5.1.69.29.2.19.3.42.3.68v16.03c0,1.07-.39,1.98-1.17,2.74h.01ZM197.68,90.34c.53-.42,1.17-.63,1.94-.63s1.41.21,1.94.63.79.94.79,1.55-.26,1.13-.79,1.55-1.17.63-1.94.63-1.41-.21-1.94-.63-.79-.94-.79-1.55.26-1.13.79-1.55Z"/>
    <path d="M219.91,87.09c.2.19.3.42.3.68v24.77c0,.26-.1.49-.3.68s-.43.29-.69.29h-2.48c-.26,0-.5-.1-.69-.29-.2-.19-.3-.42-.3-.68v-24.77c0-.26.1-.49.3-.68s.43-.29.69-.29h2.48c.26,0,.5.1.69.29Z"/>
    <path d="M226.96,97.77c.2-.19.43-.29.69-.29h2.48c.26,0,.5.1.69.29.2.19.3.42.3.68v15.06c0,1.46-.17,2.7-.52,3.72-.35,1.02-.83,1.86-1.46,2.53-.63.66-1.37,1.15-2.23,1.46s-1.8.46-2.83.46c-1.16,0-2.37-.17-3.65-.51-1.27-.34-2.59-.83-3.94-1.48l1.44-3.45c.76.36,1.63.68,2.6.97.98.29,1.93.44,2.85.44.46,0,.89-.06,1.29-.19.4-.13.74-.35,1.04-.66.3-.31.53-.73.69-1.26s.25-1.21.25-2.02v-15.06c0-.26.1-.49.3-.68h0Z"/>
    <path d="M247.01,109.14v-4.86c0-.78-.14-1.44-.42-1.99-.28-.55-.65-1-1.12-1.33s-1.01-.58-1.64-.73-1.29-.22-1.98-.22c-.56,0-1.14.05-1.74.15s-1.16.24-1.69.44l-1.09-4.08c1.03-.32,2-.57,2.93-.73s1.84-.24,2.73-.24c1.22,0,2.35.17,3.37.51,1.03.34,1.92.87,2.68,1.58s1.36,1.62,1.79,2.72.65,2.41.65,3.93v4.86h3.23v4.37h-18.36v-4.37h10.67,0Z"/>
    <path d="M253.63,109.55c.28-.28.64-.41,1.07-.41h12.5c-.33-.78-.67-1.68-1.02-2.7-.35-1.02-.76-1.99-1.24-2.91-.48-.92-1.03-1.7-1.66-2.33-.63-.63-1.41-.95-2.33-.95-.56,0-1.11.11-1.64.34s-1.08.52-1.64.87l-1.49-3.01c.89-.71,1.86-1.29,2.9-1.75s2.08-.68,3.1-.68,1.85.21,2.58.63c.73.42,1.36.98,1.91,1.68.55.7,1.03,1.5,1.46,2.4.43.91.85,1.85,1.27,2.82.41.97.84,1.94,1.29,2.92.45.97.97,1.86,1.56,2.67h2.28v4.37h-19.85c-.43,0-.79-.14-1.07-.41s-.42-.62-.42-1.04v-1.46c0-.42.14-.77.42-1.04h.02ZM263.93,117.05c.53-.42,1.17-.63,1.94-.63s1.41.21,1.94.63.79.94.79,1.55-.26,1.13-.79,1.55-1.17.63-1.94.63-1.41-.21-1.94-.63-.79-.94-.79-1.55.26-1.13.79-1.55Z"/>
    <path d="M277.77,87.77c0-.26.1-.49.3-.68.2-.19.43-.29.69-.29h2.48c.26,0,.5.1.69.29.2.19.3.42.3.68v21.86c0,1.07-.39,1.98-1.17,2.74s-1.71,1.14-2.8,1.14h-3.72c-.43,0-.79-.14-1.07-.41s-.42-.62-.42-1.04v-1.46c0-.42.14-.77.42-1.04.28-.28.64-.41,1.07-.41h3.23v-21.37h0Z"/>
    <path d="M292.86,87.09c.2.19.3.42.3.68v24.77c0,.26-.1.49-.3.68-.2.19-.43.29-.69.29h-2.48c-.26,0-.5-.1-.69-.29-.2-.19-.3-.42-.3-.68v-24.77c0-.26.1-.49.3-.68.2-.19.43-.29.69-.29h2.48c.26,0,.5.1.69.29Z"/>
    <path d="M306.33,101.24c.51-.86,1.17-1.56,1.98-2.11s1.75-.96,2.8-1.24c1.06-.27,2.13-.41,3.23-.41,1.19,0,2.35.16,3.47.49s2.17.81,3.13,1.46v9.71h3.23v4.37h-14.14v5.83h-4.47v-15.06c0-1.17.26-2.18.77-3.04ZM316.48,102.39c-1.09-.36-2-.53-2.73-.53-.99,0-1.86.23-2.61.68-.74.45-1.12,1.12-1.12,1.99v4.61h6.45v-6.75h0Z"/>
    <path d="M323.1,113.09c-.28-.28-.42-.62-.42-1.04v-1.46c0-.42.14-.77.42-1.04.28-.28.64-.41,1.07-.41h3.23v-21.37c0-.26.1-.49.3-.68.2-.19.43-.29.69-.29h2.48c.26,0,.5.1.69.29.2.19.3.42.3.68v16.03l6.1-4.86c.53-.42,1.09-.77,1.69-1.04.6-.27,1.27-.41,2.03-.41h6.05c1.09,0,2.03.38,2.8,1.14.78.76,1.17,1.68,1.17,2.74v7.77h3.23v4.37h-30.77c-.43,0-.79-.14-1.07-.41h0ZM347.24,109.14v-7.29h-6.3l-9.18,7.29h15.48,0Z"/>
    <path d="M353.87,109.55c.28-.28.64-.41,1.07-.41h12.5c-.33-.78-.67-1.68-1.02-2.7-.35-1.02-.76-1.99-1.24-2.91-.48-.92-1.03-1.7-1.66-2.33-.63-.63-1.41-.95-2.33-.95-.56,0-1.11.11-1.64.34s-1.08.52-1.64.87l-1.49-3.01c.89-.71,1.86-1.29,2.9-1.75s2.08-.68,3.1-.68,1.85.21,2.58.63c.73.42,1.36.98,1.91,1.68.55.7,1.03,1.5,1.46,2.4.43.91.85,1.85,1.27,2.82.41.97.84,1.94,1.29,2.92.45.97.97,1.86,1.56,2.67h2.28v4.37h-19.85c-.43,0-.79-.14-1.07-.41s-.42-.62-.42-1.04v-1.46c0-.42.14-.77.42-1.04h.02Z"/>
    <path d="M373.72,109.55c.28-.28.64-.41,1.07-.41h5.21v-10.69c0-.26.1-.49.3-.68.2-.19.43-.29.69-.29h2.48c.26,0,.5.1.69.29.2.19.3.42.3.68v11.17c0,1.07-.39,1.98-1.17,2.74s-1.71,1.14-2.8,1.14h-5.71c-.43,0-.79-.14-1.07-.41s-.42-.62-.42-1.04v-1.46c0-.42.14-.77.42-1.04h.01ZM374.59,117.05c.53-.42,1.17-.63,1.94-.63s1.41.21,1.94.63.79.94.79,1.55-.26,1.13-.79,1.55-1.17.63-1.94.63-1.41-.21-1.94-.63-.79-.94-.79-1.55.26-1.13.79-1.55ZM381.04,117.05c.53-.42,1.17-.63,1.94-.63s1.41.21,1.94.63.79.94.79,1.55-.26,1.13-.79,1.55-1.17.63-1.94.63-1.41-.21-1.94-.63-.79-.94-.79-1.55.26-1.13.79-1.55Z"/>
    <path d="M391.56,102.05c.43-1.04,1.01-1.89,1.74-2.57.73-.68,1.57-1.18,2.53-1.51s1.98-.49,3.08-.49c1.26,0,2.51.2,3.77.61,1.26.41,2.46,1.01,3.62,1.82v13.6c0,1.46-.17,2.7-.52,3.74s-.83,1.89-1.46,2.55-1.37,1.15-2.23,1.46c-.86.31-1.8.46-2.83.46-1.16,0-2.33-.18-3.52-.53-1.19-.36-2.46-.86-3.82-1.51l1.44-3.4c.79.36,1.63.66,2.51.92.88.26,1.73.39,2.56.39.99,0,1.81-.28,2.46-.85s.97-1.64.97-3.23h-6.45c-1.26,0-2.32-.42-3.18-1.26-.86-.84-1.29-1.88-1.29-3.11v-3.4c0-1.42.21-2.66.64-3.69h-.02ZM401.83,102.34c-.86-.32-1.8-.49-2.83-.49-.96,0-1.8.31-2.53.92-.73.62-1.09,1.6-1.09,2.96v3.4h6.45v-6.8h0Z"/>
    <path d="M423.44,113.02c-.88-.32-1.61-.76-2.21-1.31-.6-.55-1.04-1.19-1.34-1.92s-.45-1.51-.45-2.36c0-1.36.42-2.78,1.26-4.25s2.14-2.82,3.9-4.05l1.39,1.99c-1.12.78-1.9,1.57-2.33,2.38s-.65,1.54-.65,2.19c0,.91.31,1.66.94,2.26s1.47.93,2.53,1v4.57c-1.16,0-2.17-.16-3.05-.49h0Z"/>
    <path d="M464.28,112.37c-.78.76-1.71,1.14-2.8,1.14h-23.82c-1.09,0-2.03-.38-2.8-1.14s-1.17-1.68-1.17-2.74v-11.17c0-.26.1-.49.3-.68s.43-.29.69-.29h2.48c.26,0,.5.1.69.29.2.19.3.42.3.68v10.69h22.83v-10.69c0-.26.1-.49.3-.68s.43-.29.69-.29h2.48c.26,0,.5.1.69.29s.3.42.3.68v11.17c0,1.07-.39,1.98-1.17,2.74h.01ZM444.41,90.34c.53-.42,1.17-.63,1.93-.63s1.41.21,1.94.63.79.94.79,1.55-.26,1.13-.79,1.55-1.17.63-1.94.63-1.41-.21-1.93-.63-.79-.94-.79-1.55.26-1.13.79-1.55ZM450.86,90.34c.53-.42,1.17-.63,1.94-.63s1.41.21,1.94.63.79.94.79,1.55-.26,1.13-.79,1.55-1.17.63-1.94.63-1.41-.21-1.94-.63-.79-.94-.79-1.55.26-1.13.79-1.55Z"/>
    <path d="M476.07,87.09c.2.19.3.42.3.68v21.37h3.23v4.37h-6.7c-.26,0-.5-.1-.69-.29s-.3-.42-.3-.68v-24.77c0-.26.1-.49.3-.68.2-.19.43-.29.69-.29h2.48c.26,0,.5.1.69.29Z"/>
    <path d="M478.52,109.55c.28-.28.64-.41,1.07-.41h5.21v-10.69c0-.26.1-.49.3-.68.2-.19.43-.29.7-.29h2.48c.26,0,.5.1.7.29s.3.42.3.68v10.69h5.21v4.37h-14.89c-.43,0-.79-.14-1.07-.41s-.42-.62-.42-1.04v-1.46c0-.42.14-.77.42-1.04h0ZM485.1,117.05c.53-.42,1.17-.63,1.94-.63s1.41.21,1.94.63.79.94.79,1.55-.26,1.13-.79,1.55-1.17.63-1.94.63-1.41-.21-1.94-.63-.79-.94-.79-1.55.26-1.13.79-1.55Z"/>
    <path d="M493.41,113.09c-.28-.28-.42-.62-.42-1.04v-1.46c0-.42.14-.77.42-1.04.28-.28.64-.41,1.07-.41h12.65v-3.3c0-.75-.13-1.37-.4-1.87s-.63-.91-1.09-1.24-1-.55-1.61-.68-1.27-.19-1.96-.19c-.56,0-1.13.05-1.71.15s-1.1.23-1.56.39l-1.49-3.79,11.86-11.66,3.18,3.11-7.49,7.38c1.99.32,3.61,1.17,4.86,2.55,1.26,1.38,1.89,3.33,1.89,5.85v6.7c0,.26-.1.49-.3.68-.2.19-.43.29-.7.29h-16.13c-.43,0-.79-.14-1.07-.41h0Z"/>
    <path d="M511.92,117.22c.98.31,1.91.46,2.8.46s1.71-.29,2.36-.87.97-1.68.97-3.3v-15.06c0-.26.1-.49.3-.68s.43-.29.69-.29h2.48c.26,0,.5.1.69.29s.3.42.3.68v10.69h3.23v4.37h-3.23c0,1.46-.17,2.7-.52,3.74-.35,1.04-.83,1.89-1.46,2.55s-1.37,1.15-2.23,1.46-1.8.46-2.83.46c-1.16,0-2.37-.18-3.65-.53s-2.59-.86-3.95-1.51l1.44-3.45c.76.36,1.63.69,2.6,1h.01Z"/>
    <path d="M524.67,109.55c.28-.28.64-.41,1.07-.41h3.23v-3.5c0-1.23.21-2.31.65-3.23.43-.92,1-1.68,1.71-2.28s1.53-1.05,2.46-1.36,1.89-.46,2.88-.46,1.94.15,2.85.44,1.73.74,2.46,1.33c.73.6,1.31,1.35,1.74,2.26s.65,1.96.65,3.16v3.64h3.23v4.37h-5.11c-.73.78-1.61,1.38-2.65,1.8s-2.11.63-3.2.63-2.14-.2-3.15-.61c-1.01-.4-1.88-1.01-2.61-1.82h-5.11c-.43,0-.79-.14-1.07-.41s-.42-.62-.42-1.04v-1.46c0-.42.14-.77.42-1.04h-.03ZM534.45,111.08c.68.32,1.41.49,2.21.49s1.57-.16,2.23-.49c.66-.32.99-.81.99-1.46v-4.37c0-.87-.33-1.52-.99-1.94-.66-.42-1.41-.63-2.23-.63s-1.53.21-2.21.63-1.02,1.07-1.02,1.94v4.37c0,.65.34,1.13,1.02,1.46Z"/>
    <path d="M550.8,87.77c0-.26.1-.49.3-.68s.43-.29.69-.29h2.48c.26,0,.5.1.69.29.2.19.3.42.3.68v21.86c0,1.07-.39,1.98-1.17,2.74s-1.71,1.14-2.8,1.14h-3.72c-.43,0-.79-.14-1.07-.41s-.42-.62-.42-1.04v-1.46c0-.42.14-.77.42-1.04.28-.28.64-.41,1.07-.41h3.23v-21.37h0Z"/>
    <path d="M565.88,87.09c.2.19.3.42.3.68v24.77c0,.26-.1.49-.3.68s-.43.29-.69.29h-2.48c-.26,0-.5-.1-.69-.29s-.3-.42-.3-.68v-24.77c0-.26.1-.49.3-.68s.43-.29.69-.29h2.48c.26,0,.5.1.69.29Z"/>
    <path d="M584.22,114.48c-.78.65-1.17,1.39-1.17,2.23,0,.65.17,1.18.52,1.6.35.42.8.75,1.36,1,.56.24,1.18.42,1.86.53s1.36.17,2.06.17c1.29,0,2.33-.13,3.13-.39v4.61c-.4.07-.85.12-1.36.17-.51.05-1.02.07-1.51.07-1.09,0-2.25-.1-3.47-.29s-2.36-.57-3.4-1.12c-1.04-.55-1.91-1.34-2.61-2.36-.69-1.02-1.04-2.36-1.04-4.01,0-1.36.39-2.65,1.17-3.88s1.86-2.17,3.25-2.82l-3.37-5.83c-.2-.32-.34-.69-.42-1.09-.08-.4-.12-.8-.12-1.19,0-.55.08-1.09.25-1.63.17-.53.41-1,.74-1.41.33-.4.75-.74,1.24-1,.5-.26,1.08-.39,1.74-.39h10.42c.66,0,1.24.13,1.74.39s.91.59,1.24,1,.58.87.74,1.41c.17.53.25,1.08.25,1.63,0,.39-.04.78-.12,1.17s-.22.76-.42,1.12l-2.88,4.95h6.65v4.37h-13.25c-1.36,0-2.42.32-3.2.97l-.02.02ZM583.45,101.85l4.52,7.29h.55l4.61-7.29h-9.68Z"/>
    <path d="M599.6,109.55c.28-.28.64-.41,1.07-.41h4.07c-.3-.52-.51-1.08-.65-1.68-.13-.6-.2-1.22-.2-1.87,0-.94.16-1.89.47-2.87s.81-1.85,1.49-2.62c.68-.78,1.55-1.41,2.61-1.89,1.06-.49,2.32-.73,3.77-.73h3.57c1.09,0,2.03.38,2.8,1.14.78.76,1.17,1.68,1.17,2.74v11.17c0,.26-.1.49-.3.68s-.43.29-.69.29h-18.11c-.43,0-.79-.14-1.07-.41s-.42-.62-.42-1.04v-1.46c0-.42.14-.77.42-1.04h0ZM609.4,102.9c-.69.7-1.04,1.56-1.04,2.6,0,.94.33,1.78.99,2.53s1.52,1.12,2.58,1.12h3.37v-7.29h-3.37c-.99,0-1.84.35-2.53,1.04ZM609.9,90.34c.53-.42,1.17-.63,1.94-.63s1.41.21,1.94.63.79.94.79,1.55-.26,1.13-.79,1.55-1.17.63-1.94.63-1.41-.21-1.94-.63-.79-.94-.79-1.55.26-1.13.79-1.55Z"/>
    <path d="M620.1,117.22c.98.31,1.91.46,2.8.46s1.71-.29,2.36-.87c.65-.58.97-1.68.97-3.3v-15.06c0-.26.1-.49.3-.68s.43-.29.7-.29h2.48c.26,0,.5.1.7.29s.3.42.3.68v10.69h3.23v4.37h-3.23c0,1.46-.17,2.7-.52,3.74s-.83,1.89-1.46,2.55-1.37,1.15-2.23,1.46-1.8.46-2.83.46c-1.16,0-2.37-.18-3.65-.53-1.27-.36-2.59-.86-3.94-1.51l1.44-3.45c.76.36,1.63.69,2.61,1h-.03Z"/>
    <path d="M632.85,109.55c.28-.28.64-.41,1.07-.41h5.21v-10.69c0-.26.1-.49.3-.68s.43-.29.69-.29h2.48c.26,0,.5.1.69.29.2.19.3.42.3.68v11.17c0,1.07-.39,1.98-1.17,2.74s-1.71,1.14-2.8,1.14h-5.71c-.43,0-.79-.14-1.07-.41s-.42-.62-.42-1.04v-1.46c0-.42.14-.77.42-1.04h.01ZM633.72,117.05c.53-.42,1.17-.63,1.94-.63s1.41.21,1.94.63.79.94.79,1.55-.26,1.13-.79,1.55-1.17.63-1.94.63-1.41-.21-1.94-.63-.79-.94-.79-1.55.26-1.13.79-1.55ZM640.17,117.05c.53-.42,1.17-.63,1.94-.63s1.41.21,1.93.63.79.94.79,1.55-.26,1.13-.79,1.55-1.17.63-1.93.63-1.41-.21-1.94-.63-.79-.94-.79-1.55.26-1.13.79-1.55Z"/>
    <path d="M298.22,145.08c0-1.17.26-2.18.77-3.04s1.17-1.56,1.98-2.11,1.75-.96,2.8-1.24c1.06-.27,2.13-.41,3.23-.41,1.19,0,2.35.16,3.47.49s2.17.81,3.13,1.46v14.08h-15.38v-9.23h0ZM300.75,131.14c.53-.42,1.17-.63,1.94-.63s1.41.21,1.94.63.79.94.79,1.55-.26,1.13-.79,1.55-1.17.63-1.94.63-1.41-.21-1.94-.63-.79-.94-.79-1.55.26-1.13.79-1.55ZM309.13,143.19c-1.09-.36-2-.53-2.73-.53-.99,0-1.86.23-2.61.68-.74.45-1.12,1.12-1.12,1.99v4.61h6.45v-6.75h0ZM307.2,131.14c.53-.42,1.17-.63,1.94-.63s1.41.21,1.94.63.79.94.79,1.55-.26,1.13-.79,1.55-1.17.63-1.94.63-1.41-.21-1.94-.63-.79-.94-.79-1.55.26-1.13.79-1.55Z"/>
    <path d="M329.48,149.94v-4.86c0-.78-.14-1.44-.42-1.99s-.65-1-1.12-1.33-1.01-.58-1.64-.73-1.29-.22-1.98-.22c-.56,0-1.14.05-1.74.15-.6.1-1.16.24-1.69.44l-1.09-4.08c1.03-.32,2-.57,2.93-.73s1.84-.24,2.73-.24c1.22,0,2.35.17,3.37.51,1.03.34,1.92.87,2.68,1.58.76.71,1.36,1.62,1.79,2.72.43,1.1.65,2.41.65,3.93v4.86h3.23v4.37h-18.36v-4.37h10.67-.01Z"/>
    <path d="M336.1,150.35c.28-.28.64-.41,1.07-.41h5.21v-10.69c0-.26.1-.49.3-.68.2-.19.43-.29.69-.29h2.48c.26,0,.5.1.69.29.2.19.3.42.3.68v10.69h5.21v4.37h-14.89c-.43,0-.79-.14-1.07-.41s-.42-.62-.42-1.04v-1.46c0-.42.14-.77.42-1.04h.01ZM337.97,157.85c.53-.42,1.17-.63,1.94-.63s1.41.21,1.94.63.79.94.79,1.55-.26,1.13-.79,1.55-1.17.63-1.94.63-1.41-.21-1.94-.63-.79-.94-.79-1.55.26-1.13.79-1.55ZM344.42,157.85c.53-.42,1.17-.63,1.94-.63s1.41.21,1.94.63.79.94.79,1.55-.26,1.13-.79,1.55-1.17.63-1.94.63-1.41-.21-1.94-.63-.79-.94-.79-1.55.26-1.13.79-1.55Z"/>
    <path d="M350.99,150.35c.28-.28.64-.41,1.07-.41h6.7l-2.93-4.95c-.2-.32-.34-.69-.42-1.09-.08-.4-.12-.8-.12-1.19,0-.55.08-1.09.25-1.63.17-.53.41-1,.74-1.41.33-.4.74-.74,1.24-1s1.08-.39,1.74-.39h10.42c.66,0,1.24.13,1.74.39s.91.59,1.24,1,.58.87.74,1.41.25,1.08.25,1.63c0,.39-.04.78-.12,1.17s-.22.76-.42,1.12l-2.88,4.95h6.65v4.37h-24.81c-.43,0-.79-.14-1.07-.41s-.42-.62-.42-1.04v-1.46c0-.42.14-.77.42-1.04v-.02ZM359.65,142.65l4.52,7.29h.55l4.62-7.29h-9.69Z"/>
    <path d="M375.8,150.35c.28-.28.64-.41,1.07-.41h5.21v-10.69c0-.26.1-.49.3-.68.2-.19.43-.29.69-.29h2.48c.26,0,.5.1.69.29.2.19.3.42.3.68v11.17c0,1.07-.39,1.98-1.17,2.74s-1.71,1.14-2.8,1.14h-5.71c-.43,0-.79-.14-1.07-.41s-.42-.62-.42-1.04v-1.46c0-.42.14-.77.42-1.04h.01ZM379.95,157.85c.53-.42,1.17-.63,1.94-.63s1.41.21,1.94.63.79.94.79,1.55-.26,1.13-.79,1.55-1.17.63-1.94.63-1.41-.21-1.94-.63-.79-.94-.79-1.55.26-1.13.79-1.55Z"/>
    <path d="M429.54,153.17c-.78.76-1.71,1.14-2.8,1.14h-23.82c-1.09,0-2.03-.38-2.8-1.14s-1.17-1.68-1.17-2.74v-11.17c0-.26.1-.49.3-.68.2-.19.43-.29.7-.29h2.48c.26,0,.5.1.7.29s.3.42.3.68v10.69h22.83v-10.69c0-.26.1-.49.3-.68.2-.19.43-.29.7-.29h2.48c.26,0,.5.1.7.29.2.19.3.42.3.68v11.17c0,1.07-.39,1.98-1.17,2.74h-.03ZM409.67,131.14c.53-.42,1.17-.63,1.94-.63s1.41.21,1.93.63.79.94.79,1.55-.26,1.13-.79,1.55-1.17.63-1.93.63-1.41-.21-1.94-.63-.79-.94-.79-1.55.26-1.13.79-1.55ZM416.12,131.14c.53-.42,1.17-.63,1.93-.63s1.41.21,1.94.63.79.94.79,1.55-.26,1.13-.79,1.55-1.17.63-1.94.63-1.41-.21-1.93-.63-.79-.94-.79-1.55.26-1.13.79-1.55Z"/>
    <path d="M441.33,127.89c.2.19.3.42.3.68v21.37h3.23v4.37h-6.7c-.26,0-.5-.1-.69-.29s-.3-.42-.3-.68v-24.77c0-.26.1-.49.3-.68.2-.19.43-.29.69-.29h2.48c.26,0,.5.1.69.29Z"/>
    <path d="M443.79,150.35c.28-.28.64-.41,1.07-.41h4.07c-.3-.52-.51-1.08-.65-1.68-.13-.6-.2-1.22-.2-1.87,0-.94.16-1.89.47-2.87s.81-1.85,1.49-2.62c.68-.78,1.55-1.41,2.61-1.89,1.06-.49,2.32-.73,3.77-.73h3.57c1.09,0,2.03.38,2.8,1.14.78.76,1.17,1.68,1.17,2.74v11.17c0,.26-.1.49-.3.68s-.43.29-.69.29h-18.11c-.43,0-.79-.14-1.07-.41s-.42-.62-.42-1.04v-1.46c0-.42.14-.77.42-1.04h0ZM453.59,143.7c-.69.7-1.04,1.56-1.04,2.6,0,.94.33,1.78.99,2.53s1.52,1.12,2.58,1.12h3.37v-7.29h-3.37c-.99,0-1.84.35-2.53,1.04h0ZM454.08,131.14c.53-.42,1.17-.63,1.94-.63s1.41.21,1.94.63.79.94.79,1.55-.26,1.13-.79,1.55-1.17.63-1.94.63-1.41-.21-1.94-.63-.79-.94-.79-1.55.26-1.13.79-1.55Z"/>
    <path d="M474.58,127.89c.2.19.3.42.3.68v21.37h3.22v4.37h-6.7c-.26,0-.5-.1-.7-.29-.2-.19-.3-.42-.3-.68v-24.77c0-.26.1-.49.3-.68.2-.19.43-.29.7-.29h2.48c.26,0,.5.1.7.29Z"/>
    <path d="M477.03,153.89c-.28-.28-.42-.62-.42-1.04v-1.46c0-.42.14-.77.42-1.04.28-.28.64-.41,1.07-.41h5.21v-10.69c0-.26.1-.49.3-.68s.43-.29.69-.29h2.48c.26,0,.5.1.69.29.2.19.3.42.3.68v10.69h5.46v-10.69c0-.26.1-.49.3-.68.2-.19.43-.29.7-.29h2.48c.26,0,.5.1.7.29s.3.42.3.68v10.69h5.46v-10.69c0-.26.1-.49.3-.68s.43-.29.69-.29h2.48c.26,0,.5.1.69.29.2.19.3.42.3.68v10.69h5.21v4.37h-34.73c-.43,0-.79-.14-1.07-.41h0Z"/>
    <path d="M511.77,150.35c.28-.28.64-.41,1.07-.41h3.23v-3.5c0-1.23.21-2.31.65-3.23.43-.92,1-1.68,1.71-2.28s1.53-1.05,2.46-1.36,1.89-.46,2.88-.46,1.94.15,2.85.44c.91.29,1.73.74,2.46,1.33.73.6,1.31,1.35,1.74,2.26.43.91.65,1.96.65,3.16v3.64h3.23v4.37h-5.11c-.73.78-1.61,1.38-2.65,1.8s-2.11.63-3.2.63-2.14-.2-3.15-.61c-1.01-.4-1.88-1.01-2.61-1.82h-5.11c-.43,0-.79-.14-1.07-.41s-.42-.62-.42-1.04v-1.46c0-.42.14-.77.42-1.04h-.03ZM521.55,151.88c.68.32,1.41.49,2.21.49s1.57-.16,2.23-.49c.66-.32.99-.81.99-1.46v-4.37c0-.87-.33-1.52-.99-1.94s-1.41-.63-2.23-.63-1.53.21-2.21.63-1.02,1.07-1.02,1.94v4.37c0,.65.34,1.13,1.02,1.46Z"/>
    <path d="M537.9,128.57c0-.26.1-.49.3-.68.2-.19.43-.29.7-.29h2.48c.26,0,.5.1.7.29.2.19.3.42.3.68v21.86c0,1.07-.39,1.98-1.17,2.74s-1.71,1.14-2.8,1.14h-3.72c-.43,0-.79-.14-1.07-.41s-.42-.62-.42-1.04v-1.46c0-.42.14-.77.42-1.04.28-.28.64-.41,1.07-.41h3.23v-21.37h-.02Z"/>
    <path d="M553.6,158.02c.98.31,1.91.46,2.8.46s1.71-.29,2.36-.87c.65-.58.97-1.68.97-3.3v-15.06c0-.26.1-.49.3-.68s.43-.29.7-.29h2.48c.26,0,.5.1.7.29.2.19.3.42.3.68v10.69h3.23v4.37h-3.23c0,1.46-.17,2.7-.52,3.74s-.83,1.89-1.46,2.55-1.37,1.15-2.23,1.46c-.86.31-1.8.46-2.83.46-1.16,0-2.37-.18-3.65-.53-1.27-.36-2.59-.86-3.94-1.51l1.44-3.45c.76.36,1.63.69,2.61,1h-.03ZM560.03,131.14c.53-.42,1.17-.63,1.94-.63s1.41.21,1.94.63.79.94.79,1.55-.26,1.13-.79,1.55-1.17.63-1.94.63-1.41-.21-1.94-.63-.79-.94-.79-1.55.26-1.13.79-1.55Z"/>
    <path d="M566.36,153.89c-.28-.28-.42-.62-.42-1.04v-1.46c0-.42.14-.77.42-1.04.28-.28.64-.41,1.07-.41h4.07c-.3-.52-.51-1.08-.64-1.68-.13-.6-.2-1.22-.2-1.87,0-.94.16-1.89.47-2.87s.81-1.85,1.49-2.62c.68-.78,1.55-1.41,2.6-1.89,1.06-.49,2.32-.73,3.77-.73h3.57c1.09,0,2.03.38,2.8,1.14.78.76,1.17,1.68,1.17,2.74v7.77h3.22v4.37h-22.33c-.43,0-.79-.14-1.07-.41h.01ZM582.06,142.65h-3.37c-.99,0-1.84.35-2.53,1.04-.7.7-1.04,1.56-1.04,2.6,0,.94.33,1.78.99,2.53s1.49,1.12,2.48,1.12h3.47v-7.29h0ZM576.65,131.14c.53-.42,1.17-.63,1.94-.63s1.41.21,1.93.63.79.94.79,1.55-.26,1.13-.79,1.55-1.17.63-1.93.63-1.41-.21-1.94-.63-.79-.94-.79-1.55.26-1.13.79-1.55Z"/>
    <path d="M588.69,153.89c-.28-.28-.42-.62-.42-1.04v-1.46c0-.42.14-.77.42-1.04.28-.28.64-.41,1.07-.41h4.07c-.3-.52-.51-1.08-.65-1.68-.13-.6-.2-1.22-.2-1.87,0-.94.16-1.89.47-2.87s.81-1.85,1.49-2.62c.68-.78,1.55-1.41,2.61-1.89,1.06-.49,2.32-.73,3.77-.73h3.57c1.09,0,2.03.38,2.8,1.14.78.76,1.17,1.68,1.17,2.74v7.77h3.23v4.37h-22.33c-.43,0-.79-.14-1.07-.41h0ZM595.76,131.14c.53-.42,1.17-.63,1.93-.63s1.41.21,1.94.63.79.94.79,1.55-.26,1.13-.79,1.55-1.17.63-1.94.63-1.41-.21-1.93-.63-.79-.94-.79-1.55.26-1.13.79-1.55ZM604.39,142.65h-3.37c-.99,0-1.84.35-2.53,1.04-.69.7-1.04,1.56-1.04,2.6,0,.94.33,1.78.99,2.53s1.49,1.12,2.48,1.12h3.47v-7.29h0ZM602.21,131.14c.53-.42,1.17-.63,1.94-.63s1.41.21,1.94.63.79.94.79,1.55-.26,1.13-.79,1.55-1.17.63-1.94.63-1.41-.21-1.94-.63-.79-.94-.79-1.55.26-1.13.79-1.55Z"/>
    <path d="M611.02,150.35c.28-.28.64-.41,1.07-.41h5.21v-10.69c0-.26.1-.49.3-.68.2-.19.43-.29.7-.29h2.48c.26,0,.5.1.7.29s.3.42.3.68v11.17c0,1.07-.39,1.98-1.17,2.74s-1.71,1.14-2.8,1.14h-5.71c-.43,0-.79-.14-1.07-.41s-.42-.62-.42-1.04v-1.46c0-.42.14-.77.42-1.04h-.01ZM611.88,157.85c.53-.42,1.17-.63,1.94-.63s1.41.21,1.93.63.79.94.79,1.55-.26,1.13-.79,1.55-1.17.63-1.93.63-1.41-.21-1.94-.63-.79-.94-.79-1.55.26-1.13.79-1.55ZM618.34,157.85c.53-.42,1.17-.63,1.93-.63s1.41.21,1.94.63.79.94.79,1.55-.26,1.13-.79,1.55-1.17.63-1.94.63-1.41-.21-1.93-.63-.79-.94-.79-1.55.26-1.13.79-1.55Z"/>
    <path d="M628.86,142.85c.43-1.04,1.01-1.89,1.74-2.57.73-.68,1.57-1.18,2.53-1.51.96-.32,1.99-.49,3.08-.49,1.26,0,2.51.2,3.77.61s2.46,1.01,3.62,1.82v13.6c0,1.46-.17,2.7-.52,3.74-.35,1.04-.83,1.89-1.46,2.55s-1.37,1.15-2.23,1.46-1.8.46-2.83.46c-1.16,0-2.33-.18-3.52-.53-1.19-.36-2.46-.86-3.82-1.51l1.44-3.4c.79.36,1.63.66,2.51.92s1.73.39,2.56.39c.99,0,1.81-.28,2.46-.85s.97-1.64.97-3.23h-6.45c-1.26,0-2.32-.42-3.18-1.26s-1.29-1.88-1.29-3.11v-3.4c0-1.42.21-2.65.65-3.69h-.03ZM639.13,143.14c-.86-.32-1.8-.49-2.83-.49-.96,0-1.8.31-2.53.92s-1.09,1.6-1.09,2.96v3.4h6.45v-6.8h0Z"/>
  </g>
</svg>