<?xml version="1.0" encoding="UTF-8"?>
<svg id="Layer_1" xmlns="http://www.w3.org/2000/svg" version="1.1" viewBox="0 0 784.8 350.74">
  <!-- Generator: Adobe Illustrator 29.7.1, SVG Export Plug-In . SVG Version: 2.1.1 Build 8)  -->
  <defs>
    <style>
      .st0 {
        fill: #78619e;
      }
    </style>
  </defs>
  <g>
    <path d="M707.41,8.65c.8.78,1.2,1.88,1.14,2.96l-14.53,153.11,13.76-3.04c.52-.12,1.04-.11,1.54-.02.27,0,.54-.05.81,0,.27,0,.54-.05.81,0,.27,0,.54-.05.81,0,.27,0,.54-.05.81,0,.27,0,.55-.05.81,0,.27,0,.54-.05.81,0,.27,0,.54-.05.81,0,.27,0,.54-.05.81,0,.27,0,.54-.05.81,0,.27,0,.54-.05.81,0,.27,0,.54-.05.81,0,.27,0,.54-.05.81,0,.27,0,.54-.05.81,0,.27,0,.54-.05.81,0,.27,0,.54-.05.81,0,.27,0,.55-.05.81,0,.27,0,.55-.05.81,0,.27,0,.54-.05.81,0,.27,0,.55-.05.81,0,.27,0,.54-.05.81,0,1.73-.05,3.33.95,3.86,2.62l7.73,24.2,17.4-9.34c.69-.37,1.46-.44,2.23-.37.27-.03.53-.02.81,0,.27-.03.53-.02.81,0,.27-.03.53-.02.81,0,.27-.03.53-.02.81,0,.27-.03.53-.02.81,0,.27-.03.53-.02.81,0,.27-.03.53-.02.81,0,.27-.03.53-.02.81,0,.27-.03.53-.02.81,0,.27-.03.53-.02.81,0,.28-.03.53-.02.81,0,.28-.03.53-.02.81,0,.27-.03.53-.02.81,0,.28-.03.53-.02.81,0,.27-.03.53-.02.81,0,.27-.03.53-.02.81,0,.28-.03.53-.02.81,0,.27-.03.53-.02.81,0,.27-.03.53-.02.81,0,.27-.03.53-.02.81,0,.73-.09,1.47-.04,2.16.29,1.14.54,1.94,1.58,2.15,2.8l7.6,43.55,59.56,1.08c1.85.03,3.42,1.33,3.77,3.11.05.24.07.48.07.71,0,1.52-.93,2.93-2.41,3.53l-83.73,34.15c-.63.26-1.29.29-1.95.21-.27.03-.53.03-.81,0-.27.03-.53.03-.81,0-.27.03-.53.03-.81,0-.27.03-.53.03-.81,0-.27.03-.53.03-.81,0-.27.03-.53.03-.81,0-.27.03-.53.03-.81,0-.27.03-.53.03-.81,0-.27.03-.53.03-.81,0-.27.03-.53.03-.81,0-.28.03-.53.03-.81,0-.27.03-.53.03-.81,0-.27.03-.53.03-.81,0-.27.03-.53.03-.81,0-.27.03-.53.03-.81,0-.27.03-.53.03-.81,0-.27.03-.53.03-.81,0-.27.03-.53.03-.81,0-.27.03-.53.03-.81,0-.27.03-.53.03-.81,0-.69.06-1.39.01-2.03-.29-1-.46-1.75-1.32-2.07-2.36l-5.09-16.61-5.33,4.7c-.91.8-2.16,1.14-3.36.91-.02,0-.04-.02-.06-.03-.25,0-.49.08-.74.03-.02,0-.04-.02-.06-.03-.25,0-.49.08-.74.03-.02,0-.04-.02-.06-.03-.25,0-.49.08-.74.03-.02,0-.04-.02-.06-.03-.25,0-.49.08-.74.03-.02,0-.04-.02-.06-.03-.25,0-.49.08-.74.03-.02,0-.04-.02-.06-.03-.25,0-.49.08-.74.03-.02,0-.04-.02-.06-.03-.25,0-.49.08-.74.03-.02,0-.04-.02-.06-.03-.25,0-.49.08-.74.03-.02,0-.04-.02-.06-.03-.25,0-.49.08-.74.03-.02,0-.04-.02-.06-.03-.25,0-.49.08-.74.03-.02,0-.04-.02-.06-.03-.25,0-.49.08-.74.03-.02,0-.04-.02-.06-.03-.25,0-.49.08-.74.03-.02,0-.04-.02-.06-.03-.25,0-.49.08-.74.03-.02,0-.04-.02-.06-.03-.25,0-.49.08-.74.03-.02,0-.04-.02-.06-.03-.25,0-.49.08-.74.03-.02,0-.04-.02-.06-.03-.25,0-.49.08-.74.03-.02,0-.04-.02-.06-.03-.25,0-.49.08-.74.03-.02,0-.04-.02-.06-.03-.25,0-.49.08-.74.03-.02,0-.04-.02-.06-.03-.25,0-.49.08-.74.03-.02,0-.04-.02-.06-.03-.25,0-.49.08-.74.03-.02,0-.04-.02-.06-.03-.25,0-.49.08-.74.03-1.21-.23-2.23-1-2.77-2.09l-14.22-28.64-3.55,2.01-14.88,114.23c-.14,1.06-.72,2.01-1.6,2.63s-1.99.85-3.05.64h-.02c-.26,0-.52.05-.79,0h-.02c-.26,0-.52.05-.79,0h-.02c-.26,0-.52.05-.79,0h-.02c-.26,0-.52.05-.79,0h-.02c-.26,0-.52.05-.79,0h-.02c-.26,0-.52.05-.79,0h-.02c-.26,0-.53.05-.79,0h-.02c-.26,0-.52.05-.79,0h-.02c-.26,0-.52.05-.79,0h-.02c-.26,0-.52.05-.79,0h-.02c-.26,0-.52.05-.79,0h-.02c-.26,0-.52.05-.79,0h-.02c-.26,0-.52.05-.79,0h-.02c-.26,0-.52.05-.79,0h-.02c-.26,0-.52.05-.79,0h-.02c-.26,0-.52.05-.79,0h-.02c-.26,0-.52.05-.79,0h-.02c-.26,0-.52.05-.79,0h-.02c-.26,0-.53.05-.79,0h-.02c-.26,0-.52.05-.79,0h-.02c-.26,0-.53.05-.79,0L36.42,303.48c-1.74-.34-3.02-1.79-3.12-3.53L13.53,28.65c-.09-2.02,1.5-3.89,3.64-4.04L687.44,7.54c.09,0,.17.04.26.04l.55-.04c.09,0,.17.04.26.04l.55-.04c.09,0,.17.04.26.04l.55-.04c.09,0,.17.04.26.04l.55-.04c.09,0,.17.04.26.04l.55-.04c.09,0,.17.04.26.04l.55-.04c.09,0,.17.04.26.04l.55-.04c.09,0,.17.04.26.04l.55-.04c.09,0,.17.04.26.04l.55-.04c.09,0,.17.04.26.04l.55-.04c.09,0,.17.04.26.04l.55-.04c.09,0,.17.04.26.04l.55-.04c.09,0,.17.04.26.04l.55-.04c.09,0,.17.04.26.04l.55-.04c.09,0,.17.04.26.04l.55-.04c.09,0,.17.04.26.04l.55-.04c.09,0,.17.04.26.04l.55-.04c.09,0,.17.04.26.04l.55-.04c.09,0,.17.04.26.04l.55-.04c.09,0,.17.04.26.04l.55-.04c.09,0,.17.04.26.04l.55-.04c1.13-.08,2.23.33,3.03,1.11h-.07Z"/>
    <path class="st0" d="M668.69,173.13c-.08,1.2.43,2.37,1.36,3.16.94.78,2.2,1.09,3.4.82l32.53-7.19,10.56,33.06c.35,1.1,1.18,1.98,2.27,2.41,1.09.43,2.31.36,3.34-.19l31.24-16.77,7.22,41.37c.31,1.81,1.9,3.15,3.78,3.18l44.15.8-62.51,25.49-9.22-30.08c-.39-1.26-1.4-2.23-2.69-2.59s-2.67-.04-3.67.84l-19.4,17.08-17.5-35.26c-.47-.96-1.33-1.68-2.37-1.99-1.04-.31-2.16-.19-3.1.35l-22.09,12.52c-1.05.6-1.76,1.64-1.92,2.83l-14.59,112.02L40.93,296.57,21.56,32,683.52,15.48l-14.83,157.66h0Z"/>
    <path d="M690.47,8.65c-.8-.78-1.9-1.18-3.03-1.11L17.17,24.62c-2.14.14-3.72,2.01-3.64,4.04l19.77,271.29c.1,1.74,1.38,3.19,3.12,3.53l615.62,39.84c1.07.21,2.17-.02,3.05-.64.89-.62,1.47-1.57,1.6-2.63l14.88-114.23,16.78-9.51,17.94,36.14c.53,1.08,1.56,1.85,2.77,2.09,1.2.23,2.45-.11,3.36-.91l18.67-16.45,8.69,28.36c.32,1.04,1.07,1.89,2.07,2.36,1,.47,2.15.49,3.18.07l83.73-34.15c1.48-.6,2.41-2.01,2.41-3.53,0-.24-.02-.47-.07-.71-.35-1.78-1.92-3.08-3.77-3.11l-59.56-1.08-7.6-43.55c-.21-1.22-1.01-2.26-2.15-2.8-1.14-.54-2.47-.5-3.58.09l-31.87,17.11-10.21-31.96c-.61-1.91-2.6-3.03-4.59-2.59l-30.95,6.84,14.78-156.91c.06-1.08-.34-2.18-1.14-2.96h.01ZM21.56,32L683.52,15.48l-14.83,157.66c-.08,1.2.43,2.37,1.36,3.16.94.78,2.2,1.09,3.4.82l32.53-7.19,10.56,33.06c.35,1.1,1.18,1.98,2.27,2.41,1.09.43,2.31.36,3.34-.19l31.24-16.77,7.22,41.37c.31,1.81,1.9,3.15,3.78,3.18l44.15.8-62.51,25.49-9.22-30.08c-.39-1.26-1.4-2.23-2.69-2.59s-2.67-.04-3.67.84l-19.4,17.08-17.5-35.26c-.47-.96-1.33-1.68-2.37-1.99-1.04-.31-2.16-.19-3.1.35l-22.09,12.52c-1.05.6-1.76,1.64-1.92,2.83l-14.59,112.02L40.93,296.57,21.56,32Z"/>
  </g>
  <g>
    <path d="M556.98,80.68h-15.55c-1.83,0-3.14-.34-3.93-1.02-.78-.68-1.17-1.55-1.17-2.62,0-.8.2-1.7.61-2.7l2.8-6.94c.37-.93.98-1.7,1.81-2.3s1.81-.9,2.93-.9h8.67c.27,0,.51.1.71.3.21.2.31.43.31.7v9.98h2.8v5.49h.01ZM548.57,75.19v-5.49h-3.77l-2.19,5.49h5.96Z"/>
    <path d="M555.5,76.69c0-.43.15-.79.43-1.07.29-.28.66-.42,1.1-.42h4.84v-9.98c0-.27.1-.5.31-.7.2-.2.44-.3.71-.3h3.57c.27,0,.51.1.71.3.2.2.31.43.31.7v9.98h4.84v5.49h-15.29c-.44,0-.81-.14-1.1-.42s-.43-.64-.43-1.07v-2.5h0ZM558.1,60.07c-.54-.43-.82-.96-.82-1.6s.27-1.16.82-1.6c.54-.43,1.21-.65,1.99-.65s1.44.22,1.99.65c.54.43.82.96.82,1.6s-.27,1.17-.82,1.6c-.54.43-1.21.65-1.99.65s-1.45-.22-1.99-.65ZM564.73,60.07c-.54-.43-.82-.96-.82-1.6s.27-1.16.82-1.6c.54-.43,1.21-.65,1.99-.65s1.44.22,1.99.65c.54.43.82.96.82,1.6s-.27,1.17-.82,1.6c-.54.43-1.21.65-1.99.65s-1.45-.22-1.99-.65Z"/>
    <path d="M570.79,76.69c0-.43.15-.79.43-1.07.29-.28.66-.42,1.1-.42h2.8v-2.59c0-1.3.25-2.4.74-3.32s1.14-1.66,1.94-2.25c.8-.58,1.7-1.01,2.7-1.27,1-.27,2.01-.4,3.03-.4s2.04.14,3.06.42,1.92.72,2.7,1.32,1.42,1.36,1.91,2.3c.49.93.74,2.05.74,3.34v2.45h2.8v5.49h-4.23c-.78.86-1.8,1.5-3.06,1.9s-2.55.6-3.88.6-2.72-.21-3.98-.62-2.31-1.04-3.16-1.87h-4.13c-.44,0-.81-.14-1.1-.42s-.43-.64-.43-1.07v-2.5l.02-.02ZM580.74,76.19c0,.5.29.87.87,1.12s1.22.37,1.94.37,1.32-.12,1.91-.37c.59-.25.89-.62.89-1.12v-3.19c0-.77-.3-1.31-.89-1.65-.6-.33-1.23-.5-1.91-.5s-1.36.17-1.94.5-.87.88-.87,1.65v3.19Z"/>
    <path d="M593.23,76.69c0-.43.15-.79.43-1.07.29-.28.66-.42,1.1-.42h3.67c-.58-1-.87-2.15-.87-3.44,0-.93.19-1.85.56-2.77.37-.91.92-1.72,1.63-2.42s1.58-1.26,2.6-1.7,2.19-.65,3.52-.65h2.4l-.77-2.99c.99-.33,1.97-.57,2.96-.72.99-.15,1.94-.22,2.86-.22,1.29,0,2.5.17,3.62.52,1.12.35,2.1.88,2.93,1.6.83.72,1.49,1.64,1.96,2.77.48,1.13.71,2.48.71,4.04v5.99h2.8v5.49h-30.59c-.44,0-.81-.14-1.1-.42s-.43-.64-.43-1.07v-2.52ZM607.76,75.19v-5.49h-1.73c-.81,0-1.5.27-2.04.8s-.82,1.18-.82,1.95.27,1.41.82,1.95c.54.53,1.22.8,2.04.8h1.73ZM616.93,69.2c0-1.4-.46-2.34-1.38-2.82s-2.07-.74-3.47-.77c.34.37.61.77.82,1.2.2.43.31.9.31,1.4v6.99h3.72v-5.99h0Z"/>
    <path d="M625.35,80.68c-.44,0-.81-.14-1.1-.42s-.43-.64-.43-1.07v-2.5c0-.43.15-.79.43-1.07.29-.28.66-.42,1.1-.42h2.8v-3.09c0-1.1.26-2.07.79-2.92.53-.85,1.21-1.55,2.07-2.12.85-.57,1.83-.99,2.93-1.27s2.25-.42,3.44-.42c1.39,0,2.76.2,4.1.6,1.34.4,2.51,1.01,3.49,1.85v8.28c0,1.13-.23,2.11-.69,2.94s-1.06,1.51-1.81,2.05c-.75.53-1.62.93-2.6,1.2-.99.27-2.01.4-3.06.4-1.36,0-2.61-.17-3.75-.52s-2.25-.84-3.34-1.47h-4.38v-.03ZM633.76,76.44c.44.27.92.46,1.43.57.51.12,1.02.17,1.53.17.71,0,1.33-.12,1.86-.35.53-.23.79-.56.79-1v-4.54c-.31-.13-.68-.24-1.12-.32s-.9-.12-1.38-.12c-.82,0-1.54.16-2.17.47-.63.32-.94.82-.94,1.52v3.59h0Z"/>
  </g>
  <g>
    <path d="M115.86,126.1c0-.75.23-1.31.69-1.7s.98-.58,1.54-.58c.66,0,1.22.23,1.69.68l2.73,2.72h5.81v4.37h-1.44l1.44,1.46c.99,1.04,1.49,2.17,1.49,3.4,0,1.04-.37,1.94-1.12,2.72-.74.78-1.86,1.17-3.35,1.17h-12.16c-1.22,0-2.38-.23-3.47-.68-1.09-.45-2.04-1.08-2.85-1.87s-1.45-1.72-1.91-2.79c-.46-1.07-.69-2.2-.69-3.4v-5.83c0-.26.1-.49.3-.68.2-.19.43-.29.69-.29h2.48c.26,0,.5.1.69.29.2.19.3.42.3.68v5.83c0,1.23.44,2.27,1.31,3.11s1.93,1.26,3.15,1.26h11.61l-8.24-8.21c-.46-.45-.69-1-.69-1.65h0ZM112.49,143.82c.53-.38,1.17-.57,1.94-.57s1.41.19,1.94.57.79.84.79,1.4-.26,1.02-.79,1.4-1.17.57-1.94.57-1.41-.19-1.94-.57-.79-.85-.79-1.4.26-1.02.79-1.4ZM118.94,143.82c.53-.38,1.17-.57,1.94-.57s1.41.19,1.94.57.79.84.79,1.4-.26,1.02-.79,1.4-1.17.57-1.94.57-1.41-.19-1.94-.57-.79-.85-.79-1.4.26-1.02.79-1.4Z"/>
    <path d="M127.25,127.63c.28-.28.64-.41,1.07-.41h4.07c-.3-.52-.51-1.08-.65-1.68s-.2-1.22-.2-1.87c0-.94.16-1.89.47-2.87s.81-1.85,1.49-2.62c.68-.78,1.55-1.41,2.6-1.89,1.06-.49,2.32-.73,3.77-.73h3.57c1.09,0,2.03.38,2.8,1.14.78.76,1.17,1.68,1.17,2.74v11.17c0,.26-.1.49-.3.68-.2.19-.43.29-.69.29h-18.11c-.43,0-.79-.14-1.07-.41s-.42-.62-.42-1.04v-1.46c0-.42.14-.77.42-1.04h0ZM137.05,120.98c-.69.7-1.04,1.56-1.04,2.6,0,.94.33,1.78.99,2.53s1.52,1.12,2.58,1.12h3.37v-7.29h-3.37c-.99,0-1.84.35-2.53,1.04h0ZM137.55,108.42c.53-.42,1.17-.63,1.94-.63s1.41.21,1.94.63.79.94.79,1.55-.26,1.13-.79,1.55-1.17.63-1.94.63-1.41-.21-1.94-.63-.79-.94-.79-1.55.26-1.13.79-1.55Z"/>
    <path d="M160.6,119.33c.51-.86,1.17-1.56,1.98-2.11s1.75-.96,2.8-1.24c1.06-.27,2.13-.41,3.23-.41,1.19,0,2.35.16,3.47.49s2.17.81,3.13,1.46v9.71h3.23v4.37h-14.14v5.83h-4.47v-15.06c0-1.17.26-2.18.77-3.04ZM170.74,120.47c-1.09-.36-2-.53-2.73-.53-.99,0-1.86.23-2.61.68-.74.45-1.12,1.12-1.12,1.99v4.61h6.45v-6.75h0Z"/>
    <path d="M177.37,131.18c-.28-.28-.42-.62-.42-1.04v-1.46c0-.42.14-.77.42-1.04.28-.28.64-.41,1.07-.41h12.65v-3.3c0-.75-.13-1.37-.4-1.87s-.63-.91-1.09-1.24c-.46-.32-1-.55-1.61-.68s-1.27-.19-1.96-.19c-.56,0-1.13.05-1.71.15s-1.1.23-1.56.39l-1.49-3.79,11.86-11.66,3.18,3.11-7.49,7.38c1.98.32,3.61,1.17,4.86,2.55,1.26,1.38,1.89,3.33,1.89,5.85v3.3h3.23v4.37h-20.34c-.43,0-.79-.14-1.07-.41h-.02Z"/>
    <path d="M197.71,127.63c.28-.28.64-.41,1.07-.41h12.5c-.33-.78-.67-1.68-1.02-2.7s-.76-1.99-1.24-2.91c-.48-.92-1.03-1.7-1.66-2.33-.63-.63-1.41-.95-2.33-.95-.56,0-1.11.11-1.64.34s-1.08.52-1.64.87l-1.49-3.01c.89-.71,1.86-1.29,2.9-1.75s2.08-.68,3.1-.68,1.85.21,2.58.63,1.36.98,1.91,1.68,1.03,1.5,1.46,2.4c.43.91.85,1.85,1.27,2.82.41.97.84,1.94,1.29,2.92.45.97.97,1.86,1.56,2.67h2.28v4.37h-19.85c-.43,0-.79-.14-1.07-.41s-.42-.62-.42-1.04v-1.46c0-.42.14-.77.42-1.04h.02Z"/>
    <path d="M217.56,127.63c.28-.28.64-.41,1.07-.41h5.21v-10.69c0-.26.1-.49.3-.68s.43-.29.69-.29h2.48c.26,0,.5.1.69.29.2.19.3.42.3.68v10.69h5.21v4.37h-14.89c-.43,0-.79-.14-1.07-.41s-.42-.62-.42-1.04v-1.46c0-.42.14-.77.42-1.04h0ZM219.67,108.42c.53-.42,1.17-.63,1.94-.63s1.41.21,1.94.63.79.94.79,1.55-.26,1.13-.79,1.55-1.17.63-1.94.63-1.41-.21-1.94-.63-.79-.94-.79-1.55.26-1.13.79-1.55ZM226.12,108.42c.53-.42,1.17-.63,1.94-.63s1.41.21,1.94.63.79.94.79,1.55-.26,1.13-.79,1.55-1.17.63-1.94.63-1.41-.21-1.94-.63-.79-.94-.79-1.55.26-1.13.79-1.55Z"/>
    <path d="M236.74,105.85c0-.26.1-.49.3-.68s.43-.29.69-.29h2.48c.26,0,.5.1.69.29.2.19.3.42.3.68v21.86c0,1.07-.39,1.98-1.17,2.74s-1.71,1.14-2.8,1.14h-3.72c-.43,0-.79-.14-1.07-.41s-.42-.62-.42-1.04v-1.46c0-.42.14-.77.42-1.04.28-.28.64-.41,1.07-.41h3.23v-21.37h0Z"/>
    <path d="M251.83,105.17c.2.19.3.42.3.68v21.37h3.23v4.37h-6.7c-.26,0-.5-.1-.69-.29-.2-.19-.3-.42-.3-.68v-24.77c0-.26.1-.49.3-.68s.43-.29.69-.29h2.48c.26,0,.5.1.69.29Z"/>
    <path d="M254.28,127.63c.28-.28.64-.41,1.07-.41h5.21v-10.69c0-.26.1-.49.3-.68.2-.19.43-.29.69-.29h2.48c.26,0,.5.1.69.29.2.19.3.42.3.68v11.17c0,1.07-.39,1.98-1.17,2.74s-1.71,1.14-2.8,1.14h-5.71c-.43,0-.79-.14-1.07-.41s-.42-.62-.42-1.04v-1.46c0-.42.14-.77.42-1.04h.01ZM258.43,135.14c.53-.42,1.17-.63,1.94-.63s1.41.21,1.94.63.79.94.79,1.55-.26,1.13-.79,1.55-1.17.63-1.94.63-1.41-.21-1.94-.63-.79-.94-.79-1.55.26-1.13.79-1.55Z"/>
    <path d="M276.27,135.31c.98.31,1.91.46,2.8.46s1.71-.29,2.36-.87.97-1.68.97-3.3v-15.06c0-.26.1-.49.3-.68s.43-.29.69-.29h2.48c.26,0,.5.1.69.29.2.19.3.42.3.68v10.69h3.23v4.37h-3.23c0,1.46-.17,2.7-.52,3.74-.35,1.04-.84,1.89-1.46,2.55-.63.66-1.37,1.15-2.23,1.46s-1.8.46-2.83.46c-1.16,0-2.37-.18-3.65-.53s-2.59-.86-3.95-1.51l1.44-3.45c.76.36,1.63.69,2.61,1h0Z"/>
    <path d="M289.02,127.63c.28-.28.64-.41,1.07-.41h5.21v-10.69c0-.26.1-.49.3-.68s.43-.29.7-.29h2.48c.26,0,.5.1.7.29s.3.42.3.68v10.69h5.21v4.37h-14.89c-.43,0-.79-.14-1.07-.41-.28-.28-.42-.62-.42-1.04v-1.46c0-.42.14-.77.42-1.04h0ZM290.88,135.14c.53-.42,1.17-.63,1.94-.63s1.41.21,1.93.63.79.94.79,1.55-.26,1.13-.79,1.55-1.17.63-1.93.63-1.41-.21-1.94-.63-.79-.94-.79-1.55.26-1.13.79-1.55ZM297.33,135.14c.53-.42,1.17-.63,1.93-.63s1.41.21,1.94.63.79.94.79,1.55-.26,1.13-.79,1.55-1.17.63-1.94.63-1.41-.21-1.93-.63-.79-.94-.79-1.55.26-1.13.79-1.55Z"/>
    <path d="M303.91,127.63c.28-.28.64-.41,1.07-.41h5.21v-10.69c0-.26.1-.49.3-.68s.43-.29.7-.29h2.48c.26,0,.5.1.7.29s.3.42.3.68v10.69h5.21v4.37h-14.89c-.43,0-.79-.14-1.07-.41-.28-.28-.42-.62-.42-1.04v-1.46c0-.42.14-.77.42-1.04h0ZM310.48,135.14c.53-.42,1.17-.63,1.94-.63s1.41.21,1.94.63.79.94.79,1.55-.26,1.13-.79,1.55-1.17.63-1.94.63-1.41-.21-1.94-.63-.79-.94-.79-1.55.26-1.13.79-1.55Z"/>
    <path d="M318.8,131.18c-.28-.28-.42-.62-.42-1.04v-1.46c0-.42.14-.77.42-1.04.28-.28.64-.41,1.07-.41h12.65v-3.3c0-.75-.13-1.37-.4-1.87s-.63-.91-1.09-1.24-1-.55-1.61-.68-1.26-.19-1.96-.19c-.56,0-1.13.05-1.71.15s-1.1.23-1.56.39l-1.49-3.79,11.86-11.66,3.18,3.11-7.49,7.38c1.98.32,3.61,1.17,4.86,2.55,1.26,1.38,1.89,3.33,1.89,5.85v6.7c0,.26-.1.49-.3.68-.2.19-.43.29-.69.29h-16.13c-.43,0-.79-.14-1.07-.41h-.01Z"/>
    <path d="M371.97,127.22v4.37h-3.23v3.4c0,1.07-.39,1.98-1.17,2.74-.78.76-1.71,1.14-2.8,1.14h-6.45c-1.22,0-2.38-.23-3.47-.68s-2.04-1.08-2.85-1.87-1.45-1.72-1.91-2.79c-.46-1.07-.69-2.2-.69-3.4v-6.31c0-.26.1-.49.3-.68.2-.19.43-.29.69-.29h2.48c.26,0,.5.1.69.29s.3.42.3.68v6.31c0,1.23.44,2.27,1.31,3.11.88.84,1.93,1.26,3.15,1.26h5.96v-28.66c0-.26.1-.49.3-.68.2-.19.43-.29.7-.29h2.48c.26,0,.5.1.7.29s.3.42.3.68v21.37h3.23-.02Z"/>
    <path d="M370.9,131.18c-.28-.28-.42-.62-.42-1.04v-1.46c0-.42.14-.77.42-1.04.28-.28.64-.41,1.07-.41h12.65v-3.3c0-.75-.13-1.37-.4-1.87s-.63-.91-1.09-1.24-1-.55-1.61-.68-1.26-.19-1.96-.19c-.56,0-1.13.05-1.71.15s-1.1.23-1.56.39l-1.49-3.79,11.86-11.66,3.18,3.11-7.49,7.38c1.98.32,3.61,1.17,4.86,2.55,1.26,1.38,1.89,3.33,1.89,5.85v3.3h3.23v4.37h-20.34c-.43,0-.79-.14-1.07-.41h-.02Z"/>
    <path d="M391.24,131.18c-.28-.28-.42-.62-.42-1.04v-1.46c0-.42.14-.77.42-1.04.28-.28.64-.41,1.07-.41h5.21v-10.69c0-.26.1-.49.3-.68s.43-.29.7-.29h2.48c.26,0,.5.1.7.29s.3.42.3.68v10.69h5.46v-10.69c0-.26.1-.49.3-.68.2-.19.43-.29.69-.29h2.48c.26,0,.5.1.69.29s.3.42.3.68v10.69h5.46v-10.69c0-.26.1-.49.3-.68s.43-.29.7-.29h2.48c.26,0,.5.1.7.29s.3.42.3.68v10.69h5.21v4.37h-34.73c-.43,0-.79-.14-1.07-.41h-.03ZM404.52,109.39c.53-.42,1.17-.63,1.94-.63s1.41.21,1.93.63.79.94.79,1.55-.26,1.13-.79,1.55-1.17.63-1.93.63-1.41-.21-1.94-.63-.79-.94-.79-1.55.26-1.13.79-1.55ZM407.74,104.54c.53-.42,1.17-.63,1.93-.63s1.41.21,1.94.63.79.94.79,1.55-.26,1.13-.79,1.55-1.17.63-1.94.63-1.41-.21-1.93-.63-.79-.94-.79-1.55.26-1.13.79-1.55ZM410.97,109.39c.53-.42,1.17-.63,1.93-.63s1.41.21,1.94.63.79.94.79,1.55-.26,1.13-.79,1.55-1.17.63-1.94.63-1.41-.21-1.93-.63-.79-.94-.79-1.55.27-1.13.79-1.55Z"/>
    <path d="M425.98,127.63c.28-.28.64-.41,1.07-.41h5.21v-10.69c0-.26.1-.49.3-.68s.43-.29.7-.29h2.48c.26,0,.5.1.7.29s.3.42.3.68v11.17c0,1.07-.39,1.98-1.17,2.74s-1.71,1.14-2.8,1.14h-5.71c-.43,0-.79-.14-1.07-.41-.28-.28-.42-.62-.42-1.04v-1.46c0-.42.14-.77.42-1.04h-.01ZM430.12,135.14c.53-.42,1.17-.63,1.94-.63s1.41.21,1.94.63.79.94.79,1.55-.26,1.13-.79,1.55-1.17.63-1.94.63-1.41-.21-1.94-.63-.79-.94-.79-1.55.26-1.13.79-1.55Z"/>
    <path d="M454.09,131.59c-1.79,0-3.06-.33-3.82-1-.76-.66-1.14-1.51-1.14-2.55,0-.78.2-1.65.6-2.62l2.73-6.75c.36-.91.97-1.65,1.81-2.23s1.78-.87,2.8-.87h7.44c.26,0,.5.1.69.29s.3.42.3.68v10.69h3.23v4.37h-14.64,0ZM454.64,108.42c.53-.42,1.17-.63,1.94-.63s1.41.21,1.93.63.79.94.79,1.55-.26,1.13-.79,1.55-1.17.63-1.93.63-1.41-.21-1.94-.63-.79-.94-.79-1.55.26-1.13.79-1.55ZM461.04,119.93h-4.27l-2.93,7.29h7.2v-7.29h0ZM461.09,108.42c.53-.42,1.17-.63,1.93-.63s1.41.21,1.94.63.79.94.79,1.55-.26,1.13-.79,1.55-1.17.63-1.94.63-1.41-.21-1.93-.63-.79-.94-.79-1.55.26-1.13.79-1.55Z"/>
    <path d="M467.66,131.18c-.28-.28-.42-.62-.42-1.04v-1.46c0-.42.14-.77.42-1.04.28-.28.64-.41,1.07-.41h3.23v-21.37c0-.26.1-.49.3-.68.2-.19.43-.29.69-.29h2.48c.26,0,.5.1.69.29.2.19.3.42.3.68v16.03l6.1-4.86c.53-.42,1.09-.77,1.69-1.04.6-.27,1.27-.41,2.04-.41h6.05c1.09,0,2.03.38,2.8,1.14.78.76,1.17,1.68,1.17,2.74v7.77h3.23v4.37h-30.77c-.43,0-.79-.14-1.07-.41h0ZM491.8,127.22v-7.29h-6.3l-9.18,7.29h15.48,0Z"/>
    <path d="M498.43,127.63c.28-.28.64-.41,1.07-.41h5.21v-10.69c0-.26.1-.49.3-.68s.43-.29.7-.29h2.48c.26,0,.5.1.7.29s.3.42.3.68v10.69h5.21v4.37h-14.89c-.43,0-.79-.14-1.07-.41-.28-.28-.42-.62-.42-1.04v-1.46c0-.42.14-.77.42-1.04h-.01ZM505,135.14c.53-.42,1.17-.63,1.94-.63s1.41.21,1.94.63.79.94.79,1.55-.26,1.13-.79,1.55-1.17.63-1.94.63-1.41-.21-1.94-.63-.79-.94-.79-1.55.26-1.13.79-1.55Z"/>
    <path d="M513.32,127.63c.28-.28.64-.41,1.07-.41h5.21v-10.69c0-.26.1-.49.3-.68s.43-.29.7-.29h2.48c.26,0,.5.1.7.29s.3.42.3.68v11.17c0,1.07-.39,1.98-1.17,2.74s-1.71,1.14-2.8,1.14h-5.71c-.43,0-.79-.14-1.07-.41-.28-.28-.42-.62-.42-1.04v-1.46c0-.42.14-.77.42-1.04h-.01ZM515.42,108.42c.53-.42,1.17-.63,1.94-.63s1.41.21,1.93.63.79.94.79,1.55-.26,1.13-.79,1.55-1.17.63-1.93.63-1.41-.21-1.94-.63-.79-.94-.79-1.55.26-1.13.79-1.55ZM521.88,108.42c.53-.42,1.17-.63,1.93-.63s1.41.21,1.94.63.79.94.79,1.55-.26,1.13-.79,1.55-1.17.63-1.94.63-1.41-.21-1.93-.63-.79-.94-.79-1.55.26-1.13.79-1.55Z"/>
    <path d="M524.38,135.31c.98.31,1.91.46,2.8.46s1.71-.29,2.36-.87c.65-.58.97-1.68.97-3.3v-15.06c0-.26.1-.49.3-.68s.43-.29.69-.29h2.48c.26,0,.5.1.69.29.2.19.3.42.3.68v10.69h3.23v4.37h-3.23c0,1.46-.17,2.7-.52,3.74-.35,1.04-.84,1.89-1.46,2.55-.63.66-1.37,1.15-2.23,1.46s-1.8.46-2.83.46c-1.16,0-2.37-.18-3.65-.53s-2.59-.86-3.95-1.51l1.44-3.45c.76.36,1.63.69,2.61,1h0Z"/>
    <path d="M537.14,131.18c-.28-.28-.42-.62-.42-1.04v-1.46c0-.42.14-.77.42-1.04.28-.28.64-.41,1.07-.41h3.23v-4.76c0-.97.22-1.84.67-2.6s1.04-1.4,1.79-1.92c.74-.52,1.6-.91,2.58-1.17.98-.26,1.99-.39,3.05-.39,1.29,0,2.57.2,3.85.61,1.27.4,2.42,1.03,3.45,1.87v8.26c0,1.07-.21,2.01-.62,2.82s-.96,1.48-1.64,2.02c-.68.53-1.46.93-2.36,1.19-.89.26-1.84.39-2.83.39-1.26,0-2.34-.17-3.25-.51s-1.89-.82-2.95-1.43h-4.96c-.43,0-.79-.14-1.07-.41v-.02ZM547.58,128.94c.59.15,1.19.22,1.79.22.79,0,1.49-.15,2.08-.44.6-.29.89-.75.89-1.36v-5.97c-.3-.16-.71-.31-1.24-.44-.53-.13-1.09-.19-1.69-.19-.86,0-1.66.18-2.41.53-.74.36-1.12.99-1.12,1.89v5.05c.53.32,1.09.56,1.69.7h0Z"/>
    <path d="M569.22,122.36c0-1.17.26-2.18.77-3.04s1.17-1.56,1.99-2.11c.81-.55,1.75-.96,2.8-1.24,1.06-.27,2.13-.41,3.23-.41,1.19,0,2.35.16,3.47.49,1.12.32,2.17.81,3.13,1.46v14.08h-15.38v-9.23h0ZM580.13,120.47c-1.09-.36-2-.53-2.73-.53-.99,0-1.86.23-2.61.68s-1.12,1.12-1.12,1.99v4.61h6.45v-6.75h0Z"/>
    <path d="M595.22,105.17c.2.19.3.42.3.68v24.77c0,.26-.1.49-.3.68s-.43.29-.69.29h-2.48c-.26,0-.5-.1-.69-.29-.2-.19-.3-.42-.3-.68v-24.77c0-.26.1-.49.3-.68s.43-.29.69-.29h2.48c.26,0,.5.1.69.29Z"/>
    <path d="M602.61,120.13c.43-1.04,1.01-1.89,1.74-2.57s1.57-1.18,2.53-1.51c.96-.32,1.99-.49,3.08-.49,1.26,0,2.51.2,3.77.61s2.46,1.01,3.62,1.82v9.23h3.23v4.37h-3.23c0,1.46-.17,2.7-.52,3.74s-.83,1.89-1.46,2.55-1.37,1.15-2.23,1.46c-.86.31-1.8.46-2.83.46-1.16,0-2.33-.18-3.52-.53-1.19-.36-2.46-.86-3.82-1.51l1.44-3.4c.79.36,1.63.66,2.51.92s1.73.39,2.56.39c.99,0,1.81-.28,2.46-.85.64-.57.97-1.64.97-3.23h-6.45c-1.26,0-2.32-.42-3.18-1.26s-1.29-1.88-1.29-3.11v-3.4c0-1.42.21-2.65.64-3.69h-.02ZM612.88,120.42c-.86-.32-1.8-.49-2.83-.49-.96,0-1.8.31-2.53.92s-1.09,1.6-1.09,2.96v3.4h6.45v-6.8h0Z"/>
    <path d="M619.51,127.63c.28-.28.64-.41,1.07-.41h4.07c-.3-.52-.51-1.08-.65-1.68-.13-.6-.2-1.22-.2-1.87,0-.94.16-1.89.47-2.87.31-.97.81-1.85,1.49-2.62.68-.78,1.55-1.41,2.61-1.89,1.06-.49,2.32-.73,3.77-.73h3.57c1.09,0,2.03.38,2.8,1.14.78.76,1.17,1.68,1.17,2.74v11.17c0,.26-.1.49-.3.68s-.43.29-.69.29h-18.11c-.43,0-.79-.14-1.07-.41-.28-.28-.42-.62-.42-1.04v-1.46c0-.42.14-.77.42-1.04h0ZM626.58,108.42c.53-.42,1.17-.63,1.94-.63s1.41.21,1.94.63.79.94.79,1.55-.26,1.13-.79,1.55-1.17.63-1.94.63-1.41-.21-1.94-.63-.79-.94-.79-1.55.26-1.13.79-1.55ZM629.31,120.98c-.69.7-1.04,1.56-1.04,2.6,0,.94.33,1.78.99,2.53s1.52,1.12,2.58,1.12h3.38v-7.29h-3.38c-.99,0-1.84.35-2.53,1.04ZM633.03,108.42c.53-.42,1.17-.63,1.94-.63s1.41.21,1.93.63.79.94.79,1.55-.26,1.13-.79,1.55-1.17.63-1.93.63-1.41-.21-1.94-.63-.79-.94-.79-1.55.26-1.13.79-1.55Z"/>
    <path d="M189.7,145.97c.2.19.3.42.3.68v24.77c0,.26-.1.49-.3.68-.2.19-.43.29-.69.29h-2.48c-.26,0-.5-.1-.69-.29-.2-.19-.3-.42-.3-.68v-24.77c0-.26.1-.49.3-.68.2-.19.43-.29.69-.29h2.48c.26,0,.5.1.69.29Z"/>
    <path d="M202.06,139.27v1.41l-8.78,1.36v-1.36l8.78-1.41ZM202.06,142.08v1.36l-8.78,1.41v-1.41l8.78-1.36Z"/>
    <path d="M190.32,176.11c.98.31,1.91.46,2.8.46s1.71-.29,2.36-.87.97-1.68.97-3.3v-15.06c0-.26.1-.49.3-.68.2-.19.43-.29.69-.29h2.48c.26,0,.5.1.69.29.2.19.3.42.3.68v10.69h3.23v4.37h-3.23c0,1.46-.17,2.7-.52,3.74-.35,1.04-.83,1.89-1.46,2.55s-1.37,1.15-2.23,1.46c-.86.31-1.8.46-2.83.46-1.16,0-2.37-.18-3.65-.53-1.27-.36-2.59-.86-3.94-1.51l1.44-3.45c.76.36,1.63.69,2.6,1h0ZM196.75,149.22c.53-.42,1.17-.63,1.94-.63s1.41.21,1.94.63.79.94.79,1.55-.26,1.13-.79,1.55-1.17.63-1.94.63-1.41-.21-1.94-.63-.79-.94-.79-1.55.26-1.13.79-1.55Z"/>
    <path d="M203.07,168.43c.28-.28.64-.41,1.07-.41h5.21v-10.69c0-.26.1-.49.3-.68.2-.19.43-.29.69-.29h2.48c.26,0,.5.1.69.29.2.19.3.42.3.68v10.69h5.21v4.37h-14.89c-.43,0-.79-.14-1.07-.41s-.42-.62-.42-1.04v-1.46c0-.42.14-.77.42-1.04h0ZM204.93,175.94c.53-.42,1.17-.63,1.94-.63s1.41.21,1.94.63.79.94.79,1.55-.26,1.13-.79,1.55-1.17.63-1.94.63-1.41-.21-1.94-.63-.79-.94-.79-1.55.26-1.13.79-1.55ZM211.38,175.94c.53-.42,1.17-.63,1.94-.63s1.41.21,1.94.63.79.94.79,1.55-.26,1.13-.79,1.55-1.17.63-1.94.63-1.41-.21-1.94-.63-.79-.94-.79-1.55.26-1.13.79-1.55Z"/>
    <path d="M217.96,171.98c-.28-.28-.42-.62-.42-1.04v-1.46c0-.42.14-.77.42-1.04.28-.28.64-.41,1.07-.41h12.65v-3.3c0-.75-.13-1.37-.4-1.87s-.63-.91-1.09-1.24c-.46-.32-1-.55-1.61-.68-.61-.13-1.27-.19-1.96-.19-.56,0-1.13.05-1.71.15-.58.1-1.1.23-1.56.39l-1.49-3.79,11.86-11.66,3.18,3.11-7.49,7.38c1.98.32,3.61,1.17,4.86,2.55,1.26,1.38,1.89,3.33,1.89,5.85v6.7c0,.26-.1.49-.3.68-.2.19-.43.29-.69.29h-16.13c-.43,0-.79-.14-1.07-.41h0Z"/>
    <path d="M236.47,176.11c.98.31,1.91.46,2.8.46s1.71-.29,2.36-.87.97-1.68.97-3.3v-15.06c0-.26.1-.49.3-.68.2-.19.43-.29.69-.29h2.48c.26,0,.5.1.69.29.2.19.3.42.3.68v10.69h3.23v4.37h-3.23c0,1.46-.17,2.7-.52,3.74-.35,1.04-.83,1.89-1.46,2.55s-1.37,1.15-2.23,1.46c-.86.31-1.8.46-2.83.46-1.16,0-2.37-.18-3.65-.53-1.27-.36-2.59-.86-3.94-1.51l1.44-3.45c.76.36,1.63.69,2.6,1h0Z"/>
    <path d="M249.22,168.43c.28-.28.64-.41,1.07-.41h5.21v-10.69c0-.26.1-.49.3-.68.2-.19.43-.29.69-.29h2.48c.26,0,.5.1.69.29.2.19.3.42.3.68v11.17c0,1.07-.39,1.98-1.17,2.74s-1.71,1.14-2.8,1.14h-5.71c-.43,0-.79-.14-1.07-.41s-.42-.62-.42-1.04v-1.46c0-.42.14-.77.42-1.04h.01ZM251.33,149.22c.53-.42,1.17-.63,1.94-.63s1.41.21,1.94.63.79.94.79,1.55-.26,1.13-.79,1.55-1.17.63-1.94.63-1.41-.21-1.94-.63-.79-.94-.79-1.55.26-1.13.79-1.55ZM257.78,149.22c.53-.42,1.17-.63,1.94-.63s1.41.21,1.94.63.79.94.79,1.55-.26,1.13-.79,1.55-1.17.63-1.94.63-1.41-.21-1.94-.63-.79-.94-.79-1.55.26-1.13.79-1.55Z"/>
    <path d="M271.21,176.11c.98.31,1.91.46,2.8.46s1.71-.29,2.36-.87.97-1.68.97-3.3v-15.06c0-.26.1-.49.3-.68s.43-.29.69-.29h2.48c.26,0,.5.1.69.29.2.19.3.42.3.68v10.69h3.23v4.37h-3.23c0,1.46-.17,2.7-.52,3.74-.35,1.04-.84,1.89-1.46,2.55-.63.66-1.37,1.15-2.23,1.46s-1.8.46-2.83.46c-1.16,0-2.37-.18-3.65-.53s-2.59-.86-3.94-1.51l1.44-3.45c.76.36,1.63.69,2.61,1h0Z"/>
    <path d="M283.96,168.43c.28-.28.64-.41,1.07-.41h5.21v-10.69c0-.26.1-.49.3-.68s.43-.29.7-.29h2.48c.26,0,.5.1.7.29.2.19.3.42.3.68v10.69h5.21v4.37h-14.89c-.43,0-.79-.14-1.07-.41-.28-.28-.42-.62-.42-1.04v-1.46c0-.42.14-.77.42-1.04h0ZM286.07,150.19c.53-.42,1.17-.63,1.94-.63s1.41.21,1.93.63c.53.42.79.94.79,1.55s-.26,1.13-.79,1.55-1.17.63-1.93.63-1.41-.21-1.94-.63-.79-.94-.79-1.55.26-1.13.79-1.55ZM289.29,145.34c.53-.42,1.17-.63,1.94-.63s1.41.21,1.93.63.79.94.79,1.55-.26,1.13-.79,1.55-1.17.63-1.93.63-1.41-.21-1.94-.63-.79-.94-.79-1.55.26-1.13.79-1.55ZM292.52,150.19c.53-.42,1.17-.63,1.93-.63s1.41.21,1.94.63.79.94.79,1.55-.26,1.13-.79,1.55-1.17.63-1.94.63-1.41-.21-1.93-.63-.79-.94-.79-1.55.26-1.13.79-1.55Z"/>
    <path d="M298.85,171.98c-.28-.28-.42-.62-.42-1.04v-1.46c0-.42.14-.77.42-1.04.28-.28.64-.41,1.07-.41h12.65v-3.3c0-.75-.13-1.37-.4-1.87s-.63-.91-1.09-1.24-1-.55-1.61-.68c-.61-.13-1.26-.19-1.96-.19-.56,0-1.13.05-1.71.15-.58.1-1.1.23-1.56.39l-1.49-3.79,11.86-11.66,3.18,3.11-7.49,7.38c1.98.32,3.61,1.17,4.86,2.55,1.26,1.38,1.89,3.33,1.89,5.85v6.7c0,.26-.1.49-.3.68-.2.19-.43.29-.69.29h-16.13c-.43,0-.79-.14-1.07-.41h-.01Z"/>
    <path d="M327.18,140.21c-.25-.08-.49-.12-.72-.12-.26,0-.49.06-.67.19-.18.13-.27.36-.27.68,0,.26.12.5.35.73s.58.34,1.04.34h1.89v2.19h-6.15v-2.19h1.19c-.46-.39-.69-.89-.69-1.51,0-.74.3-1.33.89-1.75s1.29-.63,2.08-.63c.46,0,.93.09,1.41.27.48.18.88.4,1.22.66l-.94,1.46c-.17-.13-.37-.24-.62-.32h-.01ZM327.65,145.97c.2.19.3.42.3.68v24.77c0,.26-.1.49-.3.68s-.43.29-.69.29h-2.48c-.26,0-.5-.1-.69-.29-.2-.19-.3-.42-.3-.68v-24.77c0-.26.1-.49.3-.68.2-.19.43-.29.69-.29h2.48c.26,0,.5.1.69.29Z"/>
    <path d="M358.54,176.11c-.78.76-1.71,1.14-2.8,1.14h-6.45c-1.22,0-2.38-.23-3.47-.68s-2.04-1.08-2.85-1.87-1.45-1.72-1.91-2.79-.69-2.2-.69-3.4v-6.31c0-.26.1-.49.3-.68.2-.19.43-.29.69-.29h2.48c.26,0,.5.1.69.29.2.19.3.42.3.68v6.31c0,1.2.44,2.23,1.31,3.08.88.86,1.93,1.29,3.15,1.29h5.96v-15.54c0-.26.1-.49.3-.68.2-.19.43-.29.7-.29h2.48c.26,0,.5.1.7.29s.3.42.3.68v16.03c0,1.07-.39,1.98-1.17,2.74h-.02ZM348.1,149.22c.53-.42,1.17-.63,1.93-.63s1.41.21,1.94.63.79.94.79,1.55-.26,1.13-.79,1.55-1.17.63-1.94.63-1.41-.21-1.93-.63-.79-.94-.79-1.55.26-1.13.79-1.55Z"/>
    <path d="M370.33,145.97c.2.19.3.42.3.68v21.37h3.23v4.37h-6.7c-.26,0-.5-.1-.69-.29-.2-.19-.3-.42-.3-.68v-24.77c0-.26.1-.49.3-.68.2-.19.43-.29.69-.29h2.48c.26,0,.5.1.69.29Z"/>
    <path d="M372.78,171.98c-.28-.28-.42-.62-.42-1.04v-1.46c0-.42.14-.77.42-1.04.28-.28.64-.41,1.07-.41h12.65v-3.3c0-.75-.13-1.37-.4-1.87s-.63-.91-1.09-1.24-1-.55-1.61-.68c-.61-.13-1.26-.19-1.96-.19-.56,0-1.13.05-1.71.15-.58.1-1.1.23-1.56.39l-1.49-3.79,11.86-11.66,3.18,3.11-7.49,7.38c1.98.32,3.61,1.17,4.86,2.55,1.26,1.38,1.89,3.33,1.89,5.85v6.7c0,.26-.1.49-.3.68-.2.19-.43.29-.69.29h-16.13c-.43,0-.79-.14-1.07-.41h-.01Z"/>
    <path d="M407.54,145.97c.2.19.3.42.3.68v21.37h3.23v4.37h-6.7c-.26,0-.5-.1-.69-.29-.2-.19-.3-.42-.3-.68v-24.77c0-.26.1-.49.3-.68.2-.19.43-.29.69-.29h2.48c.26,0,.5.1.69.29Z"/>
    <path d="M410,168.43c.28-.28.64-.41,1.07-.41h3.23v-3.5c0-1.23.21-2.31.64-3.23.43-.92,1-1.68,1.71-2.28s1.53-1.05,2.46-1.36,1.89-.46,2.88-.46,1.94.15,2.85.44c.91.29,1.73.74,2.46,1.33.73.6,1.31,1.35,1.74,2.26.43.91.65,1.96.65,3.16v3.64h3.22v4.37h-5.11c-.73.78-1.61,1.38-2.66,1.8s-2.11.63-3.2.63-2.14-.2-3.15-.61c-1.01-.4-1.88-1.01-2.6-1.82h-5.11c-.43,0-.79-.14-1.07-.41-.28-.28-.42-.62-.42-1.04v-1.46c0-.42.14-.77.42-1.04h-.01ZM419.78,169.96c.68.32,1.41.49,2.21.49s1.57-.16,2.23-.49c.66-.32.99-.81.99-1.46v-4.37c0-.87-.33-1.52-.99-1.94s-1.41-.63-2.23-.63-1.53.21-2.21.63-1.02,1.07-1.02,1.94v4.37c0,.65.34,1.13,1.02,1.46Z"/>
    <path d="M431.83,168.43c.28-.28.64-.41,1.07-.41h3.23v-21.37c0-.26.1-.49.3-.68.2-.19.43-.29.69-.29h2.48c.26,0,.5.1.69.29.2.19.3.42.3.68v21.37h3.23v4.37h-10.92c-.43,0-.79-.14-1.07-.41-.28-.28-.42-.62-.42-1.04v-1.46c0-.42.14-.77.42-1.04h0Z"/>
    <path d="M442.75,171.98c-.28-.28-.42-.62-.42-1.04v-1.46c0-.42.14-.77.42-1.04.28-.28.64-.41,1.07-.41h12.65v-3.3c0-.75-.13-1.37-.4-1.87s-.63-.91-1.09-1.24-1-.55-1.61-.68c-.61-.13-1.26-.19-1.96-.19-.56,0-1.13.05-1.71.15-.58.1-1.1.23-1.56.39l-1.49-3.79,11.86-11.66,3.18,3.11-7.49,7.38c1.98.32,3.61,1.17,4.86,2.55,1.26,1.38,1.89,3.33,1.89,5.85v3.3h3.23v4.37h-20.34c-.43,0-.79-.14-1.07-.41h-.02Z"/>
    <path d="M463.1,168.43c.28-.28.64-.41,1.07-.41h4.07c-.3-.52-.51-1.08-.65-1.68-.13-.6-.2-1.22-.2-1.87,0-.94.16-1.89.47-2.87.31-.97.81-1.85,1.49-2.62.68-.78,1.55-1.41,2.61-1.89,1.06-.49,2.32-.73,3.77-.73h3.57c1.09,0,2.03.38,2.8,1.14.78.76,1.17,1.68,1.17,2.74v11.17c0,.26-.1.49-.3.68s-.43.29-.69.29h-18.11c-.43,0-.79-.14-1.07-.41-.28-.28-.42-.62-.42-1.04v-1.46c0-.42.14-.77.42-1.04h0ZM472.9,161.78c-.69.7-1.04,1.56-1.04,2.6,0,.94.33,1.78.99,2.53s1.52,1.12,2.58,1.12h3.38v-7.29h-3.38c-.99,0-1.84.35-2.53,1.04h0ZM473.39,149.22c.53-.42,1.17-.63,1.94-.63s1.41.21,1.93.63.79.94.79,1.55-.27,1.13-.79,1.55-1.17.63-1.93.63-1.41-.21-1.94-.63-.79-.94-.79-1.55.26-1.13.79-1.55Z"/>
    <path d="M500.41,162.19c-.88-.32-1.61-.76-2.21-1.31s-1.04-1.19-1.34-1.92-.45-1.51-.45-2.36c0-1.36.42-2.78,1.27-4.25.84-1.47,2.14-2.83,3.9-4.06l1.39,1.99c-1.06.74-1.82,1.52-2.28,2.33s-.69,1.55-.69,2.23c0,.84.31,1.55.92,2.14.61.58,1.46.91,2.55.97v4.71c-1.16,0-2.17-.16-3.05-.49v.02ZM497.71,172.1c-.2-.19-.3-.42-.3-.68v-3.88c0-.26.1-.49.3-.68s.43-.29.7-.29h3.97c.27,0,.5.1.7.29s.3.42.3.68v3.88c0,.26-.1.49-.3.68s-.43.29-.7.29h-3.97c-.27,0-.5-.1-.7-.29Z"/>
    <path d="M531.35,168.02c-.3-.52-.51-1.08-.65-1.68-.13-.6-.2-1.22-.2-1.87,0-.94.16-1.89.47-2.87.31-.97.81-1.85,1.49-2.62.68-.78,1.55-1.41,2.61-1.89,1.06-.49,2.32-.73,3.77-.73h3.57c1.09,0,2.03.37,2.8,1.12.78.74,1.17,1.67,1.17,2.77v7.77h3.23v4.37h-34.98c-1.12,0-2.07-.38-2.83-1.14-.76-.76-1.14-1.68-1.14-2.74v-11.17c0-.26.1-.49.3-.68.2-.19.43-.29.69-.29h2.48c.26,0,.5.1.69.29s.3.42.3.68v10.69h16.23ZM541.92,160.73h-3.38c-.99,0-1.84.35-2.53,1.04s-1.04,1.56-1.04,2.6.35,1.86,1.04,2.57,1.54,1.07,2.53,1.07h3.38v-7.29h0ZM536.81,149.22c.53-.42,1.17-.63,1.94-.63s1.41.21,1.93.63.79.94.79,1.55-.26,1.13-.79,1.55-1.17.63-1.93.63-1.41-.21-1.94-.63-.79-.94-.79-1.55.26-1.13.79-1.55Z"/>
    <path d="M548.55,171.98c-.28-.28-.42-.62-.42-1.04v-1.46c0-.42.14-.77.42-1.04.28-.28.64-.41,1.07-.41h3.23v-21.37c0-.26.1-.49.3-.68.2-.19.43-.29.69-.29h2.48c.26,0,.5.1.69.29.2.19.3.42.3.68v16.03l6.1-4.86c.53-.42,1.09-.77,1.69-1.04.59-.27,1.27-.41,2.03-.41h6.05c1.09,0,2.03.38,2.8,1.14.78.76,1.17,1.68,1.17,2.74v8.26c0,1.07-.39,1.98-1.17,2.74s-1.71,1.14-2.8,1.14h-23.57c-.43,0-.79-.14-1.07-.41h.01ZM572.69,168.02v-7.29h-6.3l-9.18,7.29h15.48Z"/>
    <path d="M587.77,145.97c.2.19.3.42.3.68v24.77c0,.26-.1.49-.3.68s-.43.29-.69.29h-2.48c-.26,0-.5-.1-.69-.29-.2-.19-.3-.42-.3-.68v-24.77c0-.26.1-.49.3-.68.2-.19.43-.29.69-.29h2.48c.26,0,.5.1.69.29Z"/>
    <path d="M595.17,160.93c.43-1.04,1.01-1.89,1.74-2.57.73-.68,1.57-1.18,2.53-1.51.96-.32,1.99-.49,3.08-.49,1.26,0,2.51.2,3.77.61s2.46,1.01,3.62,1.82v9.23h3.23v4.37h-3.23c0,1.46-.17,2.7-.52,3.74s-.83,1.89-1.46,2.55-1.37,1.15-2.23,1.46c-.86.31-1.8.46-2.83.46-1.16,0-2.33-.18-3.52-.53-1.19-.36-2.46-.86-3.82-1.51l1.44-3.4c.79.36,1.63.66,2.51.92s1.73.39,2.56.39c.99,0,1.81-.28,2.46-.85.64-.57.97-1.64.97-3.23h-6.45c-1.26,0-2.32-.42-3.18-1.26s-1.29-1.88-1.29-3.11v-3.4c0-1.42.21-2.66.64-3.69h-.02ZM605.44,161.22c-.86-.32-1.8-.49-2.83-.49-.96,0-1.8.31-2.53.92s-1.09,1.6-1.09,2.96v3.4h6.45v-6.8h0Z"/>
    <path d="M612.07,168.43c.28-.28.64-.41,1.07-.41h6.7l-2.93-4.95c-.2-.32-.34-.69-.42-1.09s-.12-.8-.12-1.19c0-.55.08-1.09.25-1.63s.41-1,.74-1.41c.33-.4.74-.74,1.24-1s1.08-.39,1.74-.39h10.42c.66,0,1.24.13,1.74.39s.91.59,1.24,1,.58.87.74,1.41c.17.53.25,1.08.25,1.63,0,.39-.04.78-.12,1.17s-.22.76-.42,1.12l-2.88,4.95h6.65v4.37h-24.81c-.43,0-.79-.14-1.07-.41-.28-.28-.42-.62-.42-1.04v-1.46c0-.42.14-.77.42-1.04v-.02ZM620.72,160.73l4.52,7.29h.55l4.62-7.29h-9.69Z"/>
    <path d="M641.17,146.65c0-.26.1-.49.3-.68.2-.19.43-.29.69-.29h2.48c.26,0,.5.1.69.29.2.19.3.42.3.68v21.86c0,1.07-.39,1.98-1.17,2.74s-1.71,1.14-2.8,1.14h-3.72c-.43,0-.79-.14-1.07-.41-.28-.28-.42-.62-.42-1.04v-1.46c0-.42.14-.77.42-1.04.28-.28.64-.41,1.07-.41h3.23v-21.37h0Z"/>
    <path d="M315.54,213.19c-1.79,0-3.06-.33-3.82-1-.76-.66-1.14-1.51-1.14-2.55,0-.78.2-1.65.6-2.62l2.73-6.75c.36-.91.97-1.65,1.81-2.23s1.78-.87,2.8-.87h7.44c.26,0,.5.1.69.29s.3.42.3.68v10.69h3.23v4.37h-14.64,0ZM322.49,201.53h-4.27l-2.93,7.29h7.2v-7.29h0Z"/>
    <path d="M329.12,209.23c.28-.28.64-.41,1.07-.41h5.21v-10.69c0-.26.1-.49.3-.68s.43-.29.7-.29h2.48c.26,0,.5.1.7.29.2.19.3.42.3.68v11.17c0,1.07-.39,1.98-1.17,2.74s-1.71,1.14-2.8,1.14h-5.71c-.43,0-.79-.14-1.07-.41-.28-.28-.42-.62-.42-1.04v-1.46c0-.42.14-.77.42-1.04h-.01ZM331.22,190.02c.53-.42,1.17-.63,1.94-.63s1.41.21,1.93.63.79.94.79,1.55-.26,1.13-.79,1.55-1.17.63-1.93.63-1.41-.21-1.94-.63-.79-.94-.79-1.55.26-1.13.79-1.55ZM337.68,190.02c.53-.42,1.17-.63,1.93-.63s1.41.21,1.94.63.79.94.79,1.55-.26,1.13-.79,1.55-1.17.63-1.94.63-1.41-.21-1.93-.63-.79-.94-.79-1.55.26-1.13.79-1.55Z"/>
    <path d="M346.95,201.73c.43-1.04,1.01-1.89,1.74-2.57.73-.68,1.57-1.18,2.53-1.51.96-.32,1.99-.49,3.08-.49,1.26,0,2.51.2,3.77.61,1.26.41,2.46,1.01,3.62,1.82v9.23h3.23v4.37h-3.23c0,1.46-.17,2.7-.52,3.74s-.83,1.89-1.46,2.55-1.37,1.15-2.23,1.46c-.86.31-1.8.46-2.83.46-1.16,0-2.33-.18-3.52-.53-1.19-.36-2.46-.86-3.82-1.51l1.44-3.4c.79.36,1.63.66,2.51.92s1.73.39,2.56.39c.99,0,1.81-.28,2.46-.85.64-.57.97-1.64.97-3.23h-6.45c-1.26,0-2.32-.42-3.18-1.26s-1.29-1.88-1.29-3.11v-3.4c0-1.42.21-2.65.64-3.69h-.02ZM357.23,202.02c-.86-.32-1.8-.49-2.83-.49-.96,0-1.8.31-2.53.92s-1.09,1.6-1.09,2.96v3.4h6.45v-6.8h0Z"/>
    <path d="M363.85,209.23c.28-.28.64-.41,1.07-.41h4.07c-.3-.52-.51-1.08-.65-1.68-.13-.6-.2-1.22-.2-1.87,0-.94.16-1.89.47-2.87.31-.97.81-1.85,1.49-2.62.68-.78,1.55-1.41,2.61-1.89,1.06-.49,2.32-.73,3.77-.73h3.57c1.09,0,2.03.38,2.8,1.14.78.76,1.17,1.68,1.17,2.74v11.17c0,.26-.1.49-.3.68s-.43.29-.69.29h-18.11c-.43,0-.79-.14-1.07-.41-.28-.28-.42-.62-.42-1.04v-1.46c0-.42.14-.77.42-1.04h0ZM370.92,190.02c.53-.42,1.17-.63,1.94-.63s1.41.21,1.94.63.79.94.79,1.55-.26,1.13-.79,1.55-1.17.63-1.94.63-1.41-.21-1.94-.63-.79-.94-.79-1.55.26-1.13.79-1.55ZM373.65,202.58c-.69.7-1.04,1.56-1.04,2.6,0,.94.33,1.78.99,2.53s1.52,1.12,2.58,1.12h3.38v-7.29h-3.38c-.99,0-1.84.35-2.53,1.04h0ZM377.37,190.02c.53-.42,1.17-.63,1.94-.63s1.41.21,1.93.63.79.94.79,1.55-.26,1.13-.79,1.55-1.17.63-1.93.63-1.41-.21-1.94-.63-.79-.94-.79-1.55.26-1.13.79-1.55Z"/>
    <path d="M427.02,212.05c-.78.76-1.71,1.14-2.8,1.14h-23.82c-1.09,0-2.03-.38-2.8-1.14s-1.17-1.68-1.17-2.74v-11.17c0-.26.1-.49.3-.68.2-.19.43-.29.69-.29h2.48c.26,0,.5.1.69.29s.3.42.3.68v10.69h22.83v-10.69c0-.26.1-.49.3-.68.2-.19.43-.29.69-.29h2.48c.26,0,.5.1.69.29s.3.42.3.68v11.17c0,1.07-.39,1.98-1.17,2.74h.01ZM407.15,190.02c.53-.42,1.17-.63,1.94-.63s1.41.21,1.94.63.79.94.79,1.55-.26,1.13-.79,1.55-1.17.63-1.94.63-1.41-.21-1.94-.63-.79-.94-.79-1.55.26-1.13.79-1.55ZM413.6,190.02c.53-.42,1.17-.63,1.94-.63s1.41.21,1.93.63.79.94.79,1.55-.26,1.13-.79,1.55-1.17.63-1.93.63-1.41-.21-1.94-.63-.79-.94-.79-1.55.26-1.13.79-1.55Z"/>
    <path d="M437.32,195.46c.93-.16,1.84-.24,2.73-.24,1.22,0,2.35.17,3.38.51s1.92.87,2.68,1.58c.76.71,1.36,1.62,1.79,2.72.43,1.1.64,2.41.64,3.93v8.26c0,.26-.1.49-.3.68-.2.19-.43.29-.69.29h-14.14v-4.37h10.67v-4.86c0-.78-.14-1.44-.42-1.99s-.65-1-1.12-1.33-1.01-.58-1.64-.73-1.29-.22-1.98-.22c-.56,0-1.14.05-1.74.15-.59.1-1.16.24-1.69.44l-1.09-4.08c1.03-.32,2-.57,2.93-.73h-.01Z"/>
    <path d="M459.15,186.77c.2.19.3.42.3.68v24.77c0,.26-.1.49-.3.68s-.43.29-.69.29h-2.48c-.26,0-.5-.1-.69-.29-.2-.19-.3-.42-.3-.68v-24.77c0-.26.1-.49.3-.68.2-.19.43-.29.69-.29h2.48c.26,0,.5.1.69.29Z"/>
    <path d="M468.58,195.46c.93-.16,1.84-.24,2.73-.24,1.22,0,2.35.17,3.38.51s1.92.87,2.68,1.58c.76.71,1.36,1.62,1.79,2.72.43,1.1.64,2.41.64,3.93v8.26c0,.26-.1.49-.3.68-.2.19-.43.29-.69.29h-14.14v-4.37h10.67v-4.86c0-.78-.14-1.44-.42-1.99s-.65-1-1.12-1.33-1.01-.58-1.64-.73-1.29-.22-1.98-.22c-.56,0-1.14.05-1.74.15-.6.1-1.16.24-1.69.44l-1.09-4.08c1.03-.32,2-.57,2.93-.73h-.01Z"/>
    <path d="M486.54,197.45c.2-.19.43-.29.69-.29h2.48c.26,0,.5.1.69.29.2.19.3.42.3.68v15.06c0,1.46-.17,2.7-.52,3.72-.35,1.02-.84,1.86-1.46,2.53-.63.66-1.37,1.15-2.23,1.46s-1.8.46-2.83.46c-1.16,0-2.37-.17-3.65-.51s-2.59-.83-3.94-1.48l1.44-3.45c.76.36,1.63.68,2.61.97.98.29,1.93.44,2.85.44.46,0,.89-.06,1.29-.19s.74-.35,1.04-.66.53-.73.69-1.26.25-1.21.25-2.02v-15.06c0-.26.1-.49.3-.68h0ZM486.54,190.02c.53-.42,1.17-.63,1.94-.63s1.41.21,1.93.63.79.94.79,1.55-.26,1.13-.79,1.55-1.17.63-1.93.63-1.41-.21-1.94-.63-.79-.94-.79-1.55.26-1.13.79-1.55Z"/>
    <path d="M500.83,186.77c.2.19.3.42.3.68v24.77c0,.26-.1.49-.3.68s-.43.29-.69.29h-2.48c-.26,0-.5-.1-.69-.29-.2-.19-.3-.42-.3-.68v-24.77c0-.26.1-.49.3-.68.2-.19.43-.29.69-.29h2.48c.26,0,.5.1.69.29Z"/>
    <path d="M518.28,212.71c-.88-.32-1.61-.76-2.21-1.31-.59-.55-1.04-1.19-1.34-1.92s-.45-1.51-.45-2.36c0-1.36.42-2.78,1.27-4.25.84-1.47,2.14-2.82,3.89-4.05l1.39,1.99c-1.12.78-1.9,1.57-2.33,2.38s-.65,1.54-.65,2.19c0,.91.31,1.66.94,2.26.63.6,1.47.93,2.53,1v4.57c-1.16,0-2.17-.16-3.05-.49h.01Z"/>
    <path d="M532.69,186.77c.2.19.3.42.3.68v24.77c0,.26-.1.49-.3.68s-.43.29-.69.29h-2.48c-.26,0-.5-.1-.69-.29-.2-.19-.3-.42-.3-.68v-24.77c0-.26.1-.49.3-.68.2-.19.43-.29.69-.29h2.48c.26,0,.5.1.69.29Z"/>
    <path d="M549.12,187.35v1.41l-8.78,1.36v-1.36l8.78-1.41ZM549.12,190.17v1.36l-8.78,1.41v-1.41l8.78-1.36Z"/>
    <path d="M539.14,212.9c-.2-.19-.3-.42-.3-.68v-1.94c0-.26.1-.49.3-.68s.43-.29.69-.29h2.48c-.79-1.17-1.41-2.23-1.84-3.21-.43-.97-.65-1.98-.65-3.01,0-.87.14-1.6.42-2.19s.65-1.04,1.09-1.38.96-.58,1.54-.7c.58-.13,1.18-.19,1.81-.19,1.09,0,2.21.17,3.35.51,1.14.34,2.14.77,3,1.29l-1.54,3.06c-.26-.16-.75-.36-1.46-.58-.71-.23-1.41-.34-2.11-.34-.43,0-.8.08-1.12.24s-.47.5-.47,1.02c0,.49.15,1.01.45,1.58s.63,1.11.99,1.63.73.99,1.09,1.41c.36.42.59.71.69.87h3.92c.26,0,.5.1.7.29.2.19.3.42.3.68v1.94c0,.26-.1.49-.3.68-.2.19-.43.29-.7.29h-11.66c-.26,0-.5-.1-.69-.29h.02Z"/>
    <path d="M558.94,201.73c.43-1.04,1.01-1.89,1.74-2.57.73-.68,1.57-1.18,2.53-1.51.96-.32,1.99-.49,3.08-.49,1.26,0,2.51.2,3.77.61s2.46,1.01,3.62,1.82v13.6c0,1.46-.17,2.7-.52,3.74s-.83,1.89-1.46,2.55-1.37,1.15-2.23,1.46c-.86.31-1.8.46-2.83.46-1.16,0-2.33-.18-3.52-.53-1.19-.36-2.46-.86-3.82-1.51l1.44-3.4c.79.36,1.63.66,2.51.92s1.73.39,2.55.39c.99,0,1.81-.28,2.46-.85.64-.57.97-1.64.97-3.23h-6.45c-1.26,0-2.32-.42-3.18-1.26s-1.29-1.88-1.29-3.11v-3.4c0-1.42.21-2.65.64-3.69h-.01ZM569.22,202.02c-.86-.32-1.8-.49-2.83-.49-.96,0-1.8.31-2.53.92s-1.09,1.6-1.09,2.96v3.4h6.45v-6.8h0Z"/>
    <path d="M589.56,208.82v-4.86c0-.78-.14-1.44-.42-1.99-.28-.55-.65-1-1.12-1.33s-1.01-.58-1.64-.73-1.29-.22-1.98-.22c-.56,0-1.14.05-1.74.15-.59.1-1.16.24-1.69.44l-1.09-4.08c1.03-.32,2-.57,2.93-.73.93-.16,1.84-.24,2.73-.24,1.22,0,2.35.17,3.38.51s1.92.87,2.68,1.58,1.36,1.62,1.79,2.72.64,2.41.64,3.93v4.86h3.23v4.37h-18.36v-4.37h10.67,0Z"/>
    <path d="M596.19,209.23c.28-.28.64-.41,1.07-.41h4.07c-.3-.55-.51-1.14-.65-1.77-.13-.63-.2-1.25-.2-1.87,0-.97.17-1.93.5-2.89s.83-1.81,1.51-2.57c.68-.76,1.54-1.38,2.58-1.85s2.27-.7,3.7-.7h1.64l-.74-2.91c.89-.29,1.8-.52,2.73-.68.93-.16,1.84-.24,2.73-.24,1.16,0,2.27.15,3.32.46s1.98.81,2.78,1.51,1.42,1.59,1.89,2.7c.46,1.1.7,2.44.7,4.03v10.2c0,.26-.1.49-.3.68s-.43.29-.7.29h-25.55c-.43,0-.79-.14-1.07-.41-.28-.28-.42-.62-.42-1.04v-1.46c0-.42.14-.77.42-1.04v-.03ZM610.4,201.53h-1.79c-.99,0-1.85.35-2.58,1.04s-1.09,1.56-1.09,2.6.36,1.9,1.09,2.6c.73.7,1.59,1.04,2.58,1.04h1.79v-7.29h0ZM618.89,199.81c-.3-.57-.71-1-1.24-1.31s-1.16-.51-1.89-.61c-.73-.1-1.5-.15-2.33-.15.46.39.84.87,1.14,1.43.3.57.45,1.19.45,1.87v7.77h4.32v-6.8c0-.91-.15-1.64-.45-2.21h0Z"/>
    <path d="M630.9,201.73c.43-1.04,1.01-1.89,1.74-2.57.73-.68,1.57-1.18,2.53-1.51.96-.32,1.99-.49,3.08-.49,1.26,0,2.51.2,3.77.61s2.46,1.01,3.62,1.82v13.6c0,1.46-.17,2.7-.52,3.74s-.83,1.89-1.46,2.55-1.37,1.15-2.23,1.46c-.86.31-1.8.46-2.83.46-1.16,0-2.33-.18-3.52-.53-1.19-.36-2.46-.86-3.82-1.51l1.44-3.4c.79.36,1.63.66,2.51.92s1.73.39,2.55.39c.99,0,1.81-.28,2.46-.85.64-.57.97-1.64.97-3.23h-6.45c-1.26,0-2.32-.42-3.18-1.26s-1.29-1.88-1.29-3.11v-3.4c0-1.42.21-2.65.64-3.69h-.01ZM641.17,202.02c-.86-.32-1.8-.49-2.83-.49-.96,0-1.8.31-2.53.92s-1.09,1.6-1.09,2.96v3.4h6.45v-6.8h0Z"/>
    <path d="M91.17,257.71c.98.31,1.91.46,2.8.46s1.71-.29,2.36-.87.97-1.68.97-3.3v-15.06c0-.26.1-.49.3-.68.2-.19.43-.29.69-.29h2.48c.26,0,.5.1.69.29.2.19.3.42.3.68v10.69h3.23v4.37h-3.23c0,1.46-.17,2.7-.52,3.74s-.83,1.89-1.46,2.55c-.63.66-1.37,1.15-2.23,1.46s-1.8.46-2.83.46c-1.16,0-2.37-.18-3.65-.53-1.27-.36-2.59-.86-3.94-1.51l1.44-3.45c.76.36,1.63.69,2.6,1h0Z"/>
    <path d="M103.93,253.58c-.28-.28-.42-.62-.42-1.04v-1.46c0-.42.14-.77.42-1.04.28-.28.64-.41,1.07-.41h3.23v-21.37c0-.26.1-.49.3-.68.2-.19.43-.29.69-.29h2.48c.26,0,.5.1.69.29.2.19.3.42.3.68v16.03l6.1-4.86c.53-.42,1.09-.77,1.69-1.04.6-.27,1.27-.41,2.03-.41h6.05c1.09,0,2.03.38,2.8,1.14.78.76,1.17,1.68,1.17,2.74v7.77h3.23v4.37h-30.77c-.43,0-.79-.14-1.07-.41h0ZM128.07,249.62v-7.29h-6.3l-9.18,7.29h15.48Z"/>
    <path d="M134.69,250.03c.28-.28.64-.41,1.07-.41h12.5c-.33-.78-.67-1.68-1.02-2.7s-.76-1.99-1.24-2.91c-.48-.92-1.03-1.7-1.66-2.33s-1.41-.95-2.33-.95c-.56,0-1.11.11-1.64.34s-1.08.52-1.64.87l-1.49-3.01c.89-.71,1.86-1.29,2.9-1.75s2.08-.68,3.1-.68,1.85.21,2.58.63,1.36.98,1.91,1.68,1.03,1.5,1.46,2.4c.43.91.85,1.85,1.27,2.82.41.97.84,1.94,1.29,2.92.45.97.97,1.86,1.56,2.67h2.28v4.37h-19.85c-.43,0-.79-.14-1.07-.41s-.42-.62-.42-1.04v-1.46c0-.42.14-.77.42-1.04h.02ZM141.52,230.34c.53-.42,1.17-.63,1.94-.63s1.41.21,1.94.63.79.94.79,1.55-.26,1.13-.79,1.55-1.17.63-1.94.63-1.41-.21-1.94-.63-.79-.94-.79-1.55.26-1.13.79-1.55Z"/>
    <path d="M158.83,228.25c0-.26.1-.49.3-.68.2-.19.43-.29.69-.29h2.48c.26,0,.5.1.69.29.2.19.3.42.3.68v21.86c0,1.07-.39,1.98-1.17,2.74s-1.71,1.14-2.8,1.14h-3.72c-.43,0-.79-.14-1.07-.41s-.42-.62-.42-1.04v-1.46c0-.42.14-.77.42-1.04.28-.28.64-.41,1.07-.41h3.23v-21.37h0Z"/>
    <path d="M173.92,227.57c.2.19.3.42.3.68v24.77c0,.26-.1.49-.3.68-.2.19-.43.29-.69.29h-2.48c-.26,0-.5-.1-.69-.29-.2-.19-.3-.42-.3-.68v-24.77c0-.26.1-.49.3-.68.2-.19.43-.29.69-.29h2.48c.26,0,.5.1.69.29Z"/>
    <path d="M209.2,249.62v4.37h-3.23v3.4c0,1.07-.39,1.98-1.17,2.74-.78.76-1.71,1.14-2.8,1.14h-6.45c-1.22,0-2.38-.23-3.47-.68-1.09-.45-2.04-1.08-2.85-1.87s-1.45-1.72-1.91-2.79c-.46-1.07-.69-2.2-.69-3.4v-8.26c0-.26.1-.49.3-.68.2-.19.43-.29.69-.29h2.48c.26,0,.5.1.69.29.2.19.3.42.3.68v8.26c0,.52.11,1.04.32,1.55.22.52.5.99.87,1.41s.79.76,1.29,1.02,1.04.39,1.64.39h6.3v-17.97c0-.26.1-.49.3-.68.2-.19.43-.29.69-.29h2.48c.26,0,.5.1.69.29.2.19.3.42.3.68v10.69h3.23ZM194.36,230.82c.53-.42,1.17-.63,1.94-.63s1.41.21,1.94.63.79.94.79,1.55-.26,1.13-.79,1.55-1.17.63-1.94.63-1.41-.21-1.94-.63-.79-.94-.79-1.55.26-1.13.79-1.55Z"/>
    <path d="M208.14,253.58c-.28-.28-.42-.62-.42-1.04v-1.46c0-.42.14-.77.42-1.04.28-.28.64-.41,1.07-.41h3.23v-4.76c0-.97.22-1.84.67-2.6.45-.76,1.04-1.4,1.79-1.92.74-.52,1.6-.91,2.58-1.17s1.99-.39,3.05-.39c1.29,0,2.57.2,3.85.61,1.27.4,2.42,1.03,3.45,1.87v8.26c0,1.07-.21,2.01-.62,2.82s-.96,1.48-1.64,2.02c-.68.53-1.46.93-2.36,1.19-.89.26-1.84.39-2.83.39-1.26,0-2.34-.17-3.25-.51s-1.89-.82-2.95-1.43h-4.96c-.43,0-.79-.14-1.07-.41v-.02ZM218.58,251.34c.6.15,1.19.22,1.79.22.79,0,1.49-.15,2.08-.44.6-.29.89-.75.89-1.36v-5.97c-.3-.16-.71-.31-1.24-.44s-1.09-.19-1.69-.19c-.86,0-1.66.18-2.41.53-.74.36-1.12.99-1.12,1.89v5.05c.53.32,1.09.56,1.69.7h.01Z"/>
    <path d="M255.1,238.93c0-.26.1-.49.3-.68.2-.19.43-.29.69-.29h2.48c.26,0,.5.1.69.29.2.19.3.42.3.68v10.69h5.46v-10.69c0-.26.1-.49.3-.68.2-.19.43-.29.69-.29h2.48c.26,0,.5.1.69.29.2.19.3.42.3.68v10.69h5.46v-10.69c0-.26.1-.49.3-.68s.43-.29.69-.29h2.48c.26,0,.5.1.69.29.2.19.3.42.3.68v11.17c0,1.07-.39,1.98-1.17,2.74s-1.71,1.14-2.8,1.14h-15.88v2.91c0,1.07-.39,1.98-1.17,2.74s-1.71,1.14-2.8,1.14h-6.45c-1.22,0-2.38-.23-3.47-.68-1.09-.45-2.04-1.08-2.85-1.87-.81-.79-1.45-1.72-1.91-2.79-.46-1.07-.69-2.2-.69-3.4v-5.83c0-.26.1-.49.3-.68.2-.19.43-.29.69-.29h2.48c.26,0,.5.1.69.29.2.19.3.42.3.68v5.83c0,1.2.44,2.23,1.31,3.08.88.86,1.93,1.29,3.15,1.29h5.95v-17.49l.02.02Z"/>
    <path d="M290.04,227.57c.2.19.3.42.3.68v21.37h3.23v4.37h-6.7c-.26,0-.5-.1-.69-.29-.2-.19-.3-.42-.3-.68v-24.77c0-.26.1-.49.3-.68.2-.19.43-.29.69-.29h2.48c.26,0,.5.1.69.29Z"/>
    <path d="M292.49,250.03c.28-.28.64-.41,1.07-.41h5.21v-10.69c0-.26.1-.49.3-.68s.43-.29.7-.29h2.48c.26,0,.5.1.7.29.2.19.3.42.3.68v10.69h5.21v4.37h-14.89c-.43,0-.79-.14-1.07-.41-.28-.28-.42-.62-.42-1.04v-1.46c0-.42.14-.77.42-1.04h0ZM299.07,230.82c.53-.42,1.17-.63,1.94-.63s1.41.21,1.94.63.79.94.79,1.55-.26,1.13-.79,1.55-1.17.63-1.94.63-1.41-.21-1.94-.63-.79-.94-.79-1.55.26-1.13.79-1.55Z"/>
    <path d="M311.67,228.25c0-.26.1-.49.3-.68.2-.19.43-.29.69-.29h2.48c.26,0,.5.1.69.29.2.19.3.42.3.68v21.86c0,1.07-.39,1.98-1.17,2.74s-1.71,1.14-2.8,1.14h-3.72c-.43,0-.79-.14-1.07-.41-.28-.28-.42-.62-.42-1.04v-1.46c0-.42.14-.77.42-1.04.28-.28.64-.41,1.07-.41h3.23v-21.37h0Z"/>
    <path d="M326.76,227.57c.2.19.3.42.3.68v24.77c0,.26-.1.49-.3.68s-.43.29-.69.29h-2.48c-.26,0-.5-.1-.69-.29-.2-.19-.3-.42-.3-.68v-24.77c0-.26.1-.49.3-.68.2-.19.43-.29.69-.29h2.48c.26,0,.5.1.69.29Z"/>
    <path d="M344.42,253.99c-1.79,0-3.06-.33-3.82-1-.76-.66-1.14-1.51-1.14-2.55,0-.78.2-1.65.6-2.62l2.73-6.75c.36-.91.97-1.65,1.81-2.23s1.78-.87,2.8-.87h7.44c.26,0,.5.1.69.29s.3.42.3.68v10.69h3.23v4.37h-14.64,0ZM344.97,230.82c.53-.42,1.17-.63,1.94-.63s1.41.21,1.93.63.79.94.79,1.55-.26,1.13-.79,1.55-1.17.63-1.93.63-1.41-.21-1.94-.63-.79-.94-.79-1.55.26-1.13.79-1.55ZM351.37,242.33h-4.27l-2.93,7.29h7.2v-7.29h0ZM351.42,230.82c.53-.42,1.17-.63,1.93-.63s1.41.21,1.94.63.79.94.79,1.55-.26,1.13-.79,1.55-1.17.63-1.94.63-1.41-.21-1.93-.63-.79-.94-.79-1.55.26-1.13.79-1.55Z"/>
    <path d="M358,250.03c.28-.28.64-.41,1.07-.41h5.21v-10.69c0-.26.1-.49.3-.68s.43-.29.7-.29h2.48c.26,0,.5.1.7.29.2.19.3.42.3.68v11.17c0,1.07-.39,1.98-1.17,2.74s-1.71,1.14-2.8,1.14h-5.71c-.43,0-.79-.14-1.07-.41-.28-.28-.42-.62-.42-1.04v-1.46c0-.42.14-.77.42-1.04h-.01ZM358.87,257.54c.53-.42,1.17-.63,1.93-.63s1.41.21,1.94.63.79.94.79,1.55-.26,1.13-.79,1.55-1.17.63-1.94.63-1.41-.21-1.93-.63-.79-.94-.79-1.55.26-1.13.79-1.55ZM365.32,257.54c.53-.42,1.17-.63,1.94-.63s1.41.21,1.94.63.79.94.79,1.55-.26,1.13-.79,1.55-1.17.63-1.94.63-1.41-.21-1.94-.63-.79-.94-.79-1.55.26-1.13.79-1.55Z"/>
    <path d="M379.36,227.57c.2.19.3.42.3.68v21.37h3.23v4.37h-6.7c-.26,0-.5-.1-.69-.29-.2-.19-.3-.42-.3-.68v-24.77c0-.26.1-.49.3-.68.2-.19.43-.29.69-.29h2.48c.26,0,.5.1.69.29Z"/>
    <path d="M381.82,250.03c.28-.28.64-.41,1.07-.41h3.23v-3.5c0-1.23.21-2.31.64-3.23.43-.92,1-1.68,1.71-2.28s1.53-1.05,2.46-1.36,1.89-.46,2.88-.46,1.94.15,2.85.44c.91.29,1.73.74,2.46,1.33.73.6,1.31,1.35,1.74,2.26.43.91.65,1.96.65,3.16v3.64h3.22v4.37h-5.11c-.73.78-1.61,1.38-2.66,1.8s-2.11.63-3.2.63-2.14-.2-3.15-.61c-1.01-.4-1.88-1.01-2.6-1.82h-5.11c-.43,0-.79-.14-1.07-.41-.28-.28-.42-.62-.42-1.04v-1.46c0-.42.14-.77.42-1.04h-.01ZM391.59,251.56c.68.32,1.41.49,2.21.49s1.57-.16,2.23-.49c.66-.32.99-.81.99-1.46v-4.37c0-.87-.33-1.52-.99-1.94s-1.41-.63-2.23-.63-1.53.21-2.21.63-1.02,1.07-1.02,1.94v4.37c0,.65.34,1.13,1.02,1.46Z"/>
    <path d="M403.65,250.03c.28-.28.64-.41,1.07-.41h12.5c-.33-.78-.67-1.68-1.02-2.7-.35-1.02-.76-1.99-1.24-2.91s-1.03-1.7-1.66-2.33-1.41-.95-2.33-.95c-.56,0-1.11.11-1.64.34s-1.08.52-1.64.87l-1.49-3.01c.89-.71,1.86-1.29,2.9-1.75s2.08-.68,3.1-.68,1.85.21,2.58.63,1.36.98,1.91,1.68,1.03,1.5,1.46,2.4c.43.91.85,1.85,1.27,2.82.41.97.84,1.94,1.29,2.92.45.97.97,1.86,1.56,2.67h2.28v4.37h-19.85c-.43,0-.79-.14-1.07-.41-.28-.28-.42-.62-.42-1.04v-1.46c0-.42.14-.77.42-1.04h.02Z"/>
    <path d="M427.79,228.25c0-.26.1-.49.3-.68.2-.19.43-.29.69-.29h2.48c.26,0,.5.1.69.29.2.19.3.42.3.68v21.86c0,1.07-.39,1.98-1.17,2.74s-1.71,1.14-2.8,1.14h-3.72c-.43,0-.79-.14-1.07-.41-.28-.28-.42-.62-.42-1.04v-1.46c0-.42.14-.77.42-1.04.28-.28.64-.41,1.07-.41h3.23v-21.37h0Z"/>
    <path d="M444.66,244.76c0-1.17.26-2.18.77-3.04s1.17-1.56,1.99-2.11c.81-.55,1.75-.96,2.8-1.24,1.06-.27,2.13-.41,3.23-.41,1.19,0,2.35.16,3.47.49,1.12.32,2.17.81,3.13,1.46v14.08h-15.38v-9.23h0ZM455.58,242.87c-1.09-.36-2-.53-2.73-.53-.99,0-1.86.23-2.61.68s-1.12,1.12-1.12,1.99v4.61h6.45v-6.75h0Z"/>
    <path d="M470.67,227.57c.2.19.3.42.3.68v24.77c0,.26-.1.49-.3.68s-.43.29-.69.29h-2.48c-.26,0-.5-.1-.69-.29-.2-.19-.3-.42-.3-.68v-24.77c0-.26.1-.49.3-.68.2-.19.43-.29.69-.29h2.48c.26,0,.5.1.69.29Z"/>
    <path d="M478.06,242.53c.43-1.04,1.01-1.89,1.74-2.57.73-.68,1.57-1.18,2.53-1.51.96-.32,1.99-.49,3.08-.49,1.26,0,2.51.2,3.77.61,1.26.41,2.46,1.01,3.62,1.82v9.23h3.22v4.37h-3.22c0,1.46-.17,2.7-.52,3.74s-.83,1.89-1.46,2.55c-.63.66-1.37,1.15-2.23,1.46-.86.31-1.8.46-2.83.46-1.16,0-2.33-.18-3.52-.53-1.19-.36-2.46-.86-3.82-1.51l1.44-3.4c.79.36,1.63.66,2.51.92s1.73.39,2.55.39c.99,0,1.81-.28,2.46-.85.64-.57.97-1.64.97-3.23h-6.45c-1.26,0-2.32-.42-3.18-1.26s-1.29-1.88-1.29-3.11v-3.4c0-1.42.21-2.65.64-3.69h0ZM488.33,242.82c-.86-.32-1.8-.49-2.83-.49-.96,0-1.8.31-2.53.92s-1.09,1.6-1.09,2.96v3.4h6.45v-6.8h0Z"/>
    <path d="M494.96,250.03c.28-.28.64-.41,1.07-.41h4.07c-.3-.52-.51-1.08-.65-1.68-.13-.6-.2-1.22-.2-1.87,0-.94.16-1.89.47-2.87.31-.97.81-1.85,1.49-2.62.68-.78,1.55-1.41,2.61-1.89,1.06-.49,2.32-.73,3.77-.73h3.57c1.09,0,2.03.38,2.8,1.14.78.76,1.17,1.68,1.17,2.74v11.17c0,.26-.1.49-.3.68s-.43.29-.69.29h-18.11c-.43,0-.79-.14-1.07-.41-.28-.28-.42-.62-.42-1.04v-1.46c0-.42.14-.77.42-1.04h0ZM502.03,230.82c.53-.42,1.17-.63,1.94-.63s1.41.21,1.94.63.79.94.79,1.55-.26,1.13-.79,1.55-1.17.63-1.94.63-1.41-.21-1.94-.63-.79-.94-.79-1.55.26-1.13.79-1.55ZM504.76,243.38c-.69.7-1.04,1.56-1.04,2.6,0,.94.33,1.78.99,2.53s1.52,1.12,2.58,1.12h3.38v-7.29h-3.38c-.99,0-1.84.35-2.53,1.04h0ZM508.48,230.82c.53-.42,1.17-.63,1.94-.63s1.41.21,1.93.63.79.94.79,1.55-.26,1.13-.79,1.55-1.17.63-1.93.63-1.41-.21-1.94-.63-.79-.94-.79-1.55.26-1.13.79-1.55h0Z"/>
    <path d="M528.3,241.73c.51-.86,1.17-1.56,1.99-2.11.81-.55,1.75-.96,2.8-1.24,1.06-.27,2.13-.41,3.23-.41,1.19,0,2.35.16,3.47.49,1.12.32,2.17.81,3.13,1.46v14.08h-10.92v5.83h-4.47v-15.06c0-1.17.26-2.18.77-3.04ZM538.45,242.87c-1.09-.36-2-.53-2.73-.53-.99,0-1.86.23-2.61.68s-1.12,1.12-1.12,1.99v4.61h6.45v-6.75h0Z"/>
    <path d="M558.79,249.62v-4.86c0-.78-.14-1.44-.42-1.99-.28-.55-.65-1-1.12-1.33s-1.01-.58-1.64-.73-1.29-.22-1.98-.22c-.56,0-1.14.05-1.74.15-.59.1-1.16.24-1.69.44l-1.09-4.08c1.03-.32,2-.57,2.93-.73.93-.16,1.84-.24,2.73-.24,1.22,0,2.35.17,3.38.51s1.92.87,2.68,1.58,1.36,1.62,1.79,2.72.64,2.41.64,3.93v4.86h3.23v4.37h-18.36v-4.37h10.67,0Z"/>
    <path d="M565.42,250.03c.28-.28.64-.41,1.07-.41h12.5c-.33-.78-.67-1.68-1.02-2.7-.35-1.02-.76-1.99-1.24-2.91s-1.03-1.7-1.66-2.33c-.63-.63-1.41-.95-2.33-.95-.56,0-1.11.11-1.64.34s-1.08.52-1.64.87l-1.49-3.01c.89-.71,1.86-1.29,2.9-1.75s2.08-.68,3.1-.68,1.85.21,2.58.63,1.36.98,1.91,1.68,1.03,1.5,1.46,2.4c.43.91.85,1.85,1.27,2.82.41.97.84,1.94,1.29,2.92.45.97.97,1.86,1.56,2.67h2.28v4.37h-19.85c-.43,0-.79-.14-1.07-.41-.28-.28-.42-.62-.42-1.04v-1.46c0-.42.14-.77.42-1.04h.02ZM572.24,230.34c.53-.42,1.17-.63,1.94-.63s1.41.21,1.94.63.79.94.79,1.55-.26,1.13-.79,1.55-1.17.63-1.94.63-1.41-.21-1.94-.63-.79-.94-.79-1.55.26-1.13.79-1.55Z"/>
    <path d="M585.27,250.03c.28-.28.64-.41,1.07-.41h5.21v-10.69c0-.26.1-.49.3-.68s.43-.29.7-.29h2.48c.26,0,.5.1.7.29.2.19.3.42.3.68v10.69h5.21v4.37h-14.89c-.43,0-.79-.14-1.07-.41-.28-.28-.42-.62-.42-1.04v-1.46c0-.42.14-.77.42-1.04h-.01ZM587.38,230.82c.53-.42,1.17-.63,1.94-.63s1.41.21,1.93.63.79.94.79,1.55-.26,1.13-.79,1.55-1.17.63-1.93.63-1.41-.21-1.94-.63-.79-.94-.79-1.55.26-1.13.79-1.55ZM593.83,230.82c.53-.42,1.17-.63,1.93-.63s1.41.21,1.94.63.79.94.79,1.55-.26,1.13-.79,1.55-1.17.63-1.94.63-1.41-.21-1.93-.63-.79-.94-.79-1.55.26-1.13.79-1.55Z"/>
    <path d="M600.16,253.58c-.28-.28-.42-.62-.42-1.04v-1.46c0-.42.14-.77.42-1.04.28-.28.64-.41,1.07-.41h5.21v-10.69c0-.26.1-.49.3-.68s.43-.29.7-.29h2.48c.26,0,.5.1.7.29.2.19.3.42.3.68v10.69h5.46v-10.69c0-.26.1-.49.3-.68.2-.19.43-.29.69-.29h2.48c.26,0,.5.1.69.29s.3.42.3.68v10.69h5.46v-10.69c0-.26.1-.49.3-.68s.43-.29.7-.29h2.48c.26,0,.5.1.7.29.2.19.3.42.3.68v10.69h5.21v4.37h-34.74c-.43,0-.79-.14-1.07-.41h-.02Z"/>
    <path d="M634.89,250.03c.28-.28.64-.41,1.07-.41h5.21v-10.69c0-.26.1-.49.3-.68s.43-.29.7-.29h2.48c.26,0,.5.1.7.29.2.19.3.42.3.68v11.17c0,1.07-.39,1.98-1.17,2.74s-1.71,1.14-2.8,1.14h-5.71c-.43,0-.79-.14-1.07-.41-.28-.28-.42-.62-.42-1.04v-1.46c0-.42.14-.77.42-1.04h-.01ZM635.76,257.54c.53-.42,1.17-.63,1.93-.63s1.41.21,1.94.63.79.94.79,1.55-.26,1.13-.79,1.55-1.17.63-1.94.63-1.41-.21-1.93-.63-.79-.94-.79-1.55.26-1.13.79-1.55ZM642.21,257.54c.53-.42,1.17-.63,1.94-.63s1.41.21,1.94.63.79.94.79,1.55-.26,1.13-.79,1.55-1.17.63-1.94.63-1.41-.21-1.94-.63-.79-.94-.79-1.55.26-1.13.79-1.55Z"/>
  </g>
</svg>