<?xml version="1.0" encoding="UTF-8"?>
<svg id="Layer_1" xmlns="http://www.w3.org/2000/svg" version="1.1" viewBox="0 0 133.76 112.25">
  <!-- Generator: Adobe Illustrator 29.6.1, SVG Export Plug-In . SVG Version: 2.1.1 Build 9)  -->
  <defs>
    <style>
      .st0 {
        fill: #dd2528;
      }

      .st1 {
        fill: #fff;
      }

      .st2 {
        fill: #1e3a6c;
      }
    </style>
  </defs>
  <path class="st0" d="M96.16,81.65c-4.83,2.02-10.14,3.56-15.78,4.48-26.28,4.25-49.76-6.57-52.43-24.18-1.84-12.13,6.65-24.32,20.7-32.12-17.69,7.39-29.06,21.29-26.95,35.11,2.67,17.63,26.16,28.46,52.42,24.2,8.19-1.34,15.69-3.97,22.03-7.49"/>
  <path class="st1" d="M112.62,49.29c-1.99-16.13-21.92-26.61-44.49-23.42-22.57,3.19-39.26,18.85-37.27,34.97,2.01,16.11,21.92,26.59,44.51,23.38,22.57-3.17,39.25-18.83,37.26-34.94Z"/>
  <path class="st0" d="M112.62,49.29c-1.99-16.13-21.92-26.61-44.49-23.42-22.57,3.19-39.26,18.85-37.27,34.97,2.01,16.11,21.92,26.59,44.51,23.38,22.57-3.17,39.25-18.83,37.26-34.94M103.67,47.53c.05.34-.18.66-.51.71l-4.24.63c-.33.03-.64-.21-.69-.56-.06-.32.19-.66.53-.69l4.23-.61c.33-.06.64.19.69.52M103.78,52.93c-.06.34-.38.59-.73.54l-4.54-.52c-.35-.03-.61-.34-.58-.68.05-.34.35-.59.71-.56l4.54.51c.35.04.63.35.59.7M102.19,42.33c.14.32-.01.69-.31.83l-3.93,1.69c-.31.14-.68-.01-.79-.31-.15-.34-.01-.7.31-.84l3.9-1.7c.33-.13.69.01.81.32M99.44,37.69c.2.28.18.66-.1.87l-3.36,2.67c-.25.23-.65.16-.85-.11-.21-.28-.16-.64.1-.88l3.34-2.66c.28-.21.65-.17.88.11M92.19,37.49l2.52-3.46c.21-.26.58-.32.86-.12.28.21.35.6.13.88l-2.53,3.45c-.19.26-.56.31-.85.11-.28-.21-.33-.59-.13-.87M88.56,35.6l1.54-4c.13-.31.48-.46.8-.34.33.13.49.48.36.82l-1.57,4c-.13.32-.49.48-.79.34-.34-.13-.49-.49-.35-.82M84.56,34.74l.49-4.29c.01-.34.31-.59.66-.55.35.05.59.35.54.71l-.48,4.27c-.01.35-.34.59-.68.53-.33-.01-.59-.32-.54-.66M80.36,29.96c.35-.06.65.18.72.53l.65,4.25c.04.34-.19.65-.54.7-.33.05-.65-.19-.7-.53l-.64-4.25c-.05-.34.18-.66.51-.7M75.23,31.4c.3-.13.68.01.8.33l1.72,3.96c.15.33,0,.69-.33.83-.3.13-.66-.02-.8-.33l-1.72-3.97c-.14-.31,0-.68.33-.82M70.64,34.14c.26-.21.64-.16.85.1l2.67,3.38c.21.27.19.66-.09.89-.26.2-.66.15-.86-.12l-2.68-3.39c-.21-.27-.16-.64.11-.87M66.91,38c.2-.28.59-.36.88-.12l3.45,2.57c.26.22.31.6.13.87-.21.27-.59.34-.86.14l-3.46-2.6c-.26-.21-.31-.59-.13-.86M64.3,42.7c.14-.34.49-.48.83-.34l5.52,2.2c3.03-6.77,10.88-9.99,17.86-7.18,7,2.82,10.55,10.62,8.2,17.68l5.45,2.21c.31.12.48.47.34.8-.1.28-.39.43-.65.38l-7.21-2.89c.06-.17.14-.32.19-.48,2.47-6.34-.63-13.52-6.95-16.07-6.32-2.54-13.39.54-15.88,6.88-.06.15-.11.33-.16.48l-7.27-2.91c-.26-.17-.35-.47-.26-.75M39.78,64.3c2.45.03,7.21.14,11,.82v1.34c-3.82-.67-8.55-.8-11-.82v-1.35ZM85.48,78.56s-.49,0-1.24.02v-2.07c4.85.11,9.54-.04,12-.1-1.2.75-2.46,1.46-3.76,2.13h-7ZM83.32,80.57c-1.69,0-4.29-.06-7.45-.76-3.03-.65-7.55-2.03-11.74-3.56v-1.33c4.11,1.49,8.54,2.83,11.62,3.49,1.99.43,4.78.78,7.56.89v1.26ZM43.4,70.15c-1.12-.43-2.22-.93-3.15-1.48,2.75.05,7.09.23,10.52.86v1.38c-2.34-.44-5.04-.67-7.37-.77M51.69,67.24c1.38.29,2.57.68,3.37,1.16,1.78,1.09,4.79,2.4,8.08,3.63v1.85c-3.25-1.21-6.2-2.49-7.94-3.56-.84-.5-2.08-.9-3.51-1.22v-1.87s0,0,0,0ZM71.62,74.81c1.38.4,2.65.73,3.75.95,1.97.43,4.95.74,7.95.84v2.06c-1.69,0-4.3-.17-7.45-.85-3.05-.65-7.55-2.02-11.74-3.54v-1.88c.58.21,1.14.42,1.73.61v1.82h5.76ZM51.69,69.73c1.32.29,2.47.67,3.22,1.15,1.82,1.1,4.88,2.41,8.23,3.67v1.35c-.76-.29-1.52-.56-2.23-.86-1.39-.8-3.26-1.77-5.1-2.35-.01-.01-.03-.01-.03-.01-.2-.12-.4-.22-.56-.33-.85-.54-2.09-.93-3.52-1.23v-1.38ZM84.85,75.98s-.21-.06-.6-.03v-1.39c6.09.2,12.56.02,14.68.02-.58.43-1.18.85-1.81,1.26l-12.28.14ZM83.32,75.98c-1.59.03-4.38-.07-7.84-.82-.97-.21-2.09-.48-3.3-.82v-1.32c1.15.32,2.23.6,3.19.8,1.84.4,4.82.7,7.95.81v1.36ZM65.86,72.36c-.59-.2-1.15-.4-1.73-.62v-1.31c.58.21,1.15.41,1.73.61v1.31ZM63.14,71.38c-3.21-1.19-6.11-2.45-7.8-3.49-.88-.55-2.16-.96-3.65-1.27v-1.34c1.38.3,2.57.69,3.37,1.18,1.78,1.07,4.79,2.36,8.08,3.61v1.3ZM50.77,67.05v1.86c-3.71-.67-8.31-.84-11-.87v-1.78c2.45,0,7.21.13,11,.8M50.77,72.29s-2.45-.49-5.2-1.38c1.77.14,3.56.34,5.2.64v.74ZM53.18,72.13c-.53-.04-1.03-.02-1.51.07v-.45c.54.12,1.04.24,1.51.39M83.32,82.17c-.74.21-1.51.44-2.26.61-.89-.48-2.04-.99-3.44-1.39-3.76-1.07-11.98-2.52-13.49-4.44v-.03c4.11,1.49,8.54,2.83,11.62,3.48,2.18.48,4.95.72,7.56.84v.92ZM84.24,81.88v-.59c.51,0,1.18.03,1.69.04,0,0,0,0-.01,0-.56.19-1.1.37-1.68.54M87.85,80.61h0l-2.37-.04s-.44-.03-1.24,0v-1.36c2.43.08,5.02.07,6.81.04h-.01c-1.02.49-2.09.93-3.19,1.36M110.38,60.77h-24.75s4.08,4.17,4.08,4.17l18.55-.11c-1.67,2.66-3.86,5.19-6.46,7.45-.65.57-1.33,1.14-2.04,1.69l-14.87-.03s-.24.03-.63.05v-1.04h-.93v1.07c-1.61.03-4.38-.07-7.84-.8-.97-.23-2.09-.51-3.3-.83v-8.01h-6.32v6.01c-.59-.19-1.15-.4-1.73-.61v-1.33h-.99v.98c-3.21-1.21-6.11-2.47-7.8-3.5-.88-.55-2.16-.95-3.65-1.26v-.89h-.92v.71c-3.82-.67-8.55-.79-11-.82v-.88h-1.07v.88c-.3.02-.51.03-.55.03v.59h.55v1.35c-.3.02-.5.02-.56.02v.6h.56v1.77s-.02,0-.02,0h-.02c-.34-.22-2.85-1.89-4.44-1.96v-9.44l-1.32.09,2.7-7.39h17.2s9.72.1,9.72.1l.89,2.17,1.45-2.17,9.07.14,10.47,8.08.02,3.22.38-.64h18.17l7.6.02c-.08.17-.13.34-.2.51"/>
  <polygon class="st0" points="65.51 50.11 63.26 52.42 62.07 49.89 36.15 49.92 40.25 58.25 64.99 58.25 64.99 57.94 72.79 51.27 81.95 58.78 83.44 58.26 72.86 50.11 65.51 50.11"/>
  <polygon class="st0" points="44.04 62.52 48 62.52 48 60.57 44.05 60.59 44.04 62.52"/>
  <polygon class="st0" points="57.8 62.52 61.76 62.52 61.76 60.57 57.81 60.59 57.8 62.52"/>
  <polygon class="st0" points="92.37 69.73 94.7 69.73 94.7 67.67 91.06 67.67 91.06 69.73 91.53 69.73 92.37 69.73"/>
  <polygon class="st0" points="101.79 69.73 102.34 69.73 102.34 67.67 98.71 67.67 98.71 69.73 99.45 69.73 101.79 69.73"/>
  <path class="st2" d="M19.94,16.84h-4.9c-1.3,2.49-3.72,3.97-6.53,3.97-4.2,0-7.55-3.54-7.55-8.13v-6.67h3.37v6.36c0,3.16,1.6,5.34,4.21,5.34s4.18-2.25,4.18-5.34v-6.36h3.35v7.63h3.87v3.2ZM10.16,4.19h-2.96V1.44h2.96v2.75Z"/>
  <path class="st2" d="M21.58,20.81h-2.97v-2.78h2.97v2.78ZM29.92,16.84h-10.76v-3.2h2.19c1.12,0,1.68-.77,1.68-2.3v-5.33h3.37v5.21c0,.89-.13,1.68-.38,2.42h3.89v3.2ZM26.07,20.81h-2.97v-2.78h2.97v2.78Z"/>
  <path class="st2" d="M49.63,16.84h-6.17c-1.39,0-2.63-.55-3.71-1.67-.58.48-1.32.88-2.24,1.19-1,.31-1.99.48-2.96.48h-5.27v-3.2h5.2c1.18,0,2.23-.26,3.11-.81-.35-.51-.98-1-1.81-1.53-1.02-.62-1.99-1.03-2.92-1.2v-2.75c2.17-1.29,4.39-1.93,6.62-1.93,2.66,0,5.12.88,7.39,2.63-.26.65-.85,1.51-1.74,2.53-.98,1.13-1.89,1.94-2.75,2.46.43.41,1.03.6,1.79.6h5.46v3.2ZM42.75,8.93c-1.04-.53-2.04-.79-3.02-.79s-1.91.22-2.85.67c.72.31,1.29.65,1.72.96.44.31.94.79,1.48,1.44.49-.22,1.02-.6,1.57-1.1.5-.43.88-.81,1.1-1.17"/>
  <path class="st2" d="M55.85,12.23c0,1.27-.36,2.32-1.05,3.15-.79.98-1.88,1.46-3.3,1.46h-3.15v-3.2h2.46c1.12,0,1.69-.79,1.69-2.34V1.44h3.35v10.79Z"/>
  <rect class="st2" x="58.3" y="1.42" width="3.34" height="15.42"/>
  <path class="st2" d="M81.66,12.34h-6.62c-2.36,0-3.4.77-3.4,2.61,0,1.74,1.13,2.61,3.4,2.61h4.59v3.25h-4.4c-4.33,0-6.82-2.13-6.82-5.86,0-2.7,1.42-4.71,3.98-5.5-.38-.79-.56-2.04-.56-2.85,0-2.85,2.28-5.17,5.2-5.17,2.02,0,3.69,1.08,4.48,2.92l-2.68,1.24c-.31-.93-.9-1.39-1.84-1.39-1.17,0-2.01,1.05-2.01,2.54,0,1.17.45,1.96,1.34,2.37h5.35v3.23Z"/>
  <path class="st2" d="M90.31,14.64c0,2.2-.54,3.77-1.67,4.76-1.03.93-2.7,1.39-4.99,1.39v-2.71c2.19,0,3.3-1.05,3.3-3.15V6h3.36v8.63Z"/>
  <rect class="st2" x="92.77" y="1.42" width="3.34" height="15.42"/>
  <path class="st2" d="M108.65,16.84h-3.71c-.55,2.63-2.7,3.95-6.5,3.95v-2.71c2.19,0,3.3-1.05,3.3-3.15V6h3.37v7.63h3.54v3.2ZM104.9,4.19h-2.96V1.44h2.96v2.75Z"/>
  <rect class="st2" x="107.93" y="13.63" width="5.12" height="3.2"/>
  <rect class="st2" x="112.67" y="13.63" width="5.12" height="3.2"/>
  <path class="st2" d="M131.46,13.44c0,3.2-2.14,5.45-5.49,5.45-2.03,0-3.56-.69-4.54-2.06h-4.3v-3.2h3.31c0-3.42,1.97-5.6,5.4-5.6s5.62,2.13,5.62,5.41M128.15,13.56c0-1.89-.71-2.85-2.13-2.85h-.24c-1.23,0-2.06,1.12-2.06,2.7s.82,2.75,2.25,2.75c1.32,0,2.18-1.05,2.18-2.6"/>
  <path class="st2" d="M12.76,108.14l-.8-2.1h-6.8l-.8,2.15c-.31.84-.58,1.4-.8,1.69-.21.29-.58.44-1.08.44-.43,0-.81-.16-1.13-.47-.34-.31-.49-.66-.49-1.06,0-.23.02-.46.1-.71.09-.24.21-.58.39-1.02l4.28-10.87c.11-.31.26-.68.44-1.13.18-.44.35-.8.54-1.09.2-.29.46-.52.78-.7.31-.18.7-.27,1.17-.27s.87.09,1.19.27c.3.18.56.4.75.69.2.29.36.58.5.91.13.32.3.76.5,1.3l4.38,10.8c.34.82.51,1.42.51,1.79,0,.39-.16.75-.49,1.07-.33.33-.72.49-1.17.49-.28,0-.5-.05-.69-.15-.19-.09-.35-.22-.48-.38-.14-.16-.28-.41-.41-.76-.15-.33-.29-.63-.39-.9M6.06,103.49h4.99l-2.52-6.91-2.47,6.91Z"/>
  <path class="st2" d="M17.66,108.43v-13.52c0-.62.15-1.09.43-1.42.28-.32.65-.48,1.12-.48s.85.16,1.14.47c.3.32.44.79.44,1.42v13.52c0,.63-.14,1.1-.44,1.42-.29.32-.68.48-1.14.48-.44,0-.83-.17-1.1-.49-.29-.33-.44-.8-.44-1.4"/>
  <path class="st2" d="M38.79,108.14l-.8-2.1h-6.81l-.79,2.15c-.3.84-.58,1.4-.8,1.69-.21.29-.58.44-1.08.44-.44,0-.8-.16-1.14-.47-.31-.31-.49-.66-.49-1.06,0-.23.05-.46.13-.71.06-.24.19-.58.36-1.02l4.29-10.87c.11-.31.26-.68.44-1.13.18-.44.35-.8.55-1.09.19-.29.44-.52.76-.7.31-.18.7-.27,1.17-.27s.86.09,1.18.27c.33.18.58.4.76.69.2.29.36.58.49.91.14.32.31.76.51,1.3l4.36,10.8c.35.82.53,1.42.53,1.79,0,.39-.16.75-.49,1.07-.33.33-.71.49-1.17.49-.28,0-.5-.05-.69-.15-.19-.09-.34-.22-.48-.38-.13-.16-.28-.41-.43-.76-.14-.33-.28-.63-.38-.9M32.08,103.49h4.99l-2.52-6.91-2.47,6.91Z"/>
  <path class="st2" d="M45.26,96.2c-.43,0-.8-.13-1.1-.4-.31-.27-.46-.64-.46-1.13,0-.44.15-.81.46-1.09.33-.29.69-.43,1.1-.43s.77.13,1.08.39c.31.26.46.64.46,1.13s-.15.86-.45,1.13c-.31.27-.68.4-1.09.4M46.8,99.42v9.01c0,.62-.15,1.1-.44,1.42-.3.32-.68.48-1.14.48s-.82-.17-1.1-.49c-.29-.33-.43-.8-.43-1.4v-8.91c0-.62.14-1.08.43-1.4.29-.31.65-.47,1.1-.47s.84.16,1.14.47c.29.31.44.75.44,1.3"/>
  <path class="st2" d="M51.85,99.37v.38c.55-.72,1.15-1.25,1.81-1.6.64-.34,1.4-.51,2.24-.51s1.56.18,2.19.54c.67.36,1.14.86,1.45,1.52.21.38.34.79.4,1.23.05.45.09,1.01.09,1.7v5.8c0,.62-.14,1.1-.43,1.42-.29.32-.65.48-1.12.48s-.83-.17-1.13-.49c-.29-.33-.43-.8-.43-1.4v-5.2c0-1.03-.15-1.81-.44-2.35-.28-.55-.84-.81-1.69-.81-.56,0-1.07.16-1.53.5-.45.33-.79.78-1,1.36-.15.47-.23,1.33-.23,2.6v3.91c0,.63-.15,1.1-.44,1.42-.29.32-.66.48-1.14.48-.45,0-.81-.17-1.1-.49-.29-.33-.43-.8-.43-1.4v-9.01c0-.59.12-1.04.38-1.33.26-.29.63-.44,1.07-.44.28,0,.53.07.74.2.23.13.4.32.54.58.13.26.19.58.19.95"/>
  <path class="st2" d="M77.23,95.91h-6.68v4.28h5.58c.51,0,.92.12,1.17.35.25.23.38.54.38.93s-.13.69-.39.92c-.26.23-.64.34-1.15.34h-5.58v5.52c0,.7-.16,1.22-.48,1.55-.31.34-.73.51-1.2.51-.51,0-.92-.17-1.24-.51-.31-.34-.48-.86-.48-1.55v-12.88c0-.49.08-.89.23-1.2.14-.31.36-.53.68-.67.31-.14.7-.21,1.18-.21h8c.54,0,.93.12,1.2.36.26.23.39.55.39.94s-.13.71-.39.96c-.28.24-.66.36-1.2.36"/>
  <path class="st2" d="M87.43,108.56c-.75.59-1.47,1.03-2.18,1.32-.7.29-1.49.44-2.37.44-.8,0-1.51-.16-2.11-.48-.6-.32-1.08-.74-1.39-1.29-.34-.54-.49-1.12-.49-1.76,0-.85.26-1.58.8-2.18.55-.6,1.29-1.01,2.23-1.21.19-.04.69-.15,1.47-.3.79-.16,1.45-.31,2.02-.44.55-.13,1.17-.29,1.82-.48-.04-.82-.2-1.42-.5-1.81-.29-.39-.89-.58-1.82-.58-.78,0-1.38.11-1.78.34-.4.22-.74.55-1.03.99-.29.44-.49.73-.6.87-.13.14-.38.21-.76.21-.34,0-.65-.11-.9-.34-.25-.22-.38-.5-.38-.86,0-.55.19-1.08.58-1.6.39-.52.98-.94,1.81-1.28.83-.33,1.84-.5,3.07-.5,1.38,0,2.46.16,3.24.49.78.32,1.34.83,1.67,1.53.31.7.48,1.62.48,2.78v1.86c0,.51-.01,1.08-.01,1.71,0,.59.09,1.2.29,1.83.19.64.29,1.05.29,1.23,0,.32-.15.61-.45.88-.3.26-.64.39-1.03.39-.31,0-.63-.15-.94-.45-.31-.3-.65-.74-1-1.31M87.23,104.05c-.45.17-1.12.35-1.98.53-.88.19-1.48.32-1.82.41-.34.09-.65.26-.95.52-.31.25-.46.6-.46,1.07s.18.87.54,1.2c.35.33.83.49,1.4.49.61,0,1.18-.13,1.71-.4.51-.27.9-.62,1.15-1.04.28-.47.41-1.25.41-2.33v-.45Z"/>
  <path class="st2" d="M95.55,105.82v2.61c0,.63-.15,1.1-.45,1.42-.3.32-.66.48-1.13.48s-.81-.16-1.1-.48c-.29-.32-.44-.79-.44-1.42v-8.68c0-1.4.51-2.1,1.53-2.1.51,0,.89.17,1.12.5.23.33.35.81.38,1.45.36-.64.75-1.12,1.14-1.45.4-.33.92-.5,1.57-.5s1.29.17,1.92.5c.61.33.92.76.92,1.3,0,.38-.13.7-.39.94-.26.25-.55.37-.85.37-.11,0-.39-.07-.83-.21-.44-.14-.83-.21-1.15-.21-.46,0-.84.12-1.13.36-.29.24-.51.6-.66,1.07-.16.47-.28,1.03-.34,1.68-.06.65-.09,1.45-.09,2.38"/>
  <path class="st2" d="M112.07,104.22v4.14c0,.66-.14,1.15-.44,1.47-.3.33-.69.49-1.18.49-.46,0-.85-.17-1.14-.49-.3-.33-.45-.82-.45-1.47v-4.97c0-.78-.03-1.4-.08-1.82-.05-.44-.2-.8-.43-1.07-.24-.28-.61-.42-1.13-.42-1.02,0-1.69.35-2.02,1.05-.31.7-.48,1.71-.48,3.02v4.21c0,.65-.15,1.13-.44,1.47-.3.33-.69.5-1.15.5s-.87-.17-1.17-.5c-.3-.33-.45-.82-.45-1.47v-8.92c0-.59.13-1.03.41-1.34.26-.31.61-.46,1.05-.46s.79.14,1.08.43c.28.28.43.68.43,1.18v.3c.54-.65,1.12-1.12,1.73-1.43.63-.3,1.3-.45,2.06-.45.79,0,1.46.16,2.02.47.56.31,1.03.78,1.39,1.41.54-.64,1.09-1.11,1.71-1.42.59-.31,1.25-.46,1.99-.46.84,0,1.58.17,2.19.5.61.33,1.08.81,1.38,1.44.28.56.4,1.45.4,2.66v6.08c0,.66-.15,1.15-.44,1.47-.3.33-.69.49-1.18.49s-.85-.17-1.15-.5c-.31-.33-.46-.82-.46-1.47v-5.24c0-.67-.02-1.2-.09-1.61-.05-.4-.2-.74-.45-1.01-.25-.28-.63-.41-1.14-.41-.41,0-.8.12-1.18.37-.36.24-.65.57-.85.98-.24.53-.35,1.46-.35,2.79"/>
  <path class="st2" d="M131.44,106.25c0,.86-.21,1.59-.64,2.21-.41.61-1.03,1.07-1.86,1.39-.82.32-1.81.48-2.99.48-1.12,0-2.08-.17-2.87-.51-.8-.34-1.39-.77-1.77-1.29-.38-.51-.58-1.03-.58-1.54,0-.34.13-.64.36-.88.25-.24.56-.37.93-.37.33,0,.59.08.75.24.19.17.35.39.5.68.33.55.72.97,1.15,1.24.45.27,1.05.41,1.82.41.63,0,1.13-.13,1.54-.41.39-.28.6-.6.6-.95,0-.55-.21-.95-.63-1.2-.41-.25-1.1-.49-2.06-.72-1.07-.27-1.94-.54-2.62-.84-.66-.29-1.2-.68-1.61-1.16-.41-.48-.61-1.06-.61-1.77,0-.62.19-1.21.56-1.77.38-.56.93-1,1.66-1.33.73-.33,1.59-.5,2.62-.5.82,0,1.54.09,2.18.25.65.17,1.18.39,1.61.67.44.29.75.6.98.94.24.34.35.67.35,1,0,.36-.13.65-.36.88-.25.23-.59.35-1.02.35-.33,0-.6-.1-.83-.28-.23-.18-.48-.45-.77-.82-.24-.31-.51-.55-.84-.74-.33-.19-.75-.27-1.3-.27s-1.03.12-1.39.36c-.39.24-.56.54-.56.9,0,.33.14.59.41.81.26.21.64.38,1.09.52.48.13,1.12.3,1.93.5.97.24,1.76.52,2.37.85.61.33,1.08.71,1.39,1.16.33.45.48.96.48,1.53"/>
</svg>