<?xml version="1.0" encoding="UTF-8"?>
<svg id="Layer_1" xmlns="http://www.w3.org/2000/svg" version="1.1" viewBox="0 0 699.08 194.23">
  <!-- Generator: Adobe Illustrator 29.7.1, SVG Export Plug-In . SVG Version: 2.1.1 Build 8)  -->
  <defs>
    <style>
      .st0 {
        fill: #fae1de;
      }

      .st1 {
        fill: #fefefe;
      }

      .st1, .st2, .st3 {
        fill-rule: evenodd;
      }

      .st4 {
        font-family: AbdoMaster-Black, AbdoMaster-Black;
        font-size: 31.31px;
        font-weight: 800;
      }

      .st4, .st5 {
        isolation: isolate;
      }

      .st4, .st3 {
        fill: #f9ddd9;
      }

      .st6 {
        fill: #007db5;
      }

      .st6, .st7 {
        stroke: #020202;
        stroke-miterlimit: 10;
        stroke-width: 16.87px;
      }

      .st7 {
        fill: #d92726;
      }
    </style>
  </defs>
  <g>
    <path class="st6" d="M1059.88-317.83h-265.99c-16.65,0-30.14,13.21-30.14,29.5v65.87c0,16.29,13.49,29.5,30.14,29.5h621.09c16.65,0,30.14-13.21,30.14-29.5v-65.87c0-16.29-13.49-29.5-30.14-29.5h-355.1Z"/>
    <g>
      <path class="st0" d="M1288.77-218.04c.25-.17.11-.56-.59-.49l-.49.66,1.08-.18h0Z"/>
      <path class="st0" d="M1284.09-219.27c-.82.32-1.76.88-1.23,1.49.81-.64,1.01-.37,1.88-1.13.7-.08,1.22.21,1.1.46.25-.17,1.08.15,1.46-.27-.91-.51-2.06-.53-3.25-.11-.26-.15,0-.32.05-.44h-.01Z"/>
      <path class="st0" d="M1216.01-220.3l.44.08c-.12-.04-.27-.07-.44-.08Z"/>
      <path class="st0" d="M1173.83-220.66c.32-.02.46-.08.47-.14-.3.04-.54.08-.47.14Z"/>
      <path class="st0" d="M1166.63-221.39c.15.02.28.03.42.04-.16-.06-.32-.09-.42-.04Z"/>
      <path class="st0" d="M1216.01-220.3l-1.13-.21c-.08.22.58.16,1.13.21Z"/>
      <path class="st0" d="M1274.7-217.67c.24-.03.43-.09.61-.17-.19.03-.38.05-.57.07-.01.04-.02.07-.04.1h0Z"/>
      <path class="st0" d="M1234.6-220.83h.34c.1-.08.2-.17.28-.27l-.63.27h.01Z"/>
      <path class="st0" d="M1248.87-220.94c-.32-.02-.43.54-.56.78.18-.23.42-.34.7-.39,0-.11-.04-.23-.15-.4h.01Z"/>
      <path class="st0" d="M1271.5-219.95l.4-.08c-.1.02-.28.05-.4.08Z"/>
      <path class="st0" d="M1224.39-220.96c-.02-.08-.08-.16-.13-.2,0,.07.05.14.13.2Z"/>
      <path class="st0" d="M825.27-216.73v-.1c-.08.06-.11.1,0,.1Z"/>
      <path class="st0" d="M808.73-219.52l.23-.03c.02-.11.05-.21.05-.32l-.28.35h0Z"/>
      <path class="st0" d="M1153.45-222.11h.06c.35-.06.15-.05-.06,0Z"/>
      <path class="st0" d="M1032.46-221.7c1.37.5-2.23.64-.17,1.2-.19-.22,1.88-.88.17-1.2Z"/>
      <path class="st0" d="M1274.33-217.74h-.58c.27.02.45.02.58,0Z"/>
      <path class="st0" d="M1032.29-220.49h0l.21.06c-.09-.02-.14-.04-.21-.06Z"/>
      <path class="st0" d="M1123.08-221.77c.06.1.18.17.31.25-.01-.06-.08-.13-.31-.25Z"/>
      <path class="st0" d="M1145.71-220.97l-.56-.08c.22.05.4.07.56.08Z"/>
      <path class="st0" d="M1111.34-220.98c-.3-.04-.41-.12-.82-.04.04.03.08.05.13.07.15-.08.35-.11.7-.02h-.01Z"/>
      <path class="st0" d="M1099.11-220.98c.06.04.15.08.23.11.12,0,.26-.02.39-.03l-.61-.08h-.01Z"/>
      <path class="st0" d="M862.42-217c-.27-.16-.43-.33-.56-.51.19.4-1.61.54.56.51Z"/>
      <path class="st0" d="M1274.69-217.99c-.07.14-.18.21-.36.24.14,0,.28-.02.41-.03.04-.08.04-.16-.04-.21h-.01Z"/>
      <path class="st0" d="M1110.84-216.54l-1.94-.08c.54.05,1.25.08,1.94.08Z"/>
      <path class="st0" d="M950.14-217.08l-.45.07c.17,0,.33,0,.45-.07Z"/>
      <path class="st0" d="M1103.13-216.54c-.35-.2-.71-.31-1.09-.39-.08.04-.17.08-.23.15l1.32.24Z"/>
      <path class="st0" d="M861.86-217.51h0Z"/>
      <path class="st0" d="M849.06-216.18c1.85.02.87-.72,1.26-1.15,2.21-.21,1.02.54,1.77.92,1.38-.2,2.44-.87,3.47-.85.08.12.28.17.04.32,1.46-.59,4.33-.03,6.03-.77.13.07.19.13.22.18-.28-.37-.32-.75-.26-1.01.83,0,1.54-.47,1.85.02-.51,0-.55.18-.79.33l.87-.21c.78.69-1.19.24-1.19.75,1.7-.23,3.67-.8,4.97-.6.27.68-3.04.23-1.3.83l-2.01-.26c1.54,1.07-1.22-.07.19,1.07,2.65.2,2.96-.35,5.6-.15.59-.38-.2-.56.4-.94,3.75-.68,2.95,1.71,5.71.8.71-.45.99-1.31,2.95-.86l-.67.77c2.56.08,1.46-1.1,4.14-.59-.48.3-2.01.25-1.63.35,1.74.61,1.23-.44,2.56-.44l.28.68c2.73-.11,5.73-.6,8.75-.72-.17.2-.68.41.02.62,3.81-.34,8.13.08,11.8.49l1.4-.59c.33,0,.61.27.25.38,1.43.22.07-.37.76-.6.81-.04,1.08.34.56.51,2.53-.5,7.2-1.07,9.86-.44l-.52.17c2.07.24,2.34-1.2,4.26-.66l-.37.1c4.5.25,9.47-.28,12.9.6.65-.85,4.45.38,4.74-.8,2.57.58,1.83.8,5.45,1.19.97.05,1.44-.74,2.63-.86l.03.62,1.62-.65.86.74,1.12-.16c-.45-.04-.95-.28-.88-.45,1.75-.28,4.27.43,4.31.74l4.14-.52c-.09.25-.79.33-1.33.49,2.21-.63.4.65,2.43.07-.27-.14.15-.37.19-.49,1.01.37,3.31.38,5.01.22l-.33.42c3.07.11,6.47-.2,9.92-.2-1.24-.2-.95-.93.06-1.01l.4.65c.65-.4-1.06-.25.28-.74,1.29.08.87.74.13.95l1.57-.23c.09.19-.28.3-.37.54.64-.4,2.7.65,3.63-.05l.09.19c3.45,0,5.01-.22,7.82-.25.05-.56,1.15-.44,1.99-.89,2.06.18,4.35.62,6.84.57,1.75-.28.51-.48,1.3-.81.13.51,2.61.46,1.32.83,2.98-.08,3.81-.1,7.58-.52-.41-.21-.87-.3-.63-.48.68-.08,1.56.21,1.46.46l-.18.05c4.23-.77,9.77,1.49,13.15.43l-.19.05,3.5-.56c1.61.09-.96.38.23.7,3.77-.86,5.96.12,9.07-.45,2.4,1.51,8.53-.11,11.78.86l-.19-.36c.84-.35,1.01.2,1.63.29-.09-.28-.91-.32-.39-.51,7.11-.43,14.67.52,21.95.84,2.66.1,1.51-1.84,4.87-.99l-.95.66c5.38-.79,10.99.03,16.26-.65-.31.15-.32.35-.84.35,1.11.48,4.11.02,4.13-.37.82.04.19.35.69.55,1.12.28,2.8-.61,3.39-.14.1.08-.31.16-.52.19.73-.23,3.39.06,2.69-.49,1.98.26,3.78-.25,5.36.08,1.03-.62,3.38.3,3.71-.58-.14.9,3.46.73,4.71.3-.42.27,1.09.28.6.66,1.43,0,2.73-.18,2.48-.65,2.63,1.08,5.28-.87,6.76.52,4.23-.49,8.15-.82,11.96-1.03-.14.9-4.21.09-4.05,1.04,3.61-.37,5.7-1.15,9.28-.93.93.12-.53.39-.84.55,3.61-.37,6.98.08,10.19-.41,0,.08-.36.18-.68.24.63-.03,1.47.13,1.4-.28l-.62.11c-1.01-.6,2.51-1.24,2.63-1.56-1.07,1.18,3.17.3,1.47,1.78.42-.08.94-.27.84-.55.62.08.81.24.19.55,2.27-.22,1.46-.66,3.52-.65,0,.2-.42.28-.63.51,1.04-.39,2.09-.77,3.82-.61-.1.12.1.28-.42.27,2.98-.06,5.08-1.03,8.35-.66-.96.86,1.11.28,1.29,1.03l1.76-.22-.71-.36c1.54,0,2.9-.53,4.23-.29l-1.15.31,2.89-.14-1.63-.28c1.56-.38-.17-.94,1.88-.74-.42.08,1.54,0,2.34.45h0c.76-.24,1.55-.49,2.69-.3.3.24-.24.83-.05.98.75-.62,3.61-.17,4.56-.84-.32.16-.33.55-.23.63l.63-.51c.71.16.82.24.7.55,2.15.09-.68-.95,1.87-.54-.2.04-.1.12-.52.19,2.56.21,4.94-.32,7.3-.07.69.75-2.05.18-1.26.82,3.39-.14,7.02-.9,10.3-.72l-.61-.08c.45-1.06,2.44.52,4.1.02-.41.08-.53.59-.42.47,2.25.17,4.59-.26,8-.59l-.42.27c1.32.24,3.49.14,4.92.26.42-.27,1.24-.23.75-.62,4.41,1.55,8.41-.83,12.33.46-.47,0-1.12.24-.74.24l3.33-.25c-.26-.46-.44-.28-1.14-.64.42-.27,1.36-.49,2.19-.49-1.5.31.01.74.66,1-.11-.14.11-.3.06-.44,1.74.82.29-.93,2.67-.38l-.13.24c.89-.12,1.71-.44,2.67-.38.4.53-.95.25-1.01.69,1.35-.03,2.66-1.01,3.88-.48-.57.15-1.4.15-1.97.3,1.33.63,1.48.47,2.47.57h-.1l2.28.27-.58-.17c1.69-1.39,3.43-.25,5.71-1.17-2.21.86-.36.5-.53,1.11.58.17,1.46.36,1.21.53,1.07-.49,1.79.39,3.31-.33.07.2,1.15.02.91.51,1.4-.15-.33-.34-.21-.58,2.15-.67,5.06.81,8.15-.11,2.67-.38,3.16-1.03,5.64-1.36.84.31-.68.71-.68.71,1.35.29,2.36.23,3.63,0-.26.17,0,.31.4.53,1.02-.05.68-.71,2.03-.42-.23.22-.53.57-1.02.78,1.2-.18,2.39-.54,3.63-.72.33.34-.75.52-1.19.74,1.4-.15,3.62-.31,4.05-.85l-.9-.19c.51-.03.26.46-.11.56-1.2.42-1.73-.19-1.8-.38l.89-.12c-.91-1.14-3.56.18-5.34.12l.74-.83-1.83.69c-.39-.22-.66-.68.23-.81-1.28-.41-1.13.3-2.23-.16-.12-.07-.07-.11.05-.14l-1.25.25c.24-.17-.21-.59.56-.47-2.24-.48-3.62.62-4.46,0l.19-.05c-3.11.28-.3.61-2.63,1.33l-1.57-1.51-.31.61c-.32-.02-.96-.07-.84-.31-1.19.42.2.27-.49.66-1.55-.56-4.26.26-4.61-.71-.55.46,1.48.36-.17.68-.47-1.05-1.91.18-3.32-.3.43-.54,1.77-.25.36-.74-.85.91-2.75-.2-3.94-.03-.06.73-2.59.3-4.59.55.13-.24-3.76-.4-5.62-.66l.05-.12c-.36.73-2.28.6-3.67.75.05-.44.31-.61,1.06-.81h-1.31c-.31.24-.72.36-1.57.45l.33-.55c-1.75.03-3.52.65-5.76.28-.13.51,1.79,1.43-.59,1.77-.09-.28-.18-.75.45-.86-.2.04-.73.23-1.14.11l.95-.47c-1.02-.2-.54.39-1.35.35.02-.4-.61-.28-.49-.6.21-.04.71.16,1.03,0-.92-.07-2.04-.3-2.41-.6.08.22,0,.53-.68.58-1.75.03-.6-.47-1.62-.68-.42.27-1.54,0-1.57.58-.51,0-.61-.28-.8-.44-.9.26-4.22.07-3.2.7l.23.04s-.09,0-.15.03h0c-2.96.59-6.15-.33-9.09-.08v-.2c-1.75.23-3.9.13-5.15.56-.52,0-1.22-.36-1-.6-1.34.15-1.49.37-3.43.04,1.35-.34-.47-.31,1.38-.25-1.74-.17-2.14-.49-4.01.05.64-.51-1.31-.64-2.14-.49l1.22.36c-.93.07-1.75.03-2.57,0l.45-.67c-3.57-.81-6.43,1.38-9.15.02-.94.47,1.94.33,1.09.87-1.64-.09-3.35-1.04-3.86-1.05-2.25-.37-2.1.97-4.45.72.3.24.58.87-1.17,1.09-1.64-.09-2.02-1-.98-1.19.39-.02.58.06.57.14.53-.09,1.23-.19.58-.45l-.21.24c-.81-.24-3.07-.22-2.54-.61-1.24.23-.53.39.39.51-2.11-.34-3.29,0-5.46-.24.34.13.66.41.32.41-3.18-.29-1.4.45-3.55.55-1.22-.36.44-.86-1.73-.56-1.32-.24-.28-.63.25-.82-1.98.46-3.69-.3-4.82-.38l1.04-.19c-.62.11-1.13.11-1.65.11l.59.47c-.61-.08-1.13-.08-1.12-.28-.63.31.48.79-.77,1.21-.81-.24-2.48.26-2.76-.37,2.56.21-.28-.63,1.89-.73-.42.08-.93.07-1.54,0-.09-.07.09-.13.25-.17-2.45-.56-1.13.71-3.67.7.32-.36-.59-.67-1-.6,1.02,0,.49.59-.45.86-1.63-.28-1.77.21-2.62.17l.97.13c-.33.36-1.14.31-2.28.42-.1-.28,1.03-.19.63-.31-1.26.62-2.85-.65-4.61-.23-.81-.24-.08-.67-.79-.83-1.97.46-2.13-.49-4.21-.11.6.48.7.36-.76.83l3.4-.34-2.19.69c1.03,0,2.17-.3,2.78-.22-1.04.39-.93.27-.44.67-1.41-.72-2.79.42-4.41-.07l.05-1.18c-2.44-.53-4.34.61-7.51.31l1.02.21c-.43.47-1.96.07-2.99.26.1-.4-.55-.54-.99-.78.05.29-2.32-.03-2.61.76l-1.42-.52c-2.56-.21-2.92,1.12-5.39.99.74-.43-.38-.71,1.27-1.02-.82,0-1.56-.08-1.57.2-.48-.25-2.28.53-3.04.16-.35.17-.46.59-1.38.55-.1-.08,0-.19,0-.19,0,.19-1.45.27-.64.7-2.53-1.23-7.08.09-9.29-.97-1.79.13-3.96.26-5.59.29.1-.12,0-.2.31-.16-2.25-.37-1.38,1.13-3.94.72-1.31-.64,1.36-.35.54-.59-.35-1.3-3.09.18-4.81-.58l.42-.08c-1.32-.44-3.21.49-5.36.4,0,0,.1-.11.01-.2-1.47.66-4.25.88-6.32,1.07.64-.51.94-.27.55-.79-.93.07.27.83-1.58.97-.6-.28-1.94-.52-2.11-1.07l1.75-.03c-.89-.71-2.26.02-3.18-.1l.12-.31c-2.67.1-2.71.89-5.59.83l.3.24c-1.57.78-1.32-.44-2.88.14l-.47-.79c-1.04.19-3.63.76-5.49.91,1.05-.59,3.23-.88,4.57-1.23-1.03,0-3.49.06-4.03.45.41-.08.94-.27,1.34-.15-1.26.62-2.92.93-4.97.91.36-1.53-5.34-.39-6.82-1.57-3.62.57-7.18-.24-11.4-.15,1.5,1.19-1.23.03-.97,1.26-.98.08-1.36.06-1.45-.02l-2.98-.73c-.71-.36.93-.27.84-.54-2.15-.09-.9-.52-2.33-.84.29.44-.75.63-1.97.46l1.73.56c-3.01.65-2.6-1.03-5.63-.38l.96-.38c-1.56.23-5.74,0-7.26.97-.28-.14-.64-.48.05-.56-3.72-.15-8.27,1.05-11.16.44l.28-.3c-.69.09-1.21.56-2.08.26.04-.12.28-.3-.04-.32-.37.1-1.84.52-2.76.35l.79-.34c-3.63-.39-5.56.82-8.6,1.02,0-.88-2.85-1.17-4.27-1.31l.05-.12c-4.22-.11-7.17.73-11.08,1.08-2.43-.96-8.22-.4-12.12-.94.6.16-.1.69-.79.77-.92-.18-2.53.61-2.39-.2l.33.02c-.69-.79-2.57-.58-4.04-.6l-.24,1.06c-3.84-1.54-10.07.56-12.16-.81-.93.26-2.08.26-2.99.52l.05-.57c-2.57-.14-3.85-.22-7.03-.08l.65-.4c-1.79-.04-2.26,1.63-3.91,1.67l-.5-.85c-3.12,0-6.29-.73-9.37.04.05-.12.14-.37.65-.4-1.47-.02-5.69-.57-5.16.59-.04-.76-3.22-.07-4.91.26l.26-.56c-1.42.71-1.47.91-3.46,1.1-.47-.07-.41-.45.21-.3-1.57-.29-1.22.53-3.13.23l.71-.36c-1.62-.04-1.49.15-2.38.56-1.02.22-3.07-.14-3.3-.64-.22.31-1.1.72-2.06.57-.13-.19.22-.31.39-.37-2.7-.38-4.02.65-5.88.1-.04-.18-.16-.28-.31-.33,2.15,0,3.88.04,3.71.08,0-.51-1.73-.6-.35-1.31-1.39.39-3.77,1.23-5.46.99-.08-.05-.16-.1-.22-.18l.17-.06c-.39-.05-.74,0-1.07.08-.54-.08-.88-.15-1.4-.15-.2-.42-1.99-.23-2.85-.25.07.56-1.06.47,0,.94-.14-.04.16-.07.74-.09.13-.02.28-.03.37-.06-.02.02-.04.03-.06.05.57-.02,1.31-.03,2.15-.04-.68.29-1.4.53-2.35.21-.44.36-.93.73-1.21.91-1.18-.78-3.46-1.21-3.78-1.69-2.64.32-6.22.21-7.88,1.26-.75.14-.86-.3-1.14-.47.43-.11.95-.09,1.18-.24-1.5.27-4.45.11-4.8.84-1.89-.33,1.06-.68-1.54-.56l.35-.23c-5.11-1.18-8.31,1.88-13.98.37.39.09.59.14.67.26-6.46-.67-13.32.63-19.7-.43-1.81-.21-2.01.26-3.12.62l-.39-.6-1.89.7c-2.68.51-4.64-1.48-8.04-.52l.44.41c-1.22-.08-3.86.24-3.66-.23-.12.07-.4.42-.88.21l-.04-.32-3,.54c-2.32-.23.36-1.25-3.03-1.32-1.26.12-3.59.92-3.11,1.13.51.02,1.3.2,1.34.51l-1.15.16c-.21.93-1.09,1.88,1.73,2.54l1.97-.57.63.45-1.66.03c.94.42,1.54.05,2.21-.21.16.24.43.41.83.5l1.94-.89c.23.36-.87.72.43.92.91-.41-.87-.82.63-1.09.94.42.67.77,1.77.41.16.24-.08.39-.52.5.99-.29,2.61-.12,3.12-.62.98.52,3.33-.14,3.23.75.31-.21,1.74-.69,2.64-.73-1.65,1.06,3.39.06,2.95,1.19,1.22-.95,4.42-.42,6.59-.95-.12.08-.36.23-.55.18,1.22.08,1.57.36,2.36.54.16-.78,2.06-.96,3.08-1.45,1.49.76-.91.92-.44,1.65-.08-.64,2.6-.63,2.09-1.16,1.14.47.99.23,1.57.88.2-.98,1.06-.17,2.01-.77,1.65.48.43.92,2.24.62.86.3-.75.65-.75.65v.18h0ZM892.29-217.87h0c-.37.02-.69.04-.89.04.19,0,.44-.02.89-.04ZM895.92-217.88c-.44-.02-.99-.03-1.58-.02-.13-.19.01-.39.38-.38-.2.13.66.24,1.2.41h0ZM888.24-221.78c.57-.08.77.03.85.15-.27,0-.59.03-1.01.07-.02.02-.05.04-.07.07.05-.11.12-.21.23-.28h0Z"/>
      <path class="st0" d="M887.21-221.04c-.08,0-.13.04-.24.04.12.05.23.09.34.13.07-.06.14-.12.2-.18h-.31,0Z"/>
      <path class="st0" d="M1216.53-220.21h-.08c.06,0,.12.03.16.07-.05-.03-.05-.04-.08-.07h0Z"/>
      <polygon class="st0" points="946.09 -216.81 946.08 -216.95 945.77 -216.82 946.09 -216.81"/>
      <path class="st0" d="M1236.53-218.28s.11.1.26.14c-.01-.04-.12-.09-.26-.14Z"/>
      <path class="st0" d="M1245.18-218.15l1.22.2c-.53-.11-.91-.17-1.22-.2Z"/>
      <path class="st0" d="M1251.82-217.87c.08-.1.11-.17.13-.24h-.01l-.12.24Z"/>
      <path class="st0" d="M1146.16-217.21c-.09,0-.18,0-.26.03-.6.11-.19.07.26-.03Z"/>
      <path class="st0" d="M1177.61-218.53c-.33.1-.66.2-1.01.27.56.04.99.05,1.01-.27Z"/>
      <path class="st0" d="M1111.05-216.54h-.22.22Z"/>
      <path class="st0" d="M1175.13-218.27c.56.11,1.03.09,1.46,0-.46-.04-1-.1-1.46,0Z"/>
      <path class="st0" d="M1280.63-217.62l.32.02s.01-.07.04-.09l-.36.07h0Z"/>
      <path class="st0" d="M1280.98-217.68l.36-.07c-.16,0-.3,0-.36.07Z"/>
      <path class="st0" d="M1282.09-217.89l-.75.14c.26,0,.58.02.75-.14Z"/>
      <path class="st0" d="M1271.83-217.88l-.1.2c.05-.04.09-.11.1-.2Z"/>
      <path class="st0" d="M1269.15-217.82c.64.05,1.6.44,2.49.31l.08-.16c-.42.3-1.97-.49-2.57-.15Z"/>
      <path class="st0" d="M1258-220.34l2.24.16c-.39-.22-.91-.51.11-.56-2.82-.65.58.49-2.35.4Z"/>
      <path class="st0" d="M1251.05-220.65c1.2-.1-.01-.32.05-.44-.76.2-.95.25-.05.44Z"/>
      <path class="st0" d="M1200.85-220.66l.12-.51c-.93.07,0,.2-.12.51Z"/>
      <polygon class="st0" points="1191.26 -218.01 1192.16 -217.69 1192.59 -218.16 1191.26 -218.01"/>
      <polygon class="st0" points="1185.59 -221.66 1186 -221.73 1184.45 -221.54 1185.59 -221.66"/>
      <path class="st0" d="M1101.29-221.47l.28.63c.63-.11.76-.82-.28-.63Z"/>
      <path class="st0" d="M1064.89-220.83c-.4-.32-1.42-.52-2.05-.21.82.04,1.63.29,2.05.21Z"/>
      <polygon class="st0" points="955.74 -221.86 956.47 -222.07 955.09 -221.89 955.74 -221.86"/>
    </g>
  </g>
  <path class="st7" d="M304.99,60.14H39c-16.65,0-30.14,13.21-30.14,29.5v65.87c0,16.29,13.49,29.5,30.14,29.5h621.09c16.65,0,30.14-13.21,30.14-29.5v-65.87c0-16.29-13.49-29.5-30.14-29.5h-265.99l-44.55-48.92-44.55,48.92h-.01Z"/>
  <g>
    <path class="st0" d="M533.88,159.93c.26-.17.11-.56-.61-.49l-.51.66,1.12-.18h0Z"/>
    <path class="st0" d="M529.03,158.7c-.85.32-1.83.88-1.28,1.49.84-.64,1.04-.37,1.95-1.13.72-.08,1.26.21,1.14.46.26-.17,1.12.15,1.51-.27-.94-.51-2.13-.53-3.37-.11-.27-.15,0-.32.05-.44Z"/>
    <path class="st0" d="M458.55,157.67l.45.08c-.12-.04-.28-.07-.45-.08Z"/>
    <path class="st0" d="M414.88,157.31c.33-.02.47-.08.49-.14-.31.04-.56.08-.49.14Z"/>
    <path class="st0" d="M407.42,156.58c.16.02.29.03.44.04-.17-.06-.34-.09-.44-.04Z"/>
    <path class="st0" d="M458.55,157.67l-1.17-.21c-.08.22.6.16,1.17.21Z"/>
    <path class="st0" d="M519.31,160.3c.24-.03.45-.09.63-.17-.2.03-.39.05-.6.07-.01.04-.02.07-.04.1h0Z"/>
    <path class="st0" d="M477.8,157.13h.35c.1-.08.2-.17.29-.27l-.65.27h0Z"/>
    <path class="st0" d="M492.57,157.03c-.33-.02-.45.54-.58.78.19-.23.44-.34.73-.39,0-.11-.04-.23-.15-.4h0Z"/>
    <path class="st0" d="M516,158.02l.42-.08c-.11.02-.29.05-.42.08Z"/>
    <path class="st0" d="M467.22,157.01c-.02-.08-.08-.16-.13-.2,0,.07.05.14.13.2Z"/>
    <path class="st0" d="M53.97,161.24v-.1c-.09.06-.11.1,0,.1Z"/>
    <path class="st0" d="M36.85,158.45l.24-.03c.03-.11.05-.21.05-.32l-.29.35Z"/>
    <path class="st0" d="M393.77,155.86h.06c.36-.06.16-.05-.06,0Z"/>
    <path class="st0" d="M268.5,156.27c1.42.5-2.31.65-.17,1.2-.2-.22,1.94-.88.17-1.2Z"/>
    <path class="st0" d="M518.93,160.22h-.61c.28.02.46.02.61,0Z"/>
    <path class="st0" d="M268.33,157.47h0l.22.06c-.09-.02-.14-.04-.22-.06Z"/>
    <path class="st0" d="M362.33,156.19c.06.1.19.17.32.25-.01-.06-.08-.13-.32-.25Z"/>
    <path class="st0" d="M385.75,156.99l-.58-.08c.23.05.42.07.58.08Z"/>
    <path class="st0" d="M350.17,156.99c-.32-.04-.42-.12-.85-.04.04.03.08.05.13.07.16-.08.36-.11.72-.02h0Z"/>
    <path class="st0" d="M337.51,156.99c.07.04.16.08.23.11.13,0,.27-.02.4-.03l-.63-.08Z"/>
    <path class="st0" d="M92.45,160.97c-.28-.16-.45-.33-.58-.51.2.4-1.66.54.58.51Z"/>
    <path class="st0" d="M519.31,159.98c-.07.14-.18.21-.38.24.15,0,.28-.02.42-.03.04-.08.04-.16-.04-.21Z"/>
    <path class="st0" d="M349.65,161.42l-2.01-.08c.56.05,1.29.08,2.01.08Z"/>
    <path class="st0" d="M183.26,160.88l-.46.07c.18,0,.34,0,.46-.07Z"/>
    <path class="st0" d="M341.67,161.42c-.36-.2-.74-.31-1.13-.39-.08.04-.18.08-.23.15l1.37.24h0Z"/>
    <path class="st0" d="M91.86,160.45h0Z"/>
    <path class="st0" d="M78.61,161.79c1.92.02.9-.72,1.31-1.15,2.29-.21,1.06.54,1.84.92,1.43-.2,2.52-.87,3.59-.85.08.12.29.17.04.32,1.51-.59,4.48-.03,6.24-.77.13.07.2.13.23.18-.28-.37-.33-.75-.27-1.01.86,0,1.59-.47,1.92.02-.53,0-.57.18-.82.33l.9-.21c.81.69-1.23.24-1.23.75,1.76-.23,3.8-.8,5.15-.6.28.68-3.15.23-1.35.83l-2.08-.26c1.59,1.07-1.26-.07.2,1.07,2.74.2,3.06-.35,5.8-.15.62-.38-.2-.56.41-.94,3.88-.68,3.06,1.71,5.91.8.74-.45,1.03-1.31,3.06-.86l-.69.77c2.65.08,1.51-1.1,4.29-.59-.49.3-2.08.25-1.68.35,1.8.61,1.27-.44,2.66-.44l.29.68c2.82-.11,5.93-.6,9.06-.72-.17.2-.71.41.02.62,3.94-.34,8.42.08,12.22.49l1.45-.59c.34,0,.63.27.26.38,1.48.22.08-.37.79-.6.84-.04,1.11.34.58.51,2.62-.5,7.45-1.07,10.21-.44l-.54.17c2.15.24,2.42-1.2,4.41-.66l-.38.1c4.66.25,9.81-.28,13.36.6.68-.85,4.61.38,4.91-.8,2.66.58,1.9.8,5.64,1.19,1,.05,1.49-.74,2.73-.86l.03.62,1.68-.65.89.74,1.16-.16c-.46-.04-.98-.28-.91-.45,1.81-.28,4.42.43,4.46.74l4.29-.52c-.1.25-.81.33-1.38.49,2.29-.63.42.65,2.51.07-.28-.14.15-.37.2-.49,1.05.37,3.42.38,5.19.22l-.34.42c3.18.11,6.7-.2,10.27-.2-1.28-.2-.99-.93.06-1.01l.42.65c.68-.4-1.09-.25.29-.74,1.33.08.9.74.13.95l1.62-.23c.1.19-.28.3-.38.54.66-.4,2.8.65,3.76-.05l.09.19c3.57,0,5.19-.22,8.09-.25.06-.56,1.19-.44,2.06-.89,2.14.18,4.51.62,7.08.57,1.81-.28.53-.48,1.34-.81.13.51,2.7.46,1.37.83,3.09-.08,3.94-.1,7.85-.52-.42-.21-.9-.3-.65-.48.71-.08,1.61.21,1.51.46l-.19.05c4.38-.77,10.12,1.49,13.61.43l-.2.05,3.62-.56c1.67.09-1,.38.23.7,3.91-.85,6.17.12,9.39-.45,2.49,1.51,8.83-.11,12.19.86l-.19-.36c.87-.35,1.05.2,1.69.29-.09-.28-.94-.32-.4-.51,7.36-.43,15.19.52,22.73.84,2.76.1,1.57-1.84,5.04-.99l-.99.66c5.57-.79,11.38.03,16.83-.65-.32.15-.33.35-.87.35,1.15.48,4.26.02,4.28-.37.85.04.2.35.72.55,1.15.28,2.9-.61,3.51-.14.1.08-.32.16-.54.19.75-.23,3.51.06,2.79-.49,2.05.26,3.91-.25,5.54.08,1.06-.62,3.5.3,3.84-.58-.15.9,3.59.73,4.88.3-.43.27,1.12.28.62.66,1.48,0,2.83-.18,2.57-.65,2.72,1.08,5.47-.87,7,.52,4.38-.49,8.44-.82,12.39-1.03-.14.9-4.36.09-4.19,1.04,3.74-.37,5.9-1.15,9.61-.93.96.12-.55.39-.87.55,3.74-.37,7.23.08,10.55-.41,0,.08-.37.18-.71.24.66-.03,1.52.13,1.45-.28l-.64.11c-1.05-.6,2.6-1.24,2.72-1.56-1.11,1.18,3.29.3,1.52,1.78.43-.08.97-.27.87-.55.64.08.84.24.19.55,2.35-.22,1.51-.66,3.64-.65,0,.2-.44.28-.66.51,1.08-.39,2.16-.77,3.96-.61-.11.12.1.28-.44.27,3.09-.06,5.26-1.03,8.65-.66-1,.86,1.15.28,1.33,1.03l1.82-.22-.73-.36c1.6,0,3.01-.53,4.38-.29l-1.19.31,2.99-.14-1.69-.28c1.61-.38-.17-.94,1.95-.74-.43.08,1.6,0,2.43.45h0c.79-.24,1.6-.49,2.78-.3.31.24-.25.83-.05.98.78-.62,3.74-.17,4.72-.84-.33.16-.35.55-.24.63l.65-.51c.74.16.85.24.73.55,2.22.09-.71-.95,1.93-.54-.21.04-.11.12-.54.19,2.65.21,5.12-.32,7.55-.07.72.75-2.13.18-1.31.82,3.51-.14,7.27-.9,10.67-.72l-.63-.08c.47-1.06,2.53.52,4.25.02-.42.08-.55.59-.44.47,2.33.17,4.76-.26,8.28-.59l-.44.27c1.37.24,3.61.14,5.09.26.44-.27,1.29-.23.77-.62,4.57,1.55,8.71-.83,12.76.46-.48,0-1.15.24-.77.24l3.45-.25c-.27-.46-.45-.28-1.18-.64.44-.27,1.41-.49,2.27-.49-1.55.31.01.74.68,1-.11-.14.12-.3.06-.44,1.8.82.3-.93,2.76-.38l-.13.24c.92-.12,1.77-.44,2.76-.38.41.53-.98.25-1.04.69,1.4-.03,2.75-1.01,4.02-.48-.59.15-1.45.15-2.04.3,1.38.63,1.53.47,2.56.57h-.1l2.36.27-.6-.17c1.75-1.39,3.56-.25,5.91-1.17-2.29.86-.38.5-.55,1.11.6.17,1.51.36,1.25.53,1.11-.49,1.86.39,3.42-.33.07.2,1.19.02.94.51,1.45-.15-.34-.34-.22-.58,2.23-.67,5.24.81,8.44-.11,2.76-.38,3.27-1.03,5.84-1.36.87.31-.71.71-.71.71,1.4.29,2.45.23,3.76,0-.27.17,0,.31.41.53,1.06-.05.71-.71,2.1-.42-.24.22-.55.57-1.05.78,1.24-.18,2.47-.54,3.76-.72.34.34-.78.52-1.23.74,1.45-.15,3.75-.31,4.2-.85l-.93-.19c.53-.03.27.46-.12.56-1.24.42-1.79-.19-1.86-.38l.92-.12c-.94-1.14-3.68.18-5.53.12l.77-.83-1.89.69c-.4-.22-.68-.68.23-.81-1.32-.41-1.17.3-2.31-.16-.13-.07-.07-.11.05-.14l-1.29.25c.25-.17-.22-.59.58-.47-2.32-.48-3.74.62-4.62,0l.19-.05c-3.22.28-.31.61-2.73,1.33l-1.63-1.51-.32.61c-.33-.02-.99-.07-.87-.31-1.24.42.21.27-.51.66-1.6-.56-4.41.26-4.77-.71-.57.46,1.53.36-.18.68-.49-1.05-1.97.18-3.44-.3.45-.54,1.83-.25.37-.74-.88.91-2.85-.2-4.08-.03-.06.73-2.68.3-4.75.55.13-.24-3.89-.4-5.82-.66l.06-.12c-.37.73-2.36.6-3.8.75.06-.44.32-.61,1.1-.81h-1.36c-.32.24-.74.36-1.63.45l.34-.55c-1.81.03-3.64.65-5.97.28-.13.51,1.85,1.43-.61,1.77-.09-.28-.18-.75.46-.86-.21.04-.75.23-1.18.11l.98-.47c-1.06-.2-.55.39-1.4.35.02-.4-.63-.28-.51-.6.22-.04.74.16,1.06,0-.96-.07-2.11-.3-2.49-.6.08.22,0,.53-.7.58-1.81.03-.62-.48-1.67-.68-.44.27-1.59,0-1.62.58-.53,0-.63-.28-.83-.44-.94.26-4.37.07-3.32.7l.24.04s-.1,0-.15.03h0c-3.07.59-6.37-.33-9.42-.08v-.2c-1.81.23-4.04.13-5.34.56-.54,0-1.27-.36-1.04-.6-1.39.15-1.54.37-3.55.04,1.4-.34-.48-.31,1.43-.25-1.8-.17-2.21-.49-4.15.05.66-.51-1.36-.64-2.22-.49l1.26.36c-.96.07-1.81.03-2.66,0l.46-.67c-3.69-.81-6.66,1.38-9.47.02-.98.47,2.01.33,1.13.87-1.7-.09-3.47-1.04-4-1.05-2.33-.37-2.17.97-4.61.72.31.24.61.87-1.21,1.09-1.7-.09-2.09-1-1.02-1.19.41-.02.6.06.59.14.55-.09,1.27-.19.6-.45l-.22.24c-.84-.24-3.18-.22-2.63-.61-1.28.23-.55.39.4.51-2.18-.34-3.41,0-5.65-.24.36.13.69.41.33.41-3.29-.29-1.45.45-3.68.55-1.27-.36.45-.86-1.79-.56-1.37-.24-.29-.63.25-.82-2.05.46-3.82-.3-4.99-.38l1.08-.19c-.64.11-1.17.11-1.71.11l.62.47c-.63-.08-1.17-.08-1.16-.28-.65.31.5.79-.79,1.21-.84-.24-2.57.26-2.86-.37,2.65.21-.29-.63,1.95-.73-.43.08-.96.07-1.6,0-.1-.07.09-.13.26-.17-2.54-.56-1.17.71-3.8.7.33-.35-.61-.67-1.04-.6,1.06,0,.51.59-.47.86-1.69-.28-1.83.21-2.72.17l1.01.13c-.34.35-1.19.31-2.36.42-.1-.28,1.07-.19.65-.31-1.31.62-2.95-.65-4.77-.23-.84-.24-.08-.67-.82-.83-2.04.46-2.21-.49-4.35-.11.62.48.73.36-.78.83l3.53-.34-2.26.69c1.06,0,2.25-.3,2.88-.22-1.08.39-.97.27-.46.67-1.46-.72-2.89.42-4.57-.07l.05-1.18c-2.53-.53-4.5.61-7.78.31l1.06.21c-.44.47-2.03.07-3.09.26.1-.4-.57-.54-1.02-.78.06.29-2.4-.03-2.7.76l-1.47-.52c-2.65-.21-3.03,1.12-5.58.99.77-.43-.39-.71,1.32-1.02-.85,0-1.62-.08-1.63.2-.5-.25-2.36.53-3.14.16-.36.17-.48.59-1.43.55-.1-.08,0-.19,0-.19,0,.19-1.5.27-.66.7-2.62-1.23-7.33.09-9.61-.97-1.86.13-4.1.26-5.78.29.11-.12,0-.2.32-.16-2.33-.37-1.43,1.13-4.08.72-1.35-.64,1.41-.35.56-.59-.37-1.3-3.2.18-4.98-.58l.43-.08c-1.36-.44-3.32.49-5.55.4,0,0,.11-.11.01-.2-1.52.66-4.4.88-6.54,1.07.67-.51.97-.27.57-.79-.96.07.28.83-1.63.97-.62-.28-2-.52-2.19-1.07l1.81-.03c-.93-.71-2.34.02-3.29-.1l.12-.31c-2.77.1-2.81.89-5.78.83l.31.24c-1.63.78-1.36-.44-2.99.14l-.49-.79c-1.07.19-3.76.76-5.68.91,1.09-.59,3.34-.88,4.74-1.23-1.06,0-3.62.06-4.17.45.43-.08.97-.27,1.39-.15-1.31.62-3.02.93-5.14.91.38-1.53-5.53-.39-7.06-1.57-3.75.57-7.44-.24-11.81-.15,1.55,1.19-1.28.03-1.01,1.26-1.02.08-1.41.06-1.5-.02l-3.08-.73c-.73-.36.97-.27.87-.54-2.23-.09-.93-.52-2.41-.84.3.44-.77.63-2.04.46l1.79.56c-3.11.65-2.69-1.03-5.83-.38l.99-.38c-1.61.23-5.94,0-7.52.97-.28-.14-.66-.48.05-.56-3.85-.15-8.57,1.05-11.56.44l.29-.3c-.72.09-1.25.56-2.15.26.05-.12.29-.3-.04-.32-.38.1-1.91.52-2.86.35l.81-.34c-3.75-.39-5.76.82-8.91,1.02,0-.88-2.95-1.17-4.42-1.31l.05-.12c-4.37-.11-7.43.73-11.47,1.08-2.51-.96-8.51-.4-12.55-.94.62.16-.1.69-.82.77-.95-.18-2.62.61-2.47-.2l.34.02c-.71-.79-2.66-.58-4.18-.6l-.25,1.06c-3.98-1.54-10.42.56-12.59-.81-.96.26-2.15.26-3.1.53l.05-.57c-2.66-.14-3.99-.22-7.28-.08l.67-.4c-1.85-.04-2.34,1.63-4.05,1.67l-.51-.85c-3.24,0-6.51-.73-9.71.04.05-.12.15-.37.67-.4-1.52-.02-5.89-.57-5.34.59-.04-.76-3.34-.07-5.09.26l.27-.56c-1.47.71-1.52.91-3.58,1.1-.49-.07-.43-.45.22-.3-1.63-.29-1.27.53-3.24.23l.73-.36c-1.67-.04-1.54.15-2.46.56-1.05.22-3.17-.14-3.42-.64-.23.31-1.14.72-2.13.57-.13-.19.23-.31.41-.37-2.8-.38-4.16.65-6.08.1-.04-.18-.17-.28-.32-.33,2.22,0,4.01.04,3.84.08,0-.51-1.8-.6-.37-1.31-1.44.39-3.91,1.23-5.66.99-.08-.05-.17-.1-.23-.18l.18-.06c-.4-.05-.77,0-1.11.08-.56-.08-.91-.15-1.45-.15-.21-.42-2.06-.23-2.95-.25.07.56-1.1.47,0,.94-.14-.04.17-.07.76-.09.13-.02.29-.02.38-.06-.02.02-.04.03-.06.05.59-.02,1.35-.03,2.23-.04-.71.29-1.45.53-2.44.21-.46.36-.97.73-1.25.91-1.23-.78-3.59-1.21-3.92-1.69-2.73.32-6.44.21-8.16,1.26-.78.14-.89-.3-1.18-.47.45-.11.98-.09,1.23-.24-1.55.27-4.6.11-4.97.84-1.96-.33,1.1-.68-1.59-.56l.36-.23c-5.29-1.18-8.61,1.88-14.48.37.41.09.61.14.69.26-6.69-.67-13.79.63-20.39-.43-1.88-.21-2.08.26-3.23.62l-.41-.6-1.96.7c-2.78.51-4.81-1.48-8.33-.52l.45.41c-1.26-.08-4,.24-3.79-.23-.13.07-.41.42-.91.21l-.04-.32-3.1.54c-2.4-.23.38-1.25-3.13-1.32-1.3.12-3.71.92-3.22,1.13.53.02,1.35.2,1.38.51l-1.19.16c-.22.93-1.13,1.88,1.79,2.54l2.04-.57.66.45-1.72.03c.97.42,1.59.05,2.28-.21.16.24.45.41.86.5l2-.89c.24.36-.9.72.45.92.94-.41-.9-.82.65-1.09.98.42.69.77,1.84.41.16.24-.08.39-.54.5,1.02-.29,2.7-.12,3.23-.62,1.02.52,3.44-.14,3.34.75.32-.21,1.8-.69,2.73-.73-1.71,1.06,3.51.06,3.05,1.19,1.27-.95,4.58-.42,6.82-.95-.13.08-.37.23-.57.18,1.26.08,1.63.36,2.44.54.16-.78,2.13-.96,3.19-1.45,1.55.76-.94.92-.45,1.65-.08-.64,2.69-.63,2.16-1.16,1.18.47,1.02.23,1.63.88.21-.98,1.1-.17,2.08-.77,1.71.48.44.92,2.32.62.9.3-.78.65-.78.65l.12.17h0ZM123.37,160.09h0c-.39.02-.71.04-.92.04.19,0,.46-.02.92-.04ZM127.13,160.09c-.46-.02-1.03-.03-1.63-.02-.13-.19.01-.39.39-.38-.21.13.68.24,1.24.41h0ZM119.17,156.19c.6-.08.79.03.88.15-.28,0-.61.03-1.04.07-.02.02-.05.04-.07.07.06-.11.12-.21.24-.28h0Z"/>
    <path class="st0" d="M118.1,156.93c-.09,0-.13.04-.25.04.12.05.24.09.36.13.07-.06.15-.12.21-.18h-.32Z"/>
    <path class="st0" d="M459.08,157.76h-.08c.07,0,.13.03.17.07-.05-.03-.05-.04-.09-.07h0Z"/>
    <polygon class="st0" points="179.07 161.16 179.07 161.02 178.74 161.14 179.07 161.16"/>
    <path class="st0" d="M479.8,159.69s.12.1.27.14c-.01-.04-.13-.09-.27-.14Z"/>
    <path class="st0" d="M488.75,159.82l1.27.2c-.55-.11-.95-.17-1.27-.2Z"/>
    <path class="st0" d="M495.63,160.09c.09-.1.11-.17.13-.24h-.01l-.12.24Z"/>
    <path class="st0" d="M386.23,160.76c-.09,0-.18,0-.27.03-.62.11-.2.07.27-.03Z"/>
    <path class="st0" d="M418.78,159.44c-.35.1-.69.2-1.05.27.58.04,1.03.05,1.05-.27Z"/>
    <path class="st0" d="M349.87,161.43h-.22.22Z"/>
    <path class="st0" d="M416.22,159.7c.58.11,1.06.09,1.51,0-.48-.04-1.03-.1-1.51,0Z"/>
    <path class="st0" d="M525.45,160.35l.33.02s.01-.07.04-.09l-.37.07h0Z"/>
    <path class="st0" d="M525.82,160.28l.37-.07c-.17,0-.32,0-.37.07Z"/>
    <path class="st0" d="M526.96,160.07l-.77.14c.27,0,.6.02.77-.14Z"/>
    <path class="st0" d="M516.34,160.09l-.1.2c.06-.04.09-.11.1-.2Z"/>
    <path class="st0" d="M513.57,160.15c.66.05,1.66.43,2.58.31l.09-.16c-.43.3-2.04-.49-2.66-.15h-.01Z"/>
    <path class="st0" d="M502.02,157.63l2.32.16c-.41-.22-.94-.51.12-.56-2.92-.65.6.49-2.44.4Z"/>
    <path class="st0" d="M494.83,157.31c1.25-.1-.01-.32.05-.44-.79.2-.98.25-.05.44Z"/>
    <path class="st0" d="M442.85,157.31l.13-.51c-.96.07,0,.2-.13.51Z"/>
    <polygon class="st0" points="432.92 159.96 433.85 160.27 434.3 159.81 432.92 159.96"/>
    <polygon class="st0" points="427.05 156.31 427.47 156.24 425.87 156.42 427.05 156.31"/>
    <path class="st0" d="M339.76,156.49l.29.63c.65-.11.79-.82-.29-.63Z"/>
    <path class="st0" d="M302.08,157.14c-.41-.32-1.47-.52-2.12-.21.85.04,1.69.29,2.12.21Z"/>
    <polygon class="st0" points="189.07 156.11 189.82 155.9 188.39 156.07 189.07 156.11"/>
  </g>
  <g>
    <path class="st1" d="M86.46,105.98s.06.03.09.05c-.22-.35-.42-.69-.58-1.02-2.07-3.33-3.82-6.86-6-10.12-.55-.69-.93-1.78-1.94-1.88-2.18-.08-4.19,1.06-6.14,1.89-3.3,1.6-6.59,3.21-9.94,4.69-3.76,1.6-7.49,3.2-11.2,4.87-1.41.76-4.11,1.45-3.79,3.44v.06c.5.51.9,1.76,1.19,2.13,1.55,3.14,3.21,6.24,5.02,9.24.21.35.42.7.63,1.05.75-.82,4.26-1.88,4.67-2.15,1.79-.76,3.5-1.67,5.26-2.51,5.64-2.67,11.31-5.28,17.11-7.59.67-.17,3.31-1.64,4.79-2.06h0c0-.11.06-.21.14-.29.09-.08.19-.11.31-.11.19,0,.34.14.39.32h0Z"/>
    <path class="st3" d="M86.14,103.64c1.31,2.98,6.58,7.78,4.05,10.95-2.04,1.65-4.5,2.75-6.87,3.87-4.08,2.07-8.28,3.91-12.34,6.02-3.4,1.52-8.95,5.19-12.65,4.25-.49-.05-1.3-.83-1.37-1.37-3.08-5.16-6.26-10.28-8.94-15.65-.51-1.01-1-2.03-1.57-3-.11-.15-.25-.34-.28-.53-.13-.25-.13-.63-.12-.87.22-1.61,1.92-2.43,3.26-3.09,3.67-1.67,7.37-3.3,11.09-4.85,3.36-1.45,6.66-3.03,9.94-4.64,2.28-1.06,4.6-2.33,7.15-2.56,1.98-.23,2.79,1.79,3.74,3.11,1.74,2.73,3.2,5.62,4.91,8.37h0Z"/>
    <path class="st2" d="M52.74,111.71c-1.47-.67,1.37-1.59,1.9-1.88,1.64-.72,3.27-1.47,4.91-2.2,1.48-.66,2.99-1.28,4.48-1.92.48-.25.89.5.39.74-3.9,1.69-7.95,3.33-11.68,5.26Z"/>
    <path class="st2" d="M67.69,105.36c-.88-.45.22-1.14.71-1.37.57-.17,1.51-1.17,2.01-.55.35.71-1.73,1.14-2.18,1.62-.06.22-.32.38-.55.29h.01Z"/>
    <path class="st2" d="M76.66,104.32c-1.45.31-2.98-2.66-1.56-2.61,1.64-.86,3.48-1.84,5.39-1.83.87.23,1.52,1.35,1.34,2.2-.78,1.35-3.64,2.17-5.17,2.24h0ZM76.76,103.49c1.49-.13,3.02-.7,4.21-1.58.14-.42-.34-1.24-.83-1.22-1.68.2-3.18,1.05-4.69,1.72.2.61.58,1.17,1.32,1.08h0ZM75.05,102.52s.09-.02.13-.04c-.04.02-.09.04-.13.04Z"/>
    <path class="st2" d="M75.64,124.89c-.8-.98,4.25-2.43,5-2.85,1.39-.54,2.8-1.04,4.19-1.57.22-.08.47.04.54.25.55.68-4.75,2.03-5.46,2.49-.94.37-1.8.71-2.67,1.14-.53.12-1.09.96-1.61.54h0Z"/>
    <path class="st2" d="M82.01,124.11c-.19-.75,1.45-.82,1.94-1.19.6-.1,3.69-2.13,3.32-.63-.74.59-1.8.8-2.65,1.25-.61.14-2.24,1.3-2.61.57Z"/>
    <path class="st2" d="M89.8,113.72c-2.31,2.21-5.58,3.26-8.4,4.74-4.98,2.44-9.99,4.84-14.95,7.32-2.35.95-5.75,3.13-8.26,1.94-.3-.14-.3-.49-.45-.71,0-.03-.03-.06-.05-.1-.22-.33-.4-.62-.61-.96-.21-.35-.42-.71-.62-1.06.57-.12,1.32-.64,1.73-.71,2.38-.94,4.64-2.16,7-3.16,7.55-3.13,14.94-6.65,22.5-9.77.38-.16.76-.34,1.13-.51.05.02.1.04.16.04.11,0,.22-.03.31-.11.07-.06.12-.15.13-.24.53,1.1.77,2.21.39,3.28h0Z"/>
  </g>
  <g class="st5">
    <text class="st4" transform="translate(91.89 113.25) scale(1.02 1)"><tspan x="0" y="0" xml:space="preserve"> Insert Your Emirates ID Number</tspan></text>
  </g>
</svg>