<?xml version="1.0" encoding="UTF-8"?>
<svg id="Layer_1" xmlns="http://www.w3.org/2000/svg" version="1.1" viewBox="0 0 699.08 194.23">
  <!-- Generator: Adobe Illustrator 29.7.1, SVG Export Plug-In . SVG Version: 2.1.1 Build 8)  -->
  <defs>
    <style>
      .st0 {
        fill: #fae1de;
      }

      .st1 {
        fill: #f9ddd9;
      }

      .st2 {
        fill: #007db5;
      }

      .st2, .st3 {
        stroke: #020202;
        stroke-miterlimit: 10;
        stroke-width: 16.87px;
      }

      .st3 {
        fill: #d92726;
      }

      .st4 {
        fill: #f2e1de;
      }
    </style>
  </defs>
  <g>
    <path class="st3" d="M394.1,63.31h-.01s-44.55-48.92-44.55-48.92l-44.55,48.92H39c-16.65,0-30.14,13.21-30.14,29.5v65.87c0,16.29,13.49,29.5,30.14,29.5h621.09c16.65,0,30.14-13.21,30.14-29.5v-65.87c0-16.29-13.49-29.5-30.14-29.5h-265.99Z"/>
    <g>
      <path class="st0" d="M165.21,163.09h0l1.12.18-.51-.66c-.72-.07-.87.32-.61.49h0Z"/>
      <path class="st0" d="M170.11,162.31c-1.24-.42-2.43-.4-3.37.11.39.42,1.25.1,1.51.27-.12-.25.42-.54,1.14-.46.91.76,1.11.49,1.95,1.13.55-.61-.43-1.17-1.28-1.49.05.12.32.29.05.44Z"/>
      <path class="st0" d="M240.09,160.92l.45-.08c-.17,0-.33.04-.45.08Z"/>
      <path class="st0" d="M283.72,160.34c.02.06.16.12.49.14.07-.06-.18-.1-.49-.14Z"/>
      <path class="st0" d="M291.23,159.79c.15,0,.28-.02.44-.04-.1-.05-.27-.02-.44.04Z"/>
      <path class="st0" d="M241.71,160.63l-1.17.21c.57-.05,1.25,0,1.17-.21Z"/>
      <path class="st0" d="M179.79,163.47h0s-.03-.06-.04-.1c-.21-.02-.4-.04-.6-.07.18.08.39.14.63.17h0Z"/>
      <path class="st0" d="M221.3,160.3h0l-.65-.27c.09.1.19.19.29.27h.35s0,0,0,0Z"/>
      <path class="st0" d="M206.52,160.19h0c-.11.17-.15.29-.15.4.29.05.54.16.73.39-.13-.24-.25-.8-.58-.78h0Z"/>
      <path class="st0" d="M182.67,161.11l.42.08c-.13-.03-.31-.06-.42-.08Z"/>
      <path class="st0" d="M232,159.98c-.05.04-.11.12-.13.2.08-.06.13-.13.13-.2Z"/>
      <path class="st0" d="M645.12,164.31v.1c.11,0,.09-.04,0-.1Z"/>
      <path class="st0" d="M661.95,161.27c0,.11.02.21.05.32l.24.03-.29-.35Z"/>
      <path class="st0" d="M305.26,159.03h.06c-.22-.05-.42-.06-.06,0Z"/>
      <path class="st0" d="M430.76,160.64c2.14-.55-1.59-.7-.17-1.2-1.77.32.37.98.17,1.2Z"/>
      <path class="st0" d="M180.77,163.4h-.61c.15.02.33.02.61,0Z"/>
      <path class="st0" d="M430.54,160.71l.22-.06h0c-.08.02-.13.04-.22.06Z"/>
      <path class="st0" d="M336.44,159.62c.13-.08.26-.15.32-.25-.24.12-.31.19-.32.25Z"/>
      <path class="st0" d="M313.92,160.09l-.58.08c.16,0,.35-.03.58-.08Z"/>
      <path class="st0" d="M348.92,160.17h0c.36-.09.56-.06.72.02.05-.02.09-.04.13-.07-.43-.08-.53,0-.85.04h0Z"/>
      <path class="st0" d="M360.95,160.24c.13,0,.27.03.4.03.07-.03.16-.07.23-.11l-.63.08Z"/>
      <path class="st0" d="M607.22,163.63c-.13.18-.3.35-.58.51,2.24.03.38-.11.58-.51Z"/>
      <path class="st0" d="M179.74,163.36c.14,0,.27.03.42.03-.2-.03-.31-.1-.38-.24-.08.05-.08.13-.04.21Z"/>
      <path class="st0" d="M351.45,164.51l-2.01.08c.72,0,1.45-.03,2.01-.08Z"/>
      <path class="st0" d="M516.29,164.13l-.46-.07c.12.07.28.07.46.07Z"/>
      <path class="st0" d="M357.41,164.59h0l1.37-.24c-.05-.07-.15-.11-.23-.15-.39.08-.77.19-1.13.39h0Z"/>
      <path class="st0" d="M607.23,163.63h0Z"/>
      <path class="st0" d="M620.48,164.97h0l.12-.17s-1.68-.35-.78-.65c1.88.3.61-.14,2.32-.62.98.6,1.87-.21,2.08.77.61-.65.45-.41,1.63-.88-.53.53,2.24.52,2.16,1.16.49-.73-2-.89-.45-1.65,1.06.49,3.03.67,3.19,1.45.81-.18,1.18-.46,2.44-.54-.2.05-.44-.1-.57-.18,2.24.53,5.55,0,6.82.95-.46-1.13,4.76-.13,3.05-1.19.93.04,2.41.52,2.73.73-.1-.89,2.32-.23,3.34-.75.53.5,2.21.33,3.23.62-.46-.11-.7-.26-.54-.5,1.15.36.86,0,1.84-.41,1.55.27-.29.68.65,1.09,1.35-.2.21-.56.45-.92l2,.89c.41-.09.7-.26.86-.5.69.26,1.31.63,2.28.21l-1.72-.03.66-.45,2.04.57c2.92-.66,2.01-1.61,1.79-2.54l-1.19-.16c.03-.31.85-.49,1.38-.51.49-.21-1.92-1.01-3.22-1.13-3.51.07-.73,1.09-3.13,1.32l-3.1-.54-.04.32c-.5.21-.78-.14-.91-.21.21.47-2.53.15-3.79.23l.45-.41c-3.52-.96-5.55,1.03-8.33.52l-1.96-.7-.41.6c-1.15-.36-1.35-.83-3.23-.62-6.6,1.06-13.7-.24-20.39.43.08-.12.28-.17.69-.26-5.87,1.51-9.19-1.55-14.48-.37l.36.23c-2.69-.12.37.23-1.59.56-.37-.73-3.42-.57-4.97-.84.25.15.78.13,1.23.24-.29.17-.4.61-1.18.47-1.72-1.05-5.43-.94-8.16-1.26-.33.48-2.69.91-3.92,1.69-.28-.18-.79-.55-1.25-.91-.99.32-1.73.08-2.44-.21.88,0,1.64.02,2.23.04-.02-.02-.04-.03-.06-.05.09.03.25.04.38.06.59.02.9.05.76.09,1.1-.47-.07-.38,0-.94-.89.02-2.74-.17-2.95.25-.54,0-.89.07-1.45.15-.34-.08-.71-.13-1.11-.08l.18.06c-.06.08-.15.13-.23.18-1.75.24-4.22-.6-5.66-.99,1.43.71-.37.8-.37,1.31-.17-.04,1.62-.08,3.84-.08-.15.05-.28.15-.32.33-1.92.55-3.28-.48-6.08-.1.18.06.54.18.41.37-.99.15-1.9-.26-2.13-.57-.25.5-2.37.86-3.42.64-.92-.41-.79-.6-2.46-.56l.73.36c-1.97.3-1.61-.52-3.24-.23.65-.15.71.23.22.3-2.06-.19-2.11-.39-3.58-1.1l.27.56c-1.75-.33-5.05-1.02-5.09-.26.55-1.16-3.82-.61-5.34-.59.52.03.62.28.67.4-3.2-.77-6.47-.04-9.71-.04l-.51.85c-1.71-.04-2.2-1.71-4.05-1.67l.67.4c-3.29-.14-4.62-.06-7.28.08l.05.57c-.95-.27-2.14-.27-3.1-.53-2.17,1.37-8.61-.73-12.59.81l-.25-1.06c-1.52.02-3.47-.19-4.18.6l.34-.02c.15.81-1.52.02-2.47.2-.72-.08-1.44-.61-.82-.77-4.04.54-10.04-.02-12.55.94-4.04-.35-7.1-1.19-11.47-1.08l.05.12c-1.47.14-4.42.43-4.42,1.31-3.15-.2-5.16-1.41-8.91-1.02l.81.34c-.95.17-2.48-.25-2.86-.35-.33.02-.09.2-.04.32-.9.3-1.43-.17-2.15-.26l.29.3c-2.99.61-7.71-.59-11.56-.44.71.08.33.42.05.56-1.58-.97-5.91-.74-7.52-.97l.99.38c-3.14-.65-2.72,1.03-5.83.38l1.79-.56c-1.27.17-2.34-.02-2.04-.46-1.48.32-.18.75-2.41.84-.1.27,1.6.18.87.54l-3.08.73c-.09.08-.48.1-1.5.02.27-1.23-2.56-.07-1.01-1.26-4.37-.09-8.06.72-11.81.15-1.53,1.18-7.44.04-7.06,1.57-2.12.02-3.83-.29-5.14-.91.42-.12.96.07,1.39.15-.55-.39-3.11-.45-4.17-.45,1.4.35,3.65.64,4.74,1.23-1.92-.15-4.61-.72-5.68-.91l-.49.79c-1.63-.58-1.36.64-2.99-.14l.31-.24c-2.97.06-3.01-.73-5.78-.83l.12.31c-.95.12-2.36-.61-3.29.1l1.81.03c-.19.55-1.57.79-2.19,1.07-1.91-.14-.67-.9-1.63-.97-.4.52-.1.28.57.79-2.14-.19-5.02-.41-6.54-1.07-.1.09.01.2.01.2-2.23.09-4.19-.84-5.55-.4l.43.08c-1.78.76-4.61-.72-4.98.58-.85.24,1.91-.05.56.59-2.65.41-1.75-1.09-4.08-.72.32-.04.21.04.32.16-1.68-.03-3.92-.16-5.78-.29-2.28,1.06-6.99-.26-9.61.97.84-.43-.66-.51-.66-.7,0,0,.1.11,0,.19-.95.04-1.07-.38-1.43-.55-.78.37-2.64-.41-3.14-.16-.01-.28-.78-.2-1.63-.2,1.71.31.55.59,1.32,1.02-2.55.13-2.93-1.2-5.58-.99l-1.47.52c-.3-.79-2.76-.47-2.7-.76-.45.24-1.12.38-1.02.78-1.06-.19-2.65.21-3.09-.26l1.06-.21c-3.28.3-5.25-.84-7.78-.31l.05,1.18c-1.68.49-3.11-.65-4.57.07.51-.4.62-.28-.46-.67.63-.08,1.82.22,2.88.22l-2.26-.69,3.53.34c-1.51-.47-1.4-.35-.78-.83-2.14-.38-2.31.57-4.35.11-.74.16.02.59-.82.83-1.82-.42-3.46.85-4.77.23-.42.12.75.03.65.31-1.17-.11-2.02-.07-2.36-.42l1.01-.13c-.89.04-1.03-.45-2.72-.17-.98-.27-1.53-.86-.47-.86-.43-.07-1.37.25-1.04.6-2.63.01-1.26-1.26-3.8-.7.17.04.36.1.26.17-.64.07-1.17.08-1.6,0,2.24.1-.7.94,1.95.73-.29.63-2.02.13-2.86.37-1.29-.42-.14-.9-.79-1.21.01.2-.53.2-1.16.28l.62-.47c-.54,0-1.07,0-1.71-.11l1.08.19c-1.17.08-2.94.84-4.99.38.54.19,1.62.58.25.82-2.24-.3-.52.2-1.79.56-2.23-.1-.39-.84-3.68-.55-.36,0-.03-.28.33-.41-2.24.24-3.47-.1-5.65.24.95-.12,1.68-.28.4-.51.55.39-1.79.37-2.63.61l-.22-.24c-.67.26.05.36.6.45-.01-.08.18-.16.59-.14,1.07.19.68,1.1-1.02,1.19-1.82-.22-1.52-.85-1.21-1.09-2.44.25-2.28-1.09-4.61-.72-.53.01-2.3.96-4,1.05-.88-.54,2.11-.4,1.13-.87-2.81,1.36-5.78-.83-9.47-.02l.46.67c-.85.03-1.7.07-2.66,0l1.26-.36c-.86-.15-2.88-.02-2.22.49-1.94-.54-2.35-.22-4.15-.05,1.91-.06.03-.09,1.43.25-2.01.33-2.16.11-3.55-.04.23.24-.5.6-1.04.6-1.3-.43-3.53-.33-5.34-.56v.2c-3.05-.25-6.35.67-9.42.08h0s-.15-.03-.15-.03l.24-.04c1.05-.63-2.38-.44-3.32-.7-.2.16-.3.44-.83.44-.03-.58-1.18-.31-1.62-.58-1.05.21.14.71-1.67.68-.7-.05-.78-.36-.7-.58-.38.3-1.53.53-2.49.6.32.16.84-.04,1.06,0,.12.32-.53.2-.51.6-.85.04-.34-.55-1.4-.35l.98.47c-.43.12-.97-.07-1.18-.11.64.11.55.58.46.86-2.46-.34-.48-1.26-.61-1.77-2.33.37-4.16-.25-5.97-.28l.34.55c-.89-.09-1.31-.21-1.63-.45h-1.36c.78.2,1.04.37,1.1.81-1.44-.15-3.43-.02-3.8-.75l.06.12c-1.93.26-5.95.42-5.82.66-2.07-.25-4.69.18-4.75-.55-1.23-.17-3.2.94-4.08.03-1.46.49-.08.2.37.74-1.47.48-2.95-.75-3.44.3-1.71-.32.39-.22-.18-.68-.36.97-3.17.15-4.77.71-.72-.39.73-.24-.51-.66.12.24-.54.29-.87.31l-.32-.61-1.63,1.51c-2.42-.72.49-1.05-2.73-1.33l.19.05c-.88.62-2.3-.48-4.62,0,.8-.12.33.3.58.47l-1.29-.25c.12.03.18.07.05.14-1.14.46-.99-.25-2.31.16.91.13.63.59.23.81l-1.89-.69.77.83c-1.85.06-4.59-1.26-5.53-.12l.92.12c-.07.19-.62.8-1.86.38-.39-.1-.65-.59-.12-.56l-.93.19c.45.54,2.75.7,4.2.85-.45-.22-1.57-.4-1.23-.74,1.29.18,2.52.54,3.76.72-.5-.21-.81-.56-1.05-.78,1.39-.29,1.04.37,2.1.42.41-.22.68-.36.41-.53,1.31.23,2.36.29,3.76,0,0,0-1.58-.4-.71-.71,2.57.33,3.08.98,5.84,1.36,3.2.92,6.21-.56,8.44.11.12.24-1.67.43-.22.58-.25-.49.87-.31.94-.51,1.56.72,2.31-.16,3.42.33-.26-.17.65-.36,1.25-.53-.17-.61,1.74-.25-.55-1.11,2.35.92,4.16-.22,5.91,1.17l-.6.17,2.36-.27h-.1c1.03-.1,1.18.06,2.56-.57-.59-.15-1.45-.15-2.04-.3,1.27-.53,2.62.45,4.02.48-.06-.44-1.45-.16-1.04-.69.99-.06,1.84.26,2.76.38l-.13-.24c2.46-.55.96,1.2,2.76.38-.06.14.17.3.06.44.67-.26,2.23-.69.68-1,.86,0,1.83.22,2.27.49-.73.36-.91.18-1.18.64l3.45.25c.38,0-.29-.24-.77-.24,4.05-1.29,8.19,1.09,12.76-.46-.52.39.33.35.77.62,1.48-.12,3.72-.02,5.09-.26l-.44-.27c3.52.33,5.95.76,8.28.59.11.12-.02-.39-.44-.47,1.72.5,3.78-1.08,4.25-.02l-.63.08c3.4-.18,7.16.58,10.67.72.82-.64-2.03-.07-1.31-.82,2.43-.25,4.9.28,7.55.07-.43-.07-.33-.15-.54-.19,2.64-.41-.29.63,1.93.54-.12-.31,0-.39.73-.55l.65.51c.11-.08.09-.47-.24-.63.98.67,3.94.22,4.72.84.2-.15-.36-.74-.05-.98,1.18-.19,1.99.06,2.78.3h0c.83-.45,2.86-.37,2.43-.45,2.12-.2.34.36,1.95.74l-1.69.28,2.99.14-1.19-.31c1.37-.24,2.78.29,4.38.29l-.73.36,1.82.22c.18-.75,2.33-.17,1.33-1.03,3.39-.37,5.56.6,8.65.66-.54,0-.33-.15-.44-.27,1.8-.16,2.88.22,3.96.61-.22-.23-.66-.31-.66-.51,2.13-.01,1.29.43,3.64.65-.65-.31-.45-.47.19-.55-.1.28.44.47.87.55-1.77-1.48,2.63-.6,1.52-1.78.12.32,3.77.96,2.72,1.56l-.64-.11c-.07.41.79.25,1.45.28-.34-.06-.71-.16-.71-.24,3.32.49,6.81.04,10.55.41-.32-.16-1.83-.43-.87-.55,3.71-.22,5.87.56,9.61.93.17-.95-4.05-.14-4.19-1.04,3.95.21,8.01.54,12.39,1.03,1.53-1.39,4.28.56,7-.52-.26.47,1.09.65,2.57.65-.5-.38,1.05-.39.62-.66,1.29.43,5.03.6,4.88-.3.34.88,2.78-.04,3.84.58,1.63-.33,3.49.18,5.54-.08-.72.55,2.04.26,2.79.49-.22-.03-.64-.11-.54-.19.61-.47,2.36.42,3.51.14.52-.2-.13-.51.72-.55.02.39,3.13.85,4.28.37-.54,0-.55-.2-.87-.35,5.45.68,11.26-.14,16.83.65l-.99-.66c3.47-.85,2.28,1.09,5.04.99,7.54-.32,15.37-1.27,22.73-.84.54.19-.31.23-.4.51.64-.09.82-.64,1.69-.29l-.19.36c3.36-.97,9.7.65,12.19-.86,3.22.57,5.48-.4,9.39.45,1.23-.32-1.44-.61.23-.7l3.62.56-.2-.05c3.49,1.06,9.23-1.2,13.61-.43l-.19-.05c-.1-.25.8-.54,1.51-.46.25.18-.23.27-.65.48,3.91.42,4.76.44,7.85.52-1.33-.37,1.24-.32,1.37-.83.81.33-.47.53,1.34.81,2.57.05,4.94-.39,7.08-.57.87.45,2,.33,2.06.89,2.9.03,4.52.25,8.09.25l.09-.19c.96.7,3.1-.35,3.76.05-.1-.24-.48-.35-.38-.54l1.62.23c-.77-.21-1.2-.87.13-.95,1.38.49-.39.34.29.74l.42-.65c1.05.08,1.34.81.06,1.01,3.57,0,7.09.31,10.27.2l-.34-.42c1.77.16,4.14.15,5.19-.22.05.12.48.35.2.49,2.09.58.22-.7,2.51-.07-.57-.16-1.28-.24-1.38-.49l4.29.52c.04-.31,2.65-1.02,4.46-.74.07.17-.45.41-.91.45l1.16.16.89-.74,1.68.65.03-.62c1.24.12,1.73.91,2.73.86,3.74-.39,2.98-.61,5.64-1.19.3,1.18,4.23-.05,4.91.8,3.55-.88,8.7-.35,13.36-.6l-.38-.1c1.99-.54,2.26.9,4.41.66l-.54-.17c2.76-.63,7.59-.06,10.21.44-.53-.17-.26-.55.58-.51.71.23-.69.82.79.6-.37-.11-.08-.38.26-.38l1.45.59c3.8-.41,8.28-.83,12.22-.49.73-.21.19-.42.02-.62,3.13.12,6.24.61,9.06.72l.29-.68c1.39,0,.86,1.05,2.66.44.4-.1-1.19-.05-1.68-.35,2.78-.51,1.64.67,4.29.59l-.69-.77c2.03-.45,2.32.41,3.06.86,2.85.91,2.03-1.48,5.91-.8.61.38-.21.56.41.94,2.74-.2,3.06.35,5.8.15,1.46-1.14-1.39,0,.2-1.07l-2.08.26c1.8-.6-1.63-.15-1.35-.83,1.35-.2,3.39.37,5.15.6,0-.51-2.04-.06-1.23-.75l.9.21c-.25-.15-.29-.33-.82-.33.33-.49,1.06-.02,1.92-.02.06.26.01.64-.27,1.01.03-.05.1-.11.23-.18,1.76.74,4.73.18,6.24.77-.25-.15-.04-.2.04-.32,1.07-.02,2.16.65,3.59.85.78-.38-.45-1.13,1.84-.92.41.43-.61,1.17,1.31,1.15h0ZM576.64,163.31c-.21,0-.53-.02-.92-.04h0c.46.02.73.04.92.04ZM571.96,163.27h0c.56-.17,1.45-.28,1.24-.41.38,0,.52.19.39.38-.6,0-1.17,0-1.63.02h0ZM579.91,159.37h0c.12.07.18.17.24.28-.02-.03-.05-.05-.07-.07-.43-.04-.76-.07-1.04-.07.09-.12.28-.23.88-.15h0Z"/>
      <path class="st0" d="M580.99,160.09h-.32c.06.06.14.12.21.18.12-.04.24-.08.36-.13-.12,0-.16-.04-.25-.04h0Z"/>
      <path class="st0" d="M240.01,160.93h0s-.04.04-.09.07c.04-.04.1-.07.17-.07h-.08s0,0,0,0Z"/>
      <polygon class="st0" points="520.35 164.32 520.02 164.19 520.02 164.33 520.35 164.32"/>
      <path class="st0" d="M219.02,163c.15-.04.27-.14.27-.14-.14.05-.26.1-.27.14Z"/>
      <path class="st0" d="M209.07,163.19l1.27-.2c-.32.03-.72.09-1.27.2Z"/>
      <path class="st0" d="M203.34,163.03h-.01c.02.07.04.14.13.24l-.12-.24Z"/>
      <path class="st0" d="M313.13,163.96c-.09-.03-.18-.03-.27-.03.47.1.89.14.27.03Z"/>
      <path class="st0" d="M281.36,162.88c-.36-.07-.7-.17-1.05-.27.02.32.47.31,1.05.27Z"/>
      <path class="st0" d="M349.44,164.6h-.22s.22,0,.22,0Z"/>
      <path class="st0" d="M281.36,162.87c.45.09.93.11,1.51,0-.48-.1-1.03-.04-1.51,0Z"/>
      <path class="st0" d="M173.64,163.52h0l-.37-.07s.04.09.04.09l.33-.02h0Z"/>
      <path class="st0" d="M172.9,163.39l.37.07c-.05-.07-.2-.07-.37-.07Z"/>
      <path class="st0" d="M172.9,163.39l-.77-.14c.17.16.5.14.77.14Z"/>
      <path class="st0" d="M182.85,163.46l-.1-.2c0,.09.04.16.1.2Z"/>
      <path class="st0" d="M185.52,163.33h-.01c-.62-.35-2.23.44-2.66.14l.09.16c.92.12,1.92-.26,2.58-.31h0Z"/>
      <path class="st0" d="M194.63,160.4c1.06.05.53.34.12.56l2.32-.16c-3.04.09.48-1.05-2.44-.4Z"/>
      <path class="st0" d="M204.21,160.05c.06.12-1.2.34.05.44.93-.19.74-.24-.05-.44Z"/>
      <path class="st0" d="M256.11,159.97l.13.51c-.13-.31.83-.44-.13-.51Z"/>
      <polygon class="st0" points="264.79 162.98 265.24 163.45 266.17 163.13 264.79 162.98"/>
      <polygon class="st0" points="273.22 159.6 271.62 159.41 272.04 159.48 273.22 159.6"/>
      <path class="st0" d="M359.04,160.3l.29-.63c-1.08-.19-.94.52-.29.63Z"/>
      <path class="st0" d="M399.13,160.1c-.65-.31-1.71-.11-2.12.21.43.08,1.27-.17,2.12-.21Z"/>
      <polygon class="st0" points="510.7 159.25 509.27 159.07 510.02 159.28 510.7 159.25"/>
    </g>
    <g>
      <path d="M660.16,128.86c.26-.82-.05-1.7-.77-2.19-5.7-3.87-12.09-6.66-18.81-8.26,2.25,0,4.7.08,7.7.26.09.04.18.07.28.1,2.79.76,5.3,2.29,7.25,4.41.37.41.88.64,1.43.64.77,0,1.48-.47,1.81-1.18.32-.7.19-1.5-.34-2.08-1.42-1.54-3.06-2.82-4.9-3.82-.01-.07-.02-.14-.04-.21-.18-.78-.36-1.57-.52-2.37,1.28,1.33,2.21,2.53,2.92,3.76.36.61.99.97,1.69.97h0c.71,0,1.38-.37,1.74-.98.35-.59.35-1.31,0-1.91-.92-1.59-2.12-3.12-3.65-4.67-.65-.64-1.35-1.32-2.16-2.06-.1-.09-.19-.18-.29-.27-.41-.38-.85-.79-1.39-1.15-.39-2.57-.68-5.13-.88-7.64-.12-1.55-.21-2.93-.26-4.24.04-.2.04-.41,0-.61v-.11c0-.9,0-1.92-.41-2.91-.74-1.78-2.64-1.89-3.55-1.94-1.46-.08-2.77-.14-4-.17-.97-.03-1.95-.04-2.92-.04-10.12,0-20.2,1.27-29.98,3.78-.9.23-1.49,1.02-1.46,1.9-.06.6.16,1.16.57,1.57l3.17,16.01c-.1.33-.1.67,0,1.01.07.23.18.44.33.63l1.19,6.01c.18.88,1.01,1.54,1.94,1.54.22,0,.43-.04.63-.11,4.17-1.46,8.4-2.54,12.63-3.22.17.84.9,1.5,1.81,1.56,9.4.63,18.48,3.76,26.26,9.04.34.22.72.34,1.11.34h0c.84,0,1.59-.55,1.85-1.37,0,0,.02-.02.02-.02Z"/>
      <path class="st1" d="M661.48,126.65c.26-.82-.05-1.7-.77-2.19-5.7-3.87-12.09-6.66-18.81-8.26,2.25,0,4.7.08,7.7.26.09.04.18.07.28.1,2.79.76,5.3,2.29,7.25,4.41.37.41.88.64,1.43.64.77,0,1.48-.47,1.81-1.18.32-.7.19-1.5-.34-2.08-1.42-1.54-3.06-2.82-4.9-3.82-.01-.07-.02-.14-.04-.21-.18-.78-.36-1.57-.52-2.37,1.28,1.33,2.21,2.53,2.92,3.76.36.61.99.97,1.69.97h0c.71,0,1.38-.37,1.74-.98.35-.59.35-1.31,0-1.91-.92-1.59-2.12-3.12-3.65-4.67-.65-.64-1.35-1.32-2.16-2.06-.1-.09-.19-.18-.29-.27-.41-.38-.85-.79-1.39-1.15-.39-2.57-.68-5.13-.88-7.64-.12-1.55-.21-2.93-.26-4.24.04-.2.04-.41,0-.61v-.11c0-.9,0-1.92-.41-2.91-.74-1.78-2.64-1.89-3.55-1.94-1.46-.08-2.77-.14-4-.17-.97-.03-1.95-.04-2.92-.04-10.12,0-20.2,1.27-29.98,3.78-.9.23-1.49,1.02-1.46,1.9-.06.6.16,1.16.57,1.57l3.17,16.01c-.1.33-.1.67,0,1.01.07.23.18.44.33.63l1.19,6.01c.18.88,1.01,1.54,1.94,1.54.22,0,.43-.04.63-.11,4.17-1.46,8.4-2.54,12.63-3.22.17.84.9,1.5,1.81,1.56,9.4.63,18.48,3.76,26.26,9.04.34.22.72.34,1.11.34h0c.84,0,1.59-.55,1.85-1.37,0,0,.02-.02.02-.02Z"/>
      <g>
        <path d="M611.83,93.18c-.59.15-.34,1.04.25.89,10.04-2.57,20.42-3.85,30.8-3.69,1.32.02,2.63.06,3.95.12.69.03,1.59-.06,2.26.15.83.25.71,1.09.73,1.73.08,2.51.24,5.02.48,7.52.49,5.04,1.3,10.05,2.43,14.99.15-.19.3-.39.45-.58-6.27-.43-12.53-.79-18.8-.14-5.91.61-11.72,1.9-17.32,3.86l.58.32c-1.62-8.17-3.24-16.35-4.86-24.52-.12-.58-1.03-.33-.91.25,1.62,8.17,3.24,16.35,4.86,24.52.05.23.35.4.58.32,5.73-2.01,11.71-3.36,17.77-3.9,6.04-.54,12.06-.21,18.1.21.32.03.51-.31.45-.58-1.25-5.45-2.12-10.98-2.56-16.54-.12-1.43-.21-2.87-.27-4.3-.05-1.01.09-2.17-.31-3.13-.38-.91-1.38-.98-2.25-1.03-1.32-.08-2.63-.14-3.95-.17-10.94-.26-21.89.98-32.48,3.7,0,0,.02,0,.02,0Z"/>
        <path d="M612.05,93.41h0c-.56-.22-.81.67-.25.89,7.05,2.78,13.77,6.32,20.05,10.53.17.12.43.07.57-.07,5.17-5.15,11.06-9.55,17.49-13.08.53-.29.05-1.09-.48-.8-6.5,3.56-12.46,8.02-17.68,13.22l.57-.07c-6.35-4.26-13.15-7.81-20.28-10.63h0Z"/>
        <path d="M637.46,99.27h0c-.56-.23-1.04.56-.48.8,5.37,2.29,10.26,5.49,14.46,9.47.44.42,1.11-.24.67-.65-4.26-4.03-9.22-7.29-14.65-9.61h0Z"/>
        <path d="M626.09,101.18c.47-.37-.2-1.01-.67-.65-3.99,3.09-7.42,6.79-10.18,10.97-.33.51.48.97.81.47,2.72-4.12,6.11-7.75,10.03-10.79h.01Z"/>
        <path d="M632.35,116.27h0c-.61-.04-.6.88,0,.92,9.67.65,19.04,3.89,27.01,9.3.51.34.98-.46.48-.8-8.11-5.5-17.65-8.76-27.49-9.43h0Z"/>
        <path d="M650.51,114.27h0c-.59-.16-.83.73-.25.89,3.09.84,5.82,2.5,7.97,4.84.41.44,1.08-.21.67-.65-2.25-2.45-5.14-4.2-8.38-5.08h0Z"/>
        <path d="M652.16,106.61c-.55-.26-1.02.53-.48.8.76.37,1.36,1.03,1.97,1.6.64.58,1.27,1.17,1.87,1.79,1.25,1.29,2.39,2.64,3.28,4.19.3.51,1.11.05.81-.47-.92-1.6-2.11-3.05-3.42-4.37-.68-.69-1.38-1.35-2.1-2.01-.61-.56-1.18-1.17-1.93-1.53h0Z"/>
        <path d="M636.02,101.01h0v.02h0c.25-.16.02-.56-.24-.4-2.34,1.48-4.15,3.57-5.27,6.07.12-.02.25-.03.37-.05-3.53-3.42-7.69-6.1-12.28-7.92-.29-.12-.41.33-.13.44,4.52,1.8,8.61,4.44,12.07,7.8.1.09.31.09.37-.05,1.08-2.43,2.83-4.46,5.1-5.91h0Z"/>
        <path d="M631.02,103.58c-.07-.29-.52-.17-.45.12.18.74.32,1.5.43,2.26.04.3.49.17.45-.12-.11-.76-.25-1.51-.43-2.26h0Z"/>
        <path d="M629.85,102.69c-.04-.3-.49-.17-.45.12.17,1.15.34,2.29.51,3.44.04.3.49.17.45-.12-.17-1.15-.34-2.29-.51-3.44h0Z"/>
        <path d="M628.8,102.32c.02-.3-.45-.3-.47,0-.05.84.32,1.65.2,2.49-.05.29.41.41.45.12.13-.89-.23-1.73-.18-2.61h0Z"/>
        <path d="M626.46,100.81c.03-.3-.44-.29-.47,0-.07.76.14,1.5.15,2.25,0,.3.47.3.47,0-.01-.76-.22-1.49-.15-2.25h0Z"/>
        <path d="M625.06,99.98c0-.3-.47-.3-.47,0,0,.8.27,1.59.47,2.36.07.29.52.17.45-.12-.19-.73-.45-1.48-.45-2.24h0Z"/>
        <path d="M623.71,99.35c-.09-.28-.55-.16-.45.12.23.68.41,1.37.54,2.08.05.29.5.17.45-.12-.12-.71-.3-1.4-.54-2.08h0Z"/>
        <path d="M622.52,98.69c-.05-.29-.51-.17-.45.12.15.75.62,1.44.57,2.22-.02.3.45.3.47,0,.05-.83-.42-1.54-.58-2.34,0,0-.01,0-.01,0Z"/>
        <path d="M621.01,97.93c-.06-.29-.51-.17-.45.12.1.46.23.9.39,1.34.1.28.55.16.45-.12-.16-.44-.29-.88-.39-1.34h0Z"/>
        <path d="M619.83,97.25c-.1-.28-.56-.16-.45.12.15.38.26.76.34,1.16.05.29.51.17.45-.12-.08-.4-.19-.78-.34-1.16h0Z"/>
        <path d="M617.94,96.56h0c.01-.3-.47-.3-.47,0-.01.26.03.52.11.77.09.29.54.16.45-.12-.06-.21-.09-.42-.09-.64h0Z"/>
        <path d="M616.16,97.93h0c.25.17.49-.23.24-.4-.77-.51-1.57-.94-2.43-1.28-.29-.12-.41.33-.13.44.82.33,1.59.74,2.32,1.23h0Z"/>
        <path d="M619.66,105.39h0c.23-.2-.1-.52-.33-.33-1.12.94-2.12,1.99-3.01,3.13-.18.23.23.46.41.23.87-1.12,1.85-2.13,2.93-3.04h0Z"/>
        <path d="M648.91,91.78h0c-.24-.18-.48.22-.24.4.61.45,1.19.95,1.75,1.47.22.2.55-.12.33-.33-.59-.55-1.2-1.06-1.85-1.54h0Z"/>
        <path d="M648.09,92.44c-.24-.17-.49.23-.24.4.72.5,1.4,1.05,2.04,1.65.22.2.55-.12.33-.33-.66-.62-1.38-1.2-2.13-1.72h0Z"/>
        <path d="M647.22,92.88h0c-.24-.17-.49.23-.24.4.56.38,1.07.82,1.54,1.31.21.21.54-.11.33-.33-.5-.52-1.05-.98-1.64-1.39h0Z"/>
        <path d="M646.24,93.34h0c-.22-.19-.56.13-.33.33.31.27.59.57.82.91.17.25.58.02.41-.23-.25-.37-.55-.7-.89-1h0Z"/>
        <path d="M652.18,111.79c.21.21.54-.11.33-.33-2.22-2.3-4.66-4.38-7.3-6.22-.24-.17-.48.23-.24.4,2.6,1.82,5.01,3.88,7.21,6.15h0Z"/>
        <path d="M652.49,113.24c.22.19.56-.13.33-.33-1.35-1.15-2.7-2.31-4.05-3.46-.22-.19-.56.13-.33.33,1.35,1.15,2.7,2.31,4.05,3.46h0Z"/>
        <path d="M653.07,114.56c.26.15.5-.24.24-.4-1.19-.71-2.27-1.55-3.26-2.5-.21-.2-.55.12-.33.33,1.02.98,2.13,1.84,3.35,2.57h0Z"/>
        <path d="M642.78,104.39h0c.24.17.49-.23.24-.4-2.05-1.4-4.25-2.54-6.57-3.45-.29-.11-.41.33-.13.44,2.29.89,4.44,2.03,6.46,3.4h0Z"/>
        <path d="M616.84,117.09h.01c-.28.12-.04.52.24.4,2.2-.95,4.49-1.64,6.85-2.09.29-.05.17-.5-.13-.44-2.41.46-4.73,1.17-6.97,2.14h0Z"/>
        <path d="M616.92,115.74c-.28.09-.16.53.13.44,1.62-.52,3.25-1.01,4.9-1.46.29-.08.16-.52-.13-.44-1.64.46-3.28.94-4.9,1.46h0Z"/>
        <path d="M616.51,114.68c-.29.06-.17.51.13.44,1.09-.25,2.15-.56,3.2-.94.28-.1.16-.54-.13-.44-1.05.38-2.11.69-3.2.94h0Z"/>
        <path d="M616.42,113.67h0c-.29.05-.17.5.13.44.57-.11,1.12-.28,1.65-.51.28-.12.04-.52-.24-.4-.5.21-1.01.36-1.54.46h0Z"/>
        <path d="M634.18,92.14h0c.3,0,.3-.46,0-.46-3.56.06-7.17.23-10.5,1.59-.27.11-.15.55.13.44,3.29-1.34,6.86-1.51,10.38-1.57h0Z"/>
      </g>
    </g>
  </g>
  <g>
    <path class="st2" d="M1059.88-317.83h-265.99c-16.65,0-30.14,13.21-30.14,29.5v65.87c0,16.29,13.49,29.5,30.14,29.5h621.09c16.65,0,30.14-13.21,30.14-29.5v-65.87c0-16.29-13.49-29.5-30.14-29.5h-355.1Z"/>
    <g>
      <path class="st0" d="M1288.77-218.04c.25-.17.11-.56-.59-.49l-.49.66,1.08-.18h0Z"/>
      <path class="st0" d="M1284.09-219.27c-.82.32-1.76.88-1.23,1.49.81-.64,1.01-.37,1.88-1.13.7-.08,1.22.21,1.1.46.25-.17,1.08.15,1.46-.27-.91-.51-2.06-.53-3.25-.11-.26-.15,0-.32.05-.44h-.01Z"/>
      <path class="st0" d="M1216.01-220.3l.44.08c-.12-.04-.27-.07-.44-.08Z"/>
      <path class="st0" d="M1173.83-220.66c.32-.02.46-.08.47-.14-.3.04-.54.08-.47.14Z"/>
      <path class="st0" d="M1166.63-221.39c.15.02.28.03.42.04-.16-.06-.32-.09-.42-.04Z"/>
      <path class="st0" d="M1216.01-220.3l-1.13-.21c-.08.22.58.16,1.13.21Z"/>
      <path class="st0" d="M1274.7-217.67c.24-.03.43-.09.61-.17-.19.03-.38.05-.57.07-.01.04-.02.07-.04.1h0Z"/>
      <path class="st0" d="M1234.6-220.83h.34c.1-.08.2-.17.28-.27l-.63.27h.01Z"/>
      <path class="st0" d="M1248.87-220.94c-.32-.02-.43.54-.56.78.18-.23.42-.34.7-.39,0-.11-.04-.23-.15-.4h.01Z"/>
      <path class="st0" d="M1271.5-219.95l.4-.08c-.1.02-.28.05-.4.08Z"/>
      <path class="st0" d="M1224.39-220.96c-.02-.08-.08-.16-.13-.2,0,.07.05.14.13.2Z"/>
      <path class="st0" d="M825.27-216.73v-.1c-.08.06-.11.1,0,.1Z"/>
      <path class="st0" d="M808.73-219.52l.23-.03c.02-.11.05-.21.05-.32l-.28.35h0Z"/>
      <path class="st0" d="M1153.45-222.11h.06c.35-.06.15-.05-.06,0Z"/>
      <path class="st0" d="M1032.46-221.7c1.37.5-2.23.64-.17,1.2-.19-.22,1.88-.88.17-1.2Z"/>
      <path class="st0" d="M1274.33-217.74h-.58c.27.02.45.02.58,0Z"/>
      <path class="st0" d="M1032.29-220.49h0l.21.06c-.09-.02-.14-.04-.21-.06Z"/>
      <path class="st0" d="M1123.08-221.77c.06.1.18.17.31.25-.01-.06-.08-.13-.31-.25Z"/>
      <path class="st0" d="M1145.71-220.97l-.56-.08c.22.05.4.07.56.08Z"/>
      <path class="st0" d="M1111.34-220.98c-.3-.04-.41-.12-.82-.04.04.03.08.05.13.07.15-.08.35-.11.7-.02h-.01Z"/>
      <path class="st0" d="M1099.11-220.98c.06.04.15.08.23.11.12,0,.26-.02.39-.03l-.61-.08h-.01Z"/>
      <path class="st0" d="M862.42-217c-.27-.16-.43-.33-.56-.51.19.4-1.61.54.56.51Z"/>
      <path class="st0" d="M1274.69-217.99c-.07.14-.18.21-.36.24.14,0,.28-.02.41-.03.04-.08.04-.16-.04-.21h-.01Z"/>
      <path class="st0" d="M1110.84-216.54l-1.94-.08c.54.05,1.25.08,1.94.08Z"/>
      <path class="st0" d="M950.14-217.08l-.45.07c.17,0,.33,0,.45-.07Z"/>
      <path class="st0" d="M1103.13-216.54c-.35-.2-.71-.31-1.09-.39-.08.04-.17.08-.23.15l1.32.24Z"/>
      <path class="st0" d="M861.86-217.51h0Z"/>
      <path class="st0" d="M849.06-216.18c1.85.02.87-.72,1.26-1.15,2.21-.21,1.02.54,1.77.92,1.38-.2,2.44-.87,3.47-.85.08.12.28.17.04.32,1.46-.59,4.33-.03,6.03-.77.13.07.19.13.22.18-.28-.37-.32-.75-.26-1.01.83,0,1.54-.47,1.85.02-.51,0-.55.18-.79.33l.87-.21c.78.69-1.19.24-1.19.75,1.7-.23,3.67-.8,4.97-.6.27.68-3.04.23-1.3.83l-2.01-.26c1.54,1.07-1.22-.07.19,1.07,2.65.2,2.96-.35,5.6-.15.59-.38-.2-.56.4-.94,3.75-.68,2.95,1.71,5.71.8.71-.45.99-1.31,2.95-.86l-.67.77c2.56.08,1.46-1.1,4.14-.59-.48.3-2.01.25-1.63.35,1.74.61,1.23-.44,2.56-.44l.28.68c2.73-.11,5.73-.6,8.75-.72-.17.2-.68.41.02.62,3.81-.34,8.13.08,11.8.49l1.4-.59c.33,0,.61.27.25.38,1.43.22.07-.37.76-.6.81-.04,1.08.34.56.51,2.53-.5,7.2-1.07,9.86-.44l-.52.17c2.07.24,2.34-1.2,4.26-.66l-.37.1c4.5.25,9.47-.28,12.9.6.65-.85,4.45.38,4.74-.8,2.57.58,1.83.8,5.45,1.19.97.05,1.44-.74,2.63-.86l.03.62,1.62-.65.86.74,1.12-.16c-.45-.04-.95-.28-.88-.45,1.75-.28,4.27.43,4.31.74l4.14-.52c-.09.25-.79.33-1.33.49,2.21-.63.4.65,2.43.07-.27-.14.15-.37.19-.49,1.01.37,3.31.38,5.01.22l-.33.42c3.07.11,6.47-.2,9.92-.2-1.24-.2-.95-.93.06-1.01l.4.65c.65-.4-1.06-.25.28-.74,1.29.08.87.74.13.95l1.57-.23c.09.19-.28.3-.37.54.64-.4,2.7.65,3.63-.05l.09.19c3.45,0,5.01-.22,7.82-.25.05-.56,1.15-.44,1.99-.89,2.06.18,4.35.62,6.84.57,1.75-.28.51-.48,1.3-.81.13.51,2.61.46,1.32.83,2.98-.08,3.81-.1,7.58-.52-.41-.21-.87-.3-.63-.48.68-.08,1.56.21,1.46.46l-.18.05c4.23-.77,9.77,1.49,13.15.43l-.19.05,3.5-.56c1.61.09-.96.38.23.7,3.77-.86,5.96.12,9.07-.45,2.4,1.51,8.53-.11,11.78.86l-.19-.36c.84-.35,1.01.2,1.63.29-.09-.28-.91-.32-.39-.51,7.11-.43,14.67.52,21.95.84,2.66.1,1.51-1.84,4.87-.99l-.95.66c5.38-.79,10.99.03,16.26-.65-.31.15-.32.35-.84.35,1.11.48,4.11.02,4.13-.37.82.04.19.35.69.55,1.12.28,2.8-.61,3.39-.14.1.08-.31.16-.52.19.73-.23,3.39.06,2.69-.49,1.98.26,3.78-.25,5.36.08,1.03-.62,3.38.3,3.71-.58-.14.9,3.46.73,4.71.3-.42.27,1.09.28.6.66,1.43,0,2.73-.18,2.48-.65,2.63,1.08,5.28-.87,6.76.52,4.23-.49,8.15-.82,11.96-1.03-.14.9-4.21.09-4.05,1.04,3.61-.37,5.7-1.15,9.28-.93.93.12-.53.39-.84.55,3.61-.37,6.98.08,10.19-.41,0,.08-.36.18-.68.24.63-.03,1.47.13,1.4-.28l-.62.11c-1.01-.6,2.51-1.24,2.63-1.56-1.07,1.18,3.17.3,1.47,1.78.42-.08.94-.27.84-.55.62.08.81.24.19.55,2.27-.22,1.46-.66,3.52-.65,0,.2-.42.28-.63.51,1.04-.39,2.09-.77,3.82-.61-.1.12.1.28-.42.27,2.98-.06,5.08-1.03,8.35-.66-.96.86,1.11.28,1.29,1.03l1.76-.22-.71-.36c1.54,0,2.9-.53,4.23-.29l-1.15.31,2.89-.14-1.63-.28c1.56-.38-.17-.94,1.88-.74-.42.08,1.54,0,2.34.45h0c.76-.24,1.55-.49,2.69-.3.3.24-.24.83-.05.98.75-.62,3.61-.17,4.56-.84-.32.16-.33.55-.23.63l.63-.51c.71.16.82.24.7.55,2.15.09-.68-.95,1.87-.54-.2.04-.1.12-.52.19,2.56.21,4.94-.32,7.3-.07.69.75-2.05.18-1.26.82,3.39-.14,7.02-.9,10.3-.72l-.61-.08c.45-1.06,2.44.52,4.1.02-.41.08-.53.59-.42.47,2.25.17,4.59-.26,8-.59l-.42.27c1.32.24,3.49.14,4.92.26.42-.27,1.24-.23.75-.62,4.41,1.55,8.41-.83,12.33.46-.47,0-1.12.24-.74.24l3.33-.25c-.26-.46-.44-.28-1.14-.64.42-.27,1.36-.49,2.19-.49-1.5.31.01.74.66,1-.11-.14.11-.3.06-.44,1.74.82.29-.93,2.67-.38l-.13.24c.89-.12,1.71-.44,2.67-.38.4.53-.95.25-1.01.69,1.35-.03,2.66-1.01,3.88-.48-.57.15-1.4.15-1.97.3,1.33.63,1.48.47,2.47.57h-.1l2.28.27-.58-.17c1.69-1.39,3.43-.25,5.71-1.17-2.21.86-.36.5-.53,1.11.58.17,1.46.36,1.21.53,1.07-.49,1.79.39,3.31-.33.07.2,1.15.02.91.51,1.4-.15-.33-.34-.21-.58,2.15-.67,5.06.81,8.15-.11,2.67-.38,3.16-1.03,5.64-1.36.84.31-.68.71-.68.71,1.35.29,2.36.23,3.63,0-.26.17,0,.31.4.53,1.02-.05.68-.71,2.03-.42-.23.22-.53.57-1.02.78,1.2-.18,2.39-.54,3.63-.72.33.34-.75.52-1.19.74,1.4-.15,3.62-.31,4.05-.85l-.9-.19c.51-.03.26.46-.11.56-1.2.42-1.73-.19-1.8-.38l.89-.12c-.91-1.14-3.56.18-5.34.12l.74-.83-1.83.69c-.39-.22-.66-.68.23-.81-1.28-.41-1.13.3-2.23-.16-.12-.07-.07-.11.05-.14l-1.25.25c.24-.17-.21-.59.56-.47-2.24-.48-3.62.62-4.46,0l.19-.05c-3.11.28-.3.61-2.63,1.33l-1.57-1.51-.31.61c-.32-.02-.96-.07-.84-.31-1.19.42.2.27-.49.66-1.55-.56-4.26.26-4.61-.71-.55.46,1.48.36-.17.68-.47-1.05-1.91.18-3.32-.3.43-.54,1.77-.25.36-.74-.85.91-2.75-.2-3.94-.03-.06.73-2.59.3-4.59.55.13-.24-3.76-.4-5.62-.66l.05-.12c-.36.73-2.28.6-3.67.75.05-.44.31-.61,1.06-.81h-1.31c-.31.24-.72.36-1.57.45l.33-.55c-1.75.03-3.52.65-5.76.28-.13.51,1.79,1.43-.59,1.77-.09-.28-.18-.75.45-.86-.2.04-.73.23-1.14.11l.95-.47c-1.02-.2-.54.39-1.35.35.02-.4-.61-.28-.49-.6.21-.04.71.16,1.03,0-.92-.07-2.04-.3-2.41-.6.08.22,0,.53-.68.58-1.75.03-.6-.47-1.62-.68-.42.27-1.54,0-1.57.58-.51,0-.61-.28-.8-.44-.9.26-4.22.07-3.2.7l.23.04s-.09,0-.15.03h0c-2.96.59-6.15-.33-9.09-.08v-.2c-1.75.23-3.9.13-5.15.56-.52,0-1.22-.36-1-.6-1.34.15-1.49.37-3.43.04,1.35-.34-.47-.31,1.38-.25-1.74-.17-2.14-.49-4.01.05.64-.51-1.31-.64-2.14-.49l1.22.36c-.93.07-1.75.03-2.57,0l.45-.67c-3.57-.81-6.43,1.38-9.15.02-.94.47,1.94.33,1.09.87-1.64-.09-3.35-1.04-3.86-1.05-2.25-.37-2.1.97-4.45.72.3.24.58.87-1.17,1.09-1.64-.09-2.02-1-.98-1.19.39-.02.58.06.57.14.53-.09,1.23-.19.58-.45l-.21.24c-.81-.24-3.07-.22-2.54-.61-1.24.23-.53.39.39.51-2.11-.34-3.29,0-5.46-.24.34.13.66.41.32.41-3.18-.29-1.4.45-3.55.55-1.22-.36.44-.86-1.73-.56-1.32-.24-.28-.63.25-.82-1.98.46-3.69-.3-4.82-.38l1.04-.19c-.62.11-1.13.11-1.65.11l.59.47c-.61-.08-1.13-.08-1.12-.28-.63.31.48.79-.77,1.21-.81-.24-2.48.26-2.76-.37,2.56.21-.28-.63,1.89-.73-.42.08-.93.07-1.54,0-.09-.07.09-.13.25-.17-2.45-.56-1.13.71-3.67.7.32-.36-.59-.67-1-.6,1.02,0,.49.59-.45.86-1.63-.28-1.77.21-2.62.17l.97.13c-.33.36-1.14.31-2.28.42-.1-.28,1.03-.19.63-.31-1.26.62-2.85-.65-4.61-.23-.81-.24-.08-.67-.79-.83-1.97.46-2.13-.49-4.21-.11.6.48.7.36-.76.83l3.4-.34-2.19.69c1.03,0,2.17-.3,2.78-.22-1.04.39-.93.27-.44.67-1.41-.72-2.79.42-4.41-.07l.05-1.18c-2.44-.53-4.34.61-7.51.31l1.02.21c-.43.47-1.96.07-2.99.26.1-.4-.55-.54-.99-.78.05.29-2.32-.03-2.61.76l-1.42-.52c-2.56-.21-2.92,1.12-5.39.99.74-.43-.38-.71,1.27-1.02-.82,0-1.56-.08-1.57.2-.48-.25-2.28.53-3.04.16-.35.17-.46.59-1.38.55-.1-.08,0-.19,0-.19,0,.19-1.45.27-.64.7-2.53-1.23-7.08.09-9.29-.97-1.79.13-3.96.26-5.59.29.1-.12,0-.2.31-.16-2.25-.37-1.38,1.13-3.94.72-1.31-.64,1.36-.35.54-.59-.35-1.3-3.09.18-4.81-.58l.42-.08c-1.32-.44-3.21.49-5.36.4,0,0,.1-.11.01-.2-1.47.66-4.25.88-6.32,1.07.64-.51.94-.27.55-.79-.93.07.27.83-1.58.97-.6-.28-1.94-.52-2.11-1.07l1.75-.03c-.89-.71-2.26.02-3.18-.1l.12-.31c-2.67.1-2.71.89-5.59.83l.3.24c-1.57.78-1.32-.44-2.88.14l-.47-.79c-1.04.19-3.63.76-5.49.91,1.05-.59,3.23-.88,4.57-1.23-1.03,0-3.49.06-4.03.45.41-.08.94-.27,1.34-.15-1.26.62-2.92.93-4.97.91.36-1.53-5.34-.39-6.82-1.57-3.62.57-7.18-.24-11.4-.15,1.5,1.19-1.23.03-.97,1.26-.98.08-1.36.06-1.45-.02l-2.98-.73c-.71-.36.93-.27.84-.54-2.15-.09-.9-.52-2.33-.84.29.44-.75.63-1.97.46l1.73.56c-3.01.65-2.6-1.03-5.63-.38l.96-.38c-1.56.23-5.74,0-7.26.97-.28-.14-.64-.48.05-.56-3.72-.15-8.27,1.05-11.16.44l.28-.3c-.69.09-1.21.56-2.08.26.04-.12.28-.3-.04-.32-.37.1-1.84.52-2.76.35l.79-.34c-3.63-.39-5.56.82-8.6,1.02,0-.88-2.85-1.17-4.27-1.31l.05-.12c-4.22-.11-7.17.73-11.08,1.08-2.43-.96-8.22-.4-12.12-.94.6.16-.1.69-.79.77-.92-.18-2.53.61-2.39-.2l.33.02c-.69-.79-2.57-.58-4.04-.6l-.24,1.06c-3.84-1.54-10.07.56-12.16-.81-.93.26-2.08.26-2.99.52l.05-.57c-2.57-.14-3.85-.22-7.03-.08l.65-.4c-1.79-.04-2.26,1.63-3.91,1.67l-.5-.85c-3.12,0-6.29-.73-9.37.04.05-.12.14-.37.65-.4-1.47-.02-5.69-.57-5.16.59-.04-.76-3.22-.07-4.91.26l.26-.56c-1.42.71-1.47.91-3.46,1.1-.47-.07-.41-.45.21-.3-1.57-.29-1.22.53-3.13.23l.71-.36c-1.62-.04-1.49.15-2.38.56-1.02.22-3.07-.14-3.3-.64-.22.31-1.1.72-2.06.57-.13-.19.22-.31.39-.37-2.7-.38-4.02.65-5.88.1-.04-.18-.16-.28-.31-.33,2.15,0,3.88.04,3.71.08,0-.51-1.73-.6-.35-1.31-1.39.39-3.77,1.23-5.46.99-.08-.05-.16-.1-.22-.18l.17-.06c-.39-.05-.74,0-1.07.08-.54-.08-.88-.15-1.4-.15-.2-.42-1.99-.23-2.85-.25.07.56-1.06.47,0,.94-.14-.04.16-.07.74-.09.13-.02.28-.03.37-.06-.02.02-.04.03-.06.05.57-.02,1.31-.03,2.15-.04-.68.29-1.4.53-2.35.21-.44.36-.93.73-1.21.91-1.18-.78-3.46-1.21-3.78-1.69-2.64.32-6.22.21-7.88,1.26-.75.14-.86-.3-1.14-.47.43-.11.95-.09,1.18-.24-1.5.27-4.45.11-4.8.84-1.89-.33,1.06-.68-1.54-.56l.35-.23c-5.11-1.18-8.31,1.88-13.98.37.39.09.59.14.67.26-6.46-.67-13.32.63-19.7-.43-1.81-.21-2.01.26-3.12.62l-.39-.6-1.89.7c-2.68.51-4.64-1.48-8.04-.52l.44.41c-1.22-.08-3.86.24-3.66-.23-.12.07-.4.42-.88.21l-.04-.32-3,.54c-2.32-.23.36-1.25-3.03-1.32-1.26.12-3.59.92-3.11,1.13.51.02,1.3.2,1.34.51l-1.15.16c-.21.93-1.09,1.88,1.73,2.54l1.97-.57.63.45-1.66.03c.94.42,1.54.05,2.21-.21.16.24.43.41.83.5l1.94-.89c.23.36-.87.72.43.92.91-.41-.87-.82.63-1.09.94.42.67.77,1.77.41.16.24-.08.39-.52.5.99-.29,2.61-.12,3.12-.62.98.52,3.33-.14,3.23.75.31-.21,1.74-.69,2.64-.73-1.65,1.06,3.39.06,2.95,1.19,1.22-.95,4.42-.42,6.59-.95-.12.08-.36.23-.55.18,1.22.08,1.57.36,2.36.54.16-.78,2.06-.96,3.08-1.45,1.49.76-.91.92-.44,1.65-.08-.64,2.6-.63,2.09-1.16,1.14.47.99.23,1.57.88.2-.98,1.06-.17,2.01-.77,1.65.48.43.92,2.24.62.86.3-.75.65-.75.65v.18h0ZM892.29-217.87h0c-.37.02-.69.04-.89.04.19,0,.44-.02.89-.04ZM895.92-217.88c-.44-.02-.99-.03-1.58-.02-.13-.19.01-.39.38-.38-.2.13.66.24,1.2.41h0ZM888.24-221.78c.57-.08.77.03.85.15-.27,0-.59.03-1.01.07-.02.02-.05.04-.07.07.05-.11.12-.21.23-.28h0Z"/>
      <path class="st0" d="M887.21-221.04c-.08,0-.13.04-.24.04.12.05.23.09.34.13.07-.06.14-.12.2-.18h-.31,0Z"/>
      <path class="st0" d="M1216.53-220.21h-.08c.06,0,.12.03.16.07-.05-.03-.05-.04-.08-.07h0Z"/>
      <polygon class="st0" points="946.09 -216.81 946.08 -216.95 945.77 -216.82 946.09 -216.81"/>
      <path class="st0" d="M1236.53-218.28s.11.1.26.14c-.01-.04-.12-.09-.26-.14Z"/>
      <path class="st0" d="M1245.18-218.15l1.22.2c-.53-.11-.91-.17-1.22-.2Z"/>
      <path class="st0" d="M1251.82-217.87c.08-.1.11-.17.13-.24h-.01l-.12.24Z"/>
      <path class="st0" d="M1146.16-217.21c-.09,0-.18,0-.26.03-.6.11-.19.07.26-.03Z"/>
      <path class="st0" d="M1177.61-218.53c-.33.1-.66.2-1.01.27.56.04.99.05,1.01-.27Z"/>
      <path class="st0" d="M1111.05-216.54h-.22.22Z"/>
      <path class="st0" d="M1175.13-218.27c.56.11,1.03.09,1.46,0-.46-.04-1-.1-1.46,0Z"/>
      <path class="st0" d="M1280.63-217.62l.32.02s.01-.07.04-.09l-.36.07h0Z"/>
      <path class="st0" d="M1280.98-217.68l.36-.07c-.16,0-.3,0-.36.07Z"/>
      <path class="st0" d="M1282.09-217.89l-.75.14c.26,0,.58.02.75-.14Z"/>
      <path class="st0" d="M1271.83-217.88l-.1.2c.05-.04.09-.11.1-.2Z"/>
      <path class="st0" d="M1269.15-217.82c.64.05,1.6.44,2.49.31l.08-.16c-.42.3-1.97-.49-2.57-.15Z"/>
      <path class="st0" d="M1258-220.34l2.24.16c-.39-.22-.91-.51.11-.56-2.82-.65.58.49-2.35.4Z"/>
      <path class="st0" d="M1251.05-220.65c1.2-.1-.01-.32.05-.44-.76.2-.95.25-.05.44Z"/>
      <path class="st0" d="M1200.85-220.66l.12-.51c-.93.07,0,.2-.12.51Z"/>
      <polygon class="st0" points="1191.26 -218.01 1192.16 -217.69 1192.59 -218.16 1191.26 -218.01"/>
      <polygon class="st0" points="1185.59 -221.66 1186 -221.73 1184.45 -221.54 1185.59 -221.66"/>
      <path class="st0" d="M1101.29-221.47l.28.63c.63-.11.76-.82-.28-.63Z"/>
      <path class="st0" d="M1064.89-220.83c-.4-.32-1.42-.52-2.05-.21.82.04,1.63.29,2.05.21Z"/>
      <polygon class="st0" points="955.74 -221.86 956.47 -222.07 955.09 -221.89 955.74 -221.86"/>
    </g>
  </g>
  <g>
    <path class="st4" d="M341.08,109.74c-.3-.3-.54-.63-.7-.99s-.25-.73-.25-1.12c0-.55.22-1.05.66-1.49.44-.44.97-.66,1.57-.66.28,0,.54.08.79.23.25.15.5.35.75.58.25.23.48.48.7.72.22.25.44.47.66.66h5.26v4.56h-.95l.95.95c.44.44.76.9.95,1.39s.29.96.29,1.43c0,.5-.1.97-.29,1.41s-.46.83-.79,1.16c-.33.33-.72.6-1.18.81-.46.21-.95.31-1.47.31h-10.56c-1.02,0-1.99-.19-2.9-.58-.91-.39-1.71-.92-2.38-1.6-.68-.68-1.21-1.47-1.59-2.38-.39-.91-.58-1.88-.58-2.9v-4.97c0-.22.08-.41.25-.58.17-.16.36-.25.58-.25h2.9c.22,0,.42.08.58.25.17.17.25.36.25.58v4.97c0,.8.28,1.48.85,2.05.57.56,1.25.85,2.05.85h8.95l-5.34-5.39ZM337.32,125.05c-.44-.32-.66-.72-.66-1.2s.22-.88.66-1.2c.44-.32.98-.48,1.62-.48s1.17.16,1.62.48c.44.32.66.72.66,1.2s-.22.88-.66,1.2c-.44.32-.98.48-1.62.48s-1.17-.16-1.62-.48ZM342.7,125.05c-.44-.32-.66-.72-.66-1.2s.22-.88.66-1.2c.44-.32.98-.48,1.62-.48s1.17.16,1.62.48c.44.32.66.72.66,1.2s-.22.88-.66,1.2c-.44.32-.98.48-1.62.48s-1.17-.16-1.62-.48Z"/>
    <path class="st4" d="M349.33,108.92c0-.36.12-.66.35-.89.24-.23.53-.35.89-.35h3.94v-8.29c0-.22.08-.41.25-.58s.36-.25.58-.25h2.9c.22,0,.41.08.58.25.17.17.25.36.25.58v9.53c0,.91-.33,1.69-.97,2.34-.65.65-1.43.97-2.34.97h-5.18c-.36,0-.66-.12-.89-.35-.23-.23-.35-.53-.35-.89v-2.07ZM355.17,95.12c-.44-.36-.66-.8-.66-1.33s.22-.97.66-1.33c.44-.36.98-.54,1.62-.54s1.17.18,1.62.54c.44.36.66.8.66,1.33s-.22.97-.66,1.33c-.44.36-.98.54-1.62.54s-1.17-.18-1.62-.54Z"/>
    <path class="st4" d="M365.61,114.34c.55.22,1.18.42,1.88.6s1.4.27,2.09.27c.83,0,1.55-.21,2.17-.64.62-.43.93-1.21.93-2.34h-4.97c-1.16,0-2.14-.4-2.94-1.2-.8-.8-1.2-1.78-1.2-2.94v-2.49c0-1.21.2-2.26.6-3.15s.93-1.62,1.6-2.2c.66-.58,1.43-1.01,2.3-1.29.87-.28,1.79-.41,2.75-.41,1.08,0,2.17.17,3.29.52,1.12.35,2.16.86,3.13,1.55v11.6c0,1.24-.17,2.32-.5,3.23-.33.91-.79,1.66-1.37,2.24s-1.26,1.01-2.05,1.28-1.64.41-2.55.41c-.97,0-2.01-.14-3.13-.41-1.12-.28-2.2-.69-3.25-1.24l1.2-3.4ZM372.69,107.67v-4.22c-.72-.22-1.37-.33-1.95-.33-.72,0-1.33.21-1.84.62-.51.42-.77,1.04-.77,1.87v2.07h4.56Z"/>
    <path class="st4" d="M386.37,98.56c.22,0,.41.08.58.25.17.17.25.36.25.58v8.29h2.28v4.56h-2.28c0,1.24-.17,2.32-.5,3.23-.33.91-.79,1.66-1.37,2.24s-1.26,1.01-2.05,1.28-1.64.41-2.55.41c-.99,0-1.99-.14-2.98-.41l.99-3.94c.41.08.81.12,1.2.12.8,0,1.45-.23,1.95-.68.5-.46.75-1.21.75-2.26v-12.84c0-.22.08-.41.25-.58.17-.17.36-.25.58-.25h2.9Z"/>
    <path class="st4" d="M388.27,108.92c0-.36.12-.66.35-.89.24-.23.53-.35.89-.35h3.94v-8.29c0-.22.08-.41.25-.58s.36-.25.58-.25h2.9c.22,0,.41.08.58.25.17.17.25.36.25.58v8.29h3.94v4.56h-12.43c-.36,0-.66-.12-.89-.35-.23-.23-.35-.53-.35-.89v-2.07ZM390.38,95.12c-.44-.36-.66-.8-.66-1.33s.22-.97.66-1.33c.44-.36.98-.54,1.62-.54s1.17.18,1.62.54c.44.36.66.8.66,1.33s-.22.97-.66,1.33c-.44.36-.98.54-1.62.54s-1.17-.18-1.62-.54ZM395.77,95.12c-.44-.36-.66-.8-.66-1.33s.22-.97.66-1.33c.44-.36.98-.54,1.62-.54s1.17.18,1.62.54c.44.36.66.8.66,1.33s-.22.97-.66,1.33c-.44.36-.98.54-1.62.54s-1.17-.18-1.62-.54Z"/>
    <path class="st4" d="M401.94,112.23c-.36,0-.66-.12-.89-.35-.23-.23-.35-.53-.35-.89v-2.07c0-.36.12-.66.35-.89.24-.23.53-.35.89-.35h10.15v-2.15c0-1.19-.38-2.02-1.14-2.51-.76-.48-1.65-.72-2.67-.72-.97,0-1.88.15-2.73.46-.08-.17-.19-.43-.33-.81-.14-.37-.28-.77-.44-1.18s-.3-.8-.43-1.16c-.14-.36-.25-.62-.33-.79l9.86-9.9,3.23,3.23-6.01,6.05c1.63.3,2.96,1.04,4,2.22,1.04,1.17,1.55,2.88,1.55,5.12v2.15h2.28v4.56h-16.99Z"/>
    <path class="st4" d="M421.21,107.67v-17.4c0-.22.08-.41.25-.58.17-.17.36-.25.58-.25h2.9c.22,0,.41.08.58.25.17.17.25.36.25.58v18.64c0,.91-.33,1.69-.97,2.34-.65.65-1.43.97-2.34.97h-3.52c-.36,0-.66-.12-.89-.35-.23-.23-.35-.53-.35-.89v-2.07c0-.36.12-.66.35-.89.24-.23.53-.35.89-.35h2.28Z"/>
    <path class="st4" d="M434.17,91.52c.22,0,.43.07.62.21s.32.35.37.62l2.07,17.61h-3.65c-.61,0-.94-.28-.99-.83l-2.07-17.61h3.65ZM431.85,115.42c.03-.17.1-.42.21-.77.11-.35.22-.71.33-1.08.11-.37.22-.73.33-1.08.11-.35.19-.6.25-.77.44.14,1.03.28,1.76.41.73.14,1.48.21,2.26.21.47,0,.92-.04,1.37-.1.44-.07.83-.19,1.16-.37.33-.18.6-.41.81-.7.21-.29.31-.66.31-1.1v-19.8c0-.22.08-.41.25-.58.17-.17.36-.25.58-.25h2.9c.22,0,.41.08.58.25s.25.36.25.58v19.8c0,1.21-.2,2.24-.6,3.06-.4.83-.94,1.5-1.62,2.01s-1.46.88-2.34,1.1-1.81.33-2.78.33-2.01-.1-3.04-.29c-1.04-.19-2.02-.48-2.96-.87Z"/>
    <path class="st4" d="M453.48,89.44c.22,0,.42.08.58.25.17.17.25.36.25.58v21.13c0,.22-.08.41-.25.58-.17.17-.36.25-.58.25h-2.9c-.22,0-.42-.08-.58-.25-.17-.16-.25-.36-.25-.58v-21.13c0-.22.08-.41.25-.58.17-.17.36-.25.58-.25h2.9Z"/>
    <path class="st4" d="M463.22,107.67h8.49v-3.31c0-1.11-.37-1.88-1.12-2.32-.75-.44-1.62-.66-2.61-.66-.47,0-.96.04-1.47.1-.51.07-1,.17-1.47.31l-1-4.06c1.66-.55,3.23-.83,4.72-.83,1.05,0,2.03.14,2.94.43.91.29,1.71.74,2.38,1.35s1.21,1.38,1.59,2.32c.39.94.58,2.06.58,3.36v3.31h2.28v4.56h-15.33v-4.56Z"/>
    <path class="st4" d="M477.34,108.92c0-.36.12-.66.35-.89.24-.23.53-.35.89-.35h6.01v-8.29c0-.22.08-.41.25-.58.17-.17.36-.25.58-.25h2.9c.22,0,.41.08.58.25.17.17.25.36.25.58v9.53c0,.91-.33,1.69-.97,2.34-.65.65-1.43.97-2.34.97h-7.25c-.36,0-.66-.12-.89-.35-.23-.23-.35-.53-.35-.89v-2.07ZM478.42,119.15c-.44-.36-.66-.8-.66-1.33s.22-.97.66-1.32c.44-.36.98-.54,1.62-.54s1.17.18,1.62.54c.44.36.66.8.66,1.32s-.22.97-.66,1.33c-.44.36-.98.54-1.62.54s-1.17-.18-1.62-.54ZM483.81,119.15c-.44-.36-.66-.8-.66-1.33s.22-.97.66-1.32c.44-.36.98-.54,1.62-.54s1.17.18,1.62.54c.44.36.66.8.66,1.32s-.22.97-.66,1.33c-.44.36-.98.54-1.62.54s-1.17-.18-1.62-.54Z"/>
    <path class="st4" d="M498.22,98.56c.22,0,.41.08.58.25.17.17.25.36.25.58v8.29h2.28v4.56h-2.28c0,1.24-.17,2.32-.5,3.23-.33.91-.79,1.66-1.37,2.24s-1.26,1.01-2.05,1.28-1.64.41-2.55.41c-.99,0-1.99-.14-2.98-.41l.99-3.94c.41.08.81.12,1.2.12.8,0,1.45-.23,1.95-.68.5-.46.75-1.21.75-2.26v-12.84c0-.22.08-.41.25-.58.17-.17.36-.25.58-.25h2.9Z"/>
    <path class="st4" d="M500.13,108.92c0-.36.12-.66.35-.89.24-.23.53-.35.89-.35h3.94v-8.29c0-.22.08-.41.25-.58s.36-.25.58-.25h2.9c.22,0,.41.08.58.25.17.17.25.36.25.58v8.29h3.94v4.56h-12.43c-.36,0-.66-.12-.89-.35-.23-.23-.35-.53-.35-.89v-2.07ZM505.97,117.91c-.44-.36-.66-.8-.66-1.33s.22-.97.66-1.33.98-.54,1.62-.54,1.17.18,1.62.54.66.8.66,1.33-.22.97-.66,1.33c-.44.36-.98.54-1.62.54s-1.17-.18-1.62-.54Z"/>
    <path class="st4" d="M516.08,107.67v-17.4c0-.22.08-.41.25-.58.17-.17.36-.25.58-.25h2.9c.22,0,.41.08.58.25.17.17.25.36.25.58v18.64c0,.91-.33,1.69-.97,2.34-.65.65-1.43.97-2.34.97h-3.52c-.36,0-.66-.12-.89-.35-.23-.23-.35-.53-.35-.89v-2.07c0-.36.12-.66.35-.89.24-.23.53-.35.89-.35h2.28Z"/>
    <path class="st4" d="M528.88,89.44c.22,0,.42.08.58.25.17.17.25.36.25.58v21.13c0,.22-.08.41-.25.58-.17.17-.36.25-.58.25h-2.9c-.22,0-.42-.08-.58-.25-.17-.16-.25-.36-.25-.58v-21.13c0-.22.08-.41.25-.58.17-.17.36-.25.58-.25h2.9Z"/>
    <path class="st4" d="M556.22,107.67h2.28v4.56h-2.28v2.9c0,.91-.33,1.69-.97,2.34-.65.65-1.43.97-2.34.97h-6.21c-1.02,0-1.99-.19-2.9-.58-.91-.39-1.71-.92-2.38-1.6-.68-.68-1.21-1.47-1.59-2.38-.39-.91-.58-1.88-.58-2.9v-5.38c0-.22.08-.41.25-.58.17-.17.36-.25.58-.25h2.9c.22,0,.42.08.58.25.17.17.25.36.25.58v5.38c0,.8.28,1.48.85,2.05s1.25.85,2.05.85h4.97v-23.61c0-.22.08-.41.25-.58.17-.17.36-.25.58-.25h2.9c.22,0,.41.08.58.25s.25.36.25.58v17.4Z"/>
    <path class="st4" d="M557.3,108.92c0-.36.12-.66.35-.89.24-.23.53-.35.89-.35h9.61c-.25-.58-.5-1.21-.75-1.9-.25-.69-.54-1.34-.87-1.95s-.72-1.12-1.18-1.53-1.01-.62-1.68-.62c-.47,0-.93.08-1.37.25-.44.17-.87.4-1.28.71l-1.24-3.23c.75-.61,1.57-1.1,2.49-1.49.91-.39,1.81-.58,2.69-.58,1.27,0,2.29.36,3.07,1.08.77.72,1.44,1.6,1.99,2.65.55,1.05,1.06,2.17,1.51,3.38.46,1.2.99,2.29,1.59,3.25h1.99v4.56h-16.57c-.36,0-.66-.12-.89-.35-.23-.23-.35-.53-.35-.89v-2.07ZM563.35,94.71c-.44-.36-.66-.8-.66-1.33s.22-.97.66-1.33c.44-.36.98-.54,1.62-.54s1.17.18,1.62.54c.44.36.66.8.66,1.33s-.22.97-.66,1.33c-.44.36-.98.54-1.62.54s-1.17-.18-1.62-.54Z"/>
    <path class="st4" d="M579.22,97.73c1.66-.55,3.23-.83,4.72-.83,1.05,0,2.03.14,2.94.43.91.29,1.71.74,2.38,1.35s1.21,1.38,1.59,2.32c.39.94.58,2.06.58,3.36v7.04c0,.22-.08.41-.25.58-.17.17-.36.25-.58.25h-12.22v-4.56h8.49v-3.31c0-1.11-.37-1.88-1.12-2.32-.75-.44-1.62-.66-2.61-.66-.47,0-.96.04-1.47.1-.51.07-1,.17-1.47.31l-1-4.06Z"/>
    <path class="st4" d="M599.72,89.44c.22,0,.42.08.58.25.17.17.25.36.25.58v21.13c0,.22-.08.41-.25.58-.17.17-.36.25-.58.25h-2.9c-.22,0-.42-.08-.58-.25-.17-.16-.25-.36-.25-.58v-21.13c0-.22.08-.41.25-.58.17-.17.36-.25.58-.25h2.9Z"/>
  </g>
</svg>