<?xml version="1.0" encoding="UTF-8"?>
<svg id="Layer_1" xmlns="http://www.w3.org/2000/svg" version="1.1" viewBox="0 0 699.08 194.23">
  <!-- Generator: Adobe Illustrator 29.7.1, SVG Export Plug-In . SVG Version: 2.1.1 Build 8)  -->
  <defs>
    <style>
      .st0 {
        fill: #fae1de;
      }

      .st1 {
        fill: #fefefe;
      }

      .st1, .st2, .st3 {
        fill-rule: evenodd;
      }

      .st4 {
        fill: #d92726;
        stroke: #020202;
        stroke-miterlimit: 10;
        stroke-width: 16.87px;
      }

      .st3 {
        fill: #f9ddd9;
      }

      .st5 {
        fill: #f2e1de;
      }
    </style>
  </defs>
  <path class="st4" d="M394.1,60.14h-.01s-44.55-48.92-44.55-48.92l-44.55,48.92H39c-16.65,0-30.14,13.21-30.14,29.5v65.87c0,16.29,13.49,29.5,30.14,29.5h621.09c16.65,0,30.14-13.21,30.14-29.5v-65.87c0-16.29-13.49-29.5-30.14-29.5h-265.99s0,0,0,0Z"/>
  <g>
    <path class="st0" d="M165.21,159.92h0l1.12.18-.51-.66c-.72-.07-.87.32-.61.49h0Z"/>
    <path class="st0" d="M170.11,159.14c-1.24-.42-2.43-.4-3.37.11.39.42,1.25.1,1.51.27-.12-.25.42-.54,1.14-.46.91.76,1.11.49,1.95,1.13.55-.61-.43-1.17-1.28-1.49.05.12.32.29.05.44Z"/>
    <path class="st0" d="M240.09,157.75l.45-.08c-.17,0-.33.04-.45.08Z"/>
    <path class="st0" d="M283.72,157.17c.02.06.16.12.49.14.07-.06-.18-.1-.49-.14Z"/>
    <path class="st0" d="M291.23,156.62c.15,0,.28-.02.44-.04-.1-.05-.27-.02-.44.04Z"/>
    <path class="st0" d="M241.71,157.46l-1.17.21c.57-.05,1.25,0,1.17-.21Z"/>
    <path class="st0" d="M179.79,160.3h0s-.03-.06-.04-.1c-.21-.02-.4-.04-.6-.07.18.08.39.14.63.17h0Z"/>
    <path class="st0" d="M221.3,157.13h0l-.65-.27c.09.1.19.19.29.27h.35s0,0,0,0Z"/>
    <path class="st0" d="M206.52,157.02h0c-.11.17-.15.29-.15.4.29.05.54.16.73.39-.13-.24-.25-.8-.58-.78h0Z"/>
    <path class="st0" d="M182.67,157.94l.42.08c-.13-.03-.31-.06-.42-.08Z"/>
    <path class="st0" d="M232,156.81c-.05.04-.11.12-.13.2.08-.06.13-.13.13-.2Z"/>
    <path class="st0" d="M645.12,161.14v.1c.11,0,.09-.04,0-.1Z"/>
    <path class="st0" d="M661.95,158.1c0,.11.02.21.05.32l.24.03-.29-.35Z"/>
    <path class="st0" d="M305.26,155.86h.06c-.22-.05-.42-.06-.06,0Z"/>
    <path class="st0" d="M430.76,157.47c2.14-.55-1.59-.7-.17-1.2-1.77.32.37.98.17,1.2Z"/>
    <path class="st0" d="M180.77,160.22h-.61c.15.02.33.02.61,0Z"/>
    <path class="st0" d="M430.54,157.53l.22-.06h0c-.08.02-.13.04-.22.06Z"/>
    <path class="st0" d="M336.44,156.44c.13-.08.26-.15.32-.25-.24.12-.31.19-.32.25Z"/>
    <path class="st0" d="M313.92,156.91l-.58.08c.16,0,.35-.03.58-.08Z"/>
    <path class="st0" d="M348.92,157h0c.36-.09.56-.06.72.02.05-.02.09-.04.13-.07-.43-.08-.53,0-.85.04h0Z"/>
    <path class="st0" d="M360.95,157.07c.13,0,.27.03.4.03.07-.03.16-.07.23-.11l-.63.08Z"/>
    <path class="st0" d="M607.22,160.46c-.13.18-.3.35-.58.51,2.24.03.38-.11.58-.51Z"/>
    <path class="st0" d="M179.74,160.19c.14,0,.27.03.42.03-.2-.03-.31-.1-.38-.24-.08.05-.08.13-.04.21Z"/>
    <path class="st0" d="M351.45,161.34l-2.01.08c.72,0,1.45-.03,2.01-.08Z"/>
    <path class="st0" d="M516.29,160.95l-.46-.07c.12.07.28.07.46.07Z"/>
    <path class="st0" d="M357.41,161.42h0l1.37-.24c-.05-.07-.15-.11-.23-.15-.39.08-.77.19-1.13.39h0Z"/>
    <path class="st0" d="M607.23,160.45h0Z"/>
    <path class="st0" d="M620.48,161.8h0l.12-.17s-1.68-.35-.78-.65c1.88.3.61-.14,2.32-.62.98.6,1.87-.21,2.08.77.61-.65.45-.41,1.63-.88-.53.53,2.24.52,2.16,1.16.49-.73-2-.89-.45-1.65,1.06.49,3.03.67,3.19,1.45.81-.18,1.18-.46,2.44-.54-.2.05-.44-.1-.57-.18,2.24.53,5.55,0,6.82.95-.46-1.13,4.76-.13,3.05-1.19.93.04,2.41.52,2.73.73-.1-.89,2.32-.23,3.34-.75.53.5,2.21.33,3.23.62-.46-.11-.7-.26-.54-.5,1.15.36.86,0,1.84-.41,1.55.27-.29.68.65,1.09,1.35-.2.21-.56.45-.92l2,.89c.41-.09.7-.26.86-.5.69.26,1.31.63,2.28.21l-1.72-.03.66-.45,2.04.57c2.92-.66,2.01-1.61,1.79-2.54l-1.19-.16c.03-.31.85-.49,1.38-.51.49-.21-1.92-1.01-3.22-1.13-3.51.07-.73,1.09-3.13,1.32l-3.1-.54-.04.32c-.5.21-.78-.14-.91-.21.21.47-2.53.15-3.79.23l.45-.41c-3.52-.96-5.55,1.03-8.33.52l-1.96-.7-.41.6c-1.15-.36-1.35-.83-3.23-.62-6.6,1.06-13.7-.24-20.39.43.08-.12.28-.17.69-.26-5.87,1.51-9.19-1.55-14.48-.37l.36.23c-2.69-.12.37.23-1.59.56-.37-.73-3.42-.57-4.97-.84.25.15.78.13,1.23.24-.29.17-.4.61-1.18.47-1.72-1.05-5.43-.94-8.16-1.26-.33.48-2.69.91-3.92,1.69-.28-.18-.79-.55-1.25-.91-.99.32-1.73.08-2.44-.21.88,0,1.64.02,2.23.04-.02-.02-.04-.03-.06-.05.09.04.25.04.38.06.59.02.9.05.76.09,1.1-.47-.07-.38,0-.94-.89.02-2.74-.17-2.95.25-.54,0-.89.07-1.45.15-.34-.08-.71-.13-1.11-.08l.18.06c-.06.08-.15.13-.23.18-1.75.24-4.22-.6-5.66-.99,1.43.71-.37.8-.37,1.31-.17-.04,1.62-.08,3.84-.08-.15.05-.28.15-.32.33-1.92.55-3.28-.48-6.08-.1.18.06.54.18.41.37-.99.15-1.9-.26-2.13-.57-.25.5-2.37.86-3.42.64-.92-.41-.79-.6-2.46-.56l.73.36c-1.97.3-1.61-.52-3.24-.23.65-.15.71.23.22.3-2.06-.19-2.11-.39-3.58-1.1l.27.56c-1.75-.33-5.05-1.02-5.09-.26.55-1.16-3.82-.61-5.34-.59.52.03.62.28.67.4-3.2-.77-6.47-.04-9.71-.04l-.51.85c-1.71-.04-2.2-1.71-4.05-1.67l.67.4c-3.29-.14-4.62-.06-7.28.08l.05.57c-.95-.27-2.14-.27-3.1-.53-2.17,1.37-8.61-.73-12.59.81l-.25-1.06c-1.52.02-3.47-.19-4.18.6l.34-.02c.15.81-1.52.02-2.47.2-.72-.08-1.44-.61-.82-.77-4.04.54-10.04-.02-12.55.94-4.04-.35-7.1-1.19-11.47-1.08l.05.12c-1.47.14-4.42.43-4.42,1.31-3.15-.2-5.16-1.41-8.91-1.02l.81.34c-.95.17-2.48-.25-2.86-.35-.33.02-.09.2-.04.32-.9.3-1.43-.17-2.15-.26l.29.3c-2.99.61-7.71-.59-11.56-.44.71.08.33.42.05.56-1.58-.97-5.91-.74-7.52-.97l.99.38c-3.14-.65-2.72,1.03-5.83.38l1.79-.56c-1.27.17-2.34-.02-2.04-.46-1.48.32-.18.75-2.41.84-.1.27,1.6.18.87.54l-3.08.73c-.09.08-.48.1-1.5.02.27-1.23-2.56-.07-1.01-1.26-4.37-.09-8.06.72-11.81.15-1.53,1.18-7.44.04-7.06,1.57-2.12.02-3.83-.29-5.14-.91.42-.12.96.07,1.39.15-.55-.39-3.11-.45-4.17-.45,1.4.35,3.65.64,4.74,1.23-1.92-.15-4.61-.72-5.68-.91l-.49.79c-1.63-.58-1.36.64-2.99-.14l.31-.24c-2.97.06-3.01-.73-5.78-.83l.12.31c-.95.12-2.36-.61-3.29.1l1.81.03c-.19.55-1.57.79-2.19,1.07-1.91-.14-.67-.9-1.63-.97-.4.52-.1.28.57.79-2.14-.19-5.02-.41-6.54-1.07-.1.09.01.2.01.2-2.23.09-4.19-.84-5.55-.4l.43.08c-1.78.76-4.61-.72-4.98.58-.85.24,1.91-.05.56.59-2.65.41-1.75-1.09-4.08-.72.32-.04.21.04.32.16-1.68-.03-3.92-.16-5.78-.29-2.28,1.06-6.99-.26-9.61.97.84-.43-.66-.51-.66-.7,0,0,.1.11,0,.19-.95.04-1.07-.38-1.43-.55-.78.37-2.64-.41-3.14-.16-.01-.28-.78-.2-1.63-.2,1.71.31.55.59,1.32,1.02-2.55.13-2.93-1.2-5.58-.99l-1.47.52c-.3-.79-2.76-.47-2.7-.76-.45.24-1.12.38-1.02.78-1.06-.19-2.65.21-3.09-.26l1.06-.21c-3.28.3-5.25-.84-7.78-.31l.05,1.18c-1.68.49-3.11-.65-4.57.07.51-.4.62-.28-.46-.67.63-.08,1.82.22,2.88.22l-2.26-.69,3.53.34c-1.51-.47-1.4-.35-.78-.83-2.14-.38-2.31.57-4.35.11-.74.16.02.59-.82.83-1.82-.42-3.46.85-4.77.23-.42.12.75.03.65.31-1.17-.11-2.02-.07-2.36-.42l1.01-.13c-.89.04-1.03-.45-2.72-.17-.98-.27-1.53-.86-.47-.86-.43-.07-1.37.25-1.04.6-2.63.01-1.26-1.26-3.8-.7.17.04.36.1.26.17-.64.07-1.17.08-1.6,0,2.24.1-.7.94,1.95.73-.29.63-2.02.13-2.86.37-1.29-.42-.14-.9-.79-1.21.01.2-.53.2-1.16.28l.62-.47c-.54,0-1.07,0-1.71-.11l1.08.19c-1.17.08-2.94.84-4.99.38.54.19,1.62.58.25.82-2.24-.3-.52.2-1.79.56-2.23-.1-.39-.84-3.68-.55-.36,0-.03-.28.33-.41-2.24.24-3.47-.1-5.65.24.95-.12,1.68-.28.4-.51.55.39-1.79.37-2.63.61l-.22-.24c-.67.26.05.36.6.45-.01-.08.18-.16.59-.14,1.07.19.68,1.1-1.02,1.19-1.82-.22-1.52-.85-1.21-1.09-2.44.25-2.28-1.09-4.61-.72-.53.01-2.3.96-4,1.05-.88-.54,2.11-.4,1.13-.87-2.81,1.36-5.78-.83-9.47-.02l.46.67c-.85.03-1.7.07-2.66,0l1.26-.36c-.86-.15-2.88-.02-2.22.49-1.94-.54-2.35-.22-4.15-.05,1.91-.06.03-.09,1.43.25-2.01.33-2.16.11-3.55-.04.23.24-.5.6-1.04.6-1.3-.43-3.53-.33-5.34-.56v.2c-3.05-.25-6.35.67-9.42.08h0s-.15-.03-.15-.03l.24-.04c1.05-.63-2.38-.44-3.32-.7-.2.16-.3.44-.83.44-.03-.58-1.18-.31-1.62-.58-1.05.2.14.71-1.67.68-.7-.05-.78-.36-.7-.58-.38.3-1.53.53-2.49.6.32.16.84-.04,1.06,0,.12.32-.53.2-.51.6-.85.04-.34-.55-1.4-.35l.98.47c-.43.12-.97-.07-1.18-.11.64.11.55.58.46.86-2.46-.34-.48-1.26-.61-1.77-2.33.37-4.16-.25-5.97-.28l.34.55c-.89-.09-1.31-.21-1.63-.45h-1.36c.78.2,1.04.37,1.1.81-1.44-.15-3.43-.02-3.8-.75l.06.12c-1.93.26-5.95.42-5.82.66-2.07-.25-4.69.18-4.75-.55-1.23-.17-3.2.94-4.08.03-1.46.49-.08.2.37.74-1.47.48-2.95-.75-3.44.3-1.71-.32.39-.22-.18-.68-.36.97-3.17.15-4.77.71-.72-.39.73-.24-.51-.66.12.24-.54.29-.87.31l-.32-.61-1.63,1.51c-2.42-.72.49-1.05-2.73-1.33l.19.05c-.88.62-2.3-.48-4.62,0,.8-.12.33.3.58.47l-1.29-.25c.12.03.18.07.05.14-1.14.46-.99-.25-2.31.16.91.13.63.59.23.81l-1.89-.69.77.83c-1.85.06-4.59-1.26-5.53-.12l.92.12c-.07.19-.62.8-1.86.38-.39-.1-.65-.59-.12-.56l-.93.19c.45.54,2.75.7,4.2.85-.45-.22-1.57-.4-1.23-.74,1.29.18,2.52.54,3.76.72-.5-.21-.81-.56-1.05-.78,1.39-.29,1.04.37,2.1.42.41-.22.68-.36.41-.53,1.31.23,2.36.29,3.76,0,0,0-1.58-.4-.71-.71,2.57.33,3.08.98,5.84,1.36,3.2.92,6.21-.56,8.44.11.12.24-1.67.43-.22.58-.25-.49.87-.31.94-.51,1.56.72,2.31-.16,3.42.33-.26-.17.65-.36,1.25-.53-.17-.61,1.74-.25-.55-1.11,2.35.92,4.16-.22,5.91,1.17l-.6.17,2.36-.27h-.1c1.03-.1,1.18.06,2.56-.57-.59-.15-1.45-.15-2.04-.3,1.27-.53,2.62.45,4.02.48-.06-.44-1.45-.16-1.04-.69.99-.06,1.84.26,2.76.38l-.13-.24c2.46-.55.96,1.2,2.76.38-.06.14.17.3.06.44.67-.26,2.23-.69.68-1,.86,0,1.83.22,2.27.49-.73.36-.91.18-1.18.64l3.45.25c.38,0-.29-.24-.77-.24,4.05-1.29,8.19,1.09,12.76-.46-.52.39.33.35.77.62,1.48-.12,3.72-.02,5.09-.26l-.44-.27c3.52.33,5.95.76,8.28.59.11.12-.02-.39-.44-.47,1.72.5,3.78-1.08,4.25-.02l-.63.08c3.4-.18,7.16.58,10.67.72.82-.64-2.03-.07-1.31-.82,2.43-.25,4.9.28,7.55.07-.43-.07-.33-.15-.54-.19,2.64-.41-.29.63,1.93.54-.12-.31,0-.39.73-.55l.65.51c.11-.08.09-.47-.24-.63.98.67,3.94.22,4.72.84.2-.15-.36-.74-.05-.98,1.18-.19,1.99.06,2.78.3h0c.83-.45,2.86-.37,2.43-.45,2.12-.2.34.36,1.95.74l-1.69.28,2.99.14-1.19-.31c1.37-.24,2.78.29,4.38.29l-.73.36,1.82.22c.18-.75,2.33-.17,1.33-1.03,3.39-.37,5.56.6,8.65.66-.54,0-.33-.15-.44-.27,1.8-.16,2.88.22,3.96.61-.22-.23-.66-.31-.66-.51,2.13-.01,1.29.43,3.64.65-.65-.31-.45-.47.19-.55-.1.28.44.47.87.55-1.77-1.48,2.63-.6,1.52-1.78.12.32,3.77.96,2.72,1.56l-.64-.11c-.07.41.79.25,1.45.28-.34-.06-.71-.16-.71-.24,3.32.49,6.81.04,10.55.41-.32-.16-1.83-.43-.87-.55,3.71-.22,5.87.56,9.61.93.17-.95-4.05-.14-4.19-1.04,3.95.21,8.01.54,12.39,1.03,1.53-1.39,4.28.56,7-.52-.26.47,1.09.65,2.57.65-.5-.38,1.05-.39.62-.66,1.29.43,5.03.6,4.88-.3.34.88,2.78-.04,3.84.58,1.63-.33,3.49.18,5.54-.08-.72.55,2.04.26,2.79.49-.22-.03-.64-.11-.54-.19.61-.47,2.36.42,3.51.14.52-.2-.13-.51.72-.55.02.39,3.13.85,4.28.37-.54,0-.55-.2-.87-.35,5.45.68,11.26-.14,16.83.65l-.99-.66c3.47-.85,2.28,1.09,5.04.99,7.54-.32,15.37-1.27,22.73-.84.54.19-.31.23-.4.51.64-.09.82-.64,1.69-.29l-.19.36c3.36-.97,9.7.65,12.19-.86,3.22.57,5.48-.4,9.39.45,1.23-.32-1.44-.61.23-.7l3.62.56-.2-.05c3.49,1.06,9.23-1.2,13.61-.43l-.19-.05c-.1-.25.8-.54,1.51-.46.25.18-.23.27-.65.48,3.91.42,4.76.44,7.85.52-1.33-.37,1.24-.32,1.37-.83.81.33-.47.53,1.34.81,2.57.05,4.94-.39,7.08-.57.87.45,2,.33,2.06.89,2.9.03,4.52.25,8.09.25l.09-.19c.96.7,3.1-.35,3.76.05-.1-.24-.48-.35-.38-.54l1.62.23c-.77-.21-1.2-.87.13-.95,1.38.49-.39.34.29.74l.42-.65c1.05.08,1.34.81.06,1.01,3.57,0,7.09.31,10.27.2l-.34-.42c1.77.16,4.14.15,5.19-.22.05.12.48.35.2.49,2.09.58.22-.7,2.51-.07-.57-.16-1.28-.24-1.38-.49l4.29.52c.04-.31,2.65-1.02,4.46-.74.07.17-.45.41-.91.45l1.16.16.89-.74,1.68.65.03-.62c1.24.12,1.73.91,2.73.86,3.74-.39,2.98-.61,5.64-1.19.3,1.18,4.23-.05,4.91.8,3.55-.88,8.7-.35,13.36-.6l-.38-.1c1.99-.54,2.26.9,4.41.66l-.54-.17c2.76-.63,7.59-.06,10.21.44-.53-.17-.26-.55.58-.51.71.23-.69.82.79.6-.37-.11-.08-.38.26-.38l1.45.59c3.8-.41,8.28-.83,12.22-.49.73-.21.19-.42.02-.62,3.13.12,6.24.61,9.06.72l.29-.68c1.39,0,.86,1.05,2.66.44.4-.1-1.19-.05-1.68-.35,2.78-.51,1.64.67,4.29.59l-.69-.77c2.03-.45,2.32.41,3.06.86,2.85.91,2.03-1.48,5.91-.8.61.38-.21.56.41.94,2.74-.2,3.06.35,5.8.15,1.46-1.14-1.39,0,.2-1.07l-2.08.26c1.8-.6-1.63-.15-1.35-.83,1.35-.2,3.39.37,5.15.6,0-.51-2.04-.06-1.23-.75l.9.21c-.25-.15-.29-.33-.82-.33.33-.49,1.06-.02,1.92-.02.06.26.01.64-.27,1.01.03-.05.1-.11.23-.18,1.76.74,4.73.18,6.24.77-.25-.15-.04-.2.04-.32,1.07-.02,2.16.65,3.59.85.78-.38-.45-1.13,1.84-.92.41.43-.61,1.17,1.31,1.15h0ZM576.64,160.13c-.21,0-.53-.02-.92-.04h0c.46.02.73.04.92.04ZM571.96,160.1h0c.56-.17,1.45-.28,1.24-.41.38,0,.52.19.39.38-.6,0-1.17,0-1.63.02h0ZM579.91,156.2h0c.12.07.18.17.24.28-.02-.03-.05-.05-.07-.07-.43-.04-.76-.07-1.04-.07.09-.12.28-.23.88-.15h0Z"/>
    <path class="st0" d="M580.99,156.92h-.32c.06.06.14.12.21.18.12-.04.24-.08.36-.13-.12,0-.16-.04-.25-.04h0Z"/>
    <path class="st0" d="M240.01,157.76h0s-.04.04-.09.07c.04-.04.1-.07.17-.07h-.08s0,0,0,0Z"/>
    <polygon class="st0" points="520.35 161.14 520.02 161.02 520.02 161.16 520.35 161.14"/>
    <path class="st0" d="M219.02,159.83c.15-.04.27-.14.27-.14-.14.05-.26.1-.27.14Z"/>
    <path class="st0" d="M209.07,160.02l1.27-.2c-.32.03-.72.09-1.27.2Z"/>
    <path class="st0" d="M203.34,159.85h-.01c.02.07.04.14.13.24l-.12-.24Z"/>
    <path class="st0" d="M313.13,160.79c-.09-.03-.18-.03-.27-.03.47.1.89.14.27.03Z"/>
    <path class="st0" d="M281.36,159.71c-.36-.07-.7-.17-1.05-.27.02.32.47.31,1.05.27Z"/>
    <path class="st0" d="M349.44,161.43h-.22s.22,0,.22,0Z"/>
    <path class="st0" d="M281.36,159.7c.45.09.93.11,1.51,0-.48-.1-1.03-.04-1.51,0Z"/>
    <path class="st0" d="M173.64,160.35h0l-.37-.07s.04.09.04.09l.33-.02h0Z"/>
    <path class="st0" d="M172.9,160.21l.37.07c-.05-.07-.2-.07-.37-.07Z"/>
    <path class="st0" d="M172.9,160.21l-.77-.14c.17.16.5.14.77.14Z"/>
    <path class="st0" d="M182.85,160.29l-.1-.2c0,.09.04.16.1.2Z"/>
    <path class="st0" d="M185.52,160.15h-.01c-.62-.34-2.23.45-2.66.15l.09.16c.92.12,1.92-.26,2.58-.31h0Z"/>
    <path class="st0" d="M194.63,157.23c1.06.05.53.34.12.56l2.32-.16c-3.04.09.48-1.05-2.44-.4Z"/>
    <path class="st0" d="M204.21,156.87c.06.12-1.2.34.05.44.93-.19.74-.24-.05-.44Z"/>
    <path class="st0" d="M256.11,156.8l.13.51c-.13-.31.83-.44-.13-.51Z"/>
    <polygon class="st0" points="264.79 159.81 265.24 160.27 266.17 159.96 264.79 159.81"/>
    <polygon class="st0" points="273.22 156.42 271.62 156.24 272.04 156.31 273.22 156.42"/>
    <path class="st0" d="M359.04,157.12l.29-.63c-1.08-.19-.94.52-.29.63Z"/>
    <path class="st0" d="M399.13,156.93c-.65-.31-1.71-.11-2.12.21.43.08,1.27-.17,2.12-.21Z"/>
    <polygon class="st0" points="510.7 156.07 509.27 155.9 510.02 156.11 510.7 156.07"/>
  </g>
  <g>
    <path class="st1" d="M612.62,105.99h0c.05-.18.2-.32.39-.32.12,0,.22.03.31.11.08.08.14.18.14.29h0c1.48.42,4.12,1.89,4.79,2.06,5.8,2.31,11.47,4.92,17.11,7.59,1.76.84,3.47,1.75,5.26,2.51.41.27,3.92,1.33,4.67,2.15.21-.35.42-.7.63-1.05,1.81-3,3.47-6.1,5.02-9.24.29-.37.69-1.62,1.19-2.13v-.06c.32-1.99-2.38-2.68-3.79-3.44-3.71-1.67-7.44-3.27-11.2-4.87-3.35-1.48-6.64-3.09-9.94-4.69-1.95-.83-3.96-1.97-6.14-1.89-1.01.1-1.39,1.19-1.94,1.88-2.18,3.26-3.93,6.79-6,10.12-.16.33-.36.67-.58,1.02.03-.02.09-.05.09-.05h0Z"/>
    <path class="st3" d="M612.95,103.65h0c1.71-2.75,3.17-5.64,4.91-8.37.95-1.32,1.76-3.34,3.74-3.11,2.55.23,4.87,1.5,7.15,2.56,3.28,1.61,6.58,3.19,9.94,4.64,3.72,1.55,7.42,3.18,11.09,4.85,1.34.66,3.04,1.48,3.26,3.09.01.24.01.62-.12.87-.03.19-.17.38-.28.53-.57.97-1.06,1.99-1.57,3-2.68,5.37-5.86,10.49-8.94,15.65-.07.54-.88,1.32-1.37,1.37-3.7.94-9.25-2.73-12.65-4.25-4.06-2.11-8.26-3.95-12.34-6.02-2.37-1.12-4.83-2.22-6.87-3.87-2.53-3.17,2.74-7.97,4.05-10.95h0Z"/>
    <path class="st2" d="M634.67,106.45c-.5-.24-.09-.99.39-.74,1.49.64,3,1.26,4.48,1.92,1.64.73,3.27,1.48,4.91,2.2.53.29,3.37,1.21,1.9,1.88-3.73-1.93-7.78-3.57-11.68-5.26Z"/>
    <path class="st2" d="M631.4,105.35h.01c-.23.09-.49-.07-.55-.29-.45-.48-2.53-.91-2.18-1.62.5-.62,1.44.38,2.01.55.49.23,1.59.92.71,1.37h0Z"/>
    <path class="st2" d="M622.43,104.32c-1.53-.07-4.39-.89-5.17-2.24-.18-.85.47-1.97,1.34-2.2,1.91,0,3.75.97,5.39,1.83,1.42-.05-.11,2.92-1.56,2.61h0ZM622.32,103.49h0c.74.09,1.12-.47,1.32-1.08-1.51-.67-3.01-1.52-4.69-1.72-.49-.02-.97.8-.83,1.22,1.19.88,2.72,1.45,4.21,1.58h0ZM623.91,102.48s.13.04.13.04c-.04,0-.09-.02-.13-.04Z"/>
    <path class="st2" d="M623.46,124.89h0c-.52.42-1.08-.42-1.61-.54-.87-.43-1.73-.77-2.67-1.14-.71-.46-6.01-1.81-5.46-2.49.07-.21.32-.33.54-.25,1.39.53,2.8,1.03,4.19,1.57.75.42,5.8,1.87,5,2.85h0Z"/>
    <path class="st2" d="M614.47,123.54c-.85-.45-1.91-.66-2.65-1.25-.37-1.5,2.72.53,3.32.63.49.37,2.13.44,1.94,1.19-.37.73-2-.43-2.61-.57Z"/>
    <path class="st2" d="M609.28,113.71h0c-.38-1.07-.14-2.18.39-3.28,0,.09.06.18.13.24.09.08.2.11.31.11.06,0,.11-.02.16-.04.37.17.75.35,1.13.51,7.56,3.12,14.95,6.64,22.5,9.77,2.36,1,4.62,2.22,7,3.16.41.07,1.16.59,1.73.71-.2.35-.41.71-.62,1.06-.21.34-.39.63-.61.96-.02.04-.05.07-.05.1-.15.22-.15.57-.45.71-2.51,1.19-5.91-.99-8.26-1.94-4.96-2.48-9.97-4.88-14.95-7.32-2.82-1.48-6.09-2.53-8.4-4.74h0Z"/>
  </g>
  <g>
    <path class="st5" d="M141.29,113.25c-.91,0-1.69-.32-2.34-.97-.65-.65-.97-1.43-.97-2.34v-8.29c0-.22.08-.42.25-.58.17-.17.36-.25.58-.25h2.9c.22,0,.41.08.58.25.17.17.25.36.25.58v7.04h14.09v-17.4c0-.22.08-.41.25-.58.17-.17.36-.25.58-.25h2.9c.22,0,.41.08.58.25s.25.36.25.58v17.4h2.28v4.56h-22.16ZM146.05,101.15h4.43v-.54c0-.55-.21-.93-.62-1.14-.41-.21-.83-.31-1.24-.31-.39,0-.76.07-1.12.21l-1.41-2.32,5.1-5.14,1.49,2.28-2.98,2.9c2.26.17,3.4,1.27,3.4,3.31v3.31h-7.04v-2.57Z"/>
    <path class="st5" d="M162.25,109.94c0-.36.12-.66.35-.89.23-.23.53-.35.89-.35h3.94v-8.29c0-.22.08-.41.25-.58.17-.17.36-.25.58-.25h2.9c.22,0,.41.08.58.25.17.17.25.36.25.58v9.53c0,.91-.32,1.69-.97,2.34-.65.65-1.43.97-2.34.97h-5.18c-.36,0-.66-.12-.89-.35-.23-.23-.35-.53-.35-.89v-2.07ZM166.06,118.93c-.44-.36-.66-.8-.66-1.33s.22-.97.66-1.33c.44-.36.98-.54,1.62-.54s1.17.18,1.62.54c.44.36.66.8.66,1.33s-.22.97-.66,1.33c-.44.36-.98.54-1.62.54s-1.17-.18-1.62-.54Z"/>
    <path class="st5" d="M198.46,104.47l4.14-3.65c.44-.39.91-.69,1.41-.91.5-.22,1.06-.33,1.7-.33h6.01c.91,0,1.69.33,2.34.97.65.65.97,1.43.97,2.34v7.04c0,.91-.32,1.69-.97,2.34-.65.65-1.43.97-2.34.97h-13.26v2.49c0,.91-.32,1.69-.97,2.34-.65.65-1.43.97-2.34.97h-6.21c-1.02,0-1.99-.19-2.9-.58-.91-.39-1.71-.92-2.38-1.59-.68-.68-1.21-1.47-1.6-2.38-.39-.91-.58-1.88-.58-2.9v-4.97c0-.22.08-.41.25-.58.17-.17.36-.25.58-.25h2.9c.22,0,.41.08.58.25.17.17.25.36.25.58v4.97c0,.8.28,1.49.85,2.05.57.57,1.25.85,2.05.85h4.97v-14.09c0-.22.08-.41.25-.58.17-.17.36-.25.58-.25h2.9c.22,0,.41.08.58.25.17.17.25.36.25.58v4.06ZM199.37,108.69h11.1v-4.56h-5.01l-6.09,4.56Z"/>
    <path class="st5" d="M223.32,90.46c.22,0,.42.08.58.25.17.17.25.36.25.58v17.4h2.28v4.56h-6.01c-.22,0-.42-.08-.58-.25-.17-.17-.25-.36-.25-.58v-21.13c0-.22.08-.41.25-.58.17-.17.36-.25.58-.25h2.9Z"/>
    <path class="st5" d="M225.23,109.94c0-.36.12-.66.35-.89.24-.23.53-.35.89-.35h9.61c-.25-.58-.5-1.21-.75-1.91-.25-.69-.54-1.34-.87-1.95-.33-.61-.72-1.12-1.18-1.53-.46-.42-1.01-.62-1.68-.62-.47,0-.93.08-1.37.25-.44.17-.87.4-1.28.7l-1.24-3.23c.75-.61,1.57-1.1,2.49-1.49.91-.39,1.81-.58,2.69-.58,1.27,0,2.29.36,3.07,1.08.77.72,1.44,1.6,1.99,2.65.55,1.05,1.06,2.17,1.51,3.38.46,1.2.99,2.29,1.59,3.25h1.99v4.56h-16.57c-.36,0-.66-.12-.89-.35s-.35-.53-.35-.89v-2.07ZM231.27,95.73c-.44-.36-.66-.8-.66-1.33s.22-.97.66-1.33c.44-.36.98-.54,1.62-.54s1.17.18,1.62.54c.44.36.66.8.66,1.33s-.22.97-.66,1.33c-.44.36-.98.54-1.62.54s-1.17-.18-1.62-.54Z"/>
    <path class="st5" d="M245.32,108.69v-17.4c0-.22.08-.41.25-.58.17-.17.36-.25.58-.25h2.9c.22,0,.41.08.58.25.17.17.25.36.25.58v18.64c0,.91-.33,1.69-.97,2.34s-1.43.97-2.34.97h-3.52c-.36,0-.66-.12-.89-.35s-.35-.53-.35-.89v-2.07c0-.36.12-.66.35-.89.24-.23.53-.35.89-.35h2.28Z"/>
    <path class="st5" d="M258.12,90.46c.22,0,.42.08.58.25.17.17.25.36.25.58v21.13c0,.22-.08.41-.25.58-.17.17-.36.25-.58.25h-2.9c-.22,0-.42-.08-.58-.25-.17-.17-.25-.36-.25-.58v-21.13c0-.22.08-.41.25-.58.17-.17.36-.25.58-.25h2.9Z"/>
    <path class="st5" d="M285.25,113.25h-12.64c-1.49,0-2.56-.28-3.19-.85-.64-.57-.95-1.29-.95-2.17,0-.66.17-1.41.5-2.24l2.28-5.76c.3-.77.79-1.41,1.47-1.91.68-.5,1.47-.75,2.38-.75h7.04c.22,0,.41.08.58.25.17.17.25.36.25.58v8.29h2.28v4.56ZM273.49,96.14c-.44-.36-.66-.8-.66-1.33s.22-.97.66-1.33c.44-.36.98-.54,1.62-.54s1.17.18,1.62.54c.44.36.66.8.66,1.33s-.22.97-.66,1.33c-.44.36-.98.54-1.62.54s-1.17-.18-1.62-.54ZM278.42,108.69v-4.56h-3.07l-1.78,4.56h4.85ZM278.87,96.14c-.44-.36-.66-.8-.66-1.33s.22-.97.66-1.33c.44-.36.98-.54,1.62-.54s1.17.18,1.62.54c.44.36.66.8.66,1.33s-.22.97-.66,1.33c-.44.36-.98.54-1.62.54s-1.17-.18-1.62-.54Z"/>
    <path class="st5" d="M284.05,109.94c0-.36.12-.66.35-.89.24-.23.53-.35.89-.35h1.66v4.56h-1.66c-.36,0-.66-.12-.89-.35s-.35-.53-.35-.89v-2.07Z"/>
    <path class="st5" d="M285.71,109.94c0-.36.12-.66.35-.89.24-.23.53-.35.89-.35h3.94v-8.29c0-.22.08-.41.25-.58s.36-.25.58-.25h2.9c.22,0,.41.08.58.25.17.17.25.36.25.58v8.29h3.94v4.56h-12.43c-.36,0-.66-.12-.89-.35s-.35-.53-.35-.89v-2.07ZM287.62,118.93c-.44-.36-.66-.8-.66-1.33s.22-.97.66-1.33c.44-.36.98-.54,1.62-.54s1.17.18,1.62.54c.44.36.66.8.66,1.33s-.22.97-.66,1.33c-.44.36-.98.54-1.62.54s-1.17-.18-1.62-.54ZM293,118.93c-.44-.36-.66-.8-.66-1.33s.22-.97.66-1.33c.44-.36.98-.54,1.62-.54s1.17.18,1.62.54c.44.36.66.8.66,1.33s-.22.97-.66,1.33c-.44.36-.98.54-1.62.54s-1.17-.18-1.62-.54Z"/>
    <path class="st5" d="M298.14,109.94c0-.36.12-.66.35-.89.24-.23.53-.35.89-.35h3.94v-8.29c0-.22.08-.41.25-.58s.36-.25.58-.25h2.9c.22,0,.41.08.58.25.17.17.25.36.25.58v9.53c0,.91-.33,1.69-.97,2.34s-1.43.97-2.34.97h-5.18c-.36,0-.66-.12-.89-.35s-.35-.53-.35-.89v-2.07ZM300.25,96.14c-.44-.36-.66-.8-.66-1.33s.22-.97.66-1.33c.44-.36.98-.54,1.62-.54s1.17.18,1.62.54c.44.36.66.8.66,1.33s-.22.97-.66,1.33c-.44.36-.98.54-1.62.54s-1.17-.18-1.62-.54ZM305.64,96.14c-.44-.36-.66-.8-.66-1.33s.22-.97.66-1.33c.44-.36.98-.54,1.62-.54s1.17.18,1.62.54c.44.36.66.8.66,1.33s-.22.97-.66,1.33c-.44.36-.98.54-1.62.54s-1.17-.18-1.62-.54Z"/>
    <path class="st5" d="M316.12,90.46c.22,0,.42.08.58.25.17.17.25.36.25.58v21.13c0,.22-.08.41-.25.58-.17.17-.36.25-.58.25h-2.9c-.22,0-.42-.08-.58-.25-.17-.17-.25-.36-.25-.58v-21.13c0-.22.08-.41.25-.58.17-.17.36-.25.58-.25h2.9Z"/>
    <path class="st5" d="M321.55,100.41c0-.22.08-.41.25-.58.17-.17.36-.25.58-.25h2.9c.22,0,.41.08.58.25s.25.36.25.58v12.84c0,1.24-.17,2.32-.5,3.23-.33.91-.79,1.66-1.37,2.26s-1.26,1.03-2.05,1.3-1.64.42-2.55.42c-.97,0-1.97-.15-3.02-.44s-2.1-.71-3.15-1.26l1.2-3.44c.55.22,1.18.44,1.88.64s1.37.31,2.01.31c.8,0,1.5-.21,2.09-.64s.89-1.22.89-2.38v-12.84Z"/>
    <path class="st5" d="M334.35,90.46c.22,0,.42.08.58.25.17.17.25.36.25.58v17.4h2.28v4.56h-6.01c-.22,0-.42-.08-.58-.25-.17-.17-.25-.36-.25-.58v-21.13c0-.22.08-.41.25-.58.17-.17.36-.25.58-.25h2.9Z"/>
    <path class="st5" d="M337.5,113.25c-.36,0-.66-.12-.89-.35s-.35-.53-.35-.89v-2.07c0-.36.12-.66.35-.89.24-.23.53-.35.89-.35h2.28v-2.57c0-.91.21-1.72.64-2.42.43-.71.99-1.29,1.68-1.76s1.48-.82,2.38-1.06c.9-.23,1.83-.35,2.8-.35,1.13,0,2.24.17,3.33.5,1.09.33,2.04.84,2.84,1.53v6.88c0,.94-.19,1.75-.56,2.44-.37.69-.86,1.26-1.47,1.7-.61.44-1.31.77-2.11,1-.8.22-1.63.33-2.49.33-1.11,0-2.12-.15-3.05-.44-.92-.29-1.83-.7-2.71-1.22h-3.56ZM344.33,109.73c.36.22.75.38,1.16.48s.83.14,1.24.14c.58,0,1.08-.1,1.51-.29.43-.19.64-.47.64-.83v-3.77c-.25-.11-.55-.2-.91-.27-.36-.07-.73-.1-1.12-.1-.66,0-1.25.13-1.76.39-.51.26-.77.68-.77,1.26v2.98Z"/>
    <path class="st5" d="M361.86,92.54c.22,0,.43.07.62.21s.32.35.37.62l2.07,17.61h-3.65c-.61,0-.94-.28-.99-.83l-2.07-17.61h3.65ZM363.43,120.79c-.14-.11-.31-.2-.52-.27-.21-.07-.41-.1-.6-.1-.22,0-.41.05-.56.17-.15.11-.23.29-.23.54,0,.19.1.38.29.56.19.18.48.27.87.27h1.58v1.66h-5.14v-1.66h.99c-.39-.3-.58-.69-.58-1.16,0-.58.25-1.04.75-1.37s1.08-.5,1.74-.5c.39,0,.78.07,1.18.21.4.14.74.32,1.01.54l-.79,1.12ZM359.54,116.44c.03-.17.1-.42.21-.77.11-.35.22-.7.33-1.08.11-.37.22-.73.33-1.08.11-.35.19-.6.25-.77.44.14,1.03.28,1.76.41.73.14,1.48.21,2.26.21.47,0,.92-.04,1.37-.1.44-.07.83-.19,1.16-.37.33-.18.6-.41.81-.7s.31-.66.31-1.1v-19.8c0-.22.08-.41.25-.58.17-.17.36-.25.58-.25h2.9c.22,0,.41.08.58.25s.25.36.25.58v19.8c0,1.22-.2,2.24-.6,3.07-.4.83-.94,1.5-1.62,2.01-.68.51-1.46.88-2.34,1.1-.88.22-1.81.33-2.78.33s-2.01-.1-3.04-.29c-1.04-.19-2.02-.48-2.96-.87Z"/>
    <path class="st5" d="M381.16,90.46c.22,0,.42.08.58.25.17.17.25.36.25.58v21.13c0,.22-.08.41-.25.58-.17.17-.36.25-.58.25h-2.9c-.22,0-.42-.08-.58-.25-.17-.17-.25-.36-.25-.58v-21.13c0-.22.08-.41.25-.58.17-.17.36-.25.58-.25h2.9Z"/>
    <path class="st5" d="M408.3,113.25h-12.64c-1.49,0-2.56-.28-3.19-.85-.64-.57-.95-1.29-.95-2.17,0-.66.17-1.41.5-2.24l2.28-5.76c.3-.77.79-1.41,1.47-1.91.68-.5,1.47-.75,2.38-.75h7.04c.22,0,.41.08.58.25.17.17.25.36.25.58v8.29h2.28v4.56ZM396.53,96.14c-.44-.36-.66-.8-.66-1.33s.22-.97.66-1.33c.44-.36.98-.54,1.62-.54s1.17.18,1.62.54c.44.36.66.8.66,1.33s-.22.97-.66,1.33c-.44.36-.98.54-1.62.54s-1.17-.18-1.62-.54ZM401.46,108.69v-4.56h-3.07l-1.78,4.56h4.85ZM401.92,96.14c-.44-.36-.66-.8-.66-1.33s.22-.97.66-1.33c.44-.36.98-.54,1.62-.54s1.17.18,1.62.54c.44.36.66.8.66,1.33s-.22.97-.66,1.33c-.44.36-.98.54-1.62.54s-1.17-.18-1.62-.54Z"/>
    <path class="st5" d="M407.1,109.94c0-.36.12-.66.35-.89.24-.23.53-.35.89-.35h3.94v-8.29c0-.22.08-.41.25-.58s.36-.25.58-.25h2.9c.22,0,.41.08.58.25.17.17.25.36.25.58v9.53c0,.91-.33,1.69-.97,2.34s-1.43.97-2.34.97h-5.18c-.36,0-.66-.12-.89-.35s-.35-.53-.35-.89v-2.07ZM408.17,118.93c-.44-.36-.66-.8-.66-1.33s.22-.97.66-1.33c.44-.36.98-.54,1.62-.54s1.17.18,1.62.54c.44.36.66.8.66,1.33s-.22.97-.66,1.33c-.44.36-.98.54-1.62.54s-1.17-.18-1.62-.54ZM413.56,118.93c-.44-.36-.66-.8-.66-1.33s.22-.97.66-1.33c.44-.36.98-.54,1.62-.54s1.17.18,1.62.54c.44.36.66.8.66,1.33s-.22.97-.66,1.33c-.44.36-.98.54-1.62.54s-1.17-.18-1.62-.54Z"/>
    <path class="st5" d="M425.49,113.25c-1.16,0-2.14-.4-2.94-1.2-.8-.8-1.2-1.78-1.2-2.94v-2.49c0-1.21.2-2.26.6-3.15.4-.88.93-1.62,1.6-2.2.66-.58,1.43-1.01,2.3-1.28s1.79-.42,2.75-.42c1.08,0,2.17.17,3.29.52,1.12.35,2.16.86,3.13,1.55v7.04h2.28v4.56h-2.28c0,1.24-.17,2.32-.5,3.23-.33.91-.79,1.66-1.37,2.26s-1.26,1.03-2.05,1.3-1.64.42-2.55.42c-.97,0-2.01-.15-3.13-.44-1.12-.29-2.2-.71-3.25-1.26l1.2-3.4c.58.22,1.22.43,1.93.62.7.19,1.39.29,2.05.29.86,0,1.59-.21,2.2-.64s.91-1.22.91-2.38h-4.97ZM430.46,108.69v-4.23c-.72-.22-1.37-.33-1.95-.33-.72,0-1.33.21-1.84.62-.51.42-.77,1.04-.77,1.86v2.07h4.56Z"/>
    <path class="st5" d="M436.1,109.94c0-.36.12-.66.35-.89.24-.23.53-.35.89-.35h2.98c-.47-.83-.7-1.78-.7-2.86,0-.77.15-1.54.46-2.3s.75-1.43,1.33-2.01,1.28-1.05,2.11-1.41c.83-.36,1.78-.54,2.86-.54h1.95l-.62-2.49c.8-.28,1.6-.48,2.4-.6.8-.12,1.57-.19,2.32-.19,1.05,0,2.03.15,2.94.43.91.29,1.71.73,2.38,1.33.68.59,1.21,1.36,1.59,2.3.39.94.58,2.06.58,3.36v4.97h2.28v4.56h-24.86c-.36,0-.66-.12-.89-.35s-.35-.53-.35-.89v-2.07ZM447.9,108.69v-4.56h-1.41c-.66,0-1.22.22-1.66.66-.44.44-.66.98-.66,1.62s.22,1.17.66,1.62c.44.44.99.66,1.66.66h1.41ZM455.36,103.72c0-1.16-.37-1.94-1.12-2.34s-1.68-.61-2.82-.64c.28.3.5.64.66.99.17.36.25.75.25,1.16v5.8h3.02v-4.97Z"/>
    <path class="st5" d="M464.48,108.69v-17.4c0-.22.08-.41.25-.58.17-.17.36-.25.58-.25h2.9c.22,0,.41.08.58.25.17.17.25.36.25.58v18.64c0,.91-.33,1.69-.97,2.34s-1.43.97-2.34.97h-3.52c-.36,0-.66-.12-.89-.35s-.35-.53-.35-.89v-2.07c0-.36.12-.66.35-.89.24-.23.53-.35.89-.35h2.28Z"/>
    <path class="st5" d="M477.28,90.46c.22,0,.42.08.58.25.17.17.25.36.25.58v21.13c0,.22-.08.41-.25.58-.17.17-.36.25-.58.25h-2.9c-.22,0-.42-.08-.58-.25-.17-.17-.25-.36-.25-.58v-21.13c0-.22.08-.41.25-.58.17-.17.36-.25.58-.25h2.9Z"/>
    <path class="st5" d="M487.63,105.79c0-1.05.22-1.97.66-2.75.44-.79,1.02-1.44,1.74-1.95.72-.51,1.55-.89,2.49-1.14.94-.25,1.89-.37,2.86-.37,1.05,0,2.09.16,3.13.48,1.04.32,1.97.79,2.8,1.43v7.21h2.28v4.56h-11.39v4.97h-4.56v-12.43ZM496.75,108.69v-4.18c-.36-.11-.7-.2-1.01-.27-.32-.07-.6-.1-.85-.1-.75,0-1.38.17-1.91.5-.53.33-.79.79-.79,1.37v2.69h4.56Z"/>
    <path class="st5" d="M502.38,109.94c0-.36.12-.66.35-.89.24-.23.53-.35.89-.35h2.98c-.47-.91-.7-1.89-.7-2.94,0-.8.15-1.57.46-2.32.3-.75.75-1.4,1.33-1.97s1.28-1.02,2.11-1.37c.83-.35,1.77-.52,2.82-.52h4.06c.91,0,1.69.33,2.34.97.65.65.97,1.43.97,2.34v9.53c0,.22-.08.41-.25.58-.17.17-.36.25-.58.25h-15.54c-.36,0-.66-.12-.89-.35s-.35-.53-.35-.89v-2.07ZM508.64,96.14c-.44-.36-.66-.8-.66-1.33s.22-.97.66-1.33c.44-.36.98-.54,1.62-.54s1.17.18,1.62.54c.44.36.66.8.66,1.33s-.22.97-.66,1.33c-.44.36-.98.54-1.62.54s-1.17-.18-1.62-.54ZM512.86,104.14c-.66,0-1.23.22-1.7.66s-.7.98-.7,1.62.22,1.14.66,1.6c.44.46,1.02.68,1.74.68h2.57v-4.56h-2.57ZM514.02,96.14c-.44-.36-.66-.8-.66-1.33s.22-.97.66-1.33c.44-.36.98-.54,1.62-.54s1.17.18,1.62.54c.44.36.66.8.66,1.33s-.22.97-.66,1.33c-.44.36-.98.54-1.62.54s-1.17-.18-1.62-.54Z"/>
    <path class="st5" d="M524.55,100.41c0-.22.08-.41.25-.58.17-.17.36-.25.58-.25h2.9c.22,0,.41.08.58.25s.25.36.25.58v12.84c0,1.24-.17,2.32-.5,3.23-.33.91-.79,1.66-1.37,2.26s-1.26,1.03-2.05,1.3-1.64.42-2.55.42c-.97,0-1.97-.15-3.02-.44s-2.1-.71-3.15-1.26l1.2-3.44c.55.22,1.18.44,1.88.64s1.37.31,2.01.31c.8,0,1.5-.21,2.09-.64s.89-1.22.89-2.38v-12.84Z"/>
    <path class="st5" d="M555.58,108.69h2.28v4.56h-2.28v2.9c0,.91-.33,1.69-.97,2.34s-1.43.97-2.34.97h-6.21c-1.02,0-1.99-.19-2.9-.58-.91-.39-1.71-.92-2.38-1.6s-1.21-1.47-1.59-2.38-.58-1.88-.58-2.9v-5.39c0-.22.08-.41.25-.58s.36-.25.58-.25h2.9c.22,0,.42.08.58.25s.25.36.25.58v5.39c0,.8.28,1.48.85,2.05s1.25.85,2.05.85h4.97v-23.61c0-.22.08-.41.25-.58.17-.17.36-.25.58-.25h2.9c.22,0,.41.08.58.25s.25.36.25.58v17.4Z"/>
    <path class="st5" d="M556.65,109.94c0-.36.12-.66.35-.89.24-.23.53-.35.89-.35h9.61c-.25-.58-.5-1.21-.75-1.91-.25-.69-.54-1.34-.87-1.95-.33-.61-.72-1.12-1.18-1.53-.46-.42-1.01-.62-1.68-.62-.47,0-.93.08-1.37.25-.44.17-.87.4-1.28.7l-1.24-3.23c.75-.61,1.57-1.1,2.49-1.49.91-.39,1.81-.58,2.69-.58,1.27,0,2.29.36,3.07,1.08.77.72,1.44,1.6,1.99,2.65.55,1.05,1.06,2.17,1.51,3.38.46,1.2.99,2.29,1.59,3.25h1.99v4.56h-16.57c-.36,0-.66-.12-.89-.35s-.35-.53-.35-.89v-2.07ZM562.7,95.73c-.44-.36-.66-.8-.66-1.33s.22-.97.66-1.33c.44-.36.98-.54,1.62-.54s1.17.18,1.62.54c.44.36.66.8.66,1.33s-.22.97-.66,1.33c-.44.36-.98.54-1.62.54s-1.17-.18-1.62-.54Z"/>
    <path class="st5" d="M578.57,98.75c1.66-.55,3.23-.83,4.72-.83,1.05,0,2.03.14,2.94.43.91.29,1.71.74,2.38,1.35s1.21,1.38,1.59,2.32c.39.94.58,2.06.58,3.36v7.04c0,.22-.08.41-.25.58s-.36.25-.58.25h-12.22v-4.56h8.49v-3.31c0-1.1-.37-1.88-1.12-2.32-.75-.44-1.62-.66-2.61-.66-.47,0-.96.04-1.47.1-.51.07-1,.17-1.47.31l-1-4.06Z"/>
    <path class="st5" d="M599.37,86.07c-.14-.11-.31-.2-.52-.27-.21-.07-.41-.1-.6-.1-.22,0-.41.06-.56.17-.15.11-.23.3-.23.58,0,.22.1.43.29.62.19.19.48.29.87.29h1.57v1.86h-5.14v-1.86h.99c-.39-.33-.58-.76-.58-1.28,0-.64.25-1.13.75-1.49.5-.36,1.08-.54,1.74-.54.39,0,.78.08,1.18.23.4.15.74.34,1.01.56l-.79,1.24ZM599.08,90.46c.22,0,.42.08.58.25.17.17.25.36.25.58v21.13c0,.22-.08.41-.25.58-.17.17-.36.25-.58.25h-2.9c-.22,0-.42-.08-.58-.25-.17-.17-.25-.36-.25-.58v-21.13c0-.22.08-.41.25-.58.17-.17.36-.25.58-.25h2.9Z"/>
  </g>
</svg>