<?xml version="1.0" encoding="UTF-8"?>
<svg id="Layer_1" xmlns="http://www.w3.org/2000/svg" version="1.1" viewBox="0 0 384.78 300.41">
  <!-- Generator: Adobe Illustrator 29.7.1, SVG Export Plug-In . SVG Version: 2.1.1 Build 8)  -->
  <defs>
    <style>
      .st0 {
        fill: #fff;
      }

      .st1 {
        fill: #050505;
        font-family: AbdoMaster-DemiBold, AbdoMaster-DemiBold;
        font-size: 45.96px;
        font-weight: 300;
      }
    </style>
  </defs>
  <g>
    <path d="M308.6,31.15c-30.68-10.39-72.93-16.35-115.92-16.35-70.41,0-126.73,15.12-154.49,41.48-12.94,12.28-19.58,26.81-19.81,43.26,0,.18,0,.37,0,.55,0,.18,0,.37,0,.55,0,.18,0,.37,0,.55,0,.18,0,.37,0,.55,0,.18,0,.37,0,.55,0,.18,0,.37,0,.55,0,.18,0,.37,0,.55,0,.18,0,.37,0,.55,0,.18,0,.37,0,.55,0,.18,0,.37,0,.55,0,.18,0,.37,0,.55,0,.18,0,.37,0,.55,0,.18,0,.37,0,.55,0,.18,0,.37,0,.55,0,.18,0,.37,0,.55,0,.18,0,.37,0,.55,0,.18,0,.37,0,.55,0,.18,0,.37,0,.55,0,.18,0,.37,0,.55,0,.18,0,.37,0,.55-.05,2.34.02,4.72.23,7.13,5.7,66.46,77.97,76.38,120.55,76.38,9.88,0,18.5-.51,25.05-1.08l-7.39,12.63c-.26.45-.31.94-.27,1.44-.03.19-.02.36,0,.55-.03.19-.02.36,0,.55-.03.19-.02.36,0,.55-.03.19-.02.36,0,.55-.03.19-.02.36,0,.55-.03.19-.02.36,0,.55-.03.19-.02.36,0,.55-.03.19-.02.36,0,.55-.03.19-.02.36,0,.55-.03.19-.02.36,0,.55-.03.19-.02.36,0,.55-.03.19-.02.36,0,.55-.03.19-.02.36,0,.55-.03.19-.02.36,0,.55-.03.19-.02.36,0,.55-.03.19-.02.36,0,.55-.03.19-.02.36,0,.55-.03.19-.02.36,0,.55-.03.19-.02.36,0,.55-.03.19-.02.36,0,.55-.07.46-.04.92.17,1.35.34.73,1.04,1.28,1.89,1.51l35.57,9.69-21.31,54.84c-.15.38-.16.77-.11,1.16-.02.19-.02.37,0,.55-.02.19-.02.37,0,.55-.02.19-.02.37,0,.55-.02.19-.02.37,0,.55-.02.19-.02.37,0,.55-.02.19-.02.37,0,.55-.02.19-.02.37,0,.55-.02.19-.02.37,0,.55-.02.19-.02.37,0,.55-.02.19-.02.37,0,.55-.02.19-.02.37,0,.55-.02.19-.02.37,0,.55-.02.19-.02.37,0,.55-.02.19-.02.37,0,.55-.02.19-.02.37,0,.55-.02.19-.02.37,0,.55-.02.19-.02.37,0,.55-.02.19-.02.37,0,.55-.02.19-.02.37,0,.55-.02.19-.02.37,0,.55-.11,1.02.42,2.03,1.47,2.56.47.23.98.34,1.49.34.86,0,1.71-.33,2.3-.94l78.06-81.23c.61-.63.85-1.48.64-2.3,0,0,0,0,0-.01,0-.18.05-.36,0-.54,0,0,0,0,0,0,0-.19.05-.36,0-.54,0,0,0,0,0-.01,0-.18.05-.36,0-.54,0,0,0,0,0,0,0-.18.05-.36,0-.54,0,0,0,0,0,0,0-.18.05-.36,0-.54,0,0,0,0,0,0,0-.18.05-.36,0-.54,0,0,0,0,0,0,0-.18.05-.36,0-.54,0,0,0,0,0-.01,0-.18.05-.36,0-.54,0,0,0,0,0,0,0-.18.05-.36,0-.54,0,0,0,0,0,0,0-.18.05-.36,0-.54,0,0,0,0,0,0,0-.18.05-.36,0-.54,0,0,0,0,0,0,0-.18.05-.36,0-.54,0,0,0,0,0,0,0-.19.05-.36,0-.54,0,0,0,0,0,0,0-.19.05-.36,0-.54,0,0,0,0,0-.01,0-.18.05-.36,0-.54,0,0,0,0,0,0,0-.18.05-.36,0-.54,0,0,0,0,0,0,0-.18.05-.36,0-.54,0,0,0,0,0,0,0-.18.05-.36,0-.54,0,0,0,0,0,0,0-.18.05-.36,0-.54,0,0,0,0,0,0,0-.18.05-.36,0-.54,0,0,0,0,0,0,0-.18.05-.36,0-.54-.21-.81-.83-1.49-1.69-1.84l-20-8,3.89-3.22c79.97-9.46,130.7-37.47,135.76-75.02.27-1.99.39-3.97.4-5.95,0-.18,0-.37,0-.55,0-.18,0-.37,0-.55,0-.18,0-.37,0-.55,0-.18,0-.36,0-.55,0-.18,0-.37,0-.55,0-.18,0-.37,0-.55,0-.18,0-.37,0-.55,0-.18,0-.37,0-.55,0-.18,0-.37,0-.55,0-.18,0-.37,0-.55,0-.18,0-.37,0-.55,0-.18,0-.37,0-.55,0-.18,0-.37,0-.55,0-.18,0-.37,0-.55,0-.18,0-.36,0-.55,0-.18,0-.37,0-.55,0-.18,0-.37,0-.55,0-.18,0-.36,0-.55,0-.18,0-.37,0-.55,0-.18,0-.37,0-.55.41-27.87-24.99-54.25-66.48-68.3Z"/>
    <path class="st0" d="M306.43,36.11c-30.02-10.17-71.48-15.99-113.75-15.99-67.73,0-123.83,14.87-150.07,39.79-13.45,12.77-19.5,28.19-17.99,45.83,5.06,59.07,65.08,71.47,114.53,71.47,21.1,0,36.89-2.45,37.05-2.47,1.12-.18,2.28.23,2.96,1.04.68.81.78,1.9.25,2.79l-15.59,26.64,39.14,10.67c.78.21,1.43.69,1.8,1.33.37.64.43,1.39.16,2.06l-21.18,54.51,65.15-67.79-29.83-11.94c-.92-.37-1.56-1.11-1.73-1.98-.16-.87.18-1.76.91-2.37l17.24-14.28c.46-.38,1.05-.63,1.67-.7,77.62-9,126.79-35.35,131.52-70.49,3.68-27.33-20.75-54.06-62.26-68.12Z"/>
    <path d="M308.6,31.15c-30.68-10.39-72.93-16.35-115.92-16.35-70.41,0-126.73,15.12-154.49,41.48-14.64,13.9-21.23,30.67-19.58,49.85,5.7,66.46,77.97,76.38,120.55,76.38,14.05,0,25.62-1.03,32.2-1.78l-14.54,24.85c-.41.7-.44,1.52-.1,2.24.34.73,1.04,1.28,1.89,1.51l39.61,10.8-25.35,65.25c-.47,1.21.11,2.54,1.37,3.17.47.23.98.34,1.49.34.86,0,1.71-.33,2.3-.94l78.06-81.23c.61-.63.85-1.48.64-2.3-.21-.81-.83-1.49-1.69-1.84l-29.36-11.75,13.25-10.98c79.97-9.46,130.7-37.47,135.76-75.02,4.02-29.82-21.92-58.75-66.08-73.7ZM368.69,104.23c-4.73,35.13-53.9,61.48-131.52,70.49-.63.07-1.21.32-1.67.7l-17.24,14.28c-.73.61-1.07,1.5-.91,2.37.17.87.81,1.62,1.73,1.98l29.83,11.94-65.15,67.79,21.18-54.51c.26-.68.2-1.42-.16-2.06-.37-.64-1.02-1.12-1.8-1.33l-39.14-10.67,15.59-26.64c.53-.9.43-1.98-.25-2.79-.68-.81-1.84-1.22-2.96-1.04-.16.03-15.95,2.47-37.05,2.47-49.46,0-109.47-12.4-114.53-71.47-1.51-17.64,4.54-33.06,17.99-45.83,26.24-24.91,82.34-39.79,150.07-39.79,42.27,0,83.73,5.83,113.75,15.99,41.5,14.05,65.94,40.79,62.26,68.12Z"/>
  </g>
  <text class="st1" transform="translate(50.67 116.8) scale(1.02 1)"><tspan x="0" y="0">Fill in the Info!</tspan></text>
</svg>