<?xml version="1.0" encoding="UTF-8"?>
<svg id="Layer_1" xmlns="http://www.w3.org/2000/svg" version="1.1" viewBox="0 0 826.67 188.89">
  <!-- Generator: Adobe Illustrator 29.7.1, SVG Export Plug-In . SVG Version: 2.1.1 Build 8)  -->
  <defs>
    <style>
      .st0 {
        stroke: #020202;
        stroke-miterlimit: 10;
        stroke-width: 30.09px;
      }

      .st0, .st1 {
        fill: #d92726;
      }
    </style>
  </defs>
  <g>
    <path class="st0" d="M222.39,146.5c-4.78,0-9.27-1-13.48-3s-7.81-4.97-10.8-8.9c-2.99-3.93-5.18-8.76-6.57-14.48-1.39-5.72-1.69-12.31-.91-19.75.29-2.74.7-5.37,1.23-7.9.53-2.53,1.19-5.06,1.98-7.59l16.15,3.37c-.6,1.97-1.07,3.93-1.41,5.9-.34,1.97-.61,3.86-.8,5.69-.58,5.48-.4,10.08.55,13.8.95,3.72,2.75,6.53,5.4,8.43,2.65,1.9,6.07,2.84,10.26,2.84s8.02-.93,11.3-2.79c3.27-1.86,5.95-4.67,8.01-8.43,2.07-3.76,3.39-8.41,3.98-13.96l7.26-68.58h16.99l-7.26,68.58c-.8,7.59-2.51,14.28-5.12,20.07-2.61,5.79-5.86,10.68-9.75,14.65-3.89,3.97-8.15,6.97-12.79,9.01-4.64,2.04-9.38,3.06-14.22,3.06ZM271.01,124.27c-5.57,0-10.17-1.19-13.82-3.58-3.64-2.39-6.27-5.85-7.89-10.38-1.62-4.53-2.09-9.92-1.43-16.17h16.99c-.25,2.32-.17,4.11.22,5.37.39,1.26,1.21,2.16,2.47,2.69,1.25.53,3.16.79,5.71.79h3.34l-2.25,21.28h-3.34ZM274.25,124.27l2.25-21.28c.52,0,.88.97,1.07,2.9.19,1.93.12,4.48-.22,7.64-.34,3.23-.81,5.83-1.41,7.8-.6,1.97-1.17,2.95-1.69,2.95Z"/>
    <path class="st0" d="M274.25,124.27c-.59,0-.96-.98-1.11-2.95-.15-1.96-.06-4.56.29-7.8.33-3.16.79-5.71,1.35-7.64.57-1.93,1.14-2.9,1.73-2.9l-2.25,21.28ZM274.25,124.27l2.25-21.28h5.6c2.49,0,4.41-.26,5.78-.79,1.37-.53,2.38-1.42,3.04-2.69.66-1.26,1.11-3.05,1.35-5.37l2.67-25.18h17.09l-2.67,25.18c-.66,6.25-2.3,11.62-4.9,16.12-2.6,4.5-5.98,7.94-10.13,10.32-4.15,2.39-8.98,3.62-14.49,3.69h-5.6ZM285.22,149.66c-2.16,0-3.87-.76-5.11-2.27-1.25-1.51-1.75-3.42-1.5-5.74.25-2.32,1.15-4.23,2.72-5.74,1.57-1.51,3.43-2.26,5.59-2.26s3.88.75,5.16,2.26c1.28,1.51,1.8,3.43,1.55,5.74-.25,2.32-1.17,4.23-2.77,5.74-1.6,1.51-3.48,2.27-5.64,2.27ZM315.41,124.27c-5.5,0-10.09-1.19-13.77-3.58-3.68-2.39-6.32-5.85-7.94-10.38-1.62-4.53-2.09-9.92-1.43-16.17h17.09c-.25,2.32-.19,4.11.17,5.37s1.18,2.16,2.47,2.69c1.29.53,3.17.79,5.66.79h3.34l-2.25,21.28h-3.34ZM302.31,149.66c-2.16,0-3.87-.76-5.11-2.27-1.25-1.51-1.75-3.42-1.5-5.74.25-2.32,1.15-4.23,2.72-5.74,1.57-1.51,3.43-2.26,5.59-2.26s3.86.75,5.11,2.26c1.25,1.51,1.75,3.43,1.5,5.74-.25,2.32-1.15,4.23-2.72,5.74-1.57,1.51-3.43,2.27-5.59,2.27ZM318.75,124.27l2.25-21.28c.59,0,.96.97,1.12,2.9.15,1.93.07,4.48-.27,7.64-.34,3.23-.8,5.83-1.37,7.8-.57,1.97-1.15,2.95-1.74,2.95Z"/>
    <path class="st0" d="M318.75,124.27c-.59,0-.96-.98-1.11-2.95-.15-1.96-.06-4.56.29-7.8.33-3.16.79-5.71,1.35-7.64.57-1.93,1.14-2.9,1.73-2.9l-2.25,21.28ZM318.75,124.27l2.25-21.28h64.05l-5.89,21.28h-60.42ZM363.77,110.15l1.51-14.22c.24-2.25-.21-4.25-1.33-6.01-1.12-1.75-2.88-3.14-5.26-4.16-2.38-1.02-5.41-1.53-9.07-1.53-2.55,0-5.21.32-7.96.95-2.75.63-5.15,1.37-7.21,2.21l-5.59-17.7c3.64-2.25,7.42-3.93,11.34-5.06,3.92-1.12,7.84-1.69,11.77-1.69,4.45,0,8.62.72,12.49,2.16,3.88,1.44,7.27,3.57,10.18,6.37,2.91,2.81,5.07,6.25,6.47,10.32,1.4,4.07,1.82,8.78,1.26,14.12l-1.51,14.22h-17.09ZM346.03,156.09c-2.75,0-4.91-.95-6.48-2.84-1.57-1.9-2.2-4.32-1.88-7.27.31-2.95,1.45-5.37,3.42-7.27s4.33-2.85,7.08-2.85,4.99.95,6.53,2.85c1.53,1.9,2.15,4.32,1.83,7.27-.31,2.95-1.44,5.37-3.37,7.27-1.94,1.9-4.31,2.84-7.13,2.84ZM377.01,124.27l2.25-21.28h13.75l-2.25,21.28h-13.75ZM390.76,124.27l2.25-21.28c.59,0,.96.97,1.12,2.9.15,1.93.07,4.48-.27,7.64-.34,3.23-.8,5.83-1.37,7.8-.57,1.97-1.15,2.95-1.74,2.95Z"/>
    <path class="st0" d="M390.76,124.27c-.59,0-.96-.98-1.11-2.95-.15-1.96-.06-4.56.29-7.8.33-3.16.79-5.71,1.35-7.64.57-1.93,1.14-2.9,1.73-2.9l-2.25,21.28ZM390.76,124.27l2.25-21.28h5.5c2.55,0,4.51-.26,5.88-.79,1.37-.53,2.38-1.42,3.04-2.69.66-1.26,1.11-3.05,1.35-5.37l1.57-14.86h16.99l-1.57,14.86c-.66,6.25-2.28,11.64-4.86,16.17-2.58,4.53-5.94,7.99-10.09,10.38-4.15,2.39-9.01,3.58-14.57,3.58h-5.5ZM433.89,124.27c-3.47,0-6.71-.86-9.7-2.58s-5.36-4.41-7.1-8.06c-1.74-3.65-2.41-8.29-2.02-13.91l10.04-4.85c-.18,2.88.51,5.07,2.05,6.58,1.54,1.51,3.3,2.27,5.26,2.27,2.1,0,4.06-.79,5.9-2.37,1.84-1.58,2.93-3.98,3.27-7.22l2.12-20.02h17.09l-2.52,23.81c-.64,6.04-2.21,11.01-4.72,14.91-2.51,3.9-5.5,6.78-8.97,8.64-3.47,1.86-7.04,2.79-10.71,2.79ZM466.5,124.27c-3.47,0-6.71-.86-9.7-2.58-3-1.72-5.35-4.41-7.05-8.06-1.71-3.65-2.37-8.29-1.97-13.91l10.04-4.85c-.24,2.88.41,5.07,1.96,6.58,1.54,1.51,3.3,2.27,5.26,2.27,2.09,0,4.06-.79,5.9-2.37s2.93-3.98,3.27-7.22l2.66-25.18h17.09l-3.07,28.97c-.64,6.04-2.21,11.01-4.72,14.91-2.51,3.9-5.5,6.78-8.97,8.64-3.47,1.86-7.04,2.79-10.71,2.79ZM497.35,124.27c-5.5,0-10.09-1.19-13.77-3.58-3.68-2.39-6.32-5.85-7.94-10.38-1.62-4.53-2.09-9.92-1.43-16.17h17.09c-.24,2.32-.17,4.11.22,5.37.39,1.26,1.21,2.16,2.46,2.69,1.25.53,3.12.79,5.62.79h3.44l-2.25,21.28h-3.44ZM500.79,124.27l2.25-21.28c.59,0,.96.97,1.12,2.9.15,1.93.06,4.48-.27,7.64-.34,3.23-.8,5.83-1.37,7.8-.57,1.97-1.15,2.95-1.74,2.95Z"/>
    <path class="st0" d="M500.78,124.27c-.59,0-.96-.98-1.11-2.95-.15-1.96-.06-4.56.29-7.8.33-3.16.79-5.71,1.35-7.64.57-1.93,1.14-2.9,1.73-2.9l-2.25,21.28ZM500.78,124.27l2.25-21.28h5.6c2.49,0,4.41-.26,5.78-.79,1.37-.53,2.38-1.42,3.04-2.69.66-1.26,1.11-3.05,1.35-5.37l2.67-25.18h17.09l-2.66,25.18c-.66,6.25-2.3,11.62-4.9,16.12-2.61,4.5-5.98,7.94-10.13,10.32-4.15,2.39-8.98,3.62-14.49,3.69h-5.6ZM521.3,59.48c-2.16,0-3.87-.74-5.12-2.21-1.25-1.47-1.76-3.37-1.51-5.69.25-2.39,1.16-4.34,2.73-5.85,1.57-1.51,3.43-2.27,5.59-2.27s3.96.76,5.21,2.27c1.25,1.51,1.75,3.46,1.49,5.85-.25,2.32-1.15,4.21-2.71,5.69-1.56,1.48-3.46,2.21-5.69,2.21ZM541.95,124.27c-5.5,0-10.09-1.19-13.77-3.58-3.68-2.39-6.32-5.85-7.94-10.38-1.62-4.53-2.09-9.92-1.43-16.17h17.09c-.25,2.32-.19,4.11.17,5.37.36,1.26,1.18,2.16,2.46,2.69,1.29.53,3.17.79,5.66.79h3.34l-2.25,21.28h-3.34ZM538.39,59.48c-2.16,0-3.87-.74-5.12-2.21-1.25-1.47-1.75-3.37-1.51-5.69.25-2.39,1.16-4.34,2.73-5.85,1.57-1.51,3.43-2.27,5.59-2.27s3.95.76,5.16,2.27c1.21,1.51,1.7,3.46,1.44,5.85-.24,2.32-1.13,4.21-2.66,5.69-1.53,1.48-3.41,2.21-5.64,2.21ZM545.29,124.27l2.25-21.28c.59,0,.96.97,1.12,2.9.15,1.93.06,4.48-.27,7.64-.34,3.23-.8,5.83-1.37,7.8-.57,1.97-1.15,2.95-1.74,2.95Z"/>
    <path class="st0" d="M545.29,124.27c-.59,0-.96-.98-1.11-2.95-.15-1.96-.06-4.56.29-7.8.33-3.16.79-5.71,1.35-7.64s1.14-2.9,1.73-2.9l-2.25,21.28ZM545.29,124.27l2.25-21.28h14.44l7.6-71.85h17l-9.86,93.13h-31.44Z"/>
    <path class="st0" d="M588.9,124.27l9.86-93.13h17.09l-9.86,93.13h-17.09Z"/>
  </g>
  <g>
    <path class="st1" d="M222.39,153.72c-4.78,0-9.27-1-13.48-3-4.21-2-7.81-4.97-10.8-8.9-2.99-3.93-5.18-8.76-6.57-14.49-1.39-5.72-1.69-12.31-.9-19.75.29-2.74.7-5.37,1.23-7.9.53-2.53,1.19-5.06,1.98-7.59l16.15,3.37c-.6,1.97-1.07,3.93-1.41,5.9-.34,1.97-.6,3.86-.8,5.69-.58,5.48-.4,10.08.55,13.8.95,3.72,2.75,6.53,5.4,8.43s6.07,2.85,10.26,2.85,8.02-.93,11.3-2.79c3.27-1.86,5.95-4.67,8.01-8.43,2.07-3.76,3.4-8.41,3.98-13.96l7.26-68.58h16.99l-7.26,68.58c-.8,7.59-2.51,14.28-5.12,20.07-2.61,5.79-5.86,10.68-9.75,14.64-3.89,3.97-8.15,6.97-12.79,9.01s-9.38,3.05-14.22,3.05ZM271.01,131.49c-5.57,0-10.17-1.19-13.82-3.58-3.65-2.39-6.27-5.85-7.89-10.38-1.62-4.53-2.09-9.92-1.43-16.17h16.99c-.25,2.32-.17,4.11.22,5.37.39,1.26,1.21,2.16,2.47,2.69,1.25.53,3.16.79,5.71.79h3.34l-2.25,21.28h-3.34ZM274.25,131.49l2.25-21.28c.52,0,.88.97,1.07,2.9.19,1.93.11,4.48-.22,7.64-.34,3.23-.81,5.83-1.41,7.79-.6,1.97-1.17,2.95-1.69,2.95Z"/>
    <path class="st1" d="M274.25,131.49c-.59,0-.96-.98-1.11-2.95-.15-1.96-.06-4.56.29-7.79.33-3.16.79-5.71,1.35-7.64.57-1.93,1.14-2.9,1.73-2.9l-2.25,21.28ZM274.25,131.49l2.25-21.28h5.6c2.49,0,4.41-.26,5.78-.79,1.37-.53,2.38-1.42,3.04-2.69.66-1.26,1.11-3.05,1.35-5.37l2.67-25.18h17.09l-2.67,25.18c-.66,6.25-2.3,11.62-4.9,16.12-2.6,4.5-5.98,7.94-10.13,10.32-4.15,2.39-8.98,3.62-14.49,3.69h-5.6ZM285.22,156.88c-2.16,0-3.87-.76-5.11-2.27-1.25-1.51-1.75-3.42-1.5-5.74.25-2.32,1.15-4.23,2.72-5.74,1.57-1.51,3.43-2.26,5.59-2.26s3.88.75,5.16,2.26c1.28,1.51,1.8,3.42,1.55,5.74-.25,2.32-1.17,4.23-2.77,5.74-1.6,1.51-3.48,2.27-5.64,2.27ZM315.41,131.49c-5.5,0-10.09-1.19-13.77-3.58-3.68-2.39-6.32-5.85-7.94-10.38-1.62-4.53-2.09-9.92-1.43-16.17h17.09c-.25,2.32-.19,4.11.17,5.37s1.18,2.16,2.47,2.69c1.29.53,3.17.79,5.66.79h3.34l-2.25,21.28h-3.34ZM302.31,156.88c-2.16,0-3.87-.76-5.11-2.27-1.25-1.51-1.75-3.42-1.5-5.74.25-2.32,1.15-4.23,2.72-5.74,1.57-1.51,3.43-2.26,5.59-2.26s3.86.75,5.11,2.26c1.25,1.51,1.75,3.42,1.5,5.74-.25,2.32-1.15,4.23-2.72,5.74-1.57,1.51-3.43,2.27-5.59,2.27ZM318.75,131.49l2.25-21.28c.59,0,.96.97,1.12,2.9.15,1.93.07,4.48-.27,7.64-.34,3.23-.8,5.83-1.37,7.79-.57,1.97-1.15,2.95-1.74,2.95Z"/>
    <path class="st1" d="M318.75,131.49c-.59,0-.96-.98-1.11-2.95-.15-1.96-.06-4.56.29-7.79.33-3.16.79-5.71,1.35-7.64.57-1.93,1.14-2.9,1.73-2.9l-2.25,21.28ZM318.75,131.49l2.25-21.28h64.05l-5.89,21.28h-60.42ZM363.77,117.38l1.51-14.22c.24-2.25-.21-4.25-1.33-6.01-1.12-1.75-2.88-3.14-5.26-4.16-2.38-1.02-5.41-1.53-9.07-1.53-2.55,0-5.21.32-7.96.95-2.75.63-5.15,1.37-7.21,2.21l-5.59-17.7c3.64-2.25,7.42-3.93,11.34-5.06,3.92-1.12,7.84-1.69,11.77-1.69,4.45,0,8.62.72,12.49,2.16,3.88,1.44,7.27,3.57,10.18,6.38,2.91,2.81,5.07,6.25,6.47,10.32,1.4,4.07,1.82,8.78,1.26,14.12l-1.51,14.22h-17.09ZM346.03,163.31c-2.75,0-4.91-.95-6.48-2.84-1.57-1.9-2.2-4.32-1.88-7.27.31-2.95,1.45-5.37,3.42-7.27,1.97-1.9,4.33-2.85,7.08-2.85s4.99.95,6.53,2.85c1.53,1.9,2.15,4.32,1.83,7.27-.31,2.95-1.44,5.37-3.37,7.27-1.94,1.9-4.31,2.84-7.13,2.84ZM377.01,131.49l2.25-21.28h13.75l-2.25,21.28h-13.75ZM390.76,131.49l2.25-21.28c.59,0,.96.97,1.12,2.9.15,1.93.07,4.48-.27,7.64-.34,3.23-.8,5.83-1.37,7.79-.57,1.97-1.15,2.95-1.74,2.95Z"/>
    <path class="st1" d="M390.76,131.49c-.59,0-.96-.98-1.11-2.95-.15-1.96-.06-4.56.29-7.79.33-3.16.79-5.71,1.35-7.64.57-1.93,1.14-2.9,1.73-2.9l-2.25,21.28ZM390.76,131.49l2.25-21.28h5.5c2.55,0,4.51-.26,5.88-.79,1.37-.53,2.38-1.42,3.04-2.69.66-1.26,1.11-3.05,1.35-5.37l1.57-14.85h16.99l-1.57,14.85c-.66,6.25-2.28,11.64-4.86,16.17-2.58,4.53-5.94,7.99-10.09,10.38-4.15,2.39-9.01,3.58-14.58,3.58h-5.5ZM433.89,131.49c-3.47,0-6.71-.86-9.7-2.58-2.99-1.72-5.36-4.41-7.1-8.06-1.74-3.65-2.41-8.29-2.02-13.91l10.04-4.85c-.18,2.88.51,5.07,2.05,6.58s3.3,2.27,5.26,2.27c2.1,0,4.06-.79,5.9-2.37,1.84-1.58,2.93-3.98,3.27-7.22l2.12-20.02h17.09l-2.52,23.81c-.64,6.04-2.21,11.01-4.72,14.91-2.51,3.9-5.5,6.78-8.97,8.64-3.47,1.86-7.04,2.79-10.71,2.79ZM466.5,131.49c-3.47,0-6.71-.86-9.7-2.58-3-1.72-5.35-4.41-7.05-8.06-1.71-3.65-2.37-8.29-1.97-13.91l10.04-4.85c-.24,2.88.41,5.07,1.96,6.58,1.54,1.51,3.3,2.27,5.26,2.27,2.09,0,4.06-.79,5.9-2.37,1.84-1.58,2.93-3.98,3.27-7.22l2.66-25.18h17.09l-3.07,28.97c-.64,6.04-2.21,11.01-4.72,14.91-2.51,3.9-5.5,6.78-8.97,8.64-3.47,1.86-7.04,2.79-10.71,2.79ZM497.35,131.49c-5.5,0-10.09-1.19-13.77-3.58-3.68-2.39-6.32-5.85-7.94-10.38-1.62-4.53-2.09-9.92-1.43-16.17h17.09c-.24,2.32-.17,4.11.22,5.37.39,1.26,1.21,2.16,2.46,2.69,1.25.53,3.12.79,5.62.79h3.44l-2.25,21.28h-3.44ZM500.79,131.49l2.25-21.28c.59,0,.96.97,1.12,2.9.15,1.93.07,4.48-.27,7.64-.34,3.23-.8,5.83-1.37,7.79-.57,1.97-1.15,2.95-1.74,2.95Z"/>
    <path class="st1" d="M500.79,131.49c-.59,0-.96-.98-1.11-2.95-.15-1.96-.06-4.56.29-7.79.34-3.16.79-5.71,1.35-7.64s1.14-2.9,1.73-2.9l-2.25,21.28ZM500.79,131.49l2.25-21.28h5.6c2.49,0,4.41-.26,5.78-.79,1.37-.53,2.38-1.42,3.04-2.69s1.11-3.05,1.36-5.37l2.66-25.18h17.09l-2.67,25.18c-.66,6.25-2.29,11.62-4.9,16.12-2.6,4.5-5.98,7.94-10.13,10.32-4.15,2.39-8.98,3.62-14.49,3.69h-5.6ZM521.3,66.7c-2.16,0-3.87-.74-5.12-2.21-1.25-1.47-1.76-3.37-1.51-5.69.25-2.39,1.16-4.34,2.73-5.85,1.57-1.51,3.43-2.26,5.6-2.26s3.96.76,5.21,2.26c1.25,1.51,1.75,3.46,1.49,5.85-.24,2.32-1.15,4.21-2.71,5.69-1.56,1.48-3.46,2.21-5.69,2.21ZM541.95,131.49c-5.5,0-10.09-1.19-13.77-3.58-3.68-2.39-6.32-5.85-7.94-10.38-1.62-4.53-2.09-9.92-1.43-16.17h17.09c-.24,2.32-.19,4.11.17,5.37s1.18,2.16,2.47,2.69c1.29.53,3.17.79,5.66.79h3.34l-2.25,21.28h-3.34ZM538.39,66.7c-2.16,0-3.87-.74-5.12-2.21-1.25-1.47-1.76-3.37-1.51-5.69.25-2.39,1.16-4.34,2.73-5.85,1.57-1.51,3.43-2.26,5.59-2.26s3.95.76,5.16,2.26c1.22,1.51,1.7,3.46,1.45,5.85-.25,2.32-1.13,4.21-2.67,5.69-1.53,1.48-3.41,2.21-5.64,2.21ZM545.29,131.49l2.25-21.28c.59,0,.96.97,1.12,2.9.15,1.93.07,4.48-.27,7.64-.34,3.23-.8,5.83-1.37,7.79-.57,1.97-1.15,2.95-1.74,2.95Z"/>
    <path class="st1" d="M545.29,131.49c-.59,0-.96-.98-1.11-2.95-.15-1.96-.06-4.56.29-7.79.34-3.16.79-5.71,1.35-7.64s1.14-2.9,1.73-2.9l-2.25,21.28ZM545.29,131.49l2.25-21.28h14.44l7.61-71.85h16.99l-9.86,93.13h-31.44Z"/>
    <path class="st1" d="M588.9,131.49l9.86-93.13h17.09l-9.86,93.13h-17.09Z"/>
  </g>
</svg>