<?xml version="1.0" encoding="UTF-8"?>
<svg id="Layer_1" xmlns="http://www.w3.org/2000/svg" version="1.1" viewBox="0 0 580.52 207.79">
  <!-- Generator: Adobe Illustrator 29.7.1, SVG Export Plug-In . SVG Version: 2.1.1 Build 8)  -->
  <defs>
    <style>
      .st0 {
        fill: #020202;
      }

      .st1, .st2, .st3 {
        stroke: #020202;
        stroke-miterlimit: 10;
      }

      .st1, .st3 {
        fill: #f9ddd9;
      }

      .st2 {
        fill: none;
        stroke-width: 10.75px;
      }

      .st3 {
        stroke-width: 2px;
      }

      .st4 {
        fill: #d92726;
      }

      .st5 {
        fill: #f2e1de;
      }
    </style>
  </defs>
  <g>
    <path class="st4" d="M267.97,8.17H58.15c-13.13,0-23.78,10.42-23.78,23.27v105.98c0,12.85,10.64,23.27,23.78,23.27h489.92c13.13,0,23.78-10.42,23.78-23.27V31.44c0-12.85-10.64-23.27-23.78-23.27h-280.1Z"/>
    <path class="st2" d="M267.97,8.17H58.15c-13.13,0-23.78,10.42-23.78,23.27v105.98c0,12.85,10.64,23.27,23.78,23.27h489.92c13.13,0,23.78-10.42,23.78-23.27V31.44c0-12.85-10.64-23.27-23.78-23.27h-280.1Z"/>
    <g>
      <g>
        <path class="st5" d="M214.38,58.94v12.45c0,.37-.14.69-.42.97-.28.28-.61.41-.99.41h-3.53c-.38,0-.71-.14-.99-.41-.28-.28-.42-.6-.42-.97v-33.88c0-.37.14-.69.42-.97.28-.28.61-.41.99-.41h12.57c2.12,0,3.98.35,5.58,1.04,1.6.69,2.94,1.59,4.03,2.7,1.08,1.11,1.9,2.36,2.44,3.77.54,1.41.81,2.82.81,4.25,0,1.2-.19,2.39-.57,3.56-.38,1.17-.95,2.26-1.73,3.25-.78.99-1.77,1.84-2.97,2.56-1.2.71-2.6,1.23-4.2,1.56l11.3,14.18s-.07-.02-.07-.07l-.07-.14h-7.21c-.42,0-.82-.15-1.2-.45-.38-.3-.68-.61-.92-.93l-9.54-12.45h-3.32ZM226.99,51.06c1.01-.97,1.52-2.07,1.52-3.32,0-.65-.14-1.29-.42-1.94-.28-.65-.69-1.22-1.24-1.73-.54-.51-1.21-.92-2.01-1.24s-1.69-.49-2.68-.49h-7.77v10.16h7.77c2.21,0,3.83-.48,4.84-1.45"/>
        <path class="st5" d="M241.55,48.84c1.25-1.11,2.74-1.66,4.49-1.66h7.77c2.4,0,4.18.52,5.33,1.56,1.15,1.04,1.73,2.29,1.73,3.77,0,1.15-.32,2.34-.95,3.56-.64,1.22-1.57,2.4-2.79,3.53-1.23,1.13-2.73,2.18-4.52,3.15-1.79.97-3.84,1.78-6.15,2.42.47.69,1.1,1.19,1.87,1.49.78.3,1.66.45,2.65.45,1.46,0,2.97-.22,4.52-.66,1.56-.44,2.87-.91,3.96-1.42l1.41,4.98c-1.74.78-3.57,1.44-5.47,1.97-1.91.53-3.87.8-5.9.8-1.32,0-2.58-.17-3.78-.52-1.2-.35-2.25-.92-3.14-1.73-.9-.81-1.6-1.86-2.12-3.15-.52-1.29-.78-2.9-.78-4.84v-9.13c0-1.94.62-3.46,1.87-4.56M247.87,59.7c.75-.32,1.53-.76,2.33-1.31s1.59-1.25,2.37-2.07c.78-.83,1.43-1.8,1.94-2.91h-8.48v6.92c.47-.09,1.08-.3,1.84-.62"/>
        <path class="st5" d="M266.95,70.97c-1.22-1.2-1.84-2.67-1.84-4.43v-7.61c0-2.03.3-3.78.92-5.26.61-1.47,1.44-2.7,2.47-3.67,1.04-.97,2.24-1.68,3.6-2.14,1.37-.46,2.83-.69,4.38-.69,1.79,0,3.58.29,5.37.86,1.79.58,3.51,1.44,5.16,2.59v22.13c0,3.73-.94,6.51-2.82,8.33-1.89,1.82-4.45,2.73-7.7,2.73-1.51,0-3.05-.16-4.63-.49-1.58-.32-3.36-.81-5.33-1.45l2.12-5.53c1.04.41,2.17.79,3.39,1.11,1.22.32,2.38.48,3.46.48,1.46,0,2.68-.36,3.67-1.07.99-.71,1.48-2.09,1.48-4.11h-9.18c-1.79,0-3.3-.6-4.52-1.8M280.66,54.1c-1.23-.46-2.57-.69-4.03-.69-1.37,0-2.57.44-3.6,1.31-1.04.87-1.55,2.28-1.55,4.22v7.61h9.18v-12.45Z"/>
        <path class="st5" d="M298.6,36.53c.28.28.42.6.42.97v3.11c0,.37-.14.69-.42.97-.28.28-.61.41-.99.41h-3.53c-.38,0-.71-.14-.99-.41-.28-.28-.42-.6-.42-.97v-3.11c0-.37.14-.69.42-.97.28-.28.61-.42.99-.42h3.53c.38,0,.71.14.99.42M298.6,47.6c.28.28.42.6.42.97v22.82c0,.37-.14.69-.42.97-.28.28-.61.41-.99.41h-3.53c-.38,0-.71-.14-.99-.41-.28-.28-.42-.6-.42-.97v-22.82c0-.37.14-.69.42-.97.28-.28.61-.41.99-.41h3.53c.38,0,.71.14.99.41"/>
        <path class="st5" d="M319.87,53.86c-1.79-.39-3.58-.59-5.37-.59-1.08,0-2,.09-2.76.28-.75.18-1.13.51-1.13.97s.45.85,1.34,1.17c.89.32,2.01.66,3.36,1,1.34.35,2.79.74,4.34,1.17,1.55.44,3,.97,4.34,1.59,1.34.62,2.46,1.4,3.36,2.32.9.92,1.34,2.05,1.34,3.39,0,1.43-.29,2.63-.88,3.6-.59.97-1.39,1.75-2.4,2.35-1.01.6-2.19,1.03-3.53,1.28-1.34.25-2.74.38-4.2.38-2.4,0-4.81-.26-7.21-.8-2.4-.53-4.5-1.19-6.29-1.97l2.19-5.46c.57.32,1.31.63,2.23.93.92.3,1.92.57,3,.8,1.08.23,2.19.41,3.32.55,1.13.14,2.19.21,3.18.21,1.37,0,2.43-.13,3.18-.38.75-.25,1.13-.57,1.13-.93,0-.46-.45-.86-1.34-1.21s-2.01-.72-3.36-1.11c-1.34-.39-2.8-.82-4.38-1.28-1.58-.46-3.04-1.04-4.38-1.73-1.34-.69-2.46-1.51-3.36-2.45-.89-.95-1.34-2.11-1.34-3.49s.32-2.47.95-3.39c.64-.92,1.48-1.67,2.54-2.25,1.06-.58,2.31-.99,3.74-1.25,1.44-.25,2.93-.38,4.49-.38,1.98,0,3.74.19,5.3.55,1.55.37,3.27.87,5.16,1.52l-1.2,6.09c-1.79-.6-3.58-1.1-5.37-1.49"/>
        <path class="st5" d="M339.87,36.53c.28.28.42.6.42.97v4.29h6.57c.38,0,.71.14.99.41.28.28.42.6.42.97v3.8c0,.37-.14.69-.42.97-.28.28-.61.42-.99.42h-6.57v12.72c0,1.01.15,1.85.46,2.52.31.67.71,1.2,1.2,1.59.5.39,1.07.67,1.73.83.66.16,1.36.24,2.12.24.28,0,.58-.02.88-.07.31-.05.6-.07.88-.07l1.41,6.01c-1.7.41-3.27.62-4.73.62s-2.89-.22-4.13-.66c-1.25-.44-2.33-1.12-3.25-2.04-.92-.92-1.64-2.13-2.15-3.63-.52-1.5-.78-3.28-.78-5.36v-23.58c0-.37.14-.69.42-.97.28-.28.61-.42.99-.42h3.53c.38,0,.71.14.99.42"/>
        <path class="st5" d="M356.15,48.84c1.25-1.11,2.74-1.66,4.49-1.66h7.77c2.4,0,4.18.52,5.33,1.56,1.15,1.04,1.73,2.29,1.73,3.77,0,1.15-.32,2.34-.95,3.56-.63,1.22-1.57,2.4-2.79,3.53-1.23,1.13-2.73,2.18-4.52,3.15s-3.84,1.78-6.15,2.42c.47.69,1.09,1.19,1.87,1.49.78.3,1.66.45,2.65.45,1.46,0,2.97-.22,4.52-.66,1.55-.44,2.87-.91,3.96-1.42l1.41,4.98c-1.74.78-3.57,1.44-5.47,1.97-1.91.53-3.87.8-5.9.8-1.32,0-2.58-.17-3.78-.52-1.2-.35-2.25-.92-3.14-1.73-.9-.81-1.6-1.86-2.12-3.15-.52-1.29-.78-2.9-.78-4.84v-9.13c0-1.94.62-3.46,1.87-4.56M362.48,59.7c.75-.32,1.53-.76,2.33-1.31.8-.55,1.59-1.25,2.37-2.07.78-.83,1.42-1.8,1.94-2.91h-8.48v6.92c.47-.09,1.08-.3,1.84-.62"/>
        <path class="st5" d="M386.78,51.68c-.09.05.26-.15,1.06-.59.8-.44,1.78-.92,2.93-1.45,1.15-.53,2.34-1.03,3.57-1.49,1.23-.46,2.26-.69,3.11-.69.94,0,1.7.3,2.26.9.56.6.85,1.71.85,3.32v5.19c0,.37-.14.69-.42.97-.28.27-.61.41-.99.41h-4.95v-3.11c0-.79-.42-1.18-1.27-1.18-.52,0-1.09.09-1.73.27-.63.19-1.25.41-1.83.66-.59.25-1.12.51-1.59.76-.47.25-.8.45-.99.59v15.14c0,.37-.14.69-.42.97-.28.28-.61.41-.99.41h-3.53c-.38,0-.71-.14-.99-.41-.28-.28-.42-.6-.42-.97v-22.82c0-.37.14-.69.42-.97.28-.28.61-.41.99-.41h4.94v4.49Z"/>
      </g>
      <g>
        <path class="st0" d="M92.13,108.46v25.78c0,.34-.13.64-.39.89-.26.25-.56.38-.91.38h-4.54c-.35,0-.65-.13-.91-.38-.26-.25-.39-.55-.39-.89v-25.78h-7.79c-.35,0-.65-.13-.91-.38-.26-.25-.39-.55-.39-.89v-4.06c0-.34.13-.64.39-.89.26-.26.56-.38.91-.38h22.7c.35,0,.65.13.91.38.26.25.39.55.39.89v4.06c0,.34-.13.63-.39.89-.26.26-.56.38-.91.38h-7.78Z"/>
        <path class="st0" d="M129.11,126.87c0,1.91-.32,3.42-.97,4.54-.65,1.12-1.52,1.99-2.63,2.6-1.1.62-2.39,1.02-3.86,1.21-1.47.19-3.01.28-4.61.28s-3.18-.09-4.61-.28c-1.43-.19-2.69-.58-3.79-1.18-1.1-.59-1.97-1.46-2.6-2.6-.63-1.14-.94-2.67-.94-4.57v-16.25c0-1.9.31-3.43.94-4.57.63-1.14,1.49-2.03,2.6-2.67,1.1-.63,2.37-1.05,3.79-1.24,1.43-.19,2.96-.28,4.61-.28s3.14.11,4.61.32c1.47.21,2.76.62,3.86,1.24,1.1.61,1.98,1.49,2.63,2.63.65,1.14.97,2.67.97,4.57v16.25ZM121.97,110.93c0-.89-.49-1.46-1.46-1.71-.97-.25-2.13-.38-3.47-.38s-2.48.13-3.41.38c-.93.25-1.4.82-1.4,1.71v15.62c0,.85.47,1.4,1.4,1.65.93.25,2.04.38,3.34.38,1.38,0,2.56-.13,3.54-.38.97-.25,1.46-.8,1.46-1.65v-15.62Z"/>
        <path class="st0" d="M164.26,135.51h-20.89c-.35,0-.65-.13-.91-.38-.26-.25-.39-.55-.39-.89v-31.11c0-.34.13-.63.39-.89.26-.26.56-.38.91-.38h20.89v6.98h-15.05v6.22h15.05v6.79h-15.05v6.67h15.05v6.98Z"/>
        <path class="st0" d="M176.59,112.78v21.46c0,.34-.13.64-.39.89-.26.26-.56.38-.91.38h-4.54c-.35,0-.65-.13-.91-.38-.26-.25-.39-.55-.39-.89v-31.11c0-.34.13-.64.39-.89.26-.25.56-.38.91-.38h6.23l16.48,23.05v-21.78c0-.34.13-.64.39-.89.26-.25.56-.38.91-.38h4.54c.35,0,.65.13.91.38.26.25.39.55.39.89v31.11c0,.34-.13.64-.39.89-.26.26-.56.38-.91.38h-6.49l-16.22-22.73Z"/>
        <path class="st0" d="M220.7,108.46v25.78c0,.34-.13.64-.39.89-.26.25-.56.38-.91.38h-4.54c-.35,0-.65-.13-.91-.38-.26-.25-.39-.55-.39-.89v-25.78h-7.78c-.35,0-.65-.13-.91-.38-.26-.25-.39-.55-.39-.89v-4.06c0-.34.13-.64.39-.89.26-.26.56-.38.91-.38h22.7c.34,0,.65.13.91.38.26.25.39.55.39.89v4.06c0,.34-.13.63-.39.89-.26.26-.56.38-.91.38h-7.79Z"/>
        <path class="st0" d="M255.86,135.51h-20.89c-.35,0-.65-.13-.91-.38-.26-.25-.39-.55-.39-.89v-31.11c0-.34.13-.63.39-.89.26-.26.56-.38.91-.38h20.89v6.98h-15.05v6.22h15.05v6.79h-15.05v6.67h15.05v6.98Z"/>
        <path class="st0" d="M269.93,122.81h-1.75v11.43c0,.34-.13.64-.39.89-.26.26-.56.38-.91.38h-4.54c-.35,0-.65-.13-.91-.38-.26-.25-.39-.55-.39-.89v-31.11c0-.34.13-.64.39-.89.26-.26.56-.38.91-.38h12.84c1.95,0,3.65.32,5.12.95,1.47.64,2.7,1.46,3.7,2.48.99,1.02,1.74,2.17,2.24,3.46.5,1.29.75,2.6.75,3.91,0,2.28-.72,4.34-2.17,6.16-1.45,1.82-3.66,3.03-6.65,3.62.43.55,1.12,1.44,2.08,2.67.95,1.23,1.96,2.53,3.02,3.9,1.06,1.38,2.08,2.67,3.05,3.87.97,1.21,1.68,2.09,2.11,2.64h-7.78c-.48,0-.87-.14-1.17-.41-.3-.27-.56-.56-.78-.86l-8.76-11.43ZM275.06,116.01c1.64,0,2.85-.35,3.63-1.05.78-.7,1.17-1.47,1.17-2.32,0-.97-.42-1.85-1.27-2.64-.84-.78-2.02-1.17-3.53-1.17h-6.88v7.17h6.88Z"/>
        <path class="st0" d="M314.37,108.46v25.78c0,.34-.13.64-.39.89-.26.25-.56.38-.91.38h-4.54c-.35,0-.65-.13-.91-.38-.26-.25-.39-.55-.39-.89v-25.78h-7.78c-.35,0-.65-.13-.91-.38-.26-.25-.39-.55-.39-.89v-4.06c0-.34.13-.64.39-.89.26-.26.56-.38.91-.38h22.7c.34,0,.65.13.91.38.26.25.39.55.39.89v4.06c0,.34-.13.63-.39.89-.26.26-.56.38-.91.38h-7.78Z"/>
        <path class="st0" d="M351.99,101.85c.34,0,.65.13.91.38.26.25.39.55.39.89v31.11c0,.34-.13.63-.39.89-.26.26-.56.38-.91.38h-4.54c-.35,0-.65-.13-.91-.38-.26-.25-.39-.55-.39-.89v-11.75h-11.68v11.75c0,.34-.13.63-.39.89-.26.26-.56.38-.91.38h-4.54c-.35,0-.65-.13-.91-.38-.26-.25-.39-.55-.39-.89v-31.11c0-.34.13-.64.39-.89.26-.26.56-.38.91-.38h4.54c.34,0,.65.13.91.38.26.25.39.55.39.89v12.38h11.68v-12.38c0-.34.13-.64.39-.89.26-.26.56-.38.91-.38h4.54Z"/>
        <path class="st0" d="M380.66,135.51h-20.89c-.35,0-.65-.13-.91-.38-.26-.25-.39-.55-.39-.89v-31.11c0-.34.13-.63.39-.89.26-.26.56-.38.91-.38h20.89v6.98h-15.05v6.22h15.05v6.79h-15.05v6.67h15.05v6.98Z"/>
        <path class="st0" d="M405.96,101.85c1.6,0,3.18.24,4.73.73,1.56.49,2.95,1.21,4.18,2.16,1.23.95,2.22,2.14,2.95,3.56.73,1.42,1.1,3.08,1.1,4.98v10.86c0,1.91-.37,3.57-1.1,4.99-.73,1.42-1.72,2.6-2.95,3.56-1.23.95-2.63,1.66-4.18,2.13-1.56.47-3.14.7-4.73.7h-11.03c-.35,0-.65-.13-.91-.38-.26-.25-.39-.55-.39-.89v-31.11c0-.34.13-.64.39-.89.26-.26.56-.38.91-.38h11.03ZM400.77,108.84v19.68h5.19c.73,0,1.45-.11,2.14-.32.69-.21,1.32-.53,1.88-.95.56-.42,1.01-.95,1.33-1.59.32-.64.49-1.38.49-2.22v-9.46c0-.85-.16-1.59-.49-2.22-.33-.64-.77-1.18-1.33-1.62-.56-.45-1.19-.77-1.88-.99-.69-.21-1.41-.32-2.14-.32h-5.19Z"/>
        <path class="st0" d="M433.01,122.81h-1.75v11.43c0,.34-.13.64-.39.89-.26.26-.56.38-.91.38h-4.54c-.35,0-.65-.13-.91-.38-.26-.25-.39-.55-.39-.89v-31.11c0-.34.13-.64.39-.89.26-.26.56-.38.91-.38h12.84c1.95,0,3.65.32,5.12.95,1.47.64,2.7,1.46,3.7,2.48.99,1.02,1.74,2.17,2.24,3.46.5,1.29.75,2.6.75,3.91,0,2.28-.73,4.34-2.17,6.16-1.45,1.82-3.67,3.03-6.65,3.62.43.55,1.12,1.44,2.08,2.67.95,1.23,1.96,2.53,3.02,3.9,1.06,1.38,2.08,2.67,3.05,3.87.97,1.21,1.68,2.09,2.11,2.64h-7.78c-.48,0-.87-.14-1.17-.41-.3-.27-.56-.56-.78-.86l-8.76-11.43ZM438.13,116.01c1.64,0,2.86-.35,3.63-1.05.78-.7,1.17-1.47,1.17-2.32,0-.97-.42-1.85-1.27-2.64-.84-.78-2.02-1.17-3.54-1.17h-6.88v7.17h6.88Z"/>
        <path class="st0" d="M478.74,134.24c0,.34-.13.64-.39.89-.26.26-.56.38-.91.38h-4.54c-.35,0-.65-.13-.91-.38-.26-.25-.39-.55-.39-.89v-9.21h-9.73v9.21c0,.34-.13.64-.39.89-.26.26-.56.38-.91.38h-4.54c-.35,0-.65-.13-.91-.38-.26-.25-.39-.55-.39-.89v-21.91c0-1.78.33-3.32,1.01-4.63.67-1.31,1.57-2.4,2.69-3.27,1.12-.87,2.39-1.51,3.79-1.94,1.4-.42,2.86-.63,4.38-.63s2.99.22,4.44.67c1.45.44,2.75,1.1,3.89,1.97,1.15.87,2.07,1.96,2.76,3.27.69,1.31,1.04,2.84,1.04,4.57v21.91ZM461.88,118.04h9.73v-5.59c0-1.19-.52-2.09-1.56-2.7-1.04-.61-2.18-.92-3.44-.92-1.17,0-2.25.3-3.24.89-1,.59-1.49,1.5-1.49,2.73v5.59Z"/>
        <path class="st0" d="M509.42,101.85c.34,0,.63.13.84.38.22.25.37.55.45.89l5.71,25.33,5.45-25.33c.09-.34.24-.64.45-.89.22-.26.5-.38.84-.38h6.16c-.17.89-.43,2.19-.78,3.91-.35,1.71-.73,3.62-1.17,5.71-.43,2.1-.89,4.29-1.36,6.57-.48,2.29-.93,4.48-1.36,6.57-.43,2.09-.82,4-1.17,5.71-.35,1.71-.61,3.02-.78,3.91-.09.34-.24.63-.45.89-.22.26-.5.38-.85.38h-9.34c-.35,0-.63-.13-.84-.38-.22-.25-.37-.55-.45-.89l-4.67-22.16-4.73,22.16c-.09.34-.24.63-.45.89-.22.26-.5.38-.84.38h-9.41c-.35,0-.63-.13-.84-.38-.22-.25-.37-.55-.45-.89-.17-.89-.43-2.19-.78-3.91-.35-1.72-.73-3.62-1.17-5.71-.43-2.1-.89-4.29-1.36-6.57-.48-2.28-.93-4.48-1.36-6.57-.43-2.09-.82-4-1.17-5.71-.35-1.71-.6-3.02-.78-3.91h6.16c.35,0,.63.13.84.38.22.25.37.55.46.89l5.45,25.33,5.71-25.33c.09-.34.24-.64.45-.89.22-.26.5-.38.84-.38h6.75Z"/>
      </g>
    </g>
  </g>
  <g>
    <path class="st3" d="M6.8,170.77c6.9.75,13.71,1.48,20.64,2.23-.21.31-.37.56-.54.78-1.34,1.75-2.67,3.5-4.04,5.23-3.62,4.57-7.26,9.13-10.89,13.7-.42.53-.81,1.07-1.21,1.6.39.67,7.9,7.19,9.28,8.05,5.43-7.05,10.86-14.1,16.37-21.26,1.66,3.04,3.08,6.1,4.61,9.09,1.53,2.98,3.03,5.98,4.64,9.16.13-.36.21-.55.25-.74,1.54-6.51,3.07-13.02,4.6-19.53,2.7-11.48,5.4-22.97,8.1-34.45.52-2.19,1.03-4.39,1.54-6.59.04-.16.05-.33.1-.59-.26.1-.44.15-.6.24-1.21.71-2.43,1.41-3.62,2.15-8.75,5.46-17.5,10.93-26.25,16.41-6.37,3.99-12.73,7.99-19.09,11.98-1.21.76-2.42,1.52-3.62,2.28-.08.05-.13.13-.27.26Z"/>
    <path class="st1" d="M45.23,126.23c-.11.41-.05.84.2,1.24,1.37,2.27,2.74,4.53,4.12,6.79.39.64.94,1.02,1.74.94.82-.09,1.29-.59,1.59-1.31.22-.51.1-.98-.17-1.43-.47-.77-.94-1.54-1.4-2.31-.73-1.2-1.45-2.39-2.18-3.59-.25-.4-.51-.8-.79-1.18-.44-.58-1.04-.74-1.74-.58-.7.17-1.2.67-1.36,1.41Z"/>
    <path class="st1" d="M63.07,135.81c-.19.79.15,1.63.81,2.09.66.46,1.31.39,1.96-.03,1.34-.87,2.69-1.74,4.04-2.6.82-.52,1.65-1.03,2.48-1.55.41-.26.76-.57.88-1.07.17-.71.08-1.35-.51-1.84-.58-.48-1.23-.66-1.95-.32-.32.15-.62.32-.92.51-1.95,1.22-3.89,2.45-5.84,3.67-.46.29-.84.63-.95,1.12Z"/>
    <path class="st1" d="M65.73,158.62c.61.09,1.19-.1,1.66-.64.45-.53.55-1.11.3-1.75-.09-.23-.21-.45-.35-.67-1.23-2.01-2.46-4.01-3.7-6.01-.14-.23-.3-.47-.47-.67-.59-.68-1.49-.81-2.24-.33-.76.48-.99,1.23-.65,2.09.06.16.14.32.23.47,1.27,2.16,2.55,4.31,3.82,6.47.31.52.7.9,1.4,1.05Z"/>
    <path class="st1" d="M42.76,140.36c1.24.28,2.49.56,3.73.85.74.18,1.33-.06,1.81-.62.77-.89.47-2.22-.6-2.69-.27-.12-.57-.19-.86-.26-2.36-.55-4.72-1.09-7.09-1.63-.99-.23-1.99.36-2.24,1.28-.23.87.42,1.95,1.38,2.19,1.28.32,2.58.6,3.87.89,0,0,0,0,0-.01Z"/>
    <path class="st1" d="M57.61,128.16c-.28,1.22-.5,2.46-.85,3.65-.29.98.59,1.95,1.31,2.14.93.24,1.84-.23,2.16-1.14.06-.16.1-.34.14-.51.53-2.29,1.06-4.58,1.58-6.87.19-.84-.06-1.48-.75-1.96-.66-.46-1.32-.38-1.98-.01-.44.24-.7.6-.81,1.11-.25,1.2-.54,2.39-.81,3.59h0Z"/>
    <path class="st1" d="M70.17,142.98c-1.24-.28-2.49-.56-3.73-.85-.61-.15-1.14-.02-1.6.41-.98.92-.69,2.44.56,2.94.18.07.38.14.57.18,2.37.54,4.73,1.09,7.1,1.63.92.21,1.54-.04,2.01-.77.41-.64.34-1.46-.16-2.1-.28-.36-.66-.52-1.09-.61-1.22-.28-2.44-.56-3.66-.84v.02Z"/>
  </g>
</svg>