<?xml version="1.0" encoding="UTF-8"?>
<svg id="Layer_1" xmlns="http://www.w3.org/2000/svg" version="1.1" viewBox="0 0 580.52 207.79">
  <!-- Generator: Adobe Illustrator 29.7.1, SVG Export Plug-In . SVG Version: 2.1.1 Build 8)  -->
  <defs>
    <style>
      .st0 {
        font-family: AbdoMaster-Bold, AbdoMaster-Bold;
        font-size: 47.77px;
        font-weight: 700;
      }

      .st1 {
        fill: none;
        stroke-width: 10.75px;
      }

      .st1, .st2, .st3 {
        stroke: #020202;
        stroke-miterlimit: 10;
      }

      .st4 {
        fill: #d92726;
      }

      .st2 {
        stroke-width: .65px;
      }

      .st2, .st3 {
        fill: #f9ddd9;
      }

      .st3 {
        stroke-width: 1.31px;
      }

      .st5 {
        fill: #f2e1de;
      }
    </style>
  </defs>
  <g>
    <path class="st4" d="M270.77,8.99H60.96c-13.13,0-23.78,10.42-23.78,23.27v105.98c0,12.85,10.64,23.27,23.78,23.27h489.92c13.13,0,23.78-10.42,23.78-23.27V32.26c0-12.85-10.64-23.27-23.78-23.27h-280.1Z"/>
    <path class="st1" d="M270.77,8.99H60.96c-13.13,0-23.78,10.42-23.78,23.27v105.98c0,12.85,10.64,23.27,23.78,23.27h489.92c13.13,0,23.78-10.42,23.78-23.27V32.26c0-12.85-10.64-23.27-23.78-23.27h-280.1Z"/>
    <text class="st0" transform="translate(174.69 67.58)"><tspan class="st5"><tspan x="0" y="0">سجل دخولك</tspan></tspan><tspan x="-68.24" y="57.32">و شارك في السحب</tspan></text>
  </g>
  <g>
    <path class="st3" d="M9.87,165.98c7.46.25,14.82.49,22.31.74-.2.35-.35.63-.52.88-1.3,1.98-2.58,3.97-3.91,5.93-3.52,5.19-7.06,10.37-10.58,15.56-.41.6-.79,1.22-1.17,1.81.47.68,9.05,7.07,10.6,7.89,5.25-7.99,10.51-15.99,15.85-24.11,2.02,3.13,3.79,6.29,5.67,9.38,1.88,3.08,3.73,6.17,5.71,9.45.11-.4.18-.6.21-.82,1.13-7.1,2.25-14.2,3.37-21.31,1.98-12.53,3.96-25.06,5.93-37.59.38-2.39.75-4.79,1.12-7.18.03-.18.03-.36.06-.64-.27.13-.47.19-.63.3-1.24.86-2.49,1.7-3.71,2.59-8.95,6.56-17.9,13.12-26.84,19.69-6.51,4.78-13.01,9.58-19.51,14.37-1.24.91-2.47,1.82-3.7,2.73-.08.06-.13.15-.27.31Z"/>
    <path class="st2" d="M47.52,115.15c-.08.44.02.9.31,1.32,1.65,2.32,3.3,4.64,4.96,6.96.47.66,1.09,1.02,1.94.86.87-.16,1.33-.74,1.6-1.53.19-.56.03-1.05-.3-1.52-.57-.79-1.13-1.57-1.69-2.36-.88-1.22-1.75-2.45-2.63-3.67-.3-.41-.61-.82-.94-1.2-.52-.59-1.18-.71-1.91-.48-.74.23-1.23.81-1.35,1.62Z"/>
    <path class="st2" d="M67.42,124c-.15.86.29,1.74,1.04,2.18.74.44,1.43.32,2.1-.18,1.37-1.04,2.74-2.08,4.12-3.11.84-.63,1.69-1.24,2.54-1.86.42-.31.77-.67.86-1.22.13-.78-.03-1.45-.69-1.93-.66-.47-1.38-.6-2.12-.18-.33.19-.64.4-.94.62-1.99,1.47-3.98,2.94-5.97,4.41-.47.35-.85.75-.93,1.28Z"/>
    <path class="st2" d="M72.09,148.24c.66.05,1.27-.2,1.73-.82.44-.6.5-1.23.18-1.9-.12-.24-.27-.47-.42-.69-1.48-2.05-2.96-4.1-4.45-6.15-.17-.24-.35-.48-.56-.69-.69-.68-1.66-.75-2.42-.18-.77.57-.96,1.4-.53,2.29.08.17.18.33.29.49,1.54,2.21,3.08,4.42,4.61,6.63.37.54.83.91,1.58,1.02Z"/>
    <path class="st2" d="M46,130.5c1.36.2,2.71.4,4.06.62.81.13,1.42-.17,1.89-.81.75-1.02.33-2.42-.86-2.84-.3-.11-.62-.16-.94-.21-2.58-.4-5.15-.8-7.73-1.18-1.08-.16-2.11.54-2.3,1.55-.18.95.6,2.05,1.65,2.24,1.4.25,2.82.43,4.22.65,0,0,0,0,0-.01Z"/>
    <path class="st2" d="M60.95,116.23c-.2,1.33-.34,2.67-.62,3.98-.23,1.07.78,2.05,1.58,2.19,1.02.18,1.95-.39,2.23-1.4.05-.18.08-.37.11-.55.38-2.5.77-5,1.14-7.5.14-.92-.18-1.58-.96-2.04-.74-.44-1.44-.3-2.12.15-.45.3-.71.7-.78,1.25-.18,1.31-.39,2.61-.58,3.91h0Z"/>
    <path class="st2" d="M75.6,131.12c-1.36-.2-2.72-.4-4.07-.62-.67-.11-1.23.07-1.68.56-.98,1.07-.55,2.67.84,3.11.2.07.42.12.63.15,2.58.4,5.16.79,7.74,1.18,1,.15,1.65-.16,2.09-.99.38-.72.25-1.59-.34-2.24-.33-.36-.75-.5-1.21-.57-1.33-.2-2.66-.4-3.99-.6v.02Z"/>
  </g>
</svg>