<?xml version="1.0" encoding="UTF-8"?>
<svg id="Layer_1" xmlns="http://www.w3.org/2000/svg" version="1.1" viewBox="0 0 826.67 188.89">
  <!-- Generator: Adobe Illustrator 29.7.1, SVG Export Plug-In . SVG Version: 2.1.1 Build 8)  -->
  <defs>
    <style>
      .st0 {
        fill: #007db5;
        stroke: #020202;
        stroke-miterlimit: 10;
        stroke-width: 40px;
      }

      .st1 {
        fill: #d92726;
      }
    </style>
  </defs>
  <g>
    <path class="st0" d="M59.63,39.54h39.49c10.98,0,18.49,3.29,22.57,9.75,3.47,5.49,3.99,12.77,1.54,21.97l-.07.27c-4.14,15.52-14.27,25.27-26.46,29.8l11.94,34.33h-22.21l-10.3-30.76h-14.93l-8.21,30.76h-19l25.66-96.12ZM85.42,86.23c9.38,0,15.99-5.36,18.19-13.59l.07-.27c2.46-9.2-1.89-13.73-11.26-13.73h-18.88l-7.37,27.6h19.25Z"/>
    <path class="st0" d="M126.48,99.28l.07-.27c5.61-21.01,23.68-38.31,42.93-38.31,22.09,0,27.11,19.09,21.54,39.96-.44,1.65-1.04,3.43-1.71,5.49h-46.03c-.68,9.47,3.93,14.42,12.32,14.42,6.29,0,11.32-2.2,18.06-7.55l7.91,10.57c-8.6,8.65-18.72,13.73-30.69,13.73-19.87,0-30.41-15.52-24.4-38.04ZM174.78,93.1c1.38-9.34-1.87-15.65-9.76-15.65s-14.48,6.18-18.49,15.65h28.26Z"/>
    <path class="st0" d="M192.1,150.22l10.59-15.65c5.77,4.26,11.65,6.73,20.54,6.73,12.83,0,20.71-6.87,24.23-20.05l.95-3.57c-7.57,7.55-14.79,11.95-24.78,11.95-15.42,0-26.07-12.36-20.2-34.33l.07-.27c5.86-21.97,23.35-34.33,38.53-34.33,10.24,0,15,4.81,18.41,10.99l2.57-9.61h18.76l-15.21,56.99c-3.48,13.04-8.92,22.79-16.12,28.97-8.16,7-18.31,9.89-31.14,9.89-10.86,0-20.12-2.75-27.19-7.69ZM254.39,95.29l.07-.27c2.68-10.02-2.36-17.03-11.62-17.03s-17.91,7-20.59,17.03l-.07.27c-2.75,10.3,2.24,17.03,11.5,17.03s18.03-7,20.71-17.03Z"/>
    <path class="st0" d="M306.03,35.42h19.74l-4.95,18.54h-19.74l4.95-18.54ZM299.42,62.06h18.76l-19.65,73.6h-18.76l19.65-73.6Z"/>
    <path class="st0" d="M313.59,125.91l11.69-13.73c5.7,5.9,12.21,8.79,18.51,8.79,5.43,0,8.48-2.2,9.36-5.49l.07-.27c1.21-4.53-4.84-5.9-11.42-8.51-8.48-2.88-17.65-7.83-13.84-22.11l.07-.27c4-14.97,17.09-23.34,30.42-23.34,8.39,0,16.56,3.16,22.41,8.51l-11.01,14.42c-5.4-4.26-11.25-6.87-16.06-6.87-4.57,0-7.5,2.2-8.27,5.08l-.07.27c-1.03,3.85,4.61,6.32,11.1,8.79,8.37,3.3,17.75,8.38,14.16,21.83l-.07.27c-4.36,16.34-17.32,23.76-31.64,23.76-9.38,0-18.58-3.43-25.41-11.12Z"/>
    <path class="st0" d="M385.53,114.79l9.31-34.88h-7.9l4.77-17.85h7.9l5.02-18.81h18.76l-5.02,18.81h15.55l-4.77,17.85h-15.55l-8.39,31.45c-1.28,4.81.07,7.14,4.14,7.14,3.33,0,6.64-.82,9.95-2.61l-4.47,16.75c-4.65,2.61-9.65,4.26-15.94,4.26-11.35,0-17.89-5.08-13.35-22.11Z"/>
    <path class="st0" d="M447.73,62.06h18.76l-2.66,9.98c-.29,1.08,1.04,1.46,1.79.5,5.89-7.56,12.96-12.32,22.34-11.85l-5.83,21.83h-.99c-12.46,0-22.31,8.24-27.04,25.95l-7.26,27.19h-18.76l19.65-73.6Z"/>
    <path class="st0" d="M478.27,114.52l.07-.27c4.25-15.93,17.25-23.48,32.92-23.48,6.79,0,11.02,1.24,15.36,3.02l.33-1.24c2.35-8.79-1.22-13.46-10.6-13.46-7.28,0-12.58,1.37-19.33,3.98l-.44-15.93c8.2-3.43,16.01-5.9,27.24-5.9,10.36,0,16.75,2.88,20.13,8.24,3.47,5.49,3.53,13.59.89,23.48l-11.4,42.7h-18.14l2.13-7.96c-6.07,5.63-13.23,9.34-22.48,9.34-12.46,0-20.62-7.83-16.69-22.52ZM522.62,109.71l.99-3.71c-2.89-1.65-6.67-2.75-11.24-2.75-8.02,0-13.91,3.57-15.67,10.16l-.07.27c-1.5,5.63,1.81,8.93,7.86,8.93,8.88,0,16.08-5.22,18.13-12.91Z"/>
    <path class="st0" d="M557.66,114.79l9.31-34.88h-7.9l4.77-17.85h7.9l5.02-18.81h18.76l-5.02,18.81h15.55l-4.77,17.85h-15.55l-8.39,31.45c-1.28,4.81.07,7.14,4.14,7.14,3.33,0,6.64-.82,9.95-2.61l-4.47,16.75c-4.65,2.61-9.65,4.26-15.94,4.26-11.35,0-17.89-5.08-13.35-22.11Z"/>
    <path class="st0" d="M627.34,35.42h19.74l-4.95,18.54h-19.74l4.95-18.54ZM620.72,62.06h18.76l-19.65,73.6h-18.76l19.65-73.6Z"/>
    <path class="st0" d="M643.98,99.28l.07-.27c5.64-21.15,25.53-38.31,46.13-38.31s31.19,16.75,25.51,38.04l-.07.27c-5.64,21.15-25.53,38.31-46.13,38.31s-31.19-16.75-25.51-38.04ZM697.04,99.28l.07-.27c2.9-10.85-1.61-20.32-11.97-20.32s-19.57,9.06-22.5,20.05l-.07.27c-2.9,10.85,1.61,20.32,11.97,20.32s19.57-9.06,22.5-20.05Z"/>
    <path class="st0" d="M739.06,62.06h18.76l-2.79,10.44c5.97-6.18,13.15-11.81,22.52-11.81,14.31,0,19.71,10.3,15.16,27.33l-12.72,47.65h-18.75l10.96-41.06c2.64-9.89-.08-14.97-7.36-14.97s-13.08,5.08-15.72,14.97l-10.96,41.06h-18.76l19.65-73.6Z"/>
  </g>
  <g>
    <path class="st1" d="M67.46,47.69h39.49c10.98,0,18.49,3.29,22.57,9.75,3.47,5.49,3.99,12.77,1.54,21.97l-.07.27c-4.14,15.52-14.27,25.27-26.46,29.8l11.94,34.33h-22.21l-10.3-30.76h-14.93l-8.21,30.76h-19l25.66-96.12ZM93.24,94.38c9.38,0,15.99-5.36,18.19-13.59l.07-.27c2.46-9.2-1.89-13.73-11.26-13.73h-18.88l-7.37,27.6h19.25Z"/>
    <path class="st1" d="M134.31,107.42l.07-.27c5.61-21.01,23.68-38.31,42.93-38.31,22.09,0,27.11,19.09,21.54,39.96-.44,1.65-1.04,3.43-1.71,5.49h-46.03c-.68,9.47,3.93,14.42,12.32,14.42,6.29,0,11.32-2.2,18.06-7.55l7.91,10.57c-8.6,8.65-18.72,13.73-30.69,13.73-19.87,0-30.41-15.52-24.4-38.04ZM182.6,101.24c1.38-9.34-1.87-15.65-9.76-15.65s-14.48,6.18-18.49,15.65h28.26Z"/>
    <path class="st1" d="M199.92,158.36l10.59-15.65c5.77,4.26,11.65,6.73,20.54,6.73,12.83,0,20.71-6.87,24.23-20.05l.95-3.57c-7.57,7.55-14.79,11.95-24.78,11.95-15.42,0-26.07-12.36-20.2-34.33l.07-.27c5.86-21.97,23.35-34.33,38.53-34.33,10.24,0,15,4.81,18.41,10.99l2.57-9.61h18.76l-15.21,56.99c-3.48,13.04-8.92,22.79-16.12,28.97-8.16,7-18.31,9.89-31.14,9.89-10.86,0-20.12-2.75-27.19-7.69ZM262.21,103.44l.07-.27c2.68-10.02-2.36-17.03-11.62-17.03s-17.91,7-20.59,17.03l-.07.27c-2.75,10.3,2.24,17.03,11.5,17.03s18.03-7,20.71-17.03Z"/>
    <path class="st1" d="M313.86,43.57h19.74l-4.95,18.54h-19.74l4.95-18.54ZM307.24,70.21h18.76l-19.65,73.6h-18.76l19.65-73.6Z"/>
    <path class="st1" d="M321.41,134.06l11.69-13.73c5.7,5.9,12.21,8.79,18.51,8.79,5.43,0,8.48-2.2,9.36-5.49l.07-.27c1.21-4.53-4.84-5.9-11.42-8.51-8.48-2.88-17.65-7.83-13.84-22.11l.07-.27c4-14.97,17.09-23.34,30.42-23.34,8.39,0,16.56,3.16,22.41,8.51l-11.01,14.42c-5.4-4.26-11.25-6.87-16.06-6.87-4.57,0-7.5,2.2-8.27,5.08l-.07.27c-1.03,3.85,4.61,6.32,11.1,8.79,8.37,3.3,17.75,8.38,14.16,21.83l-.07.27c-4.36,16.34-17.32,23.76-31.64,23.76-9.38,0-18.58-3.43-25.41-11.12Z"/>
    <path class="st1" d="M393.36,122.94l9.31-34.88h-7.9l4.77-17.85h7.9l5.02-18.81h18.76l-5.02,18.81h15.55l-4.77,17.85h-15.55l-8.39,31.45c-1.28,4.81.07,7.14,4.14,7.14,3.33,0,6.64-.82,9.95-2.61l-4.47,16.75c-4.65,2.61-9.65,4.26-15.94,4.26-11.35,0-17.89-5.08-13.35-22.11Z"/>
    <path class="st1" d="M455.55,70.21h18.76l-2.66,9.98c-.29,1.08,1.04,1.46,1.79.5,5.89-7.56,12.96-12.32,22.34-11.85l-5.83,21.83h-.99c-12.46,0-22.31,8.24-27.04,25.95l-7.26,27.19h-18.76l19.65-73.6Z"/>
    <path class="st1" d="M486.1,122.66l.07-.27c4.25-15.93,17.25-23.48,32.92-23.48,6.79,0,11.02,1.24,15.36,3.02l.33-1.24c2.35-8.79-1.22-13.46-10.6-13.46-7.28,0-12.58,1.37-19.33,3.98l-.44-15.93c8.2-3.43,16.01-5.9,27.24-5.9,10.36,0,16.75,2.88,20.13,8.24,3.47,5.49,3.53,13.59.89,23.48l-11.4,42.7h-18.14l2.13-7.96c-6.07,5.63-13.23,9.34-22.48,9.34-12.46,0-20.62-7.83-16.69-22.52ZM530.44,117.86l.99-3.71c-2.89-1.65-6.67-2.75-11.24-2.75-8.02,0-13.91,3.57-15.67,10.16l-.07.27c-1.5,5.63,1.81,8.93,7.86,8.93,8.88,0,16.08-5.22,18.13-12.91Z"/>
    <path class="st1" d="M565.49,122.94l9.31-34.88h-7.9l4.77-17.85h7.9l5.02-18.81h18.76l-5.02,18.81h15.55l-4.77,17.85h-15.55l-8.39,31.45c-1.28,4.81.07,7.14,4.14,7.14,3.33,0,6.64-.82,9.95-2.61l-4.47,16.75c-4.65,2.61-9.65,4.26-15.94,4.26-11.35,0-17.89-5.08-13.35-22.11Z"/>
    <path class="st1" d="M635.16,43.57h19.74l-4.95,18.54h-19.74l4.95-18.54ZM628.55,70.21h18.76l-19.65,73.6h-18.76l19.65-73.6Z"/>
    <path class="st1" d="M651.81,107.42l.07-.27c5.64-21.15,25.53-38.31,46.13-38.31s31.19,16.75,25.51,38.04l-.07.27c-5.64,21.15-25.53,38.31-46.13,38.31s-31.19-16.75-25.51-38.04ZM704.86,107.42l.07-.27c2.9-10.85-1.61-20.32-11.97-20.32s-19.57,9.06-22.5,20.05l-.07.27c-2.9,10.85,1.61,20.32,11.97,20.32s19.57-9.06,22.5-20.05Z"/>
    <path class="st1" d="M746.88,70.21h18.76l-2.79,10.44c5.97-6.18,13.15-11.81,22.52-11.81,14.31,0,19.71,10.3,15.16,27.33l-12.72,47.65h-18.75l10.96-41.06c2.64-9.89-.08-14.97-7.36-14.97s-13.08,5.08-15.72,14.97l-10.96,41.06h-18.76l19.65-73.6Z"/>
  </g>
</svg>