<?xml version="1.0" encoding="UTF-8"?>
<svg id="Layer_1" xmlns="http://www.w3.org/2000/svg" version="1.1" viewBox="0 0 227.26 137.9">
  <!-- Generator: Adobe Illustrator 29.7.1, SVG Export Plug-In . SVG Version: 2.1.1 Build 8)  -->
  <defs>
    <style>
      .st0 {
        fill: #fff;
      }
    </style>
  </defs>
  <path d="M225.77,60.8l-41.19-3.71,6.95-7.84c.19-.21.25-.45.22-.69.01-.08.01-.16,0-.24.01-.08.01-.16,0-.24.01-.08.01-.16,0-.24.01-.08.01-.16,0-.24.01-.08.01-.16,0-.24.01-.08.01-.16,0-.24.01-.08.01-.16,0-.24.01-.08.01-.16,0-.24.01-.08.01-.16,0-.24.01-.08.01-.16,0-.24.01-.08.01-.16,0-.24.01-.08.01-.16,0-.24.01-.08.01-.16,0-.24.01-.08.01-.16,0-.24.01-.08.01-.16,0-.24.01-.08.01-.16,0-.24.01-.08.01-.16,0-.24.01-.08.01-.16,0-.24.01-.08.01-.16,0-.24.01-.08.01-.16,0-.24.03-.21,0-.42-.15-.61-.24-.34-.73-.58-1.29-.64l-12.94-1.32,14.22-18.43c.14-.18.18-.38.17-.58.02-.08,0-.16,0-.24.02-.08,0-.16,0-.23.02-.08,0-.16,0-.24.02-.08,0-.16,0-.24.02-.08,0-.16,0-.24.02-.08,0-.16,0-.24.02-.08,0-.16,0-.24.02-.08,0-.16,0-.24.02-.08,0-.16,0-.24.02-.08,0-.16,0-.24.02-.08,0-.16,0-.24.02-.08,0-.16,0-.24.02-.08,0-.16,0-.24.02-.08,0-.16,0-.24.02-.08,0-.16,0-.24.02-.08,0-.16,0-.24.02-.08,0-.16,0-.24.02-.08,0-.16,0-.24.02-.08,0-.16,0-.24.02-.08,0-.16,0-.24.09-.36-.1-.74-.52-1-.55-.35-1.39-.41-2.05-.16l-38.89,14.88-1.26-12.53c-.04-.42-.43-.79-1.02-.96-.58-.17-1.26-.12-1.77.14l-18.33,9.52L114.91.79c-.23-.47-.89-.79-1.64-.79h0c-.75,0-1.41.32-1.64.79l-9.47,19.66-21.29-8.8c-.59-.24-1.35-.23-1.91.04-.5.23-.75.62-.7,1.02-.02.08,0,.16,0,.24-.02.08,0,.16,0,.24-.02.08,0,.16,0,.24-.02.08,0,.16,0,.24-.02.08,0,.16,0,.24-.02.08,0,.16,0,.24-.02.08,0,.16,0,.24-.02.08,0,.16,0,.24-.02.08,0,.16,0,.24-.02.08,0,.16,0,.24-.02.08,0,.16,0,.24-.02.08,0,.16,0,.24-.02.08,0,.16,0,.24-.02.08,0,.16,0,.24-.02.08,0,.16,0,.24-.02.08,0,.16,0,.24-.02.08,0,.16,0,.24-.02.08,0,.16,0,.24-.02.08,0,.16,0,.24-.02.08,0,.16,0,.24-.03.13-.03.26.02.4l3.3,9.55-46.03-9.13c-.74-.15-1.54.05-1.95.48-.22.23-.29.5-.24.76,0,.08-.02.16,0,.24,0,.08-.02.16,0,.24,0,.08-.02.16,0,.24,0,.08-.02.16,0,.24,0,.08-.02.16,0,.24,0,.08-.02.16,0,.24,0,.08-.02.16,0,.24,0,.08-.02.16,0,.24,0,.08-.02.16,0,.24,0,.08-.02.16,0,.24,0,.08-.02.16,0,.24,0,.08-.02.16,0,.24,0,.08-.02.16,0,.24,0,.08-.02.16,0,.24,0,.08-.02.16,0,.24,0,.08-.02.16,0,.24,0,.08-.02.16,0,.24,0,.08-.02.16,0,.24,0,.08-.02.16,0,.24,0,.08-.02.16,0,.24-.03.3.09.61.42.85l19.12,13.97-23.1,1.7c-.76.06-1.37.44-1.51.93-.03.13-.03.26,0,.38,0,.08-.02.16,0,.24,0,.08-.02.16,0,.24,0,.08-.02.16,0,.24,0,.08-.02.16,0,.24,0,.08-.02.16,0,.24,0,.08-.02.16,0,.24,0,.08-.02.16,0,.24,0,.08-.02.16,0,.24,0,.08-.02.16,0,.24,0,.08-.02.16,0,.24,0,.08-.02.16,0,.24,0,.08-.02.16,0,.24,0,.08-.02.16,0,.24,0,.08-.02.16,0,.24,0,.08-.02.16,0,.24,0,.08-.02.16,0,.24,0,.08-.02.16,0,.24,0,.08-.02.16,0,.24,0,.08-.02.16,0,.24,0,.08-.02.16,0,.24-.03.45.31.87.93,1.08l17.39,5.75-25.25,6.87c-.66.18-1.08.61-1.07,1.08,0,.03.02.07.03.1,0,.05-.03.09-.03.13,0,.03.02.07.03.1,0,.05-.03.09-.03.13,0,.03.02.07.03.1,0,.05-.03.09-.03.13,0,.03.02.07.03.1,0,.05-.03.09-.03.13,0,.03.02.07.03.1,0,.05-.03.09-.03.13,0,.03.02.07.03.1,0,.05-.03.09-.03.13,0,.03.02.07.03.1,0,.05-.03.09-.03.13,0,.04.02.07.03.1,0,.05-.03.09-.03.13,0,.03.02.07.03.1,0,.05-.03.09-.03.13,0,.03.02.07.03.1,0,.05-.03.09-.03.13,0,.03.02.07.03.1,0,.05-.03.09-.03.13,0,.03.02.07.03.1,0,.05-.03.09-.03.13,0,.04.02.07.03.1,0,.05-.03.09-.03.13,0,.03.02.07.03.1,0,.05-.03.09-.03.13,0,.03.02.07.03.1,0,.05-.03.09-.03.13,0,.03.02.07.03.1,0,.05-.03.09-.03.13,0,.03.02.07.03.1,0,.05-.03.09-.03.13,0,.03.02.07.03.1,0,.05-.03.09-.03.13,0,.03.02.07.03.1,0,.05-.03.09-.03.13,0,.03.02.07.03.1,0,.05-.03.09-.03.13,0,.03.02.07.03.1,0,.05-.03.09-.03.13.02.47.47.89,1.14,1.05l15.94,3.8L.73,88.28c-.54.25-.79.67-.7,1.08,0,.08-.02.16,0,.24,0,.08-.02.16,0,.24,0,.08-.02.16,0,.24,0,.08-.02.16,0,.24,0,.08-.02.16,0,.24,0,.08-.02.16,0,.24,0,.08-.02.16,0,.24,0,.08-.02.16,0,.24,0,.08-.02.16,0,.24,0,.08-.02.16,0,.24,0,.08-.02.16,0,.24,0,.08-.02.16,0,.24,0,.08-.02.16,0,.24,0,.08-.02.16,0,.24,0,.08-.02.16,0,.24,0,.08-.02.16,0,.24,0,.08-.02.16,0,.24,0,.08-.02.16,0,.24,0,.08-.02.16,0,.24,0,.08-.02.16,0,.24-.02.19,0,.38.12.55.34.5,1.17.77,1.97.64l55.02-8.66-5.62,10.86c-.08.16-.09.32-.07.47-.01.08-.01.16,0,.24-.01.08-.01.16,0,.24-.01.08-.01.16,0,.24-.01.08-.01.16,0,.24-.01.08-.01.16,0,.24-.01.08-.01.16,0,.24-.01.08-.01.16,0,.24-.01.08-.01.16,0,.24-.01.08-.01.16,0,.24-.01.08-.01.16,0,.24-.01.08-.01.16,0,.24-.01.08-.01.16,0,.24-.01.08-.01.16,0,.24-.01.08-.01.16,0,.24-.01.08-.01.16,0,.24-.01.08-.01.16,0,.24-.01.08-.01.16,0,.24-.01.08-.01.16,0,.24-.01.08-.01.16,0,.24-.01.08-.01.16,0,.24-.06.35.12.71.52.96.5.31,1.23.39,1.85.21l26.91-7.56,4.03,18.64c.09.41.51.76,1.1.91.59.14,1.26.06,1.73-.21l14.59-8.38,12.32,29.84c.2.48.85.82,1.61.84.02,0,.04,0,.06,0,.73,0,1.39-.31,1.63-.77l15.84-30.49,17.63,9.93c.51.29,1.23.35,1.84.17.61-.19,1-.59,1-1.03v-16.87l35.93,11.2c.7.22,1.54.1,2.05-.29.31-.24.42-.54.38-.84.01-.08.01-.16,0-.24.01-.08.01-.16,0-.23.01-.08.01-.16,0-.24.01-.08.01-.16,0-.24.01-.08.01-.16,0-.24.01-.08.01-.16,0-.24.01-.08.01-.16,0-.24.01-.08.01-.16,0-.24.01-.08.01-.16,0-.24.01-.08.01-.16,0-.24.01-.08.01-.16,0-.24.01-.08.01-.16,0-.24.01-.08.01-.16,0-.24.01-.08.01-.16,0-.24.01-.08.01-.16,0-.24.01-.08.01-.16,0-.24.01-.08.01-.16,0-.24.01-.08.01-.16,0-.24.01-.08.01-.16,0-.24.01-.08.01-.16,0-.24.05-.27-.03-.55-.27-.78l-14.64-14.19,18.24.33c.68.01,1.33-.25,1.62-.67.12-.17.15-.36.13-.55.02-.08,0-.16,0-.24.02-.08,0-.16,0-.24.02-.08,0-.16,0-.24.02-.08,0-.16,0-.24.02-.08,0-.16,0-.24.02-.08,0-.16,0-.24.02-.08,0-.16,0-.24.02-.08,0-.16,0-.23.02-.08,0-.16,0-.24.02-.08,0-.16,0-.24.02-.08,0-.16,0-.24.02-.08,0-.16,0-.24.02-.08,0-.16,0-.23.02-.08,0-.16,0-.24.02-.08,0-.16,0-.24.02-.08,0-.16,0-.24.02-.08,0-.16,0-.24.02-.08,0-.16,0-.24.02-.08,0-.16,0-.24.02-.08,0-.16,0-.24.07-.33-.08-.68-.44-.93l-10.07-7.21,38.98-7.53c.78-.15,1.3-.64,1.23-1.18,0-.02-.02-.04-.03-.07,0-.06.03-.11.03-.17,0-.02-.02-.04-.03-.07,0-.06.03-.11.03-.17,0-.02-.02-.04-.03-.07,0-.06.03-.11.03-.17,0-.02-.02-.04-.03-.07,0-.06.03-.11.03-.17,0-.02-.02-.04-.03-.07,0-.06.03-.11.03-.17,0-.02-.02-.04-.03-.07,0-.06.03-.11.03-.17,0-.02-.02-.04-.03-.07,0-.06.03-.11.03-.17,0-.02-.02-.04-.03-.07,0-.06.03-.11.03-.17,0-.02-.02-.04-.03-.07,0-.06.03-.11.03-.17,0-.02-.02-.04-.03-.07,0-.06.03-.11.03-.17,0-.02-.02-.04-.03-.07,0-.06.03-.11.03-.17,0-.02-.02-.04-.03-.07,0-.06.03-.11.03-.17,0-.02-.02-.04-.03-.07,0-.06.03-.11.03-.17,0-.02-.02-.04-.03-.07,0-.06.03-.11.03-.17,0-.02-.02-.04-.03-.07,0-.06.03-.11.03-.17,0-.02-.02-.04-.03-.07,0-.06.03-.11.03-.17,0-.02-.02-.04-.03-.07,0-.06.03-.11.03-.17,0-.02-.02-.04-.03-.07,0-.06.03-.11.03-.17,0-.02-.02-.04-.03-.07,0-.06.03-.11.03-.17,0-.02-.02-.04-.03-.07,0-.06.03-.11.03-.17,0-.02-.02-.04-.03-.07,0-.06.03-.11.03-.17-.06-.54-.68-.97-1.49-1.04Z"/>
  <path class="st0" d="M176.18,58.12c-.25-.34-.23-.75.06-1.07l11.03-12.43-16.32-1.66c-.55-.06-1.02-.28-1.27-.61-.25-.33-.25-.71,0-1.04l16.18-20.98-36.24,13.86c-.52.2-1.15.2-1.67.02-.53-.19-.87-.54-.91-.93l-1.23-12.21-17.71,9.2c-.44.23-1.03.3-1.57.19-.54-.11-.96-.38-1.14-.74l-12.11-24.85-8.51,17.67c-.16.34-.55.6-1.05.72-.5.12-1.06.08-1.51-.1l-19.66-8.12,4.87,14.08c.14.39-.06.81-.5,1.09-.45.28-1.09.37-1.67.26l-44.78-8.88,23.38,17.08c.43.32.56.77.33,1.17-.23.4-.78.68-1.42.73l-26.79,1.97,23.75,7.85c.6.2.98.61.95,1.06-.03.45-.44.84-1.07,1.01l-32.81,8.93,21.88,5.22c.6.14,1.04.5,1.12.92.09.42-.19.84-.72,1.08l-39.01,18.12,52.1-8.2c.61-.1,1.25.03,1.68.34.42.31.56.74.36,1.13l-8.17,15.77,25.42-7.14c.49-.14,1.05-.12,1.52.06.47.17.78.48.86.83l3.9,18.03,14.27-8.2c.32-.18.72-.28,1.13-.28.17,0,.34.02.5.05.57.11,1.01.41,1.16.79l11.56,28.02,14.84-28.57c.19-.36.63-.63,1.18-.73.55-.1,1.14-.01,1.57.23l16.72,9.41v-16.2c0-.39.3-.75.8-.96.5-.21,1.13-.23,1.66-.07l32.66,10.18-18.16-17.6c-.36-.35-.4-.81-.09-1.19.31-.37.93-.58,1.56-.59l22.72.41-14.61-10.46c-.4-.29-.55-.7-.39-1.08.16-.38.61-.68,1.18-.79l39.32-7.59-39.79-3.58c-.57-.05-1.06-.29-1.32-.63Z"/>
  <path d="M225.77,60.8l-45.24-4.08,11.01-12.41c.29-.33.31-.72.07-1.07-.24-.34-.73-.58-1.29-.64l-16.48-1.68,17.75-23.01c.35-.45.2-1-.35-1.34-.55-.35-1.39-.41-2.05-.16l-38.89,14.88-1.26-12.53c-.04-.42-.43-.79-1.02-.96-.58-.17-1.26-.12-1.77.14l-18.33,9.52L114.91.79c-.23-.47-.89-.79-1.64-.79h0c-.75,0-1.41.32-1.64.79l-9.47,19.66-21.29-8.8c-.59-.24-1.35-.23-1.91.04-.57.27-.84.73-.68,1.18l5.13,14.85-47.87-9.49c-.74-.15-1.54.05-1.95.48-.41.43-.34.99.18,1.37l25.26,18.45-29.24,2.15c-.76.06-1.37.44-1.51.93-.13.5.24.99.93,1.22l25.58,8.45-33.44,9.1c-.66.18-1.08.61-1.07,1.08.02.47.47.89,1.14,1.05l22.96,5.48L.73,88.28c-.68.31-.92.9-.58,1.4.34.5,1.17.77,1.97.64l57.8-9.09-8.4,16.23c-.22.42-.04.9.46,1.2.5.31,1.23.39,1.85.21l26.91-7.56,4.03,18.64c.09.41.51.76,1.1.91.59.14,1.26.06,1.73-.21l14.59-8.38,12.32,29.84c.2.48.85.82,1.61.84.02,0,.04,0,.06,0,.73,0,1.39-.31,1.63-.77l15.84-30.49,17.63,9.93c.51.29,1.23.35,1.84.17.61-.19,1-.59,1-1.03v-16.87l35.93,11.2c.7.22,1.54.1,2.05-.29.51-.39.55-.96.11-1.38l-19.83-19.22,23.43.42c.68.01,1.33-.25,1.62-.67.29-.42.17-.91-.3-1.24l-15.5-11.09,44.41-8.58c.78-.15,1.3-.64,1.23-1.18-.06-.54-.68-.97-1.49-1.04ZM177.97,69.93c-.57.11-1.02.41-1.18.79-.16.38-.01.79.39,1.08l14.61,10.46-22.72-.41c-.63.01-1.25.22-1.56.59-.31.38-.28.83.09,1.19l18.16,17.6-32.66-10.18c-.53-.17-1.16-.14-1.66.07-.5.21-.8.57-.8.96v16.2l-16.72-9.41c-.44-.24-1.03-.33-1.57-.23-.55.1-.99.37-1.18.73l-14.84,28.57-11.56-28.02c-.16-.38-.6-.68-1.16-.79-.16-.03-.33-.05-.5-.05-.41,0-.81.1-1.13.28l-14.27,8.2-3.9-18.03c-.08-.35-.39-.66-.86-.83-.47-.17-1.03-.19-1.52-.06l-25.42,7.14,8.17-15.77c.2-.39.07-.83-.36-1.13-.42-.31-1.06-.44-1.68-.34l-52.1,8.2,39.01-18.12c.53-.24.8-.66.72-1.08-.09-.42-.52-.78-1.12-.92l-21.88-5.22,32.81-8.93c.62-.17,1.04-.57,1.07-1.01.02-.45-.35-.86-.95-1.06l-23.75-7.85,26.79-1.97c.64-.05,1.19-.33,1.42-.73.23-.4.1-.85-.33-1.17l-23.38-17.08,44.78,8.88c.58.11,1.22.02,1.67-.26.45-.28.64-.69.5-1.09l-4.87-14.08,19.66,8.12c.45.19,1.01.22,1.51.1.5-.12.89-.39,1.05-.72l8.51-17.67,12.11,24.85c.17.35.6.63,1.14.74.54.11,1.13.04,1.57-.19l17.71-9.2,1.23,12.21c.04.39.38.74.91.93.53.18,1.16.18,1.67-.02l36.24-13.86-16.18,20.98c-.25.33-.25.71,0,1.04.25.32.73.55,1.27.61l16.32,1.66-11.03,12.43c-.29.33-.31.73-.06,1.07.25.34.75.58,1.32.63l39.79,3.58-39.32,7.59Z"/>
</svg>