<?xml version="1.0" encoding="UTF-8"?>
<svg xmlns="http://www.w3.org/2000/svg" xmlns:xlink="http://www.w3.org/1999/xlink" version="1.1" viewBox="0 0 304 570.67">
  <!-- Generator: Adobe Illustrator 29.7.1, SVG Export Plug-In . SVG Version: 2.1.1 Build 8)  -->
  <defs>
    <style>
      .st0, .st1, .st2, .st3, .st4, .st5, .st6, .st7, .st8, .st9 {
        opacity: .6;
      }

      .st0, .st10 {
        fill: #002550;
      }

      .st11 {
        fill: url(#linear-gradient7);
      }

      .st11, .st5, .st12, .st13, .st14, .st15, .st16, .st17, .st18, .st19, .st20, .st21, .st22 {
        stroke-miterlimit: 10;
      }

      .st11, .st5, .st14, .st16, .st17, .st18, .st19, .st20, .st22 {
        stroke: #000;
      }

      .st11, .st16 {
        stroke-width: 1.89px;
      }

      .st1 {
        fill: url(#radial-gradient19);
      }

      .st2 {
        fill: url(#radial-gradient18);
      }

      .st3 {
        fill: url(#radial-gradient20);
      }

      .st23 {
        fill: #0904bc;
      }

      .st24 {
        fill: url(#linear-gradient2);
      }

      .st25 {
        fill: url(#linear-gradient1);
      }

      .st26 {
        fill: url(#linear-gradient9);
      }

      .st27 {
        fill: url(#linear-gradient3);
      }

      .st28 {
        fill: url(#linear-gradient6);
      }

      .st29 {
        fill: url(#linear-gradient8);
      }

      .st30 {
        fill: url(#linear-gradient5);
      }

      .st31 {
        fill: url(#linear-gradient4);
      }

      .st32 {
        fill: #000cef;
      }

      .st33 {
        fill: url(#radial-gradient21);
      }

      .st34 {
        fill: url(#radial-gradient16);
      }

      .st35 {
        fill: url(#radial-gradient17);
      }

      .st36 {
        fill: url(#radial-gradient12);
      }

      .st37 {
        fill: url(#radial-gradient15);
      }

      .st38 {
        fill: url(#radial-gradient10);
      }

      .st39 {
        fill: url(#radial-gradient13);
      }

      .st40 {
        fill: url(#radial-gradient11);
      }

      .st41 {
        fill: url(#radial-gradient14);
      }

      .st42 {
        fill: #faf3d8;
      }

      .st43 {
        fill: url(#linear-gradient13);
      }

      .st44 {
        fill: url(#linear-gradient12);
      }

      .st45 {
        fill: url(#linear-gradient11);
      }

      .st46 {
        fill: url(#linear-gradient10);
      }

      .st47, .st4, .st5, .st8 {
        fill: #003671;
      }

      .st48 {
        fill: #1929f2;
      }

      .st49 {
        fill: url(#radial-gradient);
      }

      .st4, .st12, .st50, .st51 {
        mix-blend-mode: multiply;
      }

      .st52 {
        fill: url(#linear-gradient);
      }

      .st5, .st13, .st19 {
        stroke-width: .75px;
      }

      .st12 {
        stroke: #32a9f2;
      }

      .st12, .st14, .st15, .st16, .st17, .st18, .st19, .st20, .st21, .st22 {
        fill: none;
      }

      .st12, .st17, .st21 {
        stroke-width: .38px;
      }

      .st13 {
        fill: url(#linear-gradient14);
        stroke: #fff;
      }

      .st53 {
        fill: #f9f7f7;
      }

      .st14 {
        stroke-width: 1.51px;
      }

      .st54 {
        fill: #012554;
      }

      .st55 {
        isolation: isolate;
      }

      .st15 {
        stroke: #f9f7f7;
        stroke-width: .07px;
      }

      .st56 {
        fill: #f2be92;
      }

      .st6 {
        fill: #0a0ae0;
      }

      .st7 {
        fill: #af7f67;
      }

      .st57 {
        fill: #fff;
      }

      .st18 {
        stroke-width: 1.13px;
      }

      .st51, .st58 {
        fill: #052044;
      }

      .st20 {
        stroke-width: .28px;
      }

      .st21 {
        stroke: #003671;
      }

      .st59 {
        fill: #00326a;
      }

      .st60 {
        fill: url(#radial-gradient1);
      }

      .st61 {
        fill: url(#radial-gradient6);
      }

      .st62 {
        fill: url(#radial-gradient9);
      }

      .st63 {
        fill: url(#radial-gradient8);
      }

      .st64 {
        fill: url(#radial-gradient3);
      }

      .st65 {
        fill: url(#radial-gradient2);
      }

      .st66 {
        fill: url(#radial-gradient5);
      }

      .st67 {
        fill: url(#radial-gradient4);
      }

      .st68 {
        fill: url(#radial-gradient7);
      }

      .st22 {
        stroke-width: 2.26px;
      }

      .st69 {
        fill: #00d;
      }

      .st70 {
        fill: #f9c398;
      }
    </style>
    <radialGradient id="radial-gradient" cx="146.83" cy="51.34" fx="146.83" fy="51.34" r="5.28" gradientUnits="userSpaceOnUse">
      <stop offset="0" stop-color="#000cef"/>
      <stop offset="1" stop-color="#fff"/>
    </radialGradient>
    <radialGradient id="radial-gradient1" cx="211" cy="33.89" fx="211" fy="33.89" r="5.28" xlink:href="#radial-gradient"/>
    <radialGradient id="radial-gradient2" cx="223.46" cy="61.91" fx="223.46" fy="61.91" r="5.28" xlink:href="#radial-gradient"/>
    <radialGradient id="radial-gradient3" cx="247.62" cy="126.46" fx="247.62" fy="126.46" r="5.28" xlink:href="#radial-gradient"/>
    <radialGradient id="radial-gradient4" cx="216.28" cy="107.21" fx="216.28" fy="107.21" r="5.28" xlink:href="#radial-gradient"/>
    <radialGradient id="radial-gradient5" cx="267.62" cy="91.35" fx="267.62" fy="91.35" r="5.28" xlink:href="#radial-gradient"/>
    <radialGradient id="radial-gradient6" cx="194.77" cy="64.17" fx="194.77" fy="64.17" r="5.28" xlink:href="#radial-gradient"/>
    <radialGradient id="radial-gradient7" cx="228.74" cy="160.43" fx="228.74" fy="160.43" r="5.28" xlink:href="#radial-gradient"/>
    <radialGradient id="radial-gradient8" cx="123.04" cy="47.56" fx="123.04" fy="47.56" r="5.28" xlink:href="#radial-gradient"/>
    <radialGradient id="radial-gradient9" cx="186.19" cy="-388.1" fx="186.19" fy="-388.1" r="5.28" gradientTransform="translate(1.88 324.72) scale(.89 .78)" xlink:href="#radial-gradient"/>
    <radialGradient id="radial-gradient10" cx="102.39" cy="-393.38" fx="102.39" fy="-393.38" gradientTransform="translate(1.88 324.72) scale(.89 .78)" xlink:href="#radial-gradient"/>
    <radialGradient id="radial-gradient11" cx="146.18" cy="-382.81" fx="146.18" fy="-382.81" r="5.28" gradientTransform="translate(1.88 324.72) scale(.89 .78)" xlink:href="#radial-gradient"/>
    <radialGradient id="radial-gradient12" cx="103.52" cy="-357.52" fx="103.52" fy="-357.52" r="5.28" gradientTransform="translate(1.88 324.72) scale(.89 .78)" xlink:href="#radial-gradient"/>
    <radialGradient id="radial-gradient13" cx="95.87" cy="80.78" fx="95.87" fy="80.78" r="5.28" xlink:href="#radial-gradient"/>
    <radialGradient id="radial-gradient14" cx="101.15" cy="119.66" fx="101.15" fy="119.66" r="5.28" xlink:href="#radial-gradient"/>
    <radialGradient id="radial-gradient15" cx="72.84" cy="87.95" fx="72.84" fy="87.95" r="5.28" xlink:href="#radial-gradient"/>
    <radialGradient id="radial-gradient16" cx="51.7" cy="118.91" fx="51.7" fy="118.91" r="5.28" xlink:href="#radial-gradient"/>
    <radialGradient id="radial-gradient17" cx="76.61" cy="120.8" fx="76.61" fy="120.8" r="5.28" xlink:href="#radial-gradient"/>
    <linearGradient id="linear-gradient" x1="29.8" y1="327.44" x2="264.8" y2="327.44" gradientUnits="userSpaceOnUse">
      <stop offset="0" stop-color="#1320bf"/>
      <stop offset=".51" stop-color="#000170"/>
      <stop offset="1" stop-color="#1320bf"/>
    </linearGradient>
    <linearGradient id="linear-gradient1" x1="-19.33" y1="376.5" x2="63.51" y2="361.89" gradientUnits="userSpaceOnUse">
      <stop offset=".45" stop-color="#1320bf"/>
      <stop offset=".71" stop-color="#fff"/>
      <stop offset=".93" stop-color="#1320bf"/>
    </linearGradient>
    <linearGradient id="linear-gradient2" x1="108.23" y1="385.7" x2="215.11" y2="385.7" gradientUnits="userSpaceOnUse">
      <stop offset=".09" stop-color="#000195"/>
      <stop offset="1" stop-color="#1320bf"/>
    </linearGradient>
    <radialGradient id="radial-gradient18" cx="127.2" cy="381.46" fx="127.2" fy="381.46" r="59.56" gradientUnits="userSpaceOnUse">
      <stop offset=".16" stop-color="#fff"/>
      <stop offset="1" stop-color="blue"/>
    </radialGradient>
    <linearGradient id="linear-gradient3" x1="98.43" y1="553.67" x2="154.33" y2="456.84" gradientUnits="userSpaceOnUse">
      <stop offset=".09" stop-color="#000159"/>
      <stop offset=".76" stop-color="#1601ff"/>
    </linearGradient>
    <radialGradient id="radial-gradient19" cx="118.58" cy="486.55" fx="118.58" fy="486.55" r="21.6" xlink:href="#radial-gradient18"/>
    <linearGradient id="linear-gradient4" x1="204.49" y1="564.81" x2="204.49" y2="457.71" xlink:href="#linear-gradient3"/>
    <radialGradient id="radial-gradient20" cx="198.43" cy="513.52" fx="198.43" fy="513.52" r="38.02" gradientUnits="userSpaceOnUse">
      <stop offset=".16" stop-color="#fff"/>
      <stop offset="1" stop-color="#0000c2"/>
    </radialGradient>
    <linearGradient id="linear-gradient5" x1="166.28" y1="305.77" x2="231.01" y2="305.77" gradientUnits="userSpaceOnUse">
      <stop offset="0" stop-color="#062a7a"/>
      <stop offset=".82" stop-color="#00439b"/>
    </linearGradient>
    <linearGradient id="linear-gradient6" x1="152.49" y1="300" x2="428.82" y2="400.57" gradientUnits="userSpaceOnUse">
      <stop offset=".29" stop-color="#1320bf"/>
      <stop offset=".39" stop-color="#fff"/>
      <stop offset=".52" stop-color="#1320bf"/>
    </linearGradient>
    <radialGradient id="radial-gradient21" cx="167.56" cy="242.73" fx="148.79" fy="225.33" r="74.18" gradientUnits="userSpaceOnUse">
      <stop offset=".03" stop-color="blue"/>
      <stop offset="1" stop-color="#fff"/>
    </radialGradient>
    <linearGradient id="linear-gradient7" x1="156.87" y1="216.42" x2="184.69" y2="168.24" gradientUnits="userSpaceOnUse">
      <stop offset="0" stop-color="#021f4d"/>
      <stop offset="1" stop-color="#0064b8"/>
    </linearGradient>
    <linearGradient id="linear-gradient8" x1="169.48" y1="198.18" x2="169.48" y2="165.63" xlink:href="#linear-gradient3"/>
    <linearGradient id="linear-gradient9" x1="103.23" y1="101.97" x2="136.63" y2="101.97" gradientUnits="userSpaceOnUse">
      <stop offset=".09" stop-color="#fff"/>
      <stop offset=".42" stop-color="#1320bf"/>
      <stop offset=".93" stop-color="#1320bf"/>
    </linearGradient>
    <linearGradient id="linear-gradient10" x1="172.64" y1="113.61" x2="198.52" y2="113.61" xlink:href="#linear-gradient9"/>
    <linearGradient id="linear-gradient11" x1="174.01" y1="84.18" x2="178.49" y2="84.18" xlink:href="#linear-gradient9"/>
    <linearGradient id="linear-gradient12" x1="150.22" y1="85.48" x2="172.64" y2="85.48" xlink:href="#linear-gradient9"/>
    <linearGradient id="linear-gradient13" x1="129.41" y1="266.43" x2="169.54" y2="314.27" xlink:href="#linear-gradient3"/>
    <linearGradient id="linear-gradient14" x1="128.13" y1="285.58" x2="143.32" y2="303.68" gradientUnits="userSpaceOnUse">
      <stop offset=".16" stop-color="blue"/>
      <stop offset=".48" stop-color="#fff"/>
      <stop offset=".7" stop-color="blue"/>
    </linearGradient>
  </defs>
  <g class="st55">
    <g id="Layer_1">
      <g>
        <g>
          <g>
            <path class="st32" d="M227.74,89.34s7.16,5.15,8.48,24.7c.64,9.47-1.34,19.71-11.61,27.05,0,0-.54,2.19-1.71,2,0,0,2.27,21.05-11.86,30.61,0,0-7.66,6.98-19.26,3.89,0,0,13.32,7.83,28.57,4.57,0,0-.53-1.47,1.71-1.83,0,0,1.92.07,2.04.82,0,0,15.73-6.76,20.85-27.09,0,0-.64,19.61-20.66,28.21,0,0-.44,1.98-1.93,2.23,0,0-1.06.55-2.04-.82,0,0-15.87,5.68-38.54-10.17,0,0-2.75,2.16-4.82-.66,0,0-1.04-5.07,3.88-4.64,0,0,2.82,1.42,1.68,3.96,0,0,11.9,7.74,20.31,4.05,8.41-3.68,19.67-9.72,19.27-33.36,0,0-2.61.42-1.6-2.8,0,0,1.25-1.73,3.41-.17,2.17,1.56,21.25-19.89,3.84-50.53Z"/>
            <path class="st32" d="M233.73,190.4s8.71-1.38,18.69-18.24c4.83-8.17,7.67-18.2,1.8-29.38,0,0,.51-2.2-.63-2.56,0,0,11.5-17.78,3.18-32.67,0,0-3.7-9.68-15.44-12.14,0,0,15.42-1,27.57,8.78,0,0-1.13,1.07.7,2.4,0,0,1.75.8,2.19.19,0,0,11.01,13.11,6.42,33.57,0,0,8.25-17.8-5.76-34.49,0,0,.5-1.97-.72-2.86,0,0-.69-.97-2.19-.19,0,0-11.62-12.21-38.99-8.26,0,0-1.49-3.17-4.61-1.58,0,0-3.21,4.06,1.38,5.89,0,0,3.16,0,3.29-2.78,0,0,14.11-1.55,19.96,5.52,5.85,7.08,13.19,17.53,2.2,38.47,0,0-2.14-1.55-2.69,1.78,0,0,.34,2.11,2.97,1.69,2.64-.42,10.02,27.33-19.31,46.85Z"/>
          </g>
          <path class="st32" d="M162.91,49.37s7.4-4.79,26.09,1.09c9.05,2.85,17.86,8.42,20.97,20.67,0,0,1.84,1.3,1.24,2.32,0,0,20.43,5.55,24.19,22.19,0,0,3.71,9.68-3.39,19.35,0,0,12.15-9.56,14.66-24.94,0,0-1.56-.04-1.08-2.26,0,0,.77-1.77,1.5-1.61,0,0-.57-17.11-17.64-29.28,0,0,18.03,7.74,18.75,29.52,0,0,1.69,1.14,1.37,2.61,0,0,.13,1.19-1.5,1.61,0,0-.49,16.85-23.51,32.19,0,0,1.01,3.35-2.38,4.25,0,0-5.1-.88-2.91-5.3,0,0,2.35-2.11,4.3-.13,0,0,11.54-8.27,11.17-17.44s-1.89-21.86-24.05-30.1c0,0-.56,2.58-3.19.47,0,0-1.16-1.79,1.08-3.24s-10.79-27.03-45.66-21.97Z"/>
          <path class="st32" d="M117.9,152.48s-8.82.16-21.57-14.72c-6.18-7.2-10.72-16.59-6.88-28.62,0,0-.88-2.08.18-2.63,0,0-14.41-15.51-8.8-31.62,0,0,1.97-10.18,13.1-14.64,0,0-15.36,1.7-25.62,13.43,0,0,1.3.86-.27,2.49,0,0-1.58,1.09-2.13.57,0,0-8.56,14.83-.5,34.18,0,0-11.21-16.1-.32-34.97,0,0-.83-1.85.22-2.94,0,0,.52-1.08,2.13-.57,0,0,9.32-14.04,36.96-14.9,0,0,.91-3.38,4.26-2.35,0,0,3.86,3.44-.33,6.04,0,0-3.11.55-3.72-2.16,0,0-14.17.92-18.7,8.9-4.53,7.98-9.95,19.55,4.51,38.27,0,0,1.84-1.9,2.96,1.29,0,0,.04,2.14-2.63,2.18-2.67.04-5.13,28.65,27.15,42.79Z"/>
          <path class="st32" d="M254.82,84.96s1.73-7.9-9.34-22.07c-5.36-6.86-12.99-12.64-24.51-11.36,0,0-1.71-1.17-2.4-.32,0,0-11.35-15.77-26.86-13.64,0,0-9.51-.07-15.54,9.14,0,0,4.3-13.52,16.71-20.63,0,0,.54,1.33,2.29.2,0,0,1.27-1.23.9-1.81,0,0,14.89-5.02,30.84,5.73,0,0-12.46-13-31.41-6.61,0,0-1.52-1.08-2.68-.34,0,0-1.06.27-.9,1.81,0,0-14.32,5.85-20.09,30.57,0,0-3.21.21-2.89,3.41,0,0,2.4,4.1,5.49.79,0,0,1.06-2.7-1.27-3.74,0,0,3.39-12.58,11.39-15.22,8-2.64,19.39-5.42,33.62,10.98,0,0-2.04,1.31.62,2.89,0,0,1.91.42,2.44-1.98s26.71.57,33.59,32.17Z"/>
          <g>
            <path class="st32" d="M91.91,71.23s-1.91-6.7,8.41-19.09c5-6,12.22-11.13,23.42-10.34,0,0,1.62-1.04,2.31-.33,0,0,10.54-13.76,25.63-12.34,0,0,9.22-.31,15.33,7.41,0,0-4.57-11.43-16.8-17.18,0,0-.48,1.15-2.21.23,0,0-1.27-1.01-.92-1.52,0,0-14.58-3.91-29.72,5.69,0,0,11.69-11.42,30.24-6.45,0,0,1.44-.96,2.59-.36,0,0,1.04.2.92,1.52,0,0,14.05,4.62,20.37,25.58,0,0,3.11.1,2.9,2.84,0,0-2.2,3.56-5.3.82,0,0-1.1-2.28,1.13-3.22,0,0-3.65-10.66-11.49-12.7-7.83-2.04-18.95-4.12-32.25,10.25,0,0,2.02,1.07-.52,2.49,0,0-1.84.41-2.42-1.62s-25.86,1.17-31.61,28.34Z"/>
            <path class="st32" d="M145.83,7.64s-6.71-3.58-23.18,1.48c-7.97,2.45-15.66,7.02-18.09,16.7,0,0-1.61,1.06-1.04,1.85,0,0-18.02,4.84-20.91,17.97,0,0-3.04,7.67,3.54,15.08,0,0-11.06-7.2-13.71-19.2,0,0,1.39-.07.9-1.79,0,0-.73-1.37-1.38-1.22,0,0,.04-13.42,14.9-23.37,0,0-15.83,6.49-15.88,23.58,0,0-1.47.93-1.15,2.08,0,0-.08.93,1.38,1.22,0,0,.89,13.19,21.77,24.67,0,0-.81,2.65,2.23,3.27,0,0,4.51-.81,2.44-4.22,0,0-2.15-1.6-3.83,0,0,0-10.49-6.21-10.41-13.41.08-7.2,1.09-17.18,20.58-24.16,0,0,.56,2.01,2.85.29,0,0,.98-1.43-1.05-2.52s8.87-21.44,40.02-18.31Z"/>
          </g>
          <path class="st32" d="M64.74,54.22s-7.63,4.42-10.87,23.75c-1.57,9.36-.6,19.74,8.9,28.06,0,0,.32,2.23,1.51,2.16,0,0-4.32,20.72,8.8,31.62,0,0,6.94,7.7,18.78,5.76,0,0-14.03,6.48-28.88,1.74,0,0,.67-1.41-1.52-1.99,0,0-1.92-.12-2.11.61,0,0-14.99-8.27-18.08-29.01,0,0-1.29,19.58,17.79,30.1,0,0,.25,2.02,1.71,2.41,0,0,1,.66,2.11-.61,0,0,15.24,7.21,39.35-6.33,0,0,2.53,2.42,4.87-.19,0,0,1.53-4.94-3.4-5,0,0-2.95,1.14-2.07,3.77,0,0-12.61,6.53-20.61,2.04-8.01-4.49-18.62-11.6-15.9-35.1,0,0,2.55.68,1.87-2.63,0,0-1.07-1.85-3.38-.51-2.31,1.34-19.19-21.88,1.15-50.66Z"/>
          <circle class="st49" cx="146.83" cy="51.34" r="5.28"/>
          <circle class="st60" cx="211" cy="33.89" r="5.28"/>
          <circle class="st65" cx="223.46" cy="61.91" r="5.28"/>
          <circle class="st64" cx="247.62" cy="126.46" r="5.28"/>
          <circle class="st67" cx="216.28" cy="107.21" r="5.28"/>
          <circle class="st66" cx="267.62" cy="91.35" r="5.28"/>
          <circle class="st61" cx="194.77" cy="64.17" r="5.28"/>
          <circle class="st68" cx="228.74" cy="160.43" r="5.28"/>
          <circle class="st63" cx="123.04" cy="47.56" r="5.28"/>
          <ellipse class="st62" cx="167.56" cy="20.41" rx="4.7" ry="4.14"/>
          <ellipse class="st38" cx="92.99" cy="16.26" rx="4.7" ry="4.14"/>
          <ellipse class="st40" cx="131.96" cy="24.55" rx="4.7" ry="4.14"/>
          <ellipse class="st36" cx="94" cy="44.38" rx="4.7" ry="4.14"/>
          <circle class="st39" cx="95.87" cy="80.78" r="5.28"/>
          <circle class="st41" cx="101.15" cy="119.66" r="5.28"/>
          <circle class="st37" cx="72.84" cy="87.95" r="5.28"/>
          <circle class="st34" cx="51.7" cy="118.91" r="5.28"/>
          <circle class="st35" cx="76.61" cy="120.8" r="5.28"/>
          <path class="st52" d="M198.64,226.13l45.98,21s29.46,108.47,17.17,170.95c0,0-13.42-13.03-32.68-2.08-19.25,10.95-41.9,13.46-58.51,11.45s-33.93-6.54-56.79.63c0,0-23.07,5.44-38.25-13.51-15.18-18.95-26.88-20.46-45.76-12.91,0,0,10-61.81,34.06-108.48,0,0,26.25-38.34,34.22-53.45,7.97-15.11,100.56-13.59,100.56-13.59Z"/>
          <path class="st22" d="M198.64,226.88l45.98,21s29.46,108.47,17.17,170.95c0,0-13.42-13.03-32.68-2.08-19.25,10.95-41.9,13.46-58.51,11.45s-33.93-6.54-56.79.63c0,0-23.07,5.44-38.25-13.51-15.18-18.95-26.88-20.46-45.76-12.91,0,0,10-61.81,34.06-108.48,0,0,26.25-38.34,34.22-53.45,7.97-15.11,100.56-13.59,100.56-13.59Z"/>
          <g class="st50">
            <path class="st58" d="M264.23,355.97c-9.5-18.34-20.06-73.56-20.2-74.11l-4.45,5.11c.6,2.26,14.9,57.92,24.51,76.48l.14-7.48Z"/>
          </g>
          <g class="st50">
            <path class="st58" d="M226.48,387.3c2.38-23.77-2.12-93.92-2.16-94.47l2.26-.18c.19,2.34,9.34,85.97-.12,107.45h0c-1.23-.17-.1-11.57.02-12.8Z"/>
          </g>
          <path class="st51" d="M92.35,370.51l-2.12-.48s-7.96,27.09-7.96,30.49,8.06-26.8,10.07-30.01"/>
          <path class="st51" d="M74.12,333.79s-11.09,17.27-17.13,40.3c0,0,12.75-30.39,17.13-40.3Z"/>
          <path class="st51" d="M208.87,323.75s3.91,20.15,1.01,43.78c0,0-.6-32.95-1.01-43.78Z"/>
          <path class="st48" d="M63.87,293.92S2.4,367.07,6.67,400.78c0,0,2.38,19.36,21.63,35.22,0,0-.39-78.99,35.57-142.08Z"/>
          <path class="st25" d="M63.87,293.92S2.4,367.07,6.67,400.78c0,0,2.38,19.36,21.63,35.22,0,0-.39-78.99,35.57-142.08Z"/>
          <path class="st24" d="M215.11,462.4s.05-19.61-5.24-27.91c0,0-11-12.57-13.14-61.31,0,0-3.28-30.99-5.17-40.43-1.89-9.44-1.89-29.82-1.89-31.33,0,0-1.51-3.02-5.28-1.89-3.77,1.13-53.44,8.17-72.59-.25,0,0-1.03,1.01-1.03,3.65s-7.77,52.7,3.85,95.24c0,0,2.19,9.33,1.43,16.5s3.77,13.59,3.77,13.59l-1.17,32.7s17.83,5.95,30.64-2.62c0,0,3.37-22.15-1.53-34.61-4.91-12.46,0-34.73,0-34.73l2.26-24.54s-.38-4.91,2.26.75c2.64,5.66,23.03,58.51,24.54,63.8,1.51,5.28,2.64,11.7,2.64,15.48s4.15,21.14,7.17,26.42c3.02,5.28,28.45-8.51,28.45-8.51Z"/>
          <path class="st8" d="M111.8,299.28s27.1,6.11,33.89,3.46c0,0-3.25,5.04-16.92,4.41,0,0-8.57-.07-11.21-1.2,0,0-1.13.75-.75,3.02s-1.13,12.46-3.02,17.74c-1.89,5.28,0,43.41,4.15,60.78,0,0,2.64,9.81,2.26,19.63-.38,9.81,5.28,18.5,5.28,18.5l6.79-9.81s1.51,9.81-6.42,20.38c0,0-.38,1.51-.38,3.77s-.2,23.66-.2,23.66l-6.62-2.67,1.17-32.7,1.51,1.13s-5.28-7.93-4.53-16.23c.75-8.3-4.15-25.67-4.15-25.67,0,0-3.58-9.86-3.87-32.49-.29-22.63-.12-37.1,3-55.72Z"/>
          <path class="st2" d="M111.8,299.28s27.1,6.11,33.89,3.46c0,0-3.25,5.04-16.92,4.41,0,0-8.57-.07-11.21-1.2,0,0-1.13.75-.75,3.02s-1.13,12.46-3.02,17.74c-1.89,5.28,0,43.41,4.15,60.78,0,0,2.64,9.81,2.26,19.63-.38,9.81,5.28,18.5,5.28,18.5l6.79-9.81s1.51,9.81-6.42,20.38c0,0-.38,1.51-.38,3.77s-.2,23.66-.2,23.66l-6.62-2.67,1.17-32.7,1.51,1.13s-5.28-7.93-4.53-16.23c.75-8.3-4.15-25.67-4.15-25.67,0,0-3.58-9.86-3.87-32.49-.29-22.63-.12-37.1,3-55.72Z"/>
          <path class="st8" d="M143.81,408.82s-1.51-53.98-3.02-57.38c0,0,.38-2.26-1.51-4.91l-19.25-21.52s18.5,12.05,25.67,13.39c0,0,3.02.58,3.77,6.62,0,0,10.19,31.33,13.21,39.26,3.02,7.93,13.21,32.09,17.36,36.62,4.15,4.53,8.3,8.3,8.3,8.3,0,0,2.26,2.26.75,3.4-1.51,1.13-3.94,2.26-5.55,0-1.62-2.26-13.17-21.24-13.17-21.24l-7.28-19.01-11.93-30.53-3.02-12.46,1.89,15.1-4.34,44.75-.57,4.7s-1.51-1.51-1.32-5.1Z"/>
          <path class="st22" d="M215.11,462.4s.05-19.61-5.24-27.91c0,0-11-12.57-13.14-61.31,0,0-3.28-30.99-5.17-40.43-1.89-9.44-1.89-29.82-1.89-31.33,0,0-1.51-3.02-5.28-1.89-3.77,1.13-53.44,8.17-72.59-.25,0,0-1.03,1.01-1.03,3.65s-7.77,52.7,3.85,95.24c0,0,2.19,9.33,1.43,16.5s3.77,13.59,3.77,13.59l-1.17,32.7s17.83,5.95,30.64-2.62c0,0,3.37-22.15-1.53-34.61-4.91-12.46,0-34.73,0-34.73l2.26-24.54s-.38-4.91,2.26.75c2.64,5.66,23.03,58.51,24.54,63.8,1.51,5.28,2.64,11.7,2.64,15.48s4.15,21.14,7.17,26.42c3.02,5.28,28.45-8.51,28.45-8.51Z"/>
          <polygon points="120.02 325.02 146.83 343.14 153.62 365.79 151.33 363.66 149.84 366.63 148.15 356.92 144.75 344.46 120.02 325.02"/>
          <path class="st8" d="M191.75,428.83s1.89-9.44,1.13-12.83c-.75-3.4,2.6,6.79,1.3,12.83,0,0-.92,1.13-1.68,1.51s-.75-1.51-.75-1.51Z"/>
          <path class="st27" d="M118.33,455.06s4.15,6.04,16.61,4.53c12.46-1.51,16.31-4.53,16.31-4.53,0,0-.08,14.34-5.37,38.5,0,0-1.13,3.4.38,5.28,1.51,1.89,0,4.91,0,4.91,0,0-3.02,1.89,0,6.79,0,0,1.89,7.17,1.89,18.12,0,0,1.13,4.53-3.02,5.66,0,0-10.57,4.53-13.21,3.77l-.38-2.64s-.38-.75-2.64.38c-2.26,1.13-13.21,8.3-23.78,10.19,0,0-16.68,2.3-24.43-2.63-2.27-1.44-3.25-4.25-2.26-6.76.54-1.36,1.52-2.94,3.29-4.57,4.91-4.53,26.42-14.34,34.73-25.67v-3.4s0-1.89,2.26-4.15c2.26-2.26-.38-43.79-.38-43.79Z"/>
          <path class="st0" d="M118.49,457.75s4.96,2.34,6.27,1.24,0,36.8,0,36.8c0,0-.58,5.03-2.84,5.27,0,0-2.64.62-.76,1.75,1.89,1.13,6.42,3.77,7.55,5.66,0,0,.75,1.89-2.64.75-3.4-1.13-6.47-1.8-7.58-1.09s-9.41,7.13-9.41,7.13c0,0-1.23.48-.43-1.08.81-1.56,3.07-1.56,7.79-7.79,0,0-.63-4.93,1.67-6.9s1.52-10.85,1.52-10.85l-1.13-30.9Z"/>
          <path class="st10" d="M145.88,505.52s.94,2.2-.78,3.55c-1.72,1.35-5.87,6.27-5.87,6.27,1.09-2.57,5.31-8.67,5.31-8.67,0,0-3,1.42-6.4,2.56-3.4,1.13-1.13-.75-1.13-.75,1.89-2.26,8.87-4.72,8.87-4.72,0,0,.57.32,0,1.76Z"/>
          <path class="st1" d="M118.49,457.75s4.96,2.34,6.27,1.24,0,36.8,0,36.8c0,0-.58,5.03-2.84,5.27,0,0-2.64.62-.76,1.75,1.89,1.13,6.42,3.77,7.55,5.66,0,0,.75,1.89-2.64.75-3.4-1.13-6.47-1.8-7.58-1.09s-9.41,7.13-9.41,7.13c0,0-1.23.48-.43-1.08.81-1.56,3.07-1.56,7.79-7.79,0,0-.63-4.93,1.67-6.9s1.52-10.85,1.52-10.85l-1.13-30.9Z"/>
          <path class="st18" d="M147.2,525.84s-14.58,4.72-18.43,6.32c-3.85,1.61-5.73,1.98-12.15,5.76-5.27,3.1-15.91,3.91-19.52,4.1-.83.04-1.66.02-2.48-.07-3.85-.43-15.32-1.97-16.2-5.3"/>
          <path class="st22" d="M118.37,455.83c-.01-.24.28-.37.44-.19,1.41,1.47,6.06,5.18,16.12,3.96,8.99-1.09,13.5-2.97,15.32-3.93.45-.24.98.1.97.61-.15,3.93-.95,17.22-5.33,37.29,0,0-1.13,3.4.38,5.28,1.51,1.89,0,4.91,0,4.91,0,0-3.02,1.89,0,6.79,0,0,1.89,7.17,1.89,18.12,0,0,1.13,4.53-3.02,5.66,0,0-10.57,4.53-13.21,3.77l-.38-2.64s-.38-.75-2.64.38c-2.26,1.13-13.21,8.3-23.78,10.19,0,0-16.68,2.3-24.43-2.63-2.27-1.44-3.25-4.25-2.26-6.76.54-1.36,1.52-2.94,3.29-4.58,4.91-4.53,26.42-14.34,34.73-25.67v-3.4s0-1.89,2.26-4.15c2.08-2.08.02-37.35-.33-43.02Z"/>
          <path class="st31" d="M182.88,461.48s3.4,5.66,20.76,2.26c0,0,10.19-.75,12.08-6.04,0,0,1.89.38,1.89,6.04v41.52s0,1.89,1.13,3.02c0,0,2.64,4.46,0,8.08,0,0,3.4,10.79,3.77,13.43.38,2.64,1.89,6.79,4.53,14.72,0,0,1.51,7.55-1.13,13.59,0,0-7.55,9.81-25.29,5.66,0,0-9.81-1.13-11.7-9.44,0,0,0-6.79,3.02-14.34,0,0,2.26-12.83,2.26-19.63,0,0,0-.75-.75-1.51s-2.26-3.4-.75-7.17c1.51-3.77-1.51-14.34-1.51-14.34,0,0-7.55-30.06-8.3-31.64-.75-1.58-2.64-3.84,0-4.22Z"/>
          <path class="st22" d="M183.29,461.97c1.31,1.29,6.18,4.55,20.35,1.78,0,0,8.79-.65,11.56-4.98.39-.6,1.29-.56,1.6.09.42.85.81,2.33.81,4.89v41.52s0,1.89,1.13,3.02c0,0,2.36,3.98.39,7.47-.25.44-.28.96-.13,1.44.8,2.58,3.2,10.4,3.51,12.6.38,2.64,1.89,6.79,4.53,14.72,0,0,1.51,7.55-1.13,13.59,0,0-7.55,9.81-25.29,5.66,0,0-9.81-1.13-11.7-9.44,0,0,0-6.79,3.02-14.34,0,0,2.26-12.83,2.26-19.63,0,0,0-.75-.75-1.51s-2.26-3.4-.75-7.17c1.51-3.77-1.51-14.34-1.51-14.34,0,0-7.55-30.06-8.3-31.64-.61-1.28-1.97-3.02-1.05-3.83.42-.36,1.06-.3,1.46.09Z"/>
          <path class="st19" d="M227.04,544.53c.19,5.85-7.6,11.65-7.6,11.65"/>
          <path class="st19" d="M190.24,551.89s6.79,8.3,22.27,6.04c15.48-2.26,14.88-10.61,14.88-10.61"/>
          <path class="st20" d="M196.73,539.22s7.1-6.96,19.56-1.3"/>
          <path class="st20" d="M201.37,534.72s8.27.01,10.74,1.7"/>
          <path class="st3" d="M181.79,464.53c-.2-.71.57-2.32,1.27-2.1,1.5.47,5.1,2.48,7.17,1.89,2.64-.75,7.81,39.45,7.81,39.45,0,0,1.63,4.72-.63,7.74s-2.26,4.15-1.51,4.91c0,0,1.12,1.51,3.39,0,2.27-1.51,6.8-4.53,12.09-2.26,0,0,2.55,1.34,3.73,2.94,0,0-2.97-2.56-11.66-.67,0,0-5.28.75-5.28,4.53,0,0,1.51,7.17-.75,15.85-2.26,8.68-3.77,7.93-3.02,12.46s1.13,4.53,3.77,6.04,3.77,2.26,3.77,5.28v3.77s0,1.13-3.77-1.13c-3.77-2.26-10.19-3.02-9.06-12.46,1.13-9.44,5.1-19.82,5.1-29.63,0,0,.38-1.51-.75-2.26s-1.89-4.91-.75-7.17c1.13-2.26-4.15-27.63-10.38-46.09,0,0-.36-.51-.52-1.07Z"/>
          <path class="st30" d="M231.01,296.71s-1.13-18.12-19.25-18.87c0,0-15.29,19.06-18.31,21.71,0,0-3.02,2.26-9.81,3.02l-5.28.38s-3.4,0-4.91,1.89l-6.04,7.55s-1.89,3.77-.75,6.79c1.13,3.02,4.15,3.02,4.15,3.02,0,0-.75,1.51.38,2.64,1.13,1.13,3.4,3.4,5.66,3.02,0,0-.38,3.02,5.28,5.66,0,0,7.17.75,9.44-.75l-.38-3.77s3.77-1.89,7.17-4.15c3.4-2.26,8.3-6.79,9.44-9.44s23.22-18.69,23.22-18.69Z"/>
          <path class="st59" d="M229.82,291.29s-15.38,12.62-17.95,15.53-5.72,4.55-7.17,7.31c-1.44,2.77-5.97,6.92-9.37,8.05-3.4,1.13-6.59.94-6.59.94l-4.73,6.23s-1.89,1.68-4.53-.86c0,0-2.59-1.17-2.24.97.35,2.15,4.17,4.04,6.04,4.22,1.86.19,7.9.19,8.28-.94s-.38-4.53-.38-4.53c0,0,10.19-4.53,13.97-9.44,3.77-4.91,14.85-14.08,22.34-19.5l3.52-2.59-1.19-5.41Z"/>
          <path class="st22" d="M231.01,296.71s-1.13-18.12-19.25-18.87c0,0-15.29,19.06-18.31,21.71,0,0-3.02,2.26-9.81,3.02l-5.28.38s-3.4,0-4.91,1.89l-6.04,7.55s-1.89,3.77-.75,6.79c1.13,3.02,4.15,3.02,4.15,3.02,0,0-.75,1.51.38,2.64,1.13,1.13,3.4,3.4,5.66,3.02,0,0-.38,3.02,5.28,5.66,0,0,7.17.75,9.44-.75l-.38-3.77s3.77-1.89,7.17-4.15c3.4-2.26,8.3-6.79,9.44-9.44s23.22-18.69,23.22-18.69Z"/>
          <polygon points="171.74 322.75 178.54 309.54 170.61 322 171.74 322.75"/>
          <polygon points="177.78 328.04 182.31 318.22 176.65 327.28 177.78 328.04"/>
          <path class="st17" d="M192.13,301.24s11.21,3.77,13.72,16.99"/>
          <path d="M187.44,325.99c-1.21,1.21-2.72,4.22-2.78,4.35l-1.16,2.32,2.22-1.33s1.87-1.12,2.59-1.48c.49-.24,2.7-.79,3.98-1.07l-.33-1.47c-.58.13-3.53.8-4.33,1.19-.09.04-.19.1-.3.16l.1-2.66Z"/>
          <path class="st28" d="M227.84,200.68s73.76,132.64,68.86,220.22c0,0-4.91,22.65-43.03,42.66,0,0,25.56-84.14-3.73-188.63,0,0,2.32-2.34,1.99-7.17,0,0-12.03-35.03-16.19-38.43,0,0-3.3-1.39-3.16-11.83,0,0-3.19-13.74-4.73-16.81Z"/>
          <path class="st22" d="M227.84,200.68s73.76,132.64,68.86,220.22c0,0-4.91,22.65-43.03,42.66,0,0,25.56-84.14-3.73-188.63,0,0,2.32-2.34,1.99-7.17,0,0-12.03-35.03-16.19-38.43,0,0-3.3-1.39-3.16-11.83,0,0-3.19-13.74-4.73-16.81Z"/>
          <path class="st33" d="M84.16,295.95s-.75-15.48,7.93-30.95c0,0,3.4-3.4,3.77-13.21.38-9.81,2.83-16.8,2.83-16.8,0,0,1.13-3.4,1.51-9.44s0-30.2,10.95-35.11,17.36-7.93,17.36-7.93l4.15-2.26,1.89-1.13s9.06,13.97,13.59,15.85c4.53,1.89,40.39-5.28,40.39-5.28,0,0,14.72-3.77,27.56-1.13,12.83,2.64,16.61,24.54,16.99,33.22,0,0-.38,3.02,2.64,6.42,3.02,3.4,13.97,35.11,13.97,35.11,0,0,4.53,7.55-3.4,15.85-7.93,8.3-17.34,17.93-17.34,17.93l-19.94-16.99,9.35-14.53s1.51-3.02-.38-6.42-14.34-24.54-14.34-24.54c0,0-1.51,9.81-8.68,20.76-7.17,10.95-7.55,26.8-7.55,26.8l-33.6,6.42-41.9-1.13.57-6.61s-1.5,17.11-4.24,19.97l-3.12,5.51-20.97-4.66.02-5.72Z"/>
          <path class="st6" d="M195.95,219.43c-.22.02-.03-.49-.02-.79.35-29.51,19.05-29.64,19.05-29.64,12.83,2.64,16.61,24.54,16.99,33.22,0,0-.38,3.02,2.64,6.42,3.02,3.4,13.97,35.11,13.97,35.11,0,0,4.91,7.93-3.02,16.23-7.93,8.3-17.72,17.55-17.72,17.55l-19.94-16.99,9.35-14.53s1.51-3.02-.38-6.42-14.34-24.54-14.34-24.54l2.34-7.86s-4.06-8.25-8.91-7.76Z"/>
          <path class="st6" d="M134.18,195.73s-12.46-3.63-16.99-3.77c-5.85-.19-8.68.75-11.7,7.93-3.02,7.17-2.26,3.77-5.28,26.8,0,0,.43,7.75-1.86,13.13-2.29,5.37-2.77,16.6-2.77,16.6,0,0-1.13,6.87-4.1,10.84s-8.29,19.94-7.33,35.55l20.97,4.66s7.69-14.6,7.24-24.1l6.68,1.57s-.82-27.61-1.81-40.51c-.07-.92-.27-1.82-.59-2.69-1.96-5.31-9.04-26.65.18-36.19,0,0,4.91-7.17,17.36-9.81Z"/>
          <path class="st8" d="M218.62,267.76s3.7-6.16,17.29-3.89c0,0-10.42-6.18-17.29,3.89Z"/>
          <path class="st8" d="M219.68,264.24s9.44-8.56,11.32-8.81c0,0-6.28,0-8.8,4.41,0,0-.63-2.77-1.77-4.28,0,0-14.08-24.03-14.59-26.36,0,0-3.32-7.53-7.2-9.27-3.88-1.74-5.01,1.28-5.01,1.28l-15.1,17.36,11.17-4s1.86,4.94-.79,13.25c-2.64,8.3-10.57,30.25-10.38,36.26,0,0,6.68-.6,8.34-2.39,1.66-1.79,1.43-6.67,1.43-6.67l.92-7.27,2.49-5.01,3.62-8.51,7.17-16.99,1.13-1.51,6.93,11.78,6.07,10.4,3.05,6.32Z"/>
          <path class="st4" d="M198.05,247.81s5.03-11.51,2.76-15.28c0,0-8.62,1.06-11.11,2.04,0,0,2.05-2.04,8.46-4.68,0,0-1.13-3.77-1.89-4.15,0,0,6.04,6.42,6.79,7.93,0,0-2.13,10.18-5.03,14.15Z"/>
          <path class="st21" d="M212.24,189.08s-17.25,4.69-15.85,28.41"/>
          <path class="st22" d="M84.16,297.08s-.75-15.48,7.93-30.95c0,0,3.4-3.4,3.77-13.21.38-9.81,2.83-16.8,2.83-16.8,0,0,1.13-3.4,1.51-9.44s0-30.2,10.95-35.11c10.95-4.91,17.36-7.93,17.36-7.93l4.15-2.26,1.89-1.13s9.06,13.97,13.59,15.85,40.39-5.28,40.39-5.28c0,0,14.72-3.77,27.56-1.13,12.83,2.64,16.61,24.54,16.99,33.22,0,0-.38,3.02,2.64,6.42,3.02,3.4,13.97,35.11,13.97,35.11,0,0,4.53,7.55-3.4,15.85-7.93,8.3-17.34,17.93-17.34,17.93l-19.94-16.99,9.35-14.53s1.51-3.02-.38-6.42c-1.89-3.4-14.34-24.54-14.34-24.54,0,0-1.51,9.81-8.68,20.76-7.17,10.95-7.55,26.8-7.55,26.8l-33.6,6.42-41.9-1.13.57-6.61s-1.5,17.11-4.24,19.97l-3.12,5.51-20.97-4.66.02-5.72Z"/>
          <path class="st9" d="M114.57,282.55s.21-33.79-.75-38.69c0,0,.55-3.02-1.34-10.95s-3.14-21.94-1.95-25.88c0,0-3.84,10.74,0,25.86,0,0,2.58,39.66,0,49.66-2.58,10,0,0,0,0,0,0,.86-1.32,4.04,0"/>
          <path class="st21" d="M96.49,264.87s5.24,8.66,11.74,10.06"/>
          <path class="st11" d="M112.85,191.01s20.01-7.55,23.03-11.32c0,0,.38-.38,4.53-.75,0,0,1.89-.75,1.89-4.91s2.26-1.13,2.26-1.13c0,0,2.26,7.93,13.59,4.53,11.32-3.4,19.25-7.93,21.52-11.7,0,0,1.13-.75,1.89,2.26.75,3.02,1.51,7.55,1.51,7.55,0,0,.75.75,2.26.75s5.28.38,6.42,1.13c1.13.75,6.79,3.77,9.44,3.4,2.64-.38,10.95,4.15,10.95,4.15,0,0,10.95,6.42,13.97,13.21,0,0-5.1-8.49-14.91-8.87,0,0-28.69,3.77-35.11,4.15s-31.33,6.04-39.64,2.26c0,0-20.38-6.04-23.59-4.72Z"/>
          <path class="st29" d="M112.85,191.01s20.01-7.55,23.03-11.32c0,0,.38-.38,4.53-.75,0,0,1.89-.75,1.89-4.91s2.26-1.13,2.26-1.13c0,0,2.26,7.93,13.59,4.53,11.32-3.4,19.25-7.93,21.52-11.7,0,0,1.13-.75,1.89,2.26.75,3.02,1.51,7.55,1.51,7.55,0,0,.75.75,2.26.75s5.28.38,6.42,1.13c1.13.75,6.79,3.77,9.44,3.4,2.64-.38,10.95,4.15,10.95,4.15,0,0,10.95,6.42,13.97,13.21,0,0-5.1-8.49-14.91-8.87,0,0-28.69,3.77-35.11,4.15s-31.33,6.04-39.64,2.26c0,0-20.38-6.04-23.59-4.72Z"/>
          <path class="st16" d="M112.85,190.63s20.01-7.55,23.03-11.32c0,0,.38-.38,4.53-.75,0,0,1.89-.75,1.89-4.91s2.26-1.13,2.26-1.13c0,0,2.26,7.93,13.59,4.53,11.32-3.4,19.25-7.93,21.52-11.7,0,0,1.13-.75,1.89,2.26.75,3.02,1.51,7.55,1.51,7.55,0,0,.75.75,2.26.75s5.28.38,6.42,1.13,6.79,3.77,9.44,3.4c2.64-.38,10.95,4.15,10.95,4.15,0,0,10.95,6.42,13.97,13.21,0,0-5.1-8.49-14.91-8.87,0,0-28.69,3.77-35.11,4.15s-31.33,6.04-39.64,2.26c0,0-20.38-6.04-23.59-4.72Z"/>
          <path class="st19" d="M127.09,184.63s5.2,9.21,19.55,9.96"/>
          <path class="st18" d="M135.88,179.31s7.36,15.29,12.65,16.42c5.28,1.13,38.14-16.7,39.27-18.92"/>
          <path class="st18" d="M138.26,183.8s4.34-1.75,3.53-6.99"/>
          <path class="st19" d="M153.43,178.74s-1.89,4.53-1.89,8.3-1.89,6.79-3.02,8.68"/>
          <path class="st19" d="M158.91,178.21s-4.27,7.51-7.42,9.97"/>
          <path class="st19" d="M150.98,190.63s19.63,2.64,32.09-15.48"/>
          <path class="st19" d="M201.19,180.44s-26.41,8.91-35.67,9.17"/>
          <path class="st70" d="M178.27,165.63l1.58-20.11s4.91,4.15,10.95-1.51c6.04-5.66,10.19-13.59,4.91-21.14-5.28-7.55-10.95,1.13-10.95,1.13,0,0-4.53,5.66-4.53,8.3s-.75-19.63-.75-19.63c0,0-7.17-1.51-7.17-15.48s-49.07,1.89-49.07,1.89l-.75,17.74s1.89,5.28,1.51,9.06c-.38,3.77,0,21.89,6.79,30.2,6.79,8.3,10.19,12.83,11.7,13.97,1.51,1.13,1.52,5.74,6.61,8.15s27.6-6.06,29.18-12.58Z"/>
          <path class="st42" d="M128.82,125.62s.48,6.54,4.34,7.27c3.86.74,6.88-1.15,5.74-5.3-1.13-4.15-3.58-4.71-3.58-4.71,0,0-6.39-1.5-6.5,2.74Z"/>
          <path class="st57" d="M132.62,122.8s-1.2,4.68,1.2,8.24c.38.57.98.95,1.66,1.04,1.24.17,3.11-.08,3.03-3.22-.12-4.67-3.94-6.07-3.94-6.07h-1.95Z"/>
          <path d="M132.66,122.88s-1.14,4.41,1.14,7.76c.36.54.93.89,1.58.98,1.18.16,2.96-.07,2.88-3.03-.11-4.4-3.74-5.71-3.74-5.71h-1.85Z"/>
          <path class="st7" d="M122.9,106.85s9.58-.18,12.98-4.63v2.31s-11.7,8.71-12.27,13.43c-.57,4.72-.85-11.09-.71-11.11Z"/>
          <path class="st7" d="M177.66,152.25s-4.79,9.31-11.58,16.11c-6.79,6.79-5.29,8.45-5.29,8.45,0,0-13.59,3.63-16.23-3.92,0,0,7.74.19,11.89-2.83,4.15-3.02,19.39-12.96,21.21-17.81Z"/>
          <path class="st7" d="M133.24,157.03s-7.99-6.32-9.28-25.43c0,0,.88-6.65-.4-10.81-1.27-4.15,7.5-1.95,7.5-1.95,0,0,6.46,1.2,8.09.82,1.63-.38,2.74,7.98,2.74,7.98,0,0-2.8-6.36-7.71-6.32s-7.55.04-7.93,2.3.84,2.02.84,2.02c0,0,1.59.61,0,3.83-1.59,3.21,2.56,24.35,6.15,27.56Z"/>
          <path d="M140.07,167.53s6.75,11.03,15.81,4.23c0,0,10.95-6.79,14.72-10.95,3.77-4.15,7.67-7.67,9.12-13.65,0,0-7.41,13.86-18.84,18.47,0,0-13.22,8.99-20.82,1.89Z"/>
          <path d="M122.48,116.83s3.59-1.7,3.21-2.83c-.38-1.13,12.08.75,13.97,6.79,0,0-7.55-.75-9.81-2.26-2.26-1.51-6.14,1.13-6.28,2.26l-1.08-3.96Z"/>
          <path class="st7" d="M160.31,97.03s-12.49-1.77-22.05,16.66c0,0,11.37-13.25,22.05-16.66Z"/>
          <path d="M138.26,152.25s9.76,2.01,19.92,0c0,0,3.43-.35,0,.89-3.43,1.25-16.26,2.38-19.28,1.25l-.64-2.14Z"/>
          <path class="st56" d="M125.05,141.42s-11.54-8.93-1.49-20.63l1.49,20.63Z"/>
          <path class="st7" d="M195.15,131.74s-.02-5.74-3.41-6.08c0,0-1.88-.71-6.97,6.65,0,0-.19,1.32,1.32,2.45,1.51,1.13-.25,3.5-1.82,4.77-1.57,1.27.31,2.4,1.82,1.65,1.51-.75,7.05-4.31,5.88-8.29-1.17-3.98-2.51-3.56-2.51-3.56,0,0-1.68-1.93,1.34-1.17s4.34,3.59,4.34,3.59Z"/>
          <path class="st7" d="M138.52,143.49s4.5.26,5.36,1.15,5.4,0,5.4,0c0,0-1.13,2.61-4.72,4.39h-4.49s-2.87-1.62-2.87-5.39,4.15-11.96,3.77-15.8l.92-.19s-.87,9.08-3.37,12.52c-1.7,2.34,0,3.32,0,3.32Z"/>
          <path d="M194.77,128.72s-1.89-4.53-4.91-2.64l-5.1,6.23s-1.13,1.69,0,2.73c1.13,1.04,2.39,1.52-.5,4.49,0,0-.63,1.46,1.26-.05s2.26-4.91.75-6.04c0,0-1.51-.38.38-2.26,1.89-1.89,3.77-7.17,8.12-2.45Z"/>
          <path class="st20" d="M185.33,133.53s2.26-3.68,3.77-2.92c1.51.75,3.81,4.38,1.72,6.72-2.09,2.34-4.61,4.33-5.8,4.09-1.2-.24-.69-1.51,0-2.57"/>
          <path class="st7" d="M147.77,118.34s-2.45,4.34,0,4.53c2.45.19,3.08-2.08,6.73-2.26,3.65-.19,11.02-2.93,11.02-2.93,0,0,1.69-1.6,3.96-1.31,0,0-13.97,3.08-16.04,2.44s-5.1-2.15-5.66-.46Z"/>
          <path d="M174.57,117.59s-3.77-5.28-10.95-4.91-9.15,2.25-11.37,2.44c-2.22.2-4.48,2.46-4.48,3.22s.64,1.46,3.72,1.3,8.56-.94,10.35-1.69,6.7-3.01,12.74-.37Z"/>
          <path d="M140.07,126.94s-.98-6.13-10.7-4.06c0,0-1.82,1.38-2.28,2.76,0,0,1.21.46,1.32,1.3,0,0,.48-3.32,3.13-3.32s5.28-.38,7.55,3.02l.99.3Z"/>
          <path class="st17" d="M139.65,120.8s5.66,5.14-1.13,19.37c0,0-2.37,1.65,2.78,6.99"/>
          <path class="st42" d="M156.47,122.88s9.99-.58,11.5.56c1.51,1.13,1.13,5.28,1.13,5.28,0,0,.75,3.02-3.77,3.77-4.53.75-7.93,0-9.06-3.4-1.13-3.4-1.01-4.4-1.01-4.4l1.22-1.82Z"/>
          <polyline class="st17" points="137.98 141.48 137.2 143.63 139.65 147.16 140.98 147.79"/>
          <path class="st57" d="M166.62,122.89s-4.6-.58-5.44,0c-.84.58-2.35,5.02-.96,6.76s5.53,1.82,6.4,0c.87-1.82,1.65-4.97,0-6.76Z"/>
          <path d="M166.05,122.88s-4.13-.56-4.88,0-2.11,4.79-.87,6.45c1.24,1.66,4.97,1.74,5.75,0,.78-1.74,1.49-4.74,0-6.45Z"/>
          <path d="M154.78,122.8s10.16-1.8,14.69.74c0,0,1.46,1.67,1.11,2.11,0,0-.16-.32-3.37-1.73,0,0-8.72-1.91-11.06.79,0,0-1.83,1.79-1.9,2.24l.53-4.14Z"/>
          <path class="st16" d="M125.05,141.42s-11.54-8.93-1.49-20.63"/>
          <path class="st14" d="M122.48,116.83s1.89,5.28,1.51,9.06c-.38,3.77,0,21.89,6.79,30.2,6.79,8.3,10.19,12.83,11.7,13.97,1.51,1.13,1.52,5.74,6.61,8.15s27.6-6.06,29.18-12.58l1.58-20.11s4.91,4.15,10.95-1.51c6.04-5.66,10.19-13.59,4.91-21.14-5.28-7.55-10.95,1.13-10.95,1.13,0,0-4.53,5.66-4.53,8.3s-.75-19.63-.75-19.63c0,0-7.17-1.51-7.17-15.48"/>
          <path class="st17" d="M123.44,125.33s-2.64,3.26-2.08,5.78c.56,2.52,2.67,6.54,2.67,6.54"/>
          <path class="st69" d="M181.19,129.4s5.1-9.75,10.47-9.56l2.12.95s5.83-8.17,4.35-20.7c0,0-.72-3.09-2.61-4.6,0,0,3.02,1.13,5.66,6.04,0,0-2.08-10.76-9.25-14.16,0,0,5.66.75,7.55,2.26,0,0-5.28-9.44-13.59-6.04,0,0,3.02-11.7-6.04-14.72,0,0,5.66,6.04,1.13,17.36,0,0,5.28-13.28-6.42-20.04,0,0-3.77-2.02-6.98-4.39,0,0,5.47,8.2,5.47,10.46,0,0-5.43-7.15-14.98-6.41-9.55.74-17.86,1.35-22.2-1.41,0,0,2.08,4.79,11.14,7.06,0,0-21.52-5.28-29.07,9.81,0,0,6.78-5.23,14.72-5.45,0,0-7.62,1.9-10.41,6.13-2.79,4.23-11.47,6.11-12.61,6.11,0,0,1.13.75,3.02.38,0,0-4.53,1.51-6.42.38,0,0,7.93,3.4,12.46,1.89,0,0-7.55,7.55-15.48,0,0,0,2.64,9.06,12.83,12.08,0,0,1.49.34,3.39.36,0,0-3.05,3.45-9.64,2.11,0,0,4.36,3.95,8.51,3.19,0,0,2.18,9.81,3.92,12.83l1.31-.56-1.08-5.79.56-5.06-.14-3.1s4.67-1.01,8.16-5.89c0,0-3.03,4.52-6.51,7.38-1.31,1.07-1.85,4.23.38,3.02,3.72-2.02,11.8-9.65,12.27-11.38,0,0-1.66,7.55,1.06,13.71,0,0,7-14.16,16.94-16.08,9.94-1.92,17.11-.41,17.11-.41,0,0-1.31,15.61,11.99,16.49,0,0-4.64-1.84-4.73,1.59l.67,17.03s.02-1.28.95-2.91Z"/>
          <path class="st8" d="M105.68,93.62s8.1,4.46,11.98,3.36c3.88-1.1,13.69-9.4,18.98-11.29,0,0-19.33,7.01-14.39,32.57l-3.22-6.8-.7-2.93-5.47-1.13-3.04-2.06,6.22-.16,3.41-1.95-5.23-1-5.88-3.71-3.03-3.56-2.08-4.17,2.45,2.83Z"/>
          <path class="st8" d="M172.64,99.23s1.12,11.49,7.85,14.27c0,0-1.02.05-.92,1.79.1,1.74.42,10.66.42,10.66l.06,4.29,1.73-1.86,3.86-5.49,4.45-2.82,3.69.74s6.08-11.76,4.48-19.47c0,0-.17-2.87-1.45-4.35,0,0,.42,11.78-2.79,13.55,0,0-5.1-8.42-9.25-9.56,0,0,2.64,5.66,1.51,8.68,0,0-4.52-3.74-4.71-4.33,0,0,.37,4.94.28,5.2,0,0-6.21-2.86-9.19-11.31Z"/>
          <g class="st9">
            <path class="st26" d="M105.68,93.62s8.1,4.46,11.98,3.36c3.88-1.1,13.69-9.4,18.98-11.29,0,0-19.33,7.01-14.39,32.57l-3.22-6.8-.7-2.93-5.47-1.13-3.04-2.06,6.22-.16,3.41-1.95-5.23-1-5.88-3.71-3.03-3.56-2.08-4.17,2.45,2.83Z"/>
            <path class="st46" d="M172.64,99.23s1.12,11.49,7.85,14.27c0,0-1.02.05-.92,1.79.1,1.74.42,10.66.42,10.66l.06,4.29,1.73-1.86,3.86-5.49,4.45-2.82,3.69.74s6.08-11.76,4.48-19.47c0,0-.17-2.87-1.45-4.35,0,0,.42,11.78-2.79,13.55,0,0-5.1-8.42-9.25-9.56,0,0,2.64,5.66,1.51,8.68,0,0-4.52-3.74-4.71-4.33,0,0,.37,4.94.28,5.2,0,0-6.21-2.86-9.19-11.31Z"/>
            <path class="st45" d="M174.01,78.14s8.68,10.19,1.89,12.08c0,0,.38-8.68-1.89-12.08Z"/>
            <path class="st44" d="M150.22,80.78s19.17-1.13,22.42,9.44c0,0-14.87-9.81-22.42-9.44Z"/>
          </g>
          <path class="st5" d="M170.3,96.91s-5.17-9.23-18.1,1.67c0,0,10.24-3.66,18.1-1.67Z"/>
          <path class="st16" d="M181.19,129.4s5.1-9.75,10.47-9.56l2.12.95s5.83-8.17,4.35-20.7c0,0-.72-3.09-2.61-4.6,0,0,3.02,1.13,5.66,6.04,0,0-2.08-10.76-9.25-14.16,0,0,5.66.75,7.55,2.26,0,0-5.28-9.44-13.59-6.04,0,0,3.02-11.7-6.04-14.72,0,0,5.66,6.04,1.13,17.36,0,0,5.28-13.28-6.42-20.04,0,0-3.77-2.02-6.98-4.39,0,0,5.47,8.2,5.47,10.46,0,0-5.43-7.15-14.98-6.41-9.55.74-17.86,1.35-22.2-1.41,0,0,2.08,4.79,11.14,7.06,0,0-21.52-5.28-29.07,9.81,0,0,6.78-5.23,14.72-5.45,0,0-7.62,1.9-10.41,6.13-2.79,4.23-11.47,6.11-12.61,6.11,0,0,1.13.75,3.02.38,0,0-4.53,1.51-6.42.38,0,0,7.93,3.4,12.46,1.89,0,0-7.55,7.55-15.48,0,0,0,2.64,9.06,12.83,12.08,0,0,1.49.34,3.39.36,0,0-3.05,3.45-9.64,2.11,0,0,4.36,3.95,8.51,3.19,0,0,2.18,9.81,3.92,12.83l1.31-.56-1.08-5.79.56-5.06-.14-3.1s4.67-1.01,8.16-5.89c0,0-7.83,7.57-8.21,10.21-.64,4.46,13.59-8.42,14.34-11.19,0,0-1.66,7.55,1.06,13.71,0,0,7-14.16,16.94-16.08,9.94-1.92,17.11-.41,17.11-.41,0,0-1.31,15.61,11.99,16.49,0,0-4.64-1.84-4.73,1.59l.67,17.03s.02-1.28.95-2.91Z"/>
          <path class="st8" d="M174.01,78.14s8.68,10.19,1.89,12.08c0,0,.38-8.68-1.89-12.08Z"/>
          <path class="st8" d="M150.22,80.78s19.17-1.13,22.42,9.44c0,0-14.87-9.81-22.42-9.44Z"/>
          <path d="M129.46,101.17s5.85-6.98,17.55-11.89c0,0-10.64,5.39-15.51,12.7l-2.04-.81Z"/>
          <path d="M135.5,101.54s.75-6.42,18.87-13.59c0,0-14.34,9.06-16.61,14.34l-2.26-.75Z"/>
          <path class="st43" d="M123.23,285.57c-5.28,0-10.76-3.59-10.76-3.59-2.64-1.51-2.26,3.4-2.26,3.4v13.59c.19,1.7,7.74,2.08,10,2.08s2.64.75,2.64.75c0,2.64,2.26,3.4,2.26,3.4,5.66,2.26,21.14,1.13,21.14,1.13,0,0,2.64-.38,2.64-1.51s1.8-1.18,1.8-1.18c14.63,1.46,33.69-4.11,33.69-4.11,6.04-.38,5.28-3.76,5.28-3.76v-9.83c0-6.79-2.79-4.25-2.79-4.25-5.81,4.81-37.98,4.63-37.98,4.63,0-4.15-3.77-3.77-3.77-3.77h-16.99s-4.72-.19-4.91,3.02l-.38,16.23"/>
          <path class="st54" d="M110.53,282.55s4.6,1.09,5.73,1.39,1.14,13.13,0,16.15l-3.99.14h-1.74v-17.68Z"/>
          <path class="st54" d="M189.7,281.23s-6.7,3.53-9.5,2.9v16.11l8.47-2.02s1.65.08,1.61-3.74.78-11.74-.58-13.25Z"/>
          <path class="st23" d="M123.23,294.03v-6.17s-.97-5.31,7.25-5.31h14.64s3.77.24,3.77,6.91v14.18s-.11,3.18-6.85,3.18-15.04-.11-16.93-1.62c-1.89-1.51-2.26-2.4-2.26-4.79s.38-6.38.38-6.38Z"/>
          <path class="st22" d="M123.23,285.57c-5.28,0-10.76-3.59-10.76-3.59-2.64-1.51-2.26,3.4-2.26,3.4v13.59c.19,1.7,7.74,2.08,10,2.08s2.64.75,2.64.75c0,2.64,2.26,3.4,2.26,3.4,5.66,2.26,21.14,1.13,21.14,1.13,0,0,2.64-.38,2.64-1.51s1.8-1.18,1.8-1.18c14.63,1.46,33.69-4.11,33.69-4.11,6.04-.38,5.28-3.76,5.28-3.76v-9.83c0-6.79-2.79-4.25-2.79-4.25-5.81,4.81-37.98,4.63-37.98,4.63,0-4.15-3.77-3.77-3.77-3.77h-16.99s-4.72-.19-4.91,3.02l-.38,16.23"/>
          <path class="st18" d="M163.07,286.33s.58,15.06,0,17.15"/>
          <path class="st22" d="M145.31,306.39s3.4.41,3.59-2.75c.19-3.16-.2-16.62-.2-16.62,0,0-.37-4.28-2.82-4.47"/>
          <path class="st12" d="M125.69,299.17c0,1.87.3,2.56,1.77,3.75,1.48,1.18,7.98,1.27,13.25,1.27.05,0,.1,0,.16,0,2.89-.03,5.2-2.39,5.2-5.28v-8.31c0-.05,0-.1,0-.16-.03-2.92-2.43-5.26-5.34-5.26h-9.07c-6.03,0-5.74,3.65-5.68,4.11,0,.04,0,.08,0,.11l-.29,9.75Z"/>
          <path class="st13" d="M125.69,299.17c0,1.87.3,2.56,1.77,3.75,1.48,1.18,7.98,1.27,13.25,1.27.05,0,.1,0,.16,0,2.89-.03,5.2-2.39,5.2-5.28v-8.31c0-.05,0-.1,0-.16-.03-2.92-2.43-5.26-5.34-5.26h-9.07c-6.03,0-5.74,3.65-5.68,4.11,0,.04,0,.08,0,.11l-.29,9.75Z"/>
          <path class="st47" d="M108.23,301.96s-13.15-11.13-24.08-6.87c0,0-.96,16.15-2.08,23.14s-2.25,14.91-2.62,23.97v16.37s-1.13,4.77,8.68,11.94c0,0,3.53,1.51,4.22,0,0,0,12.36,1.68,10.68-3.88,0,0,3.22-5.56,1.34-8.58-1.89-3.02-1.13-10.95-1.13-10.95,0,0-.42-9.28-5.12-14.46,0,0,3.8-21.09,10.12-30.69Z"/>
          <path class="st4" d="M98.09,305.9l7.03,1.56s-7.03,20.73-7.01,25.18l-4.29-2.74s1.81.39,1.55-1.87c-.26-2.26-1.1-13.7,2.72-22.14Z"/>
          <path class="st4" d="M89.46,303.98l-5.31-1.18s-6.02,44.34-4.7,54.23c1.32,9.89,8.68,13.48,8.68,13.48l3.51.88-5.76-7.02-.43-3.54-2.44-3.8s0-13.41,1.14-17.43c1.15-4.01,1.3-8.71,1.3-8.71l4.01-26.91Z"/>
          <path class="st22" d="M108.23,301.96s-13.15-11.13-24.08-6.87c0,0-.96,16.15-2.08,23.14s-2.25,14.91-2.62,23.97v16.37s-1.13,4.77,8.68,11.94c0,0,3.53,1.51,4.22,0,0,0,12.36,1.68,10.68-3.88,0,0,3.22-5.56,1.34-8.58-1.89-3.02-1.13-10.95-1.13-10.95,0,0-.42-9.28-5.12-14.46,0,0,3.8-21.09,10.12-30.69Z"/>
          <path d="M91.64,371.39c-.27-.22-7.1-6.36-7.85-12.77l3.4,4.53c1.74,4.92,5.81,6.43,5.87,6.48l-1.42,1.77Z"/>
          <path d="M93.82,352.1s-2.48,5.38-.97,7.64c1.51,2.26,1.89,5.66,7.55,7.17,0,0-5.47-3.3-5.66-7.41-.19-4.11,1.75-6.18-.92-7.41Z"/>
          <path d="M93.82,348.29s3.96,7.71,4.7,11.85c.74,4.14,2.63,4.89,4.14,4.52,0,0,0,1.89-2.64.75-2.64-1.13-4.15-5.28-4.15-7.55s-1.51-4.15-1.51-4.15c0,0-1.45-2.53-.54-5.42Z"/>
          <path class="st22" d="M104.47,308.03s-12.38-4.91-21.02-4.55"/>
        </g>
        <g>
          <g>
            <polygon class="st57" points="137.66 204.44 136.98 204.47 136.91 205.1 137.59 205.08 137.66 204.44"/>
            <polygon class="st57" points="140.23 208.87 140.93 208.85 140.99 208.19 140.29 208.21 140.23 208.87"/>
            <polygon class="st57" points="139.17 208.9 139.87 208.88 139.93 208.22 139.23 208.25 139.17 208.9"/>
            <path class="st57" d="M146.62,207.72l.45-.02c.34-.01.61-.13.82-.37.18-.21.28-.46.3-.76l.17-2.54-.79.03-.16,2.31c-.03.37-.18.56-.44.57h-.28s0,0,0,0l-1.3.05c-.18,0-.32-.03-.42-.13.21-.13.44-.33.7-.6.23-.25.39-.46.46-.61-.51-.39-1.07-.57-1.7-.55-.53.02-1.06.19-1.6.51l-.06.64c.22.03.44.12.67.26.19.12.32.23.4.35-.22.14-.47.21-.75.22l-1.23.04h0s-.77.03-.77.03c.08-.18.12-.36.14-.57l.11-1.22-.79.03-.12,1.24c-.03.36-.18.54-.45.55h-.33s-.18.02-.18.02l-.72.03.18-1.78-.78.03-.15,1.48c-.08.73-.51,1.27-1.11,1.29s-.93-.48-.84-1.22l.16-1.48-.78.03-.18,1.55c-.12,1.08.56,1.89,1.54,1.86.66-.02,1.26-.39,1.63-.99l.97-.03h.18s2.2-.08,2.2-.08h0s1.25-.04,1.25-.04c.23,0,.47-.06.71-.14.23-.08.41-.18.56-.3.24.26.52.38.85.37l1.48-.05h0ZM144.83,206.18c-.14.12-.27.22-.39.27-.12-.15-.22-.26-.32-.33-.09-.07-.22-.14-.39-.21.23-.11.46-.17.69-.18s.46.04.7.16c-.06.09-.16.18-.28.28Z"/>
            <polygon class="st57" points="148.7 207.65 149.5 207.62 149.73 203.97 148.94 204 148.7 207.65"/>
            <path class="st57" d="M152.75,208.47l1.08-.03.04-.79-1.12.04c-.55.02-.82-.18-.79-.6.02-.44.29-.63.86-.65l1.61-.06.03-.77-1.3.05c-.21-.09-.31-.27-.3-.55.02-.35.23-.61.51-.62.23,0,.36.09.43.31l.66-.32c-.17-.43-.56-.66-1.05-.65-.7.03-1.28.59-1.32,1.26-.01.19.02.48.1.67-.63.21-1,.7-1.03,1.34-.05.9.53,1.39,1.59,1.36Z"/>
            <path class="st57" d="M156.52,206.85l.08-2.06-.82.03-.09,2.13c-.02.51-.3.77-.84.79l-.03.66c.56-.02.98-.14,1.24-.38.29-.25.43-.63.45-1.16Z"/>
            <polygon class="st57" points="158.05 203.65 157.23 203.68 157.1 207.36 157.93 207.33 158.05 203.65"/>
            <path class="st57" d="M160.12,207.26l.75-.03h.18s1-.04,1-.04h.09s1.02-.04,1.02-.04h0s1.08-.04,1.08-.04c.24.32.63.48,1.14.47.85-.03,1.39-.6,1.39-1.38s-.54-1.29-1.41-1.26-1.36.57-1.36,1.4l-.83.03h0s-1.02.04-1.02.04h-.09s-1.18.04-1.18.04h0s-.7.02-.7.02l.04-1.83-.83.03-.06,2.14c-.01.51-.29.77-.84.79l-.02.66c.95-.03,1.49-.37,1.64-1.01ZM165.34,205.6h.06c.36-.01.53.21.53.67,0,.38-.22.64-.55.65-.36.01-.56-.25-.56-.65s.21-.66.52-.67Z"/>
            <polygon class="st57" points="160.2 203.57 159.47 203.6 159.45 204.25 160.18 204.23 160.2 203.57"/>
            <path class="st57" d="M135.49,228.09c-.03-.15-.07-.26-.09-.35-.03-.09-.06-.17-.1-.24-.04-.08-.1-.14-.17-.18-.08-.05-.17-.07-.29-.07s-.21.03-.3.07c-.08.05-.16.11-.21.19-.06.08-.11.18-.17.3-.06.12-.11.22-.14.3l-1.4,2.97c-.06.12-.1.21-.13.28-.03.07-.04.13-.05.2-.01.11.01.21.09.29.07.09.16.13.27.13.13,0,.22-.04.28-.12.07-.08.15-.24.25-.47l.27-.59h1.71s.14.58.14.58c.02.07.04.16.07.25.02.1.05.16.08.21.03.05.06.08.11.11.04.03.1.04.17.04.11,0,.22-.05.31-.14.09-.09.14-.19.15-.3.01-.1-.02-.27-.08-.5l-.8-2.96ZM133.92,230.09l.82-1.89.43,1.88h-1.25Z"/>
            <path class="st57" d="M137.5,227.22c-.12,0-.21.04-.29.13-.08.09-.13.22-.14.38l-.37,3.71c-.02.17,0,.3.07.39.06.09.16.14.27.14.12,0,.22-.04.3-.13.09-.09.13-.22.15-.4l.36-3.71c.02-.17,0-.3-.07-.39-.06-.08-.15-.13-.27-.13Z"/>
            <path class="st57" d="M142.05,228.05c-.04-.15-.07-.27-.1-.35-.02-.09-.06-.17-.1-.25-.04-.08-.1-.14-.18-.19-.08-.05-.17-.07-.29-.07s-.22.03-.3.08c-.09.05-.16.11-.21.19-.06.08-.11.18-.17.3-.06.12-.1.22-.14.31l-1.36,3c-.06.12-.1.22-.12.28-.03.07-.04.13-.05.2-.01.11.03.21.1.3.08.09.17.13.28.13.13,0,.23-.04.29-.12.07-.08.15-.24.25-.47l.26-.6h1.74s.16.58.16.58c.02.07.05.16.08.25.03.1.06.17.09.21.03.05.07.08.11.11.05.03.1.04.17.04.12,0,.22-.05.31-.14.09-.09.14-.19.15-.3,0-.1-.02-.27-.1-.5l-.88-2.98ZM140.49,230.07l.79-1.9.48,1.9h-1.28Z"/>
            <path class="st57" d="M143.98,228.44c-.12,0-.21.04-.29.13-.08.09-.13.21-.14.39l-.19,2.48c-.01.17.01.3.08.39.07.09.16.14.28.14s.22-.05.31-.13c.08-.09.13-.22.14-.4l.19-2.51c.01-.15-.02-.27-.09-.36-.07-.09-.16-.13-.28-.13Z"/>
            <path class="st57" d="M144.35,227.32c-.07-.07-.16-.1-.27-.1s-.2.04-.29.12c-.09.08-.13.18-.14.3-.01.13.02.24.09.31.07.07.16.11.27.11s.2-.04.29-.11c.08-.07.13-.18.14-.31s-.02-.24-.1-.31Z"/>
            <path class="st57" d="M147.64,229c-.07-.18-.18-.32-.35-.42-.16-.1-.35-.15-.56-.15s-.42.05-.59.14c-.17.1-.34.24-.5.44v-.1c.01-.1,0-.19-.02-.26-.03-.07-.07-.12-.13-.16-.05-.04-.12-.05-.19-.05-.11,0-.21.04-.28.12-.07.08-.11.2-.12.37l-.18,2.51c-.01.17.01.3.08.4.07.09.16.14.28.14.12,0,.23-.05.31-.13.08-.09.13-.22.14-.4l.08-1.1c.02-.35.06-.6.11-.73.07-.16.16-.29.29-.38.13-.09.26-.14.4-.14.22,0,.36.07.42.22.06.15.09.37.07.66l-.1,1.46c-.01.17.02.3.09.4.07.09.16.14.29.14s.22-.05.3-.14c.08-.09.13-.22.14-.4l.1-1.63c.01-.19.01-.35,0-.47,0-.12-.03-.24-.08-.34Z"/>
            <path class="st57" d="M152.65,227.3c-.07-.07-.17-.1-.31-.1h-2.08c-.12.01-.23.03-.31.07-.08.04-.15.1-.19.19-.04.09-.07.19-.08.33l-.21,3.6c-.01.2.02.34.1.44.08.1.18.15.32.15.13,0,.24-.05.33-.15.09-.1.14-.24.15-.44l.08-1.55h1.47c.14,0,.24-.04.31-.1.07-.06.11-.15.11-.26s-.02-.2-.09-.26c-.06-.06-.17-.1-.3-.1h-1.46s.06-1.18.06-1.18h1.74c.14-.01.24-.04.32-.11.07-.07.11-.16.11-.27s-.02-.2-.09-.26Z"/>
            <path class="st57" d="M155.63,230.74c0-.18.02-.34.02-.48l.02-.53c.01-.33-.02-.59-.1-.78-.08-.2-.22-.34-.42-.43-.2-.09-.48-.13-.85-.13-.32,0-.59.05-.81.14-.22.1-.38.22-.49.36-.11.15-.17.29-.17.45,0,.1.02.18.09.24.06.07.14.1.23.1.1,0,.17-.02.2-.06.03-.04.09-.12.17-.25.08-.12.17-.22.28-.28.11-.06.27-.09.47-.1.25,0,.4.05.47.16.08.11.11.28.11.51-.17.05-.34.1-.49.14-.15.04-.33.08-.54.13-.21.04-.34.08-.39.09-.25.06-.45.17-.61.34-.15.17-.23.38-.24.62,0,.18.02.35.11.5.08.15.2.28.35.37.16.09.34.14.55.14.23,0,.45-.04.64-.13.19-.08.39-.21.6-.38.09.16.17.29.25.37.08.09.16.13.25.13.1,0,.2-.04.28-.11.08-.08.13-.16.13-.25,0-.05-.02-.17-.06-.35-.05-.18-.06-.35-.06-.52ZM154.83,230.32c-.01.31-.06.53-.14.66-.07.12-.18.22-.32.3-.14.08-.3.12-.46.12-.15,0-.28-.05-.37-.14-.09-.09-.13-.21-.13-.34s.05-.23.14-.3c.08-.07.17-.12.26-.15.09-.02.25-.06.49-.12.23-.05.41-.1.53-.15v.13Z"/>
            <path class="st57" d="M158.31,228.51c-.16-.09-.33-.14-.51-.14s-.31.05-.42.14c-.11.09-.21.23-.32.41,0-.18-.03-.32-.09-.41-.06-.09-.16-.14-.29-.14-.27,0-.41.2-.43.59l-.09,2.46c0,.18.03.31.1.41.07.09.17.14.29.14s.22-.05.31-.14c.08-.09.13-.23.13-.41l.02-.74c0-.27.02-.49.05-.68.02-.18.06-.34.11-.48.04-.13.11-.23.19-.3.08-.07.18-.1.3-.1.09,0,.19.02.31.06.12.04.19.06.22.06.08,0,.16-.04.23-.11.07-.07.11-.16.11-.27,0-.15-.07-.27-.23-.36Z"/>
            <path class="st57" d="M163.01,228.5c-.16-.09-.36-.14-.59-.14-.2,0-.38.05-.54.13-.17.09-.32.22-.47.4-.09-.18-.22-.31-.37-.4-.15-.09-.33-.13-.54-.13s-.38.05-.55.13c-.17.09-.32.22-.47.4v-.08c0-.14-.03-.25-.1-.33-.07-.08-.17-.12-.29-.12s-.21.04-.28.13c-.08.09-.12.21-.12.38l-.07,2.53c0,.19.03.33.11.42.08.09.18.14.31.14s.23-.05.32-.14c.08-.1.12-.24.13-.42l.03-1.2c0-.37.06-.66.15-.86.09-.2.28-.3.55-.3.14,0,.24.04.3.12.06.08.1.18.11.3.01.12.01.3,0,.52l-.03,1.42c0,.19.03.33.11.42.08.09.18.14.31.14.13,0,.24-.05.32-.14.08-.09.12-.24.13-.42l.02-1.19c0-.38.04-.64.11-.79.06-.12.14-.21.23-.28.1-.07.21-.1.32-.11.14,0,.24.04.31.12.07.08.11.17.12.29.02.12.02.27.02.46l-.02,1.5c0,.19.04.33.12.42.08.1.18.14.31.14s.24-.05.32-.14c.08-.09.12-.24.12-.43l.02-1.74c0-.34-.03-.6-.1-.76-.08-.18-.2-.31-.37-.4Z"/>
            <path class="st57" d="M166.26,230.02c-.17-.09-.38-.17-.65-.24-.22-.06-.4-.1-.53-.14-.12-.04-.22-.09-.3-.15-.07-.06-.11-.14-.11-.23,0-.1.05-.19.15-.26.1-.07.23-.1.38-.1s.27.02.35.08c.09.05.16.12.23.21.08.1.15.18.21.23.06.05.14.08.23.08.12,0,.21-.03.28-.1.07-.06.1-.15.1-.25,0-.09-.03-.19-.1-.28-.06-.1-.15-.19-.27-.27-.12-.08-.26-.14-.44-.19-.17-.05-.37-.07-.59-.07-.28,0-.51.05-.71.14-.2.09-.35.22-.45.38-.1.16-.16.32-.16.5,0,.2.05.37.16.5.11.14.25.25.43.33.18.08.42.16.71.24.26.07.45.13.56.21.11.07.17.19.17.35,0,.1-.06.19-.17.28-.11.08-.25.12-.42.12-.21,0-.37-.04-.5-.12-.12-.08-.23-.2-.31-.36-.04-.08-.08-.15-.14-.19-.04-.04-.12-.07-.2-.07-.1,0-.18.04-.25.11-.07.07-.1.15-.1.25,0,.15.05.3.15.44.1.15.26.27.48.37.22.1.48.15.79.15.32,0,.6-.05.82-.14.23-.09.4-.23.51-.4.12-.18.18-.39.18-.64,0-.17-.04-.31-.13-.44-.09-.13-.21-.24-.38-.33Z"/>
          </g>
          <path class="st53" d="M157.41,223.96c-1.28.56-2.69,1-4.16,1.26-6.85,1.21-12.55-1.63-12.8-6.21-.17-3.07,2.16-6.15,5.71-8.15-4.42,1.93-7.48,5.45-7.31,8.95.22,4.6,5.9,7.47,12.74,6.25,2.15-.38,4.13-1.12,5.83-2.1"/>
          <path class="st57" d="M159.06,213.53l-1,.45c-.08.04-.12.13-.09.21.03.08.12.11.2.07l1.01-.45c.08-.04.12-.13.09-.21-.03-.08-.12-.11-.2-.08Z"/>
          <path class="st57" d="M158.3,216.03c-.09,0-.17.06-.19.15-.01.09.05.17.14.17l1.16.11c.09.01.17-.05.19-.14.01-.09-.06-.17-.15-.18l-1.16-.11Z"/>
          <path class="st57" d="M158.38,212.43l-.86.69c-.07.06-.08.15-.03.22.05.07.15.08.21.02l.87-.69c.07-.05.08-.15.03-.22-.05-.07-.15-.08-.22-.02Z"/>
          <path class="st57" d="M159.44,214.8l-1.08.18c-.09.01-.15.1-.14.18.01.09.09.15.17.14l1.09-.19c.09-.02.15-.1.14-.19-.01-.08-.09-.14-.17-.13Z"/>
          <path class="st57" d="M157.66,211.53c-.07-.05-.16-.03-.22.04l-.66.88c-.05.07-.04.17.02.22.07.05.17.03.22-.03l.67-.88c.06-.07.04-.17-.02-.22Z"/>
          <path class="st57" d="M157.48,222.55c-.64.02-1.86.08-3.11.07l-.02.56c.2,0,.32-.01.32-.01l1.82-.03c.35-.18.68-.38,1-.59Z"/>
          <path class="st57" d="M154.3,224.06c.15-.05.29-.1.44-.15,0,0,0,0,0,0-.13,0-.31,0-.44,0v.16Z"/>
          <path class="st57" d="M156.1,223.33h0c-.47.01-1.14.02-1.77,0l-.02.37c.21-.01.32,0,.32,0h.62c.29-.11.57-.24.84-.37Z"/>
          <path class="st57" d="M150.48,212.75c-.05.07-.04.16.02.21l.82.63c.07.05.16.03.22-.04.05-.07.04-.16-.02-.22l-.82-.62c-.07-.06-.17-.03-.22.04Z"/>
          <path class="st57" d="M149.77,213.94c-.03.07,0,.14.05.19l1.77.69s.03-.08.05-.12c.7-1.61,2.5-2.42,4.05-1.83,1.57.6,2.29,2.41,1.61,4.06-.01.04-.03.08-.05.13l1.83.72c.07.01.14-.03.17-.1.04-.09,0-.18-.08-.21l-1.38-.55c.65-1.83-.18-3.79-1.92-4.46-1.71-.65-3.7.2-4.54,1.92l-1.34-.52c-.08-.03-.17,0-.21.09Z"/>
          <path class="st57" d="M152.25,212.83c.07-.06.08-.16.03-.22l-.62-.82c-.05-.06-.14-.07-.21-.02-.07.06-.09.15-.04.22l.62.83c.05.07.15.08.21.02Z"/>
          <path class="st57" d="M155.97,212.21c.07.03.17-.01.2-.09l.43-1.01c.03-.09,0-.17-.08-.2-.08-.03-.17.01-.2.09l-.42,1.01c-.04.08,0,.17.08.2Z"/>
          <path class="st57" d="M155.2,211.84l.16-1.06c.02-.09-.04-.16-.13-.17-.09,0-.16.06-.17.14l-.17,1.07c-.02.09.05.16.13.16.08.01.17-.05.17-.14Z"/>
          <path class="st57" d="M153.11,212.31c.08-.04.12-.13.09-.21l-.38-.97c-.03-.08-.12-.11-.19-.08-.08.04-.12.13-.09.2l.38.97c.03.07.12.11.2.08Z"/>
          <path class="st57" d="M154.05,212.02c.09-.01.15-.09.14-.18l-.11-1.05c-.01-.09-.08-.14-.17-.13-.08.01-.14.09-.14.18l.11,1.05c0,.09.09.14.17.13Z"/>
          <path class="st57" d="M145.91,221.41c-.41-.07-.85-.12-1.29-.15.67.22,1.28.34,1.28.34v-.19Z"/>
          <path class="st57" d="M149.02,221.5c-.81-.31-1.55-.64-1.98-.92-.19-.12-.49-.22-.83-.29h0s-.03.49-.03.49c.35.08.66.18.86.31.42.28,1.14.6,1.95.91l.03-.49Z"/>
          <path class="st57" d="M149.06,220.98c-.81-.31-1.55-.64-1.97-.91-.19-.13-.48-.22-.82-.29l-.02.35c.37.07.68.18.89.32.41.26,1.12.58,1.91.89l.02-.34Z"/>
          <path class="st57" d="M146.72,224.53s.05.01.07.02c-.02,0-.05-.01-.07-.02Z"/>
          <path class="st57" d="M147.16,221.69c.46.15.91.4,1.25.6.18.08.36.15.55.22l.02-.36c-.83-.32-1.58-.66-2.02-.94-.18-.12-.46-.22-.79-.29l-.03.36c.35.08.66.17.86.31.04.03.09.05.14.09,0,0,0,0,0,0Z"/>
          <path class="st57" d="M141.7,216.12s-.02.05-.03.07c.01-.02.02-.05.03-.07Z"/>
          <path class="st57" d="M146.14,221.46v.12c.11-.03.24-.03.37-.02-.11-.04-.24-.07-.37-.1Z"/>
          <path class="st57" d="M141.59,220.59s-.04-.09-.05-.13c.02.04.04.09.05.13Z"/>
          <path class="st57" d="M154.09,223.37c-.72-.02-1.43-.11-1.94-.22-.78-.17-1.9-.51-2.92-.89l-.02.35c1.05.39,2.18.75,2.95.92.81.18,1.48.19,1.92.18v-.34Z"/>
          <path class="st57" d="M149.73,221.22c-.14-.05-.29-.1-.43-.16l-.02.34c.14.05.28.11.43.16l.02-.35Z"/>
          <path class="st57" d="M145.95,220.89c-.85-.15-1.93-.18-2.61-.19.22.14.48.26.75.37.58.02,1.25.07,1.83.17l.03-.36Z"/>
          <path class="st57" d="M149.2,222.79h0c.36.51,2.44.88,3.4,1.16.35.1.65.24.87.37.2-.05.4-.11.59-.17v-.25c-.66-.02-1.38-.08-1.93-.21-.78-.16-1.9-.51-2.93-.9Z"/>
          <path class="st57" d="M158.19,222.05c-.55,0-2.23.08-3.81.05l-.02.37c.1,0,.15,0,.16,0l3.19-.08c.17-.11.33-.23.48-.35Z"/>
          <path class="st57" d="M154.12,222.64c-.77-.02-1.54-.09-2.04-.2-.28-.05-.6-.14-.95-.24l-1.47.02.03-.48c-.15-.05-.29-.1-.43-.15l-.03.5c1.04.39,2.18.74,2.95.91.8.17,1.47.21,1.91.2l.02-.55Z"/>
          <path class="st57" d="M154.15,222.11c-.81-.02-1.57-.09-2.03-.19-.24-.05-.51-.12-.8-.2l-.02.35c.3.09.59.16.83.21.88.19,1.6.21,2.01.19l.02-.36Z"/>
          <path class="st57" d="M146.03,219.73c-.93-.16-2.11-.17-2.72-.17l-.03.35c.61,0,1.78,0,2.72.17l.02-.35Z"/>
          <path class="st57" d="M143.23,220.54c.67,0,1.81.02,2.73.18l.03-.49c-.93-.16-2.12-.17-2.73-.16l-.04.46Z"/>
          <path class="st57" d="M161.32,218.19l-1.97.03-4.66.09-.1.17.03-.84-2.54-2.02h-2.26s-.4.57-.4.57l-.19-.55-2.41.03-4.22.09-.82,1.88.32-.03-.21,2.42c.39.01.98.43,1.06.49h0s0,0,0,0l.03-.46h-.14s.01-.15.01-.15c.02,0,.07,0,.14,0l.03-.35h-.14s.01-.15.01-.15c0,0,.06,0,.14,0l.02-.22h.26s-.02.22-.02.22c.61,0,1.78,0,2.72.16v-.19s.24,0,.24,0l-.02.23c.37.07.68.17.89.31.41.26,1.12.58,1.91.88l.02-.26h.25s-.02.35-.02.35c.14.05.28.11.43.16l.09-1.58,1.6-.03-.11,2.11c.3.08.59.15.83.21.88.18,1.59.2,2,.19v-.29s.25,0,.25,0v.28c.09,0,.14-.02.15-.02l3.86-.05c.19-.15.37-.31.55-.46.69-.62,1.28-1.3,1.73-2.01l-4.79.11-1-1.07,6.37-.12s.03-.09.05-.14ZM145.39,219.07l-.98.02.04-.5.98-.02-.04.5ZM148.83,219.01l-.99.02.04-.5.99-.02-.03.5ZM153.98,217.94l-2.22-1.89-2.05,1.75v.08s-6.16.12-6.16.12l-.83-2.09,6.39-.15.26.64.59-.6,1.84-.04,2.57,2.04-.38.14ZM158.19,220.2l.94-.02v.55s-.16,0-.16,0h-.61s-.19.01-.19.01l.02-.55ZM156.22,220.23l.94-.02-.02.55h-.6s-.22.01-.22.01h-.12s.02-.54.02-.54Z"/>
          <path class="st15" d="M161.77,215.09c.62,4.17-3.67,8.52-9.54,9.58-5.82,1.06-10.74-1.56-11.03-5.72s3.92-8.08,9.42-9.14c5.55-1.07,10.55,1.24,11.15,5.28Z"/>
        </g>
      </g>
    </g>
  </g>
</svg>