<?xml version="1.0" encoding="UTF-8"?>
<svg id="Layer_1" xmlns="http://www.w3.org/2000/svg" version="1.1" viewBox="0 0 354.41 596.31">
  <!-- Generator: Adobe Illustrator 29.7.1, SVG Export Plug-In . SVG Version: 2.1.1 Build 8)  -->
  <defs>
    <style>
      .st0, .st1, .st2, .st3, .st4, .st5, .st6, .st7, .st8, .st9, .st10 {
        isolation: isolate;
      }

      .st0, .st1, .st3, .st4, .st5, .st6, .st7, .st8, .st9, .st10 {
        mix-blend-mode: multiply;
      }

      .st0, .st3, .st5, .st7 {
        opacity: .6;
      }

      .st0, .st11 {
        fill: #6e3916;
      }

      .st12 {
        fill: #773707;
        stroke: #050300;
      }

      .st12, .st13, .st14, .st15, .st16, .st17, .st18, .st19, .st20, .st21, .st22, .st23, .st24, .st25, .st26, .st27, .st28, .st29, .st30, .st31, .st32, .st33, .st34, .st35, .st36 {
        stroke-miterlimit: 10;
      }

      .st12, .st16, .st18, .st19, .st20, .st29, .st30, .st32, .st33, .st35 {
        stroke-width: .42px;
      }

      .st13 {
        fill: #db7d0e;
        stroke-width: .49px;
      }

      .st13, .st16, .st18, .st19, .st20, .st33, .st35 {
        stroke: #f7bb11;
      }

      .st37, .st22, .st23 {
        fill: #881433;
      }

      .st38 {
        fill: #b26310;
      }

      .st39 {
        fill: #b51241;
      }

      .st14, .st15 {
        stroke: #211001;
      }

      .st14, .st17, .st21, .st24, .st25, .st26, .st27, .st28, .st31, .st36 {
        fill: none;
      }

      .st14, .st31 {
        stroke-width: 2.1px;
      }

      .st40 {
        fill: #4c2912;
      }

      .st15 {
        fill: #7c3d04;
      }

      .st15, .st24 {
        stroke-width: 1.68px;
      }

      .st16 {
        fill: #027775;
      }

      .st41 {
        fill: #f9f7f7;
      }

      .st42, .st8 {
        fill: #921535;
      }

      .st43 {
        fill: #dc8f3b;
      }

      .st3 {
        fill: #921839;
      }

      .st17 {
        stroke: #f9f7f7;
        stroke-width: .09px;
      }

      .st18 {
        fill: #0a7bb4;
      }

      .st19 {
        fill: #cd1700;
      }

      .st20 {
        fill: #902761;
      }

      .st21 {
        stroke-width: 2.95px;
      }

      .st21, .st24, .st25 {
        stroke: #331501;
      }

      .st44 {
        fill: #fff;
      }

      .st22, .st23, .st26, .st27, .st28, .st30, .st31, .st32, .st34, .st36 {
        stroke: #000;
      }

      .st22, .st26, .st34 {
        stroke-width: .84px;
      }

      .st23, .st25, .st28 {
        stroke-width: 1.26px;
      }

      .st27 {
        stroke-width: .89px;
      }

      .st29 {
        fill: #883b09;
        stroke: #301b02;
      }

      .st4, .st8 {
        opacity: .7;
      }

      .st30, .st7 {
        fill: #4f1f3f;
      }

      .st32 {
        fill: #f9f9f9;
      }

      .st45 {
        fill: #fcfcfc;
      }

      .st46 {
        fill: #381e04;
      }

      .st33 {
        fill: #e75a51;
      }

      .st5, .st6 {
        fill: #e99949;
      }

      .st6 {
        opacity: .4;
      }

      .st34 {
        fill: #7f2c07;
      }

      .st47 {
        fill: #ff80ba;
      }

      .st48 {
        fill: #98163c;
      }

      .st35 {
        fill: #56b50b;
      }

      .st49 {
        fill: #c82f60;
      }

      .st50 {
        fill: #1e7c07;
      }

      .st51, .st9, .st10 {
        fill: #582043;
      }

      .st9 {
        opacity: .3;
      }

      .st10 {
        opacity: .8;
      }

      .st36 {
        stroke-width: 2.53px;
      }
    </style>
  </defs>
  <g class="st2">
    <g id="Layer_11" data-name="Layer_1">
      <g>
        <g>
          <path class="st43" d="M102.91,237.31s-6.93-16.01-23.46-18.53,0,0,0,0c0,0-11.48-1.68-15.27-.41,0,0-2.1.42-2.53,8-.42,7.58-5.05,15.15-5.05,15.15,0,0-9.68,17.68-6.31,34.1,0,0,32.84.38,39.78,8.82,0,0,1.05-15.13-1.89-22.71-2.95-7.58,2.64-9.14,2.64-9.14,0,0,10.41-11.91,12.1-15.27"/>
          <path class="st36" d="M102.91,237.31s-6.93-16.01-23.46-18.53,0,0,0,0c0,0-11.48-1.68-15.27-.41,0,0-2.1.42-2.53,8-.42,7.58-5.05,15.15-5.05,15.15,0,0-9.68,17.68-6.31,34.1,0,0,26.52-.84,39.78,7.55,0,0,1.05-13.87-1.89-21.45-2.95-7.58,2.64-9.14,2.64-9.14,0,0,10.41-11.91,12.1-15.27"/>
          <path class="st5" d="M95.55,227.84s-4.84,13.26-12,15.79-9.26.42-10.1-.84c0,0,0,2.95,1.26,5.05s-3.37-.84-3.37-.84c0,0,1.68,5.05,5.47,10.1,3.79,5.05,6.1,13.15,5.79,22.36,0,0,6,2.01,7.47,4.56,0,0,1.05-14.29-1.89-22.29-2.95-8,2.64-9.14,2.64-9.14l11.26-14.43s-1.68-7.16-6.53-10.31h0Z"/>
          <path class="st42" d="M218.68,279.41s-3.37-29.47,2.1-37.47c0,0,4.21-12.63,14.73-17.68,0,0,5.89-4.63,17.26-2.53,0,0-7.16-15.15-10.95-18.94,0,0,2.95-18.1,0-24,0,0-7.58-20.63-22.31-23.57-14.73-2.95-14.31-2.95-36.2-20.21,0,0-11.79,6.31-19.79,2.53-8-3.79-18.52-8.42-22.73-15.15,0,0,1.68,10.1-8.84,13.89-10.52,3.79-20.21,12.21-20.21,12.21,0,0-26.1,2.1-31.99,18.1,0,0-8,13.05-5.47,25.68,0,0,.42,4.63-3.79,10.95-4.21,6.31-7.16,14.73-7.16,14.73,0,0,12.21-2.53,26.52,4.63,0,0,7.58,3.79,13.05,14.73,0,0,6.31-10.1,6.74-12.63,0,0,2.95,5.89,4.63,8.84s8.42,13.47,12.21,19.36c3.79,5.89,9.26,10.52,10.95,26.94s0,0,0,0c0,0,24.42,6.74,49.67,5.05,25.26-1.68,27.78-2.53,31.57-5.47"/>
          <path class="st8" d="M211.3,249.12c6.3-12.81,3.88-20.74,3.88-20.74-2.44-6.2-1.34-14.85,2.44-18.82,3.79-3.97,10.32-23.6,10.32-23.6,6.53,2.74,14.16,14.99,14.16,14.99,5.53-18.48-6.63-33.87-6.63-33.87-6.15-11.94-28.69-15.23-28.69-15.23-5.36-1.49-23.47-16.82-23.47-16.82-8.21,6.95-21.54,1.7-21.54,1.7,6.03,21.69,25.12,23.35,25.12,23.35,14.31,4.21,24.88,13.74,24.88,13.74,12.67,10.37,5.01,14.04,3.11,18.25s-15.79,16.84-15.79,16.84c0,0-6.31,2.95-1.46,3.02s9.25,7.2,9.25,7.2c5.26,8.53-5.26,15.46-7.56,18.35s-7.39,5.96-7.39,5.96l2.19-4.14c4.71-8.35-.32-13.95-.32-13.95.19,4.64-18.26,13.95-18.26,13.95-6.7,7.23,4.81,8.36,4.81,8.36,7.37,5.48,6.95,14.73,6.95,14.73-1.26,3.37,2.96,19.54,2.96,19.54l3.86-.83s2.44,9.5,0,0-.5-30.92-.5-30.92l.19,1.85c.19,1.85,3.83,3.91,3.83,3.91-1.04,3.66,1.69,26.95,1.69,26.95h12.44c-1.37-6.09-.99-24.45-.83-30.28l.11-2.46.24-1v-.03Z"/>
          <path class="st30" d="M211.78,281.4s-4.04-28.51,1.43-37.77c0,0,4.21-9.26,1.26-18.1-2.95-8.84,2.4-13.75,5.83-20.77,3.43-7.02,7.64-17.54,7.64-18.8,0,0,12.75,8.5,14.16,14.99,0,0-2.46,1.78,0,3.82,2.46,2.03,11.3,15.08,10.67,16.98s-18.12-7.05-30.64,17c0,0-7.88,11-3.46,40.67,4.42,29.68,0,0,0,0l-6.9,1.99"/>
          <path class="st31" d="M218.68,279.41s-3.37-29.47,2.1-37.47c0,0,4.21-12.63,14.73-17.68,0,0,6.74-4.63,18.1-2.53,0,0-8-15.15-11.79-18.94,0,0,2.95-18.1,0-24,0,0-7.58-20.63-22.31-23.57-14.73-2.95-14.31-2.95-36.2-20.21,0,0-11.79,6.31-19.79,2.53-7.53-3.57-17.31-7.88-21.93-14-.23-.3-.7-.13-.7.24.03,2.91-.83,9.58-8.94,12.5-10.52,3.79-20.21,12.21-20.21,12.21,0,0-26.1,2.1-31.99,18.1,0,0-8,13.05-5.47,25.68,0,0,.42,4.63-3.79,10.95-4.21,6.31-7.16,14.73-7.16,14.73,0,0,12.21-2.53,26.52,4.63,0,0,7.58,3.79,13.05,14.73,0,0,6.31-10.1,6.74-12.63,0,0,2.95,5.89,4.63,8.84s8.42,13.47,12.21,19.36c3.79,5.89,9.26,10.52,10.95,26.94s0,0,0,0c0,0,24.42,6.74,49.67,5.05,25.26-1.68,27.78-2.53,31.57-5.47"/>
          <path class="st30" d="M168.5,283.41s-6.45-62.9-25.18-82.18c0,0-14.94-13.38-21.68-18.43,0,0-3.96-3.37-8.51,0-4.54,3.37-23.49,16.84-23.91,19.36-.42,2.53,9.68.42,9.68.42l-9.7,19.36s12.22,7.59,13.69,15.37l7.79-15.79,1.85,9.05s7.41,12.02,10.57,17.06,6.78,11.26,8.76,13.2c0,0,5.5,10.46,5.42,18.2-.08,7.74,0,0,0,0,0,0,13.23,6.05,31.2,4.37"/>
          <path d="M228.15,187.85s-.42,16.84-10.52,28.21c0,0-.21,1.89,4.42-3.16,0,0,0,6.31,1.68,10.52,0,0,.84,7.43-.84,12.56l2.03-2.07s.71-14.06-.56-17.85c0,0-1.26-4.21.42-6.74s4.63-7.58,3.37-21.47h0Z"/>
          <path d="M137.43,216.56s-13.89-9.98-18.52-15.45c0,0-3.37-4.21-9.26-.84,0,0,6.74-.42,6.74.84s-6.31,21.47-7.58,23.15l6.75,11.39s.2-8.65,1.04-11.18,1.76-5.07,1.3-7.17c-.46-2.1,5.01-8.41,5.01-8.41,0,0,0-1.68,2.95.84,2.95,2.53,9.26,6.91,11.58,6.82h0Z"/>
          <path class="st7" d="M95.55,227l10.75-22.24-16.23-2.18,18.73-7.48,6.95-3.05s2.1.32,7.37,4.37c0,0,16.06,13.73,26.03,12.26,0,0,33.49,2.15,44.67-8.29l-1.3,11.52s-26.25,9.61-36.78,9.19c-10.52-.42-16.84-2.1-16.84-2.1,0,0-12.77,6.59-9.33,16.98,0,0,1.33,11.62,7.86,17.32,6.53,5.7,7.83,25.96,8.44,28.46s0,0,0,0l-8.44-1.92s-1.51-18.25-13.49-30.91c0,0-14.5-20.66-15.14-24.66l-5.89,13.05-7.37-10.31h0Z"/>
          <path class="st8" d="M78.5,172.48s-1.68,8.42,3.37,22.73c0,0,5.62,10.72-1.82,5.78,0,0-8.17-9.69-5.91-18.47,2.26-8.78,1.84-9.62,4.36-10.04Z"/>
          <path class="st7" d="M131.12,151.01s34.77,1.89,38.85,4.1c0,0,2.98.73,4.38,0s2.24,6.84,2.24,6.84c0,0-11.37-3.37-11.79-4.21-.42-.84,1.26-2.53-1.26-2.53s-32.41-4.21-32.41-4.21h-.01Z"/>
          <path class="st39" d="M93.39,172.48s9.53-5.47,10.37-5.47,2.6-5.47,4.24-5.05c1.65.42-5.45-2.53-9.69,0-4.24,2.53-8.24,8.41-8.24,8.41,0,0,.52,2.53,3.31,2.11h.01Z"/>
          <path class="st39" d="M140.38,163.82s-1.68-6.07-6.31-4.39c-4.63,1.68-11.37,14.6-10.95,16.35,0,0,5.05.55,5.26,1.78,0,0,3.14-.87,3.36-5.08,0,0,2.75-9.33,8.64-8.66Z"/>
          <path class="st39" d="M128.86,146.77s6.47-6.7,10.25-2.91l-1.68,2.91h-8.57Z"/>
          <path class="st22" d="M91.79,331.15s-1.92-5.67,1.65-7.87c3.58-2.2,8.42-1.3,10.84.78s2.84,7.13,2.42,9.24-3.99,8.66-2.42,11.49c0,0-13.1-10.73-12.5-13.63h.01Z"/>
          <path class="st22" d="M88.5,355.69s-1.93,5.73-6.59,5.56c-4.67-.17-2.76-3.4-3.08-5.15,0,0-.75,5.4-4.53,6.66-3.79,1.26-8.84-.42-9.68-2.95-.84-2.53-.24-6.82-.24-6.82,0,0,1.51,6.4-2.28,6.82,0,0-10.95.84-10.95-10.95l37.36,6.82h-.01Z"/>
          <path class="st38" d="M78.82,356.52s-56.73-12.28-69.78-38.38c-13.05-26.1,9.15-36.53,16.15-39.1,7-2.57,51.21-10.99,80.59,13.66,0,0,20.29,14.08,21.14,29.23,0,0,0,13.89-10.95,13.89,0,0-6.53.63-7.37-4.84-.84-5.47-4.63-7.58-7.16-8s-8.42-2.1-9.68,2.95c-1.26,5.05,4.67,10.28,5.91,11.46,1.25,1.17,9.24,7.49,6.72,11.28-2.53,3.79-10.3,9.4-25.57,7.86h0Z"/>
          <path class="st21" d="M78.82,356.52s-56.73-12.28-69.78-38.38c-13.05-26.1,9.15-36.53,16.15-39.1,7-2.57,51.21-10.99,80.59,13.66,0,0,20.29,14.08,21.14,29.23,0,0,0,13.89-10.95,13.89,0,0-6.53.63-7.37-4.84-.84-5.47-4.63-7.58-7.16-8s-8.42-2.1-9.68,2.95c-1.26,5.05,4.67,10.28,5.91,11.46,1.25,1.17,9.24,7.49,6.72,11.28-2.53,3.79-10.3,9.4-25.57,7.86h0Z"/>
          <path class="st20" d="M95.51,304.19s6.56-5,14.98,2.16c0,0,7.74,6.58,1.77,9.86-1.74.96-3.81,1.14-5.73.63-5.09-1.37-16.52-5.38-11.02-12.64h0Z"/>
          <path class="st16" d="M72.78,286.09s6.56-5,14.98,2.16c0,0,7.74,6.58,1.77,9.86-1.74.96-3.81,1.14-5.73.63-5.09-1.37-16.52-5.38-11.02-12.64h0Z"/>
          <path class="st18" d="M47.94,281.46s6.56-5,14.98,2.16c0,0,7.74,6.58,1.77,9.86-1.74.96-3.81,1.14-5.73.63-5.09-1.37-16.52-5.38-11.02-12.64h0Z"/>
          <path class="st13" d="M18.7,290.34s6.84-6.83,17.74.17c0,0,10.02,6.44,3.6,11.18-1.88,1.39-4.25,1.92-6.57,1.62-6.13-.8-20.04-3.68-14.77-12.98h0Z"/>
          <path class="st19" d="M17.02,307.18s6.84-6.83,17.74.17c0,0,10.02,6.44,3.6,11.18-1.88,1.39-4.25,1.92-6.57,1.62-6.13-.8-20.04-3.68-14.77-12.98h0Z"/>
          <path class="st33" d="M39.33,323.6s6.84-6.83,17.74.17c0,0,10.02,6.44,3.6,11.18-1.88,1.39-4.25,1.92-6.57,1.62-6.13-.8-20.04-3.68-14.77-12.98h0Z"/>
          <path class="st35" d="M65.01,332.44s6.84-6.83,17.74.17c0,0,10.02,6.44,3.6,11.18-1.88,1.39-4.25,1.92-6.57,1.62-6.13-.8-20.04-3.68-14.77-12.98h0Z"/>
          <path class="st29" d="M70.47,322.17s-17.99-9.82-23.96-17.03c-1.86-2.25-.71-5.63,2.13-6.26,1.83-.41,4.26-.32,7.23,1.15,0,0,17.34,9.63,19.46,10.39,2.12.77,7.56,5.8,7.79,9.39.23,3.59-4.46,7.03-12.64,2.36h-.01Z"/>
          <path class="st22" d="M58.5,314.14s0-8.42,8.42-7.16c0,0,12.7,1.26,14.98,7.16,0,0-1.51,8.42-7.4,8.84,0,0-11.37-2.1-16-8.84Z"/>
          <path class="st51" d="M195.76,481.14s.65-17.52,3.16-25.64c2.5-8.12-1.79-22.57-1.79-22.57,0,0-9.49-36-9.33-36.24s-4.18-19.21-4.18-19.21c0,0-.99-7.57-2.54-3.99-1.55,3.59-17.61,46.23-27.26,59-9.65,12.78,0,0,0,0,0,0-5.32,6.46-6.64,12.36-1.33,5.89-6.8,16.42-9.11,19.58-2.32,3.16,0,0,0,0,0,0-.21,17.47-3.16,22.94s0,0,0,0c0,0-7.84,6.67-20.13,4.6s0,0,0,0l11.29-35.04s1.88-5.34,3.68-12.07c1.79-6.74,18.42-65.97,21.26-80.77,2.84-14.79,10.45-47.8,8.96-61.19-1.49-13.38,0,0,0,0l20.82.09,34.97-3.82s1.65.03,1.65,5.5c0,0,.84,24.84,10.1,48.41,9.26,23.57,2.95,62.72,2.95,62.72,0,0-2.38,10.12,1.13,22.74,3.5,12.62,0,16.95,0,16.95v4.01l2.9,12.62-.45,10.82s-4.71,3.96-14.04,3.14c0,0-19.8-.23-24.25-4.95h0Z"/>
          <path class="st42" d="M221.93,297.93l-6.17,1.23s3.76,39.6,11.76,53.91c0,0,8.1,23.22,2.79,60.86,0,0-5.17,18.53,2.54,28.51,0,0-.56-15.51.84-20.45,1.4-4.93,7.87-26.61,5.27-40.4-2.6-13.79-1.34-25.67-7.44-41.62,0,0-8.86-30.68-9.59-42.05h0Z"/>
          <path d="M229.62,465.9s.57-9.01,1.97-10.4c0,0-4.07-.55-1.97,10.4Z"/>
          <path class="st42" d="M114.78,491.97s-13.93-3.36-20.16-11.66c0,0-1.18-.3-1.18-1.99s3.58-16.98,9.79-23.86c6.21-6.88,9.64-17.28,9.64-17.28,0,0,5.1-17.34,5.46-37.78,0,0,2.04-28.9,7.3-40.46,0,0,11.94-35.03,11.97-58.44l-.37-2.08s20.64,5.02,24.42,4.47c0,0-1.7,17.14-2.54,21.77s-7.58,41.68-13.89,63.57-13.68,52.41-13.68,52.41c0,0-2.33,8.33-4.21,12.9-1.89,4.57-9.26,31.72-12.55,38.42"/>
          <path class="st36" d="M92.3,483.33s1.77-17.85,11.88-30.06c10.1-12.21,11.79-27.78,12.63-37.89.84-10.1,4.21-45.89,8-54.31,3.79-8.42,14.31-53.04,12.63-63.15,0,0,19.79,7.58,43.36,5.05s32.6-2.95,41.14-5.05c0,0,5.17,31.57,8.96,40.41,3.79,8.84,10.52,43.78,7.16,66.93,0,0-6.74,22.31-5.05,26.94s.42,13.89-.84,18.1,0,11.37,0,11.37c0,0,4.21,11.37,1.89,21.26,0,0-7.94,7.9-31.23,1.53,0,0-4.98-1.53-7.5-4.06,0,0-1.26-6.31,2.95-21.89,0,0,2.95-10.52,0-18.52,0,0-1.68-14.31-3.79-19.36-2.1-5.05-12.21-43.78-11.37-48.83,0,0-1.68-.42-3.79,5.47-2.1,5.89-14.31,39.99-27.78,58.51,0,0-6.74,13.47-7.58,16.84s-4.21,9.68-5.89,11.79c0,0,0,18.14-3.58,24.86,0,0-16.81,12.94-42.19-5.96v.02Z"/>
          <path d="M214.89,444.85s7.37,11.63,6.42,14.44c0,0-1.37.71-.95,1.98,0,0-4.21-14.73-5.47-16.42Z"/>
          <path class="st8" d="M135.75,422.54s-2.1-2.53-8.84,3.37c0,0-4.63,1.26-4.63,4.21,0,0,0,1.26-.84,1.68,0,0,7.16-1.68,11.37,2.53l2.95-11.79h-.01Z"/>
          <path d="M126.07,467.58s13.92-16,13.69-22.73c0,0,.62-2.53-1.07-2.53,0,0-1.47,1.89-2.32,8.21,0,0-4.21,8-9.26,13.47,0,0,0,1.26-1.05,3.58h.01Z"/>
          <path class="st8" d="M121.44,466.76s-4-3.18-4-6.97,0-11.79.42-12.63,2.1-2.95,2.53-.42,1.26,5.05,2.95,5.05c0,0,4.21,0,5.05-.84,0,0-5.89,14.31-6.31,16.42,0,0,0,.04-.63-.61h-.01Z"/>
          <path class="st9" d="M128.38,450.95s9.89,1.89,10.31-8.63-1.26-11.37,4.63-15.58,9.68-6.74,14.73-18.1c0,0,16.42-43.78,15.15-49.67,0,0,5.47-6.31-2.95-11.37,0,0-10.07-6.71-10.3-9.25,0,0,7.77,7.56,17.03,7.56s21.89-5.89,23.57-16.42c0,0-.84-18.1-2.95-20.63,0,0,1.68-2.1-9.26-3.79,0,0-20.21.18-24.42-2.53,0,0-2.1.42-6.24,25.37,0,0-12.93,63.24-17.11,76.62-4.64,14.83-12.21,46.4-12.21,46.4l.02.02Z"/>
          <path class="st4" d="M183.34,375.66s3.35-18.54,31.56-28.56c0,0-21.89,11.26-14.31,3.57,0,0,13.53-13.41,15.18-13.29,0,0-7.19,2.65-13.5,8.96,0,0-11.79,8.84-13.05,8,0,0-3.79-.84-9.68,20.21,0,0,3.4-2.84,3.81,1.11h0Z"/>
          <path class="st9" d="M208.58,430.54s14.69-13.57,12.82-40.46c0,0,1.97-19.43-5.63-22.11,0,0-5.08,11.64-8.45,15.42-3.37,3.79-10.95,23.05-6.74,32.99,4.21,9.94.42,5.74,8,14.15h0Z"/>
          <path class="st9" d="M221.66,486.5s.81-17.66-4.66-21.87c0,0-2.53-2.95-2.95-4.63,0,0-2.48-6.74-4.61-6.95,0,0-.02,4.42-1.29,6.53-1.26,2.1-8.48,16.32-6.56,24.58,1.93,8.26,0,0,0,0,0,0,15.04,3.16,20.06,2.34"/>
          <path class="st42" d="M208.58,301.3s9.68-2.1,11.79-3.37c2.1-1.26,3.79-.42,2.95-6.31,0,0-2.1-6.31-2.1-10.1s-2.53-2.1-2.53-2.1c0,0-7.58,2.53-11.79,2.95,0,0-.42-1.68-2.53-1.68s-21.05.84-21.05.84c0,0-4.21,0-4.21,2.1,0,0-34.78.52-41.81-4.58,0,0-1.13-.05-1.13,3.74v12.12s-.42,2.61,2.95,3.87,22.73,5.47,40.41,5.05c0,0,.42,2.53,4.63,2.53,0,0,17.56-.38,21.78-1.87.34-.12.68-.22,1.02-.3.71-.17,1.91-.77,1.61-2.88h.01Z"/>
          <path class="st10" d="M215.76,297.93s1.23-15.15.81-16.42c-.42-1.26.09-.72.09-.72,0,0-.54-.53-1.79-.12s-7.98,1.68-7.98,1.68l.58,15.04.15,2.21,1.52.45,5.65-.78s.58-.51.97-1.35h0Z"/>
          <path class="st10" d="M159.57,283.17s.25,17.58,0,19.54c0,0,17.43,2.38,20.8,1.12l-.53-18.94s.2-1.25-5.74-1.26c-5.94,0-14.54-.46-14.54-.46h0Z"/>
          <path class="st23" d="M207.73,301.3l-1.26-18.94s.18-1.8-6.86-1.53-17.87.92-17.87.92c0,0-2.01,1.03-1.9,4.4s.53,17.68.53,17.68c0,0-.68,2.95,5.34,2.53,6.02-.42,17.72-1.08,19.24-1.59s3.2-.09,2.78-3.46h0Z"/>
          <path class="st36" d="M208.58,301.3s9.68-2.1,11.79-3.37c2.1-1.26,3.79-.42,2.95-6.31,0,0-2.1-6.31-2.1-10.1s-2.53-2.1-2.53-2.1c0,0-7.58,2.53-11.79,2.95,0,0-.42-1.68-2.53-1.68s-21.05.84-21.05.84c0,0-4.21,0-4.21,2.1,0,0-34.78.52-41.81-4.58,0,0-1.13-.05-1.13,3.74v12.12s-.42,2.61,2.95,3.87,22.73,5.47,40.41,5.05c0,0,.42,2.53,4.63,2.53,0,0,17.56-.38,21.78-1.87.34-.12.68-.22,1.02-.3.71-.17,1.91-.77,1.61-2.88h.01Z"/>
          <path class="st36" d="M202.26,286.14h-15.27s-2.41,0-2.41,2.53,1.26,10.95,1.26,10.95c0,0,.42,2.1,3.79,2.1s10.95-.84,10.95-.84c0,0,2.95-.42,2.95-3.79,0,0,.84-10.95-1.26-10.95h0Z"/>
          <path d="M153.43,288.25s2.95,6.74-.42,12.21c0,0,1.26-10.1.42-12.21Z"/>
          <path class="st8" d="M143.33,281.93l-5.89-2.1v16.69s.42,1.06,2.95,2.08l2.95.63s-1.26-13.92,0-17.29h0Z"/>
          <path class="st37" d="M212.42,574.09c-5.73.1-10.79-6.95-10.79-6.95.42-8.42,2.95-19.79,2.95-19.79,4.63-17.68,0-34.1-4.63-44.2-4.63-10.1-4.63-22.73-4.63-22.73,3.79,3.79,8.42,4.21,8.42,4.21,26.52,5.05,30.31-1.68,30.31-1.68,0,0-1.26,18.94-.84,26.52s-1.26,23.57,0,30.73c0,0-1.26,3.37,4.63,8.42s9.26,8.84,12.21,11.37c2.95,2.53,8.84,5.47,8.84,5.47,0,0,9.2,5.32,14.56,9,3.02,2.07,4.46,5.85,3.42,9.35-1.63,5.46-8.17,11.46-31.29,5.52-1.67-.43-3.24-1.19-4.62-2.23-4.97-3.75-18.52-13.19-28.53-13.02h-.01Z"/>
          <path class="st3" d="M233.95,484.48s-8.89,2.42-12.29,2.02c0,0,1.65,22.34.39,34.54,0,0-2.95,23.15,2.95,23.15,0,0,.84,1.26,1.26,2.95,0,0,.84,1.26-1.68,1.68s-2.53,4.21.84,3.37c0,0,14.31,5.89,15.58,7.58,1.26,1.68,1.68,3.37.84,5.47,0,0-2,2.1,1.73,0,3.74-2.1,10.47,1.68,10.47,1.68,0,0,11.37,8,12.21,8.42s6.73,5.04,9.68,2.94c2.95-2.1-7.74-7.24-7.74-7.24,0,0-15.62-8.12-18.15-11.07s-16.25-14.02-16.55-16.91c-.29-2.88-.91-56.23.45-58.6v.02Z"/>
          <path class="st3" d="M196.6,481.56s4.34,2.77,5,2.6c.66-.16-1.86,12.89,4.87,21.73,6.74,8.84,9.26,24.84,8,34.94,0,0-.84,4.21-4.63,6.74,0,0,0,2.53,2.1,3.37,2.1.84,1.68,3.37,0,5.05s-4.63,5.89-.42,8c4.21,2.1,16.55,5.88,15.43,14.31,0,0-8.24-4.19-13.73-4.19s-11.59-6.95-11.59-6.95c0,0,2.11-17.1,3.27-21.07,0,0,5.36-22.92-4.95-42.91,0,0-6.91-16.04-3.35-21.6v-.02Z"/>
          <path class="st36" d="M212.42,574.09c-5.73.1-10.79-6.95-10.79-6.95.42-8.42,2.95-19.79,2.95-19.79,4.63-17.68,0-34.1-4.63-44.2-4.63-10.1-4.63-22.73-4.63-22.73,3.79,3.79,8.42,4.21,8.42,4.21,26.52,5.05,30.31-1.68,30.31-1.68,0,0-1.26,18.94-.84,26.52s-1.26,23.57,0,30.73c0,0-1.26,3.37,4.63,8.42s9.26,8.84,12.21,11.37c2.95,2.53,8.84,5.47,8.84,5.47,0,0,9.2,5.32,14.56,9,3.02,2.07,4.46,5.85,3.42,9.35-1.63,5.46-8.17,11.46-31.29,5.52-1.67-.43-3.24-1.19-4.62-2.23-4.97-3.75-18.52-13.19-28.53-13.02h-.01Z"/>
          <path class="st37" d="M134.91,487.37s-8.42,10.52-29.47,1.68c0,0-11.79-7.58-12.63-10.1s-1.26,38.73-.84,50.1c.42,11.37-.84,13.47-2.1,16.84s-1.68,3.79-1.26,5.47.84,2.95-2.53,9.26c-3.37,6.31-5.05,11.37-5.89,17.26s2.38,14.36,15.29,13.92c12.91-.45,23.01-6.34,21.75-21.49,0,0-1.47-7.37-1.47-12,0,0-.42-1.26.84-2.53s.84-2.53-.42-4.63c-1.26-2.1-.84-9.26-.84-9.26,0,0,2.84-22.69,12.48-38.26.38-.61.73-1.23,1.04-1.88,1.41-2.97,5.53-11.76,6.05-14.37h0Z"/>
          <path class="st3" d="M132.7,489.28s-6.21,3.38-10.21,3.26c0,0-14.52,32.72-17.05,55.45,0,0-3.37-2.1-4.21-2.53s-2.1-.42-2.95,0-2.1,2.95-3.37,3.37-.84,1.68,4.21,1.68,9.26,7.16,9.26,10.52-.42,10.1-1.68,15.15c-1.26,5.05-4.59,16.24,3.81,11.28,8.4-4.96,6.16-20.28,6.16-20.28l-.92-8.88s2.32-4,.42-7.16.54-28.91,10.69-45.92c0,0,6.57-10.24,5.83-15.94h0Z"/>
          <path class="st36" d="M134.91,487.37s-8.42,10.52-29.47,1.68c0,0-11.79-7.58-12.63-10.1s-1.26,38.73-.84,50.1c.42,11.37-.84,13.47-2.1,16.84s-1.68,3.79-1.26,5.47.84,2.95-2.53,9.26c-3.37,6.31-5.05,11.37-5.89,17.26s2.38,14.36,15.29,13.92c12.91-.45,23.01-6.34,21.75-21.49,0,0-1.47-7.37-1.47-12,0,0-.42-1.26.84-2.53s.84-2.53-.42-4.63c-1.26-2.1-.84-9.26-.84-9.26,0,0,2.84-22.69,12.48-38.26.38-.61.73-1.23,1.04-1.88,1.41-2.97,5.53-11.76,6.05-14.37h0Z"/>
          <path class="st43" d="M183.52,121.77l-.2,13.24s-10.68,5.55-16.6,3.51c-5.92-2.04-20.2-9.22-23.59-13.21l-1.53-1.78s-.17-23.68-1.01-27.04c0,0,2.1,11.37,4.21,13.89,2.1,2.53,11.79,15.43,13.68,16.76,0,0,7.79,5.55,16.63,3.44,0,0,6.24-5.14,8.09-8.9.08-.16.32-.1.31.08h0Z"/>
          <path class="st28" d="M183.52,120.09l-.2,14.93s-10.68,5.55-16.6,3.51c-5.92-2.04-20.2-9.22-23.59-13.21l-1.53-1.78s-.17-23.68-1.01-27.04c0,0,2.1,11.37,4.21,13.89,2.1,2.53,11.79,15.43,13.68,16.76,0,0,7.79,5.55,16.63,3.44,0,0,5.4-5.14,7.25-8.9.08-.16,1.16-1.78,1.16-1.61h0Z"/>
          <path class="st5" d="M183.11,121.33v13.05s-14.37,7.82-23.39,1.17c0,0-12.46-16.4-11.79-21.21,0,0,5.83,8.59,8.93,11.15,3.1,2.57,7.88,5.6,13.49,5.56,0,0,3.86.45,6.42-1.9l6.35-7.82h-.01Z"/>
          <path class="st43" d="M198.47,79.45s-.41,11.79-2.52,17.05-2.95,9.47-2.95,9.47c0,0-2.95,6.31-7.16,10.95-4.21,4.63-7.26,10.47-7.26,10.47,0,0-2.43,3.42-7.06,3.42s-13.77-1.72-17.62-9.07c-2.64-5.04-5.95-8.51-7.77-10.19-.94-.87-1.64-1.95-2.07-3.15-1.16-3.26-3.33-9.6-3.49-11.91v-2.64s-1.05,3.69-4.84.75c-3.79-2.95-10.52-7.16-9.68-18.52.84-11.37,5.47-10.52,5.47-10.52,0,0,7.37-.52,9.05,16.68,0,0-.42-11.84,2.53-20.68,0,0,4.93-6.29,4.78-8.19-.15-1.91,4.06-11.17,7.43-11.17,0,0,2.91-.42,5.03,0,0,0,.44-2.1,3.81-.84,0,0,1.26,1.68,2.95,1.26,0,0,5.47-1.68,7.16,2.53,1.68,4.21,5.05,8.84,3.79,17.68,0,0,7.58-3.79,8.42-11.37,0,0-.42-5.47,2.1-2.95,2.53,2.53,5.89,6.31,7.16,11.37,0,0,.84,2.1-.84,2.95,0,0,4.63-1.68,5.05-4.21s1.68.42,1.68.42c0,0,1.26,5.89-.84,14.31,0,0-2.1,4.21-2.32,6.1h.01Z"/>
          <path class="st24" d="M198.47,79.45s-.41,11.79-2.52,17.05-2.95,9.47-2.95,9.47c0,0-2.95,6.31-7.16,10.95-4.21,4.63-7.26,10.47-7.26,10.47,0,0-2.43,3.42-7.06,3.42s-13.77-1.72-17.62-9.07c-2.64-5.04-5.95-8.51-7.77-10.19-.94-.87-1.64-1.95-2.07-3.15-1.16-3.26-3.33-9.6-3.49-11.91v-2.64s-1.05,3.69-4.84.75c-3.79-2.95-10.52-7.16-9.68-18.52.84-11.37,5.47-10.52,5.47-10.52,0,0,7.37-.52,9.05,16.68,0,0-.42-11.84,2.53-20.68,0,0,4.93-6.29,4.78-8.19-.15-1.91,4.06-11.17,7.43-11.17,0,0,2.91-.42,5.03,0,0,0,.44-2.1,3.81-.84,0,0,1.26,1.68,2.95,1.26,0,0,5.47-1.68,7.16,2.53,1.68,4.21,5.05,8.84,3.79,17.68,0,0,7.58-3.79,8.42-11.37,0,0-.42-5.47,2.1-2.95,2.53,2.53,5.89,6.31,7.16,11.37,0,0,.84,2.1-.84,2.95,0,0,4.63-1.68,5.05-4.21s1.68.42,1.68.42c0,0,1.26,5.89-.84,14.31,0,0-2.1,4.21-2.32,6.1h.01Z"/>
          <path class="st5" d="M129.01,79.87s-2.95-2.24,0-7.01c0,0,1.68-1.41,2.53-1.83.84-.42,2.1,1.26,2.95,2.1.84.84,2.1,3.37,2.95,4.21.84.84.42,2.53-.42,3.79s-.42,1.26.42,2.1c0,0-2.32.21-1.89-1.47.42-1.68-1.68,1.26-.84,2.1.48.48,1.41,1.43,2.14,2.3.54.64.98,1.23,1.05,1.56,0,0-1.09-.91-2.35-.91s-2.53-2.67-2.74-3.02-.21-1.24,0-2.48c.21-1.24,2.32-2.5,1.06-4.61-1.26-2.1-1.68-3.37-3.37-2.1-1.68,1.26-1.68,2.53-1.47,5.26h-.02Z"/>
          <path class="st6" d="M160.59,113.84s1.03,2.61,6.41,3.89,9.52,9.35,9.76,11.42l5.46-7.66,3.62-4.59,3.79-3.79,3.65-8.4,1.82-4.65s-4.84,3.58-9.05,2.32c0,0-1.68-2.1-2.95-2.32,0,0,1.26-4.42-2.1-12,0,0-2.53-3.79,1.26-4.21,0,0,10.89,2.74,13.86-4.52,0,0,1.29-1.37,1.71,1.58,0,0,6.31-17.26,3.79-21.89l-.76-1.24s-3.87,5.03-5.97,5.03c0,0,2.95-8-6.31-14.31,0,0-2.07-1.92-2.08,1.14-.02,3.07-5.82,12.17-7.13,12.67,0,0,.76,3.2,2.04,5.01,0,0,.82,1.43,0,2.25s-4.98,6.51-5.01,9.77,2.92,12.52,3.34,14.21c.42,1.68-.42,5.47-3.79,5.89s-5.05-.84-5.05-.84c0,0,.42,5.89,1.68,7.16s6.31,1.68,6.31,1.68l1.67.14,2.95-.83s-3.78,2.38-4.62,3.64c0,0-2.53,2.53-3.79,2.53,0,0,2.53.84.84,2.53,0,0-7.16,4.8-15.37-1.6h.02Z"/>
          <path class="st40" d="M165.5,93.62s2.47,5.16,8.46,6.02,0,0,0,0c0,0,7.02.99,5.88-4.97-1.15-5.96,0,0,0,0,0,0-3.25-7.68-2.83-11.24s-1.69-7.77,5.47-14.51c0,0-6.07,4.88-5.98,8.12.08,3.06-.47,10.53,1.93,16.67.32.83.31,1.75-.07,2.55-.83,1.76-2.72,4.24-6.2,1.92,0,0-4.9-1.96-6.66-4.56Z"/>
          <path class="st1" d="M170.27,64.29s-8.42-7.19-12.21-7.81-5.17-1.26-10.16,3.9l-3.05,3.9s6.9-3.87,13.63-1.3c6.74,2.57,9.59,5.93,9.59,5.93,0,0,2.62,0,2.2-4.63h0Z"/>
          <path class="st1" d="M190.47,64.71s5.05-.42,5.89-1.26c0,0,.42,0,1.26,1.26.84,1.26,2.53,5.89,2.53,7.16,0,0-.64-.21-3.16-2.95s-6.65-.21-9.22,0c0,0-3.2.42-5.3,0,0,0,.84-3.79,5.47-4.21h2.53Z"/>
          <path class="st26" d="M195.53,78.61s-1.68-7.16-5.47-7.16-8,.42-9.68,5.47c0,0-.5,1.48-1.09,2.42-.59.95,3.2,3.51,3.2,3.51,0,0,4.63,2.27,8.84.48,0,0,3.79-2.2,4.21-4.73h-.01Z"/>
          <path class="st44" d="M194.37,78.9s-1.45-6.14-4.7-6.14-7.71-.06-9.15,4.28c0,0-.43,2.11-.94,2.92-.51.81,3.59,3.01,3.59,3.01,0,0,3.97,1.52,7.59,0,0,0,3.25-1.89,3.61-4.06h0Z"/>
          <ellipse class="st50" cx="185.63" cy="77.97" rx="4" ry="4.84"/>
          <ellipse class="st1" cx="185.63" cy="77.55" rx="2.74" ry="3.58"/>
          <ellipse class="st45" cx="184.16" cy="77.31" rx="1.26" ry="1.65"/>
          <path class="st44" d="M164.65,78.2s-.51-8.86-6.5-10.54c0,0-5.52-.84-9.12,4.21,0,0-1.49,3.37,3.13,6.1,0,0,8.97,4.87,12.48.23h0Z"/>
          <path class="st27" d="M165.08,78.43s-.54-9.33-6.85-11.11c0,0-5.81-.89-9.61,4.44,0,0-1.57,3.55,3.3,6.43,0,0,9.45,5.14,13.16.24Z"/>
          <ellipse class="st50" cx="155.11" cy="73.13" rx="4.63" ry="5.05"/>
          <ellipse class="st1" cx="154.27" cy="72.29" rx="2.95" ry="3.37"/>
          <ellipse class="st45" cx="153.01" cy="71" rx="1.26" ry="1.65"/>
          <path class="st46" d="M153.01,64.83s9.68.31,11.79,5.78c0,0-4.63-4.51-11.79-4.57v-1.21Z"/>
          <path class="st12" d="M185,106.92s-.42-.24-2.95,1.93-5.05,8.06-14.31,6.8c-9.26-1.26-13.05-12.33-13.05-12.33l-1.26-1.2s1.26-.37,2.53-1.21c1.26-.84-1.19.94.35,1.63s4.49,1.95,9.12,2.79c4.37.8,11.35,2.21,14.96,2.25.35,0,.7-.06,1.03-.19.79-.31,2.48-.87,3.58-.48h0Z"/>
          <path class="st32" d="M179.12,108.24s-3.17,4.68-11.17,2.15c0,0-7.58-2.24-10.31-5.96,0,0,15.39,5.03,21.48,3.81Z"/>
          <path class="st43" d="M203.92,72.76s4.19,5.16,0,16.87c0,0-2.92,7.92-8.82,10.44,0,0,3.37-17.26,3.37-20.63l5.45-6.69h0Z"/>
          <path class="st25" d="M203.92,72.76s4.19,5.16,0,16.87c0,0-2.92,7.92-8.82,10.44,0,0,3.37-17.26,3.37-20.63l5.45-6.69h0Z"/>
          <path class="st28" d="M198.15,84.47l4.08-6.27c3.96-1.46-2.83,10.33-2.83,10.33,0,0-.06,1.34-2.07,1.29"/>
          <path class="st5" d="M199,83.17s2.59-5.82,4.19-4.98-.93,10.95-3.03,13.68c-2.1,2.74-3.82,1.66-3.82,1.66l2.66-10.36"/>
          <path class="st11" d="M131,65.57c-1.27-1.59-1.14-3.54-1.57-4.64-2.1-5.47-2.95-13.05-.42-17.68,0,0,.84-3.37,2.1-4.21,1.26-.84-6.74,7.58-6.74,8.42s-.57-4.83,1.61-9.15,11.02-9.37,13.12-10.22c0,0-7.58-.84-9.68,1.68,0,0,4.73-9.06,15.42-6.63,0,0,1-10.9,5.63-12.02,0,0-3.79,11.25,0,17.69,0,0-6.31-16.72,21.47-23.03,0,0-8.21,5.23-11.37,10.51,0,0,13.26-9.03,30.94-.19,0,0-13.05,1.26-17.26,2.95,0,0,10.1-2.1,15.15,1.68,0,0,15.58,7.58,20.63-.84,0,0,2.53,5.47-5.89,12.21,0,0,9.68,8,15.15,2.95,0,0-.63,3.82-4.94,5.91,0,0,7.89,4.61,6.21,18.08,0,0-2.1-4.63-8.42-8.42,0,0,7.25,9.2-1,20.38,0,0-.32-4.81-3.45-7.55,0,0-.23,6.2-3.78,9.31,0,0-4.49,3.89-4.86,4.55,0,0,5.25-12.34,1.81-19.52,0,0-2.81,3.67-6.5,5.4,0,0,3.89-7.11-5.79-14.69,0,0-.71-.35-1.41-.6,0,0-.7,11.12-9.11,14.91,0,0,1.69-16.73-6.94-20.37,0,0-2.32-.26-4,.16s-2.95-1.26-2.95-1.26c0,0-2.53-1.39-3.58.36l-.23.48s-4.96-1.11-6.47.5-5,4.58-5.99,10.67c-.99,6.09-4.36,7.35-4.78,8.19s-3.4,13.27-2.54,19.9c0,0-.83-13.15-7.78-15.68,0,0-1.28.44-1.8-.2h0Z"/>
          <path class="st14" d="M131,65.57c-1.27-1.59-1.14-3.54-1.57-4.64-2.1-5.47-2.95-13.05-.42-17.68,0,0,.84-3.37,2.1-4.21,1.26-.84-6.74,7.58-6.74,8.42s-.57-4.83,1.61-9.15,11.02-9.37,13.12-10.22c0,0-7.58-.84-9.68,1.68,0,0,4.73-9.06,15.42-6.63,0,0,1-10.9,5.63-12.02,0,0-3.79,11.25,0,17.69,0,0-6.31-16.72,21.47-23.03,0,0-8.21,5.23-11.37,10.51,0,0,13.26-9.03,30.94-.19,0,0-13.05,1.26-17.26,2.95,0,0,10.1-2.1,15.15,1.68,0,0,15.58,7.58,20.63-.84,0,0,2.53,5.47-5.89,12.21,0,0,9.68,8,15.15,2.95,0,0-.63,3.82-4.94,5.91,0,0,7.89,4.61,6.21,18.08,0,0-2.1-4.63-8.42-8.42,0,0,7.25,9.2-1,20.38,0,0-.32-4.81-3.45-7.55,0,0-.23,6.2-3.78,9.31,0,0-4.49,3.89-4.86,4.55,0,0,5.25-12.34,1.81-19.52,0,0-2.81,3.67-6.5,5.4,0,0,3.89-7.11-5.79-14.69,0,0-.71-.35-1.41-.6,0,0-.7,11.12-9.11,14.91,0,0,1.69-16.73-6.94-20.37,0,0-2.32-.26-4,.16s-2.95-1.26-2.95-1.26c0,0-2.53-1.39-3.58.36l-.23.48s-4.96-1.11-6.47.5-5,4.58-5.99,10.67c-.99,6.09-4.36,7.35-4.78,8.19s-3.4,13.27-2.54,19.9c0,0-.83-13.15-7.78-15.68,0,0-1.28.44-1.8-.2h0Z"/>
          <path class="st15" d="M141.33,108.24s-2.64,1.94-5.16.68c0,0,4.21-.42,4.21-2.95,0,0-4.64,2.37-7.58.34,0,0,4.74,1.4,4.27-10.42,0,0,1.84.79,3.53-2.04l.74,14.38h-.01Z"/>
          <path class="st0" d="M204.79,24.3s-5.89,1.26-7.58.84c0,0,5.47,3.37,6.74,3.37,0,0-11.79-.12-12.63.57,0,0,6.31,2.38,6.31,4.06s-3.79,2.1-.42,4.21c3.37,2.1,7.73,7.51,3.23,7.12,0,0-14.6-5.86-20.49-6.28,0,0,4.21,3.35,2.95,7.57,0,0-6.31-2.94-8.42-3.36,0,0-3.37-.42-5.05-3.79-1.68-3.37-6.74-5.05-8-4.63s-3.9,1.69-3.85,3.79c.06,2.1-1.21,2.41-3.31,2.47-2.1.06-4.7,1.22-4.24,3.37l.45,2.15s2.1-3.78,4.84-3.57c0,0,2.46-.77,4.28-.07,0,0,2.93-1.79,3.64-1.18s1.22,1.66,2.44,1.56,6.83-.63,7.6,1.11c0,0,6.67,8.89,4.77,19.2,0,0,8.76-4.77,9.11-14.91,0,0,7.51,3.08,7.93,12.47,0,0,.21,1.3-.73,2.82,0,0,4.52-1.85,5.58-4.58,0,0,1.23-1.01,1.77,1.08s-.3,10.29-1.56,13.98v1.77s2.95-1.03,4.63-3.56c1.68-2.53,2.89-6.74,2.92-8.42,0,0,3.5,3.3,3.45,7.55,0,0,8.37-10.49,1-20.38,0,0,7.37,4.42,8.42,8.42,0,0,2.95-10.28-6.21-18.08,0,0,5.15-2.33,4.94-5.91,0,0-6.53,5.26-15.15-2.95,0,0,8.63-7.37,5.89-12.21,0,0-3.58,4-5.26,4.42v-.02Z"/>
          <path class="st0" d="M164,23.11s1.64-3.86,3.32-3.86c0,0,14.31,6.11,18.31,9.16l-.21,2.65s-15.15,2.08-16.84.82c0,0,.09-2.04,1.73-2.07s-.37-4.1-6.31-6.7Z"/>
          <path class="st0" d="M137.06,37.2s-.05-2.38,5.84-2.8c0,0,5.72.03,7.07-1.25,0,0,8.5.59,8.92,2.18,0,0-1.8,2.95-1.32,4.38.48,1.42-7.96-6.48-13.42,0s-5.3,1.23-5.3,1.23c0,0,.37-4.31-1.79-3.74Z"/>
          <path class="st0" d="M129.43,52.51s8.42-.42,10.1-3.37c0,0-3.19,7.15-.96,6.94,0,0,4.33-2.31,4.75-4.84,0,0-4.63,8.42-8.84,10.52,0,0,9.5-4.21,11.49-6.31,0,0-5.17,10.84-5.38,19.74,0,0-3.39-8.77-9.59-9.62,0,0-2.83-9.27-1.57-13.06Z"/>
          <path class="st43" d="M252.78,221.74s-21.91-3.26-30.64,17c0,0-.31,10.15,7.69,20.26,0,0,6.83,11.87,7.62,16.25s5.19,8.34,13.51,8.46c0,0,16.95.13,21.06-3.87,0,0-14.83,3.16-13.99-18.31,0,0,2.53-18.52,16.84-16,0,0-2.95-3.79-15.15-4.63,0,0-2.1-15.15-6.95-19.15h0Z"/>
          <path d="M242.25,254.99s8.91-15.28,16.87-17.53l.81,4.48s-10.1,0-17.68,13.05Z"/>
          <path class="st5" d="M259.13,237.46s-2.56-14.88-6.35-15.72c0,0-26.33,2.43-30.64,17,0,0,2.43,14.57,7.69,20.26,5.26,5.68,7.51,16.08,9.12,19.72,0,0,3.98,8.35,29.95,2.84,0,0-10.1-5.84-10.48-12.94,0,0-9.42,5.71-12.9-4.06-3.48-9.77,6.44-16.16,8.84-21.17l5.35-2.49-.6-3.43h.02Z"/>
          <path class="st36" d="M252.78,221.74s-21.91-3.26-30.64,17c0,0-.31,10.15,7.69,20.26,0,0,6.83,11.87,7.62,16.25s5.19,8.34,13.51,8.46c0,0,16.95.13,21.06-3.87,0,0-14.83,3.16-13.99-18.31,0,0,2.53-18.52,16.84-16,0,0-2.95-3.79-15.15-4.63,0,0-2.1-15.15-6.95-19.15h0Z"/>
          <path class="st49" d="M325.87,214.14s17.66-19.42,6.81-50.11c0,0-6.1-21.86-13.32-29.01,0,0,4.27-3.64,0-10.66,0,0,22.25,15.29,28.56,33.39s3.85,50.1-14.28,63.99l-7.77-7.6Z"/>
          <path class="st34" d="M317.26,225.21s12.55-16.53,13.39-16.53,6.31,1.26,8-5.05c0,0-4.63,13.47-7.16,15.15,0,0-.16,1.19,4.13-1.09l-8.55,13.93s-8.05-2.94-9.82-6.42h0Z"/>
          <path class="st49" d="M292.66,277.13s-7.51,6.32-9.59,18.82-10.08,17.13-16.82,20.08-18.94,13.05-18.94,13.05c0,0-11.13,6.66-16.93,6.91-5.8.25,0,0,0,0,0,0-2.86-3.12.09-3.96,0,0,20.84-11.16,23.78-15.79,2.95-4.63,4.21-5.05,4.63-8.84s7.16-13.05,13.47-18.1c6.31-5.05,8.42-7.58,10.73-12.84,0,0,8.41,1.13,9.57.67h0Z"/>
          <path class="st47" d="M259.93,314.6s7.79-9.72,8.21-11.82c.42-2.1,3.79-9.06,6.74-8.95,2.95.11,0,8.11-.84,9.37s-1.41,2.87-5.13,4.8c-3.71,1.93-6.66,4.95-8.97,6.6h0Z"/>
          <path class="st47" d="M332.68,139.43s26.61,29.27,5.98,64.21c0,0,3.32-50.31-8.23-60.94,0,0,3.85,3.24,2.25-3.27h0Z"/>
          <path class="st48" d="M272.03,279.83s-13.57.63-13.99-18.31c0,0,1.68-16.84,16.84-16,0,0,8.42,2.95,12.63-1.26,0,0,2.95-8,6.74-10.1,3.79-2.1,10.95-10.95,11.37-12.42,0,0,6.73-1.89,10.94,2.74s10.52,7.16,10.52,7.16c0,0,7.16,5.05,5.47,8.42,0,0,3.79,2.1,2.95,8,0,0-.6,1.79.12,4.05,0,0,.72,12.78-10.65,14.47-11.37,1.68-9.26.84-13.47,3.37,0,0-10.95,5.05-26.52,3.37,0,0-6.53.42-12.95,6.53v-.02Z"/>
          <path class="st31" d="M272.03,279.83s-13.57.63-13.99-18.31c0,0,1.68-16.84,16.84-16,0,0,8.42,2.95,12.63-1.26,0,0,2.95-8,6.74-10.1,3.79-2.1,10.95-10.95,11.37-12.42,0,0,6.73-1.89,10.94,2.74s10.52,7.16,10.52,7.16c0,0,7.16,5.05,5.47,8.42,0,0,3.79,2.1,2.95,8,0,0-.6,1.79.12,4.05,0,0,.72,12.78-10.65,14.47-11.37,1.68-9.26.84-13.47,3.37,0,0-10.95,5.05-26.52,3.37,0,0-6.53.42-12.95,6.53v-.02Z"/>
          <path d="M314.03,261.94s.21,3.58,11.16-.63c0,0,6.31-1.26,9.68-10.95,0,0,.23-2.32-1.04,0-1.27,2.32-3.8,9.05-13.48,11.16,0,0-2.1.84-6.31.42h0Z"/>
          <path d="M332.55,240.05s-3.62,10.21-9.7,12.57c0,0-3.6,2.13-5.47,3.72,0,0-9.03,4.12-11.55.33-2.53-3.79-.84-4.63-.84-4.63,0,0-1.68-1.68-1.68-.42s0,6.31,2.95,7.16c2.95.84,12.45.73,18.86-6.16,6.4-6.89,8.09-9.84,7.46-12.57h-.03Z"/>
          <path d="M293.61,262.57s-5.53-6.27-4.45-11.98c0,0,.32-7.28-.14-8.18l-1.51,1.84s1.05,4.42.21,7.37,1.68,7.16,2.53,8.42,1.99,3.31,1.99,3.31l1.37-.79h0Z"/>
          <path d="M311.71,223.42s-6.31,12.48-8.42,12.56l2.96,1.48s4.2-12.78,5.46-14.04h0Z"/>
          <path d="M296.56,236.05s5.44-1.96,14.72,3.23c0,0,3.39,1.4,5.07,2.25s8.84-8,8.84-8l.84-1.68,2.05.56s-10.56,11.04-10.1,11.55c.46.52.46,8.52-7.11,8.09-7.58-.42-9.31.58-9.31.58,0,0-2.55-1.18-3.99-.04s-2.95-1.99-2.95-1.99c0,0,5.54-.4,9.1,0s11.06,1.81,12.57-4.37c0,0,.79-4.52-4.95-5.14,0,0-7.85-2.73-9.95-3.99,0,0-3.79-1.68-4.84-1.05h.01Z"/>
          <path class="st8" d="M260.78,269.31s4.9-2.73,8.13-2.84,11.23-5.16,11.23-5.16c0,0,5.81-1.26,5.64-6.31l.47-4.4s4.2,12.29,5.99,12.76l-7.26,9.95s-10.96,3.58-12.95,6.53c0,0-15.04-.84-11.26-10.52h.01Z"/>
          <path class="st34" d="M294.63,274.66s-2.7,4.76-7.12,5.18c0,0-6.1.84-4-3.37s16.27-23.88,16.27-23.88c0,0,2.25,1.14,3.51-.96,0,0-.08,3.85,1.85,6.56l-10.52,16.48h0Z"/>
          <path class="st34" d="M307.5,237.8l9.76-12.59s5.82,5.36,9.82,6.42l-9.79,10.71s-7.68-3.2-9.79-4.53h0Z"/>
        </g>
        <g>
          <g>
            <polygon class="st44" points="166.44 166.51 165.43 166.49 165.34 167.19 166.35 167.2 166.44 166.51"/>
            <polygon class="st44" points="170.19 171.43 171.17 171.43 171.24 170.73 170.26 170.73 170.19 171.43"/>
            <polygon class="st44" points="168.69 171.44 169.68 171.43 169.76 170.73 168.77 170.73 168.69 171.44"/>
            <path class="st44" d="M178.68,170.43h.56c.43,0,.76-.11,1.01-.35.22-.2.34-.45.37-.75l.18-2.54-.98-.02-.17,2.33c-.03.37-.21.56-.55.56h-2.02c-.24,0-.42-.05-.54-.16.27-.13.57-.32.89-.59.29-.24.49-.45.58-.6-.65-.43-1.39-.65-2.21-.66-.69,0-1.4.14-2.11.44l-.07.67c.29.04.59.15.89.3.25.13.43.25.53.38-.29.13-.63.2-1,.19h-2.71c.1-.19.16-.38.19-.61l.14-1.29h-1.09l-.14,1.31c-.04.38-.25.57-.62.57h-1.76l.23-1.93-1.12-.02-.2,1.61c-.1.79-.72,1.37-1.6,1.37s-1.39-.56-1.28-1.38l.22-1.63-1.17-.02-.24,1.72c-.17,1.2.89,2.12,2.36,2.12.97,0,1.85-.39,2.36-1.03h6.4c.31,0,.62-.04.95-.12.3-.08.54-.18.73-.29.31.27.69.41,1.12.41h1.89-.02ZM176.37,168.78c-.18.12-.35.21-.51.26-.15-.16-.3-.28-.43-.35-.13-.08-.3-.16-.51-.24.3-.11.6-.16.9-.15s.61.07.91.2c-.08.08-.2.18-.36.28h0Z"/>
            <polygon class="st44" points="181.27 170.43 182.25 170.43 182.47 166.82 181.51 166.8 181.27 170.43"/>
            <path class="st44" d="M186.09,171.36h1.23l.03-.76h-1.28c-.64,0-.95-.2-.93-.61.02-.43.32-.6.99-.6h1.83l.03-.73h-1.47c-.24-.11-.36-.29-.35-.56.02-.34.26-.58.58-.57.26,0,.42.11.49.32l.75-.27c-.2-.42-.64-.67-1.2-.68-.81-.02-1.47.5-1.5,1.15,0,.19.03.47.12.66-.73.17-1.16.64-1.19,1.27-.05.88.64,1.38,1.86,1.37h0Z"/>
            <path class="st44" d="M190.29,169.93l.06-1.94h-.9l-.07,2.01c-.02.48-.33.72-.92.72l-.02.63c.63,0,1.09-.11,1.37-.33.31-.23.47-.59.48-1.09h0Z"/>
            <polygon class="st44" points="191.9 167 191.03 166.98 190.93 170.43 191.82 170.43 191.9 167"/>
            <path class="st44" d="M194.12,170.43h4.14c.24.3.61.45,1.11.45.81,0,1.32-.49,1.31-1.17s-.53-1.16-1.35-1.17-1.31.45-1.31,1.19h-3.85l.03-1.68h-.86l-.04,1.97c0,.47-.3.71-.88.71v.61c.98,0,1.54-.3,1.69-.89v-.02ZM199.32,169.12h.06c.34,0,.51.21.52.61,0,.33-.21.56-.52.56-.35,0-.55-.24-.55-.6s.2-.58.5-.58h0Z"/>
            <rect class="st44" x="193.49" y="166.97" width=".6" height=".76" transform="translate(22.75 357.89) rotate(-88.9)"/>
            <path class="st44" d="M163.65,192.59c-.05-.16-.1-.28-.14-.37s-.09-.18-.15-.26-.15-.14-.26-.18c-.12-.04-.26-.05-.44-.04s-.33.06-.45.13c-.13.07-.24.15-.32.24-.08.1-.17.21-.25.35s-.16.26-.21.36l-2.13,3.58c-.09.15-.15.26-.2.34-.04.08-.06.16-.07.23-.02.13.03.23.15.31.11.08.26.12.43.09.2-.02.35-.09.45-.19.1-.1.23-.3.39-.57l.4-.71,2.62-.31.23.61c.03.08.07.16.11.26.04.1.08.17.13.22.04.05.1.08.17.1.07.02.15.03.26,0,.17-.02.32-.09.46-.21.13-.11.21-.23.22-.35,0-.11-.03-.29-.13-.53l-1.24-3.12h-.03ZM161.28,195.07l1.23-2.24.69,2.02-1.92.22Z"/>
            <path class="st44" d="M166.62,191.35c-.17.02-.31.08-.42.18-.11.11-.18.25-.21.44l-.48,4.1c-.02.19.02.33.11.41.09.09.23.12.39.1.17-.02.32-.09.44-.2s.19-.26.21-.46l.46-4.08c.02-.19,0-.32-.11-.41-.09-.08-.23-.12-.4-.1v.02Z"/>
            <path class="st44" d="M173.01,191.61c-.05-.15-.1-.27-.14-.36-.03-.09-.08-.17-.14-.25-.06-.07-.14-.13-.25-.17-.1-.04-.24-.05-.4-.04s-.3.05-.41.12c-.12.06-.21.14-.29.23-.08.09-.15.2-.22.34s-.14.25-.19.34l-1.85,3.4c-.08.14-.13.25-.16.32-.04.08-.06.15-.07.22,0,.12.04.22.14.3.11.08.24.11.4.09.18-.02.32-.08.4-.18.09-.1.21-.28.34-.54l.35-.68,2.39-.28.22.59c.03.07.07.16.11.25.04.1.09.16.13.21.04.04.09.07.16.09.06.02.14.03.24,0,.16-.02.29-.08.41-.19.12-.11.19-.22.19-.34,0-.11-.04-.28-.14-.5l-1.22-2.98h0ZM170.91,193.96l1.06-2.12.69,1.92-1.75.2Z"/>
            <path class="st44" d="M175.59,191.76c-.15.02-.28.07-.38.17-.1.1-.16.24-.18.42l-.22,2.59c0,.18.02.31.11.39s.21.12.36.1.29-.08.4-.19.17-.25.18-.43l.21-2.6c0-.16-.03-.28-.12-.36s-.22-.11-.37-.09h0Z"/>
            <path class="st44" d="M176.05,190.55c-.1-.06-.21-.09-.35-.07s-.26.07-.38.16c-.11.09-.17.2-.18.33,0,.14.03.24.13.31.09.07.22.09.36.08s.26-.07.37-.15c.11-.09.17-.2.18-.33s-.03-.24-.13-.3v-.03Z"/>
            <path class="st44" d="M180.25,191.84c-.09-.17-.23-.3-.44-.37-.2-.08-.43-.1-.7-.08s-.52.1-.74.22-.43.29-.62.52v-.11c.02-.11,0-.19-.03-.26-.04-.07-.09-.12-.17-.14-.07-.03-.15-.04-.24-.03-.14.02-.27.07-.36.16s-.14.22-.15.39l-.2,2.59c0,.18.02.31.11.39s.21.12.36.1c.16-.02.29-.08.39-.19.1-.1.16-.25.18-.43l.08-1.12c.03-.36.07-.61.13-.75.08-.17.2-.31.36-.42s.33-.17.51-.2c.28-.03.46.03.53.17.08.14.12.36.1.65l-.1,1.48c0,.17.02.3.11.39.09.08.21.11.36.1s.27-.08.37-.18.15-.24.16-.42l.11-1.64c0-.19,0-.35,0-.47s-.04-.23-.11-.33v-.02Z"/>
            <path class="st44" d="M186.19,189.57c-.08-.06-.19-.08-.36-.06l-2.44.24c-.15,0-.27.05-.37.09-.1.05-.17.12-.22.21-.05.09-.08.2-.09.33l-.2,3.57c0,.19.03.33.13.42.1.08.22.12.38.1.15-.02.28-.08.39-.19.1-.11.16-.26.17-.45l.08-1.53,1.72-.19c.16-.02.27-.06.36-.13.08-.07.12-.16.13-.26s-.03-.19-.1-.24-.19-.07-.35-.06l-1.71.19.06-1.17,2.04-.21c.16-.02.28-.06.37-.13.08-.07.12-.16.13-.27s-.03-.19-.11-.24v-.02Z"/>
            <path class="st44" d="M189.57,192.49c0-.17,0-.32.02-.46l.02-.5c0-.31-.03-.55-.12-.73s-.25-.29-.47-.35c-.22-.06-.54-.07-.94-.03-.36.04-.67.12-.92.23-.25.12-.43.25-.55.4-.12.15-.19.3-.19.45,0,.1.03.17.1.22s.17.07.27.06c.12,0,.19-.04.23-.08.04-.04.1-.13.19-.26.09-.13.2-.23.32-.3.12-.07.3-.12.53-.15.27-.03.45,0,.53.1.08.09.13.25.13.47-.19.07-.38.14-.54.19-.17.05-.37.12-.6.19-.23.07-.38.11-.44.13-.28.09-.51.22-.69.41-.17.18-.26.39-.27.62,0,.17.03.33.13.47.09.14.23.24.41.3.18.06.39.08.63.05.26-.03.5-.1.71-.21.22-.11.43-.25.66-.44.1.14.19.25.28.32s.18.1.27.09c.11,0,.22-.06.31-.14s.14-.17.14-.25c0-.05-.02-.16-.07-.32s-.07-.32-.07-.48h-.01ZM188.69,192.19c0,.29-.06.51-.14.64-.08.12-.2.23-.35.32-.16.09-.33.15-.51.17-.17.02-.31,0-.42-.08s-.15-.18-.15-.31.05-.23.15-.31c.09-.08.19-.14.29-.17.1-.03.28-.09.55-.17.26-.08.46-.15.59-.21v.12h0Z"/>
            <path class="st44" d="M192.44,190.1c-.17-.07-.35-.09-.54-.07s-.33.08-.45.18c-.11.1-.23.24-.34.42,0-.17-.04-.29-.1-.37-.06-.08-.17-.11-.32-.1-.29.03-.45.23-.46.6l-.07,2.31c0,.17.04.29.12.37.08.07.19.11.32.09s.24-.07.33-.17c.09-.1.14-.23.14-.4l.02-.7c0-.25.02-.46.04-.63.02-.17.06-.33.11-.46s.11-.23.2-.3c.08-.07.19-.12.32-.13.09,0,.2,0,.33.02.12.02.2.03.23.03.08,0,.17-.05.24-.12.08-.07.11-.16.11-.26,0-.14-.08-.24-.25-.31h.02Z"/>
            <path class="st44" d="M197.24,189.59c-.16-.07-.36-.09-.59-.07-.2.02-.38.08-.54.17-.17.1-.32.23-.47.41-.1-.15-.22-.26-.38-.32-.15-.06-.33-.08-.55-.06s-.39.08-.57.18c-.17.1-.33.24-.49.42v-.08c0-.13-.04-.23-.11-.29-.08-.07-.18-.09-.3-.08s-.22.06-.3.15-.12.21-.12.36l-.05,2.34c0,.17.04.3.12.37.08.08.19.11.33.09s.24-.07.33-.17c.08-.1.13-.23.13-.4l.02-1.1c0-.34.06-.61.15-.8s.28-.3.56-.33c.14-.02.24,0,.31.07.06.06.1.15.11.26s.02.27,0,.47l-.02,1.29c0,.17.04.3.12.37.08.08.19.11.31.09.13-.02.24-.07.33-.17.08-.1.12-.23.12-.4v-1.07c0-.34.05-.59.11-.73.06-.11.13-.2.23-.28.1-.07.21-.12.32-.13.14-.02.24,0,.31.07.07.06.11.14.12.25.02.1.02.24.02.41v1.35c0,.17.03.29.12.36.08.08.18.11.31.09s.24-.07.32-.17c.08-.09.12-.23.12-.39v-1.56c0-.31-.03-.53-.1-.66-.08-.15-.2-.26-.37-.32h.03Z"/>
            <path class="st44" d="M200.39,190.6c-.16-.06-.37-.11-.62-.14-.21-.03-.38-.05-.5-.07s-.22-.05-.29-.1c-.07-.05-.11-.11-.11-.19,0-.09.05-.17.15-.24.1-.07.22-.11.36-.13s.26,0,.34.03c.08.04.16.09.22.16.08.08.14.14.2.18s.13.06.21.05c.11,0,.2-.05.26-.12.06-.06.09-.14.09-.23,0-.08-.03-.16-.09-.24s-.14-.15-.25-.21c-.11-.06-.25-.1-.42-.12-.17-.02-.35-.03-.57,0-.27.03-.49.09-.68.2-.19.1-.34.23-.44.38-.1.15-.15.3-.15.46,0,.18.05.32.16.43.11.11.25.19.42.25.18.05.41.1.69.13.25.03.43.07.54.12.11.05.16.15.17.28,0,.09-.05.18-.16.26s-.24.13-.4.15c-.2.02-.36,0-.48-.05-.12-.06-.22-.15-.31-.28-.04-.07-.08-.12-.13-.16-.04-.03-.11-.05-.2-.04-.1,0-.18.05-.25.12-.06.07-.1.15-.1.24,0,.13.05.26.15.38.1.12.26.21.47.27s.46.07.76.04c.31-.04.57-.11.78-.22.21-.11.37-.24.48-.41s.16-.36.16-.58c0-.14-.04-.27-.13-.37-.08-.1-.2-.19-.36-.25l.03.02Z"/>
          </g>
          <path class="st41" d="M191.44,185.96c-1.38.63-2.92,1.17-4.58,1.55-8.19,1.9-15.77-.43-16.19-5.27-.28-3.26,2.85-6.56,7.47-8.63-5.79,1.99-10.02,5.81-9.71,9.58.39,4.93,8.15,7.26,16.53,5.29,2.46-.58,4.66-1.47,6.49-2.52"/>
          <path class="st44" d="M193.08,176.21l-1.05.43c-.09.04-.13.12-.09.2.03.07.13.1.21.07l1.06-.43c.08-.03.12-.12.09-.2-.03-.07-.13-.1-.21-.07h0Z"/>
          <path class="st44" d="M192.3,178.53c-.1,0-.18.06-.2.14,0,.08.06.15.15.16l1.22.07c.09,0,.18-.06.2-.14,0-.08-.06-.15-.15-.16l-1.22-.07Z"/>
          <path class="st44" d="M192.35,175.19l-.91.65c-.07.06-.09.14-.03.21.05.06.16.08.23.02l.92-.65c.07-.05.08-.14.03-.2-.06-.06-.16-.07-.23-.02h0Z"/>
          <path class="st44" d="M193.48,177.37l-1.13.19c-.09,0-.16.1-.15.17,0,.08.09.14.18.12l1.14-.19c.09-.02.15-.09.14-.17s-.09-.13-.18-.12Z"/>
          <path class="st44" d="M191.58,174.35c-.08-.05-.17-.03-.23.03l-.7.83c-.06.07-.05.16.03.2.08.05.18.03.23-.03l.71-.83c.06-.07.04-.16-.03-.21h-.01Z"/>
          <path class="st44" d="M191.49,184.64c-.69.07-2.02.21-3.41.29l-.02.53c.22-.02.36-.04.36-.04l2-.16c.37-.2.73-.41,1.07-.62Z"/>
          <path class="st44" d="M188.03,186.31c.17-.06.33-.12.49-.18h0c-.15,0-.34.02-.49.03v.15Z"/>
          <path class="st44" d="M190.01,185.47h0c-.51.05-1.25.11-1.95.15v.35c.22-.03.35-.03.35-.03l.68-.05c.32-.14.63-.28.92-.42Z"/>
          <path class="st44" d="M183.49,175.52c-.06.07-.05.16.02.21l.98.61c.08.05.19.03.25-.04.06-.07.05-.16-.03-.21l-.97-.6c-.08-.06-.2-.03-.26.04h0Z"/>
          <path class="st44" d="M182.65,176.7c-.03.07,0,.14.07.18l2.1.65s.03-.08.05-.12c.8-1.58,2.84-2.37,4.57-1.81,1.71.55,2.51,2.23,1.79,3.79,0,.04-.04.08-.05.12l1.95.6c.07,0,.15-.03.18-.1.04-.08,0-.16-.09-.19l-1.47-.46c.68-1.72-.24-3.54-2.12-4.15-1.91-.62-4.17.2-5.14,1.89l-1.59-.49c-.1-.03-.2,0-.25.09h0Z"/>
          <path class="st44" d="M185.56,175.59c.08-.06.09-.15.04-.22l-.73-.8c-.06-.06-.17-.07-.24-.02-.08.06-.1.15-.04.21l.73.8c.05.06.17.07.25.02h0Z"/>
          <path class="st44" d="M189.75,174.98c.08.03.18,0,.22-.09l.46-.95c.04-.08,0-.16-.09-.19s-.18,0-.22.08l-.45.95c-.04.08,0,.16.09.19h-.01Z"/>
          <path class="st44" d="M188.9,174.64l.17-1.01c.02-.08-.05-.15-.14-.16-.1,0-.18.05-.19.13l-.17,1.02c-.02.08.05.15.14.15.09,0,.19-.05.19-.13Z"/>
          <path class="st44" d="M186.54,175.08c.09-.04.14-.12.1-.2l-.44-.94c-.03-.08-.14-.11-.22-.08-.09.03-.14.12-.1.2l.44.94c.04.07.14.11.22.07h0Z"/>
          <path class="st44" d="M187.61,174.8c.1,0,.17-.09.16-.17l-.14-1.01c0-.08-.1-.14-.19-.12-.1,0-.16.09-.15.17l.14,1.01c0,.08.1.14.19.12h-.01Z"/>
          <path class="st44" d="M177.97,184.37c-.52-.04-1.09-.06-1.66-.06.87.18,1.65.25,1.65.25v-.2h.01Z"/>
          <path class="st44" d="M181.85,184.22c-1-.25-1.91-.54-2.45-.79-.24-.11-.61-.19-1.04-.24h0l-.03.5c.45.05.83.13,1.09.25.53.25,1.43.52,2.41.77l.03-.49h-.01Z"/>
          <path class="st44" d="M181.88,183.71c-.99-.26-1.91-.54-2.44-.78-.24-.12-.61-.2-1.04-.25l-.03.36c.47.05.86.13,1.13.26.51.24,1.39.51,2.36.76l.02-.34h0Z"/>
          <path class="st44" d="M179.04,187.46s.06,0,.09,0c-.03,0-.06,0-.09,0Z"/>
          <path class="st44" d="M179.55,184.56c.57.11,1.14.33,1.56.51.22.06.45.12.68.18l.02-.36c-1.02-.26-1.95-.54-2.5-.79-.23-.11-.59-.19-1-.24l-.03.37c.45.05.83.13,1.09.25.05.03.11.05.17.08h.01Z"/>
          <path class="st44" d="M172.35,179.12s-.03.05-.04.08c0-.03.03-.05.04-.08Z"/>
          <path class="st44" d="M178.26,184.4v.12c.14-.04.3-.05.47-.05-.14-.03-.3-.05-.47-.07h0Z"/>
          <path class="st44" d="M172.26,183.84s-.05-.09-.08-.14c.02.05.05.09.08.14Z"/>
          <path class="st44" d="M187.79,185.66c-.81.04-1.63,0-2.22-.05-.91-.1-2.23-.35-3.47-.65l-.02.35c1.26.3,2.61.56,3.51.66.93.11,1.69.06,2.19.02v-.33h.01Z"/>
          <path class="st44" d="M182.69,183.91c-.17-.04-.35-.08-.52-.12l-.02.34c.17.04.34.08.52.12l.02-.34Z"/>
          <path class="st44" d="M178.02,183.83c-1.09-.1-2.49-.05-3.4,0,.29.13.64.24,1,.33.76-.02,1.63-.02,2.37.04l.03-.37Z"/>
          <path class="st44" d="M182.07,185.5h0c.44.48,2.91.66,4.02.85.41.07.74.17,1,.28.22-.06.45-.14.67-.22v-.24c-.75.03-1.57.04-2.21-.04-.92-.09-2.24-.34-3.48-.64h0Z"/>
          <path class="st44" d="M192.25,184.12c-.59.04-2.4.22-4.15.3v.36c.1,0,.15,0,.16,0l3.48-.3c.18-.12.35-.23.51-.35h0Z"/>
          <path class="st44" d="M187.81,184.96c-.87.04-1.75.03-2.33-.04-.33-.03-.7-.09-1.11-.16l-1.74.13.03-.48c-.18-.04-.35-.08-.52-.12l-.03.5c1.26.3,2.6.56,3.5.66.92.1,1.69.09,2.18.05l.02-.53h0Z"/>
          <path class="st44" d="M187.83,184.46c-.91.04-1.78.03-2.32-.04-.28-.03-.6-.08-.94-.14l-.02.34c.36.06.69.11.97.14,1.01.12,1.83.08,2.29.04v-.35h.02Z"/>
          <path class="st44" d="M178.1,182.65c-1.2-.11-2.74-.04-3.54,0l-.03.36c.8-.05,2.33-.11,3.54,0l.03-.36Z"/>
          <path class="st44" d="M174.48,183.66c.88-.05,2.37-.1,3.55,0l.04-.5c-1.2-.1-2.74-.04-3.55,0l-.04.48h0Z"/>
          <path class="st44" d="M195.45,180.42l-2.02.11-5.03.28-.11.16.02-.8-2.92-1.86-2.67.07-.47.56-.23-.54-2.97.1-5.49.22-1.08,2.01.44-.05-.24,2.55c.53,0,1.32.39,1.43.44h0l.04-.48h-.19v-.15s.1,0,.2-.02l.03-.36h-.18v-.15s.09,0,.19-.02l.02-.24.35-.02-.02.24c.8-.04,2.33-.1,3.54,0v-.19l.3-.02-.02.24c.47.05.86.14,1.13.26.51.24,1.39.51,2.36.76l.02-.26.3-.02-.02.35c.17.04.34.09.52.12l.09-1.56,1.89-.11-.1,2.06c.36.06.69.11.97.15,1.01.11,1.82.08,2.29.04v-.27l.28-.02v.27c.1,0,.16-.03.17-.03l4.19-.3c.2-.15.39-.31.57-.46.72-.61,1.32-1.26,1.77-1.94l-5.07.34-1.12-.97,6.77-.38s.03-.08.05-.13v.02ZM177.27,182.02l-1.27.07.05-.51,1.27-.08-.04.52h-.01ZM181.58,181.77l-1.22.07.04-.5,1.21-.07-.03.5ZM187.6,180.48l-2.56-1.74-2.41,1.79v.08l-7.76.41-1.14-2.14,8.15-.35.32.62.71-.61,2.17-.09,2.96,1.88-.43.15h-.01ZM192.23,182.41l.99-.06v.51h-.16s-.64.05-.64.05h-.2v-.49s0,0,0,0ZM190.11,182.55l1.02-.07v.51l-.67.04-.24.02h-.13l.02-.51h0Z"/>
          <path class="st17" d="M195.88,177.59c.66,3.75-3.71,7.98-10.2,9.48-7.01,1.62-13.51-.58-13.98-4.94-.46-4.26,5.1-8.51,11.9-9.51,6.32-.93,11.62,1.29,12.27,4.96h0Z"/>
        </g>
      </g>
    </g>
  </g>
</svg>