<?xml version="1.0" encoding="UTF-8"?>
<svg xmlns="http://www.w3.org/2000/svg" xmlns:xlink="http://www.w3.org/1999/xlink" version="1.1" viewBox="0 0 302.66 596.31">
  <!-- Generator: Adobe Illustrator 29.7.1, SVG Export Plug-In . SVG Version: 2.1.1 Build 8)  -->
  <defs>
    <style>
      .st0 {
        fill: #0c0907;
      }

      .st1 {
        fill: #1c1d21;
      }

      .st2 {
        fill: url(#linear-gradient2);
      }

      .st3 {
        fill: url(#linear-gradient1);
      }

      .st4 {
        fill: #5220a0;
      }

      .st5 {
        stroke: #020202;
        stroke-width: 1.66px;
      }

      .st5, .st6, .st7, .st8, .st9, .st10, .st11, .st12, .st13 {
        stroke-miterlimit: 10;
      }

      .st5, .st6, .st7, .st12, .st13 {
        fill: none;
      }

      .st14 {
        fill: #19100a;
      }

      .st6 {
        stroke: #020102;
        stroke-width: 1.24px;
      }

      .st15, .st16 {
        fill: #282a30;
      }

      .st17, .st18 {
        fill: #27025b;
      }

      .st17, .st19, .st20 {
        opacity: .4;
      }

      .st21, .st22 {
        fill: #9f5b2c;
      }

      .st23 {
        fill: url(#linear-gradient);
      }

      .st22 {
        opacity: .6;
      }

      .st22, .st24, .st25, .st26, .st16 {
        mix-blend-mode: multiply;
      }

      .st27 {
        fill: #f9f7f7;
      }

      .st28 {
        isolation: isolate;
      }

      .st19 {
        fill: #1a023f;
      }

      .st7 {
        stroke: #f9f7f7;
        stroke-width: .08px;
      }

      .st8 {
        fill: #f7f3f0;
        stroke: #1c0d03;
      }

      .st8, .st11, .st12 {
        stroke-width: .41px;
      }

      .st29 {
        fill: #020202;
      }

      .st30 {
        fill: #d5b17c;
      }

      .st31 {
        fill: #020102;
      }

      .st32 {
        fill: #fff;
      }

      .st9 {
        stroke-width: 1.22px;
      }

      .st9, .st25, .st26, .st33, .st34, .st20 {
        fill: #7332c5;
      }

      .st9, .st13 {
        stroke: #000;
      }

      .st10 {
        stroke: #020101;
        stroke-width: .21px;
      }

      .st10, .st35 {
        fill: #57361e;
      }

      .st36 {
        fill: #ead7b3;
      }

      .st37 {
        fill: #545151;
        mix-blend-mode: screen;
      }

      .st25 {
        opacity: .1;
      }

      .st26, .st16 {
        opacity: .2;
      }

      .st11 {
        fill: #546058;
        stroke: #0c0907;
      }

      .st34 {
        opacity: .8;
      }

      .st12 {
        stroke: #070301;
      }

      .st13 {
        stroke-width: 2.49px;
      }
    </style>
    <linearGradient id="linear-gradient" x1="198.6" y1="39.93" x2="198.6" y2="80.06" gradientUnits="userSpaceOnUse">
      <stop offset="0" stop-color="#000"/>
      <stop offset="1" stop-color="#42210b" stop-opacity=".05"/>
    </linearGradient>
    <linearGradient id="linear-gradient1" x1="350.48" y1="286.15" x2="382.22" y2="286.15" gradientTransform="translate(560.25 -30.81) rotate(174.44) scale(1 -1)" gradientUnits="userSpaceOnUse">
      <stop offset="0" stop-color="#27025b"/>
      <stop offset=".72" stop-color="#000" stop-opacity="0"/>
    </linearGradient>
    <linearGradient id="linear-gradient2" x1="136.53" y1="279.87" x2="175.79" y2="279.87" gradientUnits="userSpaceOnUse">
      <stop offset="0" stop-color="#27025b"/>
      <stop offset="1" stop-color="#000" stop-opacity="0"/>
    </linearGradient>
  </defs>
  <g class="st28">
    <g id="Layer_1">
      <g>
        <g>
          <path class="st15" d="M173.33,279.87s.05-39.26-11.56-75.33c0,0,.41-24.88-36.9-38.56,0,0-14.3-3.11-17.62-4.35,0,0-11.61-3.32-25.71.41,0,0-6.63,2.07-10.37,6.22,0,0,2.49,14.51-10.37,25.71,0,0-11.61,11.19-26.53,4.56,0,0-5.8-2.9-7.88-6.22,0,0,1.24,10.78,4.15,15.75,2.9,4.98,3.53,12,3.53,12,0,0,1.44,9.14,23.42,3.75,0,0,7.88-2.07,14.93-4.98,0,0,23.22.41,34.83-13.68,0,0-.41,16.58,18.24,31.1,0,0,10,2.72,11.43,33.91l36.4,9.7Z"/>
          <path class="st16" d="M161.77,204.54s-14.93-5.8-23.22-11.61c0,0-5.76,8.67-7.03,27.14l12.83,9.35s-3.29,2.18,2.29,6.9,23.43.8,20.52-11.34c-2.91-12.14-5.4-20.43-5.4-20.43Z"/>
          <path d="M114.51,185.89s-13.68,15.34-36.49,13.68c0,0,19.49,7.05,36.49-13.68Z"/>
          <path class="st20" d="M124.46,167.43s-10.11-4.82-11.19-2.69c-1.09,2.13,6.84,11.19,6.77,12.44,0,0,15.62,18.24,41.74,27.36,0,0-4.15-29.85-37.31-37.11Z"/>
          <path d="M72.01,177.18s4.36,20.73-11.4,31.51c0,0,17.41-4.56,11.4-31.51Z"/>
          <path d="M75.53,187.96s-1.24,15.34-5.8,19.9l4.56-5.39s1.24-7.05,1.24-14.51Z"/>
          <path class="st20" d="M110.76,162.67s12.42,8.71,0,14.51c0,0-9.94,9.54-21.96,12.02,0,0-11.61,6.22-14.51-7.46,0,0,0-10.78-3.11-13.47,0,0,13.45-14.3,39.58-5.6Z"/>
          <path class="st13" d="M173.33,279.87s.05-39.26-11.56-75.33c0,0,.41-24.88-36.9-38.56,0,0-14.3-3.11-17.62-4.35,0,0-11.61-3.32-25.71.41,0,0-6.63,2.07-10.37,6.22,0,0,2.49,14.51-10.37,25.71,0,0-11.61,11.19-26.53,4.56,0,0-5.8-2.9-7.88-6.22,0,0,1.24,10.78,4.15,15.75,2.9,4.98,3.53,12,3.53,12,0,0,1.44,9.14,23.42,3.75,0,0,7.88-2.07,14.93-4.98,0,0,23.22.41,34.83-13.68,0,0-.41,16.58,18.24,31.1,0,0,10,2.72,11.43,33.91l36.4,9.7Z"/>
          <path d="M113.26,163.4s10.78,27.05,48.51,41.14c0,0-48.92-15.95-48.51-41.14Z"/>
          <path d="M107.46,208.69s14.93-16.58,17-26.53l-4.52-2.53s-9.31,23.26-16.91,28.65l4.43.41Z"/>
          <path class="st15" d="M219.11,279.87s11.07-59.57,15.22-68.28c0,0,9.95-26.53,24.05-24.88,0,0,13.27,3.73,18.24,23.63,0,0,7.46,10.78,7.46,26.12,0,0,0,10.78,6.22,18.66,6.22,7.88,9.95,18.24,9.54,22.8,0,0-26.53-12.44-41.46,19.49,0,0-4.14-4.96-5.7-25.18,0,0,.86-9.97-3.46-16.54-4.32-6.58-6.39-11.97-5.97-14.87l-1.66-.41s-4.77,13.47-4.99,35.38c-.21,21.04,0,0,0,0l-17.48,4.08"/>
          <path class="st20" d="M238.36,203.02s11.72-21.28,20.01-16.3c0,0,1.79,10.39-4.54,17.83-4.59,5.39-3.34,5.8-5.41,11.19l-14.1-4.15,4.04-8.57Z"/>
          <path d="M246.35,209.52s13.68-12.85,12.02-22.8c0,0,3.46,9.13-5.94,22.19,0,0-2.76,1.86-2.76,6.01,0,0-2.07,19.49-5.6,26.33l-3.73-.83s10.16-25.91,8.08-28.4l-2.07-2.49Z"/>
          <path d="M256.71,258.44s13.27,18.66,20.73-10.37c0,0-.82,13.96-8.7,17.55,0,0-8.3,1.52-12.03-7.18Z"/>
          <path d="M252.57,260.93s25.19,22.8,26.07-19.69c0,0,4.19,17.21-6.59,25.91,0,0-12.44,5.39-19.49-6.22Z"/>
          <path class="st20" d="M270.81,212.83s-7.88-12.07-11.82-1.48c-3.94,10.6-8.5,25.68-2.28,34.1,6.22,8.42,17.83,18.22,20.73-7.2,0,0-.83-15.47-6.63-25.42Z"/>
          <path class="st13" d="M219.11,279.87s11.07-59.57,15.22-68.28c0,0,9.95-26.53,24.05-24.88,0,0,13.27,3.73,18.24,23.63,0,0,7.46,10.78,7.46,26.12,0,0,0,10.78,6.22,18.66,6.22,7.88,9.95,18.24,9.54,22.8,0,0-26.53-12.44-41.46,19.49,0,0-4.14-4.96-5.7-25.18,0,0,.86-9.97-3.46-16.54-4.32-6.58-6.39-11.97-5.97-14.87l-1.66-.41s-4.77,13.47-4.99,35.38c-.21,21.04,0,0,0,0l-17.48,4.08"/>
          <path class="st16" d="M234.33,211.59c-2.49,2.49-5.76,21.45-5.76,21.45.25.18.49.36.74.53-.51.41-.89.96-1.06,1.6-.49,1.88,1.01,3.9,3.33,4.5,2.07.54,4.11-.23,4.87-1.74,5.63,2.63,6.38.32,6.38.32l5.59-22.52c-2.07-.83-14.1-4.15-14.1-4.15Z"/>
          <path class="st33" d="M299.83,277.93s2.07,13.31,0,34.64c0,0-.83,10.41,0,14.84s-1.24,17.69-1.24,17.69c0,0-1.24,14.1-1.24,16.58s-.41,8.29-7.05,10.37c0,0-11.19,5.39-15.75,4.15,0,0-1.45-.62-2.69-1.45s-4.56-.83-4.56-.83c0,0-3.1.86-5.28-4.13,0,0-.31-2.14,0-3.78,0,0-4.67-2.46-4.25-6.61.41-4.15,1.66-4.98,1.66-4.98,0,0,1.66-2.49,2.07-8.29.41-5.8,11.19-14.1,11.19-14.1,0,0,1.66-6.22-2.49-15.75-4.15-9.54-11.82-18.86-11.82-18.86,0,0,9.42-20.03,23.68-21.31,0,0,12.19-1.28,17.78,1.83Z"/>
          <path class="st26" d="M299.42,338.87s-8.6-1.66-7.61,0,5.06,7.47,1.78,16.59c-3.28,9.12,3.77,6.22,3.77,6.22l2.07-22.81Z"/>
          <path d="M290.3,364.58s-3.73,3.73-5.39,3.73-7.88,2.9-9.12,4.15c-1.24,1.24-1.24,3.73-1.24,3.73,0,0,3.52-3.94,6.84-4.77s7.88-3.32,8.91-6.84Z"/>
          <path d="M262.01,366s4.49,2.72,5.82-1.42,2.99-9.12,5.47-9.12,3.32.83,2.49,3.73c0,0-2.9,5.39-3.73,6.22s4.35-6.43,1.45-8.08-4.35,9.62-4.45,10.2-.11,5.56,2.8,7.21c0,0-3.32-1.24-3.73-3.73-.41-2.49-.41-4.15-.41-4.15,0,0-2.13,2.62-5.83.89l.14-1.75Z"/>
          <path class="st26" d="M263.58,288.53s10.7,12.99,13.94,29.8c0,0,11.95-4.37,12.78,0v-42.68s-16.53-3.47-26.71,12.88Z"/>
          <path d="M300.03,330.72s-11.18-3.82-16.47-2.19c0,0,17.07,4.56,16.47,6.41v-4.22Z"/>
          <path class="st26" d="M268.98,346.59s9.56-2.23,10.46-11.4c0,0-1.58-1.71-4.07,1.61-2.49,3.32-4.48,8.38-6.39,9.79Z"/>
          <path class="st26" d="M279.44,275.84s-2.14,2.36-.2,10.73c1.94,8.36,4.32,24.58,4.32,24.58,0,0,2.05-12.79,2.74-21.97l.69-9.18s2.75-6.66-7.54-4.16Z"/>
          <path class="st13" d="M299.83,277.93s2.07,13.31,0,34.64c0,0-.83,10.41,0,14.84s-1.24,17.69-1.24,17.69c0,0-1.24,14.1-1.24,16.58s-.41,8.29-7.05,10.37c0,0-11.19,5.39-15.75,4.15,0,0-1.45-.62-2.69-1.45s-4.56-.83-4.56-.83c0,0-3.1.86-5.28-4.13,0,0-.31-2.14,0-3.78,0,0-4.67-2.46-4.25-6.61.41-4.15,1.66-4.98,1.66-4.98,0,0,1.66-2.49,2.07-8.29.41-5.8,11.19-14.1,11.19-14.1,0,0,1.66-6.22-2.49-15.75-4.15-9.54-11.82-18.86-11.82-18.86,0,0,9.42-20.03,23.68-21.31,0,0,12.19-1.28,17.78,1.83Z"/>
          <path class="st33" d="M71.18,168.26s-6.11-10.3-6.27-17.07c0,0,.24-17.15,1.28-20.87,0,0,.22-4.05,3.53-5.13s10.59-6.89,10.59-6.89c0,0,4.75-2.07,6.41-5.8,1.66-3.73,5.8-8.22,9.54-10.33,0,0,7.73-3.86.75-7.75,0,0-7.51-2.23-12.01,5.65,0,0-5.69,7.76-15.87,6.37,0,0-5.95-2.45-9.72.98,0,0-7.2-3.01-29.54,0,0,0,.63,7.47,5.32,12.08,0,0,2.81,2.66,1.47,9.44-1.34,6.78-2.17,16.73-7.98,29.59-5.8,12.85-3.4,32.09-3.4,32.09l2.02,7.3s14.76,4.38,24.45,1.36c9.69-3.02,22.12-15.04,19.43-31Z"/>
          <path class="st13" d="M71.18,168.26s-6.11-10.3-6.27-17.07c0,0,.24-17.15,1.28-20.87,0,0,.22-4.05,3.53-5.13s10.59-6.89,10.59-6.89c0,0,4.75-2.07,6.41-5.8,1.66-3.73,5.8-8.22,9.54-10.33,0,0,7.73-3.86.75-7.75,0,0-7.51-2.23-12.01,5.65,0,0-5.69,7.76-15.87,6.37,0,0-5.95-2.45-9.72.98,0,0-7.2-3.01-29.54,0,0,0,.63,7.47,5.32,12.08,0,0,2.81,2.66,1.47,9.44-1.34,6.78-2.17,16.73-7.98,29.59-5.8,12.85-3.4,32.09-3.4,32.09l2.02,7.3s14.76,4.38,24.45,1.36c9.69-3.02,22.12-15.04,19.43-31Z"/>
          <path d="M78.75,104.97s4.25,4.58,2.8,7.3c0,0-2.81-4.55-5.45-6.3l2.65-1Z"/>
          <path d="M57.21,107.25s-3.59,3.98-2.58,9.38c0,0,4.51-8.72,7.74-10.78l-5.15,1.4Z"/>
          <path d="M37.02,125.06s6.81,5.51,16.03,0c0,0-2.85,4.74-10.91,4.38l-5.22-2.18.1-2.2Z"/>
          <path d="M59.79,119.49s4.43,9.15,16.31-2.86c0,0-3.88,6.65-10.1,7.89,0,0-4.12.31-6.21-5.03Z"/>
          <path class="st26" d="M65.69,184.37s-5.54-33.73-8.84-39.95c-3.29-6.22-3.45-10.39-11.87-12.86h-5.58s.27,18.88-7.92,31.84c0,0-5.5,11.48-.83,32.94,0,0,16.21,14.83,35.94-8.38l-.89-3.59Z"/>
          <path class="st26" d="M60.81,193.97s-6.21-45.37-7.77-45.18c-1.56.19-3.32-1.47-3.27,3.92l8.63,43.27,2.41-2.02Z"/>
          <path class="st30" d="M2.52,80.57s6.15-7.52,6.62-10.18,2.13-13.03,6.28-15.1,16.11-11.23,19.46-15.36c3.34-4.13,9.05-10.13,14.9-12.1,0,0,2.54-.73,3.78-.73s8.29-5.39,13.68-7.05l9.12-7.88s.41-1.24,2.9-1.24,12.02,2.9,24.46-2.49l4.15-3.32s.41-1.24,4.15-1.24,11.61.83,15.75-.83c4.15-1.66,13.68.41,13.68.41,0,0,3.32.83,5.39.83s6.63,3.73,6.63,3.73c0,0,4.98,7.46,5.8,10.78s-.83,6.22-.83,6.22c0,0-3.32,3.32-2.9,10.78.41,7.46-4.15,13.68-4.15,13.68l-7.05,13.27s-2.07,6.22-5.8,8.29c0,0-9.49,7.21-12,10.65-2.51,3.44-5.91,5.57-8.56,5.96-2.65.39-5.79,4.33-5.79,4.33l-7.29,8.08s-1.6,1.24-2.85,1.24-2.9,1.66-3.73,1.66-1.45-2.28-1.45-2.28l3.05-4.72-2.91-1.55-4.48-.29-6.13,3.9-7.66,6.94-2.65,1-9.51.76-13.54-.44-13.85.44-9.32.68s-4.43.18-6.64-2.45-6.36-3.87-6.36-3.87c0,0-3.32-.41-5.39-4.98-2.07-4.56-5.8-7.88-5.8-7.88,0,0-2.99-3.75-3.15-7.68Z"/>
          <g class="st24">
            <path class="st30" d="M3.92,79.56c.05-.07.11-.14.16-.21-.05.07-.11.14-.16.21Z"/>
            <path class="st30" d="M4.16,79.24c.06-.08.12-.15.17-.23-.06.08-.12.15-.17.23Z"/>
            <path class="st30" d="M3.41,80.22c.07-.09.14-.18.21-.27-.07.09-.14.18-.21.27Z"/>
            <path class="st30" d="M4.42,78.9c.08-.11.17-.22.25-.33-.08.11-.17.22-.25.33Z"/>
            <path class="st30" d="M3.65,79.9c.06-.08.12-.16.19-.24-.06.08-.12.16-.19.24Z"/>
            <path class="st30" d="M5.66,77.23c.04-.06.08-.12.13-.18-.04.06-.08.12-.13.18Z"/>
            <path class="st30" d="M6,76.33"/>
            <path class="st30" d="M3.21,80.47c.04-.06.09-.11.14-.17-.05.06-.09.12-.14.17Z"/>
            <path class="st30" d="M5.32,77.69c.04-.06.08-.11.12-.17-.04.06-.08.11-.12.17Z"/>
            <path class="st30" d="M4.99,78.13s.07-.1.11-.14c-.04.05-.07.1-.11.14Z"/>
            <path class="st30" d="M2.51,81.35s.03-.04.05-.06c-.02.02-.03.04-.05.06Z"/>
            <path class="st30" d="M2.61,82.91c-.1-.48-.16-.97-.18-1.46.02.49.09.98.18,1.46Z"/>
            <path class="st30" d="M3.23,84.97c-.17-.43-.32-.89-.45-1.35.13.47.28.92.45,1.35Z"/>
            <path class="st30" d="M4.35,87.28c-.38-.65-.78-1.44-1.12-2.3.34.87.74,1.65,1.12,2.3Z"/>
            <path class="st30" d="M3.03,80.7s.08-.1.12-.15c-.04.05-.08.1-.12.15Z"/>
            <path class="st30" d="M2.43,81.45s0,0,.02-.02c-.01.01-.02.02-.02.02Z"/>
            <path class="st30" d="M5.3,88.76c-.11-.16-.26-.37-.42-.62.16.25.31.46.42.62Z"/>
            <path class="st30" d="M2.85,80.92s.08-.1.12-.15c-.04.05-.08.11-.12.15Z"/>
            <path class="st30" d="M2.7,81.12s.08-.1.13-.16c-.05.06-.09.11-.13.16Z"/>
            <path class="st30" d="M2.59,81.25s.04-.05.06-.07c-.02.02-.04.05-.06.07Z"/>
            <path class="st30" d="M2.45,81.43s.02-.03.04-.05c-.02.02-.03.04-.04.05Z"/>
            <path class="st30" d="M2.83,80.96s.02-.02.03-.03c0,.01-.02.02-.03.03Z"/>
            <path class="st30" d="M115.87,89.38c-.33.21-.66.45-.97.7.31-.25.64-.49.97-.7Z"/>
            <path class="st30" d="M2.97,80.77s.03-.04.05-.07c-.02.02-.04.04-.05.07Z"/>
            <path class="st30" d="M2.65,81.18s.03-.04.05-.06c-.02.02-.03.04-.05.06Z"/>
            <path class="st30" d="M104.82,100.95s-.23.17-.57.39c.35-.22.57-.39.57-.39l7.29-8.08s.44-.56,1.13-1.27c-.69.71-1.13,1.27-1.13,1.27l-7.29,8.08Z"/>
            <path class="st30" d="M2.48,81.38s.02-.02.02-.03c0,.01-.02.02-.02.03Z"/>
            <path class="st30" d="M2.44,81.43s0,0,0,0c0,0,0,0,0,0Z"/>
            <path class="st30" d="M104.06,101.45c-.26.15-.56.32-.88.45.32-.13.62-.3.88-.45Z"/>
            <path class="st30" d="M2.56,81.29s.02-.03.04-.05c-.01.02-.03.03-.04.05Z"/>
            <path class="st30" d="M158.36,25.91s-2.19,2.19-2.79,7.01c.6-4.82,2.79-7.01,2.79-7.01,0,0,1.09-1.92,1.06-4.41.03,2.5-1.06,4.41-1.06,4.41Z"/>
            <path class="st30" d="M3.15,80.55s.04-.05.07-.08c-.02.03-.04.06-.07.08Z"/>
            <path class="st30" d="M5.44,77.52c.07-.1.14-.2.21-.29-.07.1-.14.2-.21.29Z"/>
            <path class="st30" d="M5.78,77.05c.07-.1.14-.2.22-.3-.07.1-.14.2-.22.3Z"/>
            <path class="st30" d="M5.1,77.99c.07-.1.15-.2.22-.3-.07.1-.15.2-.22.3Z"/>
            <path class="st30" d="M4.68,78.56s0,0,0,.01c.11-.14.22-.29.32-.44-.11.14-.21.29-.32.43Z"/>
            <path class="st30" d="M3.62,79.95s.02-.03.04-.05c-.01.02-.02.03-.04.05Z"/>
            <path class="st30" d="M3.35,80.3s.04-.05.06-.07c-.02.03-.04.05-.06.07Z"/>
            <path class="st30" d="M3.84,79.67s.05-.07.08-.1c-.03.04-.05.07-.08.1Z"/>
            <path class="st30" d="M4.08,79.35s.05-.07.08-.11c-.03.04-.06.07-.08.11Z"/>
            <path class="st30" d="M4.34,79.01s.05-.07.08-.11c-.03.04-.06.07-.08.11Z"/>
            <path class="st30" d="M6,76.33c-.07.1-.14.2-.22.3-.04.06-.08.12-.13.18-.07.1-.14.2-.21.29-.04.06-.08.11-.12.17-.07.1-.15.2-.22.3-.04.05-.07.1-.11.14-.11.15-.22.29-.32.44-.08.11-.17.22-.25.33-.03.04-.06.07-.08.11-.06.08-.12.15-.17.23-.03.04-.05.07-.08.11-.05.07-.11.14-.16.21-.03.04-.05.07-.08.1-.06.08-.12.16-.19.24-.01.02-.02.03-.04.05-.07.09-.14.18-.21.27-.02.03-.04.05-.06.07-.05.06-.09.12-.14.17-.02.03-.04.06-.07.08-.04.05-.08.1-.12.15-.02.02-.04.04-.05.07-.04.05-.08.11-.12.15,0,.01-.02.02-.03.03-.05.06-.09.11-.13.16-.02.02-.03.04-.05.06-.02.03-.04.05-.06.07-.01.02-.03.03-.04.05-.02.02-.03.04-.05.06,0,.01-.02.02-.02.03-.02.02-.03.04-.04.05,0,0,0,0,0,0-.01.01-.02.02-.02.02.02.49.09.98.18,1.46.05.24.11.48.17.71.13.47.28.92.45,1.35.34.87.74,1.65,1.12,2.3.19.32.37.62.53.86.16.25.31.46.42.62.17.24.28.37.28.37,0,0,3.73,3.32,5.8,7.88,2.07,4.56,5.39,4.98,5.39,4.98,0,0,4.15,1.24,6.36,3.87,2.22,2.62,6.64,2.45,6.64,2.45l9.32-.68,13.85-.44,13.54.44,9.51-.76,2.65-1,7.66-6.94,6.13-3.9,4.48.29,2.91,1.55-3.05,4.72s.62,2.28,1.45,2.28,2.49-1.66,3.73-1.66c.39,0,.81-.12,1.21-.29.32-.13.62-.3.88-.45.06-.04.13-.08.18-.11.35-.22.57-.39.57-.39l7.29-8.08s.44-.56,1.13-1.27c.46-.48,1.03-1.02,1.66-1.52.31-.25.64-.49.97-.7.67-.42,1.36-.74,2.02-.84,2.65-.39,6.05-2.52,8.56-5.96,2.51-3.44,12-10.65,12-10.65,3.73-2.07,5.8-8.29,5.8-8.29l7.05-13.27s4.56-6.22,4.15-13.68c-.08-1.4-.02-2.65.11-3.77.6-4.82,2.79-7.01,2.79-7.01,0,0,1.09-1.92,1.06-4.41,0-.58-.08-1.18-.23-1.81-.83-3.32-5.8-10.78-5.8-10.78,0,0-4.56-3.73-6.63-3.73l4.75,5.37.19.92-5.38,3.6-3.58,6.27-2.94-.6-6.47,5.63.07,3.87-3.53-.86-7.07,6.15-5.95,1.11-2.32,5.86-4.86,6.54-1.61,2.34-.82-.11-17.48,16.07-13.78,7.02-12.02-.83-9.12,2.9-11.61,3.73-2.49,2.9-9.95,1.66-7.78.86-6.31-.45-7.78-5.36"/>
          </g>
          <path class="st13" d="M2.52,80.57s6.15-7.52,6.62-10.18,2.13-13.03,6.28-15.1,16.11-11.23,19.46-15.36c3.34-4.13,9.05-10.13,14.9-12.1,0,0,2.54-.73,3.78-.73s8.29-5.39,13.68-7.05l9.12-7.88s.41-1.24,2.9-1.24,12.02,2.9,24.46-2.49l4.15-3.32s.41-1.24,4.15-1.24,11.61.83,15.75-.83c4.15-1.66,13.68.41,13.68.41,0,0,3.32.83,5.39.83s6.63,3.73,6.63,3.73c0,0,4.98,7.46,5.8,10.78s-.83,6.22-.83,6.22c0,0-3.32,3.32-2.9,10.78.41,7.46-4.15,13.68-4.15,13.68l-7.05,13.27s-2.07,6.22-5.8,8.29c0,0-9.49,7.21-12,10.65-2.51,3.44-5.91,5.57-8.56,5.96-2.65.39-5.79,4.33-5.79,4.33l-7.29,8.08s-1.6,1.24-2.85,1.24-2.9,1.66-3.73,1.66-1.45-2.28-1.45-2.28l3.05-4.72-2.91-1.55-4.48-.29-6.13,3.9-7.66,6.94-2.65,1-9.51.76-13.54-.44-13.85.44-9.32.68s-4.43.18-6.64-2.45-6.36-3.87-6.36-3.87c0,0-3.32-.41-5.39-4.98-2.07-4.56-5.8-7.88-5.8-7.88,0,0-2.99-3.75-3.15-7.68Z"/>
          <path class="st13" d="M146.85,4.29s8.29,6.22,4.15,8.29c-4.15,2.07-6.63,6.63-6.63,6.63,0,0-1.66,2.78-4.77,2.22s-5.18,4.83-5.18,4.83c0,0,0,4.15-4.56,3.73s-6.63,3.73-7.46,4.15-6.63.41-6.63,3.73-3.05,4.82-3.05,4.82c0,0-1.09,1.4-1.09,3.06s-1.66,6.22-4.56,6.22-14.93,12.85-14.93,12.85c0,0-.41,2.49-5.39,2.9,0,0-1.39-.48-4.01,2.66,0,0-4.82,5.01-9.11,4.07-4.29-.93-7.84-2.35-11.25-1.23s-5.37,2.37-7.92,3.4c-2.54,1.04-8.09.25-9.46,2.51-1.37,2.26-5.22,6.31-8.06,4.49-2.84-1.82-5.82.99-5.82.99,0,0-2.34.82-7.14,1.08s-10.7.78-9.82-2.8c0,0-2.17-5.23-9.36-5.23"/>
          <path d="M133.58,5.95s-2.07,4.15-4.56,4.98-4.56,1.24-5.39,2.07,1.04-1.87,1.04-1.87c0,0,5.39-2.07,5.39-2.9s1.66-1.66,3.52-2.28Z"/>
          <polygon points="63.1 39.12 55.63 49.48 52.32 51.55 49.58 51.55 46.27 54.91 44.02 59.85 39.05 60.26 35.32 61.5 32.8 61.5 39.05 58.19 43.61 56.11 43.61 52.38 50.24 49.07 53.97 46.16 56.94 45.09 59.36 39.95 59.36 42.43 63.1 39.12"/>
          <path d="M76.1,52.02s-6.62,2.51-8.15,2.89c-1.53.38-5.58.76-5.58.76l5.58,1.11,8.15-4.76Z"/>
          <polyline points="9.76 78.71 13.49 74.46 19.36 70.47 25.78 65.24 34.07 63.16 27.61 66.48 27.85 71.87 21.92 72.18 17.29 80.57 16.68 85.71"/>
          <polygon points="65.78 20.57 59.79 28.85 64.75 27.09 65.78 20.57"/>
          <polygon points="103.73 8.44 89.22 19.21 96.47 16.95 103.73 8.44"/>
          <polygon points="117.59 13.83 107.75 20.57 104.73 20.57 99.93 26.63 104.73 26.63 110.45 20.57 113.94 20.23 114.92 17.56 123.41 14.73 117.59 13.83"/>
          <polygon points="73.05 34.97 76.1 30.6 81.85 27.9 85.06 27.9 91.29 23.78 99.93 23.78 98.07 26.63 91.09 26.63 86.49 30.44 83 29.99 73.05 34.97"/>
          <polygon points="112.35 39.75 99.93 43.61 112.7 42.69 114.74 40.92 112.35 39.75"/>
          <polyline points="62.36 73.23 67.95 65.99 76.8 59.99 81.85 57.89 74.42 63.16 70.14 67.72 73.61 74.46"/>
          <polygon points="30.44 85.55 35.09 91.99 39 94.12 46.27 94.12 53.05 91.99 54.45 82.91 54.45 76.64 56.7 75.98 56.7 83.21 57.45 87.65 56.7 91.99 53.05 95.47 47.67 96.93 41.05 96.93 37.7 97.08 34.72 94.12 30.44 93.09 30.44 90.85 25.96 85.71 30.44 85.55"/>
          <polygon points="126.94 46.99 126.94 63.16 123.41 64.96 118.65 71.45 103.73 74.46 107.33 76.51 118.17 74.43 122.8 73.11 123.41 67.75 128.5 65.52 129.91 59.99 126.94 46.99"/>
          <polygon points="149.15 53.73 133.58 59.99 128.5 56.78 131.5 61.75 143.13 59.99 147.53 56.78 149.15 53.73"/>
          <polygon points="150.99 22.53 143.94 27.92 143.11 32.9 138.82 38.13 139.59 46.99 141.87 42.85 141.04 38.29 144.91 34.13 144.91 28.64 150.99 22.53"/>
          <polygon points="135.09 39.75 127.36 44.09 129.91 46.62 135.09 39.75"/>
          <polyline points="89.22 67.83 90.87 72.7 87.97 78.35 89.22 79.95 85.01 84.62 80.13 86.53 75.25 94.12 67.55 100.06 65.23 94.12 59.79 93.01 59.79 87.65 56.37 87.65 55.6 94.12 61.38 96.93 63.1 101.49 67.24 102.96 74.29 98.82 80.51 95.09 81.02 90.08 88.61 85.4 90.28 82.03 92.34 78.71 91.69 75.98 96.47 70.47 90.87 65.24"/>
          <path class="st21" d="M167.69,103.68s1.96,15.03,14.81,23.33c0,0,11.17,5.92,23,1.92,0,0,12.46-7.11,14.63-14.88s7.11-43.31,7.13-47.93c0,0,1.05-11.98-5.89-17,0,0-8.6-10.86-24.98-9.19,0,0-20.42,1.26-25.45,14.73,0,0-1.37,9.12-1.96,19.8l-1.3,29.22Z"/>
          <path class="st35" d="M219.11,118.4s-10.93,9.56-13.61,10.54c0,0-10.98,4.3-23-1.92,0,0-12.62-8.51-14.81-23.33l-.94,16.69,9.53,7.24,4.79,1.82,7.93,3.59,6.36,2.27s18.24-1.24,21.14-5.8c2.9-4.56,0,0,0,0l2.61-11.1Z"/>
          <path class="st23" d="M225.02,77.67s-4.79-7.88-3.13-17c0,0,2.07-4.98-8.71-7.05-10.78-2.07-16.58-2.49-30.27-1.66,0,0-5.39-.12-5.18,6.36.21,6.49-5.95,14.99-8.06,16.13l.39-11.71-.39-4.71,2.25-5.41,5.18-5.64,8.82-4.79,10.46-2.27h9.11l12.86,6.36,4.22,4.21,3.04,4.38,1.9,13-1.57,12.18-.92-2.39Z"/>
          <path class="st5" d="M165.5,122.87s1.66-14.1,2.49-21.97c0,0,1.24-34.83,2.07-38.14.83-3.32-.83-10.78,7.05-15.75,0,0,7.88-7.46,24.46-7.05s24.05,14.93,24.05,14.93c0,0,3.73,3.73,0,27.33,0,0-1.24,19.94-4.15,26.15l-4.98,21.14s-9.12,6.63-21.14,5.8-29.85-12.44-29.85-12.44Z"/>
          <path class="st5" d="M167.69,103.68s1.96,15.03,14.81,23.33c0,0,11.17,5.92,23,1.92,0,0,12.46-7.11,14.63-14.88s7.11-43.31,7.13-47.93c0,0,1.05-11.98-5.89-17,0,0-8.6-10.86-24.98-9.19,0,0-20.42,1.26-25.45,14.73,0,0-1.37,9.12-1.96,19.8l-1.3,29.22Z"/>
          <path class="st21" d="M167.69,107.41l-.94,12.97s6.63,5.39,15.56,9.07c7.59,3.12-1.24,0-1.24,0,0,0-10.17-11.55-13.37-22.03Z"/>
          <path class="st14" d="M175.15,74.46s.72-5.91,6.11-7.98c0,0,6.63.41,9.54,1.66,2.9,1.24,2.9,2.84,2.9,2.84,0,0-.41,2.55-2.9,1.31-2.49-1.24-11.39-4.35-15.65,2.18Z"/>
          <path class="st14" d="M221.31,81.41s.95-9.85-4.63-10.94c0,0-9.72-.67-10.55,1.81,0,0-.98,2.28,4.07,2.18s9.21.63,9.72,3.89c0,0,.61,4.09,1.39,3.05Z"/>
          <path class="st22" d="M187.44,97.08s3.07,3.08,5.49,4.48c2.43,1.4,3.67,2.23,7.4,1.4s5-2.49,5.4-2.9l-3.74-.41-1.66.83-2.23-.29-1.7.28-.86-.4-1.83-1.44-.77-.64-1.08-.91h-4.41Z"/>
          <path class="st14" d="M190.52,90.08s-4.29,2.52-3.88,5.01,1.81,2.9,2.77,2.9,3.45-.38,4.28.64c.83,1.02,3.73,3.09,6.63,1.85,2.9-1.24,3.84-.41,3.84-.41,0,0,1.35,1.87,3.01-.21,0,0,1.5-3.86-.7-6.08,0,0-2.87-1.77-1.71-.33s3.25,1.43,1.79,4.54c0,0-.63,1.87-1.87.62,0,0-2.9,0-3.73.41s-3.32,2.49-6.22-.41c-2.9-2.9-4.98-1.66-4.98-1.66,0,0-3.36.23-2.3-2.58,0,0,1.47-2.4,3.13-2.81,0,0,1.12-.89-.06-1.48Z"/>
          <path class="st14" d="M179.53,97.08s-8.64-2.21-5.12,10.34c0,0-2.83-10.42,5.12-10.34Z"/>
          <path class="st14" d="M213.3,99.53s9,3.02,1.54,13.8c0,0,5.63-8.53-1.54-13.8Z"/>
          <path class="st12" d="M211.11,107.76"/>
          <path class="st10" d="M209.4,108.84c-.5,1.8-4.35,3.53-4.35,3.53-5.42,2.88-9.9,2.41-9.9,2.41-11.29-.75-13.47-8.46-13.78-9.87-.02-.07.07-.12.12-.08,1.39,1.09,6.21,2.58,6.21,2.58,12.91,3.71,18.23,2.56,20.86,1.43,0,0,.98-.55.83,0Z"/>
          <path class="st10" d="M209.24,108.56c1.08.46-3.89,1.34-3.89,1.34-1.6.16-3.59.17-6.06-.1-1.5-.16-2.48-.1-3.14-.45-1.52-.8-3.13-.69-3.96-.66-3.07.12-9-2.66-10.73-3.74-.14-.09-.09-.3.08-.31,1.96-.15,9.46-.58,11.39,1.12,0,0,1.39.52,3.46,0,1.37-.35,4.18-.02,6.48.57,0,0,3.47.98,6.37,2.22Z"/>
          <path class="st14" d="M186.19,116.63s7.71,3.54,16,1.05c0,0-6.3,5.78-16-1.05Z"/>
          <path class="st8" d="M190.38,80.99s-3.32-8.94-12.44-1.57c0,0-.27,1.79,3.39,4.17s8.22.31,9.05-2.6Z"/>
          <circle class="st11" cx="185.2" cy="80.37" r="3.32"/>
          <path class="st0" d="M190.38,80.99s-1.35-5.12-6.66-4.68c0,0-4.43.23-6.2,3.43h.93s2.8-4.54,7.9-2.55c0,0,2.04,1.64,4.03,3.79Z"/>
          <ellipse class="st0" cx="185.2" cy="80.16" rx="1.87" ry="2.28"/>
          <ellipse class="st36" cx="185.2" cy="79.13" rx=".62" ry="1.04"/>
          <path class="st8" d="M205.41,82.62s4.83-8.22,12.52.63c0,0-.04,1.81-4.06,3.51-4.02,1.7-8.15-1.14-8.46-4.14Z"/>
          <circle class="st11" cx="210.97" cy="82.91" r="3.32"/>
          <path class="st0" d="M205.41,82.62s2.23-4.81,7.38-3.44c0,0,4.32,1,5.5,4.46l-.92-.16s-1.96-4.95-7.33-3.89c0,0-2.29,1.26-4.63,3.03Z"/>
          <ellipse class="st0" cx="211" cy="82.7" rx="2.28" ry="1.87" transform="translate(92.67 275.99) rotate(-79.93)"/>
          <ellipse class="st36" cx="211.18" cy="81.68" rx="1.04" ry=".62" transform="translate(93.82 275.32) rotate(-79.93)"/>
          <path class="st33" d="M81.55,162.05s13.06-30.89,46.23-26.74c0,0,9.37,1.72,15.26-.38l15.84-4.59s7.46-2.07,7.88-9.95c0,0,6.63,6.63,12.02,8.29,5.39,1.66,16.58,6.63,16.58,6.63,0,0,16.17,0,21.14-5.8v7.5s-.17,1.58,2.61,2.84l19.18,12.29s3.92,2.24,7.23,2.24c0,0,39.74,4.56,30.65,54.31,0,0-8.05-20.52-17.8-21.97,0,0-15.96.21-24.05,24.88,0,0-13.23,51.35-15.22,68.28-1.99,16.92,0,0,0,0l-17.75,14.02s-3.73,4.15-6.01.21c-2.28-3.94,0,0,0,0,0,0-19.49-15.87-22.29-17.58s0,0,0,0c0,0-5.28-60.58-11.3-71.98,0,0-3.94-27.99-36.9-38.56,0,0-17.21-3.05-19.28-4.74,0,0-17.83-2.1-24.05.8Z"/>
          <path class="st26" d="M147.67,143.18s15.47,18.65,34.68,27.15c0,0,22.73,9.66,8.95,22.97,0,0-23.47,8.29-32.1.85,0,0-16.51-23.61-34.34-28.17l22.8-22.8Z"/>
          <path d="M258.37,186.71s-2.94-18.98-21.58-30.84c0,0,18.5,11.43,23.77,31.71l-2.19-.87Z"/>
          <path d="M124.87,165.98s13.27-19.49,22.39-22.8c0,0-19.11,17.33-19.5,23.8l-2.88-1Z"/>
          <path d="M133.21,135.95s13.56,3.91,14.47,7.23l-16.17-6.22,1.7-1.01Z"/>
          <path d="M149.98,143.18s27.96,4.15,40.82,10.78c0,0,10.18,2.9,13.59,0,0,0,29.99.08,33.91-1.83,0,0-11.84,6.39-32.57,5.14,0,0-6.64,5.56-17-2.2,0,0-31.05-11.49-38.74-11.9Z"/>
          <path class="st26" d="M180.43,130.74s.48,6.93,3.35,8.44c2.87,1.51,7.02,4.83,11.16,6.49,0,0,2.24-.41,3.81-2.49,0,0,4.41-3.02,5.69-4v-4.91l-9.09,1.03-14.29-5.86-.64,1.3Z"/>
          <path d="M161.77,128.93s22.39,21.71,31.92,23.78c0,0-24.05-4.86-31.92-23.78Z"/>
          <path d="M217.93,139.18s-8.07,11.05-19.68,13.53c0,0,16.83-2.94,20.85-12.87l-1.18-.66Z"/>
          <polygon points="194.13 135.95 194.94 144.42 196.12 144.42 197.39 135.24 194.13 135.95"/>
          <path d="M161.77,204.54s15.34,7.05,41.87-5.39c0,0-32.91,6.48-42.58-1.94l.7,7.33Z"/>
          <path d="M236.23,206.53s-28.44-2.98-32.59-7.67c0,0,5.8,8.99,30.68,12.72l1.91-5.06Z"/>
          <path class="st25" d="M228.6,231.8l.88-2.8c-7.86-14.02-19.14-16.28-23.94-16.58h0c-1.45-.09-2.31,0-2.31,0-13.68-7.05-35.75,16.58-35.75,16.58l1.04,2.8c20.26-20.59,31.36-17.85,34.31-16.51-.53,3.91-1.52,11.49-2.62,20.79h0s-17.71-4.06-29.74,3.76v3.03l29.21-2.25c-.69,6.05-1.4,12.64-2.04,19.3-5.87-.73-17.34-1.19-25.92,4.39v3.03l25.42-1.96c-.83,9.26-1.48,18.42-1.71,26.24,0,0,1.51,7.88,6.53,0l1.18-25.99,21.51,2.62.11-3.03c-7.35-5.16-15.95-5.71-21.36-5.4l.83-18.4,22.9,2.79.11-3.03c-8.02-5.63-17.54-5.77-22.76-5.3l.93-20.46c8.82-.35,23.2,16.4,23.2,16.4Z"/>
          <path class="st26" d="M140.39,139.83s-30.57-17.71-55.38,16.04c0,0,21.21-19.74,55.38-16.04Z"/>
          <path class="st26" d="M204.38,190.61s28.78-5.27,25.84-18.89c0,0-2.17-9.67-14.79-8.33l-15.46,3.58s3.9,7.63,4.41,23.63Z"/>
          <path class="st26" d="M245.52,154.38s39.33,4.15,30.65,54.31c0,0,.03-45.61-30.65-54.31Z"/>
          <path class="st13" d="M81.55,162.05s13.06-30.89,46.23-26.74c0,0,9.37,1.72,15.26-.38l15.84-4.59s7.46-2.07,7.88-9.95c0,0,6.63,6.63,12.02,8.29,5.39,1.66,16.58,6.63,16.58,6.63,0,0,16.17,0,21.14-5.8v7.5s-.17,1.58,2.61,2.84l19.18,12.29s3.92,2.24,7.23,2.24c0,0,39.74,4.56,30.65,54.31,0,0-8.05-20.52-17.8-21.97,0,0-15.96.21-24.05,24.88,0,0-13.23,51.35-15.22,68.28-1.99,16.92,0,0,0,0l-17.75,14.02s-3.73,4.15-6.01.21c-2.28-3.94,0,0,0,0,0,0-19.49-15.87-22.29-17.58s0,0,0,0c0,0-5.28-60.58-11.3-71.98,0,0-3.94-27.99-36.9-38.56,0,0-17.21-3.05-19.28-4.74,0,0-17.83-2.1-24.05.8Z"/>
          <g>
            <path d="M201.88,192.42c-.14,5.52-.7,7.69-.7,7.69l2.47-1.24c.53-2.34.74-3.61.73-6.81l-2.49.36Z"/>
            <path d="M199.04,167.87l2.84-.48c-1.12-6.13-2.22-10.44-2.38-10.12-.41.83-8.19-1.41-8.19-1.41,3.67,2.98,6.12,7.26,7.73,12Z"/>
          </g>
          <path class="st15" d="M97.44,455.44s-.35-9.18,11.26-27.01c11.61-17.83,9.54-33.17,9.54-33.17,0,0-5.39-39.39,6.22-63.43,11.61-24.05,12.85-54.73,12.44-65.09,0,0,17.83-9.54,58.46,27.36,0,0,2.28,3.52,6.01-.21,3.73-3.73,21.97-18.24,35.24-22.8,0,0-.83,34.41,7.05,50.58,7.88,16.17,5.8,46.85,3.32,58.46-2.49,11.61-8.29,26.95-8.29,26.95,0,0-1.66,4.15-1.66,8.29s.83,9.54-2.49,22.39c0,0,1.66,18.66,1.04,26.74-.62,8.08,0,0,0,0,0,0-7.41,11.67-25.78,9.05-18.37-2.62-20.65-11.12-20.65-11.12,0,0-1.45-10.57,5.6-26.74,0,0,2.9-4.98,2.07-12.02s-2.9-27.36-4.56-31.92c-1.66-4.56-9.95-32.34-5.8-45.61,0,0-6.22,28.61-14.1,41.87-7.88,13.27-12.44,22.8-15.75,30.68,0,0-3.32,9.95-6.22,14.1,0,0-1.66,1.24-1.66,6.63s.44,14.06-2.06,26.72c-2.5,12.67,0,0,0,0,0,0-19.01,13-33.97,5.37-14.96-7.63-15.24-16.07-15.24-16.07"/>
          <path class="st17" d="M149.21,290.94s-26.47,44.04-17.14,75.36c0,0,4.19.45,7.54-17.47,2.96-15.86,14.18-54.72,9.6-57.88Z"/>
          <path class="st3" d="M237.62,272.23s-.24,13.03.43,16.06c0,0-12.44,4.56-22.39,17.83l-8.47-18.87s18-12.64,30.42-15.01Z"/>
          <path class="st20" d="M221.47,432.57c.53,4.37,13.27,2.9,14.1.83.73-1.82,1.77-13.88,1.24-18.24-.53-4.37-7.71-1.93-9.34-.84-1.86,1.25-6.53,13.89-6,18.25Z"/>
          <path class="st2" d="M136.89,266.73s.1,11.06-.36,14.86c0,0,14.33,2.43,31.81,12.86l7.45-15.96s-24.38-18.39-38.89-11.75Z"/>
          <path class="st13" d="M97.44,455.44s-.35-9.18,11.26-27.01c11.61-17.83,9.54-33.17,9.54-33.17,0,0-5.39-39.39,6.22-63.43,11.61-24.05,12.85-54.73,12.44-65.09,0,0,17.83-9.54,58.46,27.36,0,0,2.28,3.52,6.01-.21,3.73-3.73,21.97-18.24,35.24-22.8,0,0-.83,34.41,7.05,50.58,7.88,16.17,5.8,46.85,3.32,58.46-2.49,11.61-8.29,26.95-8.29,26.95,0,0-1.66,4.15-1.66,8.29s.83,9.54-2.49,22.39c0,0,1.66,18.66,1.04,26.74-.62,8.08,0,0,0,0,0,0-7.41,11.67-25.78,9.05-18.37-2.62-20.65-11.12-20.65-11.12,0,0-1.45-10.57,5.6-26.74,0,0,2.9-4.98,2.07-12.02s-2.9-27.36-4.56-31.92c-1.66-4.56-9.95-32.34-5.8-45.61,0,0-6.22,28.61-14.1,41.87-7.88,13.27-12.44,22.8-15.75,30.68,0,0-3.32,9.95-6.22,14.1,0,0-1.66,1.24-1.66,6.63s.44,14.06-2.06,26.72c-2.5,12.67,0,0,0,0,0,0-19.01,13-33.97,5.37-14.96-7.63-15.24-16.07-15.24-16.07"/>
          <path d="M136.21,285.43s11.46-3.77,27.63,6.18c0,0-11.51-8.84-27.31-10.02l-.32,3.84Z"/>
          <path d="M238.36,291.11s-7.72-1-16.29,8.05c0,0,5.83-7.65,15.51-10.64l.78,2.58Z"/>
          <path d="M184.99,340.53s12.85,3.73,40.22-31.92c0,0-19.72,28.3-40.54,39.86l.33-7.93Z"/>
          <path d="M149.95,303.63s29.83,22.49,36.79,39.23c0,0-29.95-36.74-36.79-39.23Z"/>
          <path class="st19" d="M136.21,400.1s13.95,16.71,1.51,24.59c-12.44,7.88-16.17-6.22-16.17-8.29,0,0,.41,15.34,2.49,25.71,0,0,1.24,2.9,10.37-6.63,9.12-9.54,30.76-37.68,33.93-51.28,0,0-17.46,25.31-21.65,23.68,0,0-5.97,1.43-10.47-7.77Z"/>
          <path class="st17" d="M112.68,471.5s8.88-20.27,5.56-26.08c0,0-5.04-3.76-7.29,5.58,0,0-3.24,22.41-3.99,22.92s5.71-2.43,5.71-2.43"/>
          <ellipse class="st20" cx="130.26" cy="412.88" rx="4.35" ry="2.07" transform="translate(-282.82 283.26) rotate(-55.07)"/>
          <path class="st19" d="M233.73,408.3s-21.01,5.72-15.32,19.3c5.69,13.58,16.82,4.16,18,2.46,0,0-9.12,12.34-16.76,19.65,0,0,1.69.17-4.7-11.37-10.07-18.2,4.64-48.5,9.83-61.47,0,0-8.47,30.74-4.1,31.81,0,0,4.08,4.59,13.04-.37Z"/>
          <path class="st19" d="M233.5,314.83s5.75,1.19,2.07,27.78c-1.22,8.86-16.58,33.58-24.46,62.6,0,0-11.69-35.97-17.04-31.67,0,0,12.94-5.47,9.6-14.47,0,0,2.79,31.04,11.23,10.71,8.44-20.33,18.08-31.4,18.6-54.95Z"/>
          <path class="st18" d="M97.92,453.3s-3.11,10.99-1.87,32.13c1.24,21.14,1.31,25.26.45,32.53l-.8,7.62s-2.97,7.11-2.55,10.02c.41,2.9,0,6.63-2.07,11.61-2.07,4.98-3.73,9.54-11.61,21.14,0,0-8.29,5.8-7.46,16.58,0,0,.83,11.19,21.97,9.12,0,0,14.51,0,18.24-8.71l1.24-13.27s2.49-2.49,4.15-2.9c1.66-.41,3.73-1.66,3.32-7.46,0,0,.41-5.8-1.24-11.61s0-7.46,0-7.46c0,0,1.35-1.67,1.3-6.22-.05-4.55-1.3-11.6,4.09-29.02,0,0,5.39-14.51,12.44-22.39,0,0,9.95-12.85,9.12-20.73,0,0-11.19,11.19-29.44,8.29,0,0-14.3-.62-19.28-19.28Z"/>
          <path class="st34" d="M110.21,469.64s-6.07,23.46-4.41,32.59c1.66,9.12,6.19,4.98,2.06,18.04,0,0-10.35,11.42-3.3,10.37,0,0,4.56,2.27,8.29-12.24,0,0-3.73-17.41,1.24-24.88,0,0,6.63-17.41,5.6-20.11,0,0-6.73-1.12-9.48-3.77Z"/>
          <path class="st13" d="M97.92,453.3s-3.11,10.99-1.87,32.13c1.24,21.14,1.31,25.26.45,32.53l-.8,7.62s-2.97,7.11-2.55,10.02c.41,2.9,0,6.63-2.07,11.61-2.07,4.98-3.73,9.54-11.61,21.14,0,0-8.29,5.8-7.46,16.58,0,0,.83,11.19,21.97,9.12,0,0,14.51,0,18.24-8.71l1.24-13.27s2.49-2.49,4.15-2.9c1.66-.41,3.73-1.66,3.32-7.46,0,0,.41-5.8-1.24-11.61s0-7.46,0-7.46c0,0,1.35-1.67,1.3-6.22-.05-4.55-1.3-11.6,4.09-29.02,0,0,5.39-14.51,12.44-22.39,0,0,9.95-12.85,9.12-20.73,0,0-11.19,11.19-29.44,8.29,0,0-14.3-.62-19.28-19.28Z"/>
          <path class="st29" d="M84.65,565.66s6.22-4.98,17.41.83c0,0-10.78-2.07-17.41-.83Z"/>
          <path class="st29" d="M96.26,542.86s6.22-4.98,17.41.83c0,0-10.78-2.07-17.41-.83Z"/>
          <path class="st34" d="M82.17,580.59s4.98,8.29,16.58.83c0,0-7.05-.41-10.37-2.49,0,0,.83,2.49-1.66,2.07l-4.56-.41Z"/>
          <path class="st6" d="M112.23,583.28s-30.59,14.93-40.27-3.63"/>
          <path class="st18" d="M189.13,462.43s4.98,12.85,29.85,11.19c0,0,12.02-1.66,16.58-9.12,0,0,1.04,14.72-3.52,27.99,0,0-5.39,26.12-3.73,43.95,0,0-.41,12.02,21.97,27.36,0,0,15.75,7.46,11.61,17,0,0-4.98,10.78-28.61,4.56,0,0-9.54-1.66-13.27-6.63,0,0-3.73-5.8-12.44-6.63,0,0-14.51,0-12.85-10.78,0,0,0-6.63,4.15-17.83,4.15-11.19,2.07-29.85-.83-43.53-2.9-13.68-10.78-17.83-8.91-37.52Z"/>
          <path class="st34" d="M217.33,547s12.02,7.46,14.51,12.44c0,0,1.24,2.49,3.32,3.32,0,0-.53,3.32-6.07,0,0,0-2.64-5.8-8.44-8.71s-3.32-7.05-3.32-7.05Z"/>
          <path class="st34" d="M235.16,572.93s6.22,4.75,12.85,2.26c0,0,0-3.8-6.43-3.15l-6.43.88Z"/>
          <path class="st34" d="M197.8,470.43s2.53,15.22,6.67,21.02c4.15,5.8,1.66,11.19,1.66,11.19,0,0-1.24,14.1,2.07,17,3.32,2.9,4.56,9.54,3.73,11.19-.83,1.66-6.22,17.83-1.24,12.02,0,0,7.65-5.31,6.1-17.17,0,0-6.93-11.03-4.86-16.83,2.07-5.8-1.24-16.17-1.24-16.17,0,0-5.34-16.47-3.29-19.43l-9.6-2.84Z"/>
          <path class="st34" d="M230.17,469.64s5.4-3.07,5.4-5.14c0,0-.42,22.54-4.98,36.15s-3.73,30.19-3.73,30.19c0,0-3.73,2.49-2.49-10.37,1.24-12.85,7.05-32.75,6.22-38.14-.83-5.39-.43-12.69-.43-12.69Z"/>
          <path class="st6" d="M260.61,571.97s-1.87,14.94-40.59,6.75"/>
          <path class="st31" d="M246.88,561.13s-10.19,1.06-13.29,8.71l13.29-8.71Z"/>
          <path class="st31" d="M229.46,538.95s-7.65-1.81-11.82,2.95l11.82-2.95Z"/>
          <path class="st13" d="M189.13,462.43s4.98,12.85,29.85,11.19c0,0,12.02-1.66,16.58-9.12,0,0,1.04,14.72-3.52,27.99,0,0-5.39,26.12-3.73,43.95,0,0-.41,12.02,21.97,27.36,0,0,15.75,7.46,11.61,17,0,0-4.98,10.78-28.61,4.56,0,0-9.54-1.66-13.27-6.63,0,0-3.73-5.8-12.44-6.63,0,0-14.51,0-12.85-10.78,0,0,0-6.63,4.15-17.83,4.15-11.19,2.07-29.85-.83-43.53-2.9-13.68-10.78-17.83-8.91-37.52Z"/>
          <g>
            <g>
              <polygon class="st32" points="185.12 164.12 184.24 164.05 184.24 164.8 185.12 164.87 185.12 164.12"/>
              <polygon class="st32" points="189 169.69 189.87 169.74 189.86 168.98 188.99 168.93 189 169.69"/>
              <polygon class="st32" points="187.67 169.61 188.55 169.66 188.54 168.9 187.66 168.84 187.67 169.61"/>
              <path class="st32" d="M196.65,169.09l.53.03c.4.03.71-.08.92-.33.19-.21.28-.49.27-.83l-.07-2.87-.94-.07.06,2.63c0,.42-.15.62-.46.6l-.33-.02h0s-1.55-.1-1.55-.1c-.22-.01-.39-.08-.52-.2.24-.12.5-.33.77-.61.25-.26.41-.48.48-.65-.65-.51-1.36-.8-2.12-.85-.64-.05-1.28.08-1.9.38v.75c.28.06.56.19.86.38.24.16.42.31.53.45-.25.13-.55.18-.89.16l-1.51-.1h0s-.95-.06-.95-.06c.07-.2.11-.41.1-.65l-.02-1.42-.99-.07.02,1.45c0,.42-.16.62-.49.6l-.42-.03-.23-.02-.92-.06-.02-2.09-.99-.07v1.75c.01.85-.46,1.44-1.23,1.39s-1.27-.69-1.27-1.56v-1.76s-1.02-.07-1.02-.07v1.85c0,1.28,1.02,2.33,2.29,2.41.84.05,1.57-.31,1.95-.98l1.22.08h.23s2.74.19,2.74.19h0s1.53.1,1.53.1c.28.02.57,0,.85-.07.27-.07.48-.16.64-.28.32.32.67.5,1.07.52l1.76.11h0ZM194.34,167.12c-.16.12-.3.22-.44.27-.16-.18-.3-.32-.43-.42-.12-.09-.29-.19-.5-.29.27-.1.54-.14.81-.12s.57.11.87.27c-.06.09-.17.19-.31.29Z"/>
              <polygon class="st32" points="199.09 169.25 200.03 169.31 199.91 165.21 198.99 165.14 199.09 169.25"/>
              <path class="st32" d="M203.82,170.61l1.2.07-.03-.86-1.25-.08c-.62-.04-.94-.29-.96-.75-.02-.49.26-.67.91-.63l1.8.12-.03-.85-1.45-.1c-.25-.12-.38-.34-.39-.65-.01-.39.21-.65.52-.63.26.02.42.15.51.4l.71-.27c-.23-.5-.69-.81-1.24-.85-.79-.06-1.4.5-1.37,1.25,0,.21.07.54.18.76-.7.16-1.07.67-1.05,1.38.03.99.74,1.6,1.93,1.68Z"/>
              <path class="st32" d="M207.85,169.24l-.09-2.25-.9-.06.09,2.33c.02.55-.27.81-.86.77l.03.71c.62.04,1.07-.05,1.33-.28.29-.24.42-.64.4-1.22Z"/>
              <polygon class="st32" points="209.25 165.91 208.36 165.84 208.53 169.86 209.42 169.91 209.25 165.91"/>
              <path class="st32" d="M211.76,170.06l.79.05h.19s1.05.08,1.05.08h.1s1.06.07,1.06.07h0s1.11.07,1.11.07c.27.37.67.57,1.19.6.86.05,1.37-.49,1.32-1.3s-.63-1.41-1.51-1.48-1.35.46-1.31,1.34l-.85-.06h0s-1.06-.07-1.06-.07h-.1s-1.24-.09-1.24-.09h0s-.74-.05-.74-.05l-.09-1.97-.89-.06.1,2.31c.02.55-.26.8-.84.77l.03.71c1.01.06,1.56-.25,1.67-.92ZM217.08,168.85h.06c.36.03.56.28.58.77.02.4-.18.65-.52.63-.37-.02-.59-.33-.61-.74s.17-.68.49-.65Z"/>
              <polygon class="st32" points="211.56 166.08 210.79 166.03 210.82 166.74 211.59 166.79 211.56 166.08"/>
              <path class="st32" d="M185.66,191.11c-.06-.16-.12-.29-.16-.39-.04-.1-.09-.19-.16-.27-.06-.08-.14-.15-.23-.21-.1-.06-.22-.08-.37-.08s-.27.02-.36.08c-.1.05-.18.12-.24.2-.06.08-.11.19-.17.32-.05.13-.1.24-.14.33l-1.34,3.25c-.06.13-.09.23-.12.31-.02.07-.03.14-.03.21,0,.12.05.23.15.32.1.09.22.14.36.14.16,0,.27-.05.34-.13.07-.09.15-.26.25-.51l.25-.65h2.13s.25.64.25.64c.03.08.08.17.12.27.04.1.09.18.13.23.04.05.09.09.15.12.06.03.13.04.21.04.14,0,.26-.05.36-.15.1-.09.15-.2.15-.32,0-.11-.06-.29-.16-.53l-1.38-3.23ZM183.97,193.28l.77-2.06.79,2.07h-1.56Z"/>
              <path class="st32" d="M188.02,190.2c-.14,0-.26.04-.34.14-.08.09-.13.23-.13.42l.03,4.01c0,.18.05.32.14.42.09.1.21.15.34.15.14,0,.26-.05.35-.14.09-.09.13-.24.13-.42l-.04-4c0-.19-.04-.33-.14-.42-.09-.09-.2-.14-.35-.14Z"/>
              <path class="st32" d="M193.57,191.19c-.06-.16-.12-.29-.16-.38-.04-.1-.09-.18-.15-.27-.06-.08-.13-.15-.23-.2-.09-.05-.21-.08-.35-.08s-.25.02-.35.07c-.1.05-.17.12-.23.2-.06.08-.11.19-.16.32-.05.13-.09.24-.13.33l-1.25,3.19c-.05.13-.09.23-.11.3-.02.07-.04.14-.04.21,0,.12.06.22.15.32.1.09.22.14.35.14.15,0,.26-.04.33-.13.07-.09.15-.25.24-.5l.23-.63h2.05s.25.62.25.62c.03.08.07.17.12.26.05.1.09.17.13.22.04.05.09.09.14.11.06.03.12.04.21.04.13,0,.25-.05.35-.14.1-.09.14-.2.14-.31,0-.11-.06-.28-.17-.52l-1.36-3.16ZM191.97,193.32l.71-2.02.79,2.03h-1.5Z"/>
              <path class="st32" d="M195.86,191.64c-.13,0-.24.04-.32.13-.08.09-.12.22-.12.41l.05,2.6c0,.18.05.32.14.41.09.1.2.14.33.14s.25-.05.34-.14c.08-.09.13-.23.12-.41l-.06-2.62c0-.16-.05-.29-.14-.38-.09-.09-.2-.14-.34-.14Z"/>
              <path class="st32" d="M196.17,190.45c-.09-.08-.2-.11-.32-.12s-.23.04-.32.12c-.09.08-.13.19-.13.31,0,.14.05.25.14.33.09.08.2.12.33.12s.23-.04.32-.11c.09-.08.13-.19.13-.32s-.05-.25-.14-.33Z"/>
              <path class="st32" d="M200.07,192.27c-.1-.19-.24-.34-.43-.44-.19-.1-.4-.16-.64-.16s-.47.05-.65.14c-.19.1-.36.25-.52.46v-.11c0-.11-.03-.2-.06-.28-.04-.07-.09-.13-.16-.17-.06-.04-.14-.06-.22-.06-.13,0-.23.04-.31.12-.07.08-.11.21-.1.38l.06,2.62c0,.18.05.31.13.41.09.1.2.14.33.14.14,0,.25-.05.33-.14.08-.09.12-.23.12-.41l-.03-1.14c0-.37,0-.62.05-.75.06-.17.15-.3.28-.39.13-.1.28-.14.44-.14.25,0,.41.08.5.24.09.16.14.38.14.68l.04,1.51c0,.18.05.31.14.41.09.09.2.14.33.14s.24-.05.32-.14c.08-.09.12-.23.11-.41l-.05-1.67c0-.2-.02-.36-.04-.49-.02-.13-.06-.24-.13-.36Z"/>
              <path class="st32" d="M205.4,190.6c-.08-.07-.19-.11-.34-.11l-2.27-.03c-.14,0-.25.02-.33.06-.09.04-.15.1-.19.19-.04.09-.06.2-.05.34l.11,3.69c0,.2.06.35.15.45.1.1.21.15.36.15.14,0,.25-.05.34-.15.09-.1.13-.25.12-.45l-.05-1.58h1.59c.15,0,.25-.02.32-.09.07-.06.1-.15.1-.26s-.04-.2-.12-.27c-.07-.07-.19-.1-.33-.1h-1.58s-.04-1.23-.04-1.23l1.89.02c.15,0,.26-.03.34-.1.07-.07.1-.16.1-.27s-.04-.2-.12-.27Z"/>
              <path class="st32" d="M208.84,194.11c0-.18-.01-.34-.02-.48l-.02-.53c-.01-.33-.07-.59-.16-.79-.1-.2-.26-.34-.48-.43-.22-.09-.52-.14-.91-.15-.34,0-.63.04-.85.13-.23.09-.39.21-.49.36-.1.15-.15.3-.15.45,0,.1.04.18.11.24.07.07.16.1.26.1.11,0,.18-.02.21-.06.03-.04.08-.12.16-.25.08-.12.17-.22.28-.28.11-.06.28-.09.49-.09.26,0,.43.06.51.17.09.11.14.28.16.51-.18.05-.35.1-.5.13-.16.04-.34.08-.56.12-.22.04-.36.07-.41.08-.26.06-.47.17-.62.34-.15.17-.21.38-.2.62,0,.18.06.35.16.5.09.15.23.28.41.37.17.09.37.14.6.14.25,0,.47-.04.66-.13.2-.08.39-.21.6-.37.1.16.2.29.29.37.09.09.18.13.27.13.11,0,.2-.04.28-.11.08-.07.12-.16.12-.25,0-.05-.03-.17-.09-.35-.06-.18-.09-.35-.1-.52ZM207.97,193.68c.01.31-.02.53-.09.66-.07.12-.17.22-.31.3-.14.08-.3.11-.47.11-.16,0-.3-.05-.4-.14-.11-.09-.16-.21-.16-.34s.03-.23.12-.3c.08-.07.17-.12.26-.15.09-.02.26-.06.5-.11.24-.05.42-.1.55-.15v.13Z"/>
              <path class="st32" d="M211.45,191.92c-.18-.09-.35-.14-.53-.14s-.32.04-.42.13c-.1.09-.2.22-.3.4-.01-.18-.05-.31-.12-.41-.07-.09-.17-.14-.31-.14-.28,0-.41.19-.4.59l.1,2.45c0,.18.05.31.14.4.08.09.19.14.31.14s.23-.05.31-.13c.08-.09.12-.22.11-.4l-.03-.74c-.01-.26-.01-.49,0-.67,0-.18.03-.34.07-.47.04-.13.09-.23.17-.3.08-.07.18-.1.31-.1.09,0,.2.02.32.06.12.04.2.06.23.06.08,0,.16-.03.23-.1.07-.07.1-.16.09-.26,0-.15-.09-.27-.27-.37Z"/>
              <path class="st32" d="M216.17,191.97c-.17-.09-.37-.14-.59-.14-.2,0-.37.04-.53.12-.16.08-.3.21-.44.39-.11-.18-.24-.31-.39-.4-.16-.09-.34-.13-.55-.14s-.38.04-.55.12c-.16.08-.31.22-.45.39v-.08c-.01-.14-.06-.25-.13-.33-.08-.08-.18-.12-.3-.12s-.21.04-.28.12c-.07.08-.1.21-.1.37l.11,2.5c0,.18.06.32.14.41.09.09.2.14.33.14s.23-.05.31-.14c.07-.09.11-.23.1-.41l-.05-1.18c-.02-.37.01-.65.09-.84.08-.19.26-.29.53-.29.14,0,.24.04.31.12.06.08.11.18.13.3.02.12.03.29.04.51l.07,1.39c0,.18.06.32.14.41.08.09.19.14.32.14.13,0,.24-.05.31-.14.08-.09.11-.23.1-.41l-.06-1.15c-.02-.37,0-.63.06-.77.05-.11.12-.2.22-.27.1-.07.2-.1.31-.1.14,0,.24.04.31.12.07.08.12.17.13.28.02.11.04.26.05.45l.07,1.46c0,.18.06.32.15.41.09.09.19.14.32.14s.23-.05.31-.14c.07-.09.11-.23.1-.41l-.09-1.69c-.02-.33-.06-.58-.15-.74-.09-.17-.22-.31-.39-.4Z"/>
              <path class="st32" d="M219.43,193.47c-.17-.09-.38-.17-.64-.24-.22-.06-.39-.1-.52-.14-.12-.04-.22-.09-.3-.15-.08-.06-.12-.13-.12-.22,0-.1.04-.18.14-.25.09-.06.21-.1.36-.1s.26.03.35.08c.09.05.16.12.23.2.08.1.15.17.21.23.06.05.14.08.22.08.11,0,.2-.03.26-.09.06-.06.09-.14.08-.24,0-.09-.04-.18-.11-.27-.06-.09-.15-.18-.27-.26-.12-.08-.26-.14-.43-.19-.17-.05-.36-.07-.58-.07-.27,0-.5.04-.68.13-.19.09-.33.21-.42.36-.09.15-.13.31-.12.49.01.2.07.36.19.49.11.13.26.24.44.32.18.08.42.16.71.23.26.07.44.13.55.2.11.07.18.18.18.33,0,.1-.05.19-.14.26-.11.08-.24.11-.4.11-.2,0-.36-.04-.49-.11-.12-.08-.23-.19-.32-.35-.04-.08-.09-.14-.14-.19-.05-.04-.12-.07-.2-.07-.1,0-.18.03-.24.1-.06.07-.09.15-.08.24,0,.14.07.29.18.43.11.14.27.26.49.36.21.09.47.14.77.14.31,0,.57-.04.78-.13.21-.09.37-.22.47-.38.1-.17.15-.37.13-.61,0-.16-.06-.3-.15-.42-.09-.12-.22-.23-.38-.32Z"/>
            </g>
            <path class="st27" d="M210.18,187.33c-1.3.53-2.75.93-4.31,1.16-7.45,1.09-14.44-2.15-15.3-7.21-.59-3.46,1.86-6.75,5.88-8.68-5.09,1.76-8.42,5.51-7.75,9.47.86,5.11,7.91,8.35,15.43,7.24,2.28-.34,4.34-1.04,6.04-1.98"/>
            <path class="st32" d="M211.11,176.63l-1.02.4c-.09.03-.12.13-.07.22.03.08.13.13.22.09l1.03-.4c.08-.03.11-.13.07-.22-.04-.08-.14-.13-.22-.1Z"/>
            <path class="st32" d="M210.5,179.19c-.1-.01-.18.05-.19.14,0,.09.07.18.16.19l1.22.19c.09.02.18-.05.19-.14,0-.09-.07-.18-.17-.19l-1.22-.19Z"/>
            <path class="st32" d="M210.31,175.42l-.86.66c-.07.06-.08.16-.02.23.06.08.17.1.23.04l.87-.67c.07-.05.07-.15.02-.23-.06-.08-.16-.09-.24-.04Z"/>
            <path class="st32" d="M211.6,177.98l-1.12.11c-.09,0-.15.09-.13.18.02.09.1.16.19.16l1.13-.12c.09-.01.15-.09.13-.18-.02-.09-.1-.16-.19-.15Z"/>
            <path class="st32" d="M209.47,174.4c-.08-.06-.18-.05-.23.02l-.64.89c-.05.07-.03.17.04.23.08.06.18.05.23-.02l.64-.88c.06-.07.03-.18-.04-.24Z"/>
            <path class="st32" d="M210.14,185.89c-.67,0-1.95.01-3.29-.05l.02.57c.21,0,.34,0,.34,0l1.93.04c.35-.17.68-.36,1-.56Z"/>
            <path class="st32" d="M206.9,187.32c.16-.04.31-.09.46-.14,0,0,0,0,0,0-.14,0-.33-.02-.47-.02v.16Z"/>
            <path class="st32" d="M208.75,186.63h0c-.49,0-1.2-.02-1.88-.05v.38c.24,0,.36,0,.36,0l.66.03c.3-.11.59-.23.86-.36Z"/>
            <path class="st32" d="M201.67,175.09c-.05.07-.03.17.04.23l.99.75c.08.06.18.04.24-.03.05-.07.03-.17-.04-.24l-.98-.75c-.08-.07-.19-.05-.24.02Z"/>
            <path class="st32" d="M200.97,176.34c-.02.07,0,.16.08.21l2.06.89s.03-.09.04-.13c.63-1.69,2.55-2.42,4.3-1.65,1.74.77,2.65,2.72,2.06,4.4-.01.04-.03.08-.05.13l1.98.85c.07.02.15-.02.17-.1.03-.09-.02-.18-.1-.22l-1.49-.65c.55-1.87-.49-4-2.41-4.85-1.93-.85-4.06-.1-4.84,1.7l-1.56-.67c-.1-.04-.19,0-.23.08Z"/>
            <path class="st32" d="M203.66,175.33c.07-.06.08-.16.02-.24l-.77-.95c-.06-.07-.17-.09-.24-.04-.07.06-.09.16-.02.23l.77.95c.06.08.17.09.24.04Z"/>
            <path class="st32" d="M207.7,174.98c.08.04.18,0,.21-.08l.38-1.04c.03-.09-.02-.18-.11-.22-.09-.04-.18,0-.21.08l-.37,1.04c-.03.09.01.18.1.22Z"/>
            <path class="st32" d="M206.83,174.52l.09-1.13c0-.09-.06-.18-.15-.2-.1-.02-.17.05-.17.14l-.09,1.14c-.01.09.06.18.15.18.09.02.18-.04.18-.13Z"/>
            <path class="st32" d="M204.57,174.84c.09-.03.13-.13.08-.22l-.51-1.09c-.04-.09-.14-.13-.22-.1-.09.03-.12.13-.08.21l.51,1.09c.04.08.14.13.22.1Z"/>
            <path class="st32" d="M205.59,174.61c.1,0,.15-.09.14-.18l-.22-1.15c-.02-.1-.11-.16-.2-.15-.09,0-.15.09-.13.18l.22,1.15c.02.09.11.16.2.15Z"/>
            <path class="st32" d="M197.32,184.2c-.48-.1-1-.17-1.52-.22.81.27,1.52.43,1.52.43v-.21Z"/>
            <path class="st32" d="M200.88,184.43c-.95-.37-1.82-.76-2.34-1.08-.23-.14-.58-.26-.98-.36h0s.02.52.02.52c.41.1.78.22,1.02.37.51.32,1.36.7,2.3,1.06v-.52Z"/>
            <path class="st32" d="M200.86,183.89c-.95-.37-1.82-.76-2.34-1.08-.23-.15-.58-.27-.98-.36v.38c.44.1.81.23,1.07.39.49.31,1.33.68,2.26,1.04v-.36Z"/>
            <path class="st32" d="M198.58,187.57s.06.01.09.02c-.03,0-.06-.01-.09-.02Z"/>
            <path class="st32" d="M198.78,184.56c.53.18,1.08.46,1.48.7.21.09.42.17.64.26v-.38c-.98-.38-1.86-.77-2.39-1.09-.22-.14-.56-.26-.94-.35v.39c.42.1.78.22,1.03.37.05.03.11.06.16.1,0,0,0,0,0,0Z"/>
            <path class="st32" d="M191.74,178.12s-.02.05-.03.08c0-.03.02-.05.03-.08Z"/>
            <path class="st32" d="M197.59,184.26v.13c.14-.02.28-.02.43,0-.14-.04-.28-.08-.43-.12Z"/>
            <path class="st32" d="M192.14,183.09s-.05-.1-.08-.15c.03.05.05.1.08.15Z"/>
            <path class="st32" d="M206.62,186.6c-.78-.05-1.56-.16-2.12-.29-.87-.2-2.13-.61-3.31-1.06v.37c1.21.46,2.5.87,3.36,1.07.89.21,1.62.25,2.09.26v-.35Z"/>
            <path class="st32" d="M201.64,184.18c-.17-.06-.33-.12-.5-.19v.37c.18.06.34.12.51.19v-.37Z"/>
            <path class="st32" d="M197.31,183.63c-1-.21-2.27-.3-3.07-.33.28.16.6.31.93.45.68.05,1.47.13,2.15.28v-.39Z"/>
            <path class="st32" d="M201.2,185.81h0c.45.56,2.78,1.02,3.85,1.34.39.12.72.27.97.41.21-.04.42-.1.62-.16v-.26c-.74-.05-1.51-.13-2.13-.28-.87-.2-2.14-.6-3.32-1.05Z"/>
            <path class="st32" d="M210.85,185.4c-.58-.01-2.34,0-4.02-.11v.38c.12,0,.17.02.18.01l3.37.04c.17-.11.32-.22.48-.33Z"/>
            <path class="st32" d="M206.59,185.85c-.83-.05-1.67-.15-2.22-.29-.31-.07-.67-.17-1.06-.29l-1.63-.04-.02-.51c-.17-.06-.33-.12-.5-.18l.02.53c1.2.45,2.48.87,3.35,1.07.89.21,1.62.27,2.09.28l-.02-.57Z"/>
            <path class="st32" d="M206.57,185.3c-.87-.05-1.7-.16-2.22-.28-.27-.06-.57-.15-.9-.25v.37c.35.1.67.19.95.25.97.23,1.75.28,2.19.28v-.38Z"/>
            <path class="st32" d="M197.28,182.39c-1.1-.23-2.49-.3-3.21-.33v.38c.72.03,2.1.11,3.22.33v-.38Z"/>
            <path class="st32" d="M194.09,183.12c.79.03,2.13.12,3.21.34v-.52c-1.11-.22-2.5-.3-3.22-.32v.51Z"/>
            <path class="st32" d="M213.79,181.61l-2.03-.08-4.93-.17-.1.17-.04-.88-2.97-2.32-2.54-.15-.39.58-.27-.61-2.76-.14-4.98-.21-.76,2.04h.39s.04,2.66.04,2.66c.47.04,1.22.53,1.32.6h0s.01,0,.01,0v-.5s-.18,0-.18,0v-.17s.07,0,.16,0v-.38s-.17,0-.17,0v-.17s.07,0,.16,0v-.25s.31,0,.31,0v.25c.72.03,2.1.11,3.21.33v-.2s.26,0,.26,0v.25c.44.1.81.23,1.06.39.49.3,1.33.68,2.26,1.04v-.27s.27,0,.27,0v.37c.18.06.34.13.51.19l-.05-1.67,1.78.06.07,2.22c.34.1.66.19.93.26.97.23,1.75.28,2.19.28v-.3s.25,0,.25,0v.29c.12,0,.18-.01.18-.01l4.07.11c.19-.15.36-.3.53-.45.67-.6,1.23-1.26,1.64-1.97l-5.01-.13-1.16-1.17,6.68.23s.03-.09.05-.14ZM196.46,181.64l-1.15-.04v-.54s1.14.03,1.14.03v.55ZM200.41,181.77l-1.13-.04v-.54s1.11.03,1.11.03l.02.54ZM206.03,180.93l-2.61-2.15-2.13,1.75v.09s-7.11-.26-7.11-.26l-1.24-2.38,7.46.31.36.71.61-.61,2.06.09,3.01,2.34-.41.13ZM210.71,183.51l.98.03.03.56h-.15s-.63-.02-.63-.02h-.2s-.02-.57-.02-.57ZM208.63,183.45l.99.03.02.56-.64-.02h-.23s-.13-.01-.13-.01l-.02-.56Z"/>
            <path class="st7" d="M214.05,178.45c.91,4.3-3.18,8.53-9.32,9.44-6.37.94-12.39-2.04-13.24-6.63-.85-4.55,3.75-8.74,10.05-9.38,6.09-.62,11.61,2.31,12.51,6.58Z"/>
          </g>
        </g>
        <g>
          <path class="st9" d="M227.78,51.11c-6.92-12.51-18.67-16.43-24.23-17.23-5.56-.8-17.83-.35-27.41,9.78-9.58,10.13-8.04,32.99-8.61,43.79-.9,16.94-2.82,26.07-.27,32.3,2.08,5.07,8.61,13.66,11.29,15.66,2.68,2,7.62,3.72,12.43,4.42,4.81.69,9.98.43,13.03-.75,3.06-1.17,11.35-7.63,14.53-11.94,3.9-5.29,4.4-14.64,7.44-31.26,1.94-10.6,8.72-32.27,1.8-44.77ZM174.42,77.44s3.59-3.22,7.25-2.49c3.65.73,10.17,6.52,10.17,6.52,0,0-7.18,2.9-11.86,1.62-4.68-1.28-5.56-5.65-5.56-5.65ZM215,114.3c-.25,1.87-1.21,2.85-1.66,3.24-2.13,1.81-7.92,5.37-7.92,5.37-3.42-5.07-8.69-6.37-11.66-6.8s-8.37-.67-12.84,3.26c0,0-4.78-5.08-6.42-7.43-.35-.51-1.05-1.72-.86-3.6.54-5.36,1.23-10.73,1.23-10.73,0,0,13.84-3.95,16.22-4.59,2.82-.77,4.43-1.01,5.6-.84,1.17.17,2.67.86,5.22,2.4,2.15,1.3,14.62,9.04,14.62,9.04,0,0-.81,5.35-1.53,10.69ZM214.94,88.13c-4.82-.09-11.09-4.93-11.09-4.93,0,0,7.64-3.74,11.34-3.41,3.7.33,6.43,4.46,6.43,4.46,0,0-1.86,3.97-6.68,3.88Z"/>
          <path class="st4" d="M219.24,46.83c-.73-1.55-1.75-2.94-2.92-4.17-2.35-2.45-5.26-4.2-8.3-5.35-3.07-1.17-6.36-1.64-9.6-1.38-4.74.37-9.73,2.1-13.05,6.02-.02.03,0,.07.04.06,2.88-1.39,5.77-2.16,8.7-2.52,1.47-.18,2.94-.27,4.41-.26,7.17,0,14.97,2.67,20.68,7.66.02.02.06-.01.05-.04Z"/>
          <g>
            <path class="st15" d="M214.94,88.13c4.82.09,6.68-3.88,6.68-3.88,0,0-.09-.13-.25-.35-.75,1.11-2.7,3.34-6.32,3.27-3.81-.07-8.52-3.11-10.33-4.38-.55.25-.87.41-.87.41,0,0,6.27,4.84,11.09,4.93Z"/>
            <path class="st15" d="M176.14,43.66c9.58-10.13,21.85-10.58,27.41-9.78,5.56.8,17.31,4.72,24.23,17.23,3.22,5.83,3.47,13.65,2.62,21.41.98-8.07.85-16.3-2.51-22.37-6.92-12.51-18.67-16.43-24.23-17.23s-17.83-.35-27.41,9.78c-4.65,4.92-6.68,12.83-7.6,20.91.97-7.74,3.02-15.23,7.49-19.95Z"/>
            <path class="st15" d="M213.45,116.57c-2.13,1.81-7.92,5.37-7.92,5.37-3.42-5.07-8.69-6.37-11.66-6.8s-8.37-.67-12.84,3.26c0,0-4.78-5.08-6.42-7.43-.35-.51-1.05-1.72-.86-3.6.43-4.35.83-7.15,1.13-9.77,0,0,0,0,0,0,0,0-.7,5.36-1.23,10.73-.19,1.88.51,3.09.86,3.6,1.64,2.36,6.42,7.43,6.42,7.43,4.47-3.93,9.87-3.69,12.84-3.26s8.25,1.73,11.66,6.8c0,0,5.79-3.55,7.92-5.37.46-.39,1.41-1.37,1.66-3.24.72-5.34,1.53-10.69,1.53-10.69,0,0,0,0,0,0-.32,2.61-.82,5.4-1.41,9.73-.25,1.87-1.21,2.85-1.66,3.24Z"/>
            <path class="st15" d="M179.98,83.09c4.68,1.28,11.86-1.62,11.86-1.62,0,0-.28-.25-.75-.64-2.04.72-7.3,2.32-11,1.3-3.52-.96-4.89-3.67-5.35-4.95-.2.16-.32.26-.32.26,0,0,.88,4.37,5.56,5.65Z"/>
          </g>
          <path class="st1" d="M178.38,57.59c0,.6.27,1.16.71,1.51l.4.32c-.58-5.5.73-20.56.73-20.56l-.6-.56c-1.23,4.77-1.26,15.94-1.24,19.28Z"/>
          <path class="st15" d="M230.9,81.39l-3.01-13.47c-.09-.39-.11-.79-.06-1.18l1.67-14.19c.12-1.06-.08-1.59-.49-2.24l-3.36-5.35c.08,4.96-2.47,15.77-3.26,18.99-.14.58-.53,1.05-1.04,1.26l-15.41,6.49-6.02-6.93-7.42,4.99-13.4-10.65c-.44-.35-.7-.91-.71-1.51-.02-3.34.01-14.51,1.24-19.28l-4.48,4.22c-.55.52-.87.97-.99,2.03l-1.67,14.19c-.05.4-.16.78-.33,1.13l-6.03,12.17c-.16.33-.27.69-.31,1.06l-.71,6.07c-.06.51,0,1.03.17,1.51.81,2.25,3.33,9.21,4.92,13.39.17.45.3.92.38,1.4l3.27,12.46c.15.92.61,1.75,1.28,2.32l.29.24,2.37-11.45c.14-.81.68-1.47,1.4-1.7l7.76-2.45h0c-.37-.29-.79-.5-1.24-.6-1.48-.34-3.02-.36-4.51-.07l-4.82.95c-.97.19-1.92-.4-2.28-1.41l-5.49-15.24c-.3-.84-.23-1.8.2-2.57l6.41-11.56c.23-.42.74-.55,1.11-.28l21.86,15.57,24.73-8.85c.43-.15.88.11,1.01.59l3.52,12.99c.24.87.09,1.81-.4,2.54l-8.83,13.18c-.58.87-1.64,1.17-2.53.71l-4.44-2.29c-1.38-.71-2.86-1.12-4.38-1.21-.45-.03-.91.05-1.33.23h0l6.93,4.57c.64.42,1.02,1.21.96,2.04l-.6,11.7.33-.16c.78-.36,1.41-1.03,1.77-1.88l6.28-11.08c.19-.44.42-.86.69-1.24,2.5-3.58,6.54-9.6,7.85-11.55.28-.41.45-.9.51-1.41l.71-6.07c.04-.37.02-.75-.06-1.11Z"/>
          <g>
            <path class="st1" d="M223.64,70.19c.43-.15.88.11,1.01.59l3.52,12.99c.24.87.09,1.81-.4,2.54l-8.83,13.18c-.22.32-.5.57-.81.72.02-.03.04-.05.06-.08l8.83-13.18c.49-.73.64-1.67.4-2.54l-3.52-12.99c-.13-.47-.58-.74-1.01-.59l-24.73,8.85,25.49-9.49Z"/>
            <path class="st1" d="M226.34,46.06c-.38,5.41-2.49,14.35-3.2,17.23-.14.58-.52,1.04-1.02,1.26.12-.18.21-.39.27-.61.79-3.22,3.34-14.03,3.26-18.99l.7,1.11Z"/>
            <path class="st1" d="M207.12,97.65c.23.06.45.16.67.28l4.94,2.68c3.35,1.89,3.11,2.89,2.77,4.97-.34,2.07-2.69,10.31-2.69,10.31l.6-11.7c.05-.83-.32-1.61-.96-2.04l-6.93-4.57s.63-.2,1.62.08Z"/>
          </g>
          <g>
            <path class="st1" d="M175.72,63.28c-.38-.27-.88-.14-1.11.28l-6.41,11.56c-.43.77-.5,1.73-.2,2.57l5.49,15.24c.13.37.35.69.62.93-.01-.03-.03-.06-.04-.09l-5.49-15.24c-.3-.84-.23-1.8.2-2.57l6.41-11.56c.23-.42.74-.55,1.11-.28l21.86,15.57-22.44-16.41Z"/>
            <path class="st1" d="M178.69,39.19c-.88,5.34-.91,14.58-.89,17.57,0,.6.26,1.15.7,1.5-.07-.21-.12-.44-.12-.67-.02-3.34.01-14.51,1.24-19.28l-.93.88Z"/>
            <path class="st1" d="M185.34,94.51c-.24,0-.47.03-.71.08l-5.4,1.19c-3.67.87-3.68,1.91-3.83,4.02-.15,2.1-.02,10.69-.02,10.69l2.37-11.45c.14-.81.68-1.47,1.4-1.7l7.76-2.45s-.57-.37-1.58-.38Z"/>
          </g>
          <path class="st1" d="M222.38,63.94c-.14.58-.53,1.05-1.04,1.26l-.46.19c1.83-5.15,4.04-20.08,4.04-20.08l.71-.37c.08,4.96-2.47,15.77-3.26,18.99Z"/>
          <path class="st37" d="M198.16,79.69l-1.18-.84-2.81,13.45c1.07-.19,1.87-.22,2.53-.13s1.42.36,2.41.84l.4-13.8-1.34.48Z"/>
        </g>
      </g>
    </g>
  </g>
</svg>