<?xml version="1.0" encoding="UTF-8"?>
<svg xmlns="http://www.w3.org/2000/svg" version="1.1" viewBox="0 0 337.71 502.97">
  <!-- Generator: Adobe Illustrator 29.7.1, SVG Export Plug-In . SVG Version: 2.1.1 Build 8)  -->
  <defs>
    <style>
      .st0 {
        fill: #209ab7;
      }

      .st1 {
        fill: #722c05;
      }

      .st2 {
        fill: #ffce00;
      }

      .st3, .st4 {
        fill: #301506;
      }

      .st5 {
        fill: #2e5970;
      }

      .st6 {
        stroke-width: .32px;
      }

      .st6, .st7, .st8 {
        stroke: #2b1707;
      }

      .st6, .st7, .st8, .st9, .st10, .st11, .st12, .st13, .st14, .st15, .st16, .st17, .st18, .st19 {
        stroke-miterlimit: 10;
      }

      .st6, .st7, .st8, .st9, .st10, .st12, .st13, .st14, .st15, .st16, .st17, .st18, .st19 {
        fill: none;
      }

      .st7, .st11, .st12 {
        stroke-width: .36px;
      }

      .st8 {
        stroke-width: .16px;
      }

      .st20 {
        fill: #040003;
      }

      .st9 {
        stroke-width: .78px;
      }

      .st9, .st11 {
        stroke: #0c0907;
      }

      .st21 {
        fill: #2b1707;
      }

      .st22 {
        fill: #f9f7f7;
      }

      .st23 {
        fill: #235e6a;
      }

      .st23, .st24, .st25, .st26, .st27, .st28, .st4 {
        mix-blend-mode: multiply;
      }

      .st23, .st25, .st26, .st27, .st28, .st4 {
        opacity: .6;
      }

      .st29 {
        isolation: isolate;
      }

      .st10 {
        stroke: #f9f7f7;
        stroke-width: .08px;
      }

      .st30 {
        fill: #d6772e;
      }

      .st24 {
        fill: #eaa41b;
        opacity: .7;
      }

      .st31, .st28 {
        fill: #409dad;
      }

      .st32 {
        fill: #0b0b04;
      }

      .st33 {
        fill: #f4d4ae;
      }

      .st34 {
        fill: #e2b791;
      }

      .st35 {
        fill: #fff;
      }

      .st36 {
        fill: #c62b0c;
      }

      .st37 {
        fill: #3a1e0d;
      }

      .st25 {
        fill: #2b8089;
      }

      .st38 {
        fill: #e5a116;
      }

      .st39 {
        fill: #2b8495;
      }

      .st11 {
        fill: #0ba5bb;
      }

      .st40, .st27 {
        fill: #d67822;
      }

      .st12, .st13, .st14, .st15 {
        stroke: #000;
      }

      .st13, .st18 {
        stroke-width: .73px;
      }

      .st14, .st19 {
        stroke-width: 1.09px;
      }

      .st41 {
        fill: #2d98aa;
      }

      .st26 {
        fill: #1c7e92;
      }

      .st42 {
        fill: #227589;
      }

      .st15, .st16 {
        stroke-width: 2.19px;
      }

      .st43 {
        fill: #50b3b7;
      }

      .st44 {
        fill: #e3930a;
      }

      .st16 {
        stroke: #301506;
      }

      .st17 {
        stroke-width: 1.46px;
      }

      .st17, .st18, .st19 {
        stroke: #261202;
      }

      .st45 {
        fill: #266472;
      }
    </style>
  </defs>
  <g class="st29">
    <g id="Layer_1">
      <g>
        <g>
          <path class="st45" d="M47.06,312.47s7.93-.33,20.48,16.82c12.55,17.15,17.66,10.22,17.66,10.22,0,0,9.65-3.28,16.86,4.01,7.22,7.3,35.73,6.57,35.73,6.57,0,0,6.01,3.65,11.38,6.57,0,0,17.04,5.47,25.98-6.57,0,0,22.71-10.22,48.66-5.84,25.96,4.38,33.64-4.01,38.92-14.96,5.28-10.95,18.06-15.33,26.08-13.5,0,0-7.66-75.15-34.3-128.43l-11.31-36.66-19.63-30.55-18.71-12.31-32.46,9.56-38.68-10.33-18.8,9.11-21.39,22.92s-21.03,41.9-24.9,52.74c-3.87,10.83-24.33,76.82-21.58,120.64Z"/>
          <path class="st23" d="M80.27,173.49s-28.3,27.65-33.21,138.98c-4.91,111.33,0,0,0,0,0,0,7.87.08,9.33,4.62l27.38-138-3.49-5.6Z"/>
          <path class="st15" d="M47.06,312.47s7.93-.33,20.48,16.82c12.55,17.15,17.66,10.22,17.66,10.22,0,0,9.65-3.28,16.86,4.01,7.22,7.3,35.73,6.57,35.73,6.57,0,0,6.01,3.65,11.38,6.57,0,0,17.04,5.47,25.98-6.57,0,0,22.71-10.22,48.66-5.84,25.96,4.38,33.64-4.01,38.92-14.96,5.28-10.95,18.06-15.33,26.08-13.5,0,0-7.66-75.15-34.3-128.43l-11.31-36.66-19.63-30.55-18.71-12.31-32.46,9.56-38.68-10.33-18.8,9.11-21.39,22.92s-21.03,41.9-24.9,52.74c-3.87,10.83-24.33,76.82-21.58,120.64Z"/>
          <path d="M83.4,184.05s-12.43,54.74-12.79,61.3c0,0,15.73-52.18,12.79-61.3"/>
          <path d="M102.33,201.42s-8.01,59.26-18.22,70.21c0,0,15.28-22.92,18.22-70.21"/>
          <path d="M114.94,214.3s-1.68,44.88-12.6,70.81c0,0-14.94,48.19-14.57,52.2,0,0,33.55-95.69,27.18-123.01"/>
          <path d="M119.14,184.05s8.4-37.37,7.85-39.85.91,12.84-7.85,39.85Z"/>
          <path d="M131.91,193.54s8.4-37.37,7.85-39.85c-.55-2.48.91,12.84-7.85,39.85Z"/>
          <path d="M233.86,224.42s17.52,86.61,17.99,104.86c0,0-18.59-95.87-17.99-104.86Z"/>
          <path d="M175.15,305.43s1.28,39.21-1.28,47.59c0,0,0-41.16,1.28-47.59Z"/>
          <path d="M213.51,166.35s6.08,12.82,5.48,25.48c0,0-3.44-18.38-5.48-25.48Z"/>
          <path d="M219.85,149.39s10.46,34.62,10.52,36.83c0,0-11.25-32.09-10.52-36.83Z"/>
          <path d="M247.62,200.84s7.63,19.34,9.09,59.48c0,0-6.5-56.19-9.09-59.48"/>
          <path class="st41" d="M257.07,192.08s42.33,96.7,30.29,154.72c0,0,9.85.36,17.52-13.87,7.66-14.23,16.42-19.34,24.08-20.8,0,0,2.19-.73,6.57,0,0,0-13.11-60.3-53.81-107.69l-13.7-19.29-2.19-4.01-8.76,10.95Z"/>
          <path class="st15" d="M257.07,192.08s42.33,96.7,30.29,154.72c0,0,9.85.36,17.52-13.87,7.66-14.23,16.42-19.34,24.08-20.8,0,0,2.19-.73,6.57,0,0,0-13.11-60.3-53.81-107.69l-13.7-19.29-2.19-4.01-8.76,10.95Z"/>
          <path class="st26" d="M300.52,229.94s-29.59-29.45-37.43-33.11c0,0,.16,6.49,1.08,12.73l-7.1-17.48,8.76-10.95s29.96,40.69,34.69,48.81Z"/>
          <path class="st1" d="M263.28,117.64s-.73,14.96-13.14,12.41c0,0-4.01-1.09-8.03-6.93,0,0,16.53,13.34,9.18,22.73,0,0-33.26-35.4-43.66-41.29s-12.95-5.16-14.96-3.51c0,0-1.55-4.34-6.7-2.81,0,0-.78.38-.59,1.32,0,0-14.78-7.66-40.69-3.73,0,0-7.1.29-5.01,5.21,0,0-11.33-2.2-22.32,5.19-10.99,7.4-17.78,11.35-23.69,19.96,0,0-5.18,6.05-13.57-1.61,0,0-4.38-4.38-4.38-9.49,0,0,6.39,9.3,17.7,2.01,0,0,4.38-3.84,4.93-5.57,0,0-8.21-6.47-7.48-14.13.73-7.66,5.47-14.23,10.58-17.88,5.11-3.65,19.34-13.5,19.7-19.7,0,0-10.02,9.43-15.04,11.1-5.03,1.67-17.07,11.16-17.07,20.28,0,0-2.96-6.7,4.91-13.75s28.04-13.62,32.18-34.96c0,0,5.95-33.95,25.85-32.94,0,0,1.26-7.23,19.88-6.94,0,0,26.65,1.02,39.79,35.69,0,0,1.55,8.38,12.45,19.33,0,0,10.9,10.95-1.87,22.63,0,0,4.01,2.19,10.95,3.28,6.93,1.09,18.73,6.93,18.85,17.52,0,0-.65,3.28-3,6.02,0,0,.84-15.63-23.93-16.48,0,0-.68.61-7.25-3.77,0,0,16.4,7.68,25.06,18.79.91,1.17,1.57,2.52,1.91,3.97.75,3.2,2.83,9.85,7.7,13.36,0,0,10.22,2.92,10.76-5.29Z"/>
          <path class="st16" d="M242.9,105.6c.66,1.33,1.57,2.52,1.91,3.97.75,3.2,2.83,9.85,7.7,13.36,0,0,10.22,2.92,10.76-5.29,0,0-.73,14.96-13.14,12.41,0,0-4.01-1.09-8.03-6.93,0,0,16.53,13.34,9.18,22.73,0,0-33.26-35.4-43.66-41.29s-12.95-5.16-14.96-3.51c0,0-1.55-4.34-6.7-2.81,0,0-.78.38-.59,1.32,0,0-14.78-7.66-40.69-3.73,0,0-7.1.29-5.01,5.21,0,0-11.33-2.2-22.32,5.19-10.99,7.4-17.78,11.35-23.69,19.96,0,0-5.18,6.05-13.57-1.61,0,0-4.38-4.38-4.38-9.49,0,0,6.39,9.3,17.7,2.01,0,0,4.38-3.84,4.93-5.57,0,0-8.21-6.47-7.48-14.13.73-7.66,5.47-14.23,10.58-17.88,5.11-3.65,19.34-13.5,19.7-19.7,0,0-10.02,9.43-15.04,11.1-5.03,1.67-17.07,11.16-17.07,20.28,0,0-2.96-6.7,4.91-13.75s28.04-13.62,32.18-34.96c0,0,5.95-33.95,25.85-32.94,0,0,1.26-7.23,19.88-6.94,0,0,26.65,1.02,39.79,35.69,0,0,1.55,8.38,12.45,19.33,0,0,10.9,10.95-1.87,22.63,0,0,4.01,2.19,10.95,3.28,6.93,1.09,18.73,6.93,18.85,17.52,0,0-.65,3.28-3,6.02,0,0,.84-15.63-23.93-16.48,0,0-4.43-1.48-6.48-3.26,0,0,19.6,8.8,24.29,18.29Z"/>
          <path class="st3" d="M157.09,16.27s3.28-16.35,29.01,0c0,0-23.54-14.16-29.01,0Z"/>
          <path class="st3" d="M156.51,19.77s-1.29-6.71-7.29-3.5c0,0-4.23,2.77-5.29,4.63,0,0,7.26-8.88,12.58-1.14Z"/>
          <path class="st3" d="M186.66,19.59s10.94,13.76,17.5,26.35c0,0,9.86,11.86,14.78,16.6,4.92,4.74,4.56,13.14,2.73,15.69,0,0,.91-7.85-.91-11.13s-17.29-17.2-18.68-20.28-13.41-22.21-15.43-27.24Z"/>
          <path class="st4" d="M237.37,131.51s9.12-14.23-13.14-31.75c0,0-15.69-8.03-18.61-15.69-2.92-7.66-4.84-14.23-4.06-18.61.78-4.38-2.87,2.15-2.87,2.15,0,0-5.84,4.79-4.01,16.83,1.82,12.04,2.55,12.46,4.01,15.35,0,0,18.25,8.73,38.68,31.72Z"/>
          <path class="st3" d="M224.23,109.25s-26.27-7.81-24.81-33.83c0,0,6.14,13.94,20.4,24.8,0,0,3.32,2.1,4.41,9.03Z"/>
          <path class="st4" d="M144.68,95.82s4.05-8.86,2.57-14.14c-1.48-5.28-.43-6.39.32-7.48s-1.95-5.09-1.95-5.09c0,0-3.51,0-3.87,3.46s.54,18.65-6.48,25.66c0,0,8.01-6.56,8.71-14.56.69-8-.4,8.21.69,12.15Z"/>
          <path class="st3" d="M138.4,69.12s-2.42,28.18-25.8,35.44c0,0,32.16-21.59,20.26-44.39l5.53,8.96Z"/>
          <path class="st4" d="M129.36,61.81s1.89,9.24-.88,13.19-.95,10.52-6.42,13.08c0,0,12.16-8.39,13.74-18.25,0,0-2.63-10.2-2.71-11.3s-2.64-1.11-3.73,3.27Z"/>
          <path class="st4" d="M119.14,89.33s-15.19,14.74-15.44,18.42c0,0-5.04,7.56,1.55,6.72,6.59-.84,0,0,0,0,0,0,10.66-5.62,7.35-12.54,0,0,.34-8.07,6.54-12.6Z"/>
          <path class="st15" d="M215.84,111.64s-11.31-10.79-20.07-10.79c0,0-2.01-.18-3.1.18,0,0-.73-2.19-5.11-2.55,0,0-1.46,0-2.19,1.46,0,0-2.22-1.46-6.22-1.46-4,0-26.26-3.28-30.27-2.55s-11.31,0-8.03,5.84c0,0-15.23-2.55-23.12,5.29-7.89,7.85,0,0,0,0l-1.56,4.07s9.79-4.98,16.33-4.07c6.54.91,17.72,4.49,22.34,4.71,4.63.22,15.08,2.09,22.44,1.33s17.83-2.44,20.08-3.78c2.25-1.35,13.56-2.04,18.49,2.32"/>
          <path class="st42" d="M215.84,111.64s-11.31-10.79-20.07-10.79c0,0-2.01-.18-3.1.18,0,0-.73-2.19-5.11-2.55,0,0-1.46,0-2.19,1.46,0,0-2.22-1.46-6.22-1.46-4,0-26.26-3.28-30.27-2.55s-11.31,0-8.03,5.84c0,0-15.23-2.55-23.12,5.29-7.89,7.85,0,0,0,0l-1.56,4.07s9.79-4.98,16.33-4.07c6.54.91,17.72,4.49,22.34,4.71,4.63.22,15.08,2.09,22.44,1.33s17.83-2.44,20.08-3.78c2.25-1.35,13.56-2.04,18.49,2.32"/>
          <path d="M192.67,101.04s-8.34,8.98-15.39,12.06c-7.05,3.08,0,0,0,0,0,0,11.2-8.96,15.39-12.06Z"/>
          <path d="M140.85,101.77s18.71,7.81,26.96,8.92c0,0-15.1-1.44-26.96-8.92Z"/>
          <path class="st12" d="M185.37,99.94s-2.94,5.22-6.85,7.81c-3.91,2.59-6.3,1.3-4.37,3.77,0,0-8.66-4.46-12.31-5.92-3.65-1.46-16.06-6.93-17.15-8.76"/>
          <path class="st40" d="M182.63,103.78s-2.55.73-2.92-1.82c-.3-2.13-.1-9.63-.03-12.08,0-.22-.27-.32-.41-.15-1.15,1.48-4.67,4.88-11.47,2.47-7.21-2.55-13.54-7.9-15.33-9.49-.18-.16-.46-.02-.43.22.22,2.28.85,9.7-.07,12.96,0,0,0,3.37-3.77,2.82-.04,0-.06.04-.02.06,1.9.86,15.8,7.22,24.96,12.31,0,0,8.03-4.74,9.49-7.3Z"/>
          <path class="st27" d="M179.56,96.3l.12-6.07s-.12-.35-1.96,1.03c-1.84,1.38-7.11,4.05-15.24-1.48,0,0-7.27-4.14-8.61-5.57-1.34-1.43-1.82-1.29-1.82-1.29,0,0,.15.41.31,4.15s-.2,8.04-.38,8.81,2.01-.69,3.83-2.88c1.82-2.19,1.46-2.92,2.92-1.46,1.46,1.46,11.98,10.59,17.85,4.75,0,0,2.64-2.91,2.98,0Z"/>
          <path class="st14" d="M182.63,103.78s-2.55.73-2.92-1.82c-.3-2.13-.1-9.63-.03-12.08,0-.22-.27-.32-.41-.15-1.15,1.48-4.67,4.88-11.47,2.47-7.21-2.55-13.54-7.9-15.33-9.49-.18-.16-.46-.02-.43.22.22,2.28.85,9.7-.07,12.96,0,0,0,3.37-3.77,2.82-.04,0-.06.04-.02.06,1.9.86,15.8,7.22,24.96,12.31,0,0,8.03-4.74,9.49-7.3Z"/>
          <path class="st30" d="M198.69,45.39s-1.82,8.39-1.46,13.87c.36,5.47-1.46,13.87-7.66,20.8-6.2,6.93-11.05,11.62-14.47,12.56s-14.54-.34-24.03-12.38c0,0-5.47-9.53-6.39-14.25,0,0-.18,8.05-6.75,1.48,0,0-7.3-7.3-4.38-14.96,0,0,1.43-4.26,5.15-2.32,1.28.67,2.25,1.8,2.81,3.13,1.11,2.65,2.9,9.19,3.17,12.14.36,4.01-2.74-16.97-.18-21.71,2.55-4.74,10.22-18.25,10.22-19.7s2.55-4.74,2.55-1.46c0,0,8.39-4.01,13.14.36,4.74,4.38,13.87,12.41,18.97,15.69s8.03,3.65,9.3,6.75Z"/>
          <path class="st17" d="M198.69,45.39s-1.82,8.39-1.46,13.87c.36,5.47-1.46,13.87-7.66,20.8-6.2,6.93-11.05,11.62-14.47,12.56s-14.54-.34-24.03-12.38c0,0-5.47-9.53-6.39-14.25,0,0-.18,8.05-6.75,1.48,0,0-7.3-7.3-4.38-14.96,0,0,1.43-4.26,5.15-2.32,1.28.67,2.25,1.8,2.81,3.13,1.11,2.65,2.9,9.19,3.17,12.14.36,4.01-2.74-16.97-.18-21.71,2.55-4.74,10.22-18.25,10.22-19.7s2.55-4.74,2.55-1.46c0,0,8.39-4.01,13.14.36,4.74,4.38,13.87,12.41,18.97,15.69s8.03,3.65,9.3,6.75Z"/>
          <path class="st19" d="M198.69,51.37s.75-5.7,2.93,0c0,0,3.65,7.86-1.46,13.71,0,0,.62,3.04-4.44,4.45,0,0,1.4-5.46,1.47-11.35.04-3.66,1.5-6.81,1.5-6.81Z"/>
          <path class="st37" d="M167.67,41.17s-.36-8.18-10.22-7.45c0,0-7.64,1.04-9.84,7.45,0,0,6.55-7.51,20.06,0Z"/>
          <path class="st17" d="M167.67,41.17s-.36-8.18-10.22-7.45c0,0-7.64,1.04-9.84,7.45,0,0,6.55-7.51,20.06,0Z"/>
          <path class="st21" d="M150.53,49.47s-2.57-.96-3.66-3.79c0,0,1.46,1.17,2.19.81s1.09-.73.73-1.82c0,0,0,.73,1.46.36,1.46-.36,6.9-3.44,10.38.65,0,0,2.39,3,3.12,6.28h-.84s-13.38-2.49-13.38-2.49Z"/>
          <path class="st18" d="M150.53,49.47s-2.57-.96-3.66-3.79c0,0,1.46,1.17,2.19.81s1.09-.73.73-1.82c0,0,0,.73,1.46.36,1.46-.36,6.9-3.44,10.38.65,0,0,2.39,3,3.12,6.28l-.73.73-13.49-3.22Z"/>
          <path class="st34" d="M164.22,53.05s-.19-5.94-6.58-7.17c-6.39-1.23-7.1,3.28-7.11,3.58s-.38,4.68,7.65,4.68c0,0,3.32.73,6.04-1.09Z"/>
          <path class="st5" d="M153.62,49.95c0,2.22.99,4.01,3.1,4.01s4.2-1.8,4.2-4.01-2.08-4.01-4.2-4.01c-2.12,0-3.1,1.8-3.1,4.01Z"/>
          <path class="st33" d="M155.45,48.86c0,1.21.94,2.19,1.64,2.19s1.64-.98,1.64-2.19-.94-1.82-1.64-1.82c-.71,0-1.64.62-1.64,1.82Z"/>
          <path class="st32" d="M155.45,49.41c.27,1.08,1.14,1.64,1.64,1.64s.55-.94.55-1.64-1.14-1.82-1.64-1.82-.73,1.09-.55,1.82Z"/>
          <path class="st37" d="M177.16,42.47s.36-8.03,9.12-6.93c0,0,1.71,2.16,6.51,5.1,0,0-7.61-2.91-15.63,1.84Z"/>
          <path class="st17" d="M177.16,42.47s.36-8.03,9.12-6.93c0,0,1.71,2.16,6.51,5.1,0,0-7.61-2.91-15.63,1.84Z"/>
          <path class="st34" d="M178.98,53.05s-.73,1.82,2.92,2.19c3.65.36,7.3.36,9.49-2.92,0,0,1.67-1.49.29-3.48-1.38-1.99-8.68-4.91-12.7,4.21Z"/>
          <path class="st5" d="M185.86,46.83s4.44,2.58,1.16,6.96c0,0-1.46,2.92-4.74.36-3.28-2.55-1.91-3.6-1.91-3.6,0,0,1.06-3.02,5.5-3.72Z"/>
          <ellipse class="st33" cx="184.82" cy="50.32" rx="1.28" ry="2.19"/>
          <path class="st32" d="M183.36,50.68c0,.91.33,2.01.73,2.01s1.82,0,1.46-2.01c-.16-.89-1.06-1.64-1.46-1.64s-.73.74-.73,1.64Z"/>
          <path class="st21" d="M191.89,46.77s1.32-1.01,1.32-2.47c0,0-.73,2.19-2.19,1.82s-3.28-3.01-8.39-.23c0,0-4.01,3.51-3.65,7.16,0,0,6.42-11.84,13.24-3.18,0,0,3.8-1.73,3.49-3.11,0,0-1.86,1.01-3.83,0Z"/>
          <path class="st18" d="M191.89,46.77s1.32-1.01,1.32-2.47c0,0-.73,2.19-2.19,1.82s-3.28-3.01-8.39-.23c0,0-4.01,3.51-3.65,7.16,0,0,6.42-11.84,13.24-3.18,0,0,3.8-1.73,3.49-3.11,0,0-1.86,1.01-3.83,0Z"/>
          <path class="st21" d="M164.75,52.32s-8.83,4.33-13.54-.57c0,0-.67-.76-.68-2.28,0,0-.07,5.06,5.98,5.23,0,0,7.15.17,8.24-2.38Z"/>
          <path class="st30" d="M198.69,51.37s.75-5.7,2.93,0c0,0,3.65,7.86-1.46,13.71,0,0,.62,3.04-4.44,4.45,0,0,1.4-5.46,1.47-11.35.04-3.66,1.5-6.81,1.5-6.81Z"/>
          <path class="st21" d="M181.04,55.11s10.2,1.59,11.19-4.8c0,0,.62,2.74-2.66,4.56-3.28,1.82-8.3.47-8.53.24Z"/>
          <path class="st36" d="M183.4,72.91s-2.35-1.07-4.48-1.34-9.5-1.19-17.31,0c0,0-1.08-.75-1.64-1.29-.3-.29-.71-.44-1.13-.44h-.94s1.38.73,2.83,3.28,2.83,3.24,6.23,6.93c.23.25.52.45.84.57,1.71.65,7.31,2.44,10.07-.94,3.28-4.01,3.37-6.63,5.52-6.78Z"/>
          <path class="st27" d="M192.23,45.4s-4.85-3.14-9.6-.48c-4.74,2.66-6.47,7.77-6.47,7.77,0,0-1.2,1.09.63,5.47,1.82,4.38,3.27,5.75,3.28,6.52s-2.55,3.69-5.1,2.96c0,0-1.46,1.82-3.65-.73,0,0-2.92.36-2.92-2.55,0,0,1.09.73,1.82.36s2.01-1.28,6.02-.18c0,0,1.82,0,1.46-2.55,0,0-4.29-7.3-1.78-11.13,0,0,3.09-11.48,16.3-5.47Z"/>
          <ellipse class="st21" cx="176.79" cy="66.56" rx="1.82" ry=".73" transform="translate(-12.07 70.74) rotate(-21.9)"/>
          <path class="st21" d="M172.98,66.56s-.57-1.09-2.03-1.09c-1.46,0-1.72.93-1.72.93l3.75.17Z"/>
          <path class="st21" d="M182.04,69.53s2.16,1.54,2.1,2.75c0,0-.42-.98.31-.98,0,0-1.18-1.35-2.41-1.77Z"/>
          <path class="st7" d="M157.9,69.84s1.38.73,2.83,3.28c1.3,2.27,2.6,3.1,5.45,6.09.87.91,1.96,1.58,3.17,1.92,2.41.67,6.35,1.22,8.53-1.44,3.28-4.01,3.37-6.63,5.52-6.78,0,0-2.35-1.07-4.48-1.34-2.08-.26-9.16-1.15-16.76-.08-.36.05-.73-.04-1.02-.26,0,0-.78-1.21-3.24-1.39Z"/>
          <path class="st35" d="M178.54,74.47s0-.96-1.28-.96c-1.28,0-10.61,0-12.53-.64,0,0-1.8-.12-.14.8,0,0,3.07,1.44,4.35,2.72,0,0,4.8,1.48,7.2.26,0,0,1.44-1.54,2.4-2.18Z"/>
          <path class="st6" d="M164.58,73.67s2.72,1.27,4.11,2.49c.19.17.41.28.66.34,1.21.32,4.82,1.15,6.79.14,0,0,1.44-1.54,2.4-2.18,0,0,0-.96-1.28-.96-1.16,0-8.6,0-11.43-.47,0,0-.77-.23-2.11-.17,0,0,.15.44.87.8Z"/>
          <path class="st8" d="M178.54,74.47s-1.7,1.11-4.05,1.2"/>
          <path class="st8" d="M171.8,75.67s-2.58-.64-4.65-.6"/>
          <path class="st7" d="M137.86,66.92c-3.9-3.28-3.14-10.95-3.14-10.95-.34-3.42,2.21-3.42,3.66-3.15.62.12,1.18.44,1.59.92,2.4,2.82-.04,4.06-.04,4.06"/>
          <path class="st27" d="M141.76,62.54s-2.95-.02-4.46-2.38c-1.75-2.73-2.25-7.17,0-7.46,3-.38,5.55,3.27,1.9,5.82,0,0-.73,2.19,2.55,4.01Z"/>
          <path class="st27" d="M198.69,61.11s-.16-9.42,2.93-9.74c0,0,1.34.43-.52,1.7-1.86,1.26-2.23,7.9-2.41,8.05Z"/>
          <path class="st43" d="M146.98,191.83s2.81-13.61-8.14-30.03c0,0-8.76-16.79-6.93-19.7l-13.81,8.76s-1.37-1.66-6.38-6.63c-3.16-3.14-7.78-10.72-14.41-10.16h1.04s10.22-12.77,12.04-16.06,7.66-10.95,23.35-10.95c0,0,21.89,6.57,39.41,6.2,17.52-.36,25.18-4.38,25.18-4.38,0,0,10.58-4.74,21.16,5.84,10.58,10.58,17.52,17.15,17.52,17.15,0,0-6.02,14.78-14.23,18.97,0,0-6.75-4.56-7.85-5.29,0,0-1.32,8.13-3.58,11.55,0,0-.44,10.71-1.53,15.45s-2.98,15.39-1.49,20.65c1.49,5.26,0,0,0,0,0,0-12.74,4.95-33.18,3.28-20.43-1.67-28.17-4.66-28.17-4.66Z"/>
          <path class="st15" d="M222.77,150.85s-6.75-4.56-7.85-5.29c0,0-1.32,8.13-3.58,11.55,0,0-.44,10.71-1.53,15.45s-2.98,15.39-1.49,20.65c1.49,5.26,0,0,0,0,0,0-12.74,4.95-33.18,3.28-20.43-1.67-28.17-4.66-28.17-4.66,0,0,2.81-13.61-8.14-30.03,0,0-8.76-16.79-6.93-19.7l-12.77,8.76"/>
          <path class="st15" d="M98.34,134.06h0s10.22-12.77,12.04-16.06,7.66-10.95,23.35-10.95c0,0,21.89,6.57,39.41,6.2,17.52-.36,25.18-4.38,25.18-4.38,0,0,10.58-4.74,21.16,5.84,10.58,10.58,17.52,17.15,17.52,17.15"/>
          <path d="M212.92,147.93s2.19-8.89,0-12.11c-2.19-3.22-13.5-21.83-13.5-21.83,0,0,12.41,10.22,16.42,23.35l-.36,9.85-2.55.73Z"/>
          <path class="st42" d="M119.71,105.97s-15.17,5.11-27.57,22.26c0,0-19.34,20.43-27,26.64-7.66,6.2-37.1,32.21-47.74,69.56-10.64,37.35-12.1,77.49-13.56,81.14l-.73,4.38s-1.46,2.19,1.82,6.93c3.28,4.74,14.6,22.26,46.71,39.41,0,0-6.75-40.69-4.2-65.86,2.55-25.18,7.14-70.79,25.65-108.38l2.08-4.06s-6.55-8.05-3.27-11.66c3.28-3.62,14.12-22.02,21.65-27.23,7.53-5.21,8.83-10.15,8.83-10.15,0,0,16.63-20.97,17.34-22.98Z"/>
          <path class="st41" d="M67.54,194.51s-.52-13.03-3.47-17.4c0,0-43.09,28.47-48.57,149.62v2.47s27.37,24.9,36.13,27.09c0,0-17.44-85.64,15.91-161.78Z"/>
          <path class="st13" d="M13.68,326.73v2.47s27.37,24.9,36.13,27.09"/>
          <path class="st15" d="M118.62,106.33s-15.17,5.11-27.57,22.26c0,0-19.34,20.43-27,26.64s-37.1,32.21-47.74,69.56c-10.64,37.35-12.1,77.49-13.56,81.14l-.73,4.38s-1.46,2.19,1.82,6.93c3.28,4.74,14.6,22.26,46.71,39.41,0,0-6.75-40.69-4.2-65.86,2.55-25.18,7.14-70.79,25.65-108.38l2.08-4.06s-6.55-8.05-3.27-11.66c3.28-3.62,14.12-22.02,21.65-27.23,7.53-5.21,8.83-10.15,8.83-10.15,0,0,16.63-20.97,17.34-22.98Z"/>
          <path class="st13" d="M64.07,176.01s-43.82,32.12-49.3,153.27"/>
          <path class="st43" d="M131.99,396.86s5.59-11.39,5.22-22.7c-.36-11.31,4.38-17.88,4.38-17.88,0,0,4.38-4.74,5.47-12.77,0,0,13.5-33.94,16.06-38.68,2.55-4.74,9.85-25.18,10.22-27.37,0,0-29.92,4.38-50.36-12.77,0,0-3.65,5.84-5.47,49.26,0,0-.73,31.75-8.76,42.69,0,0-7.99,19.37-9.28,29.03-1.3,9.65,0,0,0,0l32.52,11.19"/>
          <path class="st15" d="M121.74,265.44s-3.33,5.1-5.15,48.52c0,0-.73,31.75-8.76,42.69,0,0-7.99,19.37-9.28,29.03-1.3,9.65,0,0,0,0l32.52,11.19"/>
          <path class="st15" d="M131.07,396.86s5.59-11.39,5.22-22.7,4.38-17.88,4.38-17.88c0,0,4.38-4.74,5.47-12.77,0,0,13.5-33.94,16.06-38.68,2.55-4.74,9.85-25.18,10.22-27.37"/>
          <path d="M135.93,344.24s1.46,6.99-3.83,12.8c0,0-3.79,3.94-4.56,4.71-.73.73,8.39-12.41,8.39-17.52Z"/>
          <path d="M120.96,342.05s-4.01,4.74-.73,17.52c0,0-.73-15.69.73-17.52Z"/>
          <path class="st43" d="M191.51,394.09s-2.95-19.56-.76-29.77-.81-21.66-.81-21.66c0,0-13.42-63.25-13.42-70.55,0,0,24.81,14.85,51.82-3.39,0,0-1.09,31.38-4.74,48.9-3.65,17.52-2.55,17.15-2.55,17.15,0,0,1.46,12.41.36,16.42-1.09,4.01.36,6.93.36,6.93,0,0,4.06,11.74,4.22,25.03.16,13.29,0,0,0,0l-34.47,10.95"/>
          <path class="st15" d="M228.24,268.71s-1.09,31.38-4.74,48.9-2.55,17.15-2.55,17.15c0,0,1.46,12.41.36,16.42-1.09,4.01.36,6.93.36,6.93,0,0,4.06,11.74,4.22,25.03s0,0,0,0l-34.47,10.95"/>
          <path class="st15" d="M191.42,394.09s-2.95-19.56-.76-29.77c2.19-10.22-.81-21.66-.81-21.66,0,0-13.42-61.17-13.42-68.47"/>
          <path d="M216.2,342.05s5.47,12.04-1.46,17.52c0,0,4.01-13.14,1.46-17.52Z"/>
          <path d="M203.07,343.51s-1.09,8.39,3.28,13.14c0,0-3.65-10.22-3.28-13.14Z"/>
          <path class="st31" d="M193.54,388.73c-1.46.27-2.39,1.74-2.05,3.18,1.39,5.89,5.15,20.03,12.85,37.9,0,0,5.84,15.33,5.47,21.89,0,0-.7,3.79.02,7.37s-1.84,6.86-1.84,13.06c0,0,0,2.92.36,6.2,0,0,0,2.19,2.92,4.01,2.92,1.82,7.3,2.55,7.3,2.55,0,0,4.74,0,8.39,3.65,0,0,9.49,8.39,28.1,4.74,0,0,9.12-.73,6.57-5.47,0,0,0-2.92-11.68-9.85-11.68-6.93-18.61-20.07-20.07-23.35,0,0,.36-4.74-1.82-7.66-1.97-2.62-2.03-56.49-2.17-67.41-.02-1.24-.5-2.42-1.35-3.31-2.16-2.26-7-6.56-7.79-7.36,0,0-11.35,17.66-23.21,19.85Z"/>
          <path d="M229.87,452.63s-6.73,3.63-8.92,5.82c-2.19,2.19,5.16-7.08,7.87-7.74s1.05,1.91,1.05,1.91Z"/>
          <path d="M244.75,475.95s-5.15,1.51-7.05,2.76,4.9-4.43,6.8-4.42c1.89,0,.25,1.66.25,1.66Z"/>
          <path d="M210.3,458.54s4.52,2.44,6,3.91-3.47-4.76-5.29-5.2c-1.82-.44-.7,1.29-.7,1.29Z"/>
          <path class="st15" d="M193.54,388.73c-1.46.27-2.39,1.74-2.05,3.18,1.39,5.89,5.15,20.03,12.85,37.9,0,0,5.84,15.33,5.47,21.89,0,0-.7,3.79.02,7.37s-1.84,6.86-1.84,13.06c0,0,0,2.92.36,6.2,0,0,0,2.19,2.92,4.01,2.92,1.82,7.3,2.55,7.3,2.55,0,0,4.74,0,8.39,3.65,0,0,9.49,8.39,28.1,4.74,0,0,9.12-.73,6.57-5.47,0,0,0-2.92-11.68-9.85-11.68-6.93-18.61-20.07-20.07-23.35,0,0,.36-4.74-1.82-7.66-1.97-2.62-2.03-56.49-2.17-67.41-.02-1.24-.5-2.42-1.35-3.31-2.16-2.26-7-6.56-7.79-7.36,0,0-11.35,17.66-23.21,19.85Z"/>
          <path class="st44" d="M205.26,384.38s9.63,10.46,12.64,14.88c.41.6,1.31.51,1.6-.16,1.74-4.07,5.99-14.42,6.4-19.56,0,0-5.68-6.85-9.15-10.68l-11.49,15.51Z"/>
          <path class="st15" d="M205.26,384.38s9.63,10.46,12.64,14.88c.41.6,1.31.51,1.6-.16,1.74-4.07,5.99-14.42,6.4-19.56,0,0-5.68-6.85-9.15-10.68l-11.49,15.51Z"/>
          <path class="st28" d="M192.08,389.57s3.33-2.26,4.42,3.21c0,0,2.55,11.68,5.47,16.42,2.92,4.74,7.3,23.35,7.3,23.35,0,0,4.74,17.88,4.38,20.43s-4.74,5.47-3.65,6.2c0,0-.36-.36-.18-7.48.18-7.12-6.25-23.36-8.05-28.1-1.8-4.74-13.56-32.69-9.69-34.04Z"/>
          <path class="st39" d="M132.09,394.78s-21.09,41.97-20.21,55.83c0,0,1.31,5.41-.92,8.18-2.23,2.77-1.5,5.32-1.5,5.32,0,0,1.82,13.5.73,16.06-1.09,2.55-4.38,5.47-4.38,5.47,0,0-1.82.73-1.46,4.01s-5.84,8.76-10.22,10.22c-4.38,1.46-12.77,1.46-16.79-.36-4.01-1.82-1.09-10.58-1.09-10.58,0,0,7.66-10.58,10.22-16.06,0,0,4.38-9.85,5.47-12.04s1.82-3.65.73-6.93c-1.09-3.28,1.82-6.57,1.82-6.57,0,0,3.28-17.15,2.19-33.94-1.09-16.79,2.19-29.19,2.19-29.19,0,0,7.94-9.59,16.57-14.29.71-.39,1.61-.11,1.99.6,2.19,4.02,9.17,16.68,14.64,24.27Z"/>
          <path class="st15" d="M132.09,394.78s-21.09,41.97-20.21,55.83c0,0,1.31,5.41-.92,8.18-2.23,2.77-1.5,5.32-1.5,5.32,0,0,1.82,13.5.73,16.06-1.09,2.55-4.38,5.47-4.38,5.47,0,0-1.82.73-1.46,4.01s-5.84,8.76-10.22,10.22c-4.38,1.46-12.77,1.46-16.79-.36-4.01-1.82-1.09-10.58-1.09-10.58,0,0,7.66-10.58,10.22-16.06,0,0,4.38-9.85,5.47-12.04s1.82-3.65.73-6.93c-1.09-3.28,1.82-6.57,1.82-6.57,0,0,3.28-17.15,2.19-33.94-1.09-16.79,2.19-29.19,2.19-29.19,0,0,7.94-9.59,16.57-14.29.71-.39,1.61-.11,1.99.6,2.19,4.02,9.17,16.68,14.64,24.27Z"/>
          <path class="st44" d="M108.92,403.72l17.82-17.08-9.29-16.14s-5.96-.79-17.1,12.02c0,0,6.01,21.56,8.57,21.2Z"/>
          <path class="st15" d="M108.92,403.72l17.82-17.08-9.29-16.14s-5.96-.79-17.1,12.02c0,0,6.01,21.56,8.57,21.2Z"/>
          <path d="M107.16,459.19s-3.35-5.47-10.28-5.47l10.28,5.47Z"/>
          <path class="st14" d="M208.1,475.19s3.73,3.7,11.03,5.52c5.84,1.46,9.53,4.95,10.78,6.29.36.38.78.7,1.24.93,3.58,1.76,18.81,5,30.85.62"/>
          <path d="M100.36,485.78s-2.38-3.6-8.95-4.7c-6.57-1.09-6.93.73-6.93.73,0,0,9.14-.09,15.88,3.97Z"/>
          <path d="M108.19,473.78s-1.09,4.01-3.28,5.84c-2.19,1.82-1.39,7.96-1.24,9.09l1.14-2.06s-.71-2.32.61-5.4c1.32-3.08,2.78-4.18,2.78-7.46Z"/>
          <path d="M102.35,488.02s-2.55,9.12-13.14,9.12c-10.58,0-12.04-2.19-13.5-3.65,0,0,1.82,4.38,10.22,4.38,7.03,0,13.62-1.9,16.29-6.91.52-.97-.17-1.7.13-2.94Z"/>
          <path class="st43" d="M211.46,202.66s16.06,35.4,16.79,66.05c0,0-22.45,16.92-51.18,6.09l-2.28-4.81-2.37,7.48s-33.78,4.24-50.01-13.09c0,0,7.87-46.57,21-63.72,0,0,28.83,18.25,68.05,2.01Z"/>
          <g>
            <path class="st25" d="M117.7,317.63c-.01.13-.02.25-.02.34,0,.39,0,.24.02-.34Z"/>
            <path class="st25" d="M147.6,220.18c-.55,6.02-4.93,6.02-4.93,6.02-2.19,4.38-11.13,1.28-11.13,1.28l-9.21,38.2s-.03-.02-.03-.02c-3.72,3.17-4.5,46.56-4.62,51.98.41-5.28,8.77-42.67,9.25-48.22h0s7.2-23.35,7.2-23.35c0,0,3.24-10.55,9.08-14.93,5.84-4.38,4.38-10.95,4.38-10.95Z"/>
          </g>
          <path class="st15" d="M121.61,265.82s8.66-48.02,21.8-65.17c0,0,28.83,18.25,68.05,2.01,0,0,16.02,36.33,16.75,66.98"/>
          <polyline class="st15" points="176.51 275.55 174.79 269.99 172.42 277.47"/>
          <path d="M150.52,238.06s15.69,6.44,21.89,15.99c0,0-7.66-8.33-21.89-15.99Z"/>
          <path d="M173.87,269.8s1.09-11.68,5.11-13.5c4.01-1.82,16.32-7.25,24.21-12.93,0,0-16.73,13.11-23.3,14.21,0,0-1.96.3-2.26,4.16s-.57,13.06-.57,13.06c0,0-2.28-5.18-3.19-5Z"/>
          <path class="st38" d="M211.46,202.66s-2.55-6.2-3.28-10.22c0,0-11.68,5.42-31.2,4.17s-29.21-4.79-29.21-4.79c0,0-1.62,5.73-4.36,8.83,0,0,18.06,8.94,34.56,8.73,0,0,23.64-1.25,33.49-6.73Z"/>
          <polygon class="st2" points="190.58 196.94 192.99 208.12 185.78 208.72 185.78 196.75 190.58 196.94"/>
          <polygon class="st24" points="154.63 194.51 151.68 204.44 144.68 200.11 147.76 191.83 154.63 194.51"/>
          <path class="st15" d="M211.46,202.66s-2.55-6.2-3.28-10.22c0,0-11.68,5.42-31.2,4.17s-29.21-4.79-29.21-4.79c0,0-1.62,5.73-4.36,8.83,0,0,18.95,10.35,34.56,8.73,0,0,23.64-1.25,33.49-6.73Z"/>
          <path class="st0" d="M106.73,177.85s8.39,14.96,18.61,21.16c0,0,3.28,5.37,9.85.86,0,0,4.75-5.24,9.49.24l-2.55.73s7.3-.73,8.03,5.84-2.19,4.38-3.65,2.92c0,0,5.47,4.38,1.09,8.03,0,0-1.09,1.09-3.28-1.46,0,0,5.47,7.3-1.82,9.12,0,0-.73,0-1.09-.36s1.46,5.47-8.39,1.82c0,0-42.33-28.83-43.79-31.38,0,0-1.09-11.31,5.47-15.69,6.57-4.38,12.04-1.82,12.04-1.82Z"/>
          <path class="st15" d="M106.73,177.85s8.39,14.96,18.61,21.16c0,0,3.28,5.37,9.85.86,0,0,4.75-5.24,9.49.24l-2.55.73s7.3-.73,8.03,5.84-2.19,4.38-3.65,2.92c0,0,5.47,4.38,1.09,8.03,0,0-1.09,1.09-3.28-1.46,0,0,5.47,7.3-1.82,9.12,0,0-.73,0-1.09-.36s1.46,5.47-8.39,1.82c0,0-42.33-28.83-43.79-31.38,0,0-1.09-11.31,5.47-15.69,6.57-4.38,12.04-1.82,12.04-1.82Z"/>
          <path d="M128.12,201.8s-1.31-.23-1.88,6.92c-.02,0-.94-6.06.2-7.89l1.68.96Z"/>
          <path class="st25" d="M89.5,189.09s14.49,10.87,18.96,15.69c4.47,4.81,16.51,13.21,17.97,13.94s14.96,4.01,13.87,5.84c-1.09,1.82.36,4.38-8.39.73-8.76-3.65-41.6-29.56-41.6-29.56l-.81-6.64Z"/>
          <path class="st25" d="M90.31,195.73l-.81-6.64s14.49,10.87,18.96,15.69"/>
          <path class="st0" d="M258.9,189.16s.73-9.85-8.03-13.87c-8.76-4.01-11.68.36-11.68.36,0,0-5.84,18.25-13.5,22.26,0,0-2.55,2.92-6.57.73-4.01-2.19-7.7.81-7.7.81,0,0,.04,2.83.77,3.56,0,0-.36,1.46,1.82-1.82,0,0-4.01,5.11,1.09,8.76,0,0,0-.73,2.55-2.55,0,0-4.38,3.28-.73,8.03,0,0,0,2.95,2.39,1.69.23-.12.49.12.39.37-.66,1.47-1.47,4.37.87,6.71,0,0,4.01,1.82,10.58-4.74,6.57-6.57,4.38-8.76,8.76-11.68,0,0,17.88-15.69,18.97-18.61Z"/>
          <path class="st15" d="M258.9,189.16s.73-9.85-8.03-13.87c-8.76-4.01-11.68.36-11.68.36,0,0-5.84,18.25-13.5,22.26,0,0-2.55,2.92-6.57.73-3.05-1.66-5.91-.33-7.11.41-.38.23-.62.64-.64,1.08-.05,1.07-.08,3.09.45,3.62,0,0,.36,1.09,2.55-2.19,0,0-4.38,4.74.73,8.39,0,0,0-.73,2.55-2.55,0,0-4.38,3.28-.73,8.03,0,0,0,2.95,2.39,1.69.23-.12.49.12.39.37-.66,1.47-1.47,4.37.87,6.71,0,0,4.01,1.82,10.58-4.74,6.57-6.57,4.38-8.76,8.76-11.68,0,0,17.88-15.69,18.97-18.61Z"/>
          <path d="M223.58,200.44s.54-1.22,6.79,2.31c.01-.02-4.5-4.16-6.65-4.24l-.14,1.93Z"/>
          <path class="st43" d="M99.38,131.98s-18.56,19.96-24.76,29.81c0,0-5.11,5.84-2.92,10.58,0,0,6.07,11.43,17.45,22.13,0,0-.3-22.58,18.31-15.42,0,0-7.53-9.6-12.32-13.43-.27-.22-.04-.65.29-.53l4.36,2.87s11.15-9.81,18.82-17.48c0,0-17.14-18.79-19.24-18.54Z"/>
          <g>
            <path class="st25" d="M154.71,196.36c.01.26.02.53.03.82-.01-.27-.02-.54-.03-.82Z"/>
            <path class="st25" d="M154.74,197.19c0,.08,0,.16,0,.23,0-.08,0-.16,0-.23Z"/>
            <path class="st25" d="M154.68,195.6c0,.19.02.4.03.62,0-.21-.02-.41-.03-.62Z"/>
            <path class="st25" d="M154.78,198.03c0,.15.01.3.02.45,0-.14-.01-.3-.02-.45Z"/>
            <path class="st25" d="M154.77,197.89s0,.09,0,.14c0-.05,0-.09,0-.14Z"/>
            <path class="st25" d="M154.79,198.47c.01.33.03.65.04.95-.01-.32-.03-.64-.04-.95Z"/>
            <path class="st25" d="M154.75,197.42c0,.15.01.31.02.47,0-.15-.01-.31-.02-.47Z"/>
            <path class="st25" d="M154.64,194.72c0,.06,0,.12,0,.2,0-.07,0-.13,0-.2Z"/>
            <path class="st25" d="M154.63,194.55c0,.06,0,.11,0,.17,0-.08,0-.13,0-.17Z"/>
            <path class="st25" d="M154.63,194.51s0,.02,0,.04c0-.01,0-.03,0-.04Z"/>
            <path class="st25" d="M154.65,194.92s0,.03,0,.04c0-.01,0-.03,0-.04Z"/>
            <path class="st25" d="M154.66,195.15c0,.15.01.31.02.46,0-.17-.01-.32-.02-.46Z"/>
            <path class="st25" d="M154.65,194.96c0,.06,0,.12,0,.19,0-.06,0-.13,0-.19Z"/>
            <path class="st25" d="M154.7,196.22s0,.09,0,.14c0-.05,0-.09,0-.14Z"/>
            <path class="st25" d="M155.06,204.96c0,.07,0,.13,0,.18,0-.05,0-.11,0-.18Z"/>
            <path class="st25" d="M155.04,204.53c0,.17.01.32.02.44,0-.12-.01-.27-.02-.44Z"/>
            <path class="st25" d="M155.04,204.44s0,.06,0,.09c0-.03,0-.06,0-.09Z"/>
            <path class="st25" d="M155.08,205.41s0,.02,0,0h0Z"/>
            <path class="st25" d="M161.47,155.23c-11.31-.36-18.97-16.06-21.89-19.7-2.92-3.65-4.66-1.44-4.66-1.44-10.14,4.76-18.02,10.01-18.02,10.01-3.78,2.98-6.51,11.87-19.65,20.99l2.55,2.92s18.61-14.6,19.34-17.15c0,0-.11-.38-.28-.95h0s14.69-9.09,14.69-9.09c0,0-5.84,7.3,4.22,18.86,10.06,11.56,9.21,32.16,9.21,32.16l7.65,2.68c-1-24.57-4.84-35.64-4.84-35.64,9.49,1.82,11.68-3.65,11.68-3.65Z"/>
            <path class="st25" d="M155.02,204.11c0,.12,0,.23.01.33,0-.1,0-.21-.01-.33Z"/>
            <path class="st25" d="M155.06,205.14c0,.15,0,.24.01.27,0-.03,0-.13-.01-.27Z"/>
            <path class="st25" d="M154.83,199.43s0,.05,0,.08c0-.03,0-.05,0-.08Z"/>
            <path class="st25" d="M154.91,201.35c.02.45.03.86.05,1.23-.02-.39-.03-.81-.05-1.23Z"/>
            <path class="st25" d="M154.89,200.81c0,.18.01.37.02.54,0-.18-.01-.36-.02-.54Z"/>
            <path class="st25" d="M154.84,199.51c.02.47.04.9.05,1.3-.02-.43-.04-.87-.05-1.3Z"/>
            <path class="st25" d="M154.97,202.9c0,.23.02.44.03.64,0-.2-.02-.41-.03-.64Z"/>
            <path class="st25" d="M154.96,202.59c0,.11,0,.21.01.32,0-.1,0-.21-.01-.32Z"/>
            <path class="st25" d="M155,203.54c0,.2.02.39.02.57,0-.17-.01-.36-.02-.57Z"/>
          </g>
          <path class="st25" d="M89.5,189.09s-14.52-13.07-17.07-20.37c0,0-2.55.73-.73,3.65s9.49,15.69,17.52,22.99c0,0-.52-3.06.29-6.27Z"/>
          <path class="st15" d="M100.18,131.98s-19.35,19.96-25.56,29.82c0,0-5.11,5.84-2.92,10.58,0,0,6.07,11.43,17.45,22.13,0,0-.3-22.58,18.31-15.42,0,0-7.53-9.6-12.32-13.43-.27-.22-.04-.65.29-.53l4.36,2.87s11.93-9.66,19.59-17.32"/>
          <path class="st43" d="M258.9,189.16s10.22-12.41,10.58-16.79c.36-4.38-2.19-9.49-7.3-15.33-5.11-5.84-25.18-25.18-25.18-25.18,0,0-6.55,14.45-14.94,18.83,0,0,16.77,11.82,21.14,16.93,0,0,1.17.29-2.51,5.84-.46.69.17,1.59.98,1.4,4.72-1.1,14.73-1.46,17.22,14.29Z"/>
          <path class="st15" d="M222.06,150.37s16.77,12.16,21.14,17.26c0,0,1.17.29-2.51,5.84-.46.69.17,1.59.98,1.4,4.72-1.1,14.73-1.46,17.22,14.29,0,0,10.22-12.41,10.58-16.79.36-4.38-2.19-9.49-7.3-15.33-5.11-5.84-25.18-25.18-25.18-25.18"/>
          <path d="M243.94,166.9s5.47-5.47,10.58-5.11c0,0-8.76,4.74-11.31,9.12l.73-4.01Z"/>
          <path class="st25" d="M215.84,137.35s11.32,10.33,14.78,11.66-3.64-1.31-3.64-1.31l-.56,4.83-11.48-6.97-1.72,7.26-1.86,4.29-.11,2.16s-1.97.7-3.61,1.25c-1.64.55-4.3-.52-4.43-1.45s10.63-3.66,12.64-21.72Z"/>
          <path class="st25" d="M187.19,255.39c4.01-2.55,20.9-13.5,22.86-17.33,0,0-22.86,18.43-30.16,19.52,0,0-2.55-1.82-2.92,12.41v6.49h.4c1.78,9.59,10.65,57.12,13.21,66.18,0,0-.11-34.23-7.13-65.94,0,0-.27-18.76,3.74-21.32Z"/>
        </g>
        <g>
          <g>
            <polygon class="st35" points="165.37 120.68 164.47 120.61 164.4 121.26 165.3 121.33 165.37 120.68"/>
            <polygon class="st35" points="168.78 125.48 169.64 125.52 169.7 124.87 168.84 124.83 168.78 125.48"/>
            <polygon class="st35" points="167.45 125.43 168.33 125.46 168.39 124.8 167.51 124.76 167.45 125.43"/>
            <path class="st35" d="M176.25,124.91l.49.02c.37.02.66-.07.88-.28.19-.18.3-.4.31-.68l.14-2.37-.86-.06-.14,2.17c-.02.35-.18.51-.48.5l-.31-.02h0s-1.46-.08-1.46-.08c-.21-.01-.37-.06-.48-.16.24-.11.5-.27.78-.51.25-.22.42-.4.5-.54-.58-.43-1.22-.67-1.95-.72-.61-.04-1.23.06-1.86.32l-.05.63c.26.05.52.16.79.32.22.13.38.26.47.38-.25.11-.55.16-.88.14l-1.47-.08h0s-.93-.05-.93-.05c.09-.17.14-.35.16-.56l.1-1.21-.97-.06-.11,1.24c-.03.36-.21.53-.54.51l-.42-.02h-.23s-.92-.06-.92-.06l.18-1.8-1-.07-.15,1.51c-.07.74-.62,1.26-1.41,1.22s-1.25-.59-1.17-1.36l.17-1.53-1.05-.07-.18,1.62c-.13,1.13.84,2.05,2.15,2.1.87.04,1.64-.29,2.09-.87l1.23.06h.23s2.71.15,2.71.15h0s1.49.07,1.49.07c.27.01.55-.01.83-.07.26-.06.47-.14.64-.24.28.27.61.41.98.43l1.65.08h0ZM174.21,123.27c-.16.1-.31.18-.44.22-.14-.16-.27-.27-.38-.35-.11-.08-.26-.16-.46-.25.27-.09.53-.12.79-.1s.53.09.81.23c-.07.08-.17.16-.32.24Z"/>
            <polygon class="st35" points="178.51 125.02 179.36 125.07 179.55 121.71 178.7 121.64 178.51 125.02"/>
            <path class="st35" d="M182.7,126.09l1.06.05.03-.7-1.11-.05c-.55-.03-.82-.23-.8-.61.02-.4.28-.55.85-.52l1.58.09.03-.68-1.27-.08c-.21-.1-.31-.27-.3-.52.01-.32.22-.52.5-.5.22.02.36.12.43.32l.64-.22c-.17-.4-.56-.65-1.04-.69-.7-.05-1.27.4-1.3,1.01,0,.17.03.44.11.62-.63.13-1,.54-1.03,1.13-.04.81.56,1.31,1.62,1.35Z"/>
            <path class="st35" d="M186.32,124.95l.05-1.8-.77-.05-.06,1.87c-.01.44-.28.65-.8.63l-.02.58c.54.02.93-.06,1.18-.24.27-.2.4-.52.42-.98Z"/>
            <polygon class="st35" points="187.71 122.3 186.96 122.25 186.87 125.44 187.63 125.48 187.71 122.3"/>
            <path class="st35" d="M189.6,125.58l.66.03h.16s.87.05.87.05h.08s.87.05.87.05h0s.9.05.9.05c.2.28.52.44.94.46.69.03,1.12-.39,1.12-1.02s-.44-1.08-1.14-1.13-1.12.36-1.12,1.04l-.69-.04h0s-.86-.05-.86-.05h-.08s-1.02-.06-1.02-.06h0s-.62-.03-.62-.03l.03-1.55-.74-.05-.04,1.83c0,.43-.26.64-.75.61v.56c.84.04,1.32-.21,1.45-.75ZM194.03,124.59h.05c.29.02.43.22.43.59,0,.31-.18.51-.45.49-.29-.01-.46-.25-.46-.57s.17-.52.43-.51Z"/>
            <polygon class="st35" points="189.65 122.45 189 122.4 188.99 122.96 189.64 123 189.65 122.45"/>
            <path class="st35" d="M163.31,144.84c-.05-.14-.1-.26-.13-.35-.04-.09-.08-.16-.14-.24-.05-.07-.14-.13-.23-.17-.1-.04-.23-.06-.39-.05s-.29.04-.4.1c-.11.06-.21.13-.28.21-.07.08-.14.19-.21.32-.07.13-.14.24-.18.33l-1.81,3.21c-.08.13-.13.23-.17.31-.03.07-.05.14-.06.21-.01.11.03.21.14.29.1.08.23.11.38.1.18-.02.31-.07.39-.17.09-.09.2-.26.33-.51l.34-.64,2.3-.22.21.56c.03.07.06.15.1.24.04.09.08.16.12.2.04.04.09.07.15.09.06.02.13.03.22.02.15-.02.28-.07.4-.18.12-.1.18-.21.19-.32,0-.1-.03-.26-.12-.48l-1.14-2.87ZM161.26,147.04l1.04-2.01.64,1.86-1.68.15Z"/>
            <path class="st35" d="M165.9,143.79c-.15.01-.27.06-.37.16-.1.09-.16.23-.17.39l-.36,3.72c-.02.17.02.3.11.38.08.08.2.12.35.1.15-.02.28-.07.38-.17.11-.1.16-.23.18-.41l.34-3.7c.02-.17-.02-.3-.1-.37-.08-.08-.2-.11-.35-.1Z"/>
            <path class="st35" d="M171.48,144.21c-.05-.14-.09-.25-.13-.33-.03-.08-.07-.16-.13-.23-.05-.07-.12-.12-.22-.16-.09-.04-.21-.05-.35-.04s-.26.04-.36.1c-.1.05-.18.12-.25.2-.07.08-.13.18-.19.3-.06.12-.12.22-.16.31l-1.57,3.03c-.07.12-.11.22-.14.29-.03.07-.05.13-.06.2,0,.11.04.2.13.28.1.07.21.11.35.09.16-.02.27-.07.35-.15.08-.09.18-.25.29-.48l.29-.6,2.08-.2.2.53c.02.07.06.14.1.23.04.09.08.15.11.19.04.04.08.07.14.09.05.02.12.03.2.02.13-.01.25-.07.36-.17.1-.09.16-.19.17-.3,0-.1-.03-.25-.12-.46l-1.09-2.73ZM169.68,146.28l.9-1.9.62,1.76-1.52.14Z"/>
            <path class="st35" d="M173.72,144.41c-.13.01-.24.06-.33.15-.09.09-.14.21-.15.37l-.16,2.33c-.01.16.02.28.1.36.08.08.18.11.32.1s.25-.07.34-.16c.09-.09.14-.22.15-.38l.16-2.34c0-.14-.03-.25-.1-.33-.08-.07-.19-.11-.32-.09Z"/>
            <path class="st35" d="M174.11,143.33c-.09-.06-.18-.08-.3-.08s-.23.05-.33.13c-.1.08-.15.18-.15.29,0,.13.03.22.11.28.08.06.19.09.31.08s.23-.05.32-.13c.09-.08.14-.18.15-.3s-.03-.22-.11-.28Z"/>
            <path class="st35" d="M177.74,144.61c-.08-.16-.2-.27-.38-.35-.17-.08-.37-.11-.6-.09s-.45.08-.64.18c-.19.1-.37.25-.53.45v-.1c.01-.1,0-.17-.03-.24-.03-.06-.08-.11-.14-.14-.06-.03-.13-.04-.21-.03-.13,0-.23.06-.31.14-.08.08-.12.2-.13.35l-.15,2.33c-.01.16.02.28.1.35.08.08.18.11.31.1.14-.01.25-.07.34-.16.09-.09.14-.22.15-.38l.06-1.01c.02-.33.06-.55.11-.67.07-.15.17-.28.31-.37.14-.1.28-.15.44-.16.24-.02.39.04.46.17.07.13.1.33.09.59l-.08,1.33c0,.16.02.27.1.35.08.08.18.11.31.09s.23-.07.32-.15c.08-.09.13-.21.14-.37l.08-1.47c0-.17,0-.32,0-.43-.01-.11-.04-.21-.09-.3Z"/>
            <path class="st35" d="M182.82,142.73c-.07-.05-.17-.08-.3-.07l-2.08.15c-.13,0-.23.03-.31.07-.08.04-.15.1-.19.18-.04.08-.07.18-.07.3l-.16,3.21c0,.17.03.3.11.38.08.08.19.11.33.1.13-.01.24-.07.33-.16.09-.09.14-.23.15-.4l.06-1.37,1.46-.13c.13-.01.23-.05.3-.11.07-.06.11-.14.11-.23s-.03-.17-.09-.22c-.06-.05-.17-.07-.3-.06l-1.46.12.05-1.05,1.74-.13c.14-.01.24-.05.31-.11.07-.06.1-.14.11-.24s-.03-.17-.09-.22Z"/>
            <path class="st35" d="M185.69,145.44c0-.15.01-.29.02-.41v-.45c.02-.28-.01-.49-.08-.65-.08-.16-.21-.27-.4-.33-.19-.06-.46-.08-.8-.05-.31.02-.57.09-.78.18-.21.1-.37.21-.47.35-.1.13-.16.27-.16.4,0,.09.03.15.09.2.06.05.14.07.23.06.1,0,.16-.03.2-.07.03-.04.08-.11.16-.22.08-.11.17-.2.27-.26.1-.06.26-.1.45-.12.23-.02.38.01.45.1.07.09.11.23.11.42-.16.06-.32.11-.46.16-.14.04-.31.1-.51.15-.2.06-.33.09-.37.11-.24.07-.43.19-.58.35-.14.16-.22.35-.23.55,0,.16.03.3.11.42.08.13.19.22.35.28.15.06.33.08.53.06.22-.02.43-.08.61-.17.18-.09.37-.21.56-.38.08.13.16.23.24.29.08.07.15.09.23.09.1,0,.18-.05.26-.12.08-.07.12-.15.12-.22,0-.04-.02-.14-.06-.29-.05-.15-.06-.29-.06-.43ZM184.94,145.15c0,.26-.05.45-.12.57-.07.11-.17.2-.3.28-.14.08-.28.13-.43.14-.15.01-.27-.01-.35-.09-.09-.07-.13-.17-.13-.28s.05-.2.13-.27c.08-.07.16-.12.25-.15.09-.03.24-.08.46-.14.22-.06.39-.12.5-.17v.11Z"/>
            <path class="st35" d="M188.12,143.38c-.15-.06-.3-.09-.45-.08s-.28.06-.38.15c-.1.08-.19.2-.28.36,0-.15-.03-.26-.08-.33-.05-.07-.14-.1-.27-.09-.25.02-.38.2-.39.53l-.06,2.07c0,.15.03.26.1.33.07.07.16.1.27.09s.2-.06.28-.14c.08-.08.12-.2.12-.35l.02-.62c0-.22.02-.41.04-.57.02-.16.05-.29.09-.41.04-.11.1-.2.17-.27.07-.06.16-.1.27-.11.08,0,.17,0,.28.03.1.02.17.04.2.03.07,0,.14-.04.2-.1.06-.06.1-.14.1-.23,0-.13-.07-.22-.21-.29Z"/>
            <path class="st35" d="M192.15,143.06c-.14-.07-.3-.09-.49-.07-.17.01-.32.06-.45.14-.14.08-.27.2-.39.36-.08-.14-.19-.24-.31-.3-.13-.06-.28-.08-.46-.07s-.33.06-.48.14c-.14.08-.28.2-.41.36v-.07c0-.12-.03-.21-.09-.27-.07-.06-.15-.09-.25-.08s-.19.05-.25.13c-.07.08-.1.18-.1.32l-.05,2.09c0,.15.03.26.1.34.07.07.16.1.27.09s.2-.06.28-.15c.07-.09.11-.2.11-.36l.02-.98c0-.31.05-.54.13-.71.08-.17.24-.26.48-.28.12-.01.21.02.26.07.05.06.08.14.09.24,0,.1.01.24.01.42l-.02,1.15c0,.15.03.26.1.33.07.07.16.1.26.09.11-.01.2-.06.27-.14.07-.08.1-.2.11-.35v-.96c.02-.31.05-.52.1-.65.05-.1.11-.18.2-.24.09-.06.17-.1.27-.11.12,0,.2.01.26.07.06.06.09.13.1.22.01.09.02.21.02.37v1.2c-.01.15.02.26.09.33.07.07.15.1.26.09s.2-.06.27-.14c.07-.08.1-.2.1-.35v-1.38c.01-.27-.01-.47-.07-.59-.07-.14-.17-.24-.31-.3Z"/>
            <path class="st35" d="M194.78,144.05c-.13-.06-.3-.11-.51-.14-.18-.03-.32-.05-.42-.07-.1-.02-.18-.05-.24-.1-.06-.04-.09-.1-.09-.17,0-.08.04-.15.12-.21.08-.06.18-.1.3-.11s.21,0,.28.04c.07.04.13.08.18.15.06.08.12.13.17.17.05.04.11.05.18.05.09,0,.16-.04.22-.1.05-.05.08-.12.08-.2,0-.07-.02-.14-.08-.22-.05-.07-.12-.14-.21-.19-.09-.05-.21-.09-.35-.12-.14-.03-.3-.03-.47-.02-.22.02-.41.07-.57.16-.16.09-.28.2-.37.33-.08.13-.13.27-.13.41,0,.16.04.29.13.39.09.1.21.18.35.23.15.05.34.1.57.14.21.03.36.07.45.12.09.05.14.13.14.26,0,.08-.05.16-.13.23-.09.07-.2.11-.34.13-.17.02-.3,0-.4-.05-.1-.05-.18-.14-.25-.26-.03-.06-.07-.11-.11-.14-.04-.03-.09-.05-.17-.04-.08,0-.15.04-.21.1-.05.06-.08.13-.08.21,0,.12.04.23.13.34.08.11.21.19.39.25.17.06.39.08.63.05.26-.03.47-.08.65-.17.18-.09.31-.21.4-.35.09-.15.14-.32.14-.51,0-.13-.03-.24-.1-.33-.07-.09-.17-.17-.3-.23Z"/>
          </g>
          <path class="st22" d="M187.28,139.63c-1.17.53-2.48.96-3.9,1.26-7.02,1.48-13.62-.87-14.05-5.33-.29-3.02,2.43-5.97,6.46-7.7-5.06,1.62-8.75,5.01-8.42,8.51.41,4.54,7.19,6.9,14.38,5.35,2.1-.45,3.97-1.18,5.52-2.08"/>
          <path class="st35" d="M188.69,130.83l-.9.36c-.08.03-.11.11-.08.18.02.06.11.1.18.07l.9-.36c.07-.03.1-.11.07-.18-.03-.07-.11-.1-.18-.07Z"/>
          <path class="st35" d="M188.03,132.93c-.08,0-.15.05-.17.12-.01.07.05.14.13.15l1.04.11c.08.01.15-.04.17-.12,0-.08-.05-.14-.13-.15l-1.04-.11Z"/>
          <path class="st35" d="M188.08,129.88l-.78.56c-.06.05-.08.13-.03.19.04.06.14.07.2.03l.78-.56c.06-.04.07-.13.03-.19-.05-.06-.14-.07-.2-.03Z"/>
          <path class="st35" d="M189.04,131.91l-.97.13c-.08,0-.14.08-.12.15,0,.08.08.13.16.12l.97-.13c.08-.01.13-.08.12-.15,0-.07-.08-.12-.15-.11Z"/>
          <path class="st35" d="M187.42,129.08c-.07-.04-.15-.03-.2.02l-.6.73c-.05.06-.04.14.02.19.07.04.15.03.2-.02l.6-.73c.05-.06.04-.14-.02-.19Z"/>
          <path class="st35" d="M187.33,138.44c-.58.04-1.71.12-2.9.15l-.02.48c.19-.01.31-.02.31-.02l1.7-.08c.32-.17.62-.34.91-.53Z"/>
          <path class="st35" d="M184.38,139.84c.14-.05.28-.1.42-.15,0,0,0,0,0,0-.13,0-.29,0-.42.01v.14Z"/>
          <path class="st35" d="M186.06,139.15h0c-.43.03-1.07.06-1.66.07v.32c.19-.02.3-.02.3-.02l.58-.02c.27-.11.53-.23.78-.35Z"/>
          <path class="st35" d="M180.46,129.83c-.05.06-.04.15.02.19l.85.6c.07.05.16.03.22-.03.05-.06.04-.15-.02-.2l-.84-.59c-.07-.05-.17-.04-.22.02Z"/>
          <path class="st35" d="M179.74,130.89c-.03.06,0,.13.06.17l1.82.67s.03-.07.05-.11c.68-1.42,2.44-2.07,3.93-1.49,1.46.57,2.14,2.14,1.53,3.53-.01.04-.03.07-.05.11l1.65.62c.06.01.13-.02.15-.09.03-.07,0-.15-.07-.17l-1.25-.47c.58-1.54-.2-3.24-1.81-3.87-1.64-.65-3.59.03-4.41,1.54l-1.38-.51c-.09-.03-.18,0-.22.08Z"/>
          <path class="st35" d="M182.25,129.98c.07-.05.08-.14.03-.2l-.63-.77c-.05-.06-.14-.07-.21-.03-.07.05-.09.13-.04.19l.63.77c.05.06.15.07.21.03Z"/>
          <path class="st35" d="M185.85,129.58c.07.03.16,0,.19-.07l.39-.85c.03-.07,0-.15-.08-.18-.08-.03-.16,0-.19.07l-.39.85c-.03.07,0,.15.08.18Z"/>
          <path class="st35" d="M185.12,129.23l.14-.92c.01-.08-.04-.14-.12-.16-.08-.01-.16.04-.16.12l-.15.93c-.01.07.05.14.12.15.08.01.16-.04.17-.11Z"/>
          <path class="st35" d="M183.09,129.55c.08-.03.12-.11.09-.18l-.38-.88c-.03-.07-.12-.11-.19-.08-.08.03-.12.11-.09.18l.38.89c.03.07.12.1.19.08Z"/>
          <path class="st35" d="M184.02,129.33c.09,0,.14-.08.14-.15l-.12-.93c-.01-.08-.08-.13-.17-.12-.08,0-.14.07-.13.15l.12.93c0,.08.09.13.16.12Z"/>
          <path class="st35" d="M175.73,137.76c-.45-.06-.95-.09-1.45-.11.76.19,1.43.29,1.43.29v-.18Z"/>
          <path class="st35" d="M179.08,137.75c-.86-.26-1.65-.55-2.12-.8-.21-.11-.53-.19-.91-.25h0s-.02.45-.02.45c.39.06.72.15.94.26.46.24,1.24.52,2.09.78l.02-.44Z"/>
          <path class="st35" d="M179.1,137.28c-.86-.27-1.65-.55-2.12-.8-.21-.11-.53-.2-.9-.26l-.02.32c.4.06.75.15.98.28.44.24,1.21.51,2.05.77l.02-.31Z"/>
          <path class="st35" d="M176.67,140.61s.05,0,.08.01c-.03,0-.05,0-.08-.01Z"/>
          <path class="st35" d="M177.1,137.99c.49.12.98.34,1.35.51.19.06.38.12.58.18l.02-.32c-.88-.27-1.69-.55-2.16-.8-.2-.11-.51-.19-.87-.25l-.02.34c.39.06.72.14.95.26.04.02.1.05.15.07,0,0,0,0,0,0Z"/>
          <path class="st35" d="M170.78,132.73s-.02.05-.04.07c.01-.02.02-.05.04-.07Z"/>
          <path class="st35" d="M175.98,137.8v.11c.12-.03.26-.04.41-.03-.13-.03-.26-.06-.41-.08Z"/>
          <path class="st35" d="M170.75,137.08s-.05-.09-.07-.13c.02.04.04.09.07.13Z"/>
          <path class="st35" d="M184.17,139.25c-.69,0-1.39-.04-1.89-.12-.78-.12-1.92-.39-2.98-.7l-.02.32c1.08.32,2.24.59,3.01.71.79.12,1.45.11,1.87.08v-.3Z"/>
          <path class="st35" d="M179.8,137.49c-.15-.04-.3-.09-.45-.13l-.02.31c.15.05.3.09.45.13l.02-.31Z"/>
          <path class="st35" d="M175.76,137.27c-.95-.12-2.17-.13-2.95-.12.26.13.56.24.87.34.66,0,1.41.03,2.06.12l.02-.34Z"/>
          <path class="st35" d="M179.28,138.92h0c.38.45,2.5.69,3.45.9.35.08.63.18.85.28.19-.05.38-.12.57-.17v-.22c-.64,0-1.34-.01-1.89-.1-.78-.11-1.92-.38-2.98-.69Z"/>
          <path class="st35" d="M187.97,138c-.5.02-2.04.13-3.53.14v.32c.08,0,.13,0,.14,0l2.96-.16c.15-.1.29-.2.43-.3Z"/>
          <path class="st35" d="M184.2,138.62c-.75,0-1.49-.03-1.99-.11-.28-.04-.6-.1-.95-.18l-1.5.06.02-.43c-.15-.04-.3-.08-.45-.13l-.02.45c1.08.32,2.23.59,3.01.71.79.12,1.44.13,1.86.11l.02-.48Z"/>
          <path class="st35" d="M184.21,138.16c-.78,0-1.52-.03-1.98-.11-.24-.04-.51-.09-.81-.16v.31c.29.07.58.12.82.16.87.14,1.56.13,1.96.11v-.31Z"/>
          <path class="st35" d="M175.83,136.19c-1.04-.14-2.38-.13-3.08-.12l-.02.33c.7-.01,2.03-.02,3.08.12l.02-.32Z"/>
          <path class="st35" d="M172.68,137c.77-.02,2.07-.01,3.09.12l.03-.45c-1.04-.13-2.39-.12-3.08-.11l-.03.44Z"/>
          <path class="st35" d="M190.69,134.75l-1.71.03-4.28.08-.1.15.02-.73-2.51-1.81-2.3-.03-.4.5-.21-.5-2.58-.02h-4.79s-.93,1.82-.93,1.82l.39-.03-.19,2.35c.46,0,1.16.4,1.26.45h0s.01,0,.01,0l.03-.44h-.16s.01-.14.01-.14c.02,0,.08,0,.16,0l.03-.33h-.16s.01-.14.01-.14c.01,0,.07,0,.16-.01l.02-.22h.31s-.02.21-.02.21c.7,0,2.03-.01,3.08.13v-.17s.26,0,.26,0v.22c.39.06.73.15.96.28.44.23,1.2.51,2.04.77v-.23s.27,0,.27,0l-.02.32c.15.05.3.09.45.13l.07-1.42,1.63-.04-.08,1.88c.3.06.59.12.83.16.87.14,1.56.13,1.96.11v-.25s.24,0,.24,0v.24c.09,0,.14-.02.15-.02l3.56-.14c.17-.13.33-.26.48-.4.61-.53,1.12-1.1,1.51-1.69l-4.31.13-.95-.92,5.76-.11s.03-.08.05-.11ZM175.1,135.58l-1.11.02.04-.47,1.1-.02-.03.47ZM178.83,135.5l-1.05.02.03-.46,1.05-.02-.02.46ZM184.01,134.54l-2.2-1.69-2.07,1.56v.07s-6.74.1-6.74.1l-1.02-2.02,7.09-.02.28.59.61-.54h1.87s2.55,1.82,2.55,1.82l-.37.12ZM187.96,136.45l.84-.03v.46s-.14,0-.14,0l-.54.02h-.17s.01-.45.01-.45ZM186.15,136.5l.86-.03v.46s-.57.02-.57.02h-.2s-.11.01-.11.01v-.47Z"/>
          <path class="st10" d="M191.07,132.2c.54,3.42-3.17,7.1-8.69,8.26-6.01,1.26-11.68-.94-12.13-4.96-.45-3.96,4.39-7.69,10.31-8.33,5.45-.59,9.98,1.66,10.51,5.03Z"/>
        </g>
        <path class="st11" d="M133.15,34.43s3.62,12.88,13.63,23.18c0,0,9.37,11.89,19.6,3.38,0,0,8.49-4.27,8.77-6.02,0,0,1.78,4.23,5.9,8.43,4.13,4.2,9.88,4.27,14.33.02,0,0,11.14-8.99,15.15-19.25,0,0-4.1,4.44-6.94,5.3,0,0,8.46-10.95,9.91-24.75,0,0-7.41,7.95-13.07,9.19-3.91.86-16.02,3.41-21.83,8.55-5.8,5.15-13.24-3.19-13.24-3.19,0,0-7.7-6.71-15.73-8.88-8.03-2.17-17.16-12.93-17.16-12.93,0,0,.44,8.91,6.44,22.63,0,0-3.49-.13-5.76-5.65ZM178.98,53.05c4.01-9.12,11.31-6.2,12.7-4.21,1.38,1.99-.29,3.48-.29,3.48-2.19,3.28-5.84,3.28-9.49,2.92-3.65-.36-2.92-2.19-2.92-2.19ZM157.44,54.14c-7.26-.26-6.92-4.38-6.91-4.67.01-.3.72-4.81,7.11-3.58,6.39,1.23,6.38,6.8,6.38,6.8-1.47.67-3.95,1.15-5.15,1.35-.47.08-.95.11-1.43.1Z"/>
        <path class="st9" d="M200.42,33.91c-3.91.86-16.02,3.41-21.83,8.55-5.8,5.15-13.24-3.19-13.24-3.19,0,0-7.7-6.71-15.73-8.88-8.03-2.17-17.16-12.93-17.16-12.93,0,0,.44,8.91,6.44,22.63,0,0-3.49-.13-5.76-5.65,0,0,3.62,12.88,13.63,23.18,0,0,9.37,11.89,19.6,3.38,0,0,8.49-4.27,8.77-6.02,0,0,1.78,4.23,5.9,8.43,4.13,4.2,9.88,4.27,14.33.02,0,0,11.14-8.99,15.15-19.25,0,0-4.1,4.44-6.94,5.3,0,0,8.46-10.95,9.91-24.75,0,0-7.41,7.95-13.07,9.19Z"/>
        <path class="st20" d="M164.75,46.08s-4.36-6.2-11.01-6.6l-9.09-1.07s-.11,7.57,3.19,14.38c0,0,2.21,4.48,4.76,6.61,0,0-4.75-9.93-6.27-18.93,0,0,11.49-.52,18.41,5.61Z"/>
        <path class="st20" d="M180.15,47.4s3.02-4.98,7.91-3.86c0,0,8.07,1.41,8.95,1,0,0-.52,9.71-4.85,15.08,0,0,1.38-9,3.38-14.1,0,0-9.49-2.58-15.39,1.88Z"/>
      </g>
    </g>
  </g>
</svg>