<?xml version="1.0" encoding="UTF-8"?>
<svg id="Layer_1" xmlns="http://www.w3.org/2000/svg" version="1.1" viewBox="0 0 940.11 342.51">
  <!-- Generator: Adobe Illustrator 29.7.1, SVG Export Plug-In . SVG Version: 2.1.1 Build 8)  -->
  <defs>
    <style>
      .st0, .st1 {
        fill: #f9ddd9;
      }

      .st0, .st1, .st2 {
        stroke: #020202;
        stroke-miterlimit: 10;
      }

      .st1 {
        stroke-width: 2px;
      }

      .st2 {
        fill: #d92726;
        stroke-width: 27.71px;
      }
    </style>
  </defs>
  <path class="st2" d="M389.84,14.9H84.2c-27.35,0-49.52,21.7-49.52,48.47v170.38c0,26.77,5.75,48.47,33.1,48.47h806.95c27.35,0,49.52-21.7,49.52-48.47V63.37c0-26.77-22.17-48.47-49.52-48.47h-484.88Z"/>
  <g>
    <path class="st1" d="M4.31,286.09c11.41.38,22.66.76,34.11,1.14-.31.54-.53.96-.79,1.35-1.99,3.03-3.95,6.07-5.98,9.07-5.38,7.94-10.79,15.86-16.18,23.79-.62.92-1.2,1.86-1.79,2.77.71,1.04,13.84,10.82,16.2,12.07,8.03-12.22,16.08-24.45,24.24-36.86,3.09,4.79,5.79,9.62,8.67,14.34,2.88,4.7,5.71,9.44,8.73,14.44.16-.61.27-.92.33-1.25,1.72-10.86,3.44-21.72,5.16-32.58,3.03-19.16,6.05-38.31,9.07-57.47.58-3.66,1.14-7.32,1.71-10.99.04-.27.05-.54.09-.98-.41.2-.71.29-.96.46-1.9,1.31-3.81,2.6-5.67,3.96-13.68,10.03-27.36,20.06-41.03,30.11-9.95,7.32-19.89,14.65-29.84,21.98-1.89,1.39-3.78,2.78-5.66,4.18-.12.09-.2.22-.41.47Z"/>
    <path class="st0" d="M61.88,208.36c-.13.68.03,1.38.48,2.02,2.53,3.55,5.05,7.1,7.59,10.64.72,1,1.67,1.56,2.97,1.32,1.33-.24,2.04-1.13,2.45-2.33.29-.86.05-1.61-.46-2.32-.86-1.2-1.72-2.41-2.58-3.61-1.34-1.87-2.67-3.75-4.02-5.61-.46-.63-.93-1.26-1.44-1.84-.79-.9-1.8-1.09-2.92-.74-1.13.36-1.88,1.25-2.07,2.47Z"/>
    <path class="st0" d="M92.31,221.89c-.22,1.31.44,2.65,1.59,3.34,1.13.67,2.19.49,3.21-.28,2.1-1.59,4.19-3.18,6.3-4.75,1.28-.96,2.58-1.9,3.88-2.84.65-.47,1.17-1.03,1.31-1.86.2-1.19-.04-2.22-1.06-2.95-1.01-.72-2.1-.92-3.24-.28-.5.28-.98.61-1.44.95-3.05,2.24-6.08,4.49-9.13,6.74-.72.53-1.3,1.14-1.42,1.95Z"/>
    <path class="st0" d="M99.45,258.97c1.01.07,1.95-.31,2.64-1.26.68-.92.77-1.89.27-2.9-.18-.37-.41-.72-.65-1.05-2.26-3.14-4.53-6.27-6.8-9.4-.27-.37-.54-.73-.86-1.05-1.05-1.04-2.54-1.14-3.71-.27-1.18.88-1.47,2.14-.81,3.5.13.26.28.51.44.74,2.35,3.38,4.71,6.75,7.05,10.14.57.82,1.27,1.4,2.42,1.56Z"/>
    <path class="st0" d="M59.56,231.83c2.07.31,4.15.61,6.22.94,1.24.2,2.17-.27,2.89-1.23,1.15-1.55.51-3.7-1.32-4.33-.46-.16-.95-.25-1.44-.32-3.94-.61-7.88-1.22-11.82-1.81-1.66-.25-3.22.83-3.51,2.37-.27,1.45.92,3.14,2.52,3.42,2.14.38,4.3.66,6.46.99,0,0,0-.01,0-.02Z"/>
    <path class="st0" d="M82.41,210.01c-.31,2.03-.52,4.09-.95,6.09-.35,1.64,1.2,3.13,2.41,3.34,1.56.27,2.99-.6,3.41-2.13.08-.28.12-.56.17-.85.59-3.82,1.18-7.64,1.75-11.46.21-1.41-.28-2.42-1.46-3.11-1.13-.67-2.21-.46-3.24.23-.69.45-1.08,1.08-1.19,1.92-.27,2-.59,3.99-.89,5.98h0Z"/>
    <path class="st0" d="M104.82,232.78c-2.08-.31-4.15-.61-6.22-.94-1.02-.16-1.87.11-2.57.86-1.5,1.63-.84,4.08,1.29,4.76.31.1.64.18.96.23,3.95.6,7.89,1.21,11.84,1.8,1.53.23,2.52-.25,3.19-1.51.59-1.09.37-2.43-.52-3.42-.5-.56-1.15-.77-1.86-.87-2.03-.31-4.07-.61-6.1-.92v.03Z"/>
  </g>
</svg>