<?xml version="1.0" encoding="UTF-8"?>
<svg id="Layer_1" xmlns="http://www.w3.org/2000/svg" version="1.1" viewBox="0 0 940.11 342.51">
  <!-- Generator: Adobe Illustrator 29.7.1, SVG Export Plug-In . SVG Version: 2.1.1 Build 8)  -->
  <defs>
    <style>
      .st0, .st1 {
        fill: #f9ddd9;
      }

      .st0, .st1, .st2 {
        stroke: #020202;
        stroke-miterlimit: 10;
      }

      .st1 {
        stroke-width: 2px;
      }

      .st2 {
        fill: #d92726;
        stroke-width: 27.71px;
      }
    </style>
  </defs>
  <path class="st2" d="M549.71,14.9H64.83c-27.35,0-49.52,21.7-49.52,48.47v170.38c0,26.77,22.17,48.47,49.52,48.47h806.95c27.35,0,33.1-21.7,33.1-48.47V63.37c0-26.77-22.17-48.47-49.52-48.47h-305.64s0,0,0,0Z"/>
  <g>
    <path class="st1" d="M935.25,286.09c-.21-.25-.29-.38-.41-.47-1.88-1.4-3.77-2.79-5.66-4.18-9.95-7.33-19.89-14.66-29.84-21.98-13.67-10.05-27.35-20.08-41.03-30.11-1.86-1.36-3.77-2.65-5.67-3.96-.25-.17-.55-.26-.96-.46.04.44.05.71.09.98.57,3.67,1.13,7.33,1.71,10.99,3.02,19.16,6.04,38.31,9.07,57.47,1.72,10.86,3.44,21.72,5.16,32.58.06.33.17.64.33,1.25,3.02-5,5.85-9.74,8.73-14.44,2.88-4.72,5.58-9.55,8.67-14.34,8.16,12.41,16.21,24.64,24.24,36.86,2.36-1.25,15.49-11.03,16.2-12.07-.59-.91-1.17-1.85-1.79-2.77-5.39-7.93-10.8-15.85-16.18-23.79-2.03-3-3.99-6.04-5.98-9.07-.26-.39-.48-.81-.79-1.35,11.45-.38,22.7-.76,34.11-1.14h0Z"/>
    <path class="st0" d="M875.61,205.89c-1.12-.35-2.13-.16-2.92.74-.51.58-.98,1.21-1.44,1.84-1.35,1.86-2.68,3.74-4.02,5.61-.86,1.2-1.72,2.41-2.58,3.61-.51.71-.75,1.46-.46,2.32.41,1.2,1.12,2.09,2.45,2.33,1.3.24,2.25-.32,2.97-1.32,2.54-3.54,5.06-7.09,7.59-10.64.45-.64.61-1.34.48-2.02-.19-1.22-.94-2.11-2.07-2.47Z"/>
    <path class="st0" d="M847.25,221.91c-.12-.81-.7-1.42-1.42-1.95-3.05-2.25-6.08-4.5-9.13-6.74-.46-.34-.94-.67-1.44-.95-1.14-.64-2.23-.44-3.24.28-1.02.73-1.26,1.76-1.06,2.95.14.83.66,1.39,1.31,1.86,1.3.94,2.6,1.88,3.88,2.84,2.11,1.57,4.2,3.16,6.3,4.75,1.02.77,2.08.95,3.21.28,1.15-.69,1.81-2.03,1.59-3.34v.02Z"/>
    <path class="st0" d="M840.12,258.98c1.15-.16,1.85-.74,2.42-1.56,2.34-3.39,4.7-6.76,7.05-10.14.16-.23.31-.48.44-.74.66-1.36.37-2.62-.81-3.5-1.17-.87-2.66-.77-3.71.27-.32.32-.59.68-.86,1.05-2.27,3.13-4.54,6.26-6.8,9.4-.24.33-.47.68-.65,1.05-.5,1.01-.41,1.98.27,2.9.69.95,1.63,1.33,2.64,1.26h.01Z"/>
    <path class="st0" d="M880,231.84v.02c2.16-.33,4.32-.61,6.46-.99,1.6-.28,2.79-1.97,2.52-3.42-.29-1.54-1.85-2.62-3.51-2.37-3.94.59-7.88,1.2-11.82,1.81-.49.07-.98.16-1.44.32-1.83.63-2.47,2.78-1.32,4.33.72.96,1.65,1.43,2.89,1.23,2.07-.33,4.15-.63,6.22-.94h0Z"/>
    <path class="st0" d="M857.14,210.02h0c-.3-1.99-.62-3.98-.89-5.98-.11-.84-.5-1.47-1.19-1.92-1.03-.69-2.11-.9-3.24-.23-1.18.69-1.67,1.7-1.46,3.11.57,3.82,1.16,7.64,1.75,11.46.05.29.09.57.17.85.42,1.53,1.85,2.4,3.41,2.13,1.21-.21,2.76-1.7,2.41-3.34-.43-2-.64-4.06-.95-6.09h-.01Z"/>
    <path class="st0" d="M834.73,232.8v-.03c-2.03.31-4.07.61-6.1.92-.71.1-1.36.31-1.86.87-.89.99-1.11,2.33-.52,3.42.67,1.26,1.66,1.74,3.19,1.51,3.95-.59,7.89-1.2,11.84-1.8.32-.05.65-.13.96-.23,2.13-.68,2.79-3.13,1.29-4.76-.7-.75-1.55-1.02-2.57-.86-2.07.33-4.14.63-6.22.94v.02Z"/>
  </g>
</svg>