<?xml version="1.0" encoding="UTF-8"?>
<svg id="Layer_1" xmlns="http://www.w3.org/2000/svg" version="1.1" viewBox="0 0 784.8 350.74">
  <!-- Generator: Adobe Illustrator 29.7.1, SVG Export Plug-In . SVG Version: 2.1.1 Build 8)  -->
  <defs>
    <style>
      .st0 {
        fill: #94d9f7;
      }

      .st1 {
        fill: #933468;
      }

      .st2 {
        fill: #743fb2;
      }

      .st3 {
        display: none;
      }
    </style>
  </defs>
  <g class="st3">
    <g>
      <path d="M84.71,7.97c-.8.78-1.2,1.88-1.14,2.96l14.53,153.11-13.76-3.04c-.52-.12-1.04-.11-1.54-.02-.27,0-.54-.05-.81,0-.27,0-.54-.05-.81,0-.27,0-.54-.05-.81,0-.27,0-.54-.05-.81,0-.27,0-.55-.05-.81,0-.27,0-.54-.05-.81,0-.27,0-.54-.05-.81,0-.27,0-.54-.05-.81,0-.27,0-.54-.05-.81,0-.27,0-.54-.05-.81,0-.27,0-.54-.05-.81,0-.27,0-.54-.05-.81,0-.27,0-.54-.05-.81,0-.27,0-.54-.05-.81,0-.27,0-.54-.05-.81,0-.27,0-.55-.05-.81,0-.27,0-.55-.05-.81,0-.27,0-.54-.05-.81,0-.27,0-.55-.05-.81,0-.27,0-.54-.05-.81,0-1.73-.05-3.33.95-3.86,2.62l-7.73,24.2-17.4-9.34c-.69-.37-1.46-.44-2.23-.37-.27-.03-.53-.02-.81,0-.27-.03-.53-.02-.81,0-.27-.03-.53-.02-.81,0-.27-.03-.53-.02-.81,0-.27-.03-.53-.02-.81,0-.27-.03-.53-.02-.81,0-.27-.03-.53-.02-.81,0-.27-.03-.53-.02-.81,0-.27-.03-.53-.02-.81,0-.27-.03-.53-.02-.81,0-.28-.03-.53-.02-.81,0-.28-.03-.53-.02-.81,0-.27-.03-.53-.02-.81,0-.28-.03-.53-.02-.81,0-.27-.03-.53-.02-.81,0-.27-.03-.53-.02-.81,0-.28-.03-.53-.02-.81,0-.27-.03-.53-.02-.81,0-.27-.03-.53-.02-.81,0-.27-.03-.53-.02-.81,0-.73-.09-1.47-.04-2.16.29-1.14.54-1.94,1.58-2.15,2.8l-7.6,43.55-59.56,1.08c-1.85.03-3.42,1.33-3.77,3.11-.05.24-.07.48-.07.71,0,1.52.93,2.93,2.41,3.53l83.73,34.15c.63.26,1.29.29,1.95.21.27.03.53.03.81,0,.27.03.53.03.81,0,.27.03.53.03.81,0,.27.03.53.03.81,0,.27.03.53.03.81,0,.27.03.53.03.81,0,.27.03.53.03.81,0,.27.03.53.03.81,0,.27.03.53.03.81,0,.27.03.53.03.81,0,.28.03.53.03.81,0,.27.03.53.03.81,0,.27.03.53.03.81,0,.27.03.53.03.81,0,.27.03.53.03.81,0,.27.03.53.03.81,0,.27.03.53.03.81,0,.27.03.53.03.81,0,.27.03.53.03.81,0,.27.03.53.03.81,0,.69.06,1.39.01,2.03-.29,1-.46,1.75-1.32,2.07-2.36l5.09-16.61,5.33,4.7c.91.8,2.16,1.14,3.36.91.02,0,.04-.02.06-.03.25,0,.49.08.74.03.02,0,.04-.02.06-.03.25,0,.49.08.74.03.02,0,.04-.02.06-.03.25,0,.49.08.74.03.02,0,.04-.02.06-.03.25,0,.49.08.74.03.02,0,.04-.02.06-.03.25,0,.49.08.74.03.02,0,.04-.02.06-.03.25,0,.49.08.74.03.02,0,.04-.02.06-.03.25,0,.49.08.74.03.02,0,.04-.02.06-.03.25,0,.49.08.74.03.02,0,.04-.02.06-.03.25,0,.49.08.74.03.02,0,.04-.02.06-.03.25,0,.49.08.74.03.02,0,.04-.02.06-.03.25,0,.49.08.74.03.02,0,.04-.02.06-.03.25,0,.49.08.74.03.02,0,.04-.02.06-.03.25,0,.49.08.74.03.02,0,.04-.02.06-.03.25,0,.49.08.74.03.02,0,.04-.02.06-.03.25,0,.49.08.74.03.02,0,.04-.02.06-.03.25,0,.49.08.74.03.02,0,.04-.02.06-.03.25,0,.49.08.74.03.02,0,.04-.02.06-.03.25,0,.49.08.74.03.02,0,.04-.02.06-.03.25,0,.49.08.74.03.02,0,.04-.02.06-.03.25,0,.49.08.74.03.02,0,.04-.02.06-.03.25,0,.49.08.74.03,1.21-.23,2.23-1,2.77-2.09l14.22-28.64,3.55,2.01,14.88,114.23c.14,1.06.72,2.01,1.6,2.63s1.99.85,3.05.64h.02c.26,0,.52.05.79,0h.02c.26,0,.52.05.79,0h.02c.26,0,.52.05.79,0h.02c.26,0,.52.05.79,0h.02c.26,0,.52.05.79,0h.02c.26,0,.52.05.79,0h.02c.26,0,.53.05.79,0h.02c.26,0,.52.05.79,0h.02c.26,0,.52.05.79,0h.02c.26,0,.52.05.79,0h.02c.26,0,.52.05.79,0h.02c.26,0,.52.05.79,0h.02c.26,0,.52.05.79,0h.02c.26,0,.52.05.79,0h.02c.26,0,.52.05.79,0h.02c.26,0,.52.05.79,0h.02c.26,0,.52.05.79,0h.02c.26,0,.52.05.79,0h.02c.26,0,.53.05.79,0h.02c.26,0,.52.05.79,0h.02c.26,0,.53.05.79,0l615.62-39.84c1.74-.34,3.02-1.79,3.12-3.53l19.77-271.29c.09-2.02-1.5-3.89-3.64-4.04L104.68,6.87c-.09,0-.17.04-.26.04l-.55-.04c-.09,0-.17.04-.26.04l-.55-.04c-.09,0-.17.04-.26.04l-.55-.04c-.09,0-.17.04-.26.04l-.55-.04c-.09,0-.17.04-.26.04l-.55-.04c-.09,0-.17.04-.26.04l-.55-.04c-.09,0-.17.04-.26.04l-.55-.04c-.09,0-.17.04-.26.04l-.55-.04c-.09,0-.17.04-.26.04l-.55-.04c-.09,0-.17.04-.26.04l-.55-.04c-.09,0-.17.04-.26.04l-.55-.04c-.09,0-.17.04-.26.04l-.55-.04c-.09,0-.17.04-.26.04l-.55-.04c-.09,0-.17.04-.26.04l-.55-.04c-.09,0-.17.04-.26.04l-.55-.04c-.09,0-.17.04-.26.04l-.55-.04c-.09,0-.17.04-.26.04l-.55-.04c-.09,0-.17.04-.26.04l-.55-.04c-.09,0-.17.04-.26.04l-.55-.04c-.09,0-.17.04-.26.04l-.55-.04c-.09,0-.17.04-.26.04l-.55-.04c-1.13-.08-2.23.33-3.03,1.11h.07Z"/>
      <path class="st2" d="M123.44,172.46c.08,1.2-.43,2.37-1.36,3.16-.94.78-2.2,1.09-3.4.82l-32.53-7.19-10.56,33.06c-.35,1.1-1.18,1.98-2.27,2.41-1.09.43-2.31.36-3.34-.19l-31.24-16.77-7.22,41.37c-.31,1.81-1.9,3.15-3.78,3.18l-44.15.8,62.51,25.49,9.22-30.08c.39-1.26,1.4-2.23,2.69-2.59,1.29-.36,2.67-.04,3.67.84l19.4,17.08,17.5-35.26c.47-.96,1.33-1.68,2.37-1.99,1.04-.31,2.16-.19,3.1.35l22.09,12.52c1.05.6,1.76,1.64,1.92,2.83l14.59,112.02,608.54-38.43,19.37-264.57L108.61,14.8l14.83,157.66Z"/>
      <path d="M100.52,10.93l14.78,156.91-30.95-6.84c-1.99-.44-3.99.69-4.59,2.59l-10.21,31.96-31.87-17.11c-1.11-.59-2.44-.63-3.58-.09-1.14.54-1.94,1.58-2.15,2.8l-7.6,43.55-59.56,1.08c-1.85.03-3.42,1.33-3.77,3.11-.05.24-.07.48-.07.71,0,1.52.93,2.93,2.41,3.53l83.73,34.15c1.02.42,2.18.39,3.18-.07,1-.46,1.75-1.32,2.07-2.36l8.69-28.36,18.67,16.45c.91.8,2.16,1.14,3.36.91,1.21-.23,2.23-1,2.77-2.09l17.94-36.14,16.78,9.51,14.88,114.23c.14,1.06.72,2.01,1.6,2.63s1.99.85,3.05.64l615.62-39.84c1.74-.34,3.02-1.79,3.12-3.53l19.77-271.29c.09-2.02-1.5-3.89-3.64-4.04L104.68,6.87c-1.13-.08-2.23.33-3.03,1.11-.8.78-1.2,1.88-1.14,2.96h0ZM751.19,295.9l-608.54,38.43-14.59-112.02c-.16-1.18-.87-2.23-1.92-2.83l-22.09-12.52c-.94-.53-2.07-.66-3.1-.35-1.04.31-1.9,1.03-2.37,1.99l-17.5,35.26-19.4-17.08c-1-.88-2.38-1.2-3.67-.84-1.29.36-2.31,1.33-2.69,2.59l-9.22,30.08-62.51-25.49,44.15-.8c1.88-.03,3.47-1.37,3.78-3.18l7.22-41.37,31.24,16.77c1.03.55,2.25.62,3.34.19s1.92-1.31,2.27-2.41l10.56-33.06,32.53,7.19c1.2.27,2.46-.04,3.4-.82.94-.78,1.44-1.96,1.36-3.16L108.61,14.8l661.96,16.52-19.37,264.57h-.01Z"/>
    </g>
  </g>
  <g class="st3">
    <g>
      <path d="M76.68,7.75c-.8.78-1.2,1.88-1.14,2.96l14.53,153.11-13.76-3.04c-.52-.12-1.04-.11-1.54-.02-.27,0-.54-.05-.81,0-.27,0-.54-.05-.81,0-.27,0-.54-.05-.81,0-.27,0-.54-.05-.81,0-.27,0-.55-.05-.81,0-.27,0-.54-.05-.81,0-.27,0-.54-.05-.81,0-.27,0-.54-.05-.81,0-.27,0-.54-.05-.81,0-.27,0-.54-.05-.81,0-.27,0-.54-.05-.81,0-.27,0-.54-.05-.81,0-.27,0-.54-.05-.81,0-.27,0-.54-.05-.81,0-.27,0-.54-.05-.81,0-.27,0-.55-.05-.81,0-.27,0-.55-.05-.81,0-.27,0-.54-.05-.81,0-.27,0-.55-.05-.81,0-.27,0-.54-.05-.81,0-1.73-.05-3.33.95-3.86,2.62l-7.73,24.2-17.4-9.34c-.69-.37-1.46-.44-2.23-.37-.27-.03-.53-.02-.81,0-.27-.03-.53-.02-.81,0-.27-.03-.53-.02-.81,0-.27-.03-.53-.02-.81,0-.27-.03-.53-.02-.81,0-.27-.03-.53-.02-.81,0-.27-.03-.53-.02-.81,0-.27-.03-.53-.02-.81,0-.27-.03-.53-.02-.81,0-.27-.03-.53-.02-.81,0-.28-.03-.53-.02-.81,0-.28-.03-.53-.02-.81,0-.27-.03-.53-.02-.81,0-.28-.03-.53-.02-.81,0-.27-.03-.53-.02-.81,0-.27-.03-.53-.02-.81,0-.28-.03-.53-.02-.81,0-.27-.03-.53-.02-.81,0-.27-.03-.53-.02-.81,0-.27-.03-.53-.02-.81,0-.73-.09-1.47-.04-2.16.29-1.14.54-1.94,1.58-2.15,2.8L-.62,224.49l-59.56,1.08c-1.85.03-3.42,1.33-3.77,3.11-.05.24-.07.48-.07.71,0,1.52.93,2.93,2.41,3.53l83.73,34.15c.63.26,1.29.29,1.95.21.27.03.53.03.81,0,.27.03.53.03.81,0,.27.03.53.03.81,0,.27.03.53.03.81,0,.27.03.53.03.81,0,.27.03.53.03.81,0,.27.03.53.03.81,0,.27.03.53.03.81,0,.27.03.53.03.81,0,.27.03.53.03.81,0,.28.03.53.03.81,0,.27.03.53.03.81,0,.27.03.53.03.81,0,.27.03.53.03.81,0,.27.03.53.03.81,0,.27.03.53.03.81,0,.27.03.53.03.81,0,.27.03.53.03.81,0,.27.03.53.03.81,0,.27.03.53.03.81,0,.69.06,1.39.01,2.03-.29,1-.46,1.75-1.32,2.07-2.36l5.09-16.61,5.33,4.7c.91.8,2.16,1.14,3.36.91.02,0,.04-.02.06-.03.25,0,.49.08.74.03.02,0,.04-.02.06-.03.25,0,.49.08.74.03.02,0,.04-.02.06-.03.25,0,.49.08.74.03.02,0,.04-.02.06-.03.25,0,.49.08.74.03.02,0,.04-.02.06-.03.25,0,.49.08.74.03.02,0,.04-.02.06-.03.25,0,.49.08.74.03.02,0,.04-.02.06-.03.25,0,.49.08.74.03.02,0,.04-.02.06-.03.25,0,.49.08.74.03.02,0,.04-.02.06-.03.25,0,.49.08.74.03.02,0,.04-.02.06-.03.25,0,.49.08.74.03.02,0,.04-.02.06-.03.25,0,.49.08.74.03.02,0,.04-.02.06-.03.25,0,.49.08.74.03.02,0,.04-.02.06-.03.25,0,.49.08.74.03.02,0,.04-.02.06-.03.25,0,.49.08.74.03.02,0,.04-.02.06-.03.25,0,.49.08.74.03.02,0,.04-.02.06-.03.25,0,.49.08.74.03.02,0,.04-.02.06-.03.25,0,.49.08.74.03.02,0,.04-.02.06-.03.25,0,.49.08.74.03.02,0,.04-.02.06-.03.25,0,.49.08.74.03.02,0,.04-.02.06-.03.25,0,.49.08.74.03.02,0,.04-.02.06-.03.25,0,.49.08.74.03,1.21-.23,2.23-1,2.77-2.09l14.22-28.64,3.55,2.01,14.88,114.23c.14,1.06.72,2.01,1.6,2.63s1.99.85,3.05.64h.02c.26,0,.52.05.79,0h.02c.26,0,.52.05.79,0h.02c.26,0,.52.05.79,0h.02c.26,0,.52.05.79,0h.02c.26,0,.52.05.79,0h.02c.26,0,.52.05.79,0h.02c.26,0,.53.05.79,0h.02c.26,0,.52.05.79,0h.02c.26,0,.52.05.79,0h.02c.26,0,.52.05.79,0h.02c.26,0,.52.05.79,0h.02c.26,0,.52.05.79,0h.02c.26,0,.52.05.79,0h.02c.26,0,.52.05.79,0h.02c.26,0,.52.05.79,0h.02c.26,0,.52.05.79,0h.02c.26,0,.52.05.79,0h.02c.26,0,.52.05.79,0h.02c.26,0,.53.05.79,0h.02c.26,0,.52.05.79,0h.02c.26,0,.53.05.79,0l615.62-39.84c1.74-.34,3.02-1.79,3.12-3.53l19.77-271.29c.09-2.02-1.5-3.89-3.64-4.04L96.65,6.64c-.09,0-.17.04-.26.04l-.55-.04c-.09,0-.17.04-.26.04l-.55-.04c-.09,0-.17.04-.26.04l-.55-.04c-.09,0-.17.04-.26.04l-.55-.04c-.09,0-.17.04-.26.04l-.55-.04c-.09,0-.17.04-.26.04l-.55-.04c-.09,0-.17.04-.26.04l-.55-.04c-.09,0-.17.04-.26.04l-.55-.04c-.09,0-.17.04-.26.04l-.55-.04c-.09,0-.17.04-.26.04l-.55-.04c-.09,0-.17.04-.26.04l-.55-.04c-.09,0-.17.04-.26.04l-.55-.04c-.09,0-.17.04-.26.04l-.55-.04c-.09,0-.17.04-.26.04l-.55-.04c-.09,0-.17.04-.26.04l-.55-.04c-.09,0-.17.04-.26.04l-.55-.04c-.09,0-.17.04-.26.04l-.55-.04c-.09,0-.17.04-.26.04l-.55-.04c-.09,0-.17.04-.26.04l-.55-.04c-.09,0-.17.04-.26.04l-.55-.04c-.09,0-.17.04-.26.04l-.55-.04c-1.13-.08-2.23.33-3.03,1.11h.07Z"/>
      <path class="st0" d="M115.41,172.23c.08,1.2-.43,2.37-1.36,3.16-.94.78-2.2,1.09-3.4.82l-32.53-7.19-10.56,33.06c-.35,1.1-1.18,1.98-2.27,2.41-1.09.43-2.31.36-3.34-.19l-31.24-16.77-7.22,41.37c-.31,1.81-1.9,3.15-3.78,3.18l-44.15.8,62.51,25.49,9.22-30.08c.39-1.26,1.4-2.23,2.69-2.59,1.29-.36,2.67-.04,3.67.84l19.4,17.08,17.5-35.26c.47-.96,1.33-1.68,2.37-1.99,1.04-.31,2.16-.19,3.1.35l22.09,12.52c1.05.6,1.76,1.64,1.92,2.83l14.59,112.02,608.54-38.43,19.37-264.57L100.58,14.58l14.83,157.66h0Z"/>
      <path d="M92.48,10.71l14.78,156.91-30.95-6.84c-1.99-.44-3.99.69-4.59,2.59l-10.21,31.96-31.87-17.11c-1.11-.59-2.44-.63-3.58-.09-1.14.54-1.94,1.58-2.15,2.8l-7.6,43.55-59.56,1.08c-1.85.03-3.42,1.33-3.77,3.11-.05.24-.07.48-.07.71,0,1.52.93,2.93,2.41,3.53l83.73,34.15c1.02.42,2.18.39,3.18-.07,1-.46,1.75-1.32,2.07-2.36l8.69-28.36,18.67,16.45c.91.8,2.16,1.14,3.36.91,1.21-.23,2.23-1,2.77-2.09l17.94-36.14,16.78,9.51,14.88,114.23c.14,1.06.72,2.01,1.6,2.63s1.99.85,3.05.64l615.62-39.84c1.74-.34,3.02-1.79,3.12-3.53l19.77-271.29c.09-2.02-1.5-3.89-3.64-4.04L96.65,6.64c-1.13-.08-2.23.33-3.03,1.11-.8.78-1.2,1.88-1.14,2.96ZM743.16,295.67l-608.54,38.43-14.59-112.02c-.16-1.18-.87-2.23-1.92-2.83l-22.09-12.52c-.94-.53-2.07-.66-3.1-.35-1.04.31-1.9,1.03-2.37,1.99l-17.5,35.26-19.4-17.08c-1-.88-2.38-1.2-3.67-.84-1.29.36-2.31,1.33-2.69,2.59l-9.22,30.08-62.51-25.49,44.15-.8c1.88-.03,3.47-1.37,3.78-3.18l7.22-41.37,31.24,16.77c1.03.55,2.25.62,3.34.19s1.92-1.31,2.27-2.41l10.56-33.06,32.53,7.19c1.2.27,2.46-.04,3.4-.82.94-.78,1.44-1.96,1.36-3.16L100.58,14.58l661.96,16.52-19.37,264.57h-.01Z"/>
    </g>
  </g>
  <g class="st3">
    <path d="M76.68,8.55c-.8.78-1.2,1.88-1.14,2.96l14.53,153.11-13.76-3.04c-.52-.12-1.04-.11-1.54-.02-.27,0-.54-.05-.81,0-.27,0-.54-.05-.81,0-.27,0-.54-.05-.81,0-.27,0-.54-.05-.81,0-.27,0-.55-.05-.81,0-.27,0-.54-.05-.81,0-.27,0-.54-.05-.81,0-.27,0-.54-.05-.81,0-.27,0-.54-.05-.81,0-.27,0-.54-.05-.81,0-.27,0-.54-.05-.81,0-.27,0-.54-.05-.81,0-.27,0-.54-.05-.81,0-.27,0-.54-.05-.81,0-.27,0-.54-.05-.81,0-.27,0-.55-.05-.81,0-.27,0-.55-.05-.81,0-.27,0-.54-.05-.81,0-.27,0-.55-.05-.81,0-.27,0-.54-.05-.81,0-1.73-.05-3.33.95-3.86,2.62l-7.73,24.2-17.4-9.34c-.69-.37-1.46-.44-2.23-.37-.27-.03-.53-.02-.81,0-.27-.03-.53-.02-.81,0-.27-.03-.53-.02-.81,0-.27-.03-.53-.02-.81,0-.27-.03-.53-.02-.81,0-.27-.03-.53-.02-.81,0-.27-.03-.53-.02-.81,0-.27-.03-.53-.02-.81,0-.27-.03-.53-.02-.81,0-.27-.03-.53-.02-.81,0-.28-.03-.53-.02-.81,0-.28-.03-.53-.02-.81,0-.27-.03-.53-.02-.81,0-.28-.03-.53-.02-.81,0-.27-.03-.53-.02-.81,0-.27-.03-.53-.02-.81,0-.28-.03-.53-.02-.81,0-.27-.03-.53-.02-.81,0-.27-.03-.53-.02-.81,0-.27-.03-.53-.02-.81,0-.73-.09-1.47-.04-2.16.29-1.14.54-1.94,1.58-2.15,2.8L-.62,225.29l-59.56,1.08c-1.85.03-3.42,1.33-3.77,3.11-.05.24-.07.48-.07.71,0,1.52.93,2.93,2.41,3.53l83.73,34.15c.63.26,1.29.29,1.95.21.27.03.53.03.81,0,.27.03.53.03.81,0,.27.03.53.03.81,0,.27.03.53.03.81,0,.27.03.53.03.81,0,.27.03.53.03.81,0,.27.03.53.03.81,0,.27.03.53.03.81,0,.27.03.53.03.81,0,.27.03.53.03.81,0,.28.03.53.03.81,0,.27.03.53.03.81,0,.27.03.53.03.81,0,.27.03.53.03.81,0,.27.03.53.03.81,0,.27.03.53.03.81,0,.27.03.53.03.81,0,.27.03.53.03.81,0,.27.03.53.03.81,0,.27.03.53.03.81,0,.69.06,1.39.01,2.03-.29,1-.46,1.75-1.32,2.07-2.36l5.09-16.61,5.33,4.7c.91.8,2.16,1.14,3.36.91.02,0,.04-.02.06-.03.25,0,.49.08.74.03.02,0,.04-.02.06-.03.25,0,.49.08.74.03.02,0,.04-.02.06-.03.25,0,.49.08.74.03.02,0,.04-.02.06-.03.25,0,.49.08.74.03.02,0,.04-.02.06-.03.25,0,.49.08.74.03.02,0,.04-.02.06-.03.25,0,.49.08.74.03.02,0,.04-.02.06-.03.25,0,.49.08.74.03.02,0,.04-.02.06-.03.25,0,.49.08.74.03.02,0,.04-.02.06-.03.25,0,.49.08.74.03.02,0,.04-.02.06-.03.25,0,.49.08.74.03.02,0,.04-.02.06-.03.25,0,.49.08.74.03.02,0,.04-.02.06-.03.25,0,.49.08.74.03.02,0,.04-.02.06-.03.25,0,.49.08.74.03.02,0,.04-.02.06-.03.25,0,.49.08.74.03.02,0,.04-.02.06-.03.25,0,.49.08.74.03.02,0,.04-.02.06-.03.25,0,.49.08.74.03.02,0,.04-.02.06-.03.25,0,.49.08.74.03.02,0,.04-.02.06-.03.25,0,.49.08.74.03.02,0,.04-.02.06-.03.25,0,.49.08.74.03.02,0,.04-.02.06-.03.25,0,.49.08.74.03.02,0,.04-.02.06-.03.25,0,.49.08.74.03,1.21-.23,2.23-1,2.77-2.09l14.22-28.64,3.55,2.01,14.88,114.23c.14,1.06.72,2.01,1.6,2.63s1.99.85,3.05.64h.02c.26,0,.52.05.79,0h.02c.26,0,.52.05.79,0h.02c.26,0,.52.05.79,0h.02c.26,0,.52.05.79,0h.02c.26,0,.52.05.79,0h.02c.26,0,.52.05.79,0h.02c.26,0,.53.05.79,0h.02c.26,0,.52.05.79,0h.02c.26,0,.52.05.79,0h.02c.26,0,.52.05.79,0h.02c.26,0,.52.05.79,0h.02c.26,0,.52.05.79,0h.02c.26,0,.52.05.79,0h.02c.26,0,.52.05.79,0h.02c.26,0,.52.05.79,0h.02c.26,0,.52.05.79,0h.02c.26,0,.52.05.79,0h.02c.26,0,.52.05.79,0h.02c.26,0,.53.05.79,0h.02c.26,0,.52.05.79,0h.02c.26,0,.53.05.79,0l615.62-39.84c1.74-.34,3.02-1.79,3.12-3.53l19.77-271.29c.09-2.02-1.5-3.89-3.64-4.04L96.65,7.45c-.09,0-.17.04-.26.04l-.55-.04c-.09,0-.17.04-.26.04l-.55-.04c-.09,0-.17.04-.26.04l-.55-.04c-.09,0-.17.04-.26.04l-.55-.04c-.09,0-.17.04-.26.04l-.55-.04c-.09,0-.17.04-.26.04l-.55-.04c-.09,0-.17.04-.26.04l-.55-.04c-.09,0-.17.04-.26.04l-.55-.04c-.09,0-.17.04-.26.04l-.55-.04c-.09,0-.17.04-.26.04l-.55-.04c-.09,0-.17.04-.26.04l-.55-.04c-.09,0-.17.04-.26.04l-.55-.04c-.09,0-.17.04-.26.04l-.55-.04c-.09,0-.17.04-.26.04l-.55-.04c-.09,0-.17.04-.26.04l-.55-.04c-.09,0-.17.04-.26.04l-.55-.04c-.09,0-.17.04-.26.04l-.55-.04c-.09,0-.17.04-.26.04l-.55-.04c-.09,0-.17.04-.26.04l-.55-.04c-.09,0-.17.04-.26.04l-.55-.04c-.09,0-.17.04-.26.04l-.55-.04c-1.13-.08-2.23.33-3.03,1.11h.07Z"/>
    <path class="st1" d="M115.41,173.04c.08,1.2-.43,2.37-1.36,3.16-.94.78-2.2,1.09-3.4.82l-32.53-7.19-10.56,33.06c-.35,1.1-1.18,1.98-2.27,2.41-1.09.43-2.31.36-3.34-.19l-31.24-16.77-7.22,41.37c-.31,1.81-1.9,3.15-3.78,3.18l-44.15.8,62.51,25.49,9.22-30.08c.39-1.26,1.4-2.23,2.69-2.59,1.29-.36,2.67-.04,3.67.84l19.4,17.08,17.5-35.26c.47-.96,1.33-1.68,2.37-1.99,1.04-.31,2.16-.19,3.1.35l22.09,12.52c1.05.6,1.76,1.64,1.92,2.83l14.59,112.02,608.54-38.43,19.37-264.57L100.58,15.38l14.83,157.66h0Z"/>
    <path d="M92.48,11.51l14.78,156.91-30.95-6.84c-1.99-.44-3.99.69-4.59,2.59l-10.21,31.96-31.87-17.11c-1.11-.59-2.44-.63-3.58-.09-1.14.54-1.94,1.58-2.15,2.8l-7.6,43.55-59.56,1.08c-1.85.03-3.42,1.33-3.77,3.11-.05.24-.07.48-.07.71,0,1.52.93,2.93,2.41,3.53l83.73,34.15c1.02.42,2.18.39,3.18-.07,1-.46,1.75-1.32,2.07-2.36l8.69-28.36,18.67,16.45c.91.8,2.16,1.14,3.36.91,1.21-.23,2.23-1,2.77-2.09l17.94-36.14,16.78,9.51,14.88,114.23c.14,1.06.72,2.01,1.6,2.63s1.99.85,3.05.64l615.62-39.84c1.74-.34,3.02-1.79,3.12-3.53l19.77-271.29c.09-2.02-1.5-3.89-3.64-4.04L96.65,7.45c-1.13-.08-2.23.33-3.03,1.11-.8.78-1.2,1.88-1.14,2.96h0ZM743.16,296.48l-608.54,38.43-14.59-112.02c-.16-1.18-.87-2.23-1.92-2.83l-22.09-12.52c-.94-.53-2.07-.66-3.1-.35-1.04.31-1.9,1.03-2.37,1.99l-17.5,35.26-19.4-17.08c-1-.88-2.38-1.2-3.67-.84-1.29.36-2.31,1.33-2.69,2.59l-9.22,30.08-62.51-25.49,44.15-.8c1.88-.03,3.47-1.37,3.78-3.18l7.22-41.37,31.24,16.77c1.03.55,2.25.62,3.34.19s1.92-1.31,2.27-2.41l10.56-33.06,32.53,7.19c1.2.27,2.46-.04,3.4-.82.94-.78,1.44-1.96,1.36-3.16L100.58,15.38l661.96,16.52-19.37,264.57h-.01Z"/>
  </g>
  <g>
    <path d="M706.68,8.65c.8.78,1.2,1.88,1.14,2.96l-14.53,153.11,13.76-3.04c.52-.12,1.04-.11,1.54-.02.27,0,.54-.05.81,0,.27,0,.54-.05.81,0,.27,0,.54-.05.81,0,.27,0,.54-.05.81,0,.27,0,.55-.05.81,0,.27,0,.54-.05.81,0,.27,0,.54-.05.81,0,.27,0,.54-.05.81,0,.27,0,.54-.05.81,0,.27,0,.54-.05.81,0,.27,0,.54-.05.81,0,.27,0,.54-.05.81,0,.27,0,.54-.05.81,0,.27,0,.54-.05.81,0,.27,0,.54-.05.81,0,.27,0,.55-.05.81,0,.27,0,.55-.05.81,0,.27,0,.54-.05.81,0,.27,0,.55-.05.81,0,.27,0,.54-.05.81,0,1.73-.05,3.33.95,3.86,2.62l7.73,24.2,17.4-9.34c.69-.37,1.46-.44,2.23-.37.27-.03.53-.02.81,0,.27-.03.53-.02.81,0,.27-.03.53-.02.81,0,.27-.03.53-.02.81,0,.27-.03.53-.02.81,0,.27-.03.53-.02.81,0,.27-.03.53-.02.81,0,.27-.03.53-.02.81,0,.27-.03.53-.02.81,0,.27-.03.53-.02.81,0,.28-.03.53-.02.81,0,.28-.03.53-.02.81,0,.27-.03.53-.02.81,0,.28-.03.53-.02.81,0,.27-.03.53-.02.81,0,.27-.03.53-.02.81,0,.28-.03.53-.02.81,0,.27-.03.53-.02.81,0,.27-.03.53-.02.81,0,.27-.03.53-.02.81,0,.73-.09,1.47-.04,2.16.29,1.14.54,1.94,1.58,2.15,2.8l7.6,43.55,59.56,1.08c1.85.03,3.42,1.33,3.77,3.11.05.24.07.48.07.71,0,1.52-.93,2.93-2.41,3.53l-83.73,34.15c-.63.26-1.29.29-1.95.21-.27.03-.53.03-.81,0-.27.03-.53.03-.81,0-.27.03-.53.03-.81,0-.27.03-.53.03-.81,0-.27.03-.53.03-.81,0-.27.03-.53.03-.81,0-.27.03-.53.03-.81,0-.27.03-.53.03-.81,0-.27.03-.53.03-.81,0-.27.03-.53.03-.81,0-.28.03-.53.03-.81,0-.27.03-.53.03-.81,0-.27.03-.53.03-.81,0-.27.03-.53.03-.81,0-.27.03-.53.03-.81,0-.27.03-.53.03-.81,0-.27.03-.53.03-.81,0-.27.03-.53.03-.81,0-.27.03-.53.03-.81,0-.27.03-.53.03-.81,0-.69.06-1.39.01-2.03-.29-1-.46-1.75-1.32-2.07-2.36l-5.09-16.61-5.33,4.7c-.91.8-2.16,1.14-3.36.91-.02,0-.04-.02-.06-.03-.25,0-.49.08-.74.03-.02,0-.04-.02-.06-.03-.25,0-.49.08-.74.03-.02,0-.04-.02-.06-.03-.25,0-.49.08-.74.03-.02,0-.04-.02-.06-.03-.25,0-.49.08-.74.03-.02,0-.04-.02-.06-.03-.25,0-.49.08-.74.03-.02,0-.04-.02-.06-.03-.25,0-.49.08-.74.03-.02,0-.04-.02-.06-.03-.25,0-.49.08-.74.03-.02,0-.04-.02-.06-.03-.25,0-.49.08-.74.03-.02,0-.04-.02-.06-.03-.25,0-.49.08-.74.03-.02,0-.04-.02-.06-.03-.25,0-.49.08-.74.03-.02,0-.04-.02-.06-.03-.25,0-.49.08-.74.03-.02,0-.04-.02-.06-.03-.25,0-.49.08-.74.03-.02,0-.04-.02-.06-.03-.25,0-.49.08-.74.03-.02,0-.04-.02-.06-.03-.25,0-.49.08-.74.03-.02,0-.04-.02-.06-.03-.25,0-.49.08-.74.03-.02,0-.04-.02-.06-.03-.25,0-.49.08-.74.03-.02,0-.04-.02-.06-.03-.25,0-.49.08-.74.03-.02,0-.04-.02-.06-.03-.25,0-.49.08-.74.03-.02,0-.04-.02-.06-.03-.25,0-.49.08-.74.03-.02,0-.04-.02-.06-.03-.25,0-.49.08-.74.03-.02,0-.04-.02-.06-.03-.25,0-.49.08-.74.03-1.21-.23-2.23-1-2.77-2.09l-14.22-28.64-3.55,2.01-14.88,114.23c-.14,1.06-.72,2.01-1.6,2.63-.88.62-1.99.85-3.05.64h-.02c-.26,0-.52.05-.79,0h-.02c-.26,0-.52.05-.79,0h-.02c-.26,0-.52.05-.79,0h-.02c-.26,0-.52.05-.79,0h-.02c-.26,0-.52.05-.79,0h-.02c-.26,0-.52.05-.79,0h-.02c-.26,0-.53.05-.79,0h-.02c-.26,0-.52.05-.79,0h-.02c-.26,0-.52.05-.79,0h-.02c-.26,0-.52.05-.79,0h-.02c-.26,0-.52.05-.79,0h-.02c-.26,0-.52.05-.79,0h-.02c-.26,0-.52.05-.79,0h-.02c-.26,0-.52.05-.79,0h-.02c-.26,0-.52.05-.79,0h-.02c-.26,0-.52.05-.79,0h-.02c-.26,0-.52.05-.79,0h-.02c-.26,0-.52.05-.79,0h-.02c-.26,0-.53.05-.79,0h-.02c-.26,0-.52.05-.79,0h-.02c-.26,0-.53.05-.79,0L35.69,303.48c-1.74-.34-3.02-1.79-3.12-3.53L12.8,28.65c-.09-2.02,1.5-3.89,3.64-4.04L686.71,7.54c.09,0,.17.04.26.04l.55-.04c.09,0,.17.04.26.04l.55-.04c.09,0,.17.04.26.04l.55-.04c.09,0,.17.04.26.04l.55-.04c.09,0,.17.04.26.04l.55-.04c.09,0,.17.04.26.04l.55-.04c.09,0,.17.04.26.04l.55-.04c.09,0,.17.04.26.04l.55-.04c.09,0,.17.04.26.04l.55-.04c.09,0,.17.04.26.04l.55-.04c.09,0,.17.04.26.04l.55-.04c.09,0,.17.04.26.04l.55-.04c.09,0,.17.04.26.04l.55-.04c.09,0,.17.04.26.04l.55-.04c.09,0,.17.04.26.04l.55-.04c.09,0,.17.04.26.04l.55-.04c.09,0,.17.04.26.04l.55-.04c.09,0,.17.04.26.04l.55-.04c.09,0,.17.04.26.04l.55-.04c.09,0,.17.04.26.04l.55-.04c.09,0,.17.04.26.04l.55-.04c1.13-.08,2.23.33,3.03,1.11Z"/>
    <path class="st1" d="M667.96,173.13c-.08,1.2.43,2.37,1.36,3.16.94.78,2.2,1.09,3.4.82l32.53-7.19,10.56,33.06c.35,1.1,1.18,1.98,2.27,2.41,1.09.43,2.31.36,3.34-.19l31.24-16.77,7.22,41.37c.31,1.81,1.9,3.15,3.78,3.18l44.15.8-62.51,25.49-9.22-30.08c-.39-1.26-1.4-2.23-2.69-2.59-1.29-.36-2.67-.04-3.67.84l-19.4,17.08-17.5-35.26c-.47-.96-1.33-1.68-2.37-1.99-1.04-.31-2.16-.19-3.1.35l-22.09,12.52c-1.05.6-1.76,1.64-1.92,2.83l-14.59,112.02L40.2,296.57,20.83,32,682.79,15.48l-14.83,157.66Z"/>
    <path d="M689.74,8.65c-.8-.78-1.9-1.18-3.03-1.11L16.44,24.62c-2.14.14-3.72,2.01-3.64,4.04l19.77,271.29c.1,1.74,1.38,3.19,3.12,3.53l615.62,39.84c1.07.21,2.17-.02,3.05-.64.89-.62,1.47-1.57,1.6-2.63l14.88-114.23,16.78-9.51,17.94,36.14c.53,1.08,1.56,1.85,2.77,2.09,1.2.23,2.45-.11,3.36-.91l18.67-16.45,8.69,28.36c.32,1.04,1.07,1.89,2.07,2.36,1,.47,2.15.49,3.18.07l83.73-34.15c1.48-.6,2.41-2.01,2.41-3.53,0-.24-.02-.47-.07-.71-.35-1.78-1.92-3.08-3.77-3.11l-59.56-1.08-7.6-43.55c-.21-1.22-1.01-2.26-2.15-2.8-1.14-.54-2.47-.5-3.58.09l-31.87,17.11-10.21-31.96c-.61-1.91-2.6-3.03-4.59-2.59l-30.95,6.84,14.78-156.91c.06-1.08-.34-2.18-1.14-2.96ZM20.83,32L682.79,15.48l-14.83,157.66c-.08,1.2.43,2.37,1.36,3.16.94.78,2.2,1.09,3.4.82l32.53-7.19,10.56,33.06c.35,1.1,1.18,1.98,2.27,2.41,1.09.43,2.31.36,3.34-.19l31.24-16.77,7.22,41.37c.31,1.81,1.9,3.15,3.78,3.18l44.15.8-62.51,25.49-9.22-30.08c-.39-1.26-1.4-2.23-2.69-2.59-1.29-.36-2.67-.04-3.67.84l-19.4,17.08-17.5-35.26c-.47-.96-1.33-1.68-2.37-1.99-1.04-.31-2.16-.19-3.1.35l-22.09,12.52c-1.05.6-1.76,1.64-1.92,2.83l-14.59,112.02L40.2,296.57,20.83,32Z"/>
  </g>
  <g>
    <path d="M475.57,76.51h-15.55c-1.83,0-3.14-.34-3.93-1.02-.78-.68-1.17-1.55-1.17-2.62,0-.8.2-1.7.61-2.7l2.8-6.94c.37-.93.98-1.7,1.81-2.3s1.81-.9,2.93-.9h8.67c.27,0,.51.1.71.3.21.2.31.43.31.7v9.98h2.8v5.49ZM461.09,55.9c-.54-.43-.81-.96-.81-1.6s.27-1.16.81-1.6c.54-.43,1.21-.65,1.99-.65s1.45.22,1.99.65c.54.43.82.96.82,1.6s-.27,1.17-.82,1.6c-.54.43-1.21.65-1.99.65s-1.44-.22-1.99-.65ZM467.16,71.02v-5.49h-3.77l-2.19,5.49h5.96ZM467.72,55.9c-.54-.43-.82-.96-.82-1.6s.27-1.16.82-1.6c.54-.43,1.21-.65,1.99-.65s1.44.22,1.99.65c.54.43.81.96.81,1.6s-.27,1.17-.81,1.6c-.54.43-1.21.65-1.99.65s-1.45-.22-1.99-.65Z"/>
    <path d="M474.09,72.52c0-.43.15-.79.43-1.07.29-.28.66-.42,1.1-.42h3.67c-.58-1.1-.87-2.28-.87-3.54,0-.96.19-1.9.56-2.79.37-.9.92-1.69,1.63-2.37.71-.68,1.58-1.23,2.6-1.65s2.17-.62,3.47-.62h5c1.12,0,2.08.39,2.88,1.17.8.78,1.2,1.72,1.2,2.82v11.48c0,.27-.1.5-.31.7-.2.2-.44.3-.71.3h-19.12c-.44,0-.81-.14-1.1-.42-.29-.28-.43-.64-.43-1.07v-2.5ZM481.79,55.9c-.54-.43-.82-.96-.82-1.6s.27-1.16.82-1.6c.54-.43,1.21-.65,1.99-.65s1.44.22,1.99.65c.54.43.82.96.82,1.6s-.27,1.17-.82,1.6c-.54.43-1.21.65-1.99.65s-1.45-.22-1.99-.65ZM486.99,65.53c-.82,0-1.51.27-2.09.8s-.87,1.18-.87,1.95.27,1.37.82,1.92,1.26.82,2.14.82h3.16v-5.49h-3.16ZM488.42,55.9c-.54-.43-.82-.96-.82-1.6s.27-1.16.82-1.6c.54-.43,1.21-.65,1.99-.65s1.44.22,1.99.65c.54.43.82.96.82,1.6s-.27,1.17-.82,1.6c-.54.43-1.21.65-1.99.65s-1.45-.22-1.99-.65Z"/>
    <path d="M501.36,61.04c0-.27.1-.5.31-.7.2-.2.44-.3.71-.3h3.57c.27,0,.51.1.71.3.21.2.31.43.31.7v15.47c0,1.5-.2,2.79-.61,3.89-.41,1.1-.97,2-1.68,2.72-.71.71-1.55,1.24-2.52,1.57-.97.33-2.01.5-3.13.5-1.19,0-2.43-.17-3.72-.52-1.29-.35-2.58-.86-3.87-1.52l1.48-4.14c.68.27,1.45.52,2.32.77.87.25,1.69.37,2.47.37.99,0,1.84-.26,2.57-.77s1.1-1.47,1.1-2.87v-15.47Z"/>
    <path d="M517.12,49.06c.27,0,.51.1.71.3s.31.43.31.7v20.96h2.8v5.49h-7.39c-.27,0-.51-.1-.71-.3-.2-.2-.31-.43-.31-.7v-25.45c0-.27.1-.5.31-.7s.44-.3.71-.3h3.57Z"/>
    <path d="M519.46,72.52c0-.43.14-.79.43-1.07.29-.28.65-.42,1.1-.42h11.83c-.31-.7-.61-1.46-.92-2.29-.31-.83-.66-1.61-1.07-2.35-.41-.73-.89-1.35-1.45-1.85s-1.25-.75-2.06-.75c-.58,0-1.14.1-1.68.3-.54.2-1.07.48-1.58.85l-1.53-3.89c.92-.73,1.94-1.33,3.06-1.8,1.12-.47,2.23-.7,3.31-.7,1.56,0,2.82.43,3.77,1.3.95.87,1.77,1.93,2.45,3.19.68,1.26,1.3,2.62,1.86,4.07.56,1.45,1.21,2.75,1.96,3.92h2.45v5.49h-20.39c-.44,0-.81-.14-1.1-.42s-.43-.64-.43-1.07v-2.5ZM526.91,55.4c-.54-.43-.82-.96-.82-1.6s.27-1.16.82-1.6c.54-.43,1.21-.65,1.99-.65s1.44.22,1.99.65c.54.43.82.96.82,1.6s-.27,1.17-.82,1.6c-.54.43-1.21.65-1.99.65s-1.45-.22-1.99-.65Z"/>
    <path d="M544.19,71.02v-20.96c0-.27.1-.5.3-.7.21-.2.44-.3.71-.3h3.57c.27,0,.51.1.71.3s.31.43.31.7v22.46c0,1.1-.4,2.04-1.2,2.82-.8.78-1.76,1.17-2.88,1.17h-4.33c-.44,0-.81-.14-1.1-.42s-.43-.64-.43-1.07v-2.5c0-.43.14-.79.43-1.07.29-.28.65-.42,1.1-.42h2.8Z"/>
    <path d="M559.94,49.06c.27,0,.51.1.71.3.2.2.31.43.31.7v25.45c0,.27-.1.5-.31.7-.2.2-.44.3-.71.3h-3.57c-.27,0-.51-.1-.71-.3-.2-.2-.31-.43-.31-.7v-25.45c0-.27.1-.5.31-.7s.44-.3.71-.3h3.57Z"/>
    <path d="M572.69,76.51v-8.98c0-1.26.27-2.37.82-3.32.54-.95,1.26-1.73,2.14-2.35.88-.62,1.9-1.07,3.06-1.37,1.16-.3,2.33-.45,3.52-.45,1.29,0,2.58.19,3.85.57,1.28.38,2.42.96,3.44,1.72v14.17h-16.82ZM583.9,71.02v-5.04c-.44-.13-.86-.24-1.25-.32s-.74-.12-1.04-.12c-.92,0-1.7.2-2.34.6-.65.4-.97.95-.97,1.65v3.24h5.61Z"/>
    <path d="M599.71,49.06c.27,0,.51.1.71.3.2.2.31.43.31.7v25.45c0,.27-.1.5-.31.7-.2.2-.44.3-.71.3h-3.57c-.27,0-.51-.1-.71-.3-.2-.2-.31-.43-.31-.7v-25.45c0-.27.1-.5.31-.7s.44-.3.71-.3h3.57Z"/>
    <path d="M611.43,76.51c-1.43,0-2.63-.48-3.62-1.45-.99-.96-1.48-2.15-1.48-3.54v-2.99c0-1.46.25-2.73.74-3.79.49-1.06,1.15-1.95,1.96-2.65.82-.7,1.76-1.21,2.83-1.55,1.07-.33,2.2-.5,3.39-.5,1.33,0,2.68.21,4.05.62,1.38.42,2.66,1.04,3.85,1.87v8.48h2.8v5.49h-2.8c0,1.5-.2,2.79-.61,3.89s-.97,2-1.68,2.72c-.71.71-1.56,1.24-2.52,1.57-.97.33-2.01.5-3.13.5-1.19,0-2.47-.17-3.85-.52-1.38-.35-2.71-.86-4-1.52l1.48-4.09c.71.27,1.5.52,2.37.75.87.23,1.71.35,2.52.35,1.05,0,1.95-.26,2.7-.77.75-.52,1.12-1.47,1.12-2.87h-6.12ZM617.55,71.02v-5.09c-.88-.27-1.68-.4-2.4-.4-.88,0-1.64.25-2.27.75s-.94,1.25-.94,2.25v2.5h5.61Z"/>
    <path d="M624.49,72.52c0-.43.14-.79.43-1.07.29-.28.65-.42,1.1-.42h3.67c-.58-1.1-.87-2.28-.87-3.54,0-.96.19-1.9.56-2.79.37-.9.92-1.69,1.63-2.37.71-.68,1.58-1.23,2.6-1.65s2.17-.62,3.47-.62h5c1.12,0,2.08.39,2.88,1.17.8.78,1.2,1.72,1.2,2.82v11.48c0,.27-.1.5-.31.7-.2.2-.44.3-.71.3h-19.12c-.44,0-.81-.14-1.1-.42s-.43-.64-.43-1.07v-2.5ZM632.18,55.9c-.54-.43-.81-.96-.81-1.6s.27-1.16.81-1.6c.54-.43,1.21-.65,1.99-.65s1.45.22,1.99.65c.54.43.82.96.82,1.6s-.27,1.17-.82,1.6c-.54.43-1.21.65-1.99.65s-1.44-.22-1.99-.65ZM637.38,65.53c-.82,0-1.51.27-2.09.8-.58.53-.87,1.18-.87,1.95s.27,1.37.82,1.92c.54.55,1.26.82,2.14.82h3.16v-5.49h-3.16ZM638.81,55.9c-.54-.43-.82-.96-.82-1.6s.27-1.16.82-1.6c.54-.43,1.21-.65,1.99-.65s1.44.22,1.99.65c.54.43.81.96.81,1.6s-.27,1.17-.81,1.6c-.54.43-1.21.65-1.99.65s-1.45-.22-1.99-.65Z"/>
    <path d="M563.21,105.8c-.79-.23-1.6-.34-2.43-.34-.43,0-.88.06-1.34.17-.46.11-.89.3-1.29.56-.4.26-.73.58-.99.97-.26.39-.4.87-.4,1.46,0,.49.12.97.35,1.46.23.49.57.93,1.02,1.33.45.41.98.74,1.59,1s1.32.39,2.11.39h5.46l-.84,4.52h-7c-1.09,0-1.96.32-2.61.97-.65.65-.97,1.34-.97,2.09,0,.62.17,1.13.5,1.55s.77.75,1.32,1c.54.24,1.16.41,1.84.51.68.1,1.35.15,2.01.15,1.32,0,2.41-.13,3.27-.39v4.86c-.4.07-.85.12-1.36.17-.51.05-1.02.07-1.51.07-1.09,0-2.25-.1-3.47-.29s-2.36-.57-3.4-1.12c-1.04-.55-1.91-1.34-2.6-2.36-.69-1.02-1.04-2.36-1.04-4.01,0-1.33.37-2.58,1.12-3.76.75-1.18,1.79-2.13,3.15-2.84-1.16-.84-2.01-1.79-2.56-2.84-.55-1.05-.82-2.11-.82-3.18s.21-2.02.65-2.87,1.01-1.55,1.74-2.14c.73-.58,1.58-1.03,2.55-1.34.98-.31,2.03-.46,3.15-.46,1.06,0,2.15.14,3.27.41,1.12.28,2.27.69,3.42,1.24l-1.69,3.79c-.66-.26-1.39-.5-2.18-.73Z"/>
    <path d="M577.89,90.89c.2.19.3.42.3.68v24.77c0,.26-.1.49-.3.68-.2.19-.43.29-.69.29h-2.48c-.26,0-.5-.1-.69-.29s-.3-.42-.3-.68v-24.77c0-.26.1-.49.3-.68.2-.19.43-.29.69-.29h2.48c.26,0,.5.1.69.29Z"/>
    <path d="M594.07,112.94v-4.86c0-.78-.14-1.44-.42-1.99-.28-.55-.65-1-1.12-1.33s-1.01-.58-1.64-.73c-.63-.15-1.29-.22-1.99-.22-.56,0-1.14.05-1.74.15-.59.1-1.16.24-1.69.44l-1.09-4.08c1.03-.32,2-.57,2.93-.73s1.84-.24,2.73-.24c1.22,0,2.35.17,3.37.51,1.03.34,1.92.87,2.68,1.58.76.71,1.36,1.62,1.79,2.72s.65,2.41.65,3.93v4.86h3.23v4.37h-18.36v-4.37h10.67Z"/>
    <path d="M600.7,113.35c.28-.28.64-.41,1.07-.41h5.21v-10.69c0-.26.1-.49.3-.68.2-.19.43-.29.7-.29h2.48c.26,0,.5.1.7.29.2.19.3.42.3.68v11.17c0,1.07-.39,1.98-1.17,2.74s-1.71,1.14-2.8,1.14h-5.71c-.43,0-.79-.14-1.07-.41s-.42-.62-.42-1.04v-1.46c0-.42.14-.77.42-1.04ZM604.84,120.85c.53-.42,1.17-.63,1.94-.63s1.41.21,1.94.63.79.94.79,1.55-.26,1.13-.79,1.55-1.17.63-1.94.63-1.41-.21-1.94-.63-.79-.94-.79-1.55.26-1.13.79-1.55Z"/>
    <path d="M622.41,93.27c.23.16.38.41.45.73l2.48,20.64h-3.47c-.27,0-.52-.08-.77-.24s-.39-.41-.42-.73l-2.48-20.64h3.47c.26,0,.51.08.74.24ZM623.32,125.84c-.25-.07-.49-.11-.72-.11-.27,0-.49.06-.67.17-.18.12-.27.32-.27.61,0,.23.12.45.35.66.23.2.58.31,1.04.31h1.89v1.97h-6.15v-1.97h1.19c-.46-.35-.69-.8-.69-1.35,0-.67.3-1.2.89-1.57s1.29-.57,2.08-.57c.46,0,.93.08,1.41.24.48.16.88.36,1.22.59l-.94,1.31c-.17-.12-.37-.21-.62-.28ZM619.78,119.74c.1-.29.18-.56.25-.8.07-.24.14-.51.22-.8.08-.29.21-.7.37-1.21.46.16,1.19.34,2.18.53.99.19,2,.29,3.03.29.6,0,1.16-.04,1.69-.12s1-.23,1.41-.46.74-.51.99-.85c.25-.34.37-.79.37-1.33v-23.41c0-.26.1-.49.3-.68.2-.19.43-.29.7-.29h2.48c.27,0,.5.1.7.29.2.19.3.42.3.68v23.41c0,1.36-.23,2.5-.69,3.42-.46.92-1.09,1.67-1.89,2.23-.79.57-1.71.97-2.75,1.21-1.04.24-2.12.36-3.25.36s-2.32-.11-3.5-.34c-1.17-.23-2.27-.53-3.3-.92.17-.52.3-.92.4-1.21Z"/>
    <path d="M645.38,90.89c.2.19.3.42.3.68v24.77c0,.26-.1.49-.3.68-.2.19-.43.29-.7.29h-2.48c-.27,0-.5-.1-.7-.29-.2-.19-.3-.42-.3-.68v-24.77c0-.26.1-.49.3-.68.2-.19.43-.29.7-.29h2.48c.26,0,.5.1.7.29Z"/>
    <path d="M262.84,153.74v4.37h-31.01c-1.09,0-2.03-.38-2.8-1.14s-1.17-1.68-1.17-2.74v-11.17c0-.26.1-.49.3-.68.2-.19.43-.29.69-.29h2.48c.26,0,.5.1.69.29.2.19.3.42.3.68v10.69h22.83v-10.69c0-.26.1-.49.3-.68.2-.19.43-.29.69-.29h2.48c.26,0,.5.1.69.29.2.19.3.42.3.68v10.69h3.23ZM238.57,134.94c.53-.42,1.17-.63,1.94-.63s1.41.21,1.94.63.79.94.79,1.55-.26,1.13-.79,1.55-1.17.63-1.94.63-1.41-.21-1.94-.63-.79-.94-.79-1.55.26-1.13.79-1.55ZM245.02,134.94c.53-.42,1.17-.63,1.94-.63s1.41.21,1.94.63.79.94.79,1.55-.26,1.13-.79,1.55-1.17.63-1.94.63-1.41-.21-1.94-.63-.79-.94-.79-1.55.26-1.13.79-1.55Z"/>
    <path d="M261.77,154.15c.28-.28.64-.41,1.07-.41h4.07c-.3-.52-.51-1.08-.65-1.68s-.2-1.22-.2-1.87c0-.94.16-1.89.47-2.87s.81-1.85,1.49-2.62c.68-.78,1.55-1.41,2.6-1.89,1.06-.49,2.32-.73,3.77-.73h3.57c1.09,0,2.03.38,2.8,1.14.78.76,1.17,1.68,1.17,2.74v11.17c0,.26-.1.49-.3.68-.2.19-.43.29-.69.29h-18.11c-.43,0-.79-.14-1.07-.41s-.42-.62-.42-1.04v-1.46c0-.42.14-.77.42-1.04ZM268.84,134.94c.53-.42,1.17-.63,1.94-.63s1.41.21,1.94.63.79.94.79,1.55-.26,1.13-.79,1.55-1.17.63-1.94.63-1.41-.21-1.94-.63-.79-.94-.79-1.55.26-1.13.79-1.55ZM271.57,147.5c-.69.7-1.04,1.56-1.04,2.6,0,.94.33,1.78.99,2.53s1.52,1.12,2.58,1.12h3.37v-7.29h-3.37c-.99,0-1.84.35-2.53,1.04ZM275.29,134.94c.53-.42,1.17-.63,1.94-.63s1.41.21,1.94.63.79.94.79,1.55-.26,1.13-.79,1.55-1.17.63-1.94.63-1.41-.21-1.94-.63-.79-.94-.79-1.55.26-1.13.79-1.55Z"/>
    <path d="M289.04,146.65c.43-1.04,1.01-1.89,1.74-2.57.73-.68,1.57-1.18,2.53-1.51.96-.32,1.98-.49,3.08-.49,1.26,0,2.51.2,3.77.61,1.26.41,2.46,1.01,3.62,1.82v9.23h3.23v4.37h-3.23c0,1.46-.17,2.7-.52,3.74-.35,1.04-.83,1.89-1.46,2.55-.63.66-1.37,1.15-2.23,1.46-.86.31-1.8.46-2.83.46-1.16,0-2.33-.18-3.52-.53s-2.46-.86-3.82-1.51l1.44-3.4c.79.36,1.63.66,2.51.92.88.26,1.73.39,2.56.39.99,0,1.81-.28,2.46-.85.65-.57.97-1.64.97-3.23h-6.45c-1.26,0-2.32-.42-3.18-1.26-.86-.84-1.29-1.88-1.29-3.11v-3.4c0-1.42.21-2.65.65-3.69ZM299.31,146.94c-.86-.32-1.8-.49-2.83-.49-.96,0-1.8.31-2.53.92-.73.62-1.09,1.6-1.09,2.96v3.4h6.45v-6.8ZM297.55,134.67c-.25-.08-.49-.12-.72-.12-.26,0-.49.06-.67.19-.18.13-.27.36-.27.68,0,.26.12.5.35.73.23.23.58.34,1.04.34h1.89v2.19h-6.15v-2.19h1.19c-.46-.39-.69-.89-.69-1.51,0-.74.3-1.33.89-1.75.6-.42,1.29-.63,2.08-.63.46,0,.93.09,1.41.27.48.18.88.4,1.22.66l-.94,1.46c-.17-.13-.37-.23-.62-.32Z"/>
    <path d="M305.94,157.69c-.28-.28-.42-.62-.42-1.04v-1.46c0-.42.14-.77.42-1.04.28-.28.64-.41,1.07-.41h3.23v-4.76c0-.97.22-1.84.67-2.6.45-.76,1.04-1.4,1.79-1.92.74-.52,1.6-.91,2.58-1.17.98-.26,1.99-.39,3.05-.39,1.29,0,2.57.2,3.85.61,1.27.4,2.42,1.03,3.45,1.87v8.26c0,1.07-.21,2.01-.62,2.82s-.96,1.48-1.64,2.02c-.68.53-1.46.93-2.36,1.19-.89.26-1.84.39-2.83.39-1.26,0-2.34-.17-3.25-.51s-1.89-.82-2.95-1.43h-4.96c-.43,0-.79-.14-1.07-.41ZM316.38,155.46c.6.15,1.19.22,1.79.22.79,0,1.49-.15,2.08-.44.6-.29.89-.75.89-1.36v-5.97c-.3-.16-.71-.31-1.24-.44-.53-.13-1.09-.19-1.69-.19-.86,0-1.66.18-2.41.53-.74.36-1.12.99-1.12,1.89v5.05c.53.32,1.09.56,1.69.7Z"/>
    <path d="M360.6,153.74v4.37h-3.23v3.4c0,1.07-.39,1.98-1.17,2.74-.78.76-1.71,1.14-2.8,1.14h-6.45c-1.22,0-2.38-.23-3.47-.68-1.09-.45-2.04-1.08-2.85-1.87s-1.45-1.72-1.91-2.79c-.46-1.07-.69-2.2-.69-3.4v-6.31c0-.26.1-.49.3-.68.2-.19.43-.29.69-.29h2.48c.26,0,.5.1.69.29.2.19.3.42.3.68v6.31c0,1.23.44,2.27,1.31,3.11s1.93,1.26,3.15,1.26h5.95v-28.66c0-.26.1-.49.3-.68.2-.19.43-.29.69-.29h2.48c.26,0,.5.1.69.29.2.19.3.42.3.68v21.37h3.23Z"/>
    <path d="M359.53,157.69c-.28-.28-.42-.62-.42-1.04v-1.46c0-.42.14-.77.42-1.04.28-.28.64-.41,1.07-.41h12.65v-3.3c0-.75-.13-1.37-.4-1.87s-.63-.91-1.09-1.24c-.46-.32-1-.55-1.61-.68-.61-.13-1.27-.19-1.96-.19-.56,0-1.13.05-1.71.15-.58.1-1.1.23-1.56.39l-1.49-3.79,11.86-11.66,3.18,3.11-7.49,7.38c1.98.32,3.61,1.17,4.86,2.55,1.26,1.38,1.89,3.33,1.89,5.85v3.3h3.23v4.37h-20.34c-.43,0-.79-.14-1.07-.41Z"/>
    <path d="M379.87,157.69c-.28-.28-.42-.62-.42-1.04v-1.46c0-.42.14-.77.42-1.04.28-.28.64-.41,1.07-.41h5.21v-10.69c0-.26.1-.49.3-.68.2-.19.43-.29.69-.29h2.48c.26,0,.5.1.69.29.2.19.3.42.3.68v10.69h5.46v-10.69c0-.26.1-.49.3-.68.2-.19.43-.29.7-.29h2.48c.27,0,.5.1.7.29.2.19.3.42.3.68v10.69h5.46v-10.69c0-.26.1-.49.3-.68s.43-.29.69-.29h2.48c.26,0,.5.1.69.29.2.19.3.42.3.68v10.69h5.21v4.37h-34.73c-.43,0-.79-.14-1.07-.41ZM393.15,135.91c.53-.42,1.17-.63,1.94-.63s1.41.21,1.94.63.79.94.79,1.55-.26,1.13-.79,1.55-1.18.63-1.94.63-1.41-.21-1.94-.63-.79-.94-.79-1.55.26-1.13.79-1.55ZM396.37,131.05c.53-.42,1.18-.63,1.94-.63s1.41.21,1.94.63.79.94.79,1.55-.26,1.13-.79,1.55-1.17.63-1.94.63-1.41-.21-1.94-.63-.79-.94-.79-1.55.26-1.13.79-1.55ZM399.6,135.91c.53-.42,1.17-.63,1.93-.63s1.41.21,1.94.63.79.94.79,1.55-.26,1.13-.79,1.55-1.17.63-1.94.63-1.41-.21-1.93-.63-.79-.94-.79-1.55.27-1.13.79-1.55Z"/>
    <path d="M414.61,154.15c.28-.28.64-.41,1.07-.41h5.21v-10.69c0-.26.1-.49.3-.68.2-.19.43-.29.69-.29h2.48c.26,0,.5.1.69.29s.3.42.3.68v11.17c0,1.07-.39,1.98-1.17,2.74s-1.71,1.14-2.8,1.14h-5.71c-.43,0-.79-.14-1.07-.41s-.42-.62-.42-1.04v-1.46c0-.42.14-.77.42-1.04ZM418.75,161.65c.53-.42,1.17-.63,1.94-.63s1.41.21,1.94.63.79.94.79,1.55-.26,1.13-.79,1.55-1.18.63-1.94.63-1.41-.21-1.94-.63-.79-.94-.79-1.55.26-1.13.79-1.55Z"/>
    <path d="M442.72,158.11c-1.79,0-3.06-.33-3.82-1-.76-.66-1.14-1.51-1.14-2.55,0-.78.2-1.65.6-2.62l2.73-6.75c.36-.91.97-1.65,1.81-2.23.84-.58,1.78-.87,2.8-.87h7.44c.26,0,.5.1.69.29s.3.42.3.68v10.69h3.22v4.37h-14.64ZM449.67,146.45h-4.27l-2.93,7.29h7.2v-7.29Z"/>
    <path d="M456.29,154.15c.28-.28.64-.41,1.07-.41h5.21v-10.69c0-.26.1-.49.3-.68.2-.19.43-.29.69-.29h2.48c.26,0,.5.1.69.29s.3.42.3.68v11.17c0,1.07-.39,1.98-1.17,2.74s-1.71,1.14-2.8,1.14h-5.71c-.43,0-.79-.14-1.07-.41s-.42-.62-.42-1.04v-1.46c0-.42.14-.77.42-1.04ZM458.4,134.94c.53-.42,1.17-.63,1.94-.63s1.41.21,1.94.63.79.94.79,1.55-.26,1.13-.79,1.55-1.17.63-1.94.63-1.41-.21-1.94-.63-.79-.94-.79-1.55.26-1.13.79-1.55ZM464.85,134.94c.53-.42,1.17-.63,1.94-.63s1.41.21,1.94.63.79.94.79,1.55-.26,1.13-.79,1.55-1.17.63-1.94.63-1.41-.21-1.94-.63-.79-.94-.79-1.55.26-1.13.79-1.55Z"/>
    <path d="M477.66,131.69c.2.19.3.42.3.68v21.37h3.23v4.37h-6.7c-.26,0-.5-.1-.7-.29-.2-.19-.3-.42-.3-.68v-24.77c0-.26.1-.49.3-.68.2-.19.43-.29.7-.29h2.48c.27,0,.5.1.7.29Z"/>
    <path d="M480.11,157.69c-.28-.28-.42-.62-.42-1.04v-1.46c0-.42.14-.77.42-1.04.28-.28.64-.41,1.07-.41h3.23v-4.76c0-.97.22-1.84.67-2.6s1.04-1.4,1.79-1.92c.74-.52,1.6-.91,2.58-1.17.98-.26,1.99-.39,3.05-.39,1.29,0,2.57.2,3.84.61,1.27.4,2.42,1.03,3.45,1.87v8.26c0,1.07-.21,2.01-.62,2.82-.41.81-.96,1.48-1.64,2.02-.68.53-1.46.93-2.36,1.19-.89.26-1.84.39-2.83.39-1.26,0-2.34-.17-3.25-.51-.91-.34-1.89-.82-2.95-1.43h-4.96c-.43,0-.79-.14-1.07-.41ZM490.56,155.46c.6.15,1.19.22,1.79.22.79,0,1.49-.15,2.08-.44.59-.29.89-.75.89-1.36v-5.97c-.3-.16-.71-.31-1.24-.44-.53-.13-1.09-.19-1.69-.19-.86,0-1.66.18-2.41.53-.74.36-1.12.99-1.12,1.89v5.05c.53.32,1.09.56,1.69.7Z"/>
    <path d="M506.88,146.65c.43-1.04,1.01-1.89,1.74-2.57.73-.68,1.57-1.18,2.53-1.51s1.98-.49,3.08-.49c1.26,0,2.51.2,3.77.61,1.26.41,2.46,1.01,3.62,1.82v9.23h3.23v4.37h-3.23c0,1.46-.17,2.7-.52,3.74s-.84,1.89-1.46,2.55c-.63.66-1.37,1.15-2.23,1.46-.86.31-1.8.46-2.83.46-1.16,0-2.33-.18-3.52-.53s-2.46-.86-3.82-1.51l1.44-3.4c.79.36,1.63.66,2.51.92.88.26,1.73.39,2.56.39.99,0,1.81-.28,2.46-.85.65-.57.97-1.64.97-3.23h-6.45c-1.26,0-2.32-.42-3.18-1.26-.86-.84-1.29-1.88-1.29-3.11v-3.4c0-1.42.21-2.65.64-3.69ZM517.16,146.94c-.86-.32-1.8-.49-2.83-.49-.96,0-1.8.31-2.53.92-.73.62-1.09,1.6-1.09,2.96v3.4h6.45v-6.8Z"/>
    <path d="M530.06,143.05c0-.26.1-.49.3-.68.2-.19.43-.29.7-.29h2.48c.27,0,.5.1.7.29.2.19.3.42.3.68v10.69h5.46v-10.69c0-.26.1-.49.3-.68s.43-.29.69-.29h2.48c.26,0,.5.1.69.29.2.19.3.42.3.68v10.69h5.46v-10.69c0-.26.1-.49.3-.68.2-.19.43-.29.69-.29h2.48c.26,0,.5.1.69.29s.3.42.3.68v11.17c0,1.07-.39,1.98-1.17,2.74s-1.71,1.14-2.8,1.14h-25.56c-.43,0-.79-.14-1.07-.41s-.42-.62-.42-1.04v-1.46c0-.42.14-.77.42-1.04.28-.28.64-.41,1.07-.41h5.21v-10.69Z"/>
    <path d="M561.12,142.37c.2-.19.43-.29.69-.29h2.48c.26,0,.5.1.69.29.2.19.3.42.3.68v15.06c0,1.46-.17,2.7-.52,3.72-.35,1.02-.84,1.86-1.46,2.53-.63.66-1.37,1.15-2.23,1.46-.86.31-1.8.46-2.83.46-1.16,0-2.37-.17-3.65-.51-1.27-.34-2.59-.83-3.94-1.48l1.44-3.45c.76.36,1.63.68,2.6.97.98.29,1.93.44,2.85.44.46,0,.89-.06,1.29-.19.4-.13.74-.35,1.04-.66.3-.31.53-.73.7-1.26s.25-1.21.25-2.02v-15.06c0-.26.1-.49.3-.68Z"/>
    <path d="M601.91,152.96c.56.55.84,1.25.84,2.09v1.46c0,1.2-.23,2.33-.7,3.4s-1.1,2-1.91,2.79-1.76,1.42-2.85,1.87c-1.09.45-2.25.68-3.47.68h-7.2c-1.22,0-2.38-.23-3.47-.68-1.09-.45-2.04-1.08-2.85-1.87s-1.45-1.72-1.91-2.79c-.46-1.07-.69-2.2-.69-3.4v-5.1c0-.26.1-.49.3-.68.2-.19.43-.29.7-.29h2.48c.26,0,.5.1.7.29.2.19.3.42.3.68v5.49c0,.55.13,1.07.4,1.55s.6.91,1.02,1.26c.41.36.88.64,1.41.85.53.21,1.08.32,1.64.32h7.64c.6,0,1.14-.12,1.64-.36s.92-.57,1.26-.97c.35-.4.62-.87.82-1.41.2-.53.3-1.08.3-1.63h-4.46c-.83,0-1.53-.28-2.11-.85-.58-.57-.87-1.25-.87-2.06v-1.75c0-1.55.21-2.87.62-3.96.41-1.08.99-1.97,1.74-2.65.74-.68,1.63-1.17,2.65-1.48,1.03-.31,2.13-.46,3.33-.46h9.68c.63,0,1.03.32,1.19.97l2.08,9.47h4.02v4.37h-6.65c-.63,0-1.03-.32-1.19-.97l-2.08-9.37h-6.75c-1.16,0-2.14.29-2.95.87s-1.21,1.55-1.21,2.91v.58h4.47c.86,0,1.57.27,2.13.83ZM584.69,168.88c.53-.38,1.17-.57,1.94-.57s1.41.19,1.94.57.79.84.79,1.4-.26,1.02-.79,1.4-1.18.57-1.94.57-1.41-.19-1.94-.57-.79-.85-.79-1.4.26-1.02.79-1.4ZM591.14,168.88c.53-.38,1.17-.57,1.93-.57s1.41.19,1.94.57.79.84.79,1.4-.26,1.02-.79,1.4-1.17.57-1.94.57-1.41-.19-1.93-.57-.79-.85-.79-1.4.27-1.02.79-1.4ZM606.03,161.65c.53-.42,1.17-.63,1.93-.63s1.41.21,1.93.63.79.94.79,1.55-.27,1.13-.79,1.55-1.17.63-1.93.63-1.41-.21-1.93-.63-.79-.94-.79-1.55.27-1.13.79-1.55ZM606.03,166.51c.53-.42,1.17-.63,1.93-.63s1.41.21,1.93.63.79.94.79,1.55-.27,1.13-.79,1.55-1.17.63-1.93.63-1.41-.21-1.93-.63-.79-.94-.79-1.55.27-1.13.79-1.55Z"/>
    <path d="M615.09,154.15c.28-.28.64-.41,1.07-.41h12.5c-.33-.78-.67-1.68-1.02-2.7-.35-1.02-.76-1.99-1.24-2.91s-1.03-1.7-1.66-2.33c-.63-.63-1.41-.95-2.33-.95-.56,0-1.11.11-1.64.34s-1.08.52-1.64.87l-1.49-3.01c.89-.71,1.86-1.29,2.9-1.75s2.08-.68,3.1-.68,1.85.21,2.58.63,1.36.98,1.91,1.68,1.03,1.5,1.46,2.4c.43.91.85,1.85,1.27,2.82.41.97.84,1.94,1.29,2.92.45.97.97,1.86,1.56,2.67h2.28v4.37h-19.85c-.43,0-.79-.14-1.07-.41s-.42-.62-.42-1.04v-1.46c0-.42.14-.77.42-1.04Z"/>
    <path d="M641.91,133.94c.46-.41.84-.82,1.14-1.24-.13.03-.31.05-.55.05-.79,0-1.48-.23-2.06-.68-.58-.45-.87-1.15-.87-2.09s.31-1.64.94-2.11,1.27-.7,1.94-.7c.86,0,1.56.29,2.11.87s.82,1.28.82,2.09c0,.36-.08.79-.22,1.29-.15.5-.41,1.04-.77,1.63-.36.58-.83,1.16-1.41,1.72s-1.28,1.08-2.11,1.53l-.7-1.21c.7-.36,1.27-.74,1.74-1.14ZM641.56,131.03c.36.21.78.32,1.24.32.56,0,.91-.11,1.04-.34s.2-.5.2-.83c0-.45-.14-.84-.42-1.17-.28-.32-.65-.49-1.12-.49-.26,0-.58.11-.94.34s-.55.6-.55,1.12c0,.49.18.83.55,1.04Z"/>
    <path d="M634.94,154.15c.28-.28.64-.41,1.07-.41h5.21v-10.69c0-.26.1-.49.3-.68.2-.19.43-.29.69-.29h2.48c.26,0,.5.1.69.29s.3.42.3.68v11.17c0,1.07-.39,1.98-1.17,2.74s-1.71,1.14-2.8,1.14h-5.71c-.43,0-.79-.14-1.07-.41s-.42-.62-.42-1.04v-1.46c0-.42.14-.77.42-1.04ZM635.8,161.65c.53-.42,1.17-.63,1.94-.63s1.41.21,1.94.63.79.94.79,1.55-.26,1.13-.79,1.55-1.17.63-1.94.63-1.41-.21-1.94-.63-.79-.94-.79-1.55.26-1.13.79-1.55ZM642.26,161.65c.53-.42,1.17-.63,1.94-.63s1.41.21,1.94.63.79.94.79,1.55-.26,1.13-.79,1.55-1.18.63-1.94.63-1.41-.21-1.94-.63-.79-.94-.79-1.55.26-1.13.79-1.55Z"/>
    <path d="M235.79,189.68c0-1.17.26-2.18.77-3.04s1.17-1.56,1.98-2.11c.81-.55,1.75-.96,2.8-1.24,1.06-.27,2.13-.41,3.23-.41,1.19,0,2.35.16,3.47.49s2.17.81,3.13,1.46v14.08h-15.38v-9.23ZM246.71,187.79c-1.09-.36-2-.53-2.73-.53-.99,0-1.86.23-2.61.68-.74.45-1.12,1.12-1.12,1.99v4.61h6.45v-6.75Z"/>
    <path d="M251.5,202.62c.98.31,1.91.46,2.8.46s1.71-.29,2.36-.87c.65-.58.97-1.68.97-3.3v-15.06c0-.26.1-.49.3-.68.2-.19.43-.29.69-.29h2.48c.26,0,.5.1.69.29.2.19.3.42.3.68v10.69h3.23v4.37h-3.23c0,1.46-.17,2.7-.52,3.74-.35,1.04-.83,1.89-1.46,2.55-.63.66-1.37,1.15-2.23,1.46-.86.31-1.8.46-2.83.46-1.16,0-2.37-.18-3.65-.53-1.27-.36-2.59-.86-3.94-1.51l1.44-3.45c.76.36,1.63.69,2.6,1Z"/>
    <path d="M264.28,194.93c.3-.26.65-.39,1.04-.39h4.81c-.76-.75-1.31-1.55-1.66-2.43-.35-.87-.52-1.75-.52-2.62,0-1.07.21-2.02.65-2.87s1.01-1.55,1.74-2.14c.73-.58,1.58-1.03,2.56-1.34.98-.31,2.03-.46,3.15-.46,1.06,0,2.15.14,3.27.41,1.12.28,2.27.69,3.42,1.24l-1.69,3.79c-.66-.26-1.39-.5-2.18-.73s-1.6-.34-2.43-.34c-.4,0-.84.06-1.31.17s-.93.29-1.34.53-.76.57-1.04.97c-.28.4-.42.91-.42,1.53,0,.45.1.92.3,1.41.2.49.5.95.89,1.38s.88.79,1.46,1.07,1.23.41,1.96.41h6.65l-.89,4.37h-17.37c-.43,0-.79-.14-1.07-.41s-.42-.62-.42-1.04v-1.46c0-.45.15-.81.45-1.07Z"/>
    <path d="M293.56,172.49c.2.19.3.42.3.68v21.37h3.23v4.37h-6.7c-.26,0-.5-.1-.69-.29-.2-.19-.3-.42-.3-.68v-24.77c0-.26.1-.49.3-.68.2-.19.43-.29.69-.29h2.48c.26,0,.5.1.69.29Z"/>
    <path d="M296.01,198.5c-.28-.28-.42-.62-.42-1.04v-1.46c0-.42.14-.77.42-1.04.28-.28.64-.41,1.07-.41h5.21v-10.69c0-.26.1-.49.3-.68.2-.19.43-.29.69-.29h2.48c.26,0,.5.1.69.29.2.19.3.42.3.68v10.69h5.46v-10.69c0-.26.1-.49.3-.68.2-.19.43-.29.69-.29h2.48c.26,0,.5.1.69.29.2.19.3.42.3.68v10.69h5.46v-10.69c0-.26.1-.49.3-.68.2-.19.43-.29.69-.29h2.48c.26,0,.5.1.69.29.2.19.3.42.3.68v10.69h5.21v4.37h-34.74c-.43,0-.79-.14-1.07-.41ZM309.29,176.71c.53-.42,1.17-.63,1.94-.63s1.41.21,1.94.63.79.94.79,1.55-.26,1.13-.79,1.55-1.17.63-1.94.63-1.41-.21-1.94-.63-.79-.94-.79-1.55.26-1.13.79-1.55ZM312.51,171.86c.53-.42,1.17-.63,1.94-.63s1.41.21,1.94.63.79.94.79,1.55-.26,1.13-.79,1.55-1.17.63-1.94.63-1.41-.21-1.94-.63-.79-.94-.79-1.55.26-1.13.79-1.55ZM315.74,176.71c.53-.42,1.17-.63,1.94-.63s1.41.21,1.94.63.79.94.79,1.55-.26,1.13-.79,1.55-1.17.63-1.94.63-1.41-.21-1.94-.63-.79-.94-.79-1.55.26-1.13.79-1.55Z"/>
    <path d="M330.75,198.5c-.28-.28-.42-.62-.42-1.04v-1.46c0-.42.14-.77.42-1.04.28-.28.64-.41,1.07-.41h3.23v-4.76c0-.97.22-1.84.67-2.6.45-.76,1.04-1.4,1.79-1.92.74-.52,1.6-.91,2.58-1.17.98-.26,1.99-.39,3.05-.39,1.29,0,2.57.2,3.85.61,1.27.4,2.42,1.03,3.45,1.87v8.26c0,1.07-.21,2.01-.62,2.82s-.96,1.48-1.64,2.02c-.68.53-1.46.93-2.36,1.19-.89.26-1.84.39-2.83.39-1.26,0-2.34-.17-3.25-.51s-1.89-.82-2.95-1.43h-4.96c-.43,0-.79-.14-1.07-.41ZM341.19,196.26c.6.15,1.19.22,1.79.22.79,0,1.49-.15,2.08-.44.6-.29.89-.75.89-1.36v-5.97c-.3-.16-.71-.31-1.24-.44-.53-.13-1.09-.19-1.69-.19-.86,0-1.66.18-2.41.53-.74.36-1.12.99-1.12,1.89v5.05c.53.32,1.09.56,1.69.7Z"/>
    <path d="M362.53,198.62c-.2-.19-.3-.42-.3-.68v-1.94c0-.26.1-.49.3-.68.2-.19.43-.29.69-.29h2.48c-.79-1.17-1.41-2.23-1.84-3.21-.43-.97-.65-1.98-.65-3.01,0-.87.14-1.6.42-2.19.28-.58.65-1.04,1.09-1.38.45-.34.96-.58,1.54-.7.58-.13,1.18-.19,1.81-.19,1.09,0,2.21.17,3.35.51,1.14.34,2.14.77,3,1.29l-1.54,3.06c-.26-.16-.75-.36-1.46-.58-.71-.23-1.41-.34-2.11-.34-.43,0-.8.08-1.12.24s-.47.5-.47,1.02c0,.49.15,1.01.45,1.58.3.57.63,1.11.99,1.63.36.52.73.99,1.09,1.41.36.42.6.71.69.87h3.92c.26,0,.5.1.69.29.2.19.3.42.3.68v1.94c0,.26-.1.49-.3.68-.2.19-.43.29-.69.29h-11.66c-.26,0-.5-.1-.69-.29Z"/>
    <path d="M385.85,172.49c.2.19.3.42.3.68v21.37h3.23v4.37h-6.7c-.26,0-.5-.1-.69-.29-.2-.19-.3-.42-.3-.68v-24.77c0-.26.1-.49.3-.68.2-.19.43-.29.69-.29h2.48c.26,0,.5.1.69.29Z"/>
    <path d="M388.31,194.95c.28-.28.64-.41,1.07-.41h5.21v-10.69c0-.26.1-.49.3-.68.2-.19.43-.29.7-.29h2.48c.27,0,.5.1.7.29.2.19.3.42.3.68v10.69h5.21v4.37h-14.89c-.43,0-.79-.14-1.07-.41s-.42-.62-.42-1.04v-1.46c0-.42.14-.77.42-1.04ZM390.17,202.45c.53-.42,1.17-.63,1.94-.63s1.41.21,1.94.63.79.94.79,1.55-.26,1.13-.79,1.55-1.17.63-1.94.63-1.41-.21-1.94-.63-.79-.94-.79-1.55.26-1.13.79-1.55ZM396.62,202.45c.53-.42,1.17-.63,1.94-.63s1.41.21,1.93.63.79.94.79,1.55-.27,1.13-.79,1.55-1.17.63-1.93.63-1.41-.21-1.94-.63-.79-.94-.79-1.55.26-1.13.79-1.55Z"/>
    <path d="M403.2,194.95c.28-.28.64-.41,1.07-.41h12.51c-.33-.78-.67-1.68-1.02-2.7-.35-1.02-.76-1.99-1.24-2.91-.48-.92-1.04-1.7-1.66-2.33-.63-.63-1.41-.95-2.33-.95-.56,0-1.11.11-1.64.34s-1.08.52-1.64.87l-1.49-3.01c.89-.71,1.86-1.29,2.9-1.75,1.04-.45,2.08-.68,3.1-.68s1.85.21,2.58.63c.73.42,1.36.98,1.91,1.68.54.7,1.03,1.5,1.46,2.4.43.91.85,1.85,1.27,2.82.41.97.84,1.94,1.29,2.92.45.97.97,1.86,1.56,2.67h2.28v4.37h-19.85c-.43,0-.79-.14-1.07-.41s-.42-.62-.42-1.04v-1.46c0-.42.14-.77.42-1.04Z"/>
    <path d="M433.49,172.49c.2.19.3.42.3.68v24.77c0,.26-.1.49-.3.68-.2.19-.43.29-.7.29h-2.48c-.26,0-.5-.1-.7-.29-.2-.19-.3-.42-.3-.68v-24.77c0-.26.1-.49.3-.68.2-.19.43-.29.7-.29h2.48c.27,0,.5.1.7.29Z"/>
    <path d="M440.89,187.45c.43-1.04,1.01-1.89,1.74-2.57.73-.68,1.57-1.18,2.53-1.51.96-.32,1.98-.49,3.08-.49,1.26,0,2.51.2,3.77.61,1.26.41,2.46,1.01,3.62,1.82v13.6c0,1.46-.17,2.7-.52,3.74-.35,1.04-.83,1.89-1.46,2.55-.63.66-1.37,1.15-2.23,1.46-.86.31-1.8.46-2.83.46-1.16,0-2.33-.18-3.52-.53-1.19-.36-2.46-.86-3.82-1.51l1.44-3.4c.79.36,1.63.66,2.51.92.88.26,1.73.39,2.56.39.99,0,1.81-.28,2.46-.85.65-.57.97-1.64.97-3.23h-6.45c-1.26,0-2.32-.42-3.18-1.26-.86-.84-1.29-1.88-1.29-3.11v-3.4c0-1.42.21-2.65.65-3.69ZM451.16,187.74c-.86-.32-1.8-.49-2.83-.49-.96,0-1.8.31-2.53.92-.73.62-1.09,1.6-1.09,2.96v3.4h6.45v-6.8Z"/>
    <path d="M468.8,186.64c.51-.86,1.17-1.56,1.99-2.11.81-.55,1.75-.96,2.8-1.24,1.06-.27,2.13-.41,3.22-.41,1.19,0,2.35.16,3.47.49s2.17.81,3.12,1.46v9.71h3.23v4.37h-14.14v5.83h-4.47v-15.06c0-1.17.26-2.18.77-3.04ZM478.95,187.79c-1.09-.36-2-.53-2.73-.53-.99,0-1.86.23-2.61.68-.74.45-1.12,1.12-1.12,1.99v4.61h6.45v-6.75Z"/>
    <path d="M491.85,183.85c0-.26.1-.49.3-.68.2-.19.43-.29.7-.29h2.48c.26,0,.5.1.7.29.2.19.3.42.3.68v10.69h5.46v-10.69c0-.26.1-.49.3-.68.2-.19.43-.29.7-.29h2.48c.27,0,.5.1.7.29.2.19.3.42.3.68v10.69h5.46v-10.69c0-.26.1-.49.3-.68s.43-.29.69-.29h2.48c.26,0,.5.1.69.29.2.19.3.42.3.68v11.17c0,1.07-.39,1.98-1.17,2.74s-1.71,1.14-2.8,1.14h-25.55c-.43,0-.79-.14-1.07-.41s-.42-.62-.42-1.04v-1.46c0-.42.14-.77.42-1.04.28-.28.64-.41,1.07-.41h5.21v-10.69Z"/>
    <path d="M522.91,183.17c.2-.19.43-.29.7-.29h2.48c.27,0,.5.1.7.29.2.19.3.42.3.68v15.06c0,1.46-.17,2.7-.52,3.72-.35,1.02-.83,1.86-1.46,2.53s-1.37,1.15-2.23,1.46c-.86.31-1.8.46-2.83.46-1.16,0-2.37-.17-3.65-.51-1.27-.34-2.59-.83-3.94-1.48l1.44-3.45c.76.36,1.63.68,2.61.97.98.29,1.93.44,2.85.44.46,0,.89-.06,1.29-.19.4-.13.75-.35,1.04-.66.3-.31.53-.73.7-1.26.17-.53.25-1.21.25-2.02v-15.06c0-.26.1-.49.3-.68Z"/>
    <path d="M544.45,198.91c-1.79,0-3.06-.33-3.82-1-.76-.66-1.14-1.51-1.14-2.55,0-.78.2-1.65.59-2.62l2.73-6.75c.36-.91.97-1.65,1.81-2.23s1.78-.87,2.8-.87h7.44c.27,0,.5.1.7.29.2.19.3.42.3.68v10.69h3.23v4.37h-14.64ZM551.4,187.25h-4.27l-2.93,7.29h7.2v-7.29Z"/>
    <path d="M558.02,194.95c.28-.28.64-.41,1.07-.41h5.21v-10.69c0-.26.1-.49.3-.68.2-.19.43-.29.7-.29h2.48c.27,0,.5.1.7.29.2.19.3.42.3.68v11.17c0,1.07-.39,1.98-1.17,2.74s-1.71,1.14-2.8,1.14h-5.71c-.43,0-.79-.14-1.07-.41s-.42-.62-.42-1.04v-1.46c0-.42.14-.77.42-1.04ZM564.6,175.74c.53-.42,1.18-.63,1.94-.63s1.41.21,1.94.63.79.94.79,1.55-.26,1.13-.79,1.55-1.17.63-1.94.63-1.41-.21-1.94-.63-.79-.94-.79-1.55.26-1.13.79-1.55Z"/>
    <path d="M579.38,172.49c.2.19.3.42.3.68v21.37h3.22v4.37h-6.7c-.26,0-.5-.1-.69-.29-.2-.19-.3-.42-.3-.68v-24.77c0-.26.1-.49.3-.68.2-.19.43-.29.69-.29h2.48c.26,0,.5.1.69.29Z"/>
    <path d="M581.84,198.5c-.28-.28-.42-.62-.42-1.04v-1.46c0-.42.14-.77.42-1.04.28-.28.64-.41,1.07-.41h12.65v-3.3c0-.75-.13-1.37-.4-1.87-.27-.5-.63-.91-1.09-1.24s-1-.55-1.61-.68c-.61-.13-1.27-.19-1.96-.19-.56,0-1.13.05-1.71.15-.58.1-1.1.23-1.56.39l-1.49-3.79,11.86-11.66,3.18,3.11-7.49,7.38c1.99.32,3.61,1.17,4.86,2.55,1.26,1.38,1.89,3.33,1.89,5.85v3.3h3.22v4.37h-20.34c-.43,0-.79-.14-1.07-.41Z"/>
    <path d="M602.19,198.5c-.28-.28-.42-.62-.42-1.04v-1.46c0-.42.14-.77.42-1.04.28-.28.64-.41,1.07-.41h3.23v-4.76c0-.97.22-1.84.67-2.6.45-.76,1.04-1.4,1.79-1.92.74-.52,1.61-.91,2.58-1.17s1.99-.39,3.05-.39c1.29,0,2.57.2,3.85.61,1.27.4,2.42,1.03,3.45,1.87v8.26c0,1.07-.21,2.01-.62,2.82s-.96,1.48-1.64,2.02c-.68.53-1.46.93-2.36,1.19-.89.26-1.84.39-2.83.39-1.26,0-2.34-.17-3.25-.51s-1.89-.82-2.95-1.43h-4.96c-.43,0-.79-.14-1.07-.41ZM612.63,196.26c.6.15,1.19.22,1.79.22.79,0,1.49-.15,2.08-.44.59-.29.89-.75.89-1.36v-5.97c-.3-.16-.71-.31-1.24-.44-.53-.13-1.09-.19-1.69-.19-.86,0-1.66.18-2.41.53-.74.36-1.12.99-1.12,1.89v5.05c.53.32,1.09.56,1.69.7Z"/>
    <path d="M632.01,202.67c-.25-.08-.49-.12-.72-.12-.26,0-.49.06-.67.19-.18.13-.27.36-.27.68,0,.26.12.5.35.73s.58.34,1.04.34h1.88v2.19h-6.15v-2.19h1.19c-.46-.39-.7-.89-.7-1.5,0-.75.3-1.33.89-1.75.6-.42,1.29-.63,2.08-.63.46,0,.93.09,1.41.27.48.18.88.4,1.22.66l-.94,1.46c-.17-.13-.37-.24-.62-.32ZM632.48,172.49c.2.19.3.42.3.68v21.37h3.23v4.37h-6.7c-.26,0-.5-.1-.7-.29-.2-.19-.3-.42-.3-.68v-24.77c0-.26.1-.49.3-.68.2-.19.43-.29.7-.29h2.48c.27,0,.5.1.7.29Z"/>
    <path d="M634.94,194.95c.28-.28.64-.41,1.07-.41h5.21v-10.69c0-.26.1-.49.3-.68.2-.19.43-.29.7-.29h2.48c.26,0,.5.1.7.29.2.19.3.42.3.68v11.17c0,1.07-.39,1.98-1.17,2.74s-1.71,1.14-2.8,1.14h-5.71c-.43,0-.79-.14-1.07-.41s-.42-.62-.42-1.04v-1.46c0-.42.14-.77.42-1.04ZM639.08,202.45c.53-.42,1.17-.63,1.94-.63s1.41.21,1.94.63.79.94.79,1.55-.26,1.13-.79,1.55-1.17.63-1.94.63-1.41-.21-1.94-.63-.79-.94-.79-1.55.26-1.13.79-1.55Z"/>
    <path d="M394.09,239.71c-1.79,0-3.06-.33-3.82-1-.76-.66-1.14-1.51-1.14-2.55,0-.78.2-1.65.6-2.62l2.73-6.75c.36-.91.97-1.65,1.81-2.23.84-.58,1.78-.87,2.8-.87h7.44c.26,0,.5.1.7.29.2.19.3.42.3.68v10.69h3.23v4.37h-14.64ZM401.04,228.05h-4.27l-2.93,7.29h7.2v-7.29Z"/>
    <path d="M411.96,213.97c0-.26.1-.49.3-.68.2-.19.43-.29.69-.29h2.48c.26,0,.5.1.69.29.2.19.3.42.3.68v21.86c0,1.07-.39,1.98-1.17,2.74s-1.71,1.14-2.8,1.14h-3.72c-.43,0-.79-.14-1.07-.41s-.42-.62-.42-1.04v-1.46c0-.42.14-.77.42-1.04.28-.28.64-.41,1.07-.41h3.23v-21.37Z"/>
    <path d="M423.52,228.25c.43-1.04,1.01-1.89,1.74-2.57.73-.68,1.57-1.18,2.53-1.51s1.98-.49,3.08-.49c1.26,0,2.51.2,3.77.61,1.26.41,2.46,1.01,3.62,1.82v9.23h3.22v4.37h-3.22c0,1.46-.17,2.7-.52,3.74s-.83,1.89-1.46,2.55c-.63.66-1.37,1.15-2.23,1.46-.86.31-1.8.46-2.83.46-1.16,0-2.33-.18-3.52-.53-1.19-.36-2.46-.86-3.82-1.51l1.44-3.4c.79.36,1.63.66,2.51.92s1.73.39,2.55.39c.99,0,1.81-.28,2.46-.85.64-.57.97-1.64.97-3.23h-6.45c-1.26,0-2.32-.42-3.18-1.26s-1.29-1.88-1.29-3.11v-3.4c0-1.42.21-2.66.64-3.69ZM433.79,228.54c-.86-.32-1.8-.49-2.83-.49-.96,0-1.8.31-2.53.92s-1.09,1.6-1.09,2.96v3.4h6.45v-6.8Z"/>
    <path d="M440.41,235.75c.28-.28.64-.41,1.07-.41h12.5c-.33-.78-.67-1.68-1.02-2.7-.35-1.02-.76-1.99-1.24-2.91-.48-.92-1.03-1.7-1.66-2.33-.63-.63-1.41-.95-2.33-.95-.56,0-1.11.11-1.64.34s-1.07.52-1.64.87l-1.49-3.01c.89-.71,1.86-1.29,2.9-1.75s2.08-.68,3.1-.68,1.85.21,2.58.63c.73.42,1.37.98,1.91,1.68.55.7,1.03,1.5,1.46,2.4.43.91.85,1.85,1.27,2.82.41.97.84,1.94,1.29,2.92.45.97.97,1.86,1.56,2.67h2.28v4.37h-19.85c-.43,0-.79-.14-1.07-.41s-.42-.62-.42-1.04v-1.46c0-.42.14-.77.42-1.04Z"/>
    <path d="M495.07,235.34v4.37h-3.23v3.4c0,1.07-.39,1.98-1.17,2.74-.78.76-1.71,1.14-2.8,1.14h-6.45c-1.22,0-2.38-.23-3.47-.68-1.09-.45-2.04-1.08-2.85-1.87s-1.45-1.72-1.91-2.79c-.46-1.07-.69-2.2-.69-3.4v-8.26c0-.26.1-.49.3-.68.2-.19.43-.29.7-.29h2.48c.27,0,.5.1.7.29.2.19.3.42.3.68v8.26c0,.52.11,1.04.32,1.55.22.52.5.99.87,1.41.36.42.79.76,1.29,1.02s1.04.39,1.64.39h6.3v-17.97c0-.26.1-.49.3-.68.2-.19.43-.29.7-.29h2.48c.27,0,.5.1.7.29.2.19.3.42.3.68v10.69h3.23ZM480.24,216.54c.53-.42,1.17-.63,1.94-.63s1.41.21,1.94.63.79.94.79,1.55-.26,1.13-.79,1.55-1.17.63-1.94.63-1.41-.21-1.94-.63-.79-.94-.79-1.55.26-1.13.79-1.55Z"/>
    <path d="M494.01,239.29c-.28-.28-.42-.62-.42-1.04v-1.46c0-.42.14-.77.42-1.04.28-.28.64-.41,1.07-.41h3.23v-4.76c0-.97.22-1.84.67-2.6s1.04-1.4,1.79-1.92c.74-.52,1.6-.91,2.58-1.17.98-.26,1.99-.39,3.05-.39,1.29,0,2.57.2,3.84.61,1.27.4,2.42,1.03,3.45,1.87v8.26c0,1.07-.21,2.01-.62,2.82-.41.81-.96,1.48-1.64,2.02-.68.53-1.46.93-2.36,1.19-.89.26-1.84.39-2.83.39-1.26,0-2.34-.17-3.25-.51-.91-.34-1.89-.82-2.95-1.43h-4.96c-.43,0-.79-.14-1.07-.41ZM504.45,237.06c.6.15,1.19.22,1.79.22.79,0,1.49-.15,2.08-.44.59-.29.89-.75.89-1.36v-5.97c-.3-.16-.71-.31-1.24-.44-.53-.13-1.09-.19-1.69-.19-.86,0-1.66.18-2.41.53-.74.36-1.12.99-1.12,1.89v5.05c.53.32,1.09.56,1.69.7Z"/>
    <path d="M524.92,243.42c.98.31,1.91.46,2.8.46s1.71-.29,2.36-.87.97-1.68.97-3.3v-15.06c0-.26.1-.49.3-.68s.43-.29.69-.29h2.48c.26,0,.5.1.69.29.2.19.3.42.3.68v10.69h3.23v4.37h-3.23c0,1.46-.17,2.7-.52,3.74s-.84,1.89-1.46,2.55c-.63.66-1.37,1.15-2.23,1.46-.86.31-1.8.46-2.83.46-1.16,0-2.37-.18-3.65-.53-1.27-.36-2.59-.86-3.94-1.51l1.44-3.45c.76.36,1.63.69,2.6,1Z"/>
    <path d="M537.7,235.73c.3-.26.64-.39,1.04-.39h4.81c-.76-.75-1.32-1.55-1.66-2.43-.35-.87-.52-1.75-.52-2.62,0-1.07.21-2.02.64-2.87s1.01-1.55,1.74-2.14c.73-.58,1.58-1.03,2.56-1.34.97-.31,2.03-.46,3.15-.46,1.06,0,2.15.14,3.28.41,1.12.28,2.27.69,3.42,1.24l-1.69,3.79c-.66-.26-1.39-.5-2.18-.73-.79-.23-1.6-.34-2.43-.34-.4,0-.83.06-1.31.17s-.93.29-1.34.53-.76.57-1.04.97c-.28.4-.42.91-.42,1.53,0,.45.1.92.3,1.41.2.49.5.95.89,1.38.4.44.88.79,1.46,1.07.58.28,1.23.41,1.96.41h6.65l-.89,4.37h-17.37c-.43,0-.79-.14-1.07-.41s-.42-.62-.42-1.04v-1.46c0-.45.15-.81.45-1.07Z"/>
    <path d="M566.98,213.29c.2.19.3.42.3.68v21.37h3.23v4.37h-6.7c-.27,0-.5-.1-.7-.29-.2-.19-.3-.42-.3-.68v-24.77c0-.26.1-.49.3-.68.2-.19.43-.29.7-.29h2.48c.26,0,.5.1.7.29Z"/>
    <path d="M569.43,239.29c-.28-.28-.42-.62-.42-1.04v-1.46c0-.42.14-.77.42-1.04.28-.28.64-.41,1.07-.41h5.21v-10.69c0-.26.1-.49.3-.68.2-.19.43-.29.69-.29h2.48c.26,0,.5.1.69.29s.3.42.3.68v10.69h5.46v-10.69c0-.26.1-.49.3-.68.2-.19.43-.29.7-.29h2.48c.26,0,.5.1.7.29.2.19.3.42.3.68v10.69h5.46v-10.69c0-.26.1-.49.3-.68.2-.19.43-.29.7-.29h2.48c.27,0,.5.1.7.29.2.19.3.42.3.68v10.69h5.21v4.37h-34.73c-.43,0-.79-.14-1.07-.41ZM582.71,217.51c.53-.42,1.17-.63,1.93-.63s1.41.21,1.93.63c.53.42.79.94.79,1.55s-.27,1.13-.79,1.55-1.17.63-1.93.63-1.41-.21-1.93-.63-.79-.94-.79-1.55.27-1.13.79-1.55ZM585.93,212.66c.53-.42,1.17-.63,1.94-.63s1.41.21,1.94.63.79.94.79,1.55-.26,1.13-.79,1.55-1.17.63-1.94.63-1.41-.21-1.94-.63-.79-.94-.79-1.55.26-1.13.79-1.55ZM589.16,217.51c.53-.42,1.17-.63,1.93-.63s1.41.21,1.94.63c.53.42.79.94.79,1.55s-.27,1.13-.79,1.55-1.17.63-1.94.63-1.41-.21-1.93-.63-.79-.94-.79-1.55.26-1.13.79-1.55Z"/>
    <path d="M604.17,239.29c-.28-.28-.42-.62-.42-1.04v-1.46c0-.42.14-.77.42-1.04.28-.28.64-.41,1.07-.41h3.23v-4.76c0-.97.22-1.84.67-2.6.45-.76,1.04-1.4,1.79-1.92.74-.52,1.6-.91,2.58-1.17.97-.26,1.99-.39,3.05-.39,1.29,0,2.57.2,3.85.61,1.27.4,2.42,1.03,3.45,1.87v8.26c0,1.07-.21,2.01-.62,2.82-.41.81-.96,1.48-1.64,2.02s-1.46.93-2.36,1.19c-.89.26-1.84.39-2.83.39-1.26,0-2.34-.17-3.25-.51-.91-.34-1.89-.82-2.95-1.43h-4.96c-.43,0-.79-.14-1.07-.41ZM614.62,237.06c.6.15,1.19.22,1.79.22.79,0,1.49-.15,2.08-.44.6-.29.89-.75.89-1.36v-5.97c-.3-.16-.71-.31-1.24-.44-.53-.13-1.09-.19-1.69-.19-.86,0-1.66.18-2.41.53-.74.36-1.12.99-1.12,1.89v5.05c.53.32,1.09.56,1.69.7Z"/>
    <path d="M630.94,228.25c.43-1.04,1.01-1.89,1.74-2.57.73-.68,1.57-1.18,2.53-1.51.96-.32,1.99-.49,3.08-.49,1.26,0,2.51.2,3.77.61,1.26.41,2.46,1.01,3.62,1.82v13.6c0,1.46-.17,2.7-.52,3.74-.35,1.04-.83,1.89-1.46,2.55-.63.66-1.37,1.15-2.23,1.46s-1.8.46-2.83.46c-1.16,0-2.33-.18-3.52-.53s-2.46-.86-3.82-1.51l1.44-3.4c.79.36,1.63.66,2.51.92s1.73.39,2.56.39c.99,0,1.81-.28,2.46-.85.65-.57.97-1.64.97-3.23h-6.45c-1.26,0-2.32-.42-3.18-1.26-.86-.84-1.29-1.88-1.29-3.11v-3.4c0-1.42.21-2.66.65-3.69ZM641.21,228.54c-.86-.32-1.8-.49-2.83-.49-.96,0-1.8.31-2.53.92-.73.62-1.09,1.6-1.09,2.96v3.4h6.45v-6.8Z"/>
  </g>
</svg>