<?xml version="1.0" encoding="UTF-8"?>
<svg id="Layer_1" xmlns="http://www.w3.org/2000/svg" version="1.1" viewBox="0 0 389.83 203.14">
  <!-- Generator: Adobe Illustrator 29.7.1, SVG Export Plug-In . SVG Version: 2.1.1 Build 8)  -->
  <defs>
    <style>
      .st0 {
        fill: #441a36;
      }

      .st1 {
        fill: #c9094e;
      }

      .st2, .st3 {
        fill: #fff;
      }

      .st4 {
        opacity: .3;
      }

      .st5 {
        fill: #050505;
        stroke: #020202;
        stroke-width: 7.17px;
      }

      .st5, .st3 {
        stroke-miterlimit: 10;
      }

      .st3 {
        stroke: #fff;
        stroke-width: 6.92px;
      }
    </style>
  </defs>
  <g>
    <g class="st4">
      <path class="st5" d="M23.13,104.18c-.28.39-.46.9-.46,1.39,0,.25.03.49.09.71l.05.16s.05.12.03.08l-.03-.08-.23-.64-.42-1.26c-.25-.84-.48-1.67-.66-2.51-.39-1.68-.64-3.37-.79-5.07-.28-3.4-.08-6.85.7-10.24,1.47-6.81,5.72-13.23,11.63-18.1,5.97-4.87,13.6-8.16,21.62-9.72,8.04-1.59,16.47-1.31,24.32.41l-3.89,1.83h0c2.63-7.6,7.25-14.67,13.68-20.62,3.21-2.97,6.89-5.62,10.92-7.86,4.05-2.22,8.45-4,13.04-5.33,4.59-1.32,9.38-2.2,14.22-2.58,4.84-.36,9.72-.27,14.53.26,9.64,1,18.87,3.92,27.08,8.06h0l-4.99.97c5.24-7.23,12.28-13.68,20.92-18.45,8.55-4.84,18.66-7.98,29.18-8.86,10.52-.97,21.42.69,30.99,4.41,9.6,3.76,17.83,9.35,24.33,16.23h0l-6.83-.99c6.84-3.64,14.67-6.07,22.82-6.93,8.15-.83,16.58-.08,24.33,2.32,3.88,1.18,7.55,2.82,10.91,4.8,3.37,1.97,6.44,4.29,9.06,6.89,5.24,5.23,8.89,11.22,10.85,17.81h0l-5.21-3.18c8.49-.22,17.02,1.46,24.33,4.89,7.31,3.42,13.35,8.63,16.94,14.84,3.64,6.19,4.62,13.31,3.03,19.89-1.57,6.6-5.53,12.7-11.1,17.48h0l-.24-3.28c7.7,5.44,13.54,12.78,15.83,21.02,1.1,4.1,1.44,8.42.5,12.63-.89,4.22-3.01,8.26-5.96,11.75-5.96,7.02-15.15,11.87-25.06,13.99-4.96,1.07-10.12,1.58-15.25,1.37-5.13-.23-10.18-1.09-15.03-2.44l3.89-1.66c-1.7,5.68-5.01,11.3-10.44,15.64-2.71,2.16-5.91,3.9-9.3,5.26-3.42,1.33-7.08,2.15-10.76,2.65-3.7.51-7.43.49-11.12.28-3.69-.26-7.31-.88-10.84-1.7-7.03-1.74-13.61-4.54-19.51-8.06h0l7.92-2.05c-.76,1.96-1.62,3.63-2.62,5.34-.99,1.69-2.1,3.33-3.34,4.92-2.47,3.17-5.43,6.13-8.91,8.71-3.48,2.56-7.45,4.79-11.84,6.34-4.37,1.54-9.02,2.53-13.73,2.88-9.45.75-18.96-1.09-27.15-4.65-8.27-3.53-15.11-9-20.08-15.33l8.37.21c-2.53,2.8-5.38,5.41-8.58,7.74-3.25,2.28-6.8,4.28-10.61,5.93-3.82,1.64-7.92,2.83-12.16,3.63-4.24.78-8.64,1.12-13.04.84-4.39-.26-8.77-1.06-12.9-2.43-4.13-1.36-7.96-3.32-11.28-5.68-3.33-2.36-6.14-5.1-8.5-8.04-2.36-2.95-4.26-6.05-5.7-9.44l8.11,1.77c-5.9,4.12-12.87,7.4-20.57,8.96-3.82.81-7.8,1.26-11.81,1.18-4-.06-8.05-.53-11.95-1.61-3.88-1.09-7.62-2.75-10.83-5.02-3.23-2.25-5.82-5.13-7.57-8.21s-2.79-6.33-3.22-9.55c-.44-3.24-.43-6.39.14-9.68l6.24,4.58c-8.12,1.73-17,1-24.54-2.04-7.55-2.99-13.85-8.37-16.75-14.97-2.95-6.57-2.48-13.91.79-20.2,1.63-3.15,3.94-6.06,6.81-8.56,1.41-1.27,3.01-2.39,4.68-3.42l1.29-.74.65-.37.31-.18s.01,0,.02.02c.04.07.18.4.65.71v-.05ZM32.5,107.22c-1.09,1.02-2.53,2.08-4.05,2.88l-.57.29-.24.14-.46.27-.92.53c-1.19.74-2.34,1.54-3.35,2.45-2.05,1.79-3.71,3.88-4.88,6.14-2.35,4.51-2.64,9.71-.62,14.2,1.98,4.5,6.32,8.26,11.71,10.4,5.39,2.17,11.75,2.71,17.59,1.46l7.26-1.55-1.02,6.13c-.81,4.9-.21,10.31,2.24,14.55,2.39,4.29,6.89,7.34,12.5,8.92,2.8.78,5.82,1.13,8.86,1.18,3.05.07,6.14-.28,9.14-.92,6.04-1.21,11.63-3.84,16.43-7.18l5.65-3.93,2.45,5.7c2.26,5.26,6.21,10.31,11.27,13.92,5.07,3.65,11.5,5.72,18.24,6.11,3.37.22,6.8-.04,10.15-.66,3.34-.63,6.63-1.57,9.7-2.9,3.07-1.33,5.95-2.95,8.61-4.81,2.61-1.91,4.95-4.05,7.04-6.35l4.4-4.83,3.98,5.04c4.08,5.17,9.63,9.62,16.29,12.45,6.59,2.87,14.15,4.31,21.47,3.72,3.66-.27,7.22-1.04,10.57-2.21,3.35-1.17,6.39-2.89,9.13-4.9,2.74-2.03,5.14-4.42,7.17-7.03,1.02-1.3,1.94-2.67,2.76-4.06.82-1.37,1.57-2.88,2.07-4.19l2.17-5.61,5.75,3.56h0c4.83,3.2,10.28,5.81,16.11,7.53,2.93.81,5.93,1.46,8.98,1.8,3.04.29,6.13.45,9.14.16,3.01-.28,5.98-.81,8.75-1.75,2.74-.97,5.33-2.21,7.58-3.83,4.51-3.23,7.66-7.8,9.46-12.74l.91-2.49,2.98.83c4.3,1.2,8.76,1.97,13.28,2.19,4.53.2,9.07-.25,13.43-1.18,8.74-1.83,16.76-6.1,21.82-12.05,2.52-2.97,4.3-6.32,5.06-9.86.82-3.54.54-7.24-.4-10.81-1.95-7.16-7.09-13.71-13.93-18.57l-2.06-1.46,1.82-1.82h0c4.6-4.36,7.64-9.74,8.62-15.31.99-5.57-.2-11.29-3.41-16.11-3.17-4.84-8.24-8.81-14.23-11.29-5.99-2.49-12.8-3.53-19.43-3.09l-4.1.27-1.11-3.45h0c-.73-2.56-1.94-5.17-3.4-7.61-1.49-2.44-3.3-4.73-5.39-6.81-2.09-2.08-4.52-3.9-7.17-5.45-2.65-1.56-5.54-2.87-8.62-3.8-6.14-1.9-12.88-2.51-19.46-1.84-6.58.7-12.95,2.67-18.54,5.64l-4,2.12-2.84-3.11h0c-5.27-5.9-12.35-10.96-20.34-14.27-8-3.3-17.07-4.89-26.09-4.25-9.01.57-17.9,3.08-25.57,7.21-7.76,4.04-14.24,9.67-19.16,16.09l-1.9,2.48-3.09-1.51h0c-7.35-3.76-15.6-6.42-24.2-7.36-4.29-.49-8.63-.6-12.94-.3-4.3.31-8.55,1.07-12.61,2.21-4.06,1.15-7.96,2.7-11.55,4.64-3.57,1.96-6.84,4.28-9.72,6.91-5.76,5.24-10.04,11.68-12.44,18.46h0l-.78,2.39-3.1-.57c-6.92-1.27-14.17-1.25-20.9.32-6.71,1.55-12.88,4.51-17.5,8.59-2.31,2.04-4.18,4.38-5.63,6.84-1.47,2.46-2.44,5.12-2.9,7.85-.49,2.73-.51,5.53-.15,8.31.19,1.39.47,2.78.86,4.13.18.68.41,1.35.64,2.02l.38.97.2.47.02.06.06.15.08.23c.1.31.17.64.21.98.07.68-.03,1.37-.23,1.94h0Z"/>
    </g>
    <path class="st3" d="M29.18,104.13c-.27.37-.44.86-.45,1.34,0,.24.03.47.09.68l.05.15s.05.12.03.08l-.03-.08-.23-.62-.4-1.22c-.24-.81-.47-1.62-.64-2.43-.38-1.62-.62-3.25-.77-4.89-.27-3.28-.08-6.61.68-9.88,1.42-6.57,5.52-12.77,11.22-17.46,5.76-4.7,13.13-7.87,20.86-9.38,7.76-1.53,15.89-1.26,23.47.4l-3.75,1.76h0c2.54-7.33,6.99-14.16,13.2-19.9,3.1-2.86,6.65-5.42,10.53-7.58,3.9-2.15,8.15-3.86,12.58-5.14,4.43-1.27,9.05-2.13,13.72-2.49,4.67-.35,9.38-.26,14.02.25,9.3.97,18.21,3.78,26.13,7.78h0l-4.82.93c5.05-6.97,11.85-13.2,20.19-17.8,8.25-4.67,18-7.7,28.15-8.55,10.15-.93,20.66.66,29.9,4.25,9.26,3.63,17.21,9.03,23.47,15.66h0l-6.59-.95c6.6-3.51,14.16-5.86,22.02-6.69,7.86-.8,16-.08,23.47,2.24,3.75,1.13,7.28,2.72,10.53,4.63,3.25,1.9,6.21,4.14,8.74,6.65,5.06,5.04,8.57,10.82,10.47,17.18h0l-5.02-3.06c8.19-.21,16.42,1.41,23.47,4.72,7.05,3.3,12.88,8.33,16.35,14.32,3.51,5.98,4.45,12.84,2.92,19.19-1.51,6.37-5.34,12.26-10.71,16.87h0l-.23-3.16c7.43,5.25,13.07,12.34,15.27,20.28,1.06,3.96,1.39,8.12.48,12.19-.85,4.07-2.9,7.97-5.75,11.34-5.75,6.77-14.61,11.45-24.18,13.5-4.79,1.03-9.76,1.52-14.71,1.32-4.95-.22-9.82-1.05-14.5-2.35l3.75-1.6c-1.64,5.49-4.83,10.9-10.07,15.09-2.61,2.08-5.7,3.76-8.97,5.07-3.3,1.28-6.83,2.07-10.38,2.55-3.57.49-7.17.47-10.73.27-3.56-.25-7.05-.85-10.46-1.64-6.79-1.68-13.13-4.38-18.82-7.78h0l7.64-1.98c-.73,1.89-1.56,3.5-2.53,5.15-.96,1.63-2.03,3.22-3.22,4.74-2.38,3.06-5.24,5.92-8.59,8.4-3.36,2.47-7.19,4.63-11.42,6.11-4.22,1.48-8.7,2.44-13.25,2.78-9.12.73-18.29-1.05-26.19-4.49-7.98-3.41-14.58-8.68-19.37-14.79l8.08.2c-2.44,2.7-5.2,5.22-8.28,7.47-3.13,2.2-6.56,4.13-10.23,5.72-3.68,1.58-7.65,2.73-11.73,3.5-4.09.76-8.34,1.08-12.58.81-4.24-.25-8.46-1.03-12.44-2.34-3.98-1.32-7.68-3.2-10.88-5.48-3.21-2.28-5.93-4.93-8.2-7.76-2.28-2.85-4.11-5.84-5.5-9.11l7.82,1.71c-5.69,3.98-12.42,7.14-19.85,8.65-3.69.78-7.52,1.22-11.39,1.14-3.86-.06-7.77-.51-11.53-1.56-3.75-1.06-7.35-2.66-10.45-4.84-3.12-2.17-5.61-4.95-7.3-7.92s-2.7-6.11-3.11-9.21c-.42-3.13-.41-6.16.14-9.34l6.02,4.42c-7.84,1.67-16.4.97-23.68-1.97-7.28-2.88-13.36-8.08-16.16-14.44-2.85-6.34-2.39-13.42.77-19.49,1.57-3.04,3.8-5.85,6.57-8.26,1.36-1.22,2.91-2.31,4.52-3.3l1.24-.71.62-.35.3-.17s.01,0,.02.02c.04.07.17.39.63.68l-.04-.03ZM38.22,107.06c-1.06.99-2.44,2.01-3.91,2.77l-.55.28-.24.14-.44.26-.89.51c-1.15.72-2.26,1.49-3.23,2.37-1.98,1.73-3.58,3.74-4.71,5.92-2.27,4.35-2.55,9.36-.59,13.7,1.91,4.35,6.1,7.97,11.3,10.04,5.2,2.09,11.33,2.61,16.97,1.41l7.01-1.49-.98,5.92c-.79,4.73-.2,9.95,2.17,14.03,2.3,4.14,6.65,7.09,12.06,8.61,2.7.75,5.61,1.09,8.55,1.14,2.94.07,5.92-.27,8.82-.89,5.83-1.17,11.22-3.7,15.86-6.92l5.46-3.79,2.36,5.5c2.18,5.08,5.99,9.95,10.88,13.43,4.89,3.52,11.1,5.52,17.6,5.9,3.25.21,6.56-.04,9.79-.64,3.22-.61,6.4-1.52,9.36-2.79,2.96-1.28,5.74-2.85,8.3-4.64,2.51-1.84,4.77-3.91,6.79-6.13l4.24-4.66,3.84,4.86c3.94,4.99,9.29,9.28,15.72,12.01,6.36,2.77,13.66,4.16,20.72,3.59,3.53-.26,6.97-1.01,10.2-2.13,3.23-1.13,6.16-2.78,8.81-4.73,2.64-1.96,4.96-4.26,6.92-6.78.99-1.26,1.87-2.57,2.66-3.92.79-1.33,1.51-2.78,2-4.04l2.09-5.41,5.55,3.44h0c4.66,3.09,9.92,5.61,15.55,7.26,2.83.78,5.72,1.41,8.66,1.74,2.93.28,5.91.44,8.82.15,2.9-.27,5.77-.78,8.44-1.69,2.64-.94,5.14-2.14,7.31-3.69,4.35-3.12,7.4-7.53,9.13-12.29l.88-2.4,2.88.81c4.15,1.16,8.45,1.9,12.82,2.11,4.37.19,8.75-.24,12.96-1.13,8.43-1.77,16.17-5.89,21.06-11.63,2.43-2.86,4.14-6.1,4.88-9.52.79-3.42.52-6.99-.39-10.43-1.88-6.91-6.84-13.23-13.45-17.92l-1.99-1.41,1.75-1.75h0c4.44-4.21,7.37-9.4,8.32-14.77.96-5.37-.19-10.9-3.29-15.55-3.06-4.67-7.95-8.5-13.73-10.9-5.78-2.41-12.35-3.4-18.75-2.99l-3.96.26-1.07-3.33h0c-.71-2.47-1.87-4.99-3.28-7.34-1.44-2.35-3.18-4.57-5.2-6.57-2.02-2.01-4.36-3.76-6.92-5.26-2.55-1.5-5.34-2.77-8.31-3.66-5.92-1.83-12.42-2.42-18.77-1.78-6.35.67-12.5,2.58-17.89,5.44l-3.86,2.05-2.74-3h0c-5.08-5.69-11.92-10.58-19.63-13.77-7.72-3.18-16.47-4.72-25.17-4.1-8.69.55-17.27,2.98-24.67,6.95-7.48,3.9-13.74,9.33-18.49,15.52l-1.84,2.39-2.98-1.46h0c-7.09-3.62-15.05-6.2-23.35-7.1-4.14-.47-8.33-.58-12.48-.29-4.15.3-8.25,1.03-12.17,2.14s-7.69,2.6-11.15,4.48c-3.44,1.89-6.6,4.13-9.38,6.66-5.56,5.05-9.68,11.27-12,17.81h0l-.76,2.31-2.99-.55c-6.67-1.22-13.68-1.21-20.17.31-6.48,1.49-12.43,4.35-16.89,8.29-2.23,1.97-4.03,4.22-5.44,6.6-1.42,2.38-2.35,4.94-2.8,7.57-.47,2.63-.5,5.33-.14,8.02.19,1.34.45,2.68.83,3.99.18.66.39,1.3.61,1.95l.36.94.19.45.02.06.06.15.08.22c.1.3.17.62.2.95.07.65-.03,1.32-.22,1.87l.02-.04Z"/>
    <path class="st1" d="M38.66,103.87c-.69-1.55-6.75-15.97,3.82-28.66,9.02-10.84,26.41-15.91,43.27-12.37,1.18-3.44,6.77-18.29,24.95-26.75,17.44-8.12,39.73-7.22,57.78,2.14,12.04-16.47,33.79-25.73,55.16-23.54,21.76,2.23,34.27,15.43,36.77,18.19,13.67-7.35,30.87-8.22,44.65-2.14,16.31,7.19,20.45,20.86,21.07,23.07,16.69-.79,31.75,7.28,36.77,19.26,4.1,9.78.97,20.87-7.95,28.86,12.53,8.81,17.77,22.16,13.2,33.19-6.16,14.89-29.67,24.34-52.59,17.59-1.27,3.85-4.3,10.45-11.82,14.98-12.73,7.66-33.22,6.31-49.9-4.28-.54,1.44-6.93,17.6-26.26,22.47-16.97,4.27-36.64-1.99-47.21-15.73-11.7,13.32-31.5,18.6-47.34,13.59-15.38-4.86-20.9-17.49-21.76-19.56-15.42,11.04-36.05,10.89-46.53,2.44-9.51-7.68-7.54-19.7-7.24-21.37-13.19,2.77-26.76-2.43-32.16-11.79-6.06-10.52-.46-23.94,13.31-29.59h0Z"/>
    <path d="M34.28,102.45c-.26.36-.43.84-.43,1.3,0,.23.03.46.08.66l.05.15s.04.12.03.08l-.03-.07-.22-.6-.39-1.18c-.23-.78-.45-1.57-.62-2.35-.37-1.57-.6-3.15-.74-4.74-.26-3.18-.07-6.41.65-9.58,1.38-6.37,5.35-12.38,10.88-16.93,5.59-4.55,12.72-7.63,20.22-9.09,7.52-1.48,15.41-1.22,22.75.38l-3.63,1.71h0c2.46-7.11,6.78-13.72,12.8-19.29,3-2.78,6.44-5.25,10.21-7.35,3.78-2.08,7.9-3.74,12.19-4.98,4.29-1.23,8.77-2.06,13.3-2.41,4.53-.34,9.09-.25,13.59.24,9.01.94,17.65,3.66,25.33,7.54h0l-4.67.91c4.9-6.76,11.49-12.8,19.57-17.25,8-4.53,17.45-7.46,27.29-8.29,9.83-.9,20.03.64,28.98,4.12,8.98,3.52,16.68,8.75,22.75,15.18h0l-6.39-.92c6.4-3.41,13.72-5.68,21.34-6.48,7.62-.78,15.51-.08,22.75,2.17,3.63,1.1,7.06,2.64,10.2,4.49,3.15,1.85,6.02,4.01,8.47,6.44,4.91,4.89,8.31,10.49,10.15,16.65h0l-4.87-2.97c7.94-.2,15.92,1.36,22.75,4.57,6.83,3.2,12.49,8.07,15.84,13.88,3.4,5.79,4.32,12.44,2.83,18.6-1.47,6.17-5.17,11.88-10.38,16.35h0l-.23-3.06c7.2,5.09,12.67,11.96,14.8,19.66,1.03,3.84,1.34,7.87.46,11.81-.83,3.94-2.81,7.72-5.58,10.99-5.57,6.56-14.16,11.1-23.44,13.08-4.64,1-9.46,1.48-14.26,1.28-4.79-.22-9.52-1.01-14.05-2.28l3.64-1.55c-1.59,5.32-4.68,10.57-9.76,14.62-2.53,2.02-5.52,3.64-8.69,4.92-3.2,1.24-6.62,2.01-10.07,2.47-3.46.48-6.95.46-10.4.26-3.45-.24-6.83-.82-10.14-1.59-6.58-1.63-12.73-4.25-18.25-7.54h0l7.41-1.92c-.71,1.83-1.51,3.39-2.45,4.99-.93,1.58-1.96,3.12-3.12,4.6-2.31,2.96-5.07,5.73-8.33,8.15-3.26,2.4-6.97,4.48-11.07,5.93-4.09,1.44-8.43,2.37-12.84,2.69-8.84.7-17.73-1.01-25.39-4.35-7.73-3.3-14.13-8.41-18.78-14.34l7.83.2c-2.37,2.62-5.04,5.06-8.03,7.24-3.04,2.13-6.36,4-9.92,5.54-3.57,1.53-7.41,2.65-11.37,3.39-3.96.73-8.08,1.05-12.2.79-4.11-.24-8.2-.99-12.06-2.27s-7.45-3.11-10.55-5.32c-3.11-2.21-5.75-4.77-7.95-7.52-2.21-2.76-3.99-5.66-5.33-8.83l7.58,1.65c-5.52,3.86-12.04,6.92-19.24,8.38-3.57.76-7.29,1.18-11.04,1.1-3.74-.06-7.53-.5-11.17-1.51-3.63-1.02-7.13-2.57-10.13-4.69-3.02-2.1-5.44-4.8-7.08-7.68-1.64-2.88-2.61-5.92-3.01-8.93-.41-3.03-.4-5.98.13-9.05l5.84,4.29c-7.6,1.62-15.9.94-22.95-1.91-7.06-2.8-12.95-7.83-15.66-14-2.76-6.14-2.32-13.01.74-18.89,1.52-2.95,3.69-5.67,6.37-8.01,1.32-1.18,2.82-2.24,4.38-3.2l1.2-.69.6-.34.29-.16s0,0,.02.02c.04.06.17.38.61.66v-.02ZM43.05,105.29c-1.02.96-2.36,1.95-3.79,2.69l-.53.27-.23.13-.43.25-.86.49c-1.11.7-2.19,1.44-3.13,2.29-1.92,1.67-3.47,3.63-4.56,5.74-2.2,4.22-2.47,9.08-.58,13.28,1.85,4.21,5.91,7.72,10.95,9.73,5.04,2.03,10.99,2.53,16.45,1.37l6.79-1.45-.95,5.73c-.76,4.58-.19,9.65,2.1,13.6,2.23,4.01,6.45,6.87,11.69,8.35,2.61.73,5.44,1.06,8.28,1.1,2.85.07,5.74-.26,8.55-.86,5.65-1.13,10.88-3.59,15.37-6.71l5.29-3.68,2.29,5.33c2.12,4.92,5.81,9.64,10.54,13.02,4.74,3.41,10.76,5.35,17.06,5.72,3.15.21,6.36-.04,9.49-.62,3.13-.59,6.2-1.47,9.08-2.71,2.87-1.24,5.57-2.76,8.05-4.5,2.44-1.78,4.62-3.79,6.58-5.94l4.11-4.52,3.72,4.72c3.82,4.84,9,8.99,15.24,11.64,6.17,2.69,13.24,4.03,20.08,3.48,3.42-.25,6.75-.98,9.88-2.07,3.13-1.09,5.97-2.7,8.54-4.58,2.56-1.9,4.8-4.13,6.71-6.57.96-1.22,1.81-2.49,2.58-3.8.77-1.28,1.47-2.69,1.94-3.91l2.03-5.25,5.38,3.33h0c4.52,3,9.61,5.43,15.07,7.04,2.74.76,5.54,1.37,8.39,1.68,2.84.27,5.73.42,8.55.15,2.81-.27,5.59-.76,8.18-1.64,2.56-.91,4.98-2.07,7.08-3.58,4.22-3.02,7.17-7.29,8.85-11.91l.85-2.33,2.79.78c4.02,1.12,8.19,1.84,12.42,2.05,4.23.18,8.48-.23,12.56-1.1,8.17-1.72,15.67-5.71,20.41-11.27,2.36-2.78,4.02-5.91,4.73-9.23.76-3.31.51-6.77-.37-10.11-1.82-6.7-6.63-12.82-13.03-17.37l-1.93-1.37,1.7-1.7h0c4.31-4.08,7.15-9.11,8.06-14.32.93-5.21-.19-10.56-3.19-15.07-2.96-4.53-7.71-8.23-13.31-10.56-5.6-2.33-11.97-3.3-18.17-2.89l-3.84.25-1.03-3.23h0c-.69-2.39-1.81-4.83-3.18-7.11-1.4-2.28-3.09-4.43-5.04-6.37-1.96-1.95-4.23-3.65-6.71-5.1-2.48-1.46-5.18-2.68-8.06-3.55-5.74-1.78-12.04-2.35-18.2-1.72-6.16.65-12.11,2.5-17.34,5.28l-3.74,1.99-2.65-2.91h0c-4.93-5.51-11.55-10.25-19.02-13.35-7.48-3.08-15.96-4.57-24.4-3.97-8.42.53-16.74,2.89-23.91,6.74-7.25,3.78-13.31,9.05-17.92,15.05l-1.78,2.32-2.89-1.41h0c-6.87-3.51-14.59-6.01-22.63-6.88-4.01-.46-8.07-.56-12.1-.28-4.03.29-7.99,1-11.8,2.07-3.8,1.08-7.45,2.52-10.8,4.34-3.34,1.83-6.39,4-9.09,6.46-5.39,4.9-9.39,10.92-11.63,17.26h0l-.73,2.24-2.9-.53c-6.47-1.18-13.26-1.17-19.55.3-6.28,1.45-12.04,4.22-16.37,8.04-2.16,1.91-3.91,4.09-5.27,6.4-1.38,2.3-2.28,4.78-2.72,7.34-.45,2.55-.48,5.17-.14,7.77.18,1.3.44,2.6.8,3.87.17.64.38,1.26.6,1.89l.35.91.19.44.02.05.06.14.08.21c.09.29.16.6.19.92.07.63-.03,1.28-.22,1.81l.02-.02Z"/>
  </g>
  <g>
    <path class="st0" d="M171.02,94.92c0-1.61.5-2.84,1.51-3.68,1-.84,2.12-1.26,3.33-1.26,1.43,0,2.65.49,3.66,1.47l5.91,5.89h12.58v9.47h-3.12l3.12,3.16c2.15,2.25,3.23,4.7,3.23,7.37,0,2.25-.81,4.21-2.42,5.89-1.61,1.68-4.03,2.53-7.26,2.53h-26.34c-2.65,0-5.16-.49-7.53-1.47s-4.43-2.33-6.18-4.05c-1.76-1.72-3.14-3.74-4.14-6.05-1-2.32-1.51-4.77-1.51-7.37v-12.63c0-.56.22-1.05.65-1.47.43-.42.93-.63,1.51-.63h5.38c.57,0,1.08.21,1.51.63.43.42.65.91.65,1.47v12.63c0,2.67.95,4.91,2.85,6.74,1.9,1.82,4.18,2.74,6.83,2.74h25.16l-17.85-17.79c-1-.98-1.51-2.18-1.51-3.58ZM163.71,133.3c1.15-.82,2.54-1.23,4.19-1.23s3.05.41,4.19,1.23c1.15.82,1.72,1.83,1.72,3.03s-.57,2.21-1.72,3.03c-1.15.82-2.54,1.23-4.19,1.23s-3.05-.41-4.19-1.23c-1.15-.82-1.72-1.83-1.72-3.03s.57-2.21,1.72-3.03ZM177.69,133.3c1.15-.82,2.54-1.23,4.19-1.23s3.05.41,4.19,1.23c1.15.82,1.72,1.83,1.72,3.03s-.57,2.21-1.72,3.03c-1.15.82-2.54,1.23-4.19,1.23s-3.05-.41-4.19-1.23c-1.15-.82-1.72-1.83-1.72-3.03s.57-2.21,1.72-3.03Z"/>
    <path class="st0" d="M195.7,105.92c-.61-.6-.91-1.35-.91-2.26v-3.16c0-.91.3-1.67.91-2.26.61-.6,1.38-.9,2.31-.9h27.42v-7.16c0-1.61-.29-2.96-.86-4.05-.57-1.09-1.36-1.98-2.37-2.68-1-.7-2.17-1.19-3.5-1.47s-2.74-.42-4.25-.42c-1.22,0-2.46.11-3.71.32s-2.38.49-3.39.84l-3.23-8.21,25.7-25.26,6.88,6.74-16.24,16c4.3.7,7.81,2.54,10.54,5.53,2.72,2.98,4.09,7.21,4.09,12.68v14.53c0,.56-.21,1.05-.65,1.47-.43.42-.93.63-1.5.63h-34.95c-.93,0-1.7-.3-2.31-.89Z"/>
    <path class="st0" d="M249.74,72.71c.43-.42.93-.63,1.5-.63h5.38c.57,0,1.08.21,1.5.63.43.42.65.91.65,1.47v32.63c0,3.16-.38,5.84-1.13,8.05-.75,2.21-1.81,4.04-3.17,5.47-1.36,1.44-2.98,2.49-4.84,3.16-1.86.67-3.91,1-6.13,1-2.51,0-5.14-.37-7.9-1.1-2.76-.74-5.61-1.81-8.55-3.21l3.12-7.47c1.65.77,3.53,1.47,5.65,2.1,2.11.63,4.18.95,6.18.95,1,0,1.94-.14,2.8-.42.86-.28,1.61-.75,2.26-1.42.65-.67,1.15-1.58,1.51-2.74s.54-2.61.54-4.37v-32.63c0-.56.22-1.05.65-1.47ZM249.74,56.6c1.15-.91,2.54-1.37,4.19-1.37s3.05.46,4.19,1.37c1.15.91,1.72,2.03,1.72,3.37s-.57,2.46-1.72,3.37c-1.15.91-2.54,1.37-4.19,1.37s-3.05-.46-4.19-1.37c-1.15-.91-1.72-2.04-1.72-3.37s.57-2.46,1.72-3.37Z"/>
  </g>
  <g>
    <path class="st2" d="M173.69,90.25c0-1.61.5-2.84,1.51-3.68,1-.84,2.12-1.26,3.33-1.26,1.43,0,2.65.49,3.66,1.47l5.91,5.89h12.58v9.47h-3.12l3.12,3.16c2.15,2.25,3.23,4.7,3.23,7.37,0,2.25-.81,4.21-2.42,5.89-1.61,1.68-4.03,2.53-7.26,2.53h-26.34c-2.65,0-5.16-.49-7.53-1.47s-4.43-2.33-6.18-4.05c-1.76-1.72-3.14-3.74-4.14-6.05-1-2.32-1.51-4.77-1.51-7.37v-12.63c0-.56.22-1.05.65-1.47.43-.42.93-.63,1.51-.63h5.38c.57,0,1.08.21,1.51.63.43.42.65.91.65,1.47v12.63c0,2.67.95,4.91,2.85,6.74,1.9,1.82,4.18,2.74,6.83,2.74h25.16l-17.85-17.79c-1-.98-1.51-2.18-1.51-3.58ZM166.38,128.64c1.15-.82,2.54-1.23,4.19-1.23s3.05.41,4.19,1.23c1.15.82,1.72,1.83,1.72,3.03s-.57,2.21-1.72,3.03c-1.15.82-2.54,1.23-4.19,1.23s-3.05-.41-4.19-1.23c-1.15-.82-1.72-1.83-1.72-3.03s.57-2.21,1.72-3.03ZM180.35,128.64c1.15-.82,2.54-1.23,4.19-1.23s3.05.41,4.19,1.23c1.15.82,1.72,1.83,1.72,3.03s-.57,2.21-1.72,3.03c-1.15.82-2.54,1.23-4.19,1.23s-3.05-.41-4.19-1.23c-1.15-.82-1.72-1.83-1.72-3.03s.57-2.21,1.72-3.03Z"/>
    <path class="st2" d="M198.37,101.25c-.61-.6-.91-1.35-.91-2.26v-3.16c0-.91.3-1.67.91-2.26.61-.6,1.38-.9,2.31-.9h27.42v-7.16c0-1.61-.29-2.96-.86-4.05-.57-1.09-1.36-1.98-2.37-2.68-1-.7-2.17-1.19-3.5-1.47s-2.74-.42-4.25-.42c-1.22,0-2.46.11-3.71.32s-2.38.49-3.39.84l-3.23-8.21,25.7-25.26,6.88,6.74-16.24,16c4.3.7,7.81,2.54,10.54,5.53,2.72,2.98,4.09,7.21,4.09,12.68v14.53c0,.56-.21,1.05-.65,1.47-.43.42-.93.63-1.5.63h-34.95c-.93,0-1.7-.3-2.31-.89Z"/>
    <path class="st2" d="M252.4,68.05c.43-.42.93-.63,1.5-.63h5.38c.57,0,1.08.21,1.5.63.43.42.65.91.65,1.47v32.63c0,3.16-.38,5.84-1.13,8.05-.75,2.21-1.81,4.04-3.17,5.47-1.36,1.44-2.98,2.49-4.84,3.16-1.86.67-3.91,1-6.13,1-2.51,0-5.14-.37-7.9-1.1-2.76-.74-5.61-1.81-8.55-3.21l3.12-7.47c1.65.77,3.53,1.47,5.65,2.1,2.11.63,4.18.95,6.18.95,1,0,1.94-.14,2.8-.42.86-.28,1.61-.75,2.26-1.42.65-.67,1.15-1.58,1.51-2.74s.54-2.61.54-4.37v-32.63c0-.56.22-1.05.65-1.47ZM252.4,51.94c1.15-.91,2.54-1.37,4.19-1.37s3.05.46,4.19,1.37c1.15.91,1.72,2.03,1.72,3.37s-.57,2.46-1.72,3.37c-1.15.91-2.54,1.37-4.19,1.37s-3.05-.46-4.19-1.37c-1.15-.91-1.72-2.04-1.72-3.37s.57-2.46,1.72-3.37Z"/>
  </g>
</svg>