<?xml version="1.0" encoding="UTF-8"?>
<svg id="Layer_1" xmlns="http://www.w3.org/2000/svg" version="1.1" viewBox="0 0 784.8 350.74">
  <!-- Generator: Adobe Illustrator 29.7.1, SVG Export Plug-In . SVG Version: 2.1.1 Build 8)  -->
  <defs>
    <style>
      .st0 {
        fill: #b25993;
      }
    </style>
  </defs>
  <g>
    <path d="M706.81,8.65c.8.78,1.2,1.88,1.14,2.96l-14.53,153.11,13.76-3.04c.52-.12,1.04-.11,1.54-.02.27,0,.54-.05.81,0,.27,0,.54-.05.81,0,.27,0,.54-.05.81,0,.27,0,.54-.05.81,0,.27,0,.55-.05.81,0,.27,0,.54-.05.81,0,.27,0,.54-.05.81,0,.27,0,.54-.05.81,0,.27,0,.54-.05.81,0,.27,0,.54-.05.81,0,.27,0,.54-.05.81,0,.27,0,.54-.05.81,0,.27,0,.54-.05.81,0,.27,0,.54-.05.81,0,.27,0,.54-.05.81,0,.27,0,.55-.05.81,0,.27,0,.55-.05.81,0,.27,0,.54-.05.81,0,.27,0,.55-.05.81,0,.27,0,.54-.05.81,0,1.73-.05,3.33.95,3.86,2.62l7.73,24.2,17.4-9.34c.69-.37,1.46-.44,2.23-.37.27-.03.53-.02.81,0,.27-.03.53-.02.81,0,.27-.03.53-.02.81,0,.27-.03.53-.02.81,0,.27-.03.53-.02.81,0,.27-.03.53-.02.81,0,.27-.03.53-.02.81,0,.27-.03.53-.02.81,0,.27-.03.53-.02.81,0,.27-.03.53-.02.81,0,.28-.03.53-.02.81,0,.28-.03.53-.02.81,0,.27-.03.53-.02.81,0,.28-.03.53-.02.81,0,.27-.03.53-.02.81,0,.27-.03.53-.02.81,0,.28-.03.53-.02.81,0,.27-.03.53-.02.81,0,.27-.03.53-.02.81,0,.27-.03.53-.02.81,0,.73-.09,1.47-.04,2.16.29,1.14.54,1.94,1.58,2.15,2.8l7.6,43.55,59.56,1.08c1.85.03,3.42,1.33,3.77,3.11.05.24.07.48.07.71,0,1.52-.93,2.93-2.41,3.53l-83.73,34.15c-.63.26-1.29.29-1.95.21-.27.03-.53.03-.81,0-.27.03-.53.03-.81,0-.27.03-.53.03-.81,0-.27.03-.53.03-.81,0-.27.03-.53.03-.81,0-.27.03-.53.03-.81,0-.27.03-.53.03-.81,0-.27.03-.53.03-.81,0-.27.03-.53.03-.81,0-.27.03-.53.03-.81,0-.28.03-.53.03-.81,0-.27.03-.53.03-.81,0-.27.03-.53.03-.81,0-.27.03-.53.03-.81,0-.27.03-.53.03-.81,0-.27.03-.53.03-.81,0-.27.03-.53.03-.81,0-.27.03-.53.03-.81,0-.27.03-.53.03-.81,0-.27.03-.53.03-.81,0-.69.06-1.39.01-2.03-.29-1-.46-1.75-1.32-2.07-2.36l-5.09-16.61-5.33,4.7c-.91.8-2.16,1.14-3.36.91-.02,0-.04-.02-.06-.03-.25,0-.49.08-.74.03-.02,0-.04-.02-.06-.03-.25,0-.49.08-.74.03-.02,0-.04-.02-.06-.03-.25,0-.49.08-.74.03-.02,0-.04-.02-.06-.03-.25,0-.49.08-.74.03-.02,0-.04-.02-.06-.03-.25,0-.49.08-.74.03-.02,0-.04-.02-.06-.03-.25,0-.49.08-.74.03-.02,0-.04-.02-.06-.03-.25,0-.49.08-.74.03-.02,0-.04-.02-.06-.03-.25,0-.49.08-.74.03-.02,0-.04-.02-.06-.03-.25,0-.49.08-.74.03-.02,0-.04-.02-.06-.03-.25,0-.49.08-.74.03-.02,0-.04-.02-.06-.03-.25,0-.49.08-.74.03-.02,0-.04-.02-.06-.03-.25,0-.49.08-.74.03-.02,0-.04-.02-.06-.03-.25,0-.49.08-.74.03-.02,0-.04-.02-.06-.03-.25,0-.49.08-.74.03-.02,0-.04-.02-.06-.03-.25,0-.49.08-.74.03-.02,0-.04-.02-.06-.03-.25,0-.49.08-.74.03-.02,0-.04-.02-.06-.03-.25,0-.49.08-.74.03-.02,0-.04-.02-.06-.03-.25,0-.49.08-.74.03-.02,0-.04-.02-.06-.03-.25,0-.49.08-.74.03-.02,0-.04-.02-.06-.03-.25,0-.49.08-.74.03-.02,0-.04-.02-.06-.03-.25,0-.49.08-.74.03-1.21-.23-2.23-1-2.77-2.09l-14.22-28.64-3.55,2.01-14.88,114.23c-.14,1.06-.72,2.01-1.6,2.63s-1.99.85-3.05.64h-.02c-.26,0-.52.05-.79,0h-.02c-.26,0-.52.05-.79,0h-.02c-.26,0-.52.05-.79,0h-.02c-.26,0-.52.05-.79,0h-.02c-.26,0-.52.05-.79,0h-.02c-.26,0-.52.05-.79,0h-.02c-.26,0-.53.05-.79,0h-.02c-.26,0-.52.05-.79,0h-.02c-.26,0-.52.05-.79,0h-.02c-.26,0-.52.05-.79,0h-.02c-.26,0-.52.05-.79,0h-.02c-.26,0-.52.05-.79,0h-.02c-.26,0-.52.05-.79,0h-.02c-.26,0-.52.05-.79,0h-.02c-.26,0-.52.05-.79,0h-.02c-.26,0-.52.05-.79,0h-.02c-.26,0-.52.05-.79,0h-.02c-.26,0-.52.05-.79,0h-.02c-.26,0-.53.05-.79,0h-.02c-.26,0-.52.05-.79,0h-.02c-.26,0-.53.05-.79,0L35.82,303.48c-1.74-.34-3.02-1.79-3.12-3.53L12.93,28.65c-.09-2.02,1.5-3.89,3.64-4.04L686.84,7.54c.09,0,.17.04.26.04l.55-.04c.09,0,.17.04.26.04l.55-.04c.09,0,.17.04.26.04l.55-.04c.09,0,.17.04.26.04l.55-.04c.09,0,.17.04.26.04l.55-.04c.09,0,.17.04.26.04l.55-.04c.09,0,.17.04.26.04l.55-.04c.09,0,.17.04.26.04l.55-.04c.09,0,.17.04.26.04l.55-.04c.09,0,.17.04.26.04l.55-.04c.09,0,.17.04.26.04l.55-.04c.09,0,.17.04.26.04l.55-.04c.09,0,.17.04.26.04l.55-.04c.09,0,.17.04.26.04l.55-.04c.09,0,.17.04.26.04l.55-.04c.09,0,.17.04.26.04l.55-.04c.09,0,.17.04.26.04l.55-.04c.09,0,.17.04.26.04l.55-.04c.09,0,.17.04.26.04l.55-.04c.09,0,.17.04.26.04l.55-.04c.09,0,.17.04.26.04l.55-.04c1.13-.08,2.23.33,3.03,1.11h-.07Z"/>
    <path class="st0" d="M668.09,173.13c-.08,1.2.43,2.37,1.36,3.16.94.78,2.2,1.09,3.4.82l32.53-7.19,10.56,33.06c.35,1.1,1.18,1.98,2.27,2.41,1.09.43,2.31.36,3.34-.19l31.24-16.77,7.22,41.37c.31,1.81,1.9,3.15,3.78,3.18l44.15.8-62.51,25.49-9.22-30.08c-.39-1.26-1.4-2.23-2.69-2.59s-2.67-.04-3.67.84l-19.4,17.08-17.5-35.26c-.47-.96-1.33-1.68-2.37-1.99-1.04-.31-2.16-.19-3.1.35l-22.09,12.52c-1.05.6-1.76,1.64-1.92,2.83l-14.59,112.02L40.33,296.57,20.96,32,682.92,15.48l-14.83,157.66h0Z"/>
    <path d="M689.87,8.65c-.8-.78-1.9-1.18-3.03-1.11L16.57,24.62c-2.14.14-3.72,2.01-3.64,4.04l19.77,271.29c.1,1.74,1.38,3.19,3.12,3.53l615.62,39.84c1.07.21,2.17-.02,3.05-.64.89-.62,1.47-1.57,1.6-2.63l14.88-114.23,16.78-9.51,17.94,36.14c.53,1.08,1.56,1.85,2.77,2.09,1.2.23,2.45-.11,3.36-.91l18.67-16.45,8.69,28.36c.32,1.04,1.07,1.89,2.07,2.36,1,.47,2.15.49,3.18.07l83.73-34.15c1.48-.6,2.41-2.01,2.41-3.53,0-.24-.02-.47-.07-.71-.35-1.78-1.92-3.08-3.77-3.11l-59.56-1.08-7.6-43.55c-.21-1.22-1.01-2.26-2.15-2.8-1.14-.54-2.47-.5-3.58.09l-31.87,17.11-10.21-31.96c-.61-1.91-2.6-3.03-4.59-2.59l-30.95,6.84,14.78-156.91c.06-1.08-.34-2.18-1.14-2.96h.01ZM20.96,32L682.92,15.48l-14.83,157.66c-.08,1.2.43,2.37,1.36,3.16.94.78,2.2,1.09,3.4.82l32.53-7.19,10.56,33.06c.35,1.1,1.18,1.98,2.27,2.41,1.09.43,2.31.36,3.34-.19l31.24-16.77,7.22,41.37c.31,1.81,1.9,3.15,3.78,3.18l44.15.8-62.51,25.49-9.22-30.08c-.39-1.26-1.4-2.23-2.69-2.59s-2.67-.04-3.67.84l-19.4,17.08-17.5-35.26c-.47-.96-1.33-1.68-2.37-1.99-1.04-.31-2.16-.19-3.1.35l-22.09,12.52c-1.05.6-1.76,1.64-1.92,2.83l-14.59,112.02L40.33,296.57,20.96,32Z"/>
  </g>
  <g>
    <path d="M550.21,90.15h-15.55c-1.84,0-3.14-.34-3.93-1.02-.78-.68-1.17-1.55-1.17-2.62,0-.8.2-1.7.61-2.7l2.8-6.94c.37-.93.98-1.7,1.81-2.3s1.81-.9,2.93-.9h8.67c.27,0,.51.1.71.3.2.2.31.43.31.7v9.98h2.8v5.49h.01ZM541.8,84.66v-5.49h-3.77l-2.19,5.49h5.96Z"/>
    <path d="M548.73,86.15c0-.43.15-.79.43-1.07.29-.28.66-.42,1.1-.42h4.84v-9.98c0-.27.1-.5.31-.7.2-.2.44-.3.71-.3h3.57c.27,0,.51.1.71.3.2.2.31.43.31.7v9.98h4.84v5.49h-15.29c-.44,0-.81-.14-1.1-.42s-.43-.64-.43-1.07v-2.5h0ZM551.33,69.54c-.54-.43-.82-.96-.82-1.6s.27-1.16.82-1.6,1.21-.65,1.99-.65,1.44.22,1.99.65.82.96.82,1.6-.27,1.17-.82,1.6c-.54.43-1.21.65-1.99.65s-1.44-.22-1.99-.65ZM557.96,69.54c-.54-.43-.82-.96-.82-1.6s.27-1.16.82-1.6c.54-.43,1.21-.65,1.99-.65s1.44.22,1.99.65c.54.43.82.96.82,1.6s-.27,1.17-.82,1.6c-.54.43-1.21.65-1.99.65s-1.45-.22-1.99-.65Z"/>
    <path d="M564.03,86.15c0-.43.14-.79.43-1.07s.65-.42,1.1-.42h2.8v-2.59c0-1.3.25-2.4.74-3.32s1.14-1.66,1.94-2.25c.8-.58,1.7-1.01,2.7-1.27,1-.27,2.01-.4,3.03-.4s2.04.14,3.06.42,1.92.72,2.7,1.32,1.42,1.36,1.91,2.3.74,2.05.74,3.34v2.45h2.8v5.49h-4.23c-.78.86-1.8,1.5-3.06,1.9s-2.55.6-3.87.6c-1.39,0-2.72-.21-3.98-.62-1.26-.42-2.31-1.04-3.16-1.87h-4.13c-.44,0-.81-.14-1.1-.42s-.43-.64-.43-1.07v-2.52ZM573.97,85.66c0,.5.29.87.87,1.12s1.22.37,1.94.37,1.32-.12,1.91-.37c.59-.25.89-.62.89-1.12v-3.19c0-.77-.3-1.31-.89-1.65-.59-.33-1.23-.5-1.91-.5s-1.36.17-1.94.5-.87.88-.87,1.65v3.19Z"/>
    <path d="M586.46,86.15c0-.43.15-.79.43-1.07.29-.28.66-.42,1.1-.42h3.67c-.58-1-.87-2.15-.87-3.44,0-.93.19-1.85.56-2.77.37-.91.92-1.72,1.63-2.42s1.58-1.26,2.6-1.7c1.02-.43,2.19-.65,3.52-.65h2.4l-.76-2.99c.99-.33,1.97-.57,2.96-.72.99-.15,1.94-.22,2.86-.22,1.29,0,2.5.17,3.62.52s2.1.88,2.93,1.6,1.49,1.64,1.96,2.77c.48,1.13.71,2.48.71,4.04v5.99h2.8v5.49h-30.59c-.44,0-.81-.14-1.1-.42s-.43-.64-.43-1.07v-2.52ZM600.99,84.66v-5.49h-1.73c-.82,0-1.5.27-2.04.8-.54.53-.82,1.18-.82,1.95s.27,1.41.82,1.95c.54.53,1.22.8,2.04.8h1.73ZM610.16,78.67c0-1.4-.46-2.34-1.38-2.82s-2.07-.74-3.47-.77c.34.37.61.77.82,1.2.2.43.31.9.31,1.4v6.99h3.72v-5.99h0Z"/>
    <path d="M618.58,90.15c-.44,0-.81-.14-1.1-.42s-.43-.64-.43-1.07v-2.5c0-.43.14-.79.43-1.07s.65-.42,1.1-.42h2.8v-3.09c0-1.1.26-2.07.79-2.92.53-.85,1.21-1.55,2.07-2.12.85-.57,1.83-.99,2.93-1.27s2.25-.42,3.44-.42c1.39,0,2.76.2,4.1.6s2.51,1.01,3.49,1.85v8.28c0,1.13-.23,2.11-.69,2.94s-1.06,1.51-1.81,2.05c-.75.53-1.62.93-2.6,1.2-.99.27-2.01.4-3.06.4-1.36,0-2.61-.17-3.75-.52s-2.25-.84-3.34-1.47h-4.38v-.03ZM626.99,85.91c.44.27.92.46,1.43.57.51.12,1.02.17,1.53.17.71,0,1.33-.12,1.86-.35.53-.23.79-.56.79-1v-4.54c-.3-.13-.68-.24-1.12-.32s-.9-.12-1.38-.12c-.81,0-1.54.16-2.17.47-.63.32-.94.82-.94,1.52v3.59h0Z"/>
  </g>
  <g>
    <path d="M113.54,171.58c-.78.76-1.71,1.14-2.8,1.14h-6.45c-1.22,0-2.38-.23-3.47-.68-1.09-.45-2.04-1.08-2.85-1.87s-1.45-1.72-1.91-2.79c-.46-1.07-.69-2.2-.69-3.4v-5.73c0-.26.1-.49.3-.68.2-.19.43-.29.69-.29h2.48c.26,0,.5.1.69.29.2.19.3.42.3.68v5.73c0,1.23.44,2.27,1.31,3.11.88.84,1.93,1.26,3.15,1.26h5.95v-26.23c0-.26.1-.49.3-.68.2-.19.43-.29.69-.29h2.48c.26,0,.5.1.69.29.2.19.3.42.3.68v26.71c0,1.07-.39,1.98-1.17,2.74h0Z"/>
    <path d="M125.67,143.83c.23.16.38.4.45.73l2.48,20.64h-3.47c-.26,0-.52-.08-.77-.24s-.39-.4-.42-.73l-2.48-20.64h3.47c.26,0,.51.08.74.24ZM123.04,170.3c.1-.29.18-.56.25-.8s.14-.51.22-.8c.08-.29.21-.7.37-1.21.46.16,1.19.34,2.18.53s2,.29,3.03.29c.56,0,1.12-.05,1.66-.15s1.03-.25,1.44-.46.74-.49.99-.85.37-.79.37-1.31v-23.41c0-.26.1-.49.3-.68.2-.19.43-.29.69-.29h2.48c.26,0,.5.1.69.29.2.19.3.42.3.68v21.37h3.23v4.37h-3.52c-.26.91-.66,1.67-1.19,2.28s-1.17,1.12-1.91,1.51-1.56.67-2.46.85c-.89.18-1.8.27-2.73.27-1.16,0-2.32-.1-3.5-.32-1.17-.21-2.27-.53-3.3-.95.17-.52.3-.92.4-1.21h0Z"/>
    <path d="M140.19,163.91c.28-.27.64-.41,1.07-.41h12.5c-.33-.78-.67-1.68-1.02-2.7s-.76-1.99-1.24-2.91c-.48-.92-1.03-1.7-1.66-2.33s-1.41-.95-2.33-.95c-.56,0-1.11.11-1.64.34s-1.08.52-1.64.87l-1.49-3.01c.89-.71,1.86-1.3,2.9-1.75s2.08-.68,3.1-.68,1.85.21,2.58.63,1.36.98,1.91,1.68,1.03,1.5,1.46,2.4c.43.91.85,1.85,1.27,2.82s.84,1.94,1.29,2.91.97,1.86,1.56,2.67h2.28v4.37h-19.85c-.43,0-.79-.14-1.07-.41-.28-.27-.42-.62-.42-1.04v-1.46c0-.42.14-.77.42-1.04h.02ZM147.01,144.22c.53-.42,1.17-.63,1.94-.63s1.41.21,1.94.63.79.94.79,1.55-.26,1.13-.79,1.55-1.17.63-1.94.63-1.41-.21-1.94-.63-.79-.94-.79-1.55.26-1.13.79-1.55Z"/>
    <path d="M194.85,163.5v4.37h-3.23v3.4c0,1.07-.39,1.98-1.17,2.74-.78.76-1.71,1.14-2.8,1.14h-6.45c-1.22,0-2.38-.23-3.47-.68s-2.04-1.08-2.85-1.87c-.81-.79-1.45-1.72-1.91-2.79-.46-1.07-.69-2.2-.69-3.4v-8.26c0-.26.1-.49.3-.68.2-.19.43-.29.69-.29h2.48c.26,0,.5.1.69.29.2.19.3.42.3.68v8.26c0,.52.11,1.04.32,1.55.22.52.5.99.87,1.41.36.42.79.76,1.29,1.02.5.26,1.04.39,1.64.39h6.3v-17.97c0-.26.1-.49.3-.68.2-.19.43-.29.69-.29h2.48c.26,0,.5.1.69.29.2.19.3.42.3.68v10.69h3.23ZM180.01,144.7c.53-.42,1.17-.63,1.94-.63s1.41.21,1.94.63.79.94.79,1.55-.26,1.13-.79,1.55-1.17.63-1.94.63-1.41-.21-1.94-.63-.79-.94-.79-1.55.26-1.13.79-1.55Z"/>
    <path d="M193.78,167.46c-.28-.27-.42-.62-.42-1.04v-1.46c0-.42.14-.77.42-1.04.28-.27.64-.41,1.07-.41h3.23v-4.76c0-.97.22-1.84.67-2.6.45-.76,1.04-1.4,1.79-1.92s1.6-.91,2.58-1.17,1.99-.39,3.05-.39c1.29,0,2.57.2,3.85.61,1.27.4,2.42,1.03,3.45,1.87v8.26c0,1.07-.21,2.01-.62,2.82s-.96,1.48-1.64,2.02c-.68.53-1.46.93-2.36,1.19-.89.26-1.84.39-2.83.39-1.26,0-2.34-.17-3.25-.51s-1.89-.82-2.95-1.43h-4.96c-.43,0-.79-.14-1.07-.41v-.02ZM204.23,165.22c.6.15,1.19.22,1.79.22.79,0,1.49-.15,2.08-.44.6-.29.89-.74.89-1.36v-5.97c-.3-.16-.71-.31-1.24-.44s-1.09-.19-1.69-.19c-.86,0-1.66.18-2.41.53-.74.36-1.12.99-1.12,1.89v5.05c.53.32,1.09.56,1.69.7h.01Z"/>
    <path d="M225.86,158.64c0-1.17.26-2.18.77-3.04s1.17-1.56,1.98-2.11,1.75-.96,2.8-1.24c1.06-.28,2.13-.41,3.23-.41,1.19,0,2.35.16,3.47.49s2.17.81,3.13,1.46v14.08h-15.38v-9.23h0ZM236.78,156.75c-1.09-.36-2-.53-2.73-.53-.99,0-1.86.23-2.61.68-.74.45-1.12,1.12-1.12,1.99v4.61h6.45v-6.75h0Z"/>
    <path d="M241.57,171.58c.98.31,1.91.46,2.8.46s1.71-.29,2.36-.87.97-1.68.97-3.3v-15.06c0-.26.1-.49.3-.68s.43-.29.69-.29h2.48c.26,0,.5.1.69.29.2.19.3.42.3.68v10.69h3.23v4.37h-3.23c0,1.46-.17,2.7-.52,3.74-.35,1.04-.84,1.89-1.46,2.55-.63.66-1.37,1.15-2.23,1.46s-1.8.46-2.83.46c-1.16,0-2.37-.18-3.65-.53-1.27-.36-2.59-.86-3.95-1.51l1.44-3.45c.76.36,1.63.69,2.61,1h0Z"/>
    <path d="M254.34,163.89c.3-.26.64-.39,1.04-.39h4.81c-.76-.74-1.32-1.55-1.66-2.43-.35-.87-.52-1.75-.52-2.62,0-1.07.21-2.02.65-2.87.43-.84,1.01-1.55,1.74-2.14.73-.58,1.58-1.03,2.56-1.34s2.03-.46,3.15-.46c1.06,0,2.15.14,3.28.41s2.27.69,3.42,1.24l-1.69,3.79c-.66-.26-1.39-.5-2.18-.73s-1.6-.34-2.43-.34c-.4,0-.83.06-1.32.17-.48.11-.93.29-1.34.53s-.76.57-1.04.97-.42.92-.42,1.53c0,.45.1.92.3,1.41.2.49.5.95.89,1.38.4.44.88.79,1.46,1.07.58.28,1.23.41,1.96.41h6.65l-.89,4.37h-17.37c-.43,0-.79-.14-1.07-.41-.28-.27-.42-.62-.42-1.04v-1.46c0-.45.15-.81.45-1.07v.02Z"/>
    <path d="M283.62,141.45c.2.19.3.42.3.68v21.37h3.23v4.37h-6.7c-.26,0-.5-.1-.69-.29-.2-.19-.3-.42-.3-.68v-24.77c0-.26.1-.49.3-.68.2-.19.43-.29.69-.29h2.48c.26,0,.5.1.69.29Z"/>
    <path d="M286.08,167.46c-.28-.27-.42-.62-.42-1.04v-1.46c0-.42.14-.77.42-1.04.28-.27.64-.41,1.07-.41h5.21v-10.69c0-.26.1-.49.3-.68s.43-.29.7-.29h2.48c.26,0,.5.1.7.29.2.19.3.42.3.68v10.69h5.46v-10.69c0-.26.1-.49.3-.68.2-.19.43-.29.69-.29h2.48c.26,0,.5.1.69.29s.3.42.3.68v10.69h5.46v-10.69c0-.26.1-.49.3-.68s.43-.29.7-.29h2.48c.26,0,.5.1.7.29.2.19.3.42.3.68v10.69h5.21v4.37h-34.74c-.43,0-.79-.14-1.07-.41h-.02ZM299.35,145.67c.53-.42,1.17-.63,1.94-.63s1.41.21,1.93.63.79.94.79,1.55-.26,1.13-.79,1.55-1.17.63-1.93.63-1.41-.21-1.94-.63-.79-.94-.79-1.55.26-1.13.79-1.55ZM302.58,140.82c.53-.42,1.17-.63,1.93-.63s1.41.21,1.94.63.79.94.79,1.55-.26,1.13-.79,1.55-1.17.63-1.94.63-1.41-.21-1.93-.63-.79-.94-.79-1.55.26-1.13.79-1.55ZM305.8,145.67c.53-.42,1.17-.63,1.93-.63s1.41.21,1.94.63.79.94.79,1.55-.26,1.13-.79,1.55-1.17.63-1.94.63-1.41-.21-1.93-.63-.79-.94-.79-1.55.27-1.13.79-1.55Z"/>
    <path d="M320.82,167.46c-.28-.27-.42-.62-.42-1.04v-1.46c0-.42.14-.77.42-1.04.28-.27.64-.41,1.07-.41h3.23v-4.76c0-.97.22-1.84.67-2.6.45-.76,1.04-1.4,1.79-1.92s1.6-.91,2.58-1.17c.98-.26,1.99-.39,3.05-.39,1.29,0,2.57.2,3.85.61s2.42,1.03,3.45,1.87v8.26c0,1.07-.21,2.01-.62,2.82-.41.81-.96,1.48-1.64,2.02-.68.53-1.46.93-2.36,1.19s-1.84.39-2.83.39c-1.26,0-2.34-.17-3.25-.51s-1.89-.82-2.95-1.43h-4.96c-.43,0-.79-.14-1.07-.41v-.02ZM331.26,165.22c.59.15,1.19.22,1.79.22.79,0,1.49-.15,2.08-.44.6-.29.89-.74.89-1.36v-5.97c-.3-.16-.71-.31-1.24-.44s-1.09-.19-1.69-.19c-.86,0-1.66.18-2.41.53-.74.36-1.12.99-1.12,1.89v5.05c.53.32,1.09.56,1.69.7h0Z"/>
    <path d="M352.6,167.58c-.2-.19-.3-.42-.3-.68v-1.94c0-.26.1-.49.3-.68s.43-.29.69-.29h2.48c-.79-1.17-1.41-2.23-1.84-3.21-.43-.97-.65-1.98-.65-3.01,0-.87.14-1.6.42-2.19.28-.58.65-1.04,1.09-1.38.45-.34.96-.58,1.54-.7s1.18-.19,1.81-.19c1.09,0,2.21.17,3.35.51s2.14.77,3,1.29l-1.54,3.06c-.26-.16-.75-.36-1.46-.58-.71-.23-1.41-.34-2.11-.34-.43,0-.8.08-1.12.24-.31.16-.47.5-.47,1.02,0,.49.15,1.01.45,1.58.3.57.63,1.11.99,1.63s.73.99,1.09,1.41.59.71.69.87h3.92c.26,0,.5.1.7.29.2.19.3.42.3.68v1.94c0,.26-.1.49-.3.68-.2.19-.43.29-.7.29h-11.66c-.26,0-.5-.1-.69-.29h.02Z"/>
    <path d="M375.92,141.45c.2.19.3.42.3.68v21.37h3.23v4.37h-6.7c-.26,0-.5-.1-.69-.29-.2-.19-.3-.42-.3-.68v-24.77c0-.26.1-.49.3-.68.2-.19.43-.29.69-.29h2.48c.26,0,.5.1.69.29Z"/>
    <path d="M378.38,163.91c.28-.27.64-.41,1.07-.41h5.21v-10.69c0-.26.1-.49.3-.68s.43-.29.7-.29h2.48c.26,0,.5.1.7.29.2.19.3.42.3.68v10.69h5.21v4.37h-14.89c-.43,0-.79-.14-1.07-.41s-.42-.62-.42-1.04v-1.46c0-.42.14-.77.42-1.04h0ZM380.24,171.42c.53-.42,1.17-.63,1.94-.63s1.41.21,1.93.63.79.94.79,1.55-.26,1.13-.79,1.55-1.17.63-1.93.63-1.41-.21-1.94-.63-.79-.94-.79-1.55.26-1.13.79-1.55ZM386.69,171.42c.53-.42,1.17-.63,1.93-.63s1.41.21,1.94.63.79.94.79,1.55-.26,1.13-.79,1.55-1.17.63-1.94.63-1.41-.21-1.93-.63-.79-.94-.79-1.55.26-1.13.79-1.55Z"/>
    <path d="M393.26,163.91c.28-.27.64-.41,1.07-.41h12.5c-.33-.78-.67-1.68-1.02-2.7s-.76-1.99-1.24-2.91-1.03-1.7-1.66-2.33-1.41-.95-2.33-.95c-.56,0-1.11.11-1.64.34-.53.23-1.08.52-1.64.87l-1.49-3.01c.89-.71,1.86-1.3,2.9-1.75s2.08-.68,3.1-.68,1.85.21,2.58.63,1.36.98,1.91,1.68,1.03,1.5,1.46,2.4c.43.91.85,1.85,1.27,2.82.41.97.84,1.94,1.29,2.91s.97,1.86,1.56,2.67h2.28v4.37h-19.85c-.43,0-.79-.14-1.07-.41s-.42-.62-.42-1.04v-1.46c0-.42.14-.77.42-1.04h.02Z"/>
    <path d="M423.56,141.45c.2.19.3.42.3.68v24.77c0,.26-.1.49-.3.68s-.43.29-.69.29h-2.48c-.26,0-.5-.1-.69-.29-.2-.19-.3-.42-.3-.68v-24.77c0-.26.1-.49.3-.68.2-.19.43-.29.69-.29h2.48c.26,0,.5.1.69.29Z"/>
    <path d="M430.95,156.41c.43-1.04,1.01-1.89,1.74-2.57.73-.68,1.57-1.18,2.53-1.51.96-.32,1.99-.49,3.08-.49,1.26,0,2.51.2,3.77.61,1.26.4,2.46,1.01,3.62,1.82v13.6c0,1.46-.17,2.7-.52,3.74s-.83,1.89-1.46,2.55-1.37,1.15-2.23,1.46c-.86.31-1.8.46-2.83.46-1.16,0-2.33-.18-3.52-.53-1.19-.36-2.46-.86-3.82-1.51l1.44-3.4c.79.36,1.63.66,2.51.92s1.73.39,2.55.39c.99,0,1.81-.28,2.46-.85.64-.57.97-1.64.97-3.23h-6.45c-1.26,0-2.32-.42-3.18-1.26s-1.29-1.88-1.29-3.11v-3.4c0-1.42.21-2.66.64-3.69h0ZM441.22,156.7c-.86-.32-1.8-.49-2.83-.49-.96,0-1.8.31-2.53.92s-1.09,1.6-1.09,2.96v3.4h6.45v-6.8h0Z"/>
    <path d="M458.87,155.61c.51-.86,1.17-1.56,1.99-2.11.81-.55,1.75-.96,2.8-1.24,1.06-.28,2.13-.41,3.23-.41,1.19,0,2.35.16,3.47.49,1.12.32,2.17.81,3.13,1.46v9.71h3.22v4.37h-14.14v5.83h-4.47v-15.06c0-1.17.26-2.18.77-3.04h0ZM469.01,156.75c-1.09-.36-2-.53-2.73-.53-.99,0-1.86.23-2.61.68s-1.12,1.12-1.12,1.99v4.61h6.45v-6.75h0Z"/>
    <path d="M481.92,152.81c0-.26.1-.49.3-.68s.43-.29.7-.29h2.48c.26,0,.5.1.7.29.2.19.3.42.3.68v10.69h5.46v-10.69c0-.26.1-.49.3-.68.2-.19.43-.29.69-.29h2.48c.26,0,.5.1.69.29s.3.42.3.68v10.69h5.46v-10.69c0-.26.1-.49.3-.68s.43-.29.7-.29h2.48c.26,0,.5.1.7.29.2.19.3.42.3.68v11.17c0,1.07-.39,1.98-1.17,2.74-.78.76-1.71,1.14-2.8,1.14h-25.55c-.43,0-.79-.14-1.07-.41s-.42-.62-.42-1.04v-1.46c0-.42.14-.77.42-1.04.28-.27.64-.41,1.07-.41h5.21v-10.69h-.03Z"/>
    <path d="M512.98,152.13c.2-.19.43-.29.69-.29h2.48c.26,0,.5.1.69.29.2.19.3.42.3.68v15.06c0,1.46-.17,2.7-.52,3.72-.35,1.02-.84,1.86-1.46,2.53-.63.66-1.37,1.15-2.23,1.46s-1.8.46-2.83.46c-1.16,0-2.37-.17-3.65-.51-1.27-.34-2.59-.83-3.95-1.48l1.44-3.45c.76.36,1.63.68,2.61.97.98.29,1.93.44,2.85.44.46,0,.89-.06,1.29-.19s.74-.35,1.04-.66.53-.73.69-1.26.25-1.21.25-2.02v-15.06c0-.26.1-.49.3-.68h.01Z"/>
    <path d="M534.52,167.87c-1.79,0-3.06-.33-3.82-1-.76-.66-1.14-1.51-1.14-2.55,0-.78.2-1.65.6-2.62l2.73-6.75c.36-.91.97-1.65,1.81-2.23s1.78-.87,2.8-.87h7.44c.26,0,.5.1.69.29s.3.42.3.68v10.69h3.23v4.37h-14.64,0ZM541.46,156.21h-4.27l-2.93,7.29h7.2v-7.29Z"/>
    <path d="M548.09,163.91c.28-.27.64-.41,1.07-.41h5.21v-10.69c0-.26.1-.49.3-.68s.43-.29.7-.29h2.48c.26,0,.5.1.7.29.2.19.3.42.3.68v11.17c0,1.07-.39,1.98-1.17,2.74-.78.76-1.71,1.14-2.8,1.14h-5.71c-.43,0-.79-.14-1.07-.41s-.42-.62-.42-1.04v-1.46c0-.42.14-.77.42-1.04h-.01ZM554.66,144.7c.53-.42,1.17-.63,1.94-.63s1.41.21,1.94.63.79.94.79,1.55-.26,1.13-.79,1.55c-.53.42-1.17.63-1.94.63s-1.41-.21-1.94-.63-.79-.94-.79-1.55.26-1.13.79-1.55Z"/>
    <path d="M569.45,141.45c.2.19.3.42.3.68v21.37h3.23v4.37h-6.7c-.26,0-.5-.1-.69-.29-.2-.19-.3-.42-.3-.68v-24.77c0-.26.1-.49.3-.68.2-.19.43-.29.69-.29h2.48c.26,0,.5.1.69.29h0Z"/>
    <path d="M571.91,167.46c-.28-.27-.42-.62-.42-1.04v-1.46c0-.42.14-.77.42-1.04.28-.27.64-.41,1.07-.41h12.65v-3.3c0-.74-.13-1.37-.4-1.87-.26-.5-.63-.91-1.09-1.24s-1-.55-1.61-.68c-.61-.13-1.26-.19-1.96-.19-.56,0-1.13.05-1.71.15s-1.1.23-1.56.39l-1.49-3.79,11.86-11.66,3.18,3.11-7.49,7.38c1.98.32,3.61,1.17,4.86,2.55,1.26,1.38,1.89,3.33,1.89,5.85v3.3h3.23v4.37h-20.34c-.43,0-.79-.14-1.07-.41h-.02Z"/>
    <path d="M592.25,167.46c-.28-.27-.42-.62-.42-1.04v-1.46c0-.42.14-.77.42-1.04.28-.27.64-.41,1.07-.41h3.23v-4.76c0-.97.22-1.84.67-2.6.45-.76,1.04-1.4,1.79-1.92s1.6-.91,2.58-1.17c.98-.26,1.99-.39,3.05-.39,1.29,0,2.57.2,3.85.61s2.42,1.03,3.45,1.87v8.26c0,1.07-.21,2.01-.62,2.82-.41.81-.96,1.48-1.64,2.02-.68.53-1.46.93-2.36,1.19s-1.84.39-2.83.39c-1.26,0-2.34-.17-3.25-.51s-1.89-.82-2.95-1.43h-4.96c-.43,0-.79-.14-1.07-.41v-.02ZM602.7,165.22c.59.15,1.19.22,1.79.22.79,0,1.49-.15,2.08-.44.6-.29.89-.74.89-1.36v-5.97c-.3-.16-.71-.31-1.24-.44-.53-.13-1.09-.19-1.69-.19-.86,0-1.66.18-2.41.53-.74.36-1.12.99-1.12,1.89v5.05c.53.32,1.09.56,1.69.7h0Z"/>
    <path d="M622.08,171.63c-.25-.08-.49-.12-.72-.12-.26,0-.49.06-.67.19s-.27.36-.27.68c0,.26.12.5.35.73s.58.34,1.04.34h1.89v2.19h-6.15v-2.19h1.19c-.46-.39-.69-.89-.69-1.51,0-.74.3-1.33.89-1.75.6-.42,1.29-.63,2.08-.63.46,0,.93.09,1.41.27.48.18.88.4,1.22.66l-.94,1.46c-.17-.13-.37-.23-.62-.32h0ZM622.55,141.45c.2.19.3.42.3.68v21.37h3.23v4.37h-6.7c-.26,0-.5-.1-.69-.29-.2-.19-.3-.42-.3-.68v-24.77c0-.26.1-.49.3-.68.2-.19.43-.29.69-.29h2.48c.26,0,.5.1.69.29h0Z"/>
    <path d="M625,163.91c.28-.27.64-.41,1.07-.41h5.21v-10.69c0-.26.1-.49.3-.68s.43-.29.7-.29h2.48c.26,0,.5.1.7.29.2.19.3.42.3.68v11.17c0,1.07-.39,1.98-1.17,2.74-.78.76-1.71,1.14-2.8,1.14h-5.71c-.43,0-.79-.14-1.07-.41s-.42-.62-.42-1.04v-1.46c0-.42.14-.77.42-1.04h-.01ZM629.15,171.42c.53-.42,1.17-.63,1.94-.63s1.41.21,1.94.63.79.94.79,1.55-.26,1.13-.79,1.55-1.17.63-1.94.63-1.41-.21-1.94-.63-.79-.94-.79-1.55.26-1.13.79-1.55Z"/>
    <path d="M174.15,201.36c-.79-.23-1.6-.34-2.43-.34-.43,0-.88.06-1.34.17-.46.11-.89.3-1.29.56s-.73.58-.99.97-.4.87-.4,1.46c0,.49.12.97.35,1.46.23.49.57.93,1.02,1.34.45.4.98.74,1.59,1s1.31.39,2.11.39h5.46l-.84,4.52h-7c-1.09,0-1.96.32-2.6.97-.65.65-.97,1.34-.97,2.09,0,.62.17,1.13.5,1.55s.77.75,1.31,1,1.16.41,1.84.51,1.35.15,2.01.15c1.32,0,2.42-.13,3.27-.39v4.86c-.4.06-.85.12-1.36.17s-1.02.07-1.51.07c-1.09,0-2.25-.1-3.47-.29-1.22-.19-2.36-.57-3.4-1.12s-1.91-1.34-2.6-2.36-1.04-2.36-1.04-4.01c0-1.33.37-2.58,1.12-3.76.74-1.18,1.79-2.13,3.15-2.84-1.16-.84-2.01-1.79-2.56-2.84s-.82-2.11-.82-3.18.21-2.02.65-2.87,1.01-1.55,1.74-2.14c.73-.58,1.58-1.03,2.56-1.34s2.03-.46,3.15-.46c1.06,0,2.15.14,3.27.41s2.27.69,3.42,1.24l-1.69,3.79c-.66-.26-1.39-.5-2.18-.73h-.03Z"/>
    <path d="M182.34,216.71c.93,0,1.71-.31,2.36-.92.65-.62.97-1.59.97-2.91v-15.06c0-.26.1-.49.3-.68.2-.19.43-.29.69-.29h2.48c.26,0,.5.1.69.29.2.2.3.42.3.68v15.06c0,1.46-.17,2.7-.52,3.72s-.83,1.85-1.46,2.5-1.37,1.12-2.23,1.43-1.8.46-2.83.46c-1.22,0-2.4-.16-3.52-.49l1.04-4.13c.56.23,1.14.34,1.74.34h0Z"/>
    <path d="M201.74,197.13c.2.2.3.42.3.68v10.68h3.23v4.37h-3.23c0,1.46-.17,2.7-.52,3.72s-.83,1.85-1.46,2.5-1.37,1.12-2.23,1.43-1.8.46-2.83.46c-1.19,0-2.38-.16-3.57-.49l1.09-4.13c.3.1.6.16.89.19.3.03.58.05.84.05.96,0,1.75-.27,2.38-.8.63-.54.94-1.51.94-2.94v-15.06c0-.26.1-.49.3-.68.2-.19.43-.29.69-.29h2.48c.26,0,.5.1.69.29v.02ZM197.87,189.7c.53-.42,1.17-.63,1.94-.63s1.41.21,1.94.63.79.94.79,1.55-.26,1.13-.79,1.55-1.17.63-1.94.63-1.41-.21-1.94-.63-.79-.94-.79-1.55.26-1.13.79-1.55Z"/>
    <path d="M204.2,208.91c.28-.27.64-.41,1.07-.41h5.21v-10.68c0-.26.1-.49.3-.68.2-.19.43-.29.69-.29h2.48c.26,0,.5.1.69.29.2.2.3.42.3.68v11.17c0,1.07-.39,1.98-1.17,2.74-.78.76-1.71,1.14-2.8,1.14h-5.71c-.43,0-.79-.14-1.07-.41s-.42-.62-.42-1.04v-1.46c0-.42.14-.77.42-1.04h0ZM206.31,189.7c.53-.42,1.17-.63,1.94-.63s1.41.21,1.94.63.79.94.79,1.55-.26,1.13-.79,1.55-1.17.63-1.94.63-1.41-.21-1.94-.63-.79-.94-.79-1.55.26-1.13.79-1.55ZM212.76,189.7c.53-.42,1.17-.63,1.94-.63s1.41.21,1.94.63.79.94.79,1.55-.26,1.13-.79,1.55-1.17.63-1.94.63-1.41-.21-1.94-.63-.79-.94-.79-1.55.26-1.13.79-1.55Z"/>
    <path d="M228,201.41c.43-1.04,1.01-1.89,1.74-2.57.73-.68,1.57-1.18,2.53-1.51.96-.32,1.98-.49,3.08-.49,1.26,0,2.51.2,3.77.61s2.46,1.01,3.62,1.82v13.6c0,1.46-.17,2.7-.52,3.74-.35,1.04-.84,1.89-1.46,2.55-.63.66-1.37,1.15-2.23,1.46s-1.8.46-2.83.46c-1.16,0-2.33-.18-3.52-.54s-2.46-.86-3.82-1.5l1.44-3.4c.79.36,1.63.66,2.51.92.88.26,1.73.39,2.56.39.99,0,1.81-.28,2.46-.85.65-.57.97-1.64.97-3.23h-6.45c-1.26,0-2.32-.42-3.18-1.26-.86-.84-1.29-1.88-1.29-3.11v-3.4c0-1.42.21-2.66.65-3.69h-.03ZM238.27,201.7c-.86-.32-1.8-.49-2.83-.49-.96,0-1.8.31-2.53.92-.73.62-1.09,1.6-1.09,2.96v3.4h6.45v-6.8h0Z"/>
    <path d="M275.83,208.5c-.3-.52-.51-1.08-.65-1.68-.13-.6-.2-1.22-.2-1.87,0-.94.16-1.89.47-2.87.31-.97.81-1.85,1.49-2.62.68-.78,1.55-1.41,2.61-1.89,1.06-.49,2.32-.73,3.77-.73h3.57c1.09,0,2.03.38,2.8,1.14s1.17,1.67,1.17,2.74v11.17c0,.26-.1.49-.3.68s-.43.29-.69.29h-30.77c-1.09,0-2.03-.38-2.8-1.14-.78-.76-1.17-1.68-1.17-2.74v-11.17c0-.26.1-.49.3-.68.2-.19.43-.29.69-.29h2.48c.26,0,.5.1.69.29.2.2.3.42.3.68v10.68h16.24ZM286.4,201.21h-3.38c-.99,0-1.84.35-2.53,1.04-.69.7-1.04,1.56-1.04,2.6,0,.94.34,1.78,1.02,2.53s1.5,1.12,2.46,1.12h3.47v-7.29h0ZM281.29,189.7c.53-.42,1.17-.63,1.94-.63s1.41.21,1.93.63.79.94.79,1.55-.26,1.13-.79,1.55-1.17.63-1.93.63-1.41-.21-1.94-.63-.79-.94-.79-1.55.26-1.13.79-1.55Z"/>
    <path d="M297.96,201.41c.43-1.04,1.01-1.89,1.74-2.57.73-.68,1.57-1.18,2.53-1.51.96-.32,1.99-.49,3.08-.49,1.26,0,2.51.2,3.77.61,1.26.4,2.46,1.01,3.62,1.82v9.23h3.23v4.37h-3.23c0,1.46-.17,2.7-.52,3.74s-.83,1.89-1.46,2.55-1.37,1.15-2.23,1.46c-.86.31-1.8.46-2.83.46-1.16,0-2.33-.18-3.52-.54s-2.46-.86-3.82-1.5l1.44-3.4c.79.36,1.63.66,2.51.92s1.73.39,2.56.39c.99,0,1.81-.28,2.46-.85.64-.57.97-1.64.97-3.23h-6.45c-1.26,0-2.32-.42-3.18-1.26s-1.29-1.88-1.29-3.11v-3.4c0-1.42.21-2.66.64-3.69h-.02ZM308.24,201.7c-.86-.32-1.8-.49-2.83-.49-.96,0-1.8.31-2.53.92s-1.09,1.6-1.09,2.96v3.4h6.45v-6.8h0Z"/>
    <path d="M314.86,208.91c.28-.27.64-.41,1.07-.41h12.5c-.33-.78-.67-1.68-1.02-2.7s-.76-1.99-1.24-2.91-1.03-1.7-1.66-2.33-1.41-.95-2.33-.95c-.56,0-1.11.11-1.64.34-.53.23-1.08.52-1.64.87l-1.49-3.01c.89-.71,1.86-1.3,2.9-1.75s2.08-.68,3.1-.68,1.85.21,2.58.63c.73.42,1.36.98,1.91,1.68.55.7,1.03,1.5,1.46,2.4.43.91.85,1.85,1.27,2.82.41.97.84,1.94,1.29,2.91s.97,1.86,1.56,2.67h2.28v4.37h-19.85c-.43,0-.79-.14-1.07-.41-.28-.28-.42-.62-.42-1.04v-1.46c0-.42.14-.77.42-1.04h.02ZM321.68,189.22c.53-.42,1.17-.63,1.94-.63s1.41.21,1.94.63.79.94.79,1.55-.26,1.13-.79,1.55-1.17.63-1.94.63-1.41-.21-1.94-.63-.79-.94-.79-1.55.26-1.13.79-1.55Z"/>
    <path d="M339,187.13c0-.26.1-.49.3-.68.2-.19.43-.29.69-.29h2.48c.26,0,.5.1.69.29s.3.42.3.68v21.86c0,1.07-.39,1.98-1.17,2.74-.78.76-1.71,1.14-2.8,1.14h-3.72c-.43,0-.79-.14-1.07-.41-.28-.28-.42-.62-.42-1.04v-1.46c0-.42.14-.77.42-1.04.28-.27.64-.41,1.07-.41h3.23v-21.37h0Z"/>
    <path d="M354.09,186.45c.2.19.3.42.3.68v24.77c0,.26-.1.49-.3.68s-.43.29-.69.29h-2.48c-.26,0-.5-.1-.69-.29-.2-.19-.3-.42-.3-.68v-24.77c0-.26.1-.49.3-.68.2-.19.43-.29.69-.29h2.48c.26,0,.5.1.69.29Z"/>
    <path d="M389.37,208.5v4.37h-3.23v3.4c0,1.07-.39,1.98-1.17,2.74-.78.76-1.71,1.14-2.8,1.14h-6.45c-1.22,0-2.38-.23-3.47-.68s-2.04-1.08-2.85-1.87-1.45-1.72-1.91-2.79-.69-2.2-.69-3.4v-6.31c0-.26.1-.49.3-.68.2-.19.43-.29.69-.29h2.48c.26,0,.5.1.69.29.2.2.3.42.3.68v6.31c0,1.23.44,2.27,1.31,3.11.88.84,1.93,1.26,3.15,1.26h5.96v-28.65c0-.26.1-.49.3-.68.2-.19.43-.29.7-.29h2.48c.26,0,.5.1.7.29s.3.42.3.68v21.37h3.23-.02Z"/>
    <path d="M388.3,208.91c.28-.27.64-.41,1.07-.41h7.69v-10.68c0-.26.1-.49.3-.68.2-.19.43-.29.69-.29h2.48c.26,0,.5.1.69.29.2.2.3.42.3.68v11.17c0,1.07-.39,1.98-1.17,2.74-.78.76-1.71,1.14-2.8,1.14h-8.19c-.43,0-.79-.14-1.07-.41-.28-.28-.42-.62-.42-1.04v-1.46c0-.42.14-.77.42-1.04h.01ZM389.17,217.87c.53-.42,1.17-.63,1.93-.63s1.41.21,1.94.63.79.94.79,1.55-.26,1.13-.79,1.55-1.17.63-1.94.63-1.41-.21-1.93-.63-.79-.94-.79-1.55.26-1.13.79-1.55ZM395.62,217.87c.53-.42,1.17-.63,1.94-.63s1.41.21,1.94.63.79.94.79,1.55-.26,1.13-.79,1.55-1.17.63-1.94.63-1.41-.21-1.94-.63-.79-.94-.79-1.55.26-1.13.79-1.55Z"/>
    <path d="M413.14,197.13c.2.2.3.42.3.68v10.68h3.23v4.37h-3.23c0,1.46-.17,2.7-.52,3.72-.35,1.02-.84,1.85-1.46,2.5-.63.65-1.37,1.12-2.23,1.43-.86.31-1.8.46-2.83.46-1.19,0-2.38-.16-3.57-.49l1.09-4.13c.3.1.6.16.89.19.3.03.58.05.84.05.96,0,1.75-.27,2.38-.8.63-.54.94-1.51.94-2.94v-15.06c0-.26.1-.49.3-.68.2-.19.43-.29.69-.29h2.48c.26,0,.5.1.69.29v.02ZM409.27,189.7c.53-.42,1.17-.63,1.94-.63s1.41.21,1.93.63.79.94.79,1.55-.26,1.13-.79,1.55-1.17.63-1.93.63-1.41-.21-1.94-.63-.79-.94-.79-1.55.26-1.13.79-1.55Z"/>
    <path d="M415.59,208.91c.28-.27.64-.41,1.07-.41h5.21v-10.68c0-.26.1-.49.3-.68.2-.19.43-.29.7-.29h2.48c.26,0,.5.1.7.29.2.2.3.42.3.68v11.17c0,1.07-.39,1.98-1.17,2.74-.78.76-1.71,1.14-2.8,1.14h-5.71c-.43,0-.79-.14-1.07-.41-.28-.28-.42-.62-.42-1.04v-1.46c0-.42.14-.77.42-1.04h-.01ZM417.7,189.7c.53-.42,1.17-.63,1.94-.63s1.41.21,1.93.63.79.94.79,1.55-.26,1.13-.79,1.55-1.17.63-1.93.63-1.41-.21-1.94-.63-.79-.94-.79-1.55.26-1.13.79-1.55ZM424.15,189.7c.53-.42,1.17-.63,1.93-.63s1.41.21,1.94.63.79.94.79,1.55-.26,1.13-.79,1.55-1.17.63-1.94.63-1.41-.21-1.93-.63-.79-.94-.79-1.55.26-1.13.79-1.55Z"/>
    <path d="M462.96,207.72c.56.55.84,1.25.84,2.09v1.46c0,1.2-.23,2.33-.69,3.4-.46,1.07-1.1,2-1.91,2.79s-1.76,1.42-2.85,1.87-2.25.68-3.47.68h-7.2c-1.22,0-2.38-.23-3.47-.68s-2.04-1.08-2.85-1.87-1.45-1.72-1.91-2.79c-.46-1.07-.69-2.2-.69-3.4v-5.1c0-.26.1-.49.3-.68.2-.19.43-.29.69-.29h2.48c.26,0,.5.1.69.29s.3.42.3.68v5.49c0,.55.13,1.07.4,1.55.26.49.6.91,1.02,1.26.41.36.88.64,1.41.85s1.08.32,1.64.32h7.64c.6,0,1.14-.12,1.64-.37.5-.24.92-.57,1.27-.97.35-.41.62-.88.82-1.41.2-.54.3-1.08.3-1.63h-4.47c-.83,0-1.53-.28-2.11-.85s-.87-1.25-.87-2.06v-1.75c0-1.55.21-2.87.62-3.96.41-1.09.99-1.97,1.74-2.65.74-.68,1.63-1.17,2.65-1.48s2.13-.46,3.33-.46h9.68c.63,0,1.03.32,1.19.97l2.08,9.47h4.02v4.37h-6.65c-.63,0-1.03-.32-1.19-.97l-2.08-9.37h-6.75c-1.16,0-2.14.29-2.95.87s-1.22,1.55-1.22,2.91v.58h4.47c.86,0,1.57.28,2.13.83h-.02ZM445.74,223.64c.53-.38,1.17-.57,1.94-.57s1.41.19,1.94.57.79.85.79,1.4-.26,1.02-.79,1.4c-.53.38-1.17.57-1.94.57s-1.41-.19-1.94-.57-.79-.85-.79-1.4.26-1.02.79-1.4ZM452.19,223.64c.53-.38,1.17-.57,1.94-.57s1.41.19,1.93.57.79.85.79,1.4-.26,1.02-.79,1.4c-.53.38-1.17.57-1.93.57s-1.41-.19-1.94-.57-.79-.85-.79-1.4.26-1.02.79-1.4ZM458.15,189.7c.53-.42,1.17-.63,1.94-.63s1.41.21,1.94.63.79.94.79,1.55-.26,1.13-.79,1.55-1.17.63-1.94.63-1.41-.21-1.94-.63-.79-.94-.79-1.55.26-1.13.79-1.55ZM464.6,189.7c.53-.42,1.17-.63,1.94-.63s1.41.21,1.94.63.79.94.79,1.55-.26,1.13-.79,1.55-1.17.63-1.94.63-1.41-.21-1.94-.63-.79-.94-.79-1.55.26-1.13.79-1.55Z"/>
    <path d="M480.43,187.13c0-.26.1-.49.3-.68.2-.19.43-.29.69-.29h2.48c.26,0,.5.1.69.29s.3.42.3.68v21.86c0,1.07-.39,1.98-1.17,2.74-.78.76-1.71,1.14-2.8,1.14h-3.72c-.43,0-.79-.14-1.07-.41-.28-.28-.42-.62-.42-1.04v-1.46c0-.42.14-.77.42-1.04.28-.27.64-.41,1.07-.41h3.23v-21.37h0Z"/>
    <path d="M495.51,186.45c.2.19.3.42.3.68v24.77c0,.26-.1.49-.3.68s-.43.29-.69.29h-2.48c-.26,0-.5-.1-.69-.29-.2-.19-.3-.42-.3-.68v-24.77c0-.26.1-.49.3-.68.2-.19.43-.29.69-.29h2.48c.26,0,.5.1.69.29Z"/>
    <path d="M513.18,212.87c-1.79,0-3.06-.33-3.82-1-.76-.66-1.14-1.51-1.14-2.55,0-.78.2-1.65.6-2.62l2.73-6.75c.36-.91.97-1.65,1.81-2.23s1.78-.88,2.8-.88h7.44c.26,0,.5.1.69.29.2.2.3.42.3.68v10.68h3.23v4.37h-14.64,0ZM520.12,201.21h-4.27l-2.93,7.29h7.2v-7.29Z"/>
    <path d="M526.75,208.91c.28-.27.64-.41,1.07-.41h5.21v-10.68c0-.26.1-.49.3-.68.2-.19.43-.29.7-.29h2.48c.26,0,.5.1.7.29.2.2.3.42.3.68v11.17c0,1.07-.39,1.98-1.17,2.74-.78.76-1.71,1.14-2.8,1.14h-5.71c-.43,0-.79-.14-1.07-.41-.28-.28-.42-.62-.42-1.04v-1.46c0-.42.14-.77.42-1.04h-.01ZM528.86,189.7c.53-.42,1.17-.63,1.94-.63s1.41.21,1.93.63.79.94.79,1.55-.26,1.13-.79,1.55c-.53.42-1.17.63-1.93.63s-1.41-.21-1.94-.63-.79-.94-.79-1.55.26-1.13.79-1.55ZM535.31,189.7c.53-.42,1.17-.63,1.93-.63s1.41.21,1.94.63.79.94.79,1.55-.26,1.13-.79,1.55c-.53.42-1.17.63-1.94.63s-1.41-.21-1.93-.63-.79-.94-.79-1.55.26-1.13.79-1.55Z"/>
    <path d="M548.11,186.45c.2.19.3.42.3.68v21.37h3.23v4.37h-6.7c-.26,0-.5-.1-.69-.29-.2-.19-.3-.42-.3-.68v-24.77c0-.26.1-.49.3-.68.2-.19.43-.29.69-.29h2.48c.26,0,.5.1.69.29h0Z"/>
    <path d="M550.57,212.46c-.28-.28-.42-.62-.42-1.04v-1.46c0-.42.14-.77.42-1.04.28-.27.64-.41,1.07-.41h3.23v-4.76c0-.97.22-1.84.67-2.6.45-.76,1.04-1.4,1.79-1.92s1.6-.91,2.58-1.17c.98-.26,1.99-.39,3.05-.39,1.29,0,2.57.2,3.85.61,1.27.4,2.42,1.03,3.45,1.87v8.26c0,1.07-.21,2.01-.62,2.82-.41.81-.96,1.48-1.64,2.02-.68.53-1.46.93-2.36,1.19s-1.84.39-2.83.39c-1.26,0-2.34-.17-3.25-.51s-1.89-.82-2.95-1.43h-4.96c-.43,0-.79-.14-1.07-.41v-.02ZM561.01,210.22c.59.15,1.19.22,1.79.22.79,0,1.49-.15,2.08-.44s.89-.74.89-1.36v-5.97c-.3-.16-.71-.31-1.24-.44-.53-.13-1.09-.19-1.69-.19-.86,0-1.66.18-2.41.53s-1.12.99-1.12,1.89v5.05c.53.32,1.09.56,1.69.7h0Z"/>
    <path d="M577.34,201.41c.43-1.04,1.01-1.89,1.74-2.57.73-.68,1.57-1.18,2.53-1.51.96-.32,1.99-.49,3.08-.49,1.26,0,2.51.2,3.77.61,1.26.4,2.46,1.01,3.62,1.82v9.23h3.23v4.37h-3.23c0,1.46-.17,2.7-.52,3.74s-.83,1.89-1.46,2.55-1.37,1.15-2.23,1.46c-.86.31-1.8.46-2.83.46-1.16,0-2.33-.18-3.52-.54s-2.46-.86-3.82-1.5l1.44-3.4c.79.36,1.63.66,2.51.92s1.73.39,2.56.39c.99,0,1.81-.28,2.46-.85.64-.57.97-1.64.97-3.23h-6.45c-1.26,0-2.32-.42-3.18-1.26s-1.29-1.88-1.29-3.11v-3.4c0-1.42.21-2.66.64-3.69h-.02ZM587.61,201.7c-.86-.32-1.8-.49-2.83-.49-.96,0-1.8.31-2.53.92s-1.09,1.6-1.09,2.96v3.4h6.45v-6.8h0Z"/>
    <path d="M600.51,197.81c0-.26.1-.49.3-.68.2-.19.43-.29.7-.29h2.48c.26,0,.5.1.7.29.2.2.3.42.3.68v10.68h5.46v-10.68c0-.26.1-.49.3-.68.2-.19.43-.29.69-.29h2.48c.26,0,.5.1.69.29.2.2.3.42.3.68v10.68h5.46v-10.68c0-.26.1-.49.3-.68.2-.19.43-.29.7-.29h2.48c.26,0,.5.1.7.29.2.2.3.42.3.68v11.17c0,1.07-.39,1.98-1.17,2.74-.78.76-1.71,1.14-2.8,1.14h-25.55c-.43,0-.79-.14-1.07-.41-.28-.28-.42-.62-.42-1.04v-1.46c0-.42.14-.77.42-1.04.28-.27.64-.41,1.07-.41h5.21v-10.68h-.03Z"/>
    <path d="M631.58,197.13c.2-.19.43-.29.69-.29h2.48c.26,0,.5.1.69.29.2.2.3.42.3.68v15.06c0,1.46-.17,2.7-.52,3.72-.35,1.02-.84,1.86-1.46,2.53-.63.66-1.37,1.15-2.23,1.46-.86.31-1.8.46-2.83.46-1.16,0-2.37-.17-3.65-.51s-2.59-.83-3.95-1.48l1.44-3.45c.76.36,1.63.68,2.61.97.98.29,1.93.44,2.85.44.46,0,.89-.06,1.29-.19.4-.13.74-.35,1.04-.66s.53-.73.69-1.26c.17-.53.25-1.21.25-2.02v-15.06c0-.26.1-.49.3-.68h.01Z"/>
    <path d="M386.47,261.58c-.78.76-1.71,1.14-2.8,1.14h-6.45c-1.22,0-2.38-.23-3.47-.68s-2.04-1.08-2.85-1.87-1.45-1.72-1.91-2.79-.69-2.2-.69-3.4v-5.73c0-.26.1-.49.3-.68.2-.19.43-.29.69-.29h2.48c.26,0,.5.1.69.29s.3.42.3.68v5.73c0,1.23.44,2.27,1.31,3.11.88.84,1.93,1.26,3.15,1.26h5.96v-26.23c0-.26.1-.49.3-.68.2-.19.43-.29.7-.29h2.48c.26,0,.5.1.7.29s.3.42.3.68v26.71c0,1.07-.39,1.98-1.17,2.74h-.02Z"/>
    <path d="M398.25,231.45c.2.19.3.42.3.68v21.37h3.23v4.37h-6.7c-.26,0-.5-.1-.69-.29-.2-.19-.3-.42-.3-.68v-24.77c0-.26.1-.49.3-.68.2-.19.43-.29.69-.29h2.48c.26,0,.5.1.69.29Z"/>
    <path d="M400.71,257.46c-.28-.28-.42-.62-.42-1.04v-1.46c0-.42.14-.77.42-1.04.28-.27.64-.41,1.07-.41h4.07c-.3-.52-.51-1.08-.65-1.68-.13-.6-.2-1.22-.2-1.87,0-.94.16-1.89.47-2.87.31-.97.81-1.85,1.49-2.62.68-.78,1.55-1.41,2.61-1.89,1.06-.49,2.32-.73,3.77-.73h3.57c1.09,0,2.03.38,2.8,1.14s1.17,1.67,1.17,2.74v7.77h3.23v4.37h-22.33c-.43,0-.79-.14-1.07-.41h0ZM416.41,246.21h-3.38c-.99,0-1.84.35-2.53,1.04-.69.7-1.04,1.56-1.04,2.6,0,.94.33,1.78.99,2.53s1.49,1.12,2.48,1.12h3.47v-7.29h.01ZM411,234.7c.53-.42,1.17-.63,1.94-.63s1.41.21,1.93.63.79.94.79,1.55-.27,1.13-.79,1.55c-.53.42-1.17.63-1.93.63s-1.41-.21-1.94-.63-.79-.94-.79-1.55.26-1.13.79-1.55Z"/>
    <path d="M423.04,257.46c-.28-.28-.42-.62-.42-1.04v-1.46c0-.42.14-.77.42-1.04.28-.27.64-.41,1.07-.41h3.23v-21.37c0-.26.1-.49.3-.68.2-.19.43-.29.69-.29h2.48c.26,0,.5.1.69.29s.3.42.3.68v16.03l6.1-4.86c.53-.42,1.09-.77,1.69-1.04.6-.28,1.27-.41,2.04-.41h6.05c1.09,0,2.03.38,2.8,1.14s1.17,1.67,1.17,2.74v8.26c0,1.07-.39,1.98-1.17,2.74s-1.71,1.14-2.8,1.14h-23.57c-.43,0-.79-.14-1.07-.41h0ZM447.18,253.5v-7.29h-6.3l-9.18,7.29h15.48,0Z"/>
    <path d="M461.54,227.64c-.25-.08-.49-.12-.72-.12-.26,0-.49.07-.67.2-.18.13-.27.36-.27.68,0,.26.12.5.35.73s.58.34,1.04.34h1.89v2.19h-6.15v-2.19h1.19c-.46-.39-.69-.89-.69-1.51,0-.74.3-1.33.89-1.75.59-.42,1.29-.63,2.08-.63.46,0,.93.09,1.41.27.48.18.88.4,1.22.66l-.94,1.46c-.17-.13-.37-.24-.62-.32h-.01ZM462.61,233.83c.23.16.38.4.45.73l2.48,20.64h-3.47c-.26,0-.52-.08-.77-.24s-.39-.4-.42-.73l-2.48-20.64h3.47c.26,0,.51.08.74.24ZM459.98,260.3c.1-.29.18-.56.25-.8s.14-.51.22-.8c.08-.29.21-.7.37-1.21.46.16,1.19.34,2.18.54.99.19,2,.29,3.03.29.6,0,1.16-.04,1.69-.12s1-.23,1.42-.46c.41-.23.74-.51.99-.85s.37-.79.37-1.33v-23.41c0-.26.1-.49.3-.68s.43-.29.69-.29h2.48c.26,0,.5.1.69.29s.3.42.3.68v23.41c0,1.36-.23,2.5-.69,3.42-.46.92-1.09,1.67-1.89,2.23-.79.57-1.71.97-2.75,1.21s-2.13.37-3.25.37-2.32-.11-3.5-.34c-1.17-.23-2.27-.54-3.3-.92.17-.52.3-.92.4-1.21v-.02Z"/>
    <path d="M485.59,231.45c.2.19.3.42.3.68v24.77c0,.26-.1.49-.3.68s-.43.29-.69.29h-2.48c-.26,0-.5-.1-.69-.29-.2-.19-.3-.42-.3-.68v-24.77c0-.26.1-.49.3-.68.2-.19.43-.29.69-.29h2.48c.26,0,.5.1.69.29Z"/>
    <path d="M507.72,253.5v-4.86c0-.78-.14-1.44-.42-1.99s-.65-1-1.12-1.34-1.01-.58-1.64-.73-1.29-.22-1.98-.22c-.56,0-1.14.05-1.74.15-.59.1-1.16.24-1.69.44l-1.09-4.08c1.03-.32,2-.57,2.93-.73.93-.16,1.84-.24,2.73-.24,1.22,0,2.35.17,3.38.51s1.92.87,2.68,1.58c.76.71,1.36,1.62,1.79,2.72.43,1.1.64,2.41.64,3.93v4.86h3.23v4.37h-18.36v-4.37h10.67-.01Z"/>
    <path d="M514.34,253.91c.28-.27.64-.41,1.07-.41h5.21v-10.68c0-.26.1-.49.3-.68.2-.19.43-.29.7-.29h2.48c.26,0,.5.1.7.29.2.2.3.42.3.68v10.68h5.21v4.37h-14.89c-.43,0-.79-.14-1.07-.41-.28-.28-.42-.62-.42-1.04v-1.46c0-.42.14-.77.42-1.04h-.01ZM520.92,234.7c.53-.42,1.17-.63,1.94-.63s1.41.21,1.94.63.79.94.79,1.55-.26,1.13-.79,1.55c-.53.42-1.17.63-1.94.63s-1.41-.21-1.94-.63-.79-.94-.79-1.55.26-1.13.79-1.55Z"/>
    <path d="M529.26,253.89c.3-.26.65-.39,1.04-.39h4.81c-.76-.74-1.32-1.55-1.66-2.43-.35-.88-.52-1.75-.52-2.62,0-1.07.21-2.02.65-2.87.43-.84,1.01-1.55,1.74-2.14.73-.58,1.58-1.03,2.56-1.34s2.03-.46,3.15-.46c1.06,0,2.15.14,3.27.41s2.27.69,3.42,1.24l-1.69,3.79c-.66-.26-1.39-.5-2.18-.73s-1.6-.34-2.43-.34c-.4,0-.83.06-1.32.17-.48.11-.93.29-1.34.53-.41.24-.76.57-1.04.97-.28.41-.42.92-.42,1.53,0,.45.1.92.3,1.41s.5.95.89,1.38c.4.44.88.79,1.46,1.07s1.23.41,1.96.41h6.65l-.89,4.37h-17.37c-.43,0-.79-.14-1.07-.41-.28-.28-.42-.62-.42-1.04v-1.46c0-.45.15-.81.45-1.07v.02Z"/>
    <path d="M582.9,253.5v4.37h-3.22v3.4c0,1.07-.39,1.98-1.17,2.74-.78.76-1.71,1.14-2.8,1.14h-6.45c-1.22,0-2.38-.23-3.47-.68s-2.04-1.08-2.85-1.87-1.45-1.72-1.91-2.79-.69-2.2-.69-3.4v-6.31c0-.26.1-.49.3-.68.2-.19.43-.29.69-.29h2.48c.26,0,.5.1.69.29.2.2.3.42.3.68v6.31c0,1.23.44,2.27,1.31,3.11.88.84,1.93,1.26,3.15,1.26h5.96v-28.65c0-.26.1-.49.3-.68.2-.19.43-.29.7-.29h2.48c.26,0,.5.1.7.29s.3.42.3.68v21.37h3.22-.02Z"/>
    <path d="M581.83,257.46c-.28-.28-.42-.62-.42-1.04v-1.46c0-.42.14-.77.42-1.04.28-.27.64-.41,1.07-.41h3.23v-4.76c0-.97.22-1.84.67-2.6.45-.76,1.04-1.4,1.79-1.92s1.6-.91,2.58-1.17c.98-.26,1.99-.39,3.05-.39,1.29,0,2.57.2,3.85.61,1.27.4,2.42,1.03,3.45,1.87v8.26c0,1.07-.21,2.01-.62,2.82-.41.81-.96,1.48-1.64,2.02-.68.53-1.46.93-2.36,1.19-.89.26-1.84.39-2.83.39-1.26,0-2.34-.17-3.25-.51s-1.89-.82-2.95-1.43h-4.96c-.43,0-.79-.14-1.07-.41v-.02ZM592.28,255.22c.59.15,1.19.22,1.79.22.79,0,1.49-.15,2.08-.44s.89-.74.89-1.36v-5.97c-.3-.16-.71-.31-1.24-.44-.53-.13-1.09-.19-1.69-.19-.86,0-1.66.18-2.41.53s-1.12.99-1.12,1.89v5.05c.53.32,1.09.56,1.69.7h0Z"/>
    <path d="M611.41,227.64c-.25-.08-.49-.12-.72-.12-.26,0-.49.07-.67.2-.18.13-.27.36-.27.68,0,.26.12.5.35.73s.58.34,1.04.34h1.89v2.19h-6.15v-2.19h1.19c-.46-.39-.69-.89-.69-1.51,0-.74.3-1.33.89-1.75s1.29-.63,2.08-.63c.46,0,.93.09,1.41.27.48.18.88.4,1.22.66l-.94,1.46c-.17-.13-.37-.24-.62-.32h0ZM612.47,233.83c.23.16.38.4.45.73l2.48,20.64h-3.47c-.26,0-.52-.08-.77-.24s-.39-.4-.42-.73l-2.48-20.64h3.47c.26,0,.51.08.74.24ZM609.84,260.3c.1-.29.18-.56.25-.8s.14-.51.22-.8c.08-.29.21-.7.37-1.21.46.16,1.19.34,2.18.54.99.19,2,.29,3.03.29.6,0,1.16-.04,1.69-.12s1-.23,1.42-.46c.41-.23.74-.51.99-.85s.37-.79.37-1.33v-23.41c0-.26.1-.49.3-.68s.43-.29.69-.29h2.48c.26,0,.5.1.69.29s.3.42.3.68v23.41c0,1.36-.23,2.5-.69,3.42-.46.92-1.09,1.67-1.89,2.23-.79.57-1.71.97-2.75,1.21s-2.13.37-3.25.37-2.32-.11-3.5-.34c-1.17-.23-2.27-.54-3.3-.92.17-.52.3-.92.4-1.21v-.02Z"/>
    <path d="M635.45,231.45c.2.19.3.42.3.68v24.77c0,.26-.1.49-.3.68s-.43.29-.69.29h-2.48c-.26,0-.5-.1-.69-.29-.2-.19-.3-.42-.3-.68v-24.77c0-.26.1-.49.3-.68.2-.19.43-.29.69-.29h2.48c.26,0,.5.1.69.29Z"/>
  </g>
</svg>