<?xml version="1.0" encoding="UTF-8"?>
<svg id="Layer_1" xmlns="http://www.w3.org/2000/svg" version="1.1" viewBox="0 0 778.28 233.66">
  <!-- Generator: Adobe Illustrator 29.7.1, SVG Export Plug-In . SVG Version: 2.1.1 Build 8)  -->
  <defs>
    <style>
      .st0 {
        isolation: isolate;
      }

      .st1 {
        fill: #d38dc1;
      }

      .st2 {
        fill: #91f2b3;
      }

      .st3 {
        display: none;
      }
    </style>
  </defs>
  <g class="st3">
    <path d="M103.16,4.13c-.8.78-1.2,1.88-1.14,2.96l-5.46,94.41-13.76-3.04c-.52-.12-1.04-.11-1.54-.02-.27,0-.54-.05-.81,0-.27,0-.54-.05-.81,0-.27,0-.54-.05-.81,0-.27,0-.54-.05-.81,0-.27,0-.55-.05-.81,0-.27,0-.54-.05-.81,0-.27,0-.54-.05-.81,0-.27,0-.54-.05-.81,0-.27,0-.54-.05-.81,0-.27,0-.54-.05-.81,0-.27,0-.54-.05-.81,0-.27,0-.54-.05-.81,0-.27,0-.54-.05-.81,0-.27,0-.54-.05-.81,0-.27,0-.54-.05-.81,0-.27,0-.55-.05-.81,0-.27,0-.55-.05-.81,0-.27,0-.54-.05-.81,0-.27,0-.55-.05-.81,0-.27,0-.54-.05-.81,0-1.73-.05-3.33.95-3.86,2.62l-7.73,24.2-17.4-9.34c-.69-.37-1.46-.44-2.23-.37-.27-.03-.53-.02-.81,0-.27-.03-.53-.02-.81,0-.27-.03-.53-.02-.81,0-.27-.03-.53-.02-.81,0-.27-.03-.53-.02-.81,0-.27-.03-.53-.02-.81,0-.27-.03-.53-.02-.81,0-.27-.03-.53-.02-.81,0-.27-.03-.53-.02-.81,0-.27-.03-.53-.02-.81,0-.28-.03-.53-.02-.81,0-.28-.03-.53-.02-.81,0-.27-.03-.53-.02-.81,0-.28-.03-.53-.02-.81,0-.27-.03-.53-.02-.81,0-.27-.03-.53-.02-.81,0-.28-.03-.53-.02-.81,0-.27-.03-.53-.02-.81,0-.27-.03-.53-.02-.81,0-.27-.03-.53-.02-.81,0-.73-.09-1.47-.04-2.16.29-1.14.54-1.94,1.58-2.15,2.8l-7.6,43.55-59.56,1.08c-1.85.03-3.42,1.33-3.77,3.11-.05.24-.07.48-.07.71,0,1.52.93,2.93,2.41,3.53l83.73,34.15c.63.26,1.29.29,1.95.21.27.03.53.03.81,0,.27.03.53.03.81,0,.27.03.53.03.81,0,.27.03.53.03.81,0,.27.03.53.03.81,0,.27.03.53.03.81,0,.27.03.53.03.81,0,.27.03.53.03.81,0,.27.03.53.03.81,0,.27.03.53.03.81,0,.28.03.53.03.81,0,.27.03.53.03.81,0,.27.03.53.03.81,0,.27.03.53.03.81,0,.27.03.53.03.81,0,.27.03.53.03.81,0,.27.03.53.03.81,0,.27.03.53.03.81,0,.27.03.53.03.81,0,.27.03.53.03.81,0,.69.06,1.39,0,2.03-.29,1-.46,1.75-1.32,2.07-2.36l5.09-16.61,5.33,4.7c.91.8,2.16,1.14,3.36.91.02,0,.04-.02.06-.03.25,0,.49.08.74.03.02,0,.04-.02.06-.03.25,0,.49.08.74.03.02,0,.04-.02.06-.03.25,0,.49.08.74.03.02,0,.04-.02.06-.03.25,0,.49.08.74.03.02,0,.04-.02.06-.03.25,0,.49.08.74.03.02,0,.04-.02.06-.03.25,0,.49.08.74.03.02,0,.04-.02.06-.03.25,0,.49.08.74.03.02,0,.04-.02.06-.03.25,0,.49.08.74.03.02,0,.04-.02.06-.03.25,0,.49.08.74.03.02,0,.04-.02.06-.03.25,0,.49.08.74.03.02,0,.04-.02.06-.03.25,0,.49.08.74.03.02,0,.04-.02.06-.03.25,0,.49.08.74.03.02,0,.04-.02.06-.03.25,0,.49.08.74.03.02,0,.04-.02.06-.03.25,0,.49.08.74.03.02,0,.04-.02.06-.03.25,0,.49.08.74.03.02,0,.04-.02.06-.03.25,0,.49.08.74.03.02,0,.04-.02.06-.03.25,0,.49.08.74.03.02,0,.04-.02.06-.03.25,0,.49.08.74.03.02,0,.04-.02.06-.03.25,0,.49.08.74.03.02,0,.04-.02.06-.03.25,0,.49.08.74.03.02,0,.04-.02.06-.03.25,0,.49.08.74.03,1.21-.23,2.23-1,2.77-2.09l14.22-28.64,3.55,2.01,8.88,65.31c.14,1.06.72,2.01,1.6,2.63.88.62,1.99.85,3.05.64h.02c.26,0,.52.05.79,0h.02c.26,0,.52.05.79,0h.02c.26,0,.52.05.79,0h.02c.26,0,.52.05.79,0h.02c.26,0,.52.05.79,0h.02c.26,0,.52.05.79,0h.02c.26,0,.53.05.79,0h.02c.26,0,.52.05.79,0h.02c.26,0,.52.05.79,0h.02c.26,0,.52.05.79,0h.02c.26,0,.52.05.79,0h.02c.26,0,.52.05.79,0h.02c.26,0,.52.05.79,0h.02c.26,0,.52.05.79,0h.02c.26,0,.52.05.79,0h.02c.26,0,.52.05.79,0h.02c.26,0,.52.05.79,0h.02c.26,0,.52.05.79,0h.02c.26,0,.53.05.79,0h.02c.26,0,.52.05.79,0h.02c.26,0,.53.05.79,0l615.62-39.84c1.74-.34,3.02-1.79,3.12-3.53l25.77-163.67c.09-2.02-1.5-3.89-3.64-4.04L123.13,3.02c-.09,0-.17.04-.26.04l-.55-.04c-.09,0-.17.04-.26.04l-.55-.04c-.09,0-.17.04-.26.04l-.55-.04c-.09,0-.17.04-.26.04l-.55-.04c-.09,0-.17.04-.26.04l-.55-.04c-.09,0-.17.04-.26.04l-.55-.04c-.09,0-.17.04-.26.04l-.55-.04c-.09,0-.17.04-.26.04l-.55-.04c-.09,0-.17.04-.26.04l-.55-.04c-.09,0-.17.04-.26.04l-.55-.04c-.09,0-.17.04-.26.04l-.55-.04c-.09,0-.17.04-.26.04l-.55-.04c-.09,0-.17.04-.26.04l-.55-.04c-.09,0-.17.04-.26.04l-.55-.04c-.09,0-.17.04-.26.04l-.55-.04c-.09,0-.17.04-.26.04l-.55-.04c-.09,0-.17.04-.26.04l-.55-.04c-.09,0-.17.04-.26.04l-.55-.04c-.09,0-.17.04-.26.04l-.55-.04c-.09,0-.17.04-.26.04l-.55-.04c-.09,0-.17.04-.26.04l-.55-.04c-1.13-.08-2.23.33-3.03,1.11h.07Z"/>
    <path class="st2" d="M121.89,109.91c.08,1.2-.43,2.37-1.36,3.16-.94.78-2.2,1.09-3.4.82l-32.53-7.19-10.56,33.06c-.35,1.1-1.18,1.98-2.27,2.41-1.09.43-2.31.36-3.34-.19l-31.24-16.77-7.22,41.37c-.31,1.81-1.9,3.15-3.78,3.18l-44.15.8,62.51,25.49,9.22-30.08c.39-1.26,1.4-2.23,2.69-2.59,1.29-.36,2.67-.04,3.67.84l19.4,17.08,17.5-35.26c.47-.96,1.33-1.68,2.37-1.99,1.04-.31,2.16-.19,3.1.35l22.09,12.52c1.05.6,1.76,1.64,1.92,2.83l8.59,63.1,608.54-38.43,25.37-156.95L127.05,10.96s-5.16,98.95-5.16,98.95Z"/>
    <path d="M118.96,7.09l-5.21,98.21-30.95-6.84c-1.99-.44-3.99.69-4.59,2.59l-10.21,31.96-31.87-17.11c-1.11-.59-2.44-.63-3.58-.09-1.14.54-1.94,1.58-2.15,2.8l-7.6,43.55-59.56,1.08c-1.85.03-3.42,1.33-3.77,3.11-.05.24-.07.48-.07.71,0,1.52.93,2.93,2.41,3.53l83.73,34.15c1.02.42,2.18.39,3.18-.07s1.75-1.32,2.07-2.36l8.69-28.36,18.67,16.45c.91.8,2.16,1.14,3.36.91,1.21-.23,2.23-1,2.77-2.09l17.94-36.14,16.78,9.51,8.88,65.31c.14,1.06.72,2.01,1.6,2.63.88.62,1.99.85,3.05.64l615.62-39.84c1.74-.34,3.02-1.79,3.12-3.53l25.77-163.67c.09-2.02-1.5-3.89-3.64-4.04L123.13,3.02c-1.13-.08-2.23.33-3.03,1.11-.8.78-1.2,1.88-1.14,2.96ZM743.65,184.43l-608.54,38.43-8.59-63.1c-.16-1.18-.87-2.23-1.92-2.83l-22.09-12.52c-.94-.53-2.07-.66-3.1-.35-1.04.31-1.9,1.03-2.37,1.99l-17.5,35.26-19.4-17.08c-1-.88-2.38-1.2-3.67-.84-1.29.36-2.31,1.33-2.69,2.59l-9.22,30.08-62.51-25.49,44.15-.8c1.88-.03,3.47-1.37,3.78-3.18l7.22-41.37,31.24,16.77c1.03.55,2.25.62,3.34.19s1.92-1.31,2.27-2.41l10.56-33.06,32.53,7.19c1.2.27,2.46-.04,3.4-.82s1.44-1.96,1.36-3.16l5.16-98.95,641.97,16.52-25.37,156.95h-.01Z"/>
  </g>
  <g class="st3">
    <path d="M103.16,4.13c-.8.78-1.2,1.88-1.14,2.96l-5.46,94.41-13.76-3.04c-.52-.12-1.04-.11-1.54-.02-.27,0-.54-.05-.81,0-.27,0-.54-.05-.81,0-.27,0-.54-.05-.81,0-.27,0-.54-.05-.81,0-.27,0-.55-.05-.81,0-.27,0-.54-.05-.81,0-.27,0-.54-.05-.81,0-.27,0-.54-.05-.81,0-.27,0-.54-.05-.81,0-.27,0-.54-.05-.81,0-.27,0-.54-.05-.81,0-.27,0-.54-.05-.81,0-.27,0-.54-.05-.81,0-.27,0-.54-.05-.81,0-.27,0-.54-.05-.81,0-.27,0-.55-.05-.81,0-.27,0-.55-.05-.81,0-.27,0-.54-.05-.81,0-.27,0-.55-.05-.81,0-.27,0-.54-.05-.81,0-1.73-.05-3.33.95-3.86,2.62l-7.73,24.2-17.4-9.34c-.69-.37-1.46-.44-2.23-.37-.27-.03-.53-.02-.81,0-.27-.03-.53-.02-.81,0-.27-.03-.53-.02-.81,0-.27-.03-.53-.02-.81,0-.27-.03-.53-.02-.81,0-.27-.03-.53-.02-.81,0-.27-.03-.53-.02-.81,0-.27-.03-.53-.02-.81,0-.27-.03-.53-.02-.81,0-.27-.03-.53-.02-.81,0-.28-.03-.53-.02-.81,0-.28-.03-.53-.02-.81,0-.27-.03-.53-.02-.81,0-.28-.03-.53-.02-.81,0-.27-.03-.53-.02-.81,0-.27-.03-.53-.02-.81,0-.28-.03-.53-.02-.81,0-.27-.03-.53-.02-.81,0-.27-.03-.53-.02-.81,0-.27-.03-.53-.02-.81,0-.73-.09-1.47-.04-2.16.29-1.14.54-1.94,1.58-2.15,2.8l-7.6,43.55-59.56,1.08c-1.85.03-3.42,1.33-3.77,3.11-.05.24-.07.48-.07.71,0,1.52.93,2.93,2.41,3.53l83.73,34.15c.63.26,1.29.29,1.95.21.27.03.53.03.81,0,.27.03.53.03.81,0,.27.03.53.03.81,0,.27.03.53.03.81,0,.27.03.53.03.81,0,.27.03.53.03.81,0,.27.03.53.03.81,0,.27.03.53.03.81,0,.27.03.53.03.81,0,.27.03.53.03.81,0,.28.03.53.03.81,0,.27.03.53.03.81,0,.27.03.53.03.81,0,.27.03.53.03.81,0,.27.03.53.03.81,0,.27.03.53.03.81,0,.27.03.53.03.81,0,.27.03.53.03.81,0,.27.03.53.03.81,0,.27.03.53.03.81,0,.69.06,1.39,0,2.03-.29,1-.46,1.75-1.32,2.07-2.36l5.09-16.61,5.33,4.7c.91.8,2.16,1.14,3.36.91.02,0,.04-.02.06-.03.25,0,.49.08.74.03.02,0,.04-.02.06-.03.25,0,.49.08.74.03.02,0,.04-.02.06-.03.25,0,.49.08.74.03.02,0,.04-.02.06-.03.25,0,.49.08.74.03.02,0,.04-.02.06-.03.25,0,.49.08.74.03.02,0,.04-.02.06-.03.25,0,.49.08.74.03.02,0,.04-.02.06-.03.25,0,.49.08.74.03.02,0,.04-.02.06-.03.25,0,.49.08.74.03.02,0,.04-.02.06-.03.25,0,.49.08.74.03.02,0,.04-.02.06-.03.25,0,.49.08.74.03.02,0,.04-.02.06-.03.25,0,.49.08.74.03.02,0,.04-.02.06-.03.25,0,.49.08.74.03.02,0,.04-.02.06-.03.25,0,.49.08.74.03.02,0,.04-.02.06-.03.25,0,.49.08.74.03.02,0,.04-.02.06-.03.25,0,.49.08.74.03.02,0,.04-.02.06-.03.25,0,.49.08.74.03.02,0,.04-.02.06-.03.25,0,.49.08.74.03.02,0,.04-.02.06-.03.25,0,.49.08.74.03.02,0,.04-.02.06-.03.25,0,.49.08.74.03.02,0,.04-.02.06-.03.25,0,.49.08.74.03.02,0,.04-.02.06-.03.25,0,.49.08.74.03,1.21-.23,2.23-1,2.77-2.09l14.22-28.64,3.55,2.01,8.88,65.31c.14,1.06.72,2.01,1.6,2.63.88.62,1.99.85,3.05.64h.02c.26,0,.52.05.79,0h.02c.26,0,.52.05.79,0h.02c.26,0,.52.05.79,0h.02c.26,0,.52.05.79,0h.02c.26,0,.52.05.79,0h.02c.26,0,.52.05.79,0h.02c.26,0,.53.05.79,0h.02c.26,0,.52.05.79,0h.02c.26,0,.52.05.79,0h.02c.26,0,.52.05.79,0h.02c.26,0,.52.05.79,0h.02c.26,0,.52.05.79,0h.02c.26,0,.52.05.79,0h.02c.26,0,.52.05.79,0h.02c.26,0,.52.05.79,0h.02c.26,0,.52.05.79,0h.02c.26,0,.52.05.79,0h.02c.26,0,.52.05.79,0h.02c.26,0,.53.05.79,0h.02c.26,0,.52.05.79,0h.02c.26,0,.53.05.79,0l615.62-39.84c1.74-.34,3.02-1.79,3.12-3.53l25.77-163.67c.09-2.02-1.5-3.89-3.64-4.04L123.13,3.02c-.09,0-.17.04-.26.04l-.55-.04c-.09,0-.17.04-.26.04l-.55-.04c-.09,0-.17.04-.26.04l-.55-.04c-.09,0-.17.04-.26.04l-.55-.04c-.09,0-.17.04-.26.04l-.55-.04c-.09,0-.17.04-.26.04l-.55-.04c-.09,0-.17.04-.26.04l-.55-.04c-.09,0-.17.04-.26.04l-.55-.04c-.09,0-.17.04-.26.04l-.55-.04c-.09,0-.17.04-.26.04l-.55-.04c-.09,0-.17.04-.26.04l-.55-.04c-.09,0-.17.04-.26.04l-.55-.04c-.09,0-.17.04-.26.04l-.55-.04c-.09,0-.17.04-.26.04l-.55-.04c-.09,0-.17.04-.26.04l-.55-.04c-.09,0-.17.04-.26.04l-.55-.04c-.09,0-.17.04-.26.04l-.55-.04c-.09,0-.17.04-.26.04l-.55-.04c-.09,0-.17.04-.26.04l-.55-.04c-.09,0-.17.04-.26.04l-.55-.04c-.09,0-.17.04-.26.04l-.55-.04c-1.13-.08-2.23.33-3.03,1.11h.07Z"/>
    <path class="st1" d="M121.89,109.91c.08,1.2-.43,2.37-1.36,3.16-.94.78-2.2,1.09-3.4.82l-32.53-7.19-10.56,33.06c-.35,1.1-1.18,1.98-2.27,2.41-1.09.43-2.31.36-3.34-.19l-31.24-16.77-7.22,41.37c-.31,1.81-1.9,3.15-3.78,3.18l-44.15.8,62.51,25.49,9.22-30.08c.39-1.26,1.4-2.23,2.69-2.59,1.29-.36,2.67-.04,3.67.84l19.4,17.08,17.5-35.26c.47-.96,1.33-1.68,2.37-1.99,1.04-.31,2.16-.19,3.1.35l22.09,12.52c1.05.6,1.76,1.64,1.92,2.83l8.59,63.1,608.54-38.43,25.37-156.95L127.05,10.96s-5.16,98.95-5.16,98.95Z"/>
    <path d="M118.96,7.09l-5.21,98.21-30.95-6.84c-1.99-.44-3.99.69-4.59,2.59l-10.21,31.96-31.87-17.11c-1.11-.59-2.44-.63-3.58-.09-1.14.54-1.94,1.58-2.15,2.8l-7.6,43.55-59.56,1.08c-1.85.03-3.42,1.33-3.77,3.11-.05.24-.07.48-.07.71,0,1.52.93,2.93,2.41,3.53l83.73,34.15c1.02.42,2.18.39,3.18-.07s1.75-1.32,2.07-2.36l8.69-28.36,18.67,16.45c.91.8,2.16,1.14,3.36.91,1.21-.23,2.23-1,2.77-2.09l17.94-36.14,16.78,9.51,8.88,65.31c.14,1.06.72,2.01,1.6,2.63.88.62,1.99.85,3.05.64l615.62-39.84c1.74-.34,3.02-1.79,3.12-3.53l25.77-163.67c.09-2.02-1.5-3.89-3.64-4.04L123.13,3.02c-1.13-.08-2.23.33-3.03,1.11-.8.78-1.2,1.88-1.14,2.96ZM743.65,184.43l-608.54,38.43-8.59-63.1c-.16-1.18-.87-2.23-1.92-2.83l-22.09-12.52c-.94-.53-2.07-.66-3.1-.35-1.04.31-1.9,1.03-2.37,1.99l-17.5,35.26-19.4-17.08c-1-.88-2.38-1.2-3.67-.84-1.29.36-2.31,1.33-2.69,2.59l-9.22,30.08-62.51-25.49,44.15-.8c1.88-.03,3.47-1.37,3.78-3.18l7.22-41.37,31.24,16.77c1.03.55,2.25.62,3.34.19s1.92-1.31,2.27-2.41l10.56-33.06,32.53,7.19c1.2.27,2.46-.04,3.4-.82s1.44-1.96,1.36-3.16l5.16-98.95,641.97,16.52-25.37,156.95h-.01Z"/>
  </g>
  <g>
    <g>
      <path d="M103.01,3.83c-.8.78-1.2,1.88-1.14,2.96l-5.46,94.41-13.76-3.04c-.52-.12-1.04-.11-1.54-.02-.27,0-.54-.05-.81,0-.27,0-.54-.05-.81,0-.27,0-.54-.05-.81,0-.27,0-.54-.05-.81,0-.27,0-.55-.05-.81,0-.27,0-.54-.05-.81,0-.27,0-.54-.05-.81,0-.27,0-.54-.05-.81,0-.27,0-.54-.05-.81,0-.27,0-.54-.05-.81,0-.27,0-.54-.05-.81,0-.27,0-.54-.05-.81,0-.27,0-.54-.05-.81,0-.27,0-.54-.05-.81,0-.27,0-.54-.05-.81,0-.27,0-.55-.05-.81,0-.27,0-.55-.05-.81,0-.27,0-.54-.05-.81,0-.27,0-.55-.05-.81,0-.27,0-.54-.05-.81,0-1.73-.05-3.33.95-3.86,2.62l-7.73,24.2-17.4-9.34c-.69-.37-1.46-.44-2.23-.37-.27-.03-.53-.02-.81,0-.27-.03-.53-.02-.81,0-.27-.03-.53-.02-.81,0-.27-.03-.53-.02-.81,0-.27-.03-.53-.02-.81,0-.27-.03-.53-.02-.81,0-.27-.03-.53-.02-.81,0-.27-.03-.53-.02-.81,0-.27-.03-.53-.02-.81,0-.27-.03-.53-.02-.81,0-.28-.03-.53-.02-.81,0-.28-.03-.53-.02-.81,0-.27-.03-.53-.02-.81,0-.28-.03-.53-.02-.81,0-.27-.03-.53-.02-.81,0-.27-.03-.53-.02-.81,0-.28-.03-.53-.02-.81,0-.27-.03-.53-.02-.81,0-.27-.03-.53-.02-.81,0-.27-.03-.53-.02-.81,0-.73-.09-1.47-.04-2.16.29-1.14.54-1.94,1.58-2.15,2.8l-7.6,43.55-59.56,1.08c-1.85.03-3.42,1.33-3.77,3.11-.05.24-.07.48-.07.71,0,1.52.93,2.93,2.41,3.53l83.73,34.15c.63.26,1.29.29,1.95.21.27.03.53.03.81,0,.27.03.53.03.81,0,.27.03.53.03.81,0,.27.03.53.03.81,0,.27.03.53.03.81,0,.27.03.53.03.81,0,.27.03.53.03.81,0,.27.03.53.03.81,0,.27.03.53.03.81,0,.27.03.53.03.81,0,.28.03.53.03.81,0,.27.03.53.03.81,0,.27.03.53.03.81,0,.27.03.53.03.81,0,.27.03.53.03.81,0,.27.03.53.03.81,0,.27.03.53.03.81,0,.27.03.53.03.81,0,.27.03.53.03.81,0,.27.03.53.03.81,0,.69.06,1.39,0,2.03-.29,1-.46,1.75-1.32,2.07-2.36l5.09-16.61,5.33,4.7c.91.8,2.16,1.14,3.36.91.02,0,.04-.02.06-.03.25,0,.49.08.74.03.02,0,.04-.02.06-.03.25,0,.49.08.74.03.02,0,.04-.02.06-.03.25,0,.49.08.74.03.02,0,.04-.02.06-.03.25,0,.49.08.74.03.02,0,.04-.02.06-.03.25,0,.49.08.74.03.02,0,.04-.02.06-.03.25,0,.49.08.74.03.02,0,.04-.02.06-.03.25,0,.49.08.74.03.02,0,.04-.02.06-.03.25,0,.49.08.74.03.02,0,.04-.02.06-.03.25,0,.49.08.74.03.02,0,.04-.02.06-.03.25,0,.49.08.74.03.02,0,.04-.02.06-.03.25,0,.49.08.74.03.02,0,.04-.02.06-.03.25,0,.49.08.74.03.02,0,.04-.02.06-.03.25,0,.49.08.74.03.02,0,.04-.02.06-.03.25,0,.49.08.74.03.02,0,.04-.02.06-.03.25,0,.49.08.74.03.02,0,.04-.02.06-.03.25,0,.49.08.74.03.02,0,.04-.02.06-.03.25,0,.49.08.74.03.02,0,.04-.02.06-.03.25,0,.49.08.74.03.02,0,.04-.02.06-.03.25,0,.49.08.74.03.02,0,.04-.02.06-.03.25,0,.49.08.74.03.02,0,.04-.02.06-.03.25,0,.49.08.74.03,1.21-.23,2.23-1,2.77-2.09l14.22-28.64,3.55,2.01,8.88,65.31c.14,1.06.72,2.01,1.6,2.63.88.62,1.99.85,3.05.64h.02c.26,0,.52.05.79,0h.02c.26,0,.52.05.79,0h.02c.26,0,.52.05.79,0h.02c.26,0,.52.05.79,0h.02c.26,0,.52.05.79,0h.02c.26,0,.52.05.79,0h.02c.26,0,.53.05.79,0h.02c.26,0,.52.05.79,0h.02c.26,0,.52.05.79,0h.02c.26,0,.52.05.79,0h.02c.26,0,.52.05.79,0h.02c.26,0,.52.05.79,0h.02c.26,0,.52.05.79,0h.02c.26,0,.52.05.79,0h.02c.26,0,.52.05.79,0h.02c.26,0,.52.05.79,0h.02c.26,0,.52.05.79,0h.02c.26,0,.52.05.79,0h.02c.26,0,.53.05.79,0h.02c.26,0,.52.05.79,0h.02c.26,0,.53.05.79,0l615.62-39.84c1.74-.34,3.02-1.79,3.12-3.53l25.77-163.67c.09-2.02-1.5-3.89-3.64-4.04L122.98,2.72c-.09,0-.17.04-.26.04l-.55-.04c-.09,0-.17.04-.26.04l-.55-.04c-.09,0-.17.04-.26.04l-.55-.04c-.09,0-.17.04-.26.04l-.55-.04c-.09,0-.17.04-.26.04l-.55-.04c-.09,0-.17.04-.26.04l-.55-.04c-.09,0-.17.04-.26.04l-.55-.04c-.09,0-.17.04-.26.04l-.55-.04c-.09,0-.17.04-.26.04l-.55-.04c-.09,0-.17.04-.26.04l-.55-.04c-.09,0-.17.04-.26.04l-.55-.04c-.09,0-.17.04-.26.04l-.55-.04c-.09,0-.17.04-.26.04l-.55-.04c-.09,0-.17.04-.26.04l-.55-.04c-.09,0-.17.04-.26.04l-.55-.04c-.09,0-.17.04-.26.04l-.55-.04c-.09,0-.17.04-.26.04l-.55-.04c-.09,0-.17.04-.26.04l-.55-.04c-.09,0-.17.04-.26.04l-.55-.04c-.09,0-.17.04-.26.04l-.55-.04c-.09,0-.17.04-.26.04l-.55-.04c-1.13-.08-2.23.33-3.03,1.11h.07Z"/>
      <path class="st1" d="M121.75,109.61c.08,1.2-.43,2.37-1.36,3.16-.94.78-2.2,1.09-3.4.82l-32.53-7.19-10.56,33.06c-.35,1.1-1.18,1.98-2.27,2.41-1.09.43-2.31.36-3.34-.19l-31.24-16.77-7.22,41.37c-.31,1.81-1.9,3.15-3.78,3.18l-44.15.8,62.51,25.49,9.22-30.08c.39-1.26,1.4-2.23,2.69-2.59,1.29-.36,2.67-.04,3.67.84l19.4,17.08,17.5-35.26c.47-.96,1.33-1.68,2.37-1.99,1.04-.31,2.16-.19,3.1.35l22.09,12.52c1.05.6,1.76,1.64,1.92,2.83l8.59,63.1,608.54-38.43,25.37-156.95L126.91,10.65l-5.16,98.95h0Z"/>
      <path d="M118.82,6.78l-5.21,98.21-30.95-6.84c-1.99-.44-3.99.69-4.59,2.59l-10.21,31.96-31.87-17.11c-1.11-.59-2.44-.63-3.58-.09-1.14.54-1.94,1.58-2.15,2.8l-7.6,43.55-59.56,1.08c-1.85.03-3.42,1.33-3.77,3.11-.05.24-.07.48-.07.71,0,1.52.93,2.93,2.41,3.53l83.73,34.15c1.02.42,2.18.39,3.18-.07s1.75-1.32,2.07-2.36l8.69-28.36,18.67,16.45c.91.8,2.16,1.14,3.36.91,1.21-.23,2.23-1,2.77-2.09l17.94-36.14,16.78,9.51,8.88,65.31c.14,1.06.72,2.01,1.6,2.63.88.62,1.99.85,3.05.64l615.62-39.84c1.74-.34,3.02-1.79,3.12-3.53l25.77-163.67c.09-2.02-1.5-3.89-3.64-4.04L122.98,2.72c-1.13-.08-2.23.33-3.03,1.11-.8.78-1.2,1.88-1.14,2.96h0ZM743.5,184.12l-608.54,38.43-8.59-63.1c-.16-1.18-.87-2.23-1.92-2.83l-22.09-12.52c-.94-.53-2.07-.66-3.1-.35-1.04.31-1.9,1.03-2.37,1.99l-17.5,35.26-19.4-17.08c-1-.88-2.38-1.2-3.67-.84-1.29.36-2.31,1.33-2.69,2.59l-9.22,30.08-62.51-25.49,44.15-.8c1.88-.03,3.47-1.37,3.78-3.18l7.22-41.37,31.24,16.77c1.03.55,2.25.62,3.34.19s1.92-1.31,2.27-2.41l10.56-33.06,32.53,7.19c1.2.27,2.46-.04,3.4-.82s1.44-1.96,1.36-3.16l5.16-98.95,641.97,16.52-25.37,156.95h-.01Z"/>
    </g>
    <g class="st0">
      <g class="st0">
        <path d="M173.19,78.85v6.99c0,.27-.1.5-.31.7s-.44.3-.71.3h-5.09c-.27,0-.51-.1-.71-.3s-.31-.43-.31-.7v-24.45c0-.27.1-.5.31-.7.2-.2.44-.3.71-.3h11.6c1.53,0,2.88.27,4.05.8,1.17.53,2.14,1.23,2.9,2.1.76.87,1.34,1.85,1.73,2.97.39,1.12.58,2.24.58,3.37s-.2,2.3-.58,3.39c-.39,1.1-.97,2.08-1.73,2.94-.76.87-1.73,1.56-2.9,2.1-1.17.53-2.52.8-4.05.8h-5.5ZM178.23,71.86c.88,0,1.53-.23,1.96-.7.42-.47.64-.98.64-1.55s-.21-1.08-.64-1.55c-.42-.47-1.08-.7-1.96-.7h-5.04v4.49h5.04Z"/>
        <path d="M201.95,81.49c.54,0,1.11-.05,1.71-.15.59-.1,1.18-.22,1.76-.37.58-.15,1.11-.32,1.6-.52.49-.2.92-.4,1.3-.6l1.02,4.99c-.58.33-1.26.62-2.04.87-.78.25-1.57.46-2.37.62-.8.17-1.59.29-2.37.37-.78.08-1.46.12-2.04.12-1.22,0-2.38-.13-3.46-.4-1.09-.27-2.04-.71-2.88-1.32-.83-.62-1.48-1.43-1.96-2.44-.48-1.01-.71-2.29-.71-3.82v-5.64c0-1.33.51-2.47,1.53-3.42,1.02-.95,2.54-1.42,4.58-1.42h6.62c1.73,0,3.01.37,3.84,1.12.83.75,1.25,1.66,1.25,2.72,0,.83-.23,1.68-.69,2.54-.46.87-1.12,1.69-1.98,2.47-.87.78-1.93,1.48-3.18,2.1-1.26.62-2.68,1.09-4.28,1.42.27.27.65.46,1.15.57.49.12,1.03.17,1.6.17ZM198.64,74.35v3.09c.81-.37,1.57-.81,2.27-1.32.69-.52,1.13-1.11,1.3-1.77h-3.56Z"/>
        <path d="M231.21,75.35c0,.27-.1.5-.31.7s-.44.3-.71.3h-6.11v-1.15c0-.5-.15-.85-.46-1.05-.31-.2-.66-.3-1.07-.3-.81,0-1.66.27-2.54.8v11.18c0,.27-.1.5-.31.7s-.44.3-.71.3h-5.09c-.27,0-.51-.1-.71-.3s-.31-.43-.31-.7v-16.47c0-.27.1-.5.31-.7s.44-.3.71-.3h6.11v2c.98-.63,2.04-1.12,3.18-1.47,1.14-.35,2.21-.52,3.23-.52,1.32,0,2.45.32,3.38.95.93.63,1.4,1.65,1.4,3.04v2.99Z"/>
        <path d="M249.44,74.75c-1.19-.5-2.43-.93-3.72-1.3-1.29-.37-2.48-.55-3.56-.55-.54,0-.98.06-1.3.17-.32.12-.48.31-.48.57,0,.33.29.6.87.8.58.2,1.3.39,2.16.57.87.18,1.81.41,2.83.67,1.02.27,1.96.62,2.82,1.07.87.45,1.59,1.04,2.16,1.77.58.73.87,1.66.87,2.79,0,1-.23,1.85-.69,2.54-.46.7-1.08,1.26-1.86,1.7-.78.43-1.7.75-2.75.95s-2.17.3-3.36.3c-1.73,0-3.5-.18-5.29-.55-1.8-.37-3.43-.85-4.89-1.45l1.83-4.34c.54.23,1.14.46,1.78.67.64.22,1.31.42,2.01.6.7.18,1.37.32,2.04.42.66.1,1.26.15,1.81.15.61,0,1.14-.07,1.58-.22.44-.15.66-.41.66-.77,0-.27-.29-.49-.87-.67-.58-.18-1.3-.37-2.16-.57-.87-.2-1.81-.44-2.83-.72-1.02-.28-1.96-.67-2.82-1.15-.87-.48-1.59-1.08-2.16-1.8-.58-.71-.87-1.62-.87-2.72,0-1.03.21-1.89.64-2.57.42-.68,1.01-1.23,1.76-1.65.75-.42,1.62-.71,2.62-.87,1-.17,2.06-.25,3.18-.25,1.73,0,3.38.16,4.96.47,1.58.32,2.96.66,4.15,1.02l-1.12,4.89Z"/>
        <path d="M266.89,68.37c1.12,0,2.17.16,3.16.47.98.32,1.85.77,2.6,1.37.75.6,1.33,1.33,1.76,2.2.42.87.64,1.85.64,2.94v4.49c0,1.1-.21,2.08-.64,2.94-.42.87-1.01,1.6-1.76,2.2-.75.6-1.61,1.06-2.6,1.37-.98.32-2.04.47-3.16.47h-4.07c-1.12,0-2.17-.16-3.16-.47-.98-.32-1.85-.77-2.6-1.37-.75-.6-1.33-1.33-1.76-2.2-.42-.86-.64-1.85-.64-2.94v-4.49c0-1.1.21-2.08.64-2.94.42-.86,1.01-1.6,1.76-2.2.75-.6,1.61-1.06,2.6-1.37.98-.32,2.04-.47,3.16-.47h4.07ZM267.91,76.1c0-.27-.1-.5-.31-.7-.2-.2-.44-.3-.71-.3h-4.07c-.27,0-.51.1-.71.3-.2.2-.31.43-.31.7v2.99c0,.27.1.5.31.7.2.2.44.3.71.3h4.07c.27,0,.51-.1.71-.3.2-.2.31-.43.31-.7v-2.99Z"/>
        <path d="M297.69,85.83c0,.27-.1.5-.31.7s-.44.3-.71.3h-5.09c-.27,0-.51-.1-.71-.3s-.31-.43-.31-.7v-10.23c0-.76-.19-1.3-.56-1.6-.37-.3-.75-.45-1.12-.45-.58,0-1.15.19-1.71.57-.56.38-.96.79-1.2,1.22v10.48c0,.27-.1.5-.31.7s-.44.3-.71.3h-5.09c-.27,0-.51-.1-.71-.3s-.31-.43-.31-.7v-16.47c0-.27.1-.5.31-.7s.44-.3.71-.3h6.11v2c1.02-.57,2.07-1.04,3.16-1.42,1.09-.38,2.14-.57,3.16-.57.75,0,1.45.12,2.11.37s1.23.67,1.71,1.27c.47.6.86,1.37,1.15,2.32.29.95.43,2.12.43,3.52v9.98Z"/>
        <path d="M300.74,80.84c0-1.7.81-3.03,2.44-3.99,1.63-.96,4.34-1.46,8.14-1.5-.14-.6-.5-1.02-1.09-1.27-.59-.25-1.3-.37-2.11-.37-.54,0-1.12.05-1.73.15-.61.1-1.2.22-1.76.37-.56.15-1.09.32-1.6.52s-.93.4-1.27.6l-1.02-4.99c.58-.33,1.25-.62,2.04-.87.78-.25,1.57-.46,2.37-.62.8-.17,1.59-.29,2.37-.37.78-.08,1.46-.12,2.04-.12,1.22,0,2.37.13,3.46.4,1.09.27,2.04.71,2.88,1.32.83.62,1.48,1.43,1.96,2.44.47,1.02.71,2.29.71,3.82v9.48c0,.27-.1.5-.31.7s-.44.3-.71.3h-12.72c-1.12,0-2.08-.39-2.88-1.17-.8-.78-1.2-1.72-1.2-2.82v-2ZM311.43,80.84v-2.35c-.81.17-1.57.43-2.26.8-.7.37-1.13.88-1.3,1.55h3.56Z"/>
        <path d="M328.73,60.38c.27,0,.51.1.71.3.2.2.31.43.31.7v24.45c0,.27-.1.5-.31.7s-.44.3-.71.3h-5.09c-.27,0-.51-.1-.71-.3s-.31-.43-.31-.7v-24.45c0-.27.1-.5.31-.7.2-.2.44-.3.71-.3h5.09Z"/>
        <path d="M339.93,60.38c.27,0,.51.1.71.3.2.2.31.43.31.7v3.49c0,.27-.1.5-.31.7s-.44.3-.71.3h-5.09c-.27,0-.51-.1-.71-.3s-.31-.43-.31-.7v-3.49c0-.27.1-.5.31-.7.2-.2.44-.3.71-.3h5.09ZM339.93,68.37c.27,0,.51.1.71.3s.31.43.31.7v16.47c0,.27-.1.5-.31.7s-.44.3-.71.3h-5.09c-.27,0-.51-.1-.71-.3s-.31-.43-.31-.7v-16.47c0-.27.1-.5.31-.7s.44-.3.71-.3h5.09Z"/>
        <path d="M357.75,86.03c-1.53.5-3,.75-4.43.75-1.19,0-2.29-.18-3.31-.55-1.02-.37-1.89-.91-2.62-1.62-.73-.71-1.31-1.62-1.73-2.72-.42-1.1-.64-2.38-.64-3.84v-16.67c0-.27.1-.5.31-.7.2-.2.44-.3.71-.3h5.09c.27,0,.51.1.71.3.2.2.31.43.31.7v2.5h4.07c.27,0,.51.1.71.3.2.2.31.43.31.7v3.99c0,.27-.1.5-.31.7-.2.2-.44.3-.71.3h-4.07v8.18c0,.96.26,1.72.79,2.27.53.55,1.26.82,2.21.82h.51c.17,0,.36-.03.56-.1l1.53,4.99Z"/>
        <path d="M378.61,86.83c0,1.53-.24,2.8-.71,3.82-.48,1.01-1.13,1.83-1.96,2.44-.83.62-1.79,1.06-2.88,1.32-1.09.27-2.24.4-3.46.4s-2.57-.17-4.15-.5c-1.58-.33-2.96-.83-4.15-1.5l1.53-3.99c.64.2,1.36.37,2.14.52.78.15,1.56.22,2.34.22,1.12,0,2.09-.2,2.93-.6.83-.4,1.25-1.11,1.25-2.15v-1.05c-1.49.6-2.94.9-4.33.9-1.93,0-3.56-.63-4.89-1.9-1.32-1.26-1.98-3.24-1.98-5.94v-9.48c0-.27.1-.5.31-.7s.44-.3.71-.3h5.09c.27,0,.51.1.71.3s.31.43.31.7v9.98c0,.8.16,1.37.48,1.72.32.35.72.52,1.2.52.71,0,1.51-.3,2.39-.9v-11.33c0-.27.1-.5.31-.7s.44-.3.71-.3h5.09c.27,0,.51.1.71.3s.31.43.31.7v17.46Z"/>
        <path d="M401.52,86.03c-1.53.5-3,.75-4.43.75-1.19,0-2.29-.18-3.31-.55-1.02-.37-1.89-.91-2.62-1.62-.73-.71-1.31-1.62-1.73-2.72-.42-1.1-.64-2.38-.64-3.84v-16.67c0-.27.1-.5.31-.7.2-.2.44-.3.71-.3h5.09c.27,0,.51.1.71.3.2.2.3.43.3.7v2.5h4.07c.27,0,.51.1.71.3.2.2.3.43.3.7v3.99c0,.27-.1.5-.3.7-.2.2-.44.3-.71.3h-4.07v8.18c0,.96.26,1.72.79,2.27.53.55,1.26.82,2.21.82h.51c.17,0,.36-.03.56-.1l1.53,4.99Z"/>
        <path d="M422.38,75.35c0,.27-.1.5-.31.7s-.44.3-.71.3h-6.11v-1.15c0-.5-.15-.85-.46-1.05-.3-.2-.66-.3-1.07-.3-.81,0-1.66.27-2.54.8v11.18c0,.27-.1.5-.31.7s-.44.3-.71.3h-5.09c-.27,0-.51-.1-.71-.3-.2-.2-.31-.43-.31-.7v-16.47c0-.27.1-.5.31-.7.2-.2.44-.3.71-.3h6.11v2c.98-.63,2.04-1.12,3.18-1.47,1.14-.35,2.21-.52,3.23-.52,1.32,0,2.45.32,3.38.95.93.63,1.4,1.65,1.4,3.04v2.99Z"/>
        <path d="M424.93,80.84c0-1.7.81-3.03,2.44-3.99,1.63-.96,4.34-1.46,8.14-1.5-.14-.6-.5-1.02-1.09-1.27-.59-.25-1.3-.37-2.11-.37-.54,0-1.12.05-1.73.15-.61.1-1.2.22-1.76.37-.56.15-1.09.32-1.6.52-.51.2-.93.4-1.27.6l-1.02-4.99c.58-.33,1.25-.62,2.04-.87.78-.25,1.57-.46,2.37-.62.8-.17,1.59-.29,2.37-.37.78-.08,1.46-.12,2.04-.12,1.22,0,2.38.13,3.46.4,1.09.27,2.04.71,2.88,1.32.83.62,1.48,1.43,1.96,2.44.47,1.02.71,2.29.71,3.82v9.48c0,.27-.1.5-.31.7s-.44.3-.71.3h-12.72c-1.12,0-2.08-.39-2.88-1.17-.8-.78-1.2-1.72-1.2-2.82v-2ZM435.62,80.84v-2.35c-.81.17-1.57.43-2.26.8-.7.37-1.13.88-1.3,1.55h3.56Z"/>
        <path d="M452.92,60.38c.27,0,.51.1.71.3.2.2.31.43.31.7v3.49c0,.27-.1.5-.31.7-.2.2-.44.3-.71.3h-5.09c-.27,0-.51-.1-.71-.3s-.31-.43-.31-.7v-3.49c0-.27.1-.5.31-.7.2-.2.44-.3.71-.3h5.09ZM452.92,68.37c.27,0,.51.1.71.3.2.2.31.43.31.7v16.47c0,.27-.1.5-.31.7-.2.2-.44.3-.71.3h-5.09c-.27,0-.51-.1-.71-.3s-.31-.43-.31-.7v-16.47c0-.27.1-.5.31-.7s.44-.3.71-.3h5.09Z"/>
        <path d="M470.74,86.03c-1.53.5-3,.75-4.43.75-1.19,0-2.29-.18-3.31-.55-1.02-.37-1.89-.91-2.62-1.62-.73-.71-1.31-1.62-1.73-2.72-.42-1.1-.64-2.38-.64-3.84v-16.67c0-.27.1-.5.31-.7.2-.2.44-.3.71-.3h5.09c.27,0,.51.1.71.3.2.2.31.43.31.7v2.5h4.07c.27,0,.51.1.71.3.2.2.31.43.31.7v3.99c0,.27-.1.5-.31.7-.2.2-.44.3-.71.3h-4.07v8.18c0,.96.26,1.72.79,2.27.53.55,1.26.82,2.21.82h.51c.17,0,.36-.03.56-.1l1.53,4.99Z"/>
        <path d="M488.45,74.75c-1.19-.5-2.43-.93-3.72-1.3-1.29-.37-2.48-.55-3.56-.55-.54,0-.98.06-1.3.17-.32.12-.48.31-.48.57,0,.33.29.6.87.8.58.2,1.3.39,2.16.57.87.18,1.81.41,2.83.67,1.02.27,1.96.62,2.82,1.07.87.45,1.59,1.04,2.16,1.77.58.73.87,1.66.87,2.79,0,1-.23,1.85-.69,2.54-.46.7-1.08,1.26-1.86,1.7-.78.43-1.7.75-2.75.95s-2.17.3-3.36.3c-1.73,0-3.5-.18-5.29-.55-1.8-.37-3.43-.85-4.89-1.45l1.83-4.34c.54.23,1.14.46,1.78.67.64.22,1.31.42,2.01.6.7.18,1.38.32,2.04.42.66.1,1.26.15,1.81.15.61,0,1.14-.07,1.58-.22.44-.15.66-.41.66-.77,0-.27-.29-.49-.87-.67-.58-.18-1.3-.37-2.16-.57-.87-.2-1.81-.44-2.83-.72-1.02-.28-1.96-.67-2.83-1.15-.87-.48-1.59-1.08-2.16-1.8-.58-.71-.87-1.62-.87-2.72,0-1.03.21-1.89.64-2.57.42-.68,1.01-1.23,1.76-1.65.75-.42,1.62-.71,2.62-.87,1-.17,2.06-.25,3.18-.25,1.73,0,3.38.16,4.96.47,1.58.32,2.96.66,4.15,1.02l-1.12,4.89Z"/>
        <path d="M497,76.85c-.27,0-.51-.1-.71-.3-.2-.2-.31-.43-.31-.7v-3.99c0-.27.1-.5.31-.7.2-.2.44-.3.71-.3h4.07c.27,0,.51.1.71.3.2.2.31.43.31.7v3.99c0,.27-.1.5-.31.7s-.44.3-.71.3h-4.07ZM497,86.83c-.27,0-.51-.1-.71-.3-.2-.2-.31-.43-.31-.7v-3.99c0-.27.1-.5.31-.7.2-.2.44-.3.71-.3h4.07c.27,0,.51.1.71.3s.31.43.31.7v3.99c0,.27-.1.5-.31.7s-.44.3-.71.3h-4.07Z"/>
      </g>
      <g class="st0">
        <path d="M180.32,112.78c-.27,0-.51-.1-.71-.3-.2-.2-.31-.43-.31-.7v-.5c0-.77-.31-1.29-.94-1.57-.63-.28-1.33-.42-2.11-.42s-1.48.14-2.11.42-.94.81-.94,1.57v8.48c0,.77.31,1.29.94,1.57.63.28,1.33.42,2.11.42s1.48-.14,2.11-.42c.63-.28.94-.81.94-1.57v-.5c0-.27.1-.5.31-.7s.44-.3.71-.3h5.09c.27,0,.51.1.71.3s.31.43.31.7v2.04c0,1.5-.3,2.72-.89,3.67-.59.95-1.37,1.71-2.32,2.27-.95.57-2.04.96-3.28,1.17-1.24.22-2.49.32-3.74.32s-2.54-.11-3.74-.32c-1.21-.22-2.28-.6-3.23-1.15-.95-.55-1.71-1.3-2.29-2.27-.58-.96-.87-2.2-.87-3.69v-11.53c0-1.5.29-2.73.87-3.69.58-.96,1.34-1.72,2.29-2.27.95-.55,2.03-.93,3.23-1.15,1.2-.22,2.45-.32,3.74-.32s2.5.11,3.74.32c1.24.22,2.33.61,3.28,1.17.95.57,1.72,1.32,2.32,2.27.59.95.89,2.17.89,3.67v2c0,.27-.1.5-.31.7-.2.2-.44.3-.71.3h-5.09Z"/>
        <path d="M209.33,127.75c0,.27-.1.5-.31.7-.2.2-.44.3-.71.3h-5.09c-.27,0-.51-.1-.71-.3-.2-.2-.31-.43-.31-.7v-9.98c0-.86-.2-1.46-.59-1.8-.39-.33-.84-.5-1.35-.5-.44,0-.9.09-1.37.27-.48.18-.9.41-1.27.67v11.33c0,.27-.1.5-.31.7-.2.2-.44.3-.71.3h-5.09c-.27,0-.51-.1-.71-.3-.2-.2-.31-.43-.31-.7v-24.45c0-.27.1-.5.31-.7.2-.2.44-.3.71-.3h5.09c.27,0,.51.1.71.3.2.2.31.43.31.7v8.03c.78-.3,1.59-.54,2.42-.72.83-.18,1.64-.27,2.42-.27.88,0,1.73.13,2.54.4.81.27,1.53.71,2.16,1.32.63.62,1.14,1.43,1.53,2.44.39,1.02.6,2.27.64,3.77v9.48Z"/>
        <path d="M212.38,122.76c0-1.7.81-3.03,2.44-3.99,1.63-.96,4.34-1.46,8.14-1.5-.14-.6-.5-1.02-1.09-1.27-.59-.25-1.3-.37-2.11-.37-.54,0-1.12.05-1.73.15-.61.1-1.2.22-1.76.37-.56.15-1.09.32-1.6.52s-.93.4-1.27.6l-1.02-4.99c.58-.33,1.25-.62,2.04-.87.78-.25,1.57-.46,2.37-.62.8-.17,1.59-.29,2.37-.37.78-.08,1.46-.12,2.04-.12,1.22,0,2.37.13,3.46.4,1.09.27,2.04.71,2.88,1.32.83.62,1.48,1.43,1.96,2.44.47,1.02.71,2.29.71,3.82v9.48c0,.27-.1.5-.31.7-.2.2-.44.3-.71.3h-12.72c-1.12,0-2.08-.39-2.88-1.17-.8-.78-1.2-1.72-1.2-2.82v-2ZM223.07,122.76v-2.35c-.81.17-1.57.43-2.26.8-.7.37-1.13.88-1.3,1.55h3.56Z"/>
        <path d="M253.1,127.75c0,.27-.1.5-.31.7-.2.2-.44.3-.71.3h-5.09c-.27,0-.51-.1-.71-.3-.2-.2-.31-.43-.31-.7v-10.23c0-.76-.19-1.3-.56-1.6-.37-.3-.75-.45-1.12-.45-.58,0-1.15.19-1.71.57-.56.38-.96.79-1.2,1.22v10.48c0,.27-.1.5-.31.7-.2.2-.44.3-.71.3h-5.09c-.27,0-.51-.1-.71-.3-.2-.2-.31-.43-.31-.7v-16.47c0-.27.1-.5.31-.7s.44-.3.71-.3h6.11v2c1.02-.57,2.07-1.04,3.16-1.42,1.09-.38,2.14-.57,3.16-.57.75,0,1.45.12,2.11.37s1.23.67,1.71,1.27c.47.6.86,1.37,1.15,2.32.29.95.43,2.12.43,3.52v9.98Z"/>
        <path d="M267.1,123.41c.54,0,1.11-.05,1.71-.15.59-.1,1.18-.22,1.76-.38.58-.15,1.11-.32,1.6-.52.49-.2.92-.4,1.3-.6l1.02,4.99c-.58.33-1.26.62-2.04.87-.78.25-1.57.46-2.37.62-.8.17-1.59.29-2.37.37-.78.08-1.46.12-2.04.12-1.22,0-2.38-.13-3.46-.4-1.09-.27-2.04-.71-2.88-1.32-.83-.62-1.48-1.43-1.96-2.44-.48-1.02-.71-2.29-.71-3.82v-5.64c0-1.33.51-2.47,1.53-3.42,1.02-.95,2.54-1.42,4.58-1.42h6.62c1.73,0,3.01.37,3.84,1.12.83.75,1.25,1.66,1.25,2.72,0,.83-.23,1.68-.69,2.54-.46.87-1.12,1.69-1.98,2.47s-1.93,1.48-3.18,2.1c-1.26.62-2.68,1.09-4.28,1.42.27.27.65.46,1.15.57.49.12,1.03.17,1.6.17ZM263.79,116.27v3.09c.81-.37,1.57-.81,2.27-1.32.69-.52,1.13-1.11,1.3-1.77h-3.56Z"/>
        <path d="M284.15,102.3c.27,0,.51.1.71.3.2.2.31.43.31.7v24.45c0,.27-.1.5-.31.7-.2.2-.44.3-.71.3h-5.09c-.27,0-.51-.1-.71-.3-.2-.2-.31-.43-.31-.7v-24.45c0-.27.1-.5.31-.7.2-.2.44-.3.71-.3h5.09Z"/>
        <path d="M295.35,102.3c.27,0,.51.1.71.3.2.2.31.43.31.7v24.45c0,.27-.1.5-.31.7-.2.2-.44.3-.71.3h-5.09c-.27,0-.51-.1-.71-.3-.2-.2-.31-.43-.31-.7v-24.45c0-.27.1-.5.31-.7.2-.2.44-.3.71-.3h5.09Z"/>
        <path d="M306.54,102.3c.27,0,.51.1.71.3.2.2.31.43.31.7v3.49c0,.27-.1.5-.31.7s-.44.3-.71.3h-5.09c-.27,0-.51-.1-.71-.3s-.31-.43-.31-.7v-3.49c0-.27.1-.5.31-.7.2-.2.44-.3.71-.3h5.09ZM306.54,110.29c.27,0,.51.1.71.3s.31.43.31.7v16.47c0,.27-.1.5-.31.7-.2.2-.44.3-.71.3h-5.09c-.27,0-.51-.1-.71-.3-.2-.2-.31-.43-.31-.7v-16.47c0-.27.1-.5.31-.7s.44-.3.71-.3h5.09Z"/>
        <path d="M330.46,127.75c0,.27-.1.5-.31.7-.2.2-.44.3-.71.3h-5.09c-.27,0-.51-.1-.71-.3-.2-.2-.31-.43-.31-.7v-10.23c0-.76-.19-1.3-.56-1.6-.37-.3-.75-.45-1.12-.45-.58,0-1.15.19-1.71.57-.56.38-.96.79-1.2,1.22v10.48c0,.27-.1.5-.31.7-.2.2-.44.3-.71.3h-5.09c-.27,0-.51-.1-.71-.3-.2-.2-.31-.43-.31-.7v-16.47c0-.27.1-.5.31-.7s.44-.3.71-.3h6.11v2c1.02-.57,2.07-1.04,3.16-1.42,1.09-.38,2.14-.57,3.16-.57.75,0,1.45.12,2.11.37s1.23.67,1.71,1.27c.47.6.86,1.37,1.15,2.32.29.95.43,2.12.43,3.52v9.98Z"/>
        <path d="M351.84,128.75c0,1.53-.24,2.8-.71,3.82-.48,1.01-1.13,1.83-1.96,2.44-.83.62-1.79,1.06-2.88,1.32-1.09.27-2.24.4-3.46.4s-2.57-.17-4.15-.5c-1.58-.33-2.96-.83-4.15-1.5l1.53-3.99c.64.2,1.36.37,2.14.52.78.15,1.56.22,2.34.22,1.12,0,2.09-.2,2.93-.6.83-.4,1.25-1.11,1.25-2.15h-6.11c-1.43,0-2.63-.48-3.61-1.45-.98-.96-1.48-2.15-1.48-3.54v-4.99c0-1.46.28-2.73.84-3.79.56-1.06,1.3-1.95,2.21-2.64.92-.7,1.98-1.21,3.18-1.55,1.2-.33,2.45-.5,3.74-.5,1.49,0,2.96.21,4.4.62,1.44.42,2.76,1.04,3.94,1.87v15.97ZM344.72,121.76v-4.24c-.58-.17-1.09-.25-1.53-.25-.68,0-1.27.13-1.78.4-.51.27-.76.63-.76,1.1v2.99h4.07Z"/>
        <path d="M372.46,123.41c.54,0,1.11-.05,1.71-.15.59-.1,1.18-.22,1.76-.38.58-.15,1.11-.32,1.6-.52.49-.2.92-.4,1.3-.6l1.02,4.99c-.58.33-1.26.62-2.04.87-.78.25-1.57.46-2.37.62-.8.17-1.59.29-2.37.37-.78.08-1.46.12-2.04.12-1.22,0-2.38-.13-3.46-.4-1.09-.27-2.04-.71-2.88-1.32-.83-.62-1.48-1.43-1.96-2.44-.48-1.02-.71-2.29-.71-3.82v-5.64c0-1.33.51-2.47,1.53-3.42,1.02-.95,2.54-1.42,4.58-1.42h6.62c1.73,0,3.01.37,3.84,1.12.83.75,1.25,1.66,1.25,2.72,0,.83-.23,1.68-.69,2.54-.46.87-1.12,1.69-1.98,2.47s-1.93,1.48-3.18,2.1c-1.26.62-2.68,1.09-4.28,1.42.27.27.65.46,1.15.57.49.12,1.03.17,1.6.17ZM369.15,116.27v3.09c.81-.37,1.57-.81,2.27-1.32.69-.52,1.13-1.11,1.3-1.77h-3.56Z"/>
        <path d="M390.52,127.75c0,.27-.1.5-.3.7-.2.2-.44.3-.71.3h-5.09c-.27,0-.51-.1-.71-.3-.2-.2-.31-.43-.31-.7v-16.47c0-.27.1-.5.31-.7s.44-.3.71-.3h6.11v2c.98-.57,2-1.04,3.05-1.42,1.05-.38,2.07-.57,3.05-.57.92,0,1.75.22,2.49.65.75.43,1.34,1.17,1.78,2.2,1.19-.9,2.38-1.6,3.59-2.1,1.2-.5,2.33-.75,3.38-.75,1.46,0,2.66.51,3.61,1.52.95,1.02,1.42,2.67,1.42,4.96v10.98c0,.27-.1.5-.3.7-.2.2-.44.3-.71.3h-5.09c-.27,0-.51-.1-.71-.3-.2-.2-.3-.43-.3-.7v-9.98c0-.86-.14-1.46-.41-1.8-.27-.33-.61-.5-1.02-.5-.47,0-.97.19-1.5.57-.53.38-.91.79-1.15,1.22v10.48c0,.27-.1.5-.3.7-.2.2-.44.3-.71.3h-5.09c-.27,0-.51-.1-.71-.3-.2-.2-.3-.43-.3-.7v-9.98c0-.86-.14-1.46-.41-1.8-.27-.33-.61-.5-1.02-.5-.48,0-.98.19-1.5.57-.53.38-.91.79-1.14,1.22v10.48Z"/>
        <path d="M428.95,110.29c1.12,0,2.17.16,3.16.47.98.32,1.85.77,2.6,1.37.75.6,1.33,1.33,1.76,2.2.42.87.64,1.85.64,2.94v4.49c0,1.1-.21,2.08-.64,2.94-.43.87-1.01,1.6-1.76,2.2-.75.6-1.61,1.06-2.6,1.37-.99.32-2.04.47-3.16.47h-4.07c-1.12,0-2.17-.16-3.16-.47-.99-.32-1.85-.77-2.6-1.37-.75-.6-1.33-1.33-1.76-2.2-.42-.86-.64-1.85-.64-2.94v-4.49c0-1.1.21-2.08.64-2.94.42-.86,1.01-1.6,1.76-2.2.75-.6,1.61-1.06,2.6-1.37.98-.32,2.04-.47,3.16-.47h4.07ZM429.97,118.02c0-.27-.1-.5-.3-.7-.2-.2-.44-.3-.71-.3h-4.07c-.27,0-.51.1-.71.3-.2.2-.3.43-.3.7v2.99c0,.27.1.5.3.7.2.2.44.3.71.3h4.07c.27,0,.51-.1.71-.3.2-.2.3-.43.3-.7v-2.99Z"/>
        <path d="M453.64,127.95c-1.53.5-3,.75-4.43.75-1.19,0-2.29-.18-3.31-.55-1.02-.37-1.89-.91-2.62-1.62-.73-.71-1.31-1.62-1.73-2.72-.43-1.1-.64-2.38-.64-3.84v-16.67c0-.27.1-.5.3-.7.2-.2.44-.3.71-.3h5.09c.27,0,.51.1.71.3.2.2.3.43.3.7v2.5h4.07c.27,0,.51.1.71.3.2.2.3.43.3.7v3.99c0,.27-.1.5-.3.7-.2.2-.44.3-.71.3h-4.07v8.18c0,.96.26,1.72.79,2.27s1.26.82,2.21.82h.51c.17,0,.36-.03.56-.1l1.53,4.99Z"/>
        <path d="M462.29,102.3c.27,0,.51.1.71.3.2.2.3.43.3.7v3.49c0,.27-.1.5-.3.7-.2.2-.44.3-.71.3h-5.09c-.27,0-.51-.1-.71-.3s-.3-.43-.3-.7v-3.49c0-.27.1-.5.3-.7.2-.2.44-.3.71-.3h5.09ZM462.29,110.29c.27,0,.51.1.71.3.2.2.3.43.3.7v16.47c0,.27-.1.5-.3.7-.2.2-.44.3-.71.3h-5.09c-.27,0-.51-.1-.71-.3-.2-.2-.3-.43-.3-.7v-16.47c0-.27.1-.5.3-.7s.44-.3.71-.3h5.09Z"/>
        <path d="M479.34,110.29c1.12,0,2.17.16,3.16.47.98.32,1.85.77,2.6,1.37.75.6,1.33,1.33,1.76,2.2.42.87.64,1.85.64,2.94v4.49c0,1.1-.21,2.08-.64,2.94-.42.87-1.01,1.6-1.76,2.2-.75.6-1.61,1.06-2.6,1.37-.99.32-2.04.47-3.16.47h-4.07c-1.12,0-2.17-.16-3.16-.47-.98-.32-1.85-.77-2.6-1.37-.75-.6-1.33-1.33-1.76-2.2-.42-.86-.64-1.85-.64-2.94v-4.49c0-1.1.21-2.08.64-2.94.42-.86,1.01-1.6,1.76-2.2s1.61-1.06,2.6-1.37c.98-.32,2.04-.47,3.16-.47h4.07ZM480.36,118.02c0-.27-.1-.5-.31-.7-.2-.2-.44-.3-.71-.3h-4.07c-.27,0-.51.1-.71.3-.2.2-.3.43-.3.7v2.99c0,.27.1.5.3.7.2.2.44.3.71.3h4.07c.27,0,.51-.1.71-.3.2-.2.31-.43.31-.7v-2.99Z"/>
        <path d="M510.13,127.75c0,.27-.1.5-.31.7-.2.2-.44.3-.71.3h-5.09c-.27,0-.51-.1-.71-.3-.2-.2-.31-.43-.31-.7v-10.23c0-.76-.19-1.3-.56-1.6-.38-.3-.75-.45-1.12-.45-.58,0-1.15.19-1.71.57-.56.38-.96.79-1.2,1.22v10.48c0,.27-.1.5-.3.7-.2.2-.44.3-.71.3h-5.09c-.27,0-.51-.1-.71-.3-.2-.2-.3-.43-.3-.7v-16.47c0-.27.1-.5.3-.7s.44-.3.71-.3h6.11v2c1.02-.57,2.07-1.04,3.16-1.42,1.08-.38,2.14-.57,3.16-.57.75,0,1.45.12,2.11.37s1.23.67,1.71,1.27c.47.6.86,1.37,1.14,2.32.29.95.43,2.12.43,3.52v9.98Z"/>
        <path d="M528.86,116.67c-1.19-.5-2.43-.93-3.72-1.3-1.29-.37-2.48-.55-3.56-.55-.54,0-.98.06-1.3.17-.32.12-.48.31-.48.57,0,.33.29.6.87.8.58.2,1.3.39,2.16.57.87.18,1.81.41,2.83.67,1.02.27,1.96.62,2.82,1.07s1.59,1.04,2.16,1.77c.58.73.87,1.66.87,2.79,0,1-.23,1.85-.69,2.54s-1.08,1.26-1.86,1.7c-.78.43-1.7.75-2.75.95-1.05.2-2.17.3-3.36.3-1.73,0-3.5-.18-5.29-.55-1.8-.37-3.43-.85-4.89-1.45l1.83-4.34c.54.23,1.14.46,1.78.67.64.22,1.31.42,2.01.6s1.38.32,2.04.42c.66.1,1.26.15,1.81.15.61,0,1.14-.08,1.58-.22.44-.15.66-.41.66-.77,0-.27-.29-.49-.87-.67-.58-.18-1.3-.38-2.16-.57s-1.81-.44-2.83-.72-1.96-.67-2.83-1.15-1.59-1.08-2.16-1.8c-.58-.71-.87-1.62-.87-2.72,0-1.03.21-1.89.64-2.57.42-.68,1.01-1.23,1.76-1.65.75-.42,1.62-.71,2.62-.87,1-.17,2.06-.25,3.18-.25,1.73,0,3.38.16,4.96.47,1.58.32,2.96.66,4.15,1.02l-1.12,4.89Z"/>
        <path d="M553.19,127.95c-1.53.5-3,.75-4.43.75-1.19,0-2.29-.18-3.31-.55-1.02-.37-1.89-.91-2.62-1.62-.73-.71-1.31-1.62-1.73-2.72-.43-1.1-.64-2.38-.64-3.84v-16.67c0-.27.1-.5.3-.7.2-.2.44-.3.71-.3h5.09c.27,0,.51.1.71.3.2.2.3.43.3.7v2.5h4.07c.27,0,.51.1.71.3.2.2.3.43.3.7v3.99c0,.27-.1.5-.3.7-.2.2-.44.3-.71.3h-4.07v8.18c0,.96.26,1.72.79,2.27s1.26.82,2.21.82h.51c.17,0,.36-.03.56-.1l1.53,4.99Z"/>
        <path d="M574.57,127.75c0,.27-.1.5-.31.7-.2.2-.44.3-.71.3h-5.09c-.27,0-.51-.1-.71-.3-.2-.2-.31-.43-.31-.7v-9.98c0-.86-.2-1.46-.58-1.8-.39-.33-.84-.5-1.35-.5-.44,0-.9.09-1.37.27-.48.18-.9.41-1.27.67v11.33c0,.27-.1.5-.3.7-.2.2-.44.3-.71.3h-5.09c-.27,0-.51-.1-.71-.3-.2-.2-.3-.43-.3-.7v-24.45c0-.27.1-.5.3-.7.2-.2.44-.3.71-.3h5.09c.27,0,.51.1.71.3.2.2.3.43.3.7v8.03c.78-.3,1.59-.54,2.42-.72.83-.18,1.64-.27,2.42-.27.88,0,1.73.13,2.54.4.81.27,1.53.71,2.16,1.32.63.62,1.14,1.43,1.53,2.44.39,1.02.6,2.27.64,3.77v9.48Z"/>
        <path d="M596.45,117.27c0,.27-.1.5-.31.7-.2.2-.44.3-.71.3h-6.11v-1.15c0-.5-.15-.85-.46-1.05-.31-.2-.66-.3-1.07-.3-.81,0-1.66.27-2.54.8v11.18c0,.27-.1.5-.3.7-.2.2-.44.3-.71.3h-5.09c-.27,0-.51-.1-.71-.3-.2-.2-.3-.43-.3-.7v-16.47c0-.27.1-.5.3-.7.2-.2.44-.3.71-.3h6.11v2c.98-.63,2.04-1.12,3.18-1.47,1.14-.35,2.21-.52,3.23-.52,1.32,0,2.45.32,3.38.95.93.63,1.4,1.65,1.4,3.04v2.99Z"/>
        <path d="M611.47,110.29c1.12,0,2.17.16,3.16.47.98.32,1.85.77,2.6,1.37.75.6,1.33,1.33,1.76,2.2.42.87.64,1.85.64,2.94v4.49c0,1.1-.21,2.08-.64,2.94-.43.87-1.01,1.6-1.76,2.2-.75.6-1.61,1.06-2.6,1.37-.99.32-2.04.47-3.16.47h-4.07c-1.12,0-2.17-.16-3.16-.47-.99-.32-1.85-.77-2.6-1.37-.75-.6-1.33-1.33-1.76-2.2-.42-.86-.64-1.85-.64-2.94v-4.49c0-1.1.21-2.08.64-2.94.42-.86,1.01-1.6,1.76-2.2.75-.6,1.61-1.06,2.6-1.37.98-.32,2.04-.47,3.16-.47h4.07ZM612.49,118.02c0-.27-.1-.5-.3-.7-.2-.2-.44-.3-.71-.3h-4.07c-.27,0-.51.1-.71.3-.2.2-.3.43-.3.7v2.99c0,.27.1.5.3.7.2.2.44.3.71.3h4.07c.27,0,.51-.1.71-.3.2-.2.3-.43.3-.7v-2.99Z"/>
        <path d="M623.43,111.29c0-.27.1-.5.3-.7s.44-.3.71-.3h5.09c.27,0,.51.1.71.3.2.2.3.43.3.7v9.98c0,.87.15,1.46.46,1.8.31.33.7.5,1.17.5.58,0,1.15-.19,1.73-.57.58-.38.98-.79,1.22-1.22v-10.48c0-.27.1-.5.31-.7.2-.2.44-.3.71-.3h5.09c.27,0,.51.1.71.3s.31.43.31.7v16.47c0,.27-.1.5-.31.7-.2.2-.44.3-.71.3h-6.11v-2c-.54.57-1.35,1.04-2.42,1.42-1.07.38-2.2.57-3.38.57-.75,0-1.48-.1-2.19-.3-.71-.2-1.34-.53-1.88-1-.54-.47-.98-1.08-1.32-1.85-.34-.76-.51-1.71-.51-2.84v-11.48Z"/>
        <path d="M664.15,128.75c0,1.53-.24,2.8-.71,3.82-.48,1.01-1.13,1.83-1.96,2.44s-1.79,1.06-2.88,1.32c-1.09.27-2.24.4-3.46.4s-2.57-.17-4.15-.5c-1.58-.33-2.96-.83-4.15-1.5l1.53-3.99c.64.2,1.36.37,2.14.52.78.15,1.56.22,2.34.22,1.12,0,2.09-.2,2.93-.6.83-.4,1.25-1.11,1.25-2.15h-6.11c-1.43,0-2.63-.48-3.61-1.45-.98-.96-1.48-2.15-1.48-3.54v-4.99c0-1.46.28-2.73.84-3.79.56-1.06,1.3-1.95,2.21-2.64.92-.7,1.98-1.21,3.18-1.55,1.2-.33,2.45-.5,3.74-.5,1.49,0,2.96.21,4.4.62,1.44.42,2.76,1.04,3.94,1.87v15.97ZM657.02,121.76v-4.24c-.58-.17-1.09-.25-1.53-.25-.68,0-1.27.13-1.78.4-.51.27-.76.63-.76,1.1v2.99h4.07Z"/>
        <path d="M687.05,127.75c0,.27-.1.5-.3.7-.2.2-.44.3-.71.3h-5.09c-.27,0-.51-.1-.71-.3-.2-.2-.3-.43-.3-.7v-9.98c0-.86-.2-1.46-.59-1.8-.39-.33-.84-.5-1.35-.5-.44,0-.9.09-1.37.27-.48.18-.9.41-1.27.67v11.33c0,.27-.1.5-.3.7-.2.2-.44.3-.71.3h-5.09c-.27,0-.51-.1-.71-.3-.2-.2-.3-.43-.3-.7v-24.45c0-.27.1-.5.3-.7.2-.2.44-.3.71-.3h5.09c.27,0,.51.1.71.3.2.2.3.43.3.7v8.03c.78-.3,1.59-.54,2.42-.72.83-.18,1.64-.27,2.42-.27.88,0,1.73.13,2.54.4.81.27,1.54.71,2.16,1.32.63.62,1.14,1.43,1.53,2.44.39,1.02.6,2.27.64,3.77v9.48Z"/>
      </g>
      <g class="st0">
        <path d="M177.77,152.2v-6.99c0-.27.1-.5.31-.7.2-.2.44-.3.71-.3h5.09c.27,0,.51.1.71.3.2.2.31.43.31.7v24.45c0,.27-.1.5-.31.7-.2.2-.44.3-.71.3h-9.06c-1.53,0-2.88-.27-4.05-.8-1.17-.53-2.14-1.23-2.9-2.1-.76-.86-1.34-1.85-1.73-2.94-.39-1.1-.59-2.23-.59-3.39s.19-2.3.59-3.39c.39-1.1.97-2.08,1.73-2.94s1.73-1.56,2.9-2.1c1.17-.53,2.52-.8,4.05-.8h2.95ZM175.28,159.18c-.88,0-1.54.23-1.96.7-.42.47-.64.98-.64,1.55s.21,1.08.64,1.55c.42.47,1.08.7,1.96.7h2.49v-4.49h-2.49Z"/>
        <path d="M207.29,159.18c0,.27-.1.5-.31.7s-.44.3-.71.3h-6.11v-1.15c0-.5-.15-.85-.46-1.05-.31-.2-.66-.3-1.07-.3-.81,0-1.66.27-2.54.8v11.18c0,.27-.1.5-.31.7-.2.2-.44.3-.71.3h-5.09c-.27,0-.51-.1-.71-.3-.2-.2-.31-.43-.31-.7v-16.47c0-.27.1-.5.31-.7.2-.2.44-.3.71-.3h6.11v2c.98-.63,2.04-1.12,3.18-1.47,1.14-.35,2.21-.52,3.23-.52,1.32,0,2.45.32,3.38.95.93.63,1.4,1.65,1.4,3.04v2.99Z"/>
        <path d="M209.84,164.67c0-1.7.81-3.03,2.44-3.99,1.63-.96,4.34-1.46,8.14-1.5-.14-.6-.5-1.02-1.09-1.27-.59-.25-1.3-.37-2.11-.37-.54,0-1.12.05-1.73.15-.61.1-1.2.22-1.76.38-.56.15-1.09.32-1.6.52-.51.2-.93.4-1.27.6l-1.02-4.99c.58-.33,1.25-.62,2.04-.87.78-.25,1.57-.46,2.37-.62.8-.17,1.59-.29,2.37-.37.78-.08,1.46-.12,2.04-.12,1.22,0,2.37.13,3.46.4,1.09.27,2.04.71,2.88,1.32.83.62,1.48,1.43,1.96,2.44.47,1.02.71,2.29.71,3.82v9.48c0,.27-.1.5-.31.7-.2.2-.44.3-.71.3h-12.72c-1.12,0-2.08-.39-2.88-1.17-.8-.78-1.2-1.72-1.2-2.82v-2ZM220.53,164.67v-2.35c-.81.17-1.57.43-2.26.8-.7.37-1.13.88-1.3,1.55h3.56Z"/>
        <path d="M243.43,153.2c.07-.27.19-.5.36-.7.17-.2.39-.3.66-.3h5.45c.27,0,.49.1.66.3.17.2.29.43.36.7l2.75,12.08,1.93-12.08c.07-.27.19-.5.36-.7.17-.2.39-.3.66-.3h6.46l-2.85,17.46c-.07.27-.19.5-.36.7-.17.2-.39.3-.66.3h-8.86c-.27,0-.49-.1-.66-.3-.17-.2-.29-.43-.36-.7l-2.19-9.18-2.19,9.18c-.07.27-.19.5-.36.7-.17.2-.39.3-.66.3h-8.86c-.27,0-.49-.1-.66-.3-.17-.2-.29-.43-.36-.7l-2.85-17.46h6.46c.27,0,.49.1.66.3.17.2.29.43.36.7l1.93,12.08,2.8-12.08Z"/>
        <path d="M272.75,144.21c.27,0,.51.1.71.3.2.2.31.43.31.7v3.49c0,.27-.1.5-.31.7-.2.2-.44.3-.71.3h-5.09c-.27,0-.51-.1-.71-.3-.2-.2-.31-.43-.31-.7v-3.49c0-.27.1-.5.31-.7.2-.2.44-.3.71-.3h5.09ZM272.75,152.2c.27,0,.51.1.71.3.2.2.31.43.31.7v16.47c0,.27-.1.5-.31.7-.2.2-.44.3-.71.3h-5.09c-.27,0-.51-.1-.71-.3-.2-.2-.31-.43-.31-.7v-16.47c0-.27.1-.5.31-.7.2-.2.44-.3.71-.3h5.09Z"/>
        <path d="M296.67,169.66c0,.27-.1.5-.31.7-.2.2-.44.3-.71.3h-5.09c-.27,0-.51-.1-.71-.3-.2-.2-.31-.43-.31-.7v-10.23c0-.76-.19-1.3-.56-1.6-.37-.3-.75-.45-1.12-.45-.58,0-1.15.19-1.71.57-.56.38-.96.79-1.2,1.22v10.48c0,.27-.1.5-.31.7-.2.2-.44.3-.71.3h-5.09c-.27,0-.51-.1-.71-.3-.2-.2-.31-.43-.31-.7v-16.47c0-.27.1-.5.31-.7.2-.2.44-.3.71-.3h6.11v2c1.02-.57,2.07-1.04,3.16-1.42,1.09-.38,2.14-.57,3.16-.57.75,0,1.45.12,2.11.37s1.23.67,1.71,1.27c.47.6.86,1.37,1.15,2.32.29.95.43,2.12.43,3.52v9.98Z"/>
        <path d="M318.05,170.66c0,1.53-.24,2.8-.71,3.82-.48,1.01-1.13,1.83-1.96,2.44-.83.62-1.79,1.06-2.88,1.32-1.09.27-2.24.4-3.46.4s-2.57-.17-4.15-.5c-1.58-.33-2.96-.83-4.15-1.5l1.53-3.99c.64.2,1.36.37,2.14.52.78.15,1.56.22,2.34.22,1.12,0,2.09-.2,2.93-.6.83-.4,1.25-1.11,1.25-2.15h-6.11c-1.43,0-2.63-.48-3.61-1.45-.98-.96-1.48-2.15-1.48-3.54v-4.99c0-1.46.28-2.73.84-3.79.56-1.06,1.3-1.95,2.21-2.64.92-.7,1.98-1.21,3.18-1.55,1.2-.33,2.45-.5,3.74-.5,1.49,0,2.96.21,4.4.62,1.44.42,2.76,1.04,3.94,1.87v15.97ZM310.92,163.67v-4.24c-.58-.17-1.09-.25-1.53-.25-.68,0-1.27.13-1.78.4-.51.27-.76.63-.76,1.1v2.99h4.07Z"/>
        <path d="M337.29,158.58c-1.19-.5-2.43-.93-3.72-1.3-1.29-.37-2.48-.55-3.56-.55-.54,0-.98.06-1.3.17-.32.12-.48.31-.48.57,0,.33.29.6.87.8.58.2,1.3.39,2.16.57.87.18,1.81.41,2.83.67,1.02.27,1.96.62,2.82,1.07s1.59,1.04,2.16,1.77c.58.73.87,1.66.87,2.79,0,1-.23,1.85-.69,2.54s-1.08,1.26-1.86,1.7c-.78.43-1.7.75-2.75.95-1.05.2-2.17.3-3.36.3-1.73,0-3.5-.18-5.29-.55-1.8-.37-3.43-.85-4.89-1.45l1.83-4.34c.54.23,1.14.46,1.78.67.64.22,1.31.42,2.01.6.7.18,1.37.32,2.04.42s1.26.15,1.81.15c.61,0,1.14-.08,1.58-.22.44-.15.66-.41.66-.77,0-.27-.29-.49-.87-.67-.58-.18-1.3-.38-2.16-.57-.87-.2-1.81-.44-2.83-.72s-1.96-.67-2.82-1.15-1.59-1.08-2.16-1.8c-.58-.71-.87-1.62-.87-2.72,0-1.03.21-1.89.64-2.57.42-.68,1.01-1.23,1.76-1.65.75-.42,1.62-.71,2.62-.87,1-.17,2.06-.25,3.18-.25,1.73,0,3.38.16,4.96.47,1.58.32,2.96.66,4.15,1.02l-1.12,4.89Z"/>
        <path d="M345.84,170.66c-.27,0-.51-.1-.71-.3-.2-.2-.31-.43-.31-.7v-4.99c0-.27.1-.5.31-.7s.44-.3.71-.3h5.09c.27,0,.51.1.71.3s.31.43.31.7v4.99c0,.27-.1.5-.31.7-.2.2-.44.3-.71.3h-5.09Z"/>
      </g>
    </g>
  </g>
</svg>