<?xml version="1.0" encoding="UTF-8"?>
<svg id="Layer_1" xmlns="http://www.w3.org/2000/svg" version="1.1" viewBox="0 0 778.28 233.66">
  <!-- Generator: Adobe Illustrator 29.7.1, SVG Export Plug-In . SVG Version: 2.1.1 Build 8)  -->
  <defs>
    <style>
      .st0 {
        fill: #d38dc1;
      }
    </style>
  </defs>
  <g>
    <path d="M675.46,4.46c.8.78,1.2,1.88,1.14,2.96l5.46,94.41,13.76-3.04c.52-.12,1.04-.11,1.54-.02.27,0,.54-.05.81,0,.27,0,.54-.05.81,0,.27,0,.54-.05.81,0,.27,0,.54-.05.81,0,.27,0,.55-.05.81,0,.27,0,.54-.05.81,0,.27,0,.54-.05.81,0,.27,0,.54-.05.81,0,.27,0,.54-.05.81,0,.27,0,.54-.05.81,0,.27,0,.54-.05.81,0,.27,0,.54-.05.81,0,.27,0,.54-.05.81,0,.27,0,.54-.05.81,0,.27,0,.54-.05.81,0,.27,0,.55-.05.81,0,.27,0,.55-.05.81,0,.27,0,.54-.05.81,0,.27,0,.55-.05.81,0,.27,0,.54-.05.81,0,1.73-.05,3.33.95,3.86,2.62l7.73,24.2,17.4-9.34c.69-.37,1.46-.44,2.23-.37.27-.03.53-.02.81,0,.27-.03.53-.02.81,0,.27-.03.53-.02.81,0,.27-.03.53-.02.81,0,.27-.03.53-.02.81,0,.27-.03.53-.02.81,0,.27-.03.53-.02.81,0,.27-.03.53-.02.81,0,.27-.03.53-.02.81,0,.27-.03.53-.02.81,0,.28-.03.53-.02.81,0,.28-.03.53-.02.81,0,.27-.03.53-.02.81,0,.28-.03.53-.02.81,0,.27-.03.53-.02.81,0,.27-.03.53-.02.81,0,.28-.03.53-.02.81,0,.27-.03.53-.02.81,0,.27-.03.53-.02.81,0,.27-.03.53-.02.81,0,.73-.09,1.47-.04,2.16.29,1.14.54,1.94,1.58,2.15,2.8l7.6,43.55,59.56,1.08c1.85.03,3.42,1.33,3.77,3.11.05.24.07.48.07.71,0,1.52-.93,2.93-2.41,3.53l-83.73,34.15c-.63.26-1.29.29-1.95.21-.27.03-.53.03-.81,0-.27.03-.53.03-.81,0-.27.03-.53.03-.81,0-.27.03-.53.03-.81,0-.27.03-.53.03-.81,0-.27.03-.53.03-.81,0-.27.03-.53.03-.81,0-.27.03-.53.03-.81,0-.27.03-.53.03-.81,0-.27.03-.53.03-.81,0-.28.03-.53.03-.81,0-.27.03-.53.03-.81,0-.27.03-.53.03-.81,0-.27.03-.53.03-.81,0-.27.03-.53.03-.81,0-.27.03-.53.03-.81,0-.27.03-.53.03-.81,0-.27.03-.53.03-.81,0-.27.03-.53.03-.81,0-.27.03-.53.03-.81,0-.69.06-1.39,0-2.03-.29-1-.46-1.75-1.32-2.07-2.36l-5.09-16.61-5.33,4.7c-.91.8-2.16,1.14-3.36.91-.02,0-.04-.02-.06-.03-.25,0-.49.08-.74.03-.02,0-.04-.02-.06-.03-.25,0-.49.08-.74.03-.02,0-.04-.02-.06-.03-.25,0-.49.08-.74.03-.02,0-.04-.02-.06-.03-.25,0-.49.08-.74.03-.02,0-.04-.02-.06-.03-.25,0-.49.08-.74.03-.02,0-.04-.02-.06-.03-.25,0-.49.08-.74.03-.02,0-.04-.02-.06-.03-.25,0-.49.08-.74.03-.02,0-.04-.02-.06-.03-.25,0-.49.08-.74.03-.02,0-.04-.02-.06-.03-.25,0-.49.08-.74.03-.02,0-.04-.02-.06-.03-.25,0-.49.08-.74.03-.02,0-.04-.02-.06-.03-.25,0-.49.08-.74.03-.02,0-.04-.02-.06-.03-.25,0-.49.08-.74.03-.02,0-.04-.02-.06-.03-.25,0-.49.08-.74.03-.02,0-.04-.02-.06-.03-.25,0-.49.08-.74.03-.02,0-.04-.02-.06-.03-.25,0-.49.08-.74.03-.02,0-.04-.02-.06-.03-.25,0-.49.08-.74.03-.02,0-.04-.02-.06-.03-.25,0-.49.08-.74.03-.02,0-.04-.02-.06-.03-.25,0-.49.08-.74.03-.02,0-.04-.02-.06-.03-.25,0-.49.08-.74.03-.02,0-.04-.02-.06-.03-.25,0-.49.08-.74.03-.02,0-.04-.02-.06-.03-.25,0-.49.08-.74.03-1.21-.23-2.23-1-2.77-2.09l-14.22-28.64-3.55,2.01-8.88,65.31c-.14,1.06-.72,2.01-1.6,2.63-.88.62-1.99.85-3.05.64h-.02c-.26,0-.52.05-.79,0h-.02c-.26,0-.52.05-.79,0h-.02c-.26,0-.52.05-.79,0h-.02c-.26,0-.52.05-.79,0h-.02c-.26,0-.52.05-.79,0h-.02c-.26,0-.52.05-.79,0h-.02c-.26,0-.53.05-.79,0h-.02c-.26,0-.52.05-.79,0h-.02c-.26,0-.52.05-.79,0h-.02c-.26,0-.52.05-.79,0h-.02c-.26,0-.52.05-.79,0h-.02c-.26,0-.52.05-.79,0h-.02c-.26,0-.52.05-.79,0h-.02c-.26,0-.52.05-.79,0h-.02c-.26,0-.52.05-.79,0h-.02c-.26,0-.52.05-.79,0h-.02c-.26,0-.52.05-.79,0h-.02c-.26,0-.52.05-.79,0h-.02c-.26,0-.53.05-.79,0h-.02c-.26,0-.52.05-.79,0h-.02c-.26,0-.53.05-.79,0L30.46,191.67c-1.74-.34-3.02-1.79-3.12-3.53L1.57,24.47c-.09-2.02,1.5-3.89,3.64-4.04L655.49,3.36c.09,0,.17.04.26.04l.55-.04c.09,0,.17.04.26.04l.55-.04c.09,0,.17.04.26.04l.55-.04c.09,0,.17.04.26.04l.55-.04c.09,0,.17.04.26.04l.55-.04c.09,0,.17.04.26.04l.55-.04c.09,0,.17.04.26.04l.55-.04c.09,0,.17.04.26.04l.55-.04c.09,0,.17.04.26.04l.55-.04c.09,0,.17.04.26.04l.55-.04c.09,0,.17.04.26.04l.55-.04c.09,0,.17.04.26.04l.55-.04c.09,0,.17.04.26.04l.55-.04c.09,0,.17.04.26.04l.55-.04c.09,0,.17.04.26.04l.55-.04c.09,0,.17.04.26.04l.55-.04c.09,0,.17.04.26.04l.55-.04c.09,0,.17.04.26.04l.55-.04c.09,0,.17.04.26.04l.55-.04c.09,0,.17.04.26.04l.55-.04c.09,0,.17.04.26.04l.55-.04c1.13-.08,2.23.33,3.03,1.11h-.07Z"/>
    <path class="st0" d="M656.73,110.24c-.08,1.2.43,2.37,1.36,3.16.94.78,2.2,1.09,3.4.82l32.53-7.19,10.56,33.06c.35,1.1,1.18,1.98,2.27,2.41,1.09.43,2.31.36,3.34-.19l31.24-16.77,7.22,41.37c.31,1.81,1.9,3.15,3.78,3.18l44.15.8-62.51,25.49-9.22-30.08c-.39-1.26-1.4-2.23-2.69-2.59s-2.67-.04-3.67.84l-19.4,17.08-17.5-35.26c-.47-.96-1.33-1.68-2.37-1.99-1.04-.31-2.16-.19-3.1.35l-22.09,12.52c-1.05.6-1.76,1.64-1.92,2.83l-8.59,63.1L34.97,184.76,9.6,27.81,651.57,11.29l5.16,98.95Z"/>
    <path d="M658.52,4.46c-.8-.78-1.9-1.18-3.03-1.11L5.21,20.43c-2.14.14-3.72,2.01-3.64,4.04l25.77,163.67c.1,1.74,1.38,3.19,3.12,3.53l615.62,39.84c1.07.21,2.17-.02,3.05-.64.89-.62,1.47-1.57,1.6-2.63l8.88-65.31,16.78-9.51,17.94,36.14c.53,1.08,1.56,1.85,2.77,2.09,1.2.23,2.45-.11,3.36-.91l18.67-16.45,8.69,28.36c.32,1.04,1.07,1.89,2.07,2.36s2.15.49,3.18.07l83.73-34.15c1.48-.6,2.41-2.01,2.41-3.53,0-.24-.02-.47-.07-.71-.35-1.78-1.92-3.08-3.77-3.11l-59.56-1.08-7.6-43.55c-.21-1.22-1.01-2.26-2.15-2.8s-2.47-.5-3.58.09l-31.87,17.11-10.21-31.96c-.61-1.91-2.6-3.03-4.59-2.59l-30.95,6.84-5.21-98.21c.06-1.08-.34-2.18-1.14-2.96h.01ZM9.6,27.81L651.57,11.29l5.16,98.95c-.08,1.2.43,2.37,1.36,3.16.94.78,2.2,1.09,3.4.82l32.53-7.19,10.56,33.06c.35,1.1,1.18,1.98,2.27,2.41,1.09.43,2.31.36,3.34-.19l31.24-16.77,7.22,41.37c.31,1.81,1.9,3.15,3.78,3.18l44.15.8-62.51,25.49-9.22-30.08c-.39-1.26-1.4-2.23-2.69-2.59s-2.67-.04-3.67.84l-19.4,17.08-17.5-35.26c-.47-.96-1.33-1.68-2.37-1.99-1.04-.31-2.16-.19-3.1.35l-22.09,12.52c-1.05.6-1.76,1.64-1.92,2.83l-8.59,63.1L34.97,184.76,9.6,27.81Z"/>
  </g>
  <g>
    <path d="M563.64,89.11h-15.55c-1.84,0-3.14-.34-3.93-1.02-.78-.68-1.17-1.55-1.17-2.62,0-.8.2-1.7.61-2.7l2.8-6.94c.37-.93.98-1.7,1.81-2.3.83-.6,1.81-.9,2.93-.9h8.67c.27,0,.51.1.71.3.2.2.3.43.3.7v9.98h2.8v5.49h.02ZM555.22,83.62v-5.49h-3.77l-2.19,5.49h5.96Z"/>
    <path d="M562.16,85.12c0-.43.14-.79.43-1.07s.65-.42,1.1-.42h4.84v-9.98c0-.27.1-.5.31-.7.2-.2.44-.3.71-.3h3.57c.27,0,.51.1.71.3.2.2.31.43.31.7v11.48c0,1.1-.4,2.04-1.2,2.82s-1.76,1.17-2.88,1.17h-6.37c-.44,0-.81-.14-1.1-.42s-.43-.64-.43-1.07v-2.5h0ZM564.76,68.5c-.54-.43-.82-.96-.82-1.6s.27-1.16.82-1.6c.54-.43,1.21-.65,1.99-.65s1.45.22,1.99.65.82.96.82,1.6-.27,1.17-.82,1.6c-.54.43-1.21.65-1.99.65s-1.44-.22-1.99-.65ZM571.39,68.5c-.54-.43-.82-.96-.82-1.6s.27-1.16.82-1.6,1.21-.65,1.99-.65,1.44.22,1.99.65c.54.43.81.96.81,1.6s-.27,1.17-.81,1.6-1.21.65-1.99.65-1.45-.22-1.99-.65Z"/>
    <path d="M584.29,61.66c.27,0,.51.1.71.3s.31.43.31.7v20.96h2.8v5.49h-7.39c-.27,0-.51-.1-.71-.3-.2-.2-.31-.43-.31-.7v-25.45c0-.27.1-.5.31-.7s.44-.3.71-.3c0,0,3.57,0,3.57,0Z"/>
    <path d="M588.16,89.11c-.44,0-.81-.14-1.1-.42s-.43-.64-.43-1.07v-2.5c0-.43.15-.79.43-1.07.29-.28.66-.42,1.1-.42h3.67c-.58-1.1-.87-2.28-.87-3.54,0-.96.19-1.9.56-2.79.37-.9.92-1.69,1.63-2.37s1.58-1.23,2.6-1.65c1.02-.42,2.17-.62,3.47-.62h5c1.12,0,2.08.39,2.88,1.17s1.2,1.72,1.2,2.82v6.99h2.8v5.49h-22.94v-.02ZM602.69,83.62v-5.49h-3.16c-.82,0-1.51.27-2.09.8s-.87,1.18-.87,1.95.27,1.37.82,1.92c.54.55,1.26.82,2.14.82h3.16ZM597.64,68.5c-.54-.43-.82-.96-.82-1.6s.27-1.16.82-1.6c.54-.43,1.21-.65,1.99-.65s1.44.22,1.99.65.82.96.82,1.6-.27,1.17-.82,1.6c-.54.43-1.21.65-1.99.65s-1.45-.22-1.99-.65Z"/>
    <path d="M609.57,85.12c0-.43.15-.79.43-1.07.29-.28.66-.42,1.1-.42h2.8v-9.98c0-.27.1-.5.31-.7.2-.2.44-.3.71-.3h3.57c.27,0,.51.1.71.3.2.2.31.43.31.7v4.89l5.1-4.39c.54-.46,1.12-.83,1.73-1.1s1.31-.4,2.09-.4h7.39c1.12,0,2.08.39,2.88,1.17s1.2,1.72,1.2,2.82v8.48c0,1.1-.4,2.04-1.2,2.82s-1.76,1.17-2.88,1.17h-24.73c-.44,0-.81-.14-1.1-.42s-.43-.64-.43-1.07v-2.5h0ZM620.63,83.62h13.66v-5.49h-6.17l-7.49,5.49Z"/>
    <path d="M288.87,117.64c.51-.86,1.17-1.56,1.98-2.11s1.75-.96,2.8-1.24c1.06-.27,2.13-.41,3.23-.41,1.19,0,2.35.16,3.47.49s2.17.81,3.13,1.46v9.71h3.23v4.37h-14.14v5.83h-4.47v-15.06c0-1.17.26-2.18.77-3.04ZM299.02,118.79c-1.09-.36-2-.53-2.73-.53-.99,0-1.86.23-2.61.68-.74.45-1.12,1.12-1.12,1.99v4.61h6.45v-6.75h0Z"/>
    <path d="M311.92,114.85c0-.26.1-.49.3-.68.2-.19.43-.29.69-.29h2.48c.26,0,.5.1.69.29.2.19.3.42.3.68v10.69h5.46v-10.69c0-.26.1-.49.3-.68.2-.19.43-.29.69-.29h2.48c.26,0,.5.1.69.29.2.19.3.42.3.68v10.69h5.46v-10.69c0-.26.1-.49.3-.68.2-.19.43-.29.69-.29h2.48c.26,0,.5.1.69.29.2.19.3.42.3.68v11.17c0,1.07-.39,1.98-1.17,2.74s-1.71,1.14-2.8,1.14h-25.56c-.43,0-.79-.14-1.07-.41s-.42-.62-.42-1.04v-1.46c0-.42.14-.77.42-1.04.28-.28.64-.41,1.07-.41h5.21v-10.69h.02Z"/>
    <path d="M336.56,133.62c.98.31,1.91.46,2.8.46s1.71-.29,2.36-.87.97-1.68.97-3.3v-15.06c0-.26.1-.49.3-.68.2-.19.43-.29.69-.29h2.48c.26,0,.5.1.69.29.2.19.3.42.3.68v10.69h3.23v4.37h-3.23c0,1.46-.17,2.7-.52,3.74-.35,1.04-.83,1.89-1.46,2.55s-1.37,1.15-2.23,1.46c-.86.31-1.8.46-2.83.46-1.16,0-2.37-.18-3.65-.53-1.27-.36-2.59-.86-3.94-1.51l1.44-3.45c.76.36,1.63.69,2.6,1h0Z"/>
    <path d="M353.6,104.17c0-.26.1-.49.3-.68.2-.19.43-.29.69-.29h2.48c.26,0,.5.1.69.29.2.19.3.42.3.68v21.86c0,1.07-.39,1.98-1.17,2.74s-1.71,1.14-2.8,1.14h-3.72c-.43,0-.79-.14-1.07-.41s-.42-.62-.42-1.04v-1.46c0-.42.14-.77.42-1.04.28-.28.64-.41,1.07-.41h3.23v-21.37h0Z"/>
    <path d="M368.69,103.49c.2.19.3.42.3.68v24.77c0,.26-.1.49-.3.68-.2.19-.43.29-.69.29h-2.48c-.26,0-.5-.1-.69-.29-.2-.19-.3-.42-.3-.68v-24.77c0-.26.1-.49.3-.68.2-.19.43-.29.69-.29h2.48c.26,0,.5.1.69.29Z"/>
    <path d="M380.23,133.62c.98.31,1.91.46,2.8.46s1.71-.29,2.36-.87.97-1.68.97-3.3v-15.06c0-.26.1-.49.3-.68.2-.19.43-.29.69-.29h2.48c.26,0,.5.1.69.29s.3.42.3.68v10.69h3.22v4.37h-3.22c0,1.46-.17,2.7-.52,3.74-.35,1.04-.83,1.89-1.46,2.55s-1.37,1.15-2.23,1.46c-.86.31-1.8.46-2.83.46-1.16,0-2.37-.18-3.65-.53-1.27-.36-2.59-.86-3.94-1.51l1.44-3.45c.76.36,1.63.69,2.6,1h0Z"/>
    <path d="M392.98,125.95c.28-.28.64-.41,1.07-.41h5.21v-10.69c0-.26.1-.49.3-.68.2-.19.43-.29.7-.29h2.48c.27,0,.5.1.7.29s.3.42.3.68v10.69h5.21v4.37h-14.89c-.43,0-.79-.14-1.07-.41s-.42-.62-.42-1.04v-1.46c0-.42.14-.77.42-1.04h0ZM399.55,133.45c.53-.42,1.18-.63,1.94-.63s1.41.21,1.94.63.79.94.79,1.55-.26,1.13-.79,1.55-1.17.63-1.94.63-1.41-.21-1.94-.63-.79-.94-.79-1.55.26-1.13.79-1.55Z"/>
    <path d="M407.89,125.92c.3-.26.64-.39,1.04-.39h4.81c-.76-.75-1.31-1.55-1.66-2.43s-.52-1.75-.52-2.62c0-1.07.21-2.02.64-2.87.43-.84,1.01-1.55,1.74-2.14s1.58-1.03,2.56-1.34,2.03-.46,3.15-.46c1.06,0,2.15.14,3.28.41,1.12.28,2.27.69,3.42,1.24l-1.69,3.79c-.66-.26-1.39-.5-2.18-.73s-1.6-.34-2.43-.34c-.4,0-.83.06-1.32.17-.48.11-.93.29-1.34.53s-.76.57-1.04.97-.42.91-.42,1.53c0,.45.1.92.3,1.41.2.49.5.95.89,1.38s.88.79,1.46,1.07,1.23.41,1.96.41h6.65l-.89,4.37h-17.37c-.43,0-.79-.14-1.07-.41s-.42-.62-.42-1.04v-1.46c0-.45.15-.81.45-1.07v.02Z"/>
    <path d="M438.96,120.68c0-1.17.26-2.18.77-3.04s1.17-1.56,1.99-2.11c.81-.55,1.74-.96,2.8-1.24,1.06-.27,2.13-.41,3.23-.41,1.19,0,2.35.16,3.47.49s2.17.81,3.13,1.46v14.08h-15.38v-9.23h0ZM449.87,118.79c-1.09-.36-2-.53-2.73-.53-.99,0-1.86.23-2.61.68s-1.12,1.12-1.12,1.99v4.61h6.45v-6.75h0Z"/>
    <path d="M454.66,133.62c.98.31,1.91.46,2.8.46s1.71-.29,2.36-.87.97-1.68.97-3.3v-15.06c0-.26.1-.49.3-.68.2-.19.43-.29.7-.29h2.48c.26,0,.5.1.7.29s.3.42.3.68v10.69h3.23v4.37h-3.23c0,1.46-.17,2.7-.52,3.74-.35,1.04-.83,1.89-1.46,2.55s-1.37,1.15-2.23,1.46-1.8.46-2.83.46c-1.16,0-2.37-.18-3.65-.53s-2.59-.86-3.95-1.51l1.44-3.45c.76.36,1.63.69,2.61,1h-.02Z"/>
    <path d="M467.44,125.92c.3-.26.65-.39,1.04-.39h4.81c-.76-.75-1.31-1.55-1.66-2.43s-.52-1.75-.52-2.62c0-1.07.21-2.02.65-2.87s1.01-1.55,1.74-2.14c.73-.58,1.58-1.03,2.55-1.34.98-.31,2.03-.46,3.15-.46,1.06,0,2.15.14,3.27.41,1.12.28,2.27.69,3.42,1.24l-1.69,3.79c-.66-.26-1.39-.5-2.18-.73-.79-.23-1.61-.34-2.43-.34-.4,0-.84.06-1.32.17s-.93.29-1.34.53-.76.57-1.04.97-.42.91-.42,1.53c0,.45.1.92.3,1.41.2.49.5.95.89,1.38.4.44.88.79,1.46,1.07s1.23.41,1.96.41h6.65l-.89,4.37h-17.37c-.43,0-.79-.14-1.07-.41s-.42-.62-.42-1.04v-1.46c0-.45.15-.81.45-1.07v.02Z"/>
    <path d="M496.72,103.49c.2.19.3.42.3.68v21.37h3.22v4.37h-6.7c-.26,0-.5-.1-.69-.29s-.3-.42-.3-.68v-24.77c0-.26.1-.49.3-.68.2-.19.43-.29.69-.29h2.48c.26,0,.5.1.69.29h.01Z"/>
    <path d="M499.17,129.49c-.28-.28-.42-.62-.42-1.04v-1.46c0-.42.14-.77.42-1.04.28-.28.64-.41,1.07-.41h5.21v-10.69c0-.26.1-.49.3-.68.2-.19.43-.29.7-.29h2.48c.27,0,.5.1.7.29s.3.42.3.68v10.69h5.46v-10.69c0-.26.1-.49.3-.68s.43-.29.69-.29h2.48c.26,0,.5.1.69.29.2.19.3.42.3.68v10.69h5.46v-10.69c0-.26.1-.49.3-.68s.43-.29.69-.29h2.48c.26,0,.5.1.69.29s.3.42.3.68v10.69h5.21v4.37h-34.74c-.43,0-.79-.14-1.07-.41h0ZM512.45,107.71c.53-.42,1.17-.63,1.94-.63s1.41.21,1.94.63.79.94.79,1.55-.26,1.13-.79,1.55-1.17.63-1.94.63-1.41-.21-1.94-.63-.79-.94-.79-1.55.26-1.13.79-1.55ZM515.67,102.85c.53-.42,1.17-.63,1.94-.63s1.41.21,1.93.63.79.94.79,1.55-.27,1.13-.79,1.55-1.17.63-1.93.63-1.41-.21-1.94-.63-.79-.94-.79-1.55.26-1.13.79-1.55ZM518.9,107.71c.53-.42,1.17-.63,1.94-.63s1.41.21,1.94.63.79.94.79,1.55-.26,1.13-.79,1.55-1.17.63-1.94.63-1.41-.21-1.94-.63-.79-.94-.79-1.55.26-1.13.79-1.55Z"/>
    <path d="M533.91,129.49c-.28-.28-.42-.62-.42-1.04v-1.46c0-.42.14-.77.42-1.04.28-.28.64-.41,1.07-.41h3.23v-4.76c0-.97.22-1.84.67-2.6s1.04-1.4,1.79-1.92c.74-.52,1.61-.91,2.58-1.17s1.99-.39,3.05-.39c1.29,0,2.57.2,3.85.61,1.27.4,2.42,1.03,3.45,1.87v8.26c0,1.07-.21,2.01-.62,2.82-.41.81-.96,1.48-1.64,2.02-.68.53-1.46.93-2.36,1.19-.89.26-1.84.39-2.83.39-1.26,0-2.34-.17-3.25-.51s-1.89-.82-2.95-1.43h-4.96c-.43,0-.79-.14-1.07-.41v-.02ZM544.36,127.26c.6.15,1.19.22,1.79.22.79,0,1.49-.15,2.08-.44s.89-.75.89-1.36v-5.97c-.3-.16-.71-.31-1.24-.44-.53-.13-1.09-.19-1.69-.19-.86,0-1.66.18-2.41.53-.74.36-1.12.99-1.12,1.89v5.05c.53.32,1.09.56,1.69.7h0Z"/>
    <path d="M588.57,115.58c-.69,0-1.36.07-1.98.22s-1.18.38-1.66.7-.86.76-1.14,1.31-.42,1.23-.42,2.04v2.04h5.46c1.09,0,2.03.38,2.8,1.14.78.76,1.17,1.67,1.17,2.74v1.7c0,1.2-.23,2.33-.7,3.4s-1.1,2-1.91,2.79-1.76,1.42-2.85,1.87-2.25.68-3.47.68h-8.93c-1.22,0-2.38-.23-3.47-.68s-2.04-1.08-2.85-1.87-1.45-1.72-1.91-2.79-.69-2.2-.69-3.4v-5.1c0-.26.1-.49.3-.68s.43-.29.69-.29h2.48c.26,0,.5.1.69.29s.3.42.3.68v5.49c0,.55.13,1.07.4,1.55.27.49.6.91,1.02,1.26.41.36.88.64,1.41.85.53.21,1.08.32,1.64.32h8.93c.63,0,1.21-.12,1.76-.36s1.02-.57,1.42-.97c.4-.41.71-.88.94-1.41s.35-1.08.35-1.63v-1.21h-6.45c-.83,0-1.53-.28-2.11-.85-.58-.57-.87-1.25-.87-2.06v-3.55c0-1.52.21-2.83.64-3.93s1.03-2.01,1.79-2.72c.76-.71,1.66-1.24,2.7-1.58s2.17-.51,3.4-.51c.89,0,1.8.08,2.73.24.93.16,1.89.4,2.88.73l-1.04,4.08c-1.16-.36-2.3-.53-3.42-.53h-.03ZM574.23,139.7c.53-.38,1.17-.57,1.94-.57s1.41.19,1.93.57.79.85.79,1.4-.26,1.02-.79,1.4-1.17.57-1.93.57-1.41-.19-1.94-.57-.79-.84-.79-1.4.27-1.02.79-1.4ZM580.68,139.7c.53-.38,1.17-.57,1.93-.57s1.41.19,1.93.57.79.85.79,1.4-.27,1.02-.79,1.4-1.17.57-1.93.57-1.41-.19-1.93-.57-.79-.84-.79-1.4.27-1.02.79-1.4Z"/>
    <path d="M599.88,118.45c.43-1.04,1.01-1.89,1.74-2.57s1.57-1.18,2.53-1.51c.96-.32,1.99-.49,3.08-.49,1.26,0,2.51.2,3.77.61s2.46,1.01,3.62,1.82v13.6c0,1.46-.17,2.7-.52,3.74-.35,1.04-.83,1.89-1.46,2.55s-1.37,1.15-2.23,1.46-1.8.46-2.83.46c-1.16,0-2.33-.18-3.52-.53s-2.46-.86-3.82-1.51l1.44-3.4c.79.36,1.63.66,2.51.92s1.73.39,2.56.39c.99,0,1.81-.28,2.46-.85s.97-1.64.97-3.23h-6.45c-1.26,0-2.32-.42-3.18-1.26s-1.29-1.88-1.29-3.11v-3.4c0-1.42.21-2.66.65-3.69h-.03ZM610.16,118.74c-.86-.32-1.8-.49-2.83-.49-.96,0-1.8.31-2.53.92-.73.62-1.09,1.6-1.09,2.96v3.4h6.45v-6.8h0Z"/>
    <path d="M626.23,114.17c.2.19.3.42.3.68v10.69h3.22v4.37h-3.22c0,1.46-.17,2.7-.52,3.72-.35,1.02-.83,1.85-1.46,2.5s-1.37,1.12-2.23,1.43-1.8.46-2.83.46c-1.19,0-2.38-.16-3.57-.49l1.09-4.13c.3.1.6.16.89.19.3.03.58.05.84.05.96,0,1.75-.27,2.38-.8s.94-1.51.94-2.94v-15.06c0-.26.1-.49.3-.68s.43-.29.69-.29h2.48c.26,0,.5.1.69.29h.01Z"/>
    <path d="M628.69,125.95c.28-.28.64-.41,1.07-.41h5.21v-10.69c0-.26.1-.49.3-.68s.43-.29.69-.29h2.48c.26,0,.5.1.69.29.2.19.3.42.3.68v11.17c0,1.07-.39,1.98-1.17,2.74-.78.76-1.71,1.14-2.8,1.14h-5.71c-.43,0-.79-.14-1.07-.41s-.42-.62-.42-1.04v-1.46c0-.42.14-.77.42-1.04h.01ZM629.56,133.45c.53-.42,1.17-.63,1.94-.63s1.41.21,1.93.63.79.94.79,1.55-.26,1.13-.79,1.55-1.17.63-1.93.63-1.41-.21-1.94-.63-.79-.94-.79-1.55.27-1.13.79-1.55ZM636.01,133.45c.53-.42,1.17-.63,1.93-.63s1.41.21,1.93.63.79.94.79,1.55-.27,1.13-.79,1.55-1.17.63-1.93.63-1.41-.21-1.93-.63-.79-.94-.79-1.55.27-1.13.79-1.55Z"/>
  </g>
</svg>