<?xml version="1.0" encoding="UTF-8"?>
<svg id="Layer_1" xmlns="http://www.w3.org/2000/svg" version="1.1" viewBox="0 0 389.83 203.14">
  <!-- Generator: Adobe Illustrator 29.7.1, SVG Export Plug-In . SVG Version: 2.1.1 Build 8)  -->
  <defs>
    <style>
      .st0 {
        fill: #08a3f9;
      }

      .st1, .st2 {
        fill: #fff;
      }

      .st3 {
        fill: #0303ed;
      }

      .st4 {
        opacity: .3;
      }

      .st5 {
        fill: #050505;
        stroke: #020202;
        stroke-width: 7.17px;
      }

      .st5, .st2 {
        stroke-miterlimit: 10;
      }

      .st2 {
        stroke: #fff;
        stroke-width: 6.92px;
      }
    </style>
  </defs>
  <g>
    <g class="st4">
      <path class="st5" d="M20.6,102.86c-.28.39-.46.89-.46,1.39,0,.25.03.49.09.7l.05.16s.05.12.03.08l-.03-.08-.23-.64-.42-1.26c-.25-.84-.48-1.67-.66-2.51-.39-1.68-.64-3.37-.79-5.07-.28-3.4-.08-6.85.7-10.24,1.47-6.81,5.72-13.23,11.63-18.09,5.97-4.87,13.6-8.16,21.61-9.72,8.03-1.59,16.47-1.31,24.31.41l-3.89,1.83h0c2.63-7.59,7.25-14.67,13.68-20.62,3.21-2.97,6.89-5.62,10.91-7.86,4.04-2.22,8.45-4,13.03-5.33,4.59-1.32,9.37-2.2,14.21-2.58,4.84-.36,9.72-.27,14.52.26,9.63,1,18.86,3.92,27.07,8.06h0s-4.99.97-4.99.97c5.23-7.23,12.28-13.68,20.92-18.44,8.55-4.84,18.65-7.98,29.17-8.86,10.51-.97,21.41.69,30.98,4.4,9.6,3.76,17.83,9.35,24.32,16.22h0s-6.83-.98-6.83-.98c6.84-3.64,14.67-6.07,22.81-6.93,8.14-.83,16.58-.08,24.32,2.32,3.88,1.17,7.54,2.82,10.91,4.8,3.37,1.97,6.44,4.29,9.05,6.88,5.24,5.22,8.88,11.21,10.85,17.8h0s-5.2-3.17-5.2-3.17c8.49-.22,17.01,1.46,24.32,4.89,7.3,3.42,13.35,8.63,16.94,14.83,3.64,6.19,4.61,13.3,3.03,19.88-1.57,6.6-5.53,12.7-11.1,17.47h0s-.24-3.28-.24-3.28c7.7,5.44,13.54,12.78,15.82,21.01,1.1,4.1,1.44,8.42.5,12.63-.89,4.21-3.01,8.25-5.96,11.75-5.96,7.02-15.14,11.86-25.05,13.98-4.96,1.07-10.11,1.58-15.24,1.37-5.12-.23-10.18-1.08-15.02-2.44l3.89-1.65c-1.69,5.68-5.01,11.29-10.43,15.63-2.7,2.16-5.9,3.9-9.29,5.25-3.42,1.33-7.07,2.15-10.76,2.64-3.7.51-7.43.49-11.12.28-3.69-.26-7.3-.88-10.84-1.7-7.03-1.74-13.61-4.54-19.5-8.06h0s7.92-2.05,7.92-2.05c-.76,1.96-1.62,3.63-2.62,5.33-.99,1.69-2.1,3.33-3.34,4.91-2.47,3.17-5.42,6.13-8.9,8.71-3.48,2.56-7.45,4.79-11.83,6.33-4.37,1.54-9.01,2.53-13.73,2.88-9.45.75-18.95-1.08-27.14-4.65-8.26-3.53-15.1-8.99-20.07-15.33l8.37.21c-2.53,2.8-5.38,5.41-8.58,7.74-3.25,2.28-6.8,4.28-10.6,5.92-3.81,1.64-7.92,2.83-12.15,3.62-4.23.78-8.64,1.12-13.04.84-4.39-.26-8.77-1.06-12.89-2.43-4.13-1.36-7.96-3.32-11.27-5.68-3.32-2.36-6.14-5.1-8.5-8.04-2.36-2.95-4.26-6.05-5.7-9.44l8.1,1.77c-5.9,4.12-12.87,7.4-20.56,8.96-3.82.81-7.79,1.26-11.81,1.18-4-.06-8.05-.53-11.94-1.61-3.88-1.09-7.62-2.75-10.83-5.02-3.23-2.25-5.81-5.13-7.56-8.21-1.75-3.08-2.79-6.33-3.22-9.55-.44-3.24-.43-6.39.14-9.68l6.24,4.58c-8.12,1.73-16.99,1-24.53-2.04-7.54-2.99-13.84-8.37-16.74-14.96-2.95-6.57-2.48-13.91.79-20.19,1.63-3.15,3.94-6.06,6.81-8.56,1.41-1.26,3.01-2.39,4.68-3.42l1.29-.74.64-.37.31-.18s.01,0,.02.02c.04.07.18.4.65.7ZM29.97,105.9c-1.09,1.02-2.53,2.08-4.05,2.87l-.57.29-.24.14-.46.27-.92.53c-1.19.74-2.34,1.54-3.35,2.45-2.05,1.79-3.71,3.88-4.88,6.14-2.35,4.51-2.64,9.7-.62,14.19,1.98,4.5,6.32,8.25,11.71,10.4,5.38,2.17,11.74,2.71,17.59,1.46l7.26-1.55-1.02,6.13c-.81,4.9-.21,10.31,2.24,14.54,2.39,4.29,6.89,7.34,12.49,8.92,2.79.78,5.82,1.13,8.85,1.18,3.05.07,6.14-.28,9.13-.92,6.04-1.21,11.63-3.84,16.43-7.17l5.65-3.93,2.45,5.7c2.26,5.26,6.21,10.31,11.27,13.91,5.07,3.65,11.5,5.72,18.23,6.11,3.37.22,6.8-.04,10.14-.66,3.34-.63,6.63-1.57,9.7-2.89,3.07-1.33,5.95-2.95,8.6-4.81,2.61-1.91,4.94-4.05,7.04-6.35l4.39-4.83,3.98,5.04c4.08,5.17,9.62,9.61,16.29,12.45,6.59,2.87,14.15,4.31,21.46,3.71,3.66-.27,7.22-1.04,10.56-2.21,3.35-1.17,6.39-2.88,9.13-4.9,2.74-2.03,5.13-4.41,7.17-7.02,1.02-1.3,1.94-2.67,2.76-4.06.82-1.37,1.57-2.88,2.07-4.18l2.17-5.61,5.75,3.56h0c4.83,3.2,10.27,5.81,16.11,7.53,2.93.81,5.93,1.46,8.97,1.8,3.04.29,6.12.45,9.14.16,3.01-.28,5.98-.81,8.74-1.75,2.74-.97,5.32-2.21,7.57-3.82,4.51-3.23,7.66-7.8,9.46-12.73l.91-2.49,2.98.83c4.3,1.2,8.76,1.97,13.28,2.19,4.52.2,9.07-.25,13.43-1.18,8.73-1.83,16.75-6.1,21.82-12.05,2.52-2.97,4.29-6.32,5.06-9.86.81-3.54.54-7.24-.4-10.8-1.95-7.16-7.09-13.7-13.93-18.56l-2.06-1.46,1.82-1.81h0c4.6-4.36,7.64-9.74,8.62-15.3.99-5.57-.2-11.29-3.41-16.11-3.17-4.84-8.24-8.8-14.22-11.29-5.99-2.49-12.79-3.52-19.42-3.09l-4.1.27-1.11-3.45h0c-.73-2.56-1.94-5.17-3.4-7.6-1.49-2.44-3.3-4.73-5.39-6.81-2.09-2.08-4.52-3.9-7.17-5.45-2.65-1.56-5.53-2.87-8.61-3.79-6.13-1.9-12.87-2.51-19.45-1.84-6.58.7-12.95,2.67-18.54,5.64l-4,2.12-2.84-3.11h0c-5.27-5.89-12.35-10.96-20.34-14.27-8-3.3-17.06-4.89-26.08-4.25-9,.57-17.89,3.08-25.56,7.21-7.75,4.04-14.23,9.67-19.15,16.08l-1.9,2.48-3.09-1.51h0c-7.34-3.76-15.59-6.42-24.19-7.36-4.28-.49-8.63-.6-12.93-.3-4.3.31-8.54,1.07-12.61,2.21-4.06,1.15-7.96,2.69-11.55,4.64-3.57,1.96-6.83,4.28-9.71,6.9-5.76,5.24-10.03,11.68-12.44,18.45h0s-.78,2.39-.78,2.39l-3.1-.57c-6.91-1.27-14.17-1.25-20.89.32-6.71,1.55-12.87,4.51-17.49,8.59-2.31,2.04-4.18,4.37-5.63,6.84-1.47,2.46-2.43,5.11-2.9,7.84-.49,2.73-.51,5.53-.15,8.31.19,1.39.47,2.77.86,4.13.18.68.41,1.35.64,2.02l.38.97.2.47.02.06.06.15.08.23c.1.31.17.64.21.98.07.68-.03,1.37-.23,1.94Z"/>
    </g>
    <path class="st2" d="M26.65,102.81c-.27.37-.44.86-.45,1.34,0,.24.03.47.09.68l.05.15s.05.12.03.08l-.03-.08-.23-.62-.4-1.22c-.24-.81-.46-1.62-.64-2.43-.38-1.62-.62-3.25-.77-4.89-.27-3.28-.08-6.61.68-9.88,1.42-6.57,5.51-12.76,11.22-17.46,5.76-4.69,13.12-7.87,20.85-9.37,7.75-1.53,15.89-1.26,23.46.4l-3.75,1.76h0c2.54-7.33,6.99-14.15,13.2-19.89,3.1-2.86,6.65-5.42,10.53-7.58,3.9-2.15,8.15-3.86,12.58-5.14,4.43-1.27,9.04-2.12,13.71-2.49,4.67-.35,9.38-.26,14.01.25,9.3.96,18.2,3.78,26.12,7.78h0s-4.81.93-4.81.93c5.05-6.97,11.85-13.2,20.18-17.79,8.25-4.67,17.99-7.7,28.14-8.55,10.14-.93,20.66.66,29.89,4.25,9.26,3.63,17.2,9.02,23.46,15.65h0s-6.59-.95-6.59-.95c6.6-3.51,14.15-5.86,22.01-6.69,7.86-.8,15.99-.08,23.47,2.24,3.75,1.13,7.28,2.72,10.52,4.63,3.25,1.9,6.21,4.14,8.73,6.64,5.06,5.04,8.57,10.82,10.46,17.17h0s-5.02-3.06-5.02-3.06c8.19-.21,16.41,1.41,23.47,4.71,7.05,3.3,12.88,8.33,16.34,14.31,3.51,5.97,4.45,12.83,2.92,19.18-1.51,6.37-5.33,12.25-10.71,16.86h0s-.23-3.16-.23-3.16c7.43,5.25,13.06,12.33,15.27,20.28,1.06,3.96,1.39,8.12.48,12.18-.85,4.07-2.9,7.96-5.75,11.33-5.75,6.77-14.61,11.44-24.17,13.49-4.78,1.03-9.76,1.52-14.71,1.32-4.94-.22-9.82-1.05-14.49-2.35l3.75-1.6c-1.64,5.48-4.83,10.9-10.07,15.08-2.61,2.08-5.7,3.76-8.97,5.07-3.3,1.28-6.83,2.07-10.38,2.55-3.57.49-7.17.47-10.73.27-3.56-.25-7.05-.85-10.46-1.64-6.78-1.68-13.13-4.38-18.82-7.77h0s7.64-1.98,7.64-1.98c-.73,1.89-1.56,3.5-2.53,5.15-.96,1.63-2.02,3.21-3.22,4.74-2.38,3.06-5.23,5.91-8.59,8.4-3.36,2.47-7.19,4.62-11.42,6.11-4.22,1.48-8.7,2.44-13.25,2.78-9.12.73-18.29-1.05-26.18-4.49-7.97-3.41-14.57-8.68-19.37-14.79l8.08.2c-2.44,2.7-5.19,5.22-8.28,7.47-3.13,2.2-6.56,4.13-10.23,5.72-3.68,1.58-7.64,2.73-11.73,3.5-4.09.76-8.34,1.08-12.58.81-4.24-.25-8.46-1.02-12.44-2.34-3.98-1.32-7.68-3.2-10.88-5.48-3.21-2.28-5.93-4.92-8.2-7.76-2.28-2.85-4.11-5.83-5.5-9.11l7.82,1.71c-5.69,3.98-12.42,7.14-19.84,8.64-3.69.78-7.52,1.22-11.39,1.14-3.86-.06-7.77-.51-11.53-1.56-3.75-1.06-7.35-2.65-10.45-4.84-3.12-2.17-5.61-4.95-7.3-7.92-1.69-2.97-2.69-6.11-3.11-9.21-.42-3.13-.41-6.16.14-9.34l6.02,4.42c-7.83,1.67-16.4.96-23.67-1.97-7.28-2.88-13.36-8.07-16.15-14.44-2.85-6.34-2.39-13.42.77-19.48,1.57-3.04,3.8-5.85,6.57-8.26,1.36-1.22,2.91-2.31,4.52-3.3l1.24-.71.62-.35.3-.17s.01,0,.02.02c.04.07.17.39.63.68ZM35.69,105.74c-1.06.99-2.44,2.01-3.91,2.77l-.55.28-.24.14-.44.26-.89.51c-1.15.72-2.26,1.49-3.23,2.36-1.98,1.73-3.58,3.74-4.71,5.92-2.27,4.35-2.54,9.36-.59,13.69,1.91,4.34,6.1,7.96,11.3,10.03,5.19,2.09,11.33,2.61,16.97,1.41l7-1.49-.98,5.91c-.78,4.73-.2,9.95,2.16,14.03,2.3,4.14,6.65,7.08,12.06,8.61,2.7.75,5.61,1.09,8.54,1.14,2.94.07,5.92-.27,8.81-.89,5.83-1.17,11.22-3.7,15.85-6.92l5.45-3.79,2.36,5.5c2.18,5.07,5.99,9.95,10.87,13.43,4.89,3.52,11.09,5.52,17.59,5.89,3.25.21,6.56-.04,9.79-.64,3.22-.61,6.39-1.52,9.36-2.79,2.96-1.28,5.74-2.85,8.3-4.64,2.51-1.84,4.77-3.91,6.79-6.13l4.24-4.66,3.84,4.86c3.93,4.99,9.29,9.28,15.71,12.01,6.36,2.77,13.65,4.16,20.71,3.58,3.53-.26,6.97-1.01,10.19-2.13,3.23-1.13,6.16-2.78,8.81-4.73,2.64-1.96,4.95-4.26,6.92-6.78.98-1.26,1.87-2.57,2.66-3.92.79-1.33,1.51-2.78,2-4.04l2.09-5.41,5.55,3.44h0c4.66,3.09,9.91,5.6,15.54,7.26,2.82.78,5.72,1.41,8.66,1.74,2.93.28,5.91.44,8.82.15,2.9-.27,5.77-.78,8.44-1.69,2.64-.94,5.14-2.13,7.31-3.69,4.35-3.12,7.39-7.52,9.13-12.29l.88-2.4,2.88.81c4.15,1.16,8.45,1.9,12.81,2.11,4.37.19,8.75-.24,12.96-1.13,8.43-1.77,16.16-5.89,21.05-11.63,2.43-2.86,4.14-6.1,4.88-9.51.79-3.42.52-6.98-.39-10.42-1.88-6.91-6.84-13.22-13.44-17.91l-1.99-1.41,1.75-1.75h0c4.44-4.2,7.37-9.39,8.31-14.77.96-5.37-.19-10.89-3.29-15.54-3.06-4.67-7.95-8.49-13.72-10.89-5.78-2.4-12.35-3.4-18.74-2.98l-3.96.26-1.07-3.33h0c-.71-2.47-1.87-4.99-3.28-7.34-1.44-2.35-3.18-4.57-5.2-6.57-2.02-2.01-4.36-3.76-6.92-5.26-2.55-1.5-5.34-2.77-8.31-3.66-5.92-1.83-12.42-2.42-18.77-1.78-6.35.67-12.49,2.58-17.88,5.44l-3.85,2.05-2.74-3h0c-5.08-5.69-11.91-10.58-19.62-13.77-7.72-3.18-16.46-4.72-25.16-4.1-8.69.55-17.26,2.98-24.66,6.95-7.48,3.9-13.73,9.33-18.48,15.52l-1.84,2.39-2.98-1.46h0c-7.09-3.62-15.04-6.2-23.34-7.1-4.13-.47-8.33-.58-12.48-.29-4.15.3-8.24,1.03-12.17,2.14-3.92,1.11-7.68,2.6-11.14,4.47-3.44,1.89-6.59,4.13-9.37,6.66-5.56,5.05-9.68,11.26-12,17.81h0s-.76,2.31-.76,2.31l-2.99-.55c-6.67-1.22-13.67-1.21-20.16.31-6.48,1.49-12.42,4.35-16.88,8.29-2.22,1.97-4.03,4.22-5.43,6.6-1.42,2.38-2.35,4.93-2.8,7.57-.47,2.63-.5,5.33-.14,8.01.19,1.34.45,2.68.83,3.99.18.66.39,1.3.61,1.94l.36.94.19.45.02.06.06.15.08.22c.1.3.17.62.2.95.07.65-.03,1.32-.22,1.87Z"/>
    <path class="st3" d="M36.13,102.56c-.69-1.55-6.75-15.96,3.82-28.65,9.02-10.83,26.4-15.9,43.26-12.36,1.18-3.44,6.77-18.28,24.94-26.74,17.44-8.11,39.72-7.21,57.76,2.14,12.04-16.46,33.78-25.72,55.14-23.53,21.75,2.23,34.26,15.42,36.76,18.18,13.66-7.35,30.86-8.21,44.63-2.14,16.31,7.19,20.45,20.86,21.07,23.06,16.69-.79,31.74,7.28,36.76,19.25,4.1,9.77.97,20.87-7.95,28.85,12.53,8.81,17.76,22.15,13.2,33.18-6.16,14.89-29.66,24.33-52.57,17.58-1.26,3.85-4.3,10.45-11.82,14.97-12.72,7.66-33.21,6.31-49.89-4.28-.54,1.44-6.92,17.6-26.26,22.46-16.96,4.27-36.63-1.99-47.2-15.73-11.69,13.31-31.49,18.59-47.32,13.59-15.38-4.86-20.9-17.49-21.75-19.55-15.41,11.04-36.04,10.89-46.51,2.44-9.51-7.67-7.54-19.69-7.24-21.37-13.19,2.77-26.75-2.43-32.15-11.79-6.06-10.51-.46-23.94,13.31-29.58Z"/>
    <path d="M31.75,101.14c-.26.36-.43.84-.43,1.3,0,.23.03.46.08.66l.05.15s.04.12.03.08l-.03-.07-.22-.6-.39-1.18c-.23-.78-.45-1.57-.62-2.35-.37-1.57-.6-3.15-.74-4.74-.26-3.18-.07-6.4.65-9.58,1.38-6.37,5.34-12.37,10.87-16.92,5.58-4.55,12.72-7.63,20.21-9.09,7.51-1.48,15.4-1.22,22.74.38l-3.63,1.71h0c2.46-7.1,6.78-13.72,12.79-19.28,3-2.77,6.44-5.25,10.21-7.35,3.78-2.08,7.9-3.74,12.19-4.98,4.29-1.23,8.77-2.06,13.29-2.41,4.53-.34,9.09-.25,13.58.24,9.01.94,17.64,3.66,25.32,7.54h0s-4.67.9-4.67.9c4.9-6.76,11.48-12.79,19.56-17.24,7.99-4.52,17.44-7.46,27.28-8.28,9.83-.9,20.02.64,28.97,4.12,8.97,3.52,16.67,8.75,22.74,15.17h0s-6.39-.92-6.39-.92c6.39-3.4,13.72-5.68,21.34-6.48,7.62-.78,15.5-.08,22.74,2.17,3.63,1.1,7.06,2.64,10.2,4.49,3.15,1.84,6.02,4.01,8.47,6.44,4.9,4.89,8.31,10.49,10.14,16.65h0s-4.87-2.97-4.87-2.97c7.94-.2,15.91,1.36,22.75,4.57,6.83,3.2,12.48,8.07,15.84,13.87,3.4,5.79,4.32,12.44,2.83,18.59-1.47,6.17-5.17,11.87-10.38,16.34h0s-.23-3.06-.23-3.06c7.2,5.09,12.66,11.95,14.8,19.65,1.03,3.84,1.34,7.87.46,11.81-.83,3.94-2.81,7.72-5.57,10.99-5.57,6.56-14.16,11.09-23.43,13.08-4.64,1-9.46,1.47-14.25,1.28-4.79-.22-9.52-1.01-14.05-2.28l3.64-1.55c-1.59,5.31-4.68,10.56-9.76,14.62-2.53,2.02-5.52,3.64-8.69,4.91-3.2,1.24-6.62,2.01-10.06,2.47-3.46.48-6.95.46-10.4.26-3.45-.24-6.83-.82-10.14-1.59-6.58-1.63-12.73-4.24-18.24-7.53h0s7.41-1.91,7.41-1.91c-.71,1.83-1.51,3.39-2.45,4.99-.93,1.58-1.96,3.12-3.12,4.6-2.31,2.96-5.07,5.73-8.33,8.14-3.25,2.4-6.97,4.48-11.07,5.92-4.09,1.44-8.43,2.37-12.84,2.69-8.84.7-17.72-1.01-25.38-4.35-7.73-3.3-14.12-8.41-18.77-14.33l7.83.2c-2.37,2.62-5.03,5.06-8.02,7.24-3.04,2.13-6.35,4-9.92,5.54-3.57,1.53-7.41,2.65-11.37,3.39-3.96.73-8.08,1.05-12.19.79-4.11-.24-8.2-.99-12.06-2.27-3.86-1.28-7.44-3.1-10.54-5.31-3.11-2.21-5.74-4.77-7.95-7.52-2.21-2.76-3.99-5.65-5.33-8.83l7.58,1.65c-5.51,3.85-12.04,6.92-19.23,8.38-3.57.76-7.29,1.18-11.04,1.1-3.74-.06-7.53-.5-11.17-1.51-3.63-1.02-7.12-2.57-10.12-4.69-3.02-2.1-5.44-4.8-7.07-7.67-1.64-2.88-2.61-5.92-3.01-8.93-.41-3.03-.4-5.97.13-9.05l5.84,4.28c-7.59,1.62-15.89.94-22.95-1.91-7.06-2.79-12.95-7.83-15.66-13.99-2.76-6.14-2.32-13.01.74-18.88,1.52-2.95,3.69-5.67,6.37-8.01,1.32-1.18,2.82-2.23,4.38-3.2l1.2-.69.6-.34.29-.16s.01,0,.02.02c.04.06.17.38.61.66ZM40.51,103.98c-1.02.96-2.36,1.95-3.79,2.69l-.53.27-.23.13-.43.25-.86.49c-1.11.7-2.19,1.44-3.13,2.29-1.92,1.67-3.47,3.63-4.56,5.74-2.2,4.22-2.47,9.07-.58,13.27,1.85,4.21,5.91,7.72,10.95,9.73,5.04,2.03,10.98,2.53,16.45,1.36l6.79-1.45-.95,5.73c-.76,4.58-.19,9.64,2.1,13.6,2.23,4.01,6.44,6.87,11.69,8.34,2.61.73,5.44,1.06,8.28,1.1,2.85.07,5.74-.26,8.54-.86,5.65-1.13,10.87-3.59,15.36-6.71l5.29-3.67,2.29,5.33c2.12,4.92,5.81,9.64,10.54,13.01,4.74,3.41,10.75,5.35,17.05,5.71,3.15.21,6.36-.04,9.49-.62,3.12-.59,6.2-1.47,9.07-2.71,2.87-1.24,5.56-2.76,8.05-4.5,2.44-1.78,4.62-3.79,6.58-5.94l4.11-4.52,3.72,4.71c3.81,4.83,9,8.99,15.23,11.64,6.16,2.69,13.23,4.03,20.07,3.47,3.42-.25,6.75-.98,9.88-2.07,3.13-1.09,5.97-2.7,8.54-4.58,2.56-1.9,4.8-4.13,6.7-6.57.95-1.22,1.81-2.49,2.58-3.8.77-1.28,1.47-2.69,1.94-3.91l2.03-5.24,5.38,3.33h0c4.52,2.99,9.61,5.43,15.06,7.04,2.74.76,5.54,1.37,8.39,1.68,2.84.27,5.73.42,8.55.15,2.81-.27,5.59-.76,8.18-1.64,2.56-.91,4.98-2.07,7.08-3.58,4.21-3.02,7.17-7.29,8.85-11.91l.85-2.33,2.79.78c4.02,1.12,8.19,1.84,12.42,2.04,4.23.18,8.48-.23,12.56-1.1,8.17-1.71,15.67-5.71,20.4-11.27,2.35-2.78,4.02-5.91,4.73-9.22.76-3.31.51-6.77-.37-10.1-1.82-6.69-6.63-12.82-13.03-17.36l-1.93-1.37,1.7-1.7h0c4.3-4.08,7.15-9.11,8.06-14.31.93-5.21-.19-10.56-3.18-15.06-2.96-4.52-7.71-8.23-13.3-10.56-5.6-2.33-11.97-3.3-18.16-2.89l-3.83.25-1.03-3.23h0c-.69-2.39-1.81-4.83-3.18-7.11-1.4-2.28-3.08-4.43-5.04-6.37-1.96-1.95-4.23-3.64-6.71-5.1-2.47-1.46-5.17-2.68-8.06-3.55-5.74-1.78-12.04-2.35-18.19-1.72-6.15.65-12.11,2.5-17.34,5.27l-3.74,1.98-2.65-2.91h0c-4.93-5.51-11.55-10.25-19.02-13.35-7.48-3.08-15.96-4.57-24.39-3.97-8.42.53-16.73,2.88-23.91,6.74-7.25,3.78-13.31,9.04-17.91,15.04l-1.78,2.32-2.89-1.41h0c-6.87-3.51-14.58-6.01-22.62-6.88-4.01-.46-8.07-.56-12.1-.28-4.02.29-7.99,1-11.79,2.07-3.8,1.08-7.45,2.52-10.8,4.34-3.34,1.83-6.39,4-9.08,6.46-5.39,4.9-9.38,10.92-11.63,17.26h0s-.73,2.24-.73,2.24l-2.9-.53c-6.47-1.18-13.25-1.17-19.54.3-6.28,1.45-12.04,4.22-16.36,8.03-2.16,1.91-3.91,4.09-5.27,6.4-1.38,2.3-2.28,4.78-2.71,7.34-.45,2.55-.48,5.17-.14,7.77.18,1.3.44,2.6.8,3.87.17.64.38,1.26.6,1.89l.35.91.19.44.02.05.06.14.08.21c.09.29.16.6.19.92.07.63-.03,1.28-.22,1.81Z"/>
  </g>
  <g>
    <path class="st0" d="M179.02,107.67v9.5h-7.01v7.39c0,2.32-.84,4.31-2.53,5.96-1.69,1.65-3.72,2.48-6.09,2.48h-14.02c-2.66,0-5.18-.49-7.55-1.48-2.37-.99-4.44-2.34-6.2-4.06-1.76-1.72-3.14-3.75-4.15-6.07s-1.51-4.79-1.51-7.39v-17.94c0-.56.22-1.06.65-1.48.43-.42.93-.63,1.51-.63h5.39c.57,0,1.08.21,1.51.63.43.42.65.91.65,1.48v17.94c0,1.12.23,2.25.7,3.38.47,1.13,1.1,2.15,1.89,3.06.79.92,1.73,1.65,2.8,2.22,1.08.56,2.26.85,3.56.85h13.69v-39.05c0-.56.22-1.06.65-1.48.43-.42.93-.63,1.51-.63h5.39c.58,0,1.08.21,1.51.63.43.42.65.92.65,1.48v23.22h7.01ZM146.78,66.82c1.15-.91,2.55-1.37,4.2-1.37s3.06.46,4.21,1.37c1.15.92,1.73,2.04,1.73,3.38s-.58,2.46-1.73,3.38c-1.15.92-2.55,1.37-4.21,1.37s-3.05-.46-4.2-1.37c-1.15-.91-1.73-2.04-1.73-3.38s.57-2.46,1.73-3.38Z"/>
    <path class="st0" d="M176.7,108.57c.61-.6,1.38-.9,2.32-.9h11.32v-23.22c0-.56.22-1.06.65-1.48.43-.42.93-.63,1.51-.63h5.39c.57,0,1.08.21,1.51.63.43.42.65.92.65,1.48v24.27c0,2.32-.84,4.31-2.53,5.96-1.69,1.65-3.72,2.48-6.09,2.48h-12.4c-.93,0-1.71-.3-2.32-.9-.61-.6-.92-1.36-.92-2.27v-3.17c0-.91.31-1.67.92-2.27ZM178.59,124.87c1.15-.91,2.55-1.37,4.2-1.37s3.06.46,4.21,1.37,1.73,2.04,1.73,3.38-.58,2.46-1.73,3.38c-1.15.91-2.55,1.37-4.21,1.37s-3.05-.46-4.2-1.37c-1.15-.92-1.73-2.04-1.73-3.38s.57-2.46,1.73-3.38ZM192.6,124.87c1.15-.91,2.55-1.37,4.21-1.37s3.05.46,4.2,1.37c1.15.91,1.73,2.04,1.73,3.38s-.58,2.46-1.73,3.38c-1.15.91-2.55,1.37-4.2,1.37s-3.06-.46-4.21-1.37c-1.15-.92-1.73-2.04-1.73-3.38s.58-2.46,1.73-3.38Z"/>
    <path class="st0" d="M223.12,59.75c.43.42.65.91.65,1.48v53.83c0,.56-.22,1.06-.65,1.48-.43.42-.93.63-1.51.63h-5.39c-.58,0-1.08-.21-1.51-.63-.43-.42-.65-.91-.65-1.48v-53.83c0-.56.22-1.06.65-1.48.43-.42.93-.63,1.51-.63h5.39c.58,0,1.08.21,1.51.63Z"/>
    <path class="st0" d="M238.43,82.97c.43-.42.93-.63,1.51-.63h5.39c.58,0,1.08.21,1.51.63.43.42.65.92.65,1.48v32.72c0,3.17-.38,5.86-1.13,8.07s-1.82,4.05-3.18,5.49c-1.37,1.44-2.98,2.5-4.85,3.17-1.87.67-3.92,1-6.15,1-2.52,0-5.16-.37-7.92-1.11-2.77-.74-5.62-1.81-8.57-3.22l3.13-7.49c1.65.78,3.54,1.48,5.66,2.11,2.12.63,4.19.95,6.2.95,1.01,0,1.94-.14,2.8-.42.86-.28,1.62-.76,2.26-1.42.65-.67,1.15-1.58,1.51-2.74.36-1.16.54-2.62.54-4.38v-32.72c0-.56.21-1.06.65-1.48ZM238.43,66.82c1.15-.91,2.55-1.37,4.21-1.37s3.05.46,4.21,1.37c1.15.92,1.72,2.04,1.72,3.38s-.58,2.46-1.72,3.38c-1.15.92-2.55,1.37-4.21,1.37s-3.05-.46-4.21-1.37c-1.15-.91-1.73-2.04-1.73-3.38s.58-2.46,1.73-3.38Z"/>
  </g>
  <g>
    <path class="st1" d="M181.88,104.15v9.5h-7.01v7.39c0,2.32-.84,4.31-2.53,5.96-1.69,1.65-3.72,2.48-6.09,2.48h-14.02c-2.66,0-5.18-.49-7.55-1.48s-4.44-2.34-6.2-4.06c-1.76-1.72-3.14-3.75-4.15-6.07s-1.51-4.78-1.51-7.39v-17.94c0-.56.22-1.06.65-1.48.43-.42.93-.63,1.51-.63h5.39c.57,0,1.08.21,1.51.63.43.42.65.91.65,1.48v17.94c0,1.12.23,2.25.7,3.38.47,1.12,1.1,2.15,1.89,3.06.79.91,1.73,1.65,2.8,2.22,1.08.56,2.26.84,3.56.84h13.69v-39.05c0-.56.22-1.06.65-1.48.43-.42.93-.63,1.51-.63h5.39c.58,0,1.08.21,1.51.63.43.42.65.92.65,1.48v23.22h7.01ZM149.64,63.31c1.15-.91,2.55-1.37,4.2-1.37s3.06.46,4.21,1.37c1.15.92,1.73,2.04,1.73,3.38s-.58,2.46-1.73,3.38c-1.15.92-2.55,1.37-4.21,1.37s-3.05-.46-4.2-1.37c-1.15-.91-1.73-2.04-1.73-3.38s.57-2.46,1.73-3.38Z"/>
    <path class="st1" d="M179.57,105.05c.61-.6,1.38-.9,2.32-.9h11.32v-23.22c0-.56.22-1.06.65-1.48.43-.42.93-.63,1.51-.63h5.39c.58,0,1.08.21,1.51.63.43.42.65.92.65,1.48v24.28c0,2.32-.84,4.31-2.53,5.96-1.69,1.65-3.72,2.48-6.09,2.48h-12.4c-.93,0-1.71-.3-2.32-.9-.61-.6-.92-1.35-.92-2.27v-3.17c0-.91.31-1.67.92-2.27ZM181.45,121.36c1.15-.92,2.55-1.37,4.2-1.37s3.06.46,4.21,1.37c1.15.91,1.73,2.04,1.73,3.38s-.58,2.46-1.73,3.38-2.55,1.37-4.21,1.37-3.05-.46-4.2-1.37c-1.15-.91-1.73-2.04-1.73-3.38s.57-2.46,1.73-3.38ZM195.47,121.36c1.15-.92,2.55-1.37,4.21-1.37s3.05.46,4.21,1.37c1.15.91,1.72,2.04,1.72,3.38s-.57,2.46-1.72,3.38-2.55,1.37-4.21,1.37-3.05-.46-4.21-1.37c-1.15-.91-1.73-2.04-1.73-3.38s.58-2.46,1.73-3.38Z"/>
    <path class="st1" d="M225.99,56.24c.43.42.65.91.65,1.48v53.83c0,.56-.22,1.05-.65,1.48-.43.42-.93.63-1.51.63h-5.39c-.58,0-1.08-.21-1.51-.63-.43-.42-.65-.92-.65-1.48v-53.83c0-.56.22-1.06.65-1.48.43-.42.93-.63,1.51-.63h5.39c.58,0,1.08.21,1.51.63Z"/>
    <path class="st1" d="M241.3,79.46c.43-.42.93-.63,1.51-.63h5.39c.58,0,1.08.21,1.51.63.43.42.65.92.65,1.48v32.72c0,3.17-.38,5.86-1.13,8.07s-1.82,4.04-3.18,5.49c-1.37,1.44-2.98,2.5-4.85,3.17-1.87.67-3.92,1-6.15,1-2.52,0-5.16-.37-7.92-1.11-2.77-.74-5.62-1.81-8.57-3.22l3.13-7.49c1.65.77,3.54,1.48,5.66,2.11,2.12.63,4.19.95,6.2.95,1.01,0,1.94-.14,2.8-.42.86-.28,1.62-.76,2.26-1.43.65-.67,1.15-1.58,1.51-2.74.36-1.16.54-2.62.54-4.38v-32.72c0-.56.21-1.06.65-1.48ZM241.3,63.31c1.15-.91,2.55-1.37,4.21-1.37s3.05.46,4.21,1.37c1.15.92,1.72,2.04,1.72,3.38s-.58,2.46-1.72,3.38c-1.15.92-2.55,1.37-4.21,1.37s-3.05-.46-4.21-1.37c-1.15-.91-1.73-2.04-1.73-3.38s.58-2.46,1.73-3.38Z"/>
  </g>
</svg>