<?xml version="1.0" encoding="UTF-8"?>
<svg id="Layer_1" xmlns="http://www.w3.org/2000/svg" version="1.1" viewBox="0 0 784.8 350.74">
  <!-- Generator: Adobe Illustrator 29.7.1, SVG Export Plug-In . SVG Version: 2.1.1 Build 8)  -->
  <defs>
    <style>
      .st0 {
        fill: #94d9f7;
      }

      .st1 {
        fill: #933468;
      }

      .st2 {
        isolation: isolate;
      }

      .st3 {
        fill: #6d6dbc;
      }

      .st4 {
        fill: #743fb2;
      }

      .st5 {
        display: none;
      }
    </style>
  </defs>
  <g class="st5">
    <g>
      <path d="M84.71,7.97c-.8.78-1.2,1.88-1.14,2.96l14.53,153.11-13.76-3.04c-.52-.12-1.04-.11-1.54-.02-.27,0-.54-.05-.81,0-.27,0-.54-.05-.81,0-.27,0-.54-.05-.81,0-.27,0-.54-.05-.81,0-.27,0-.55-.05-.81,0-.27,0-.54-.05-.81,0-.27,0-.54-.05-.81,0-.27,0-.54-.05-.81,0-.27,0-.54-.05-.81,0-.27,0-.54-.05-.81,0-.27,0-.54-.05-.81,0-.27,0-.54-.05-.81,0-.27,0-.54-.05-.81,0-.27,0-.54-.05-.81,0-.27,0-.54-.05-.81,0-.27,0-.55-.05-.81,0-.27,0-.55-.05-.81,0-.27,0-.54-.05-.81,0-.27,0-.55-.05-.81,0-.27,0-.54-.05-.81,0-1.73-.05-3.33.95-3.86,2.62l-7.73,24.2-17.4-9.34c-.69-.37-1.46-.44-2.23-.37-.27-.03-.53-.02-.81,0-.27-.03-.53-.02-.81,0-.27-.03-.53-.02-.81,0-.27-.03-.53-.02-.81,0-.27-.03-.53-.02-.81,0-.27-.03-.53-.02-.81,0-.27-.03-.53-.02-.81,0-.27-.03-.53-.02-.81,0-.27-.03-.53-.02-.81,0-.27-.03-.53-.02-.81,0-.28-.03-.53-.02-.81,0-.28-.03-.53-.02-.81,0-.27-.03-.53-.02-.81,0-.28-.03-.53-.02-.81,0-.27-.03-.53-.02-.81,0-.27-.03-.53-.02-.81,0-.28-.03-.53-.02-.81,0-.27-.03-.53-.02-.81,0-.27-.03-.53-.02-.81,0-.27-.03-.53-.02-.81,0-.73-.09-1.47-.04-2.16.29-1.14.54-1.94,1.58-2.15,2.8l-7.6,43.55-59.56,1.08c-1.85.03-3.42,1.33-3.77,3.11-.05.24-.07.48-.07.71,0,1.52.93,2.93,2.41,3.53l83.73,34.15c.63.26,1.29.29,1.95.21.27.03.53.03.81,0,.27.03.53.03.81,0,.27.03.53.03.81,0,.27.03.53.03.81,0,.27.03.53.03.81,0,.27.03.53.03.81,0,.27.03.53.03.81,0,.27.03.53.03.81,0,.27.03.53.03.81,0,.27.03.53.03.81,0,.28.03.53.03.81,0,.27.03.53.03.81,0,.27.03.53.03.81,0,.27.03.53.03.81,0,.27.03.53.03.81,0,.27.03.53.03.81,0,.27.03.53.03.81,0,.27.03.53.03.81,0,.27.03.53.03.81,0,.27.03.53.03.81,0,.69.06,1.39.01,2.03-.29,1-.46,1.75-1.32,2.07-2.36l5.09-16.61,5.33,4.7c.91.8,2.16,1.14,3.36.91.02,0,.04-.02.06-.03.25,0,.49.08.74.03.02,0,.04-.02.06-.03.25,0,.49.08.74.03.02,0,.04-.02.06-.03.25,0,.49.08.74.03.02,0,.04-.02.06-.03.25,0,.49.08.74.03.02,0,.04-.02.06-.03.25,0,.49.08.74.03.02,0,.04-.02.06-.03.25,0,.49.08.74.03.02,0,.04-.02.06-.03.25,0,.49.08.74.03.02,0,.04-.02.06-.03.25,0,.49.08.74.03.02,0,.04-.02.06-.03.25,0,.49.08.74.03.02,0,.04-.02.06-.03.25,0,.49.08.74.03.02,0,.04-.02.06-.03.25,0,.49.08.74.03.02,0,.04-.02.06-.03.25,0,.49.08.74.03.02,0,.04-.02.06-.03.25,0,.49.08.74.03.02,0,.04-.02.06-.03.25,0,.49.08.74.03.02,0,.04-.02.06-.03.25,0,.49.08.74.03.02,0,.04-.02.06-.03.25,0,.49.08.74.03.02,0,.04-.02.06-.03.25,0,.49.08.74.03.02,0,.04-.02.06-.03.25,0,.49.08.74.03.02,0,.04-.02.06-.03.25,0,.49.08.74.03.02,0,.04-.02.06-.03.25,0,.49.08.74.03.02,0,.04-.02.06-.03.25,0,.49.08.74.03,1.21-.23,2.23-1,2.77-2.09l14.22-28.64,3.55,2.01,14.88,114.23c.14,1.06.72,2.01,1.6,2.63s1.99.85,3.05.64h.02c.26,0,.52.05.79,0h.02c.26,0,.52.05.79,0h.02c.26,0,.52.05.79,0h.02c.26,0,.52.05.79,0h.02c.26,0,.52.05.79,0h.02c.26,0,.52.05.79,0h.02c.26,0,.53.05.79,0h.02c.26,0,.52.05.79,0h.02c.26,0,.52.05.79,0h.02c.26,0,.52.05.79,0h.02c.26,0,.52.05.79,0h.02c.26,0,.52.05.79,0h.02c.26,0,.52.05.79,0h.02c.26,0,.52.05.79,0h.02c.26,0,.52.05.79,0h.02c.26,0,.52.05.79,0h.02c.26,0,.52.05.79,0h.02c.26,0,.52.05.79,0h.02c.26,0,.53.05.79,0h.02c.26,0,.52.05.79,0h.02c.26,0,.53.05.79,0l615.62-39.84c1.74-.34,3.02-1.79,3.12-3.53l19.77-271.29c.09-2.02-1.5-3.89-3.64-4.04L104.68,6.87c-.09,0-.17.04-.26.04l-.55-.04c-.09,0-.17.04-.26.04l-.55-.04c-.09,0-.17.04-.26.04l-.55-.04c-.09,0-.17.04-.26.04l-.55-.04c-.09,0-.17.04-.26.04l-.55-.04c-.09,0-.17.04-.26.04l-.55-.04c-.09,0-.17.04-.26.04l-.55-.04c-.09,0-.17.04-.26.04l-.55-.04c-.09,0-.17.04-.26.04l-.55-.04c-.09,0-.17.04-.26.04l-.55-.04c-.09,0-.17.04-.26.04l-.55-.04c-.09,0-.17.04-.26.04l-.55-.04c-.09,0-.17.04-.26.04l-.55-.04c-.09,0-.17.04-.26.04l-.55-.04c-.09,0-.17.04-.26.04l-.55-.04c-.09,0-.17.04-.26.04l-.55-.04c-.09,0-.17.04-.26.04l-.55-.04c-.09,0-.17.04-.26.04l-.55-.04c-.09,0-.17.04-.26.04l-.55-.04c-.09,0-.17.04-.26.04l-.55-.04c-.09,0-.17.04-.26.04l-.55-.04c-1.13-.08-2.23.33-3.03,1.11h.07Z"/>
      <path class="st4" d="M123.44,172.46c.08,1.2-.43,2.37-1.36,3.16-.94.78-2.2,1.09-3.4.82l-32.53-7.19-10.56,33.06c-.35,1.1-1.18,1.98-2.27,2.41-1.09.43-2.31.36-3.34-.19l-31.24-16.77-7.22,41.37c-.31,1.81-1.9,3.15-3.78,3.18l-44.15.8,62.51,25.49,9.22-30.08c.39-1.26,1.4-2.23,2.69-2.59,1.29-.36,2.67-.04,3.67.84l19.4,17.08,17.5-35.26c.47-.96,1.33-1.68,2.37-1.99,1.04-.31,2.16-.19,3.1.35l22.09,12.52c1.05.6,1.76,1.64,1.92,2.83l14.59,112.02,608.54-38.43,19.37-264.57L108.61,14.8l14.83,157.66Z"/>
      <path d="M100.52,10.93l14.78,156.91-30.95-6.84c-1.99-.44-3.99.69-4.59,2.59l-10.21,31.96-31.87-17.11c-1.11-.59-2.44-.63-3.58-.09-1.14.54-1.94,1.58-2.15,2.8l-7.6,43.55-59.56,1.08c-1.85.03-3.42,1.33-3.77,3.11-.05.24-.07.48-.07.71,0,1.52.93,2.93,2.41,3.53l83.73,34.15c1.02.42,2.18.39,3.18-.07,1-.46,1.75-1.32,2.07-2.36l8.69-28.36,18.67,16.45c.91.8,2.16,1.14,3.36.91,1.21-.23,2.23-1,2.77-2.09l17.94-36.14,16.78,9.51,14.88,114.23c.14,1.06.72,2.01,1.6,2.63s1.99.85,3.05.64l615.62-39.84c1.74-.34,3.02-1.79,3.12-3.53l19.77-271.29c.09-2.02-1.5-3.89-3.64-4.04L104.68,6.87c-1.13-.08-2.23.33-3.03,1.11-.8.78-1.2,1.88-1.14,2.96h0ZM751.19,295.9l-608.54,38.43-14.59-112.02c-.16-1.18-.87-2.23-1.92-2.83l-22.09-12.52c-.94-.53-2.07-.66-3.1-.35-1.04.31-1.9,1.03-2.37,1.99l-17.5,35.26-19.4-17.08c-1-.88-2.38-1.2-3.67-.84-1.29.36-2.31,1.33-2.69,2.59l-9.22,30.08-62.51-25.49,44.15-.8c1.88-.03,3.47-1.37,3.78-3.18l7.22-41.37,31.24,16.77c1.03.55,2.25.62,3.34.19s1.92-1.31,2.27-2.41l10.56-33.06,32.53,7.19c1.2.27,2.46-.04,3.4-.82.94-.78,1.44-1.96,1.36-3.16L108.61,14.8l661.96,16.52-19.37,264.57h-.01Z"/>
    </g>
  </g>
  <g class="st5">
    <g>
      <path d="M76.68,7.75c-.8.78-1.2,1.88-1.14,2.96l14.53,153.11-13.76-3.04c-.52-.12-1.04-.11-1.54-.02-.27,0-.54-.05-.81,0-.27,0-.54-.05-.81,0-.27,0-.54-.05-.81,0-.27,0-.54-.05-.81,0-.27,0-.55-.05-.81,0-.27,0-.54-.05-.81,0-.27,0-.54-.05-.81,0-.27,0-.54-.05-.81,0-.27,0-.54-.05-.81,0-.27,0-.54-.05-.81,0-.27,0-.54-.05-.81,0-.27,0-.54-.05-.81,0-.27,0-.54-.05-.81,0-.27,0-.54-.05-.81,0-.27,0-.54-.05-.81,0-.27,0-.55-.05-.81,0-.27,0-.55-.05-.81,0-.27,0-.54-.05-.81,0-.27,0-.55-.05-.81,0-.27,0-.54-.05-.81,0-1.73-.05-3.33.95-3.86,2.62l-7.73,24.2-17.4-9.34c-.69-.37-1.46-.44-2.23-.37-.27-.03-.53-.02-.81,0-.27-.03-.53-.02-.81,0-.27-.03-.53-.02-.81,0-.27-.03-.53-.02-.81,0-.27-.03-.53-.02-.81,0-.27-.03-.53-.02-.81,0-.27-.03-.53-.02-.81,0-.27-.03-.53-.02-.81,0-.27-.03-.53-.02-.81,0-.27-.03-.53-.02-.81,0-.28-.03-.53-.02-.81,0-.28-.03-.53-.02-.81,0-.27-.03-.53-.02-.81,0-.28-.03-.53-.02-.81,0-.27-.03-.53-.02-.81,0-.27-.03-.53-.02-.81,0-.28-.03-.53-.02-.81,0-.27-.03-.53-.02-.81,0-.27-.03-.53-.02-.81,0-.27-.03-.53-.02-.81,0-.73-.09-1.47-.04-2.16.29-1.14.54-1.94,1.58-2.15,2.8L-.62,224.49l-59.56,1.08c-1.85.03-3.42,1.33-3.77,3.11-.05.24-.07.48-.07.71,0,1.52.93,2.93,2.41,3.53l83.73,34.15c.63.26,1.29.29,1.95.21.27.03.53.03.81,0,.27.03.53.03.81,0,.27.03.53.03.81,0,.27.03.53.03.81,0,.27.03.53.03.81,0,.27.03.53.03.81,0,.27.03.53.03.81,0,.27.03.53.03.81,0,.27.03.53.03.81,0,.27.03.53.03.81,0,.28.03.53.03.81,0,.27.03.53.03.81,0,.27.03.53.03.81,0,.27.03.53.03.81,0,.27.03.53.03.81,0,.27.03.53.03.81,0,.27.03.53.03.81,0,.27.03.53.03.81,0,.27.03.53.03.81,0,.27.03.53.03.81,0,.69.06,1.39.01,2.03-.29,1-.46,1.75-1.32,2.07-2.36l5.09-16.61,5.33,4.7c.91.8,2.16,1.14,3.36.91.02,0,.04-.02.06-.03.25,0,.49.08.74.03.02,0,.04-.02.06-.03.25,0,.49.08.74.03.02,0,.04-.02.06-.03.25,0,.49.08.74.03.02,0,.04-.02.06-.03.25,0,.49.08.74.03.02,0,.04-.02.06-.03.25,0,.49.08.74.03.02,0,.04-.02.06-.03.25,0,.49.08.74.03.02,0,.04-.02.06-.03.25,0,.49.08.74.03.02,0,.04-.02.06-.03.25,0,.49.08.74.03.02,0,.04-.02.06-.03.25,0,.49.08.74.03.02,0,.04-.02.06-.03.25,0,.49.08.74.03.02,0,.04-.02.06-.03.25,0,.49.08.74.03.02,0,.04-.02.06-.03.25,0,.49.08.74.03.02,0,.04-.02.06-.03.25,0,.49.08.74.03.02,0,.04-.02.06-.03.25,0,.49.08.74.03.02,0,.04-.02.06-.03.25,0,.49.08.74.03.02,0,.04-.02.06-.03.25,0,.49.08.74.03.02,0,.04-.02.06-.03.25,0,.49.08.74.03.02,0,.04-.02.06-.03.25,0,.49.08.74.03.02,0,.04-.02.06-.03.25,0,.49.08.74.03.02,0,.04-.02.06-.03.25,0,.49.08.74.03.02,0,.04-.02.06-.03.25,0,.49.08.74.03,1.21-.23,2.23-1,2.77-2.09l14.22-28.64,3.55,2.01,14.88,114.23c.14,1.06.72,2.01,1.6,2.63s1.99.85,3.05.64h.02c.26,0,.52.05.79,0h.02c.26,0,.52.05.79,0h.02c.26,0,.52.05.79,0h.02c.26,0,.52.05.79,0h.02c.26,0,.52.05.79,0h.02c.26,0,.52.05.79,0h.02c.26,0,.53.05.79,0h.02c.26,0,.52.05.79,0h.02c.26,0,.52.05.79,0h.02c.26,0,.52.05.79,0h.02c.26,0,.52.05.79,0h.02c.26,0,.52.05.79,0h.02c.26,0,.52.05.79,0h.02c.26,0,.52.05.79,0h.02c.26,0,.52.05.79,0h.02c.26,0,.52.05.79,0h.02c.26,0,.52.05.79,0h.02c.26,0,.52.05.79,0h.02c.26,0,.53.05.79,0h.02c.26,0,.52.05.79,0h.02c.26,0,.53.05.79,0l615.62-39.84c1.74-.34,3.02-1.79,3.12-3.53l19.77-271.29c.09-2.02-1.5-3.89-3.64-4.04L96.65,6.64c-.09,0-.17.04-.26.04l-.55-.04c-.09,0-.17.04-.26.04l-.55-.04c-.09,0-.17.04-.26.04l-.55-.04c-.09,0-.17.04-.26.04l-.55-.04c-.09,0-.17.04-.26.04l-.55-.04c-.09,0-.17.04-.26.04l-.55-.04c-.09,0-.17.04-.26.04l-.55-.04c-.09,0-.17.04-.26.04l-.55-.04c-.09,0-.17.04-.26.04l-.55-.04c-.09,0-.17.04-.26.04l-.55-.04c-.09,0-.17.04-.26.04l-.55-.04c-.09,0-.17.04-.26.04l-.55-.04c-.09,0-.17.04-.26.04l-.55-.04c-.09,0-.17.04-.26.04l-.55-.04c-.09,0-.17.04-.26.04l-.55-.04c-.09,0-.17.04-.26.04l-.55-.04c-.09,0-.17.04-.26.04l-.55-.04c-.09,0-.17.04-.26.04l-.55-.04c-.09,0-.17.04-.26.04l-.55-.04c-.09,0-.17.04-.26.04l-.55-.04c-.09,0-.17.04-.26.04l-.55-.04c-1.13-.08-2.23.33-3.03,1.11h.07Z"/>
      <path class="st0" d="M115.41,172.23c.08,1.2-.43,2.37-1.36,3.16-.94.78-2.2,1.09-3.4.82l-32.53-7.19-10.56,33.06c-.35,1.1-1.18,1.98-2.27,2.41-1.09.43-2.31.36-3.34-.19l-31.24-16.77-7.22,41.37c-.31,1.81-1.9,3.15-3.78,3.18l-44.15.8,62.51,25.49,9.22-30.08c.39-1.26,1.4-2.23,2.69-2.59,1.29-.36,2.67-.04,3.67.84l19.4,17.08,17.5-35.26c.47-.96,1.33-1.68,2.37-1.99,1.04-.31,2.16-.19,3.1.35l22.09,12.52c1.05.6,1.76,1.64,1.92,2.83l14.59,112.02,608.54-38.43,19.37-264.57L100.58,14.58l14.83,157.66h0Z"/>
      <path d="M92.48,10.71l14.78,156.91-30.95-6.84c-1.99-.44-3.99.69-4.59,2.59l-10.21,31.96-31.87-17.11c-1.11-.59-2.44-.63-3.58-.09-1.14.54-1.94,1.58-2.15,2.8l-7.6,43.55-59.56,1.08c-1.85.03-3.42,1.33-3.77,3.11-.05.24-.07.48-.07.71,0,1.52.93,2.93,2.41,3.53l83.73,34.15c1.02.42,2.18.39,3.18-.07,1-.46,1.75-1.32,2.07-2.36l8.69-28.36,18.67,16.45c.91.8,2.16,1.14,3.36.91,1.21-.23,2.23-1,2.77-2.09l17.94-36.14,16.78,9.51,14.88,114.23c.14,1.06.72,2.01,1.6,2.63s1.99.85,3.05.64l615.62-39.84c1.74-.34,3.02-1.79,3.12-3.53l19.77-271.29c.09-2.02-1.5-3.89-3.64-4.04L96.65,6.64c-1.13-.08-2.23.33-3.03,1.11-.8.78-1.2,1.88-1.14,2.96ZM743.16,295.67l-608.54,38.43-14.59-112.02c-.16-1.18-.87-2.23-1.92-2.83l-22.09-12.52c-.94-.53-2.07-.66-3.1-.35-1.04.31-1.9,1.03-2.37,1.99l-17.5,35.26-19.4-17.08c-1-.88-2.38-1.2-3.67-.84-1.29.36-2.31,1.33-2.69,2.59l-9.22,30.08-62.51-25.49,44.15-.8c1.88-.03,3.47-1.37,3.78-3.18l7.22-41.37,31.24,16.77c1.03.55,2.25.62,3.34.19s1.92-1.31,2.27-2.41l10.56-33.06,32.53,7.19c1.2.27,2.46-.04,3.4-.82.94-.78,1.44-1.96,1.36-3.16L100.58,14.58l661.96,16.52-19.37,264.57h-.01Z"/>
    </g>
  </g>
  <g class="st5">
    <g>
      <path d="M76.68,8.55c-.8.78-1.2,1.88-1.14,2.96l14.53,153.11-13.76-3.04c-.52-.12-1.04-.11-1.54-.02-.27,0-.54-.05-.81,0-.27,0-.54-.05-.81,0-.27,0-.54-.05-.81,0-.27,0-.54-.05-.81,0-.27,0-.55-.05-.81,0-.27,0-.54-.05-.81,0-.27,0-.54-.05-.81,0-.27,0-.54-.05-.81,0-.27,0-.54-.05-.81,0-.27,0-.54-.05-.81,0-.27,0-.54-.05-.81,0-.27,0-.54-.05-.81,0-.27,0-.54-.05-.81,0-.27,0-.54-.05-.81,0-.27,0-.54-.05-.81,0-.27,0-.55-.05-.81,0-.27,0-.55-.05-.81,0-.27,0-.54-.05-.81,0-.27,0-.55-.05-.81,0-.27,0-.54-.05-.81,0-1.73-.05-3.33.95-3.86,2.62l-7.73,24.2-17.4-9.34c-.69-.37-1.46-.44-2.23-.37-.27-.03-.53-.02-.81,0-.27-.03-.53-.02-.81,0-.27-.03-.53-.02-.81,0-.27-.03-.53-.02-.81,0-.27-.03-.53-.02-.81,0-.27-.03-.53-.02-.81,0-.27-.03-.53-.02-.81,0-.27-.03-.53-.02-.81,0-.27-.03-.53-.02-.81,0-.27-.03-.53-.02-.81,0-.28-.03-.53-.02-.81,0-.28-.03-.53-.02-.81,0-.27-.03-.53-.02-.81,0-.28-.03-.53-.02-.81,0-.27-.03-.53-.02-.81,0-.27-.03-.53-.02-.81,0-.28-.03-.53-.02-.81,0-.27-.03-.53-.02-.81,0-.27-.03-.53-.02-.81,0-.27-.03-.53-.02-.81,0-.73-.09-1.47-.04-2.16.29-1.14.54-1.94,1.58-2.15,2.8L-.62,225.29l-59.56,1.08c-1.85.03-3.42,1.33-3.77,3.11-.05.24-.07.48-.07.71,0,1.52.93,2.93,2.41,3.53l83.73,34.15c.63.26,1.29.29,1.95.21.27.03.53.03.81,0,.27.03.53.03.81,0,.27.03.53.03.81,0,.27.03.53.03.81,0,.27.03.53.03.81,0,.27.03.53.03.81,0,.27.03.53.03.81,0,.27.03.53.03.81,0,.27.03.53.03.81,0,.27.03.53.03.81,0,.28.03.53.03.81,0,.27.03.53.03.81,0,.27.03.53.03.81,0,.27.03.53.03.81,0,.27.03.53.03.81,0,.27.03.53.03.81,0,.27.03.53.03.81,0,.27.03.53.03.81,0,.27.03.53.03.81,0,.27.03.53.03.81,0,.69.06,1.39.01,2.03-.29,1-.46,1.75-1.32,2.07-2.36l5.09-16.61,5.33,4.7c.91.8,2.16,1.14,3.36.91.02,0,.04-.02.06-.03.25,0,.49.08.74.03.02,0,.04-.02.06-.03.25,0,.49.08.74.03.02,0,.04-.02.06-.03.25,0,.49.08.74.03.02,0,.04-.02.06-.03.25,0,.49.08.74.03.02,0,.04-.02.06-.03.25,0,.49.08.74.03.02,0,.04-.02.06-.03.25,0,.49.08.74.03.02,0,.04-.02.06-.03.25,0,.49.08.74.03.02,0,.04-.02.06-.03.25,0,.49.08.74.03.02,0,.04-.02.06-.03.25,0,.49.08.74.03.02,0,.04-.02.06-.03.25,0,.49.08.74.03.02,0,.04-.02.06-.03.25,0,.49.08.74.03.02,0,.04-.02.06-.03.25,0,.49.08.74.03.02,0,.04-.02.06-.03.25,0,.49.08.74.03.02,0,.04-.02.06-.03.25,0,.49.08.74.03.02,0,.04-.02.06-.03.25,0,.49.08.74.03.02,0,.04-.02.06-.03.25,0,.49.08.74.03.02,0,.04-.02.06-.03.25,0,.49.08.74.03.02,0,.04-.02.06-.03.25,0,.49.08.74.03.02,0,.04-.02.06-.03.25,0,.49.08.74.03.02,0,.04-.02.06-.03.25,0,.49.08.74.03.02,0,.04-.02.06-.03.25,0,.49.08.74.03,1.21-.23,2.23-1,2.77-2.09l14.22-28.64,3.55,2.01,14.88,114.23c.14,1.06.72,2.01,1.6,2.63s1.99.85,3.05.64h.02c.26,0,.52.05.79,0h.02c.26,0,.52.05.79,0h.02c.26,0,.52.05.79,0h.02c.26,0,.52.05.79,0h.02c.26,0,.52.05.79,0h.02c.26,0,.52.05.79,0h.02c.26,0,.53.05.79,0h.02c.26,0,.52.05.79,0h.02c.26,0,.52.05.79,0h.02c.26,0,.52.05.79,0h.02c.26,0,.52.05.79,0h.02c.26,0,.52.05.79,0h.02c.26,0,.52.05.79,0h.02c.26,0,.52.05.79,0h.02c.26,0,.52.05.79,0h.02c.26,0,.52.05.79,0h.02c.26,0,.52.05.79,0h.02c.26,0,.52.05.79,0h.02c.26,0,.53.05.79,0h.02c.26,0,.52.05.79,0h.02c.26,0,.53.05.79,0l615.62-39.84c1.74-.34,3.02-1.79,3.12-3.53l19.77-271.29c.09-2.02-1.5-3.89-3.64-4.04L96.65,7.45c-.09,0-.17.04-.26.04l-.55-.04c-.09,0-.17.04-.26.04l-.55-.04c-.09,0-.17.04-.26.04l-.55-.04c-.09,0-.17.04-.26.04l-.55-.04c-.09,0-.17.04-.26.04l-.55-.04c-.09,0-.17.04-.26.04l-.55-.04c-.09,0-.17.04-.26.04l-.55-.04c-.09,0-.17.04-.26.04l-.55-.04c-.09,0-.17.04-.26.04l-.55-.04c-.09,0-.17.04-.26.04l-.55-.04c-.09,0-.17.04-.26.04l-.55-.04c-.09,0-.17.04-.26.04l-.55-.04c-.09,0-.17.04-.26.04l-.55-.04c-.09,0-.17.04-.26.04l-.55-.04c-.09,0-.17.04-.26.04l-.55-.04c-.09,0-.17.04-.26.04l-.55-.04c-.09,0-.17.04-.26.04l-.55-.04c-.09,0-.17.04-.26.04l-.55-.04c-.09,0-.17.04-.26.04l-.55-.04c-.09,0-.17.04-.26.04l-.55-.04c-.09,0-.17.04-.26.04l-.55-.04c-1.13-.08-2.23.33-3.03,1.11h.07Z"/>
      <path class="st1" d="M115.41,173.04c.08,1.2-.43,2.37-1.36,3.16-.94.78-2.2,1.09-3.4.82l-32.53-7.19-10.56,33.06c-.35,1.1-1.18,1.98-2.27,2.41-1.09.43-2.31.36-3.34-.19l-31.24-16.77-7.22,41.37c-.31,1.81-1.9,3.15-3.78,3.18l-44.15.8,62.51,25.49,9.22-30.08c.39-1.26,1.4-2.23,2.69-2.59,1.29-.36,2.67-.04,3.67.84l19.4,17.08,17.5-35.26c.47-.96,1.33-1.68,2.37-1.99,1.04-.31,2.16-.19,3.1.35l22.09,12.52c1.05.6,1.76,1.64,1.92,2.83l14.59,112.02,608.54-38.43,19.37-264.57L100.58,15.38l14.83,157.66h0Z"/>
      <path d="M92.48,11.51l14.78,156.91-30.95-6.84c-1.99-.44-3.99.69-4.59,2.59l-10.21,31.96-31.87-17.11c-1.11-.59-2.44-.63-3.58-.09-1.14.54-1.94,1.58-2.15,2.8l-7.6,43.55-59.56,1.08c-1.85.03-3.42,1.33-3.77,3.11-.05.24-.07.48-.07.71,0,1.52.93,2.93,2.41,3.53l83.73,34.15c1.02.42,2.18.39,3.18-.07,1-.46,1.75-1.32,2.07-2.36l8.69-28.36,18.67,16.45c.91.8,2.16,1.14,3.36.91,1.21-.23,2.23-1,2.77-2.09l17.94-36.14,16.78,9.51,14.88,114.23c.14,1.06.72,2.01,1.6,2.63s1.99.85,3.05.64l615.62-39.84c1.74-.34,3.02-1.79,3.12-3.53l19.77-271.29c.09-2.02-1.5-3.89-3.64-4.04L96.65,7.45c-1.13-.08-2.23.33-3.03,1.11-.8.78-1.2,1.88-1.14,2.96h0ZM743.16,296.48l-608.54,38.43-14.59-112.02c-.16-1.18-.87-2.23-1.92-2.83l-22.09-12.52c-.94-.53-2.07-.66-3.1-.35-1.04.31-1.9,1.03-2.37,1.99l-17.5,35.26-19.4-17.08c-1-.88-2.38-1.2-3.67-.84-1.29.36-2.31,1.33-2.69,2.59l-9.22,30.08-62.51-25.49,44.15-.8c1.88-.03,3.47-1.37,3.78-3.18l7.22-41.37,31.24,16.77c1.03.55,2.25.62,3.34.19s1.92-1.31,2.27-2.41l10.56-33.06,32.53,7.19c1.2.27,2.46-.04,3.4-.82.94-.78,1.44-1.96,1.36-3.16L100.58,15.38l661.96,16.52-19.37,264.57h-.01Z"/>
    </g>
  </g>
  <g class="st5">
    <path d="M76.68,8.55c-.8.78-1.2,1.88-1.14,2.96l14.53,153.11-13.76-3.04c-.52-.12-1.04-.11-1.54-.02-.27,0-.54-.05-.81,0-.27,0-.54-.05-.81,0-.27,0-.54-.05-.81,0-.27,0-.54-.05-.81,0-.27,0-.55-.05-.81,0-.27,0-.54-.05-.81,0-.27,0-.54-.05-.81,0-.27,0-.54-.05-.81,0-.27,0-.54-.05-.81,0-.27,0-.54-.05-.81,0-.27,0-.54-.05-.81,0-.27,0-.54-.05-.81,0-.27,0-.54-.05-.81,0-.27,0-.54-.05-.81,0-.27,0-.54-.05-.81,0-.27,0-.55-.05-.81,0-.27,0-.55-.05-.81,0-.27,0-.54-.05-.81,0-.27,0-.55-.05-.81,0-.27,0-.54-.05-.81,0-1.73-.05-3.33.95-3.86,2.62l-7.73,24.2-17.4-9.34c-.69-.37-1.46-.44-2.23-.37-.27-.03-.53-.02-.81,0-.27-.03-.53-.02-.81,0-.27-.03-.53-.02-.81,0-.27-.03-.53-.02-.81,0-.27-.03-.53-.02-.81,0-.27-.03-.53-.02-.81,0-.27-.03-.53-.02-.81,0-.27-.03-.53-.02-.81,0-.27-.03-.53-.02-.81,0-.27-.03-.53-.02-.81,0-.28-.03-.53-.02-.81,0-.28-.03-.53-.02-.81,0-.27-.03-.53-.02-.81,0-.28-.03-.53-.02-.81,0-.27-.03-.53-.02-.81,0-.27-.03-.53-.02-.81,0-.28-.03-.53-.02-.81,0-.27-.03-.53-.02-.81,0-.27-.03-.53-.02-.81,0-.27-.03-.53-.02-.81,0-.73-.09-1.47-.04-2.16.29-1.14.54-1.94,1.58-2.15,2.8L-.62,225.29l-59.56,1.08c-1.85.03-3.42,1.33-3.77,3.11-.05.24-.07.48-.07.71,0,1.52.93,2.93,2.41,3.53l83.73,34.15c.63.26,1.29.29,1.95.21.27.03.53.03.81,0,.27.03.53.03.81,0,.27.03.53.03.81,0,.27.03.53.03.81,0,.27.03.53.03.81,0,.27.03.53.03.81,0,.27.03.53.03.81,0,.27.03.53.03.81,0,.27.03.53.03.81,0,.27.03.53.03.81,0,.28.03.53.03.81,0,.27.03.53.03.81,0,.27.03.53.03.81,0,.27.03.53.03.81,0,.27.03.53.03.81,0,.27.03.53.03.81,0,.27.03.53.03.81,0,.27.03.53.03.81,0,.27.03.53.03.81,0,.27.03.53.03.81,0,.69.06,1.39.01,2.03-.29,1-.46,1.75-1.32,2.07-2.36l5.09-16.61,5.33,4.7c.91.8,2.16,1.14,3.36.91.02,0,.04-.02.06-.03.25,0,.49.08.74.03.02,0,.04-.02.06-.03.25,0,.49.08.74.03.02,0,.04-.02.06-.03.25,0,.49.08.74.03.02,0,.04-.02.06-.03.25,0,.49.08.74.03.02,0,.04-.02.06-.03.25,0,.49.08.74.03.02,0,.04-.02.06-.03.25,0,.49.08.74.03.02,0,.04-.02.06-.03.25,0,.49.08.74.03.02,0,.04-.02.06-.03.25,0,.49.08.74.03.02,0,.04-.02.06-.03.25,0,.49.08.74.03.02,0,.04-.02.06-.03.25,0,.49.08.74.03.02,0,.04-.02.06-.03.25,0,.49.08.74.03.02,0,.04-.02.06-.03.25,0,.49.08.74.03.02,0,.04-.02.06-.03.25,0,.49.08.74.03.02,0,.04-.02.06-.03.25,0,.49.08.74.03.02,0,.04-.02.06-.03.25,0,.49.08.74.03.02,0,.04-.02.06-.03.25,0,.49.08.74.03.02,0,.04-.02.06-.03.25,0,.49.08.74.03.02,0,.04-.02.06-.03.25,0,.49.08.74.03.02,0,.04-.02.06-.03.25,0,.49.08.74.03.02,0,.04-.02.06-.03.25,0,.49.08.74.03.02,0,.04-.02.06-.03.25,0,.49.08.74.03,1.21-.23,2.23-1,2.77-2.09l14.22-28.64,3.55,2.01,14.88,114.23c.14,1.06.72,2.01,1.6,2.63s1.99.85,3.05.64h.02c.26,0,.52.05.79,0h.02c.26,0,.52.05.79,0h.02c.26,0,.52.05.79,0h.02c.26,0,.52.05.79,0h.02c.26,0,.52.05.79,0h.02c.26,0,.52.05.79,0h.02c.26,0,.53.05.79,0h.02c.26,0,.52.05.79,0h.02c.26,0,.52.05.79,0h.02c.26,0,.52.05.79,0h.02c.26,0,.52.05.79,0h.02c.26,0,.52.05.79,0h.02c.26,0,.52.05.79,0h.02c.26,0,.52.05.79,0h.02c.26,0,.52.05.79,0h.02c.26,0,.52.05.79,0h.02c.26,0,.52.05.79,0h.02c.26,0,.52.05.79,0h.02c.26,0,.53.05.79,0h.02c.26,0,.52.05.79,0h.02c.26,0,.53.05.79,0l615.62-39.84c1.74-.34,3.02-1.79,3.12-3.53l19.77-271.29c.09-2.02-1.5-3.89-3.64-4.04L96.65,7.45c-.09,0-.17.04-.26.04l-.55-.04c-.09,0-.17.04-.26.04l-.55-.04c-.09,0-.17.04-.26.04l-.55-.04c-.09,0-.17.04-.26.04l-.55-.04c-.09,0-.17.04-.26.04l-.55-.04c-.09,0-.17.04-.26.04l-.55-.04c-.09,0-.17.04-.26.04l-.55-.04c-.09,0-.17.04-.26.04l-.55-.04c-.09,0-.17.04-.26.04l-.55-.04c-.09,0-.17.04-.26.04l-.55-.04c-.09,0-.17.04-.26.04l-.55-.04c-.09,0-.17.04-.26.04l-.55-.04c-.09,0-.17.04-.26.04l-.55-.04c-.09,0-.17.04-.26.04l-.55-.04c-.09,0-.17.04-.26.04l-.55-.04c-.09,0-.17.04-.26.04l-.55-.04c-.09,0-.17.04-.26.04l-.55-.04c-.09,0-.17.04-.26.04l-.55-.04c-.09,0-.17.04-.26.04l-.55-.04c-.09,0-.17.04-.26.04l-.55-.04c-.09,0-.17.04-.26.04l-.55-.04c-1.13-.08-2.23.33-3.03,1.11h.07Z"/>
    <path class="st3" d="M115.41,173.04c.08,1.2-.43,2.37-1.36,3.16-.94.78-2.2,1.09-3.4.82l-32.53-7.19-10.56,33.06c-.35,1.1-1.18,1.98-2.27,2.41-1.09.43-2.31.36-3.34-.19l-31.24-16.77-7.22,41.37c-.31,1.81-1.9,3.15-3.78,3.18l-44.15.8,62.51,25.49,9.22-30.08c.39-1.26,1.4-2.23,2.69-2.59,1.29-.36,2.67-.04,3.67.84l19.4,17.08,17.5-35.26c.47-.96,1.33-1.68,2.37-1.99,1.04-.31,2.16-.19,3.1.35l22.09,12.52c1.05.6,1.76,1.64,1.92,2.83l14.59,112.02,608.54-38.43,19.37-264.57L100.58,15.38l14.83,157.66h0Z"/>
    <path d="M92.48,11.51l14.78,156.91-30.95-6.84c-1.99-.44-3.99.69-4.59,2.59l-10.21,31.96-31.87-17.11c-1.11-.59-2.44-.63-3.58-.09-1.14.54-1.94,1.58-2.15,2.8l-7.6,43.55-59.56,1.08c-1.85.03-3.42,1.33-3.77,3.11-.05.24-.07.48-.07.71,0,1.52.93,2.93,2.41,3.53l83.73,34.15c1.02.42,2.18.39,3.18-.07,1-.46,1.75-1.32,2.07-2.36l8.69-28.36,18.67,16.45c.91.8,2.16,1.14,3.36.91,1.21-.23,2.23-1,2.77-2.09l17.94-36.14,16.78,9.51,14.88,114.23c.14,1.06.72,2.01,1.6,2.63s1.99.85,3.05.64l615.62-39.84c1.74-.34,3.02-1.79,3.12-3.53l19.77-271.29c.09-2.02-1.5-3.89-3.64-4.04L96.65,7.45c-1.13-.08-2.23.33-3.03,1.11-.8.78-1.2,1.88-1.14,2.96h0ZM743.16,296.48l-608.54,38.43-14.59-112.02c-.16-1.18-.87-2.23-1.92-2.83l-22.09-12.52c-.94-.53-2.07-.66-3.1-.35-1.04.31-1.9,1.03-2.37,1.99l-17.5,35.26-19.4-17.08c-1-.88-2.38-1.2-3.67-.84-1.29.36-2.31,1.33-2.69,2.59l-9.22,30.08-62.51-25.49,44.15-.8c1.88-.03,3.47-1.37,3.78-3.18l7.22-41.37,31.24,16.77c1.03.55,2.25.62,3.34.19s1.92-1.31,2.27-2.41l10.56-33.06,32.53,7.19c1.2.27,2.46-.04,3.4-.82.94-.78,1.44-1.96,1.36-3.16L100.58,15.38l661.96,16.52-19.37,264.57h-.01Z"/>
  </g>
  <g>
    <g>
      <path d="M76.67,13.65c-.8.78-1.2,1.88-1.14,2.96l14.53,153.11-13.76-3.04c-.52-.12-1.04-.11-1.54-.02-.27,0-.54-.05-.81,0-.27,0-.54-.05-.81,0-.27,0-.54-.05-.81,0-.27,0-.54-.05-.81,0-.27,0-.55-.05-.81,0-.27,0-.54-.05-.81,0-.27,0-.54-.05-.81,0-.27,0-.54-.05-.81,0-.27,0-.54-.05-.81,0-.27,0-.54-.05-.81,0-.27,0-.54-.05-.81,0-.27,0-.54-.05-.81,0-.27,0-.54-.05-.81,0-.27,0-.54-.05-.81,0-.27,0-.54-.05-.81,0-.27,0-.55-.05-.81,0-.27,0-.55-.05-.81,0-.27,0-.54-.05-.81,0-.27,0-.55-.05-.81,0-.27,0-.54-.05-.81,0-1.73-.05-3.33.95-3.86,2.62l-7.73,24.2-17.4-9.34c-.69-.37-1.46-.44-2.23-.37-.27-.03-.53-.02-.81,0-.27-.03-.53-.02-.81,0-.27-.03-.53-.02-.81,0-.27-.03-.53-.02-.81,0-.27-.03-.53-.02-.81,0-.27-.03-.53-.02-.81,0-.27-.03-.53-.02-.81,0-.27-.03-.53-.02-.81,0-.27-.03-.53-.02-.81,0-.27-.03-.53-.02-.81,0-.28-.03-.53-.02-.81,0-.28-.03-.53-.02-.81,0-.27-.03-.53-.02-.81,0-.28-.03-.53-.02-.81,0-.27-.03-.53-.02-.81,0-.27-.03-.53-.02-.81,0-.28-.03-.53-.02-.81,0-.27-.03-.53-.02-.81,0-.27-.03-.53-.02-.81,0-.27-.03-.53-.02-.81,0-.73-.09-1.47-.04-2.16.29-1.14.54-1.94,1.58-2.15,2.8L-.63,230.39l-59.56,1.08c-1.85.03-3.42,1.33-3.77,3.11-.05.24-.07.48-.07.71,0,1.52.93,2.93,2.41,3.53l83.73,34.15c.63.26,1.29.29,1.95.21.27.03.53.03.81,0,.27.03.53.03.81,0,.27.03.53.03.81,0,.27.03.53.03.81,0,.27.03.53.03.81,0,.27.03.53.03.81,0,.27.03.53.03.81,0,.27.03.53.03.81,0,.27.03.53.03.81,0,.27.03.53.03.81,0,.28.03.53.03.81,0,.27.03.53.03.81,0,.27.03.53.03.81,0,.27.03.53.03.81,0,.27.03.53.03.81,0,.27.03.53.03.81,0,.27.03.53.03.81,0,.27.03.53.03.81,0,.27.03.53.03.81,0,.27.03.53.03.81,0,.69.06,1.39.01,2.03-.29,1-.46,1.75-1.32,2.07-2.36l5.09-16.61,5.33,4.7c.91.8,2.16,1.14,3.36.91.02,0,.04-.02.06-.03.25,0,.49.08.74.03.02,0,.04-.02.06-.03.25,0,.49.08.74.03.02,0,.04-.02.06-.03.25,0,.49.08.74.03.02,0,.04-.02.06-.03.25,0,.49.08.74.03.02,0,.04-.02.06-.03.25,0,.49.08.74.03.02,0,.04-.02.06-.03.25,0,.49.08.74.03.02,0,.04-.02.06-.03.25,0,.49.08.74.03.02,0,.04-.02.06-.03.25,0,.49.08.74.03.02,0,.04-.02.06-.03.25,0,.49.08.74.03.02,0,.04-.02.06-.03.25,0,.49.08.74.03.02,0,.04-.02.06-.03.25,0,.49.08.74.03.02,0,.04-.02.06-.03.25,0,.49.08.74.03.02,0,.04-.02.06-.03.25,0,.49.08.74.03.02,0,.04-.02.06-.03.25,0,.49.08.74.03.02,0,.04-.02.06-.03.25,0,.49.08.74.03.02,0,.04-.02.06-.03.25,0,.49.08.74.03.02,0,.04-.02.06-.03.25,0,.49.08.74.03.02,0,.04-.02.06-.03.25,0,.49.08.74.03.02,0,.04-.02.06-.03.25,0,.49.08.74.03.02,0,.04-.02.06-.03.25,0,.49.08.74.03.02,0,.04-.02.06-.03.25,0,.49.08.74.03,1.21-.23,2.23-1,2.77-2.09l14.22-28.64,3.55,2.01,14.88,104.23c.14,1.06.72,2.01,1.6,2.63s1.99.85,3.05.64h.02c.26,0,.52.05.79,0h.02c.26,0,.52.05.79,0h.02c.26,0,.52.05.79,0h.02c.26,0,.52.05.79,0h.02c.26,0,.52.05.79,0h.02c.26,0,.52.05.79,0h.02c.26,0,.53.05.79,0h.02c.26,0,.52.05.79,0h.02c.26,0,.52.05.79,0h.02c.26,0,.52.05.79,0h.02c.26,0,.52.05.79,0h.02c.26,0,.52.05.79,0h.02c.26,0,.52.05.79,0h.02c.26,0,.52.05.79,0h.02c.26,0,.52.05.79,0h.02c.26,0,.52.05.79,0h.02c.26,0,.52.05.79,0h.02c.26,0,.52.05.79,0h.02c.26,0,.53.05.79,0h.02c.26,0,.52.05.79,0h.02c.26,0,.53.05.79,0l615.62-39.84c1.74-.34,3.02-1.79,3.12-3.53l19.77-261.29c.09-2.02-1.5-3.89-3.64-4.04L96.64,12.54c-.09,0-.17.04-.26.04l-.55-.04c-.09,0-.17.04-.26.04l-.55-.04c-.09,0-.17.04-.26.04l-.55-.04c-.09,0-.17.04-.26.04l-.55-.04c-.09,0-.17.04-.26.04l-.55-.04c-.09,0-.17.04-.26.04l-.55-.04c-.09,0-.17.04-.26.04l-.55-.04c-.09,0-.17.04-.26.04l-.55-.04c-.09,0-.17.04-.26.04l-.55-.04c-.09,0-.17.04-.26.04l-.55-.04c-.09,0-.17.04-.26.04l-.55-.04c-.09,0-.17.04-.26.04l-.55-.04c-.09,0-.17.04-.26.04l-.55-.04c-.09,0-.17.04-.26.04l-.55-.04c-.09,0-.17.04-.26.04l-.55-.04c-.09,0-.17.04-.26.04l-.55-.04c-.09,0-.17.04-.26.04l-.55-.04c-.09,0-.17.04-.26.04l-.55-.04c-.09,0-.17.04-.26.04l-.55-.04c-.09,0-.17.04-.26.04l-.55-.04c-.09,0-.17.04-.26.04l-.55-.04c-1.13-.08-2.23.33-3.03,1.11h.07Z"/>
      <path class="st3" d="M115.4,178.13c.08,1.2-.43,2.37-1.36,3.16-.94.78-2.2,1.09-3.4.82l-32.53-7.19-10.56,33.06c-.35,1.1-1.18,1.98-2.27,2.41-1.09.43-2.31.36-3.34-.19l-31.24-16.77-7.22,41.37c-.31,1.81-1.9,3.15-3.78,3.18l-44.15.8,62.51,25.49,9.22-30.08c.39-1.26,1.4-2.23,2.69-2.59,1.29-.36,2.67-.04,3.67.84l19.4,17.08,17.5-35.26c.47-.96,1.33-1.68,2.37-1.99,1.04-.31,2.16-.19,3.1.35l22.09,12.52c1.05.6,1.76,1.64,1.92,2.83l14.59,102.02,608.54-38.43,19.37-254.57L100.56,20.48l14.83,157.66h.01Z"/>
      <path d="M92.47,16.61l14.78,156.91-30.95-6.84c-1.99-.44-3.99.69-4.59,2.59l-10.21,31.96-31.87-17.11c-1.11-.59-2.44-.63-3.58-.09-1.14.54-1.94,1.58-2.15,2.8l-7.6,43.55-59.56,1.08c-1.85.03-3.42,1.33-3.77,3.11-.05.24-.07.48-.07.71,0,1.52.93,2.93,2.41,3.53l83.73,34.15c1.02.42,2.18.39,3.18-.07,1-.46,1.75-1.32,2.07-2.36l8.69-28.36,18.67,16.45c.91.8,2.16,1.14,3.36.91,1.21-.23,2.23-1,2.77-2.09l17.94-36.14,16.78,9.51,14.88,104.23c.14,1.06.72,2.01,1.6,2.63s1.99.85,3.05.64l615.62-39.84c1.74-.34,3.02-1.79,3.12-3.53l19.77-261.29c.09-2.02-1.5-3.89-3.64-4.04L96.64,12.54c-1.13-.08-2.23.33-3.03,1.11-.8.78-1.2,1.88-1.14,2.96ZM743.15,291.57l-608.54,38.43-14.59-102.02c-.16-1.18-.87-2.23-1.92-2.83l-22.09-12.52c-.94-.53-2.07-.66-3.1-.35-1.04.31-1.9,1.03-2.37,1.99l-17.5,35.26-19.4-17.08c-1-.88-2.38-1.2-3.67-.84-1.29.36-2.31,1.33-2.69,2.59l-9.22,30.08-62.51-25.49,44.15-.8c1.88-.03,3.47-1.37,3.78-3.18l7.22-41.37,31.24,16.77c1.03.55,2.25.62,3.34.19s1.92-1.31,2.27-2.41l10.56-33.06,32.53,7.19c1.2.27,2.46-.04,3.4-.82.94-.78,1.44-1.96,1.36-3.16l-14.83-157.66,661.96,16.52-19.37,254.57h-.01Z"/>
    </g>
    <g class="st2">
      <g class="st2">
        <path d="M146.7,61.9c.27,0,.51.1.71.3.2.2.31.43.31.7v24.45c0,.27-.1.5-.31.7s-.44.3-.71.3h-5.09c-.27,0-.51-.1-.71-.3s-.31-.43-.31-.7v-8.48h-7.63v8.48c0,.27-.1.5-.31.7s-.44.3-.71.3h-5.09c-.27,0-.51-.1-.71-.3s-.31-.43-.31-.7v-24.45c0-.27.1-.5.31-.7.2-.2.44-.3.71-.3h5.09c.27,0,.51.1.71.3.2.2.31.43.31.7v8.98h7.63v-8.98c0-.27.1-.5.31-.7.2-.2.44-.3.71-.3h5.09Z"/>
        <path d="M157.9,61.9c.27,0,.51.1.71.3.2.2.31.43.31.7v3.49c0,.27-.1.5-.31.7s-.44.3-.71.3h-5.09c-.27,0-.51-.1-.71-.3s-.31-.43-.31-.7v-3.49c0-.27.1-.5.31-.7.2-.2.44-.3.71-.3h5.09ZM157.9,69.88c.27,0,.51.1.71.3s.31.43.31.7v16.47c0,.27-.1.5-.31.7s-.44.3-.71.3h-5.09c-.27,0-.51-.1-.71-.3s-.31-.43-.31-.7v-16.47c0-.27.1-.5.31-.7s.44-.3.71-.3h5.09Z"/>
        <path d="M178.15,76.27c-1.19-.5-2.43-.93-3.72-1.3-1.29-.37-2.48-.55-3.56-.55-.54,0-.98.06-1.3.17-.32.12-.48.31-.48.57,0,.33.29.6.87.8.58.2,1.3.39,2.16.57.87.18,1.81.41,2.83.67,1.02.27,1.96.62,2.82,1.07.87.45,1.59,1.04,2.16,1.77.58.73.87,1.66.87,2.79,0,1-.23,1.85-.69,2.54-.46.7-1.08,1.26-1.86,1.7-.78.43-1.7.75-2.75.95s-2.17.3-3.36.3c-1.73,0-3.5-.18-5.29-.55-1.8-.37-3.43-.85-4.89-1.45l1.83-4.34c.54.23,1.14.46,1.78.67.64.22,1.31.42,2.01.6.7.18,1.37.32,2.04.42.66.1,1.26.15,1.81.15.61,0,1.14-.07,1.58-.22.44-.15.66-.41.66-.77,0-.27-.29-.49-.87-.67-.58-.18-1.3-.37-2.16-.57-.87-.2-1.81-.44-2.83-.72-1.02-.28-1.96-.67-2.82-1.15-.87-.48-1.59-1.08-2.16-1.8-.58-.71-.87-1.62-.87-2.72,0-1.03.21-1.89.64-2.57.42-.68,1.01-1.23,1.76-1.65.75-.42,1.62-.71,2.62-.87,1-.17,2.06-.25,3.18-.25,1.73,0,3.38.16,4.96.47,1.58.32,2.96.66,4.15,1.02l-1.12,4.89Z"/>
        <path d="M221.01,88.35c-.27,0-.5-.1-.69-.3-.19-.2-.3-.43-.33-.7l-2.44-18.46-4.02,18.46c-.07.27-.19.5-.36.7-.17.2-.39.3-.66.3h-8.5c-.27,0-.49-.1-.66-.3-.17-.2-.29-.43-.36-.7l-3.97-18.46-2.44,18.46c-.03.27-.15.5-.33.7-.19.2-.42.3-.69.3h-6.31l3.41-25.45c.03-.27.14-.5.33-.7.19-.2.42-.3.69-.3h9.87c.27,0,.49.1.66.3.17.2.29.43.36.7l3.72,17.37,3.72-17.37c.07-.27.19-.5.36-.7.17-.2.39-.3.66-.3h9.87c.27,0,.5.1.69.3.19.2.3.43.33.7l3.41,25.45h-6.31Z"/>
        <path d="M236.99,61.9c.27,0,.51.1.71.3.2.2.31.43.31.7v3.49c0,.27-.1.5-.31.7s-.44.3-.71.3h-5.09c-.27,0-.51-.1-.71-.3s-.31-.43-.31-.7v-3.49c0-.27.1-.5.31-.7.2-.2.44-.3.71-.3h5.09ZM236.99,69.88c.27,0,.51.1.71.3s.31.43.31.7v16.47c0,.27-.1.5-.31.7s-.44.3-.71.3h-5.09c-.27,0-.51-.1-.71-.3s-.31-.43-.31-.7v-16.47c0-.27.1-.5.31-.7s.44-.3.71-.3h5.09Z"/>
        <path d="M257.25,76.27c-1.19-.5-2.43-.93-3.72-1.3-1.29-.37-2.48-.55-3.56-.55-.54,0-.98.06-1.3.17-.32.12-.48.31-.48.57,0,.33.29.6.87.8.58.2,1.3.39,2.16.57.87.18,1.81.41,2.83.67,1.02.27,1.96.62,2.82,1.07.87.45,1.59,1.04,2.16,1.77.58.73.87,1.66.87,2.79,0,1-.23,1.85-.69,2.54-.46.7-1.08,1.26-1.86,1.7-.78.43-1.7.75-2.75.95s-2.17.3-3.36.3c-1.73,0-3.5-.18-5.29-.55-1.8-.37-3.43-.85-4.89-1.45l1.83-4.34c.54.23,1.14.46,1.78.67.64.22,1.31.42,2.01.6.7.18,1.37.32,2.04.42.66.1,1.26.15,1.81.15.61,0,1.14-.07,1.58-.22.44-.15.66-.41.66-.77,0-.27-.29-.49-.87-.67-.58-.18-1.3-.37-2.16-.57-.87-.2-1.81-.44-2.83-.72-1.02-.28-1.96-.67-2.82-1.15-.87-.48-1.59-1.08-2.16-1.8-.58-.71-.87-1.62-.87-2.72,0-1.03.21-1.89.64-2.57.42-.68,1.01-1.23,1.76-1.65.75-.42,1.62-.71,2.62-.87,1-.17,2.06-.25,3.18-.25,1.73,0,3.38.16,4.96.47,1.58.32,2.96.66,4.15,1.02l-1.12,4.89Z"/>
        <path d="M277.91,76.27c-1.19-.5-2.43-.93-3.72-1.3-1.29-.37-2.48-.55-3.56-.55-.54,0-.98.06-1.3.17-.32.12-.48.31-.48.57,0,.33.29.6.87.8.58.2,1.3.39,2.16.57.87.18,1.81.41,2.83.67,1.02.27,1.96.62,2.82,1.07.87.45,1.59,1.04,2.16,1.77.58.73.87,1.66.87,2.79,0,1-.23,1.85-.69,2.54-.46.7-1.08,1.26-1.86,1.7-.78.43-1.7.75-2.75.95s-2.17.3-3.36.3c-1.73,0-3.5-.18-5.29-.55-1.8-.37-3.43-.85-4.89-1.45l1.83-4.34c.54.23,1.14.46,1.78.67.64.22,1.31.42,2.01.6.7.18,1.37.32,2.04.42.66.1,1.26.15,1.81.15.61,0,1.14-.07,1.58-.22.44-.15.66-.41.66-.77,0-.27-.29-.49-.87-.67-.58-.18-1.3-.37-2.16-.57-.87-.2-1.81-.44-2.83-.72-1.02-.28-1.96-.67-2.82-1.15-.87-.48-1.59-1.08-2.16-1.8-.58-.71-.87-1.62-.87-2.72,0-1.03.21-1.89.64-2.57.42-.68,1.01-1.23,1.76-1.65.75-.42,1.62-.71,2.62-.87,1-.17,2.06-.25,3.18-.25,1.73,0,3.38.16,4.96.47,1.58.32,2.96.66,4.15,1.02l-1.12,4.89Z"/>
        <path d="M289.52,61.9c.27,0,.51.1.71.3.2.2.31.43.31.7v3.49c0,.27-.1.5-.31.7s-.44.3-.71.3h-5.09c-.27,0-.51-.1-.71-.3s-.31-.43-.31-.7v-3.49c0-.27.1-.5.31-.7.2-.2.44-.3.71-.3h5.09ZM289.52,69.88c.27,0,.51.1.71.3s.31.43.31.7v16.47c0,.27-.1.5-.31.7s-.44.3-.71.3h-5.09c-.27,0-.51-.1-.71-.3s-.31-.43-.31-.7v-16.47c0-.27.1-.5.31-.7s.44-.3.71-.3h5.09Z"/>
        <path d="M306.57,69.88c1.12,0,2.17.16,3.16.47.98.32,1.85.77,2.6,1.37.75.6,1.33,1.33,1.76,2.2.42.87.64,1.85.64,2.94v4.49c0,1.1-.21,2.08-.64,2.94-.42.87-1.01,1.6-1.76,2.2-.75.6-1.61,1.06-2.6,1.37-.98.32-2.04.47-3.16.47h-4.07c-1.12,0-2.17-.16-3.16-.47-.98-.32-1.85-.77-2.6-1.37-.75-.6-1.33-1.33-1.76-2.2-.42-.86-.64-1.85-.64-2.94v-4.49c0-1.1.21-2.08.64-2.94.42-.86,1.01-1.6,1.76-2.2.75-.6,1.61-1.06,2.6-1.37.98-.32,2.04-.47,3.16-.47h4.07ZM307.58,77.62c0-.27-.1-.5-.31-.7-.2-.2-.44-.3-.71-.3h-4.07c-.27,0-.51.1-.71.3-.2.2-.31.43-.31.7v2.99c0,.27.1.5.31.7.2.2.44.3.71.3h4.07c.27,0,.51-.1.71-.3.2-.2.31-.43.31-.7v-2.99Z"/>
        <path d="M337.36,87.35c0,.27-.1.5-.31.7s-.44.3-.71.3h-5.09c-.27,0-.51-.1-.71-.3s-.31-.43-.31-.7v-10.23c0-.76-.19-1.3-.56-1.6-.37-.3-.75-.45-1.12-.45-.58,0-1.15.19-1.71.57-.56.38-.96.79-1.2,1.22v10.48c0,.27-.1.5-.31.7s-.44.3-.71.3h-5.09c-.27,0-.51-.1-.71-.3s-.31-.43-.31-.7v-16.47c0-.27.1-.5.31-.7s.44-.3.71-.3h6.11v2c1.02-.57,2.07-1.04,3.16-1.42,1.09-.38,2.14-.57,3.16-.57.75,0,1.45.12,2.11.37s1.23.67,1.71,1.27c.47.6.86,1.37,1.15,2.32.29.95.43,2.12.43,3.52v9.98Z"/>
        <path d="M343.98,78.37c-.27,0-.51-.1-.71-.3s-.31-.43-.31-.7v-3.99c0-.27.1-.5.31-.7.2-.2.44-.3.71-.3h4.07c.27,0,.51.1.71.3.2.2.31.43.31.7v3.99c0,.27-.1.5-.31.7s-.44.3-.71.3h-4.07ZM343.98,88.35c-.27,0-.51-.1-.71-.3s-.31-.43-.31-.7v-3.99c0-.27.1-.5.31-.7s.44-.3.71-.3h4.07c.27,0,.51.1.71.3s.31.43.31.7v3.99c0,.27-.1.5-.31.7s-.44.3-.71.3h-4.07Z"/>
      </g>
      <g class="st2">
        <path d="M139.06,102.63v18.96c0,.27-.1.5-.31.7s-.44.3-.71.3h-5.09c-.27,0-.51-.1-.71-.3s-.31-.43-.31-.7v-18.96h-6.11c-.27,0-.51-.1-.71-.3s-.31-.43-.31-.7v-4.49c0-.27.1-.5.31-.7.2-.2.44-.3.71-.3h19.34c.27,0,.51.1.71.3.2.2.31.43.31.7v4.49c0,.27-.1.5-.31.7s-.44.3-.71.3h-6.11Z"/>
        <path d="M157.13,104.12c1.12,0,2.17.16,3.16.47.98.32,1.85.77,2.6,1.37.75.6,1.33,1.33,1.76,2.2.42.87.64,1.85.64,2.94v4.49c0,1.1-.21,2.08-.64,2.94-.42.87-1.01,1.6-1.76,2.2-.75.6-1.61,1.06-2.6,1.37-.98.32-2.04.47-3.16.47h-4.07c-1.12,0-2.17-.16-3.16-.47-.98-.32-1.85-.77-2.6-1.37-.75-.6-1.33-1.33-1.76-2.2-.42-.86-.64-1.85-.64-2.94v-4.49c0-1.1.21-2.08.64-2.94.42-.86,1.01-1.6,1.76-2.2.75-.6,1.61-1.06,2.6-1.37.98-.32,2.04-.47,3.16-.47h4.07ZM158.15,111.86c0-.27-.1-.5-.31-.7-.2-.2-.44-.3-.71-.3h-4.07c-.27,0-.51.1-.71.3-.2.2-.31.43-.31.7v2.99c0,.27.1.5.31.7.2.2.44.3.71.3h4.07c.27,0,.51-.1.71-.3.2-.2.31-.43.31-.7v-2.99Z"/>
        <path d="M187.93,121.79c-1.53.5-3,.75-4.43.75-1.19,0-2.29-.18-3.31-.55-1.02-.37-1.89-.91-2.62-1.62-.73-.71-1.31-1.62-1.73-2.72-.42-1.1-.64-2.38-.64-3.84v-16.67c0-.27.1-.5.31-.7.2-.2.44-.3.71-.3h5.09c.27,0,.51.1.71.3.2.2.31.43.31.7v2.5h4.07c.27,0,.51.1.71.3.2.2.31.43.31.7v3.99c0,.27-.1.5-.31.7-.2.2-.44.3-.71.3h-4.07v8.18c0,.96.26,1.72.79,2.27.53.55,1.26.82,2.21.82h.51c.17,0,.36-.03.56-.1l1.53,4.99Z"/>
        <path d="M208.79,111.11c0,.27-.1.5-.31.7s-.44.3-.71.3h-6.11v-1.15c0-.5-.15-.85-.46-1.05-.31-.2-.66-.3-1.07-.3-.81,0-1.66.27-2.54.8v11.18c0,.27-.1.5-.31.7s-.44.3-.71.3h-5.09c-.27,0-.51-.1-.71-.3s-.31-.43-.31-.7v-16.47c0-.27.1-.5.31-.7s.44-.3.71-.3h6.11v2c.98-.63,2.04-1.12,3.18-1.47,1.14-.35,2.21-.52,3.23-.52,1.32,0,2.45.32,3.38.95.93.63,1.4,1.65,1.4,3.04v2.99Z"/>
        <path d="M211.34,116.6c0-1.7.81-3.03,2.44-3.99,1.63-.96,4.34-1.46,8.14-1.5-.14-.6-.5-1.02-1.09-1.27-.59-.25-1.3-.37-2.11-.37-.54,0-1.12.05-1.73.15-.61.1-1.2.22-1.76.37-.56.15-1.09.32-1.6.52s-.93.4-1.27.6l-1.02-4.99c.58-.33,1.25-.62,2.04-.87.78-.25,1.57-.46,2.37-.62.8-.17,1.59-.29,2.37-.37.78-.08,1.46-.12,2.04-.12,1.22,0,2.37.13,3.46.4,1.09.27,2.04.71,2.88,1.32.83.62,1.48,1.43,1.96,2.44.47,1.02.71,2.29.71,3.82v9.48c0,.27-.1.5-.31.7s-.44.3-.71.3h-12.72c-1.12,0-2.08-.39-2.88-1.17-.8-.78-1.2-1.72-1.2-2.82v-2ZM222.03,116.6v-2.35c-.81.17-1.57.43-2.26.8-.7.37-1.13.88-1.3,1.55h3.56Z"/>
        <path d="M252.06,121.59c0,.27-.1.5-.31.7s-.44.3-.71.3h-5.09c-.27,0-.51-.1-.71-.3s-.31-.43-.31-.7v-10.23c0-.76-.19-1.3-.56-1.6-.37-.3-.75-.45-1.12-.45-.58,0-1.15.19-1.71.57-.56.38-.96.79-1.2,1.22v10.48c0,.27-.1.5-.31.7s-.44.3-.71.3h-5.09c-.27,0-.51-.1-.71-.3s-.31-.43-.31-.7v-16.47c0-.27.1-.5.31-.7s.44-.3.71-.3h6.11v2c1.02-.57,2.07-1.04,3.16-1.42,1.09-.38,2.14-.57,3.16-.57.75,0,1.45.12,2.11.37s1.23.67,1.71,1.27c.47.6.86,1.37,1.15,2.32.29.95.43,2.12.43,3.52v9.98Z"/>
        <path d="M270.79,110.51c-1.19-.5-2.43-.93-3.72-1.3-1.29-.37-2.48-.55-3.56-.55-.54,0-.98.06-1.3.17-.32.12-.48.31-.48.57,0,.33.29.6.87.8.58.2,1.3.39,2.16.57.87.18,1.81.41,2.83.67,1.02.27,1.96.62,2.82,1.07.87.45,1.59,1.04,2.16,1.77.58.73.87,1.66.87,2.79,0,1-.23,1.85-.69,2.54-.46.7-1.08,1.26-1.86,1.7-.78.43-1.7.75-2.75.95s-2.17.3-3.36.3c-1.73,0-3.5-.18-5.29-.55-1.8-.37-3.43-.85-4.89-1.45l1.83-4.34c.54.23,1.14.46,1.78.67.64.22,1.31.42,2.01.6.7.18,1.37.32,2.04.42.66.1,1.26.15,1.81.15.61,0,1.14-.07,1.58-.22.44-.15.66-.41.66-.77,0-.27-.29-.49-.87-.67-.58-.18-1.3-.37-2.16-.57-.87-.2-1.81-.44-2.83-.72-1.02-.28-1.96-.67-2.82-1.15-.87-.48-1.59-1.08-2.16-1.8-.58-.71-.87-1.62-.87-2.72,0-1.03.21-1.89.64-2.57.42-.68,1.01-1.23,1.76-1.65.75-.42,1.62-.71,2.62-.87,1-.17,2.06-.25,3.18-.25,1.73,0,3.38.16,4.96.47,1.58.32,2.96.66,4.15,1.02l-1.12,4.89Z"/>
        <path d="M283.41,121.59c0,.27-.1.5-.31.7s-.44.3-.71.3h-5.09c-.27,0-.51-.1-.71-.3s-.31-.43-.31-.7v-19.51c0-2.1.67-3.61,2.01-4.54,1.34-.93,3.11-1.4,5.32-1.4,1.87,0,4,.33,6.41,1v6.49c-1.8-.4-3.17-.6-4.12-.6s-1.6.15-1.96.45c-.36.3-.53.68-.53,1.15v2.99h6.11v6.99h-6.11v6.99Z"/>
        <path d="M303.51,117.25c.54,0,1.11-.05,1.71-.15.59-.1,1.18-.22,1.76-.37.58-.15,1.11-.32,1.6-.52.49-.2.92-.4,1.3-.6l1.02,4.99c-.58.33-1.26.62-2.04.87-.78.25-1.57.46-2.37.62-.8.17-1.59.29-2.37.37-.78.08-1.46.12-2.04.12-1.22,0-2.38-.13-3.46-.4-1.09-.27-2.04-.71-2.88-1.32-.83-.62-1.48-1.43-1.96-2.44-.48-1.01-.71-2.29-.71-3.82v-5.64c0-1.33.51-2.47,1.53-3.42,1.02-.95,2.54-1.42,4.58-1.42h6.62c1.73,0,3.01.37,3.84,1.12.83.75,1.25,1.66,1.25,2.72,0,.83-.23,1.68-.69,2.54-.46.87-1.12,1.69-1.98,2.47-.87.78-1.93,1.48-3.18,2.1-1.26.62-2.68,1.09-4.28,1.42.27.27.65.46,1.15.57.49.12,1.03.17,1.6.17ZM300.2,110.11v3.09c.81-.37,1.57-.81,2.27-1.32.69-.52,1.13-1.11,1.3-1.77h-3.56Z"/>
        <path d="M332.78,111.11c0,.27-.1.5-.31.7s-.44.3-.71.3h-6.11v-1.15c0-.5-.15-.85-.46-1.05-.31-.2-.66-.3-1.07-.3-.81,0-1.66.27-2.54.8v11.18c0,.27-.1.5-.31.7s-.44.3-.71.3h-5.09c-.27,0-.51-.1-.71-.3s-.31-.43-.31-.7v-16.47c0-.27.1-.5.31-.7s.44-.3.71-.3h6.11v2c.98-.63,2.04-1.12,3.18-1.47,1.14-.35,2.21-.52,3.23-.52,1.32,0,2.45.32,3.38.95.93.63,1.4,1.65,1.4,3.04v2.99Z"/>
        <path d="M360.77,121.59c0,.27-.1.5-.31.7s-.44.3-.71.3h-5.09c-.27,0-.51-.1-.71-.3s-.31-.43-.31-.7v-9.98c0-.86-.2-1.46-.59-1.8-.39-.33-.84-.5-1.35-.5-.44,0-.9.09-1.37.27-.48.18-.9.41-1.27.67v11.33c0,.27-.1.5-.31.7s-.44.3-.71.3h-5.09c-.27,0-.51-.1-.71-.3s-.31-.43-.31-.7v-24.45c0-.27.1-.5.31-.7.2-.2.44-.3.71-.3h5.09c.27,0,.51.1.71.3.2.2.31.43.31.7v8.03c.78-.3,1.59-.54,2.42-.72.83-.18,1.64-.27,2.42-.27.88,0,1.73.13,2.54.4.81.27,1.53.71,2.16,1.32.63.62,1.14,1.43,1.53,2.44.39,1.02.6,2.27.64,3.77v9.48Z"/>
        <path d="M370.44,96.14c.27,0,.51.1.71.3.2.2.31.43.31.7v3.49c0,.27-.1.5-.31.7s-.44.3-.71.3h-5.09c-.27,0-.51-.1-.71-.3s-.31-.43-.31-.7v-3.49c0-.27.1-.5.31-.7.2-.2.44-.3.71-.3h5.09ZM370.44,104.12c.27,0,.51.1.71.3s.31.43.31.7v16.47c0,.27-.1.5-.31.7s-.44.3-.71.3h-5.09c-.27,0-.51-.1-.71-.3s-.31-.43-.31-.7v-16.47c0-.27.1-.5.31-.7s.44-.3.71-.3h5.09Z"/>
        <path d="M390.7,110.51c-1.19-.5-2.43-.93-3.72-1.3-1.29-.37-2.48-.55-3.56-.55-.54,0-.98.06-1.3.17-.32.12-.48.31-.48.57,0,.33.29.6.87.8.58.2,1.3.39,2.16.57.87.18,1.81.41,2.83.67,1.02.27,1.96.62,2.82,1.07.87.45,1.59,1.04,2.16,1.77.58.73.86,1.66.86,2.79,0,1-.23,1.85-.69,2.54-.46.7-1.08,1.26-1.86,1.7-.78.43-1.7.75-2.75.95s-2.17.3-3.36.3c-1.73,0-3.5-.18-5.29-.55-1.8-.37-3.43-.85-4.89-1.45l1.83-4.34c.54.23,1.14.46,1.78.67.64.22,1.31.42,2.01.6.7.18,1.37.32,2.04.42.66.1,1.26.15,1.81.15.61,0,1.14-.07,1.58-.22.44-.15.66-.41.66-.77,0-.27-.29-.49-.87-.67-.58-.18-1.3-.37-2.16-.57-.87-.2-1.81-.44-2.83-.72-1.02-.28-1.96-.67-2.82-1.15-.87-.48-1.59-1.08-2.16-1.8-.58-.71-.87-1.62-.87-2.72,0-1.03.21-1.89.64-2.57.42-.68,1.01-1.23,1.76-1.65.75-.42,1.62-.71,2.62-.87,1-.17,2.06-.25,3.18-.25,1.73,0,3.38.16,4.96.47,1.58.32,2.96.66,4.15,1.02l-1.12,4.89Z"/>
        <path d="M412.38,104.12c1.53,0,2.88.27,4.05.8,1.17.53,2.14,1.23,2.9,2.1.76.87,1.34,1.85,1.73,2.94.39,1.1.58,2.23.58,3.39s-.2,2.3-.58,3.39c-.39,1.1-.97,2.08-1.73,2.94-.76.87-1.73,1.56-2.9,2.1-1.17.53-2.52.8-4.05.8h-9.06c-.27,0-.51-.1-.71-.3-.2-.2-.31-.43-.31-.7v-24.45c0-.27.1-.5.31-.7.2-.2.44-.3.71-.3h5.09c.27,0,.51.1.71.3.2.2.31.43.31.7v6.99h2.95ZM409.43,111.11v4.49h2.49c.88,0,1.53-.23,1.96-.7.42-.47.64-.98.64-1.55s-.21-1.08-.64-1.55c-.42-.47-1.08-.7-1.96-.7h-2.49Z"/>
        <path d="M443.53,111.11c0,.27-.1.5-.31.7s-.44.3-.71.3h-6.11v-1.15c0-.5-.15-.85-.46-1.05-.3-.2-.66-.3-1.07-.3-.81,0-1.66.27-2.54.8v11.18c0,.27-.1.5-.31.7s-.44.3-.71.3h-5.09c-.27,0-.51-.1-.71-.3-.2-.2-.31-.43-.31-.7v-16.47c0-.27.1-.5.31-.7.2-.2.44-.3.71-.3h6.11v2c.98-.63,2.04-1.12,3.18-1.47,1.14-.35,2.21-.52,3.23-.52,1.32,0,2.45.32,3.38.95.93.63,1.4,1.65,1.4,3.04v2.99Z"/>
        <path d="M446.08,116.6c0-1.7.81-3.03,2.44-3.99,1.63-.96,4.34-1.46,8.14-1.5-.14-.6-.5-1.02-1.09-1.27-.59-.25-1.3-.37-2.11-.37-.54,0-1.12.05-1.73.15-.61.1-1.2.22-1.76.37-.56.15-1.09.32-1.6.52-.51.2-.93.4-1.27.6l-1.02-4.99c.58-.33,1.25-.62,2.04-.87.78-.25,1.57-.46,2.37-.62.8-.17,1.59-.29,2.37-.37.78-.08,1.46-.12,2.04-.12,1.22,0,2.38.13,3.46.4,1.09.27,2.04.71,2.88,1.32.83.62,1.48,1.43,1.96,2.44.47,1.02.71,2.29.71,3.82v9.48c0,.27-.1.5-.31.7s-.44.3-.71.3h-12.72c-1.12,0-2.08-.39-2.88-1.17-.8-.78-1.2-1.72-1.2-2.82v-2ZM456.76,116.6v-2.35c-.81.17-1.57.43-2.26.8-.7.37-1.13.88-1.3,1.55h3.56Z"/>
        <path d="M474.07,96.14c.27,0,.51.1.71.3.2.2.31.43.31.7v3.49c0,.27-.1.5-.31.7-.2.2-.44.3-.71.3h-5.09c-.27,0-.51-.1-.71-.3s-.31-.43-.31-.7v-3.49c0-.27.1-.5.31-.7.2-.2.44-.3.71-.3h5.09ZM474.07,104.12c.27,0,.51.1.71.3.2.2.31.43.31.7v16.47c0,.27-.1.5-.31.7-.2.2-.44.3-.71.3h-5.09c-.27,0-.51-.1-.71-.3s-.31-.43-.31-.7v-16.47c0-.27.1-.5.31-.7s.44-.3.71-.3h5.09Z"/>
        <path d="M497.99,121.59c0,.27-.1.5-.31.7-.2.2-.44.3-.71.3h-5.09c-.27,0-.51-.1-.71-.3s-.31-.43-.31-.7v-10.23c0-.76-.19-1.3-.56-1.6-.37-.3-.75-.45-1.12-.45-.58,0-1.14.19-1.71.57-.56.38-.96.79-1.2,1.22v10.48c0,.27-.1.5-.31.7s-.44.3-.71.3h-5.09c-.27,0-.51-.1-.71-.3-.2-.2-.31-.43-.31-.7v-16.47c0-.27.1-.5.31-.7.2-.2.44-.3.71-.3h6.11v2c1.02-.57,2.07-1.04,3.16-1.42,1.08-.38,2.14-.57,3.16-.57.75,0,1.45.12,2.11.37.66.25,1.23.67,1.71,1.27.47.6.86,1.37,1.14,2.32.29.95.43,2.12.43,3.52v9.98Z"/>
        <path d="M514.79,122.59v6.99c0,.27-.1.5-.3.7-.2.2-.44.3-.71.3h-5.09c-.27,0-.51-.1-.71-.3s-.3-.43-.3-.7v-24.45c0-.27.1-.5.3-.7s.44-.3.71-.3h9.06c1.53,0,2.88.27,4.05.8,1.17.53,2.14,1.23,2.9,2.1.76.87,1.34,1.85,1.73,2.97.39,1.11.58,2.24.58,3.37s-.2,2.3-.58,3.39c-.39,1.1-.97,2.08-1.73,2.94-.76.87-1.73,1.56-2.9,2.1-1.17.53-2.52.8-4.05.8h-2.95ZM517.28,115.6c.88,0,1.54-.23,1.96-.7.42-.47.64-.98.64-1.55s-.21-1.08-.64-1.55c-.42-.47-1.08-.7-1.96-.7h-2.49v4.49h2.49Z"/>
        <path d="M542.53,104.12c1.12,0,2.17.16,3.16.47.98.32,1.85.77,2.6,1.37s1.33,1.33,1.76,2.2c.42.87.64,1.85.64,2.94v4.49c0,1.1-.21,2.08-.64,2.94-.42.87-1.01,1.6-1.76,2.2-.75.6-1.61,1.06-2.6,1.37-.98.32-2.04.47-3.16.47h-4.07c-1.12,0-2.17-.16-3.16-.47-.98-.32-1.85-.77-2.6-1.37-.75-.6-1.33-1.33-1.76-2.2-.42-.86-.64-1.85-.64-2.94v-4.49c0-1.1.21-2.08.64-2.94.42-.86,1.01-1.6,1.76-2.2.75-.6,1.61-1.06,2.6-1.37.98-.32,2.04-.47,3.16-.47h4.07ZM543.54,111.86c0-.27-.1-.5-.31-.7-.2-.2-.44-.3-.71-.3h-4.07c-.27,0-.51.1-.71.3-.2.2-.31.43-.31.7v2.99c0,.27.1.5.31.7.2.2.44.3.71.3h4.07c.27,0,.51-.1.71-.3.2-.2.31-.43.31-.7v-2.99Z"/>
        <path d="M566.19,105.12c.07-.27.19-.5.36-.7s.39-.3.66-.3h5.45c.27,0,.49.1.66.3s.29.43.36.7l2.75,12.08,1.93-12.08c.07-.27.19-.5.36-.7.17-.2.39-.3.66-.3h6.46l-2.85,17.46c-.07.27-.19.5-.36.7s-.39.3-.66.3h-8.86c-.27,0-.49-.1-.66-.3s-.29-.43-.36-.7l-2.19-9.18-2.19,9.18c-.07.27-.19.5-.36.7s-.39.3-.66.3h-8.86c-.27,0-.49-.1-.66-.3s-.29-.43-.36-.7l-2.85-17.46h6.46c.27,0,.49.1.66.3s.29.43.36.7l1.93,12.08,2.8-12.08Z"/>
        <path d="M599.84,117.25c.54,0,1.11-.05,1.71-.15.59-.1,1.18-.22,1.76-.37s1.11-.32,1.6-.52.92-.4,1.3-.6l1.02,4.99c-.58.33-1.26.62-2.04.87-.78.25-1.57.46-2.37.62-.8.17-1.59.29-2.37.37-.78.08-1.46.12-2.04.12-1.22,0-2.38-.13-3.46-.4-1.09-.27-2.04-.71-2.88-1.32-.83-.62-1.48-1.43-1.96-2.44-.48-1.01-.71-2.29-.71-3.82v-5.64c0-1.33.51-2.47,1.53-3.42,1.02-.95,2.54-1.42,4.58-1.42h6.62c1.73,0,3.01.37,3.84,1.12s1.25,1.66,1.25,2.72c0,.83-.23,1.68-.69,2.54-.46.87-1.12,1.69-1.98,2.47-.87.78-1.93,1.48-3.18,2.1-1.26.62-2.68,1.09-4.28,1.42.27.27.65.46,1.15.57.49.12,1.03.17,1.6.17ZM596.53,110.11v3.09c.81-.37,1.57-.81,2.26-1.32.7-.52,1.13-1.11,1.3-1.77h-3.56Z"/>
        <path d="M629.1,111.11c0,.27-.1.5-.31.7-.2.2-.44.3-.71.3h-6.11v-1.15c0-.5-.15-.85-.46-1.05-.31-.2-.66-.3-1.07-.3-.81,0-1.66.27-2.54.8v11.18c0,.27-.1.5-.31.7-.2.2-.44.3-.71.3h-5.09c-.27,0-.51-.1-.71-.3s-.31-.43-.31-.7v-16.47c0-.27.1-.5.31-.7s.44-.3.71-.3h6.11v2c.98-.63,2.04-1.12,3.18-1.47,1.14-.35,2.21-.52,3.23-.52,1.32,0,2.45.32,3.38.95.93.63,1.4,1.65,1.4,3.04v2.99Z"/>
        <path d="M650.99,121.79c-1.53.5-3,.75-4.43.75-1.19,0-2.29-.18-3.31-.55-1.02-.37-1.89-.91-2.62-1.62-.73-.71-1.31-1.62-1.73-2.72-.42-1.1-.64-2.38-.64-3.84v-16.67c0-.27.1-.5.31-.7.2-.2.44-.3.71-.3h5.09c.27,0,.51.1.71.3.2.2.31.43.31.7v2.5h4.07c.27,0,.51.1.71.3.2.2.31.43.31.7v3.99c0,.27-.1.5-.31.7-.2.2-.44.3-.71.3h-4.07v8.18c0,.96.26,1.72.79,2.27.53.55,1.26.82,2.21.82h.51c.17,0,.36-.03.56-.1l1.53,4.99Z"/>
        <path d="M665.49,104.12c1.12,0,2.17.16,3.16.47.98.32,1.85.77,2.6,1.37.75.6,1.33,1.33,1.76,2.2.42.87.64,1.85.64,2.94v4.49c0,1.1-.21,2.08-.64,2.94-.42.87-1.01,1.6-1.76,2.2-.75.6-1.61,1.06-2.6,1.37-.99.32-2.04.47-3.16.47h-4.07c-1.12,0-2.17-.16-3.16-.47-.98-.32-1.85-.77-2.6-1.37-.75-.6-1.33-1.33-1.76-2.2-.42-.86-.64-1.85-.64-2.94v-4.49c0-1.1.21-2.08.64-2.94.42-.86,1.01-1.6,1.76-2.2s1.61-1.06,2.6-1.37c.98-.32,2.04-.47,3.16-.47h4.07ZM666.51,111.86c0-.27-.1-.5-.31-.7-.2-.2-.44-.3-.71-.3h-4.07c-.27,0-.51.1-.71.3-.2.2-.3.43-.3.7v2.99c0,.27.1.5.3.7.2.2.44.3.71.3h4.07c.27,0,.51-.1.71-.3.2-.2.31-.43.31-.7v-2.99Z"/>
      </g>
      <g class="st2">
        <path d="M141,144.76c-1.19-.5-2.43-.93-3.72-1.3-1.29-.37-2.48-.55-3.56-.55-.54,0-.98.06-1.3.17-.32.12-.48.31-.48.57,0,.33.29.6.87.8.58.2,1.3.39,2.16.57.87.18,1.81.41,2.83.67,1.02.27,1.96.62,2.82,1.07.87.45,1.59,1.04,2.16,1.77.58.73.87,1.66.87,2.79,0,1-.23,1.85-.69,2.54-.46.7-1.08,1.26-1.86,1.7-.78.43-1.7.75-2.75.95s-2.17.3-3.36.3c-1.73,0-3.5-.18-5.29-.55-1.8-.37-3.43-.85-4.89-1.45l1.83-4.34c.54.23,1.14.46,1.78.67.64.22,1.31.42,2.01.6.7.18,1.37.32,2.04.42.66.1,1.26.15,1.81.15.61,0,1.14-.07,1.58-.22.44-.15.66-.41.66-.77,0-.27-.29-.49-.87-.67-.58-.18-1.3-.37-2.16-.57-.87-.2-1.81-.44-2.83-.72-1.02-.28-1.96-.67-2.82-1.15-.87-.48-1.59-1.08-2.16-1.8-.58-.71-.87-1.62-.87-2.72,0-1.03.21-1.89.64-2.57.42-.68,1.01-1.23,1.76-1.65.75-.42,1.62-.71,2.62-.87,1-.17,2.06-.25,3.18-.25,1.73,0,3.38.16,4.96.47,1.58.32,2.96.66,4.15,1.02l-1.12,4.89Z"/>
        <path d="M158.46,138.37c1.12,0,2.17.16,3.16.47.98.32,1.85.77,2.6,1.37.75.6,1.33,1.33,1.76,2.2.42.87.64,1.85.64,2.94v4.49c0,1.1-.21,2.08-.64,2.94-.42.87-1.01,1.6-1.76,2.2-.75.6-1.61,1.06-2.6,1.37-.98.32-2.04.47-3.16.47h-4.07c-1.12,0-2.17-.16-3.16-.47-.98-.32-1.85-.77-2.6-1.37-.75-.6-1.33-1.33-1.76-2.2-.42-.86-.64-1.85-.64-2.94v-4.49c0-1.1.21-2.08.64-2.94.42-.86,1.01-1.6,1.76-2.2.75-.6,1.61-1.06,2.6-1.37.98-.32,2.04-.47,3.16-.47h4.07ZM159.47,146.11c0-.27-.1-.5-.31-.7-.2-.2-.44-.3-.71-.3h-4.07c-.27,0-.51.1-.71.3-.2.2-.31.43-.31.7v2.99c0,.27.1.5.31.7.2.2.44.3.71.3h4.07c.27,0,.51-.1.71-.3.2-.2.31-.43.31-.7v-2.99Z"/>
        <path d="M177.54,155.84c0,.27-.1.5-.31.7s-.44.3-.71.3h-5.09c-.27,0-.51-.1-.71-.3s-.31-.43-.31-.7v-16.47c0-.27.1-.5.31-.7s.44-.3.71-.3h6.11v2c.98-.57,2-1.04,3.05-1.42,1.05-.38,2.07-.57,3.05-.57.92,0,1.75.22,2.49.65.75.43,1.34,1.17,1.78,2.2,1.19-.9,2.38-1.6,3.59-2.1,1.2-.5,2.33-.75,3.38-.75,1.46,0,2.66.51,3.61,1.52.95,1.02,1.42,2.67,1.42,4.96v10.98c0,.27-.1.5-.31.7s-.44.3-.71.3h-5.09c-.27,0-.51-.1-.71-.3s-.31-.43-.31-.7v-9.98c0-.86-.14-1.46-.41-1.8-.27-.33-.61-.5-1.02-.5-.48,0-.98.19-1.5.57-.53.38-.91.79-1.15,1.22v10.48c0,.27-.1.5-.31.7s-.44.3-.71.3h-5.09c-.27,0-.51-.1-.71-.3s-.31-.43-.31-.7v-9.98c0-.86-.14-1.46-.41-1.8-.27-.33-.61-.5-1.02-.5-.48,0-.98.19-1.5.57-.53.38-.91.79-1.15,1.22v10.48Z"/>
        <path d="M214.44,151.5c.54,0,1.11-.05,1.71-.15.59-.1,1.18-.22,1.76-.37.58-.15,1.11-.32,1.6-.52.49-.2.92-.4,1.3-.6l1.02,4.99c-.58.33-1.26.62-2.04.87-.78.25-1.57.46-2.37.62-.8.17-1.59.29-2.37.37-.78.08-1.46.12-2.04.12-1.22,0-2.38-.13-3.46-.4-1.09-.27-2.04-.71-2.88-1.32-.83-.62-1.48-1.43-1.96-2.44-.48-1.01-.71-2.29-.71-3.82v-5.64c0-1.33.51-2.47,1.53-3.42,1.02-.95,2.54-1.42,4.58-1.42h6.62c1.73,0,3.01.37,3.84,1.12.83.75,1.25,1.66,1.25,2.72,0,.83-.23,1.68-.69,2.54-.46.87-1.12,1.69-1.98,2.47-.87.78-1.93,1.48-3.18,2.1-1.26.62-2.68,1.09-4.28,1.42.27.27.65.46,1.15.57.49.12,1.03.17,1.6.17ZM211.13,144.36v3.09c.81-.37,1.57-.81,2.27-1.32.69-.52,1.13-1.11,1.3-1.77h-3.56Z"/>
        <path d="M237.35,138.37c1.12,0,2.17.16,3.16.47.98.32,1.85.77,2.6,1.37.75.6,1.33,1.33,1.76,2.2.42.87.64,1.85.64,2.94v4.49c0,1.1-.21,2.08-.64,2.94-.42.87-1.01,1.6-1.76,2.2-.75.6-1.61,1.06-2.6,1.37-.98.32-2.04.47-3.16.47h-4.07c-1.12,0-2.17-.16-3.16-.47-.98-.32-1.85-.77-2.6-1.37-.75-.6-1.33-1.33-1.76-2.2-.42-.86-.64-1.85-.64-2.94v-4.49c0-1.1.21-2.08.64-2.94.42-.86,1.01-1.6,1.76-2.2.75-.6,1.61-1.06,2.6-1.37.98-.32,2.04-.47,3.16-.47h4.07ZM238.36,146.11c0-.27-.1-.5-.31-.7-.2-.2-.44-.3-.71-.3h-4.07c-.27,0-.51.1-.71.3-.2.2-.31.43-.31.7v2.99c0,.27.1.5.31.7.2.2.44.3.71.3h4.07c.27,0,.51-.1.71-.3.2-.2.31-.43.31-.7v-2.99Z"/>
        <path d="M268.14,155.84c0,.27-.1.5-.31.7s-.44.3-.71.3h-5.09c-.27,0-.51-.1-.71-.3s-.31-.43-.31-.7v-10.23c0-.76-.19-1.3-.56-1.6-.37-.3-.75-.45-1.12-.45-.58,0-1.15.19-1.71.57-.56.38-.96.79-1.2,1.22v10.48c0,.27-.1.5-.31.7s-.44.3-.71.3h-5.09c-.27,0-.51-.1-.71-.3s-.31-.43-.31-.7v-16.47c0-.27.1-.5.31-.7s.44-.3.71-.3h6.11v2c1.02-.57,2.07-1.04,3.16-1.42,1.09-.38,2.14-.57,3.16-.57.75,0,1.45.12,2.11.37s1.23.67,1.71,1.27c.47.6.86,1.37,1.15,2.32.29.95.43,2.12.43,3.52v9.98Z"/>
        <path d="M282.14,151.5c.54,0,1.11-.05,1.71-.15.59-.1,1.18-.22,1.76-.37.58-.15,1.11-.32,1.6-.52.49-.2.92-.4,1.3-.6l1.02,4.99c-.58.33-1.26.62-2.04.87-.78.25-1.57.46-2.37.62-.8.17-1.59.29-2.37.37-.78.08-1.46.12-2.04.12-1.22,0-2.38-.13-3.46-.4-1.09-.27-2.04-.71-2.88-1.32-.83-.62-1.48-1.43-1.96-2.44-.48-1.01-.71-2.29-.71-3.82v-5.64c0-1.33.51-2.47,1.53-3.42,1.02-.95,2.54-1.42,4.58-1.42h6.62c1.73,0,3.01.37,3.84,1.12.83.75,1.25,1.66,1.25,2.72,0,.83-.23,1.68-.69,2.54-.46.87-1.12,1.69-1.98,2.47-.87.78-1.93,1.48-3.18,2.1-1.26.62-2.68,1.09-4.28,1.42.27.27.65.46,1.15.57.49.12,1.03.17,1.6.17ZM278.83,144.36v3.09c.81-.37,1.57-.81,2.27-1.32.69-.52,1.13-1.11,1.3-1.77h-3.56Z"/>
        <path d="M311.91,156.04c-1.53.5-3,.75-4.43.75-1.19,0-2.29-.18-3.31-.55-1.02-.37-1.89-.91-2.62-1.62-.73-.71-1.31-1.62-1.73-2.72-.42-1.1-.64-2.38-.64-3.84v-16.67c0-.27.1-.5.31-.7.2-.2.44-.3.71-.3h5.09c.27,0,.51.1.71.3.2.2.31.43.31.7v2.5h4.07c.27,0,.51.1.71.3.2.2.31.43.31.7v3.99c0,.27-.1.5-.31.7-.2.2-.44.3-.71.3h-4.07v8.18c0,.96.26,1.72.79,2.27.53.55,1.26.82,2.21.82h.51c.17,0,.36-.03.56-.1l1.53,4.99Z"/>
        <path d="M326.42,138.37c1.12,0,2.17.16,3.16.47.98.32,1.85.77,2.6,1.37.75.6,1.33,1.33,1.76,2.2.42.87.64,1.85.64,2.94v4.49c0,1.1-.21,2.08-.64,2.94-.42.87-1.01,1.6-1.76,2.2-.75.6-1.61,1.06-2.6,1.37-.98.32-2.04.47-3.16.47h-4.07c-1.12,0-2.17-.16-3.16-.47-.98-.32-1.85-.77-2.6-1.37-.75-.6-1.33-1.33-1.76-2.2-.42-.86-.64-1.85-.64-2.94v-4.49c0-1.1.21-2.08.64-2.94.42-.86,1.01-1.6,1.76-2.2.75-.6,1.61-1.06,2.6-1.37.98-.32,2.04-.47,3.16-.47h4.07ZM327.43,146.11c0-.27-.1-.5-.31-.7-.2-.2-.44-.3-.71-.3h-4.07c-.27,0-.51.1-.71.3-.2.2-.31.43-.31.7v2.99c0,.27.1.5.31.7.2.2.44.3.71.3h4.07c.27,0,.51-.1.71-.3.2-.2.31-.43.31-.7v-2.99Z"/>
        <path d="M363.32,155.84c0,.27-.1.5-.31.7s-.44.3-.71.3h-5.09c-.27,0-.51-.1-.71-.3s-.31-.43-.31-.7v-9.98c0-.86-.2-1.46-.59-1.8-.39-.33-.84-.5-1.35-.5-.44,0-.9.09-1.37.27-.48.18-.9.41-1.27.67v11.33c0,.27-.1.5-.31.7s-.44.3-.71.3h-5.09c-.27,0-.51-.1-.71-.3s-.31-.43-.31-.7v-24.45c0-.27.1-.5.31-.7.2-.2.44-.3.71-.3h5.09c.27,0,.51.1.71.3.2.2.31.43.31.7v8.03c.78-.3,1.59-.54,2.42-.72.83-.18,1.64-.27,2.42-.27.88,0,1.73.13,2.54.4.81.27,1.53.71,2.16,1.32.63.62,1.14,1.43,1.53,2.44.39,1.02.6,2.27.64,3.77v9.48Z"/>
        <path d="M377.31,151.5c.54,0,1.11-.05,1.71-.15.59-.1,1.18-.22,1.76-.37.58-.15,1.11-.32,1.6-.52.49-.2.92-.4,1.3-.6l1.02,4.99c-.58.33-1.26.62-2.04.87-.78.25-1.57.46-2.37.62-.8.17-1.59.29-2.37.37-.78.08-1.46.12-2.04.12-1.22,0-2.38-.13-3.46-.4-1.09-.27-2.04-.71-2.88-1.32-.83-.62-1.48-1.43-1.96-2.44-.48-1.01-.71-2.29-.71-3.82v-5.64c0-1.33.51-2.47,1.53-3.42,1.02-.95,2.54-1.42,4.58-1.42h6.62c1.73,0,3.01.37,3.84,1.12.83.75,1.25,1.66,1.25,2.72,0,.83-.23,1.68-.69,2.54-.46.87-1.12,1.69-1.98,2.47-.87.78-1.93,1.48-3.18,2.1-1.26.62-2.68,1.09-4.28,1.42.27.27.65.46,1.15.57.49.12,1.03.17,1.6.17ZM374.01,144.36v3.09c.81-.37,1.57-.81,2.27-1.32.69-.52,1.13-1.11,1.3-1.77h-3.56Z"/>
        <path d="M394.36,130.39c.27,0,.51.1.71.3.2.2.31.43.31.7v24.45c0,.27-.1.5-.31.7-.2.2-.44.3-.71.3h-5.09c-.27,0-.51-.1-.71-.3s-.31-.43-.31-.7v-24.45c0-.27.1-.5.31-.7.2-.2.44-.3.71-.3h5.09Z"/>
        <path d="M406.58,156.84v6.99c0,.27-.1.5-.31.7s-.44.3-.71.3h-5.09c-.27,0-.51-.1-.71-.3-.2-.2-.31-.43-.31-.7v-24.45c0-.27.1-.5.31-.7.2-.2.44-.3.71-.3h9.06c1.53,0,2.88.27,4.05.8,1.17.53,2.14,1.23,2.9,2.1.76.87,1.34,1.85,1.73,2.97.39,1.11.58,2.24.58,3.37s-.2,2.3-.58,3.39c-.39,1.1-.97,2.08-1.73,2.94-.76.87-1.73,1.56-2.9,2.1-1.17.53-2.52.8-4.05.8h-2.95ZM409.07,149.85c.88,0,1.53-.23,1.96-.7.42-.47.64-.98.64-1.55s-.21-1.08-.64-1.55c-.42-.47-1.08-.7-1.96-.7h-2.49v4.49h2.49Z"/>
        <path d="M441.19,156.04c-1.53.5-3,.75-4.43.75-1.19,0-2.29-.18-3.31-.55-1.02-.37-1.89-.91-2.62-1.62-.73-.71-1.31-1.62-1.73-2.72-.42-1.1-.64-2.38-.64-3.84v-16.67c0-.27.1-.5.31-.7.2-.2.44-.3.71-.3h5.09c.27,0,.51.1.71.3.2.2.31.43.31.7v2.5h4.07c.27,0,.51.1.71.3.2.2.31.43.31.7v3.99c0,.27-.1.5-.31.7-.2.2-.44.3-.71.3h-4.07v8.18c0,.96.26,1.72.79,2.27.53.55,1.26.82,2.21.82h.51c.17,0,.36-.03.56-.1l1.53,4.99Z"/>
        <path d="M462.57,155.84c0,.27-.1.5-.3.7-.2.2-.44.3-.71.3h-5.09c-.27,0-.51-.1-.71-.3s-.3-.43-.3-.7v-9.98c0-.86-.2-1.46-.59-1.8-.39-.33-.84-.5-1.35-.5-.44,0-.9.09-1.37.27-.48.18-.9.41-1.27.67v11.33c0,.27-.1.5-.3.7s-.44.3-.71.3h-5.09c-.27,0-.51-.1-.71-.3-.2-.2-.3-.43-.3-.7v-24.45c0-.27.1-.5.3-.7.2-.2.44-.3.71-.3h5.09c.27,0,.51.1.71.3.2.2.3.43.3.7v8.03c.78-.3,1.59-.54,2.42-.72.83-.18,1.64-.27,2.42-.27.88,0,1.73.13,2.54.4.81.27,1.54.71,2.16,1.32.63.62,1.14,1.43,1.53,2.44.39,1.02.6,2.27.64,3.77v9.48Z"/>
        <path d="M476.56,151.5c.54,0,1.11-.05,1.71-.15.59-.1,1.18-.22,1.76-.37s1.11-.32,1.6-.52.92-.4,1.3-.6l1.02,4.99c-.58.33-1.26.62-2.04.87-.78.25-1.57.46-2.37.62-.8.17-1.59.29-2.37.37-.78.08-1.46.12-2.04.12-1.22,0-2.38-.13-3.46-.4-1.09-.27-2.04-.71-2.88-1.32-.83-.62-1.48-1.43-1.96-2.44-.48-1.01-.71-2.29-.71-3.82v-5.64c0-1.33.51-2.47,1.53-3.42,1.02-.95,2.54-1.42,4.58-1.42h6.62c1.73,0,3.01.37,3.84,1.12s1.25,1.66,1.25,2.72c0,.83-.23,1.68-.69,2.54-.46.87-1.12,1.69-1.98,2.47-.87.78-1.93,1.48-3.18,2.1-1.26.62-2.68,1.09-4.28,1.42.27.27.65.46,1.15.57.49.12,1.03.17,1.6.17ZM473.25,144.36v3.09c.81-.37,1.57-.81,2.26-1.32.7-.52,1.13-1.11,1.3-1.77h-3.56Z"/>
        <path d="M494.63,155.84c0,.27-.1.5-.31.7-.2.2-.44.3-.71.3h-5.09c-.27,0-.51-.1-.71-.3s-.31-.43-.31-.7v-16.47c0-.27.1-.5.31-.7s.44-.3.71-.3h6.11v2c.98-.57,2-1.04,3.05-1.42,1.05-.38,2.07-.57,3.05-.57.92,0,1.75.22,2.49.65.75.43,1.34,1.17,1.78,2.2,1.19-.9,2.38-1.6,3.59-2.1,1.2-.5,2.33-.75,3.38-.75,1.46,0,2.66.51,3.61,1.52.95,1.02,1.43,2.67,1.43,4.96v10.98c0,.27-.1.5-.31.7s-.44.3-.71.3h-5.09c-.27,0-.51-.1-.71-.3-.2-.2-.31-.43-.31-.7v-9.98c0-.86-.14-1.46-.41-1.8-.27-.33-.61-.5-1.02-.5-.48,0-.98.19-1.5.57-.53.38-.91.79-1.14,1.22v10.48c0,.27-.1.5-.31.7-.2.2-.44.3-.71.3h-5.09c-.27,0-.51-.1-.71-.3-.2-.2-.31-.43-.31-.7v-9.98c0-.86-.13-1.46-.41-1.8-.27-.33-.61-.5-1.02-.5-.48,0-.98.19-1.5.57-.53.38-.91.79-1.15,1.22v10.48Z"/>
        <path d="M524.15,156.84c-.27,0-.51-.1-.71-.3s-.31-.43-.31-.7v-4.99c0-.27.1-.5.31-.7s.44-.3.71-.3h5.09c.27,0,.51.1.71.3s.31.43.31.7v4.99c0,.27-.1.5-.31.7s-.44.3-.71.3h-5.09Z"/>
      </g>
      <g class="st2">
        <path d="M139.06,171.12v18.96c0,.27-.1.5-.31.7-.2.2-.44.3-.71.3h-5.09c-.27,0-.51-.1-.71-.3-.2-.2-.31-.43-.31-.7v-18.96h-6.11c-.27,0-.51-.1-.71-.3s-.31-.43-.31-.7v-4.49c0-.27.1-.5.31-.7.2-.2.44-.3.71-.3h19.34c.27,0,.51.1.71.3.2.2.31.43.31.7v4.49c0,.27-.1.5-.31.7s-.44.3-.71.3h-6.11Z"/>
        <path d="M157.13,172.61c1.12,0,2.17.16,3.16.47.98.32,1.85.77,2.6,1.37.75.6,1.33,1.33,1.76,2.2.42.87.64,1.85.64,2.94v4.49c0,1.1-.21,2.08-.64,2.94-.42.87-1.01,1.6-1.76,2.2-.75.6-1.61,1.06-2.6,1.37-.98.32-2.04.47-3.16.47h-4.07c-1.12,0-2.17-.16-3.16-.47-.98-.32-1.85-.77-2.6-1.37-.75-.6-1.33-1.33-1.76-2.2-.42-.87-.64-1.85-.64-2.94v-4.49c0-1.1.21-2.08.64-2.94.42-.86,1.01-1.6,1.76-2.2.75-.6,1.61-1.06,2.6-1.37.98-.32,2.04-.47,3.16-.47h4.07ZM158.15,180.35c0-.27-.1-.5-.31-.7s-.44-.3-.71-.3h-4.07c-.27,0-.51.1-.71.3s-.31.43-.31.7v2.99c0,.27.1.5.31.7s.44.3.71.3h4.07c.27,0,.51-.1.71-.3s.31-.43.31-.7v-2.99Z"/>
        <path d="M193.52,179.6c0,.27-.1.5-.31.7s-.44.3-.71.3h-6.11v-1.15c0-.5-.15-.85-.46-1.05s-.66-.3-1.07-.3c-.81,0-1.66.27-2.54.8v11.18c0,.27-.1.5-.31.7-.2.2-.44.3-.71.3h-5.09c-.27,0-.51-.1-.71-.3-.2-.2-.31-.43-.31-.7v-16.47c0-.27.1-.5.31-.7s.44-.3.71-.3h6.11v2c.98-.63,2.04-1.12,3.18-1.47,1.14-.35,2.21-.52,3.23-.52,1.32,0,2.45.32,3.38.95.93.63,1.4,1.65,1.4,3.04v2.99Z"/>
        <path d="M207.01,185.74c.54,0,1.11-.05,1.71-.15.59-.1,1.18-.22,1.76-.37.58-.15,1.11-.32,1.6-.52.49-.2.92-.4,1.3-.6l1.02,4.99c-.58.33-1.26.62-2.04.87-.78.25-1.57.46-2.37.62-.8.17-1.59.29-2.37.38-.78.08-1.46.12-2.04.12-1.22,0-2.38-.13-3.46-.4-1.09-.27-2.04-.71-2.88-1.32-.83-.62-1.48-1.43-1.96-2.45-.48-1.01-.71-2.29-.71-3.82v-5.64c0-1.33.51-2.47,1.53-3.42,1.02-.95,2.54-1.42,4.58-1.42h6.62c1.73,0,3.01.37,3.84,1.12.83.75,1.25,1.66,1.25,2.72,0,.83-.23,1.68-.69,2.54s-1.12,1.69-1.98,2.47c-.87.78-1.93,1.48-3.18,2.1-1.26.62-2.68,1.09-4.28,1.42.27.27.65.46,1.15.57.49.12,1.03.18,1.6.18ZM203.7,178.6v3.09c.81-.37,1.57-.81,2.27-1.32.69-.51,1.13-1.11,1.3-1.77h-3.56Z"/>
        <path d="M217.45,185.09c0-1.7.81-3.03,2.44-3.99,1.63-.96,4.34-1.46,8.14-1.5-.14-.6-.5-1.02-1.09-1.27-.59-.25-1.3-.38-2.11-.38-.54,0-1.12.05-1.73.15s-1.2.22-1.76.37c-.56.15-1.09.32-1.6.52-.51.2-.93.4-1.27.6l-1.02-4.99c.58-.33,1.25-.62,2.04-.87.78-.25,1.57-.46,2.37-.62.8-.17,1.59-.29,2.37-.37.78-.08,1.46-.12,2.04-.12,1.22,0,2.37.13,3.46.4,1.09.27,2.04.71,2.88,1.32.83.62,1.48,1.43,1.96,2.45.47,1.01.71,2.29.71,3.82v9.48c0,.27-.1.5-.31.7-.2.2-.44.3-.71.3h-12.72c-1.12,0-2.08-.39-2.88-1.17-.8-.78-1.2-1.72-1.2-2.82v-2ZM228.13,185.09v-2.35c-.81.17-1.57.43-2.26.8-.7.37-1.13.88-1.3,1.55h3.56Z"/>
        <path d="M251.04,172.61v-6.99c0-.27.1-.5.31-.7.2-.2.44-.3.71-.3h5.09c.27,0,.51.1.71.3.2.2.31.43.31.7v24.45c0,.27-.1.5-.31.7-.2.2-.44.3-.71.3h-9.06c-1.53,0-2.88-.27-4.05-.8-1.17-.53-2.14-1.23-2.9-2.1s-1.34-1.85-1.73-2.95c-.39-1.1-.59-2.23-.59-3.39s.19-2.29.59-3.39c.39-1.1.97-2.08,1.73-2.94.76-.86,1.73-1.56,2.9-2.1,1.17-.53,2.52-.8,4.05-.8h2.95ZM248.54,179.6c-.88,0-1.54.23-1.96.7-.42.47-.64.98-.64,1.55s.21,1.08.64,1.55c.42.47,1.08.7,1.96.7h2.49v-4.49h-2.49Z"/>
        <path d="M285.65,183.74v.35c0,1.1-.21,2.08-.64,2.94-.42.87-1.01,1.6-1.76,2.2-.75.6-1.61,1.06-2.6,1.37-.98.32-2.04.47-3.16.47h-1.53c-1.12,0-2.17-.16-3.16-.47-.98-.32-1.85-.77-2.6-1.37-.75-.6-1.33-1.33-1.76-2.2-.42-.87-.64-1.85-.64-2.94v-4.49c0-1.1.21-2.08.64-2.94.42-.86,1.01-1.6,1.76-2.2.75-.6,1.61-1.06,2.6-1.37.98-.32,2.04-.47,3.16-.47h1.53c1.12,0,2.17.16,3.16.47.98.32,1.85.77,2.6,1.37.75.6,1.33,1.33,1.76,2.2.42.87.64,1.85.64,2.94v.4h-7.13c0-.53-.12-.9-.36-1.1-.24-.2-.7-.3-1.37-.3-.71,0-1.2.1-1.45.3-.25.2-.38.57-.38,1.1v3.74c0,.57.09.94.28,1.12.19.18.62.27,1.3.27.75,0,1.25-.1,1.53-.3.27-.2.42-.57.46-1.1h7.13Z"/>
        <path d="M301.17,172.61c1.12,0,2.17.16,3.16.47.98.32,1.85.77,2.6,1.37.75.6,1.33,1.33,1.76,2.2.42.87.64,1.85.64,2.94v4.49c0,1.1-.21,2.08-.64,2.94-.42.87-1.01,1.6-1.76,2.2-.75.6-1.61,1.06-2.6,1.37-.98.32-2.04.47-3.16.47h-4.07c-1.12,0-2.17-.16-3.16-.47-.98-.32-1.85-.77-2.6-1.37-.75-.6-1.33-1.33-1.76-2.2-.42-.87-.64-1.85-.64-2.94v-4.49c0-1.1.21-2.08.64-2.94.42-.86,1.01-1.6,1.76-2.2.75-.6,1.61-1.06,2.6-1.37.98-.32,2.04-.47,3.16-.47h4.07ZM302.19,180.35c0-.27-.1-.5-.31-.7s-.44-.3-.71-.3h-4.07c-.27,0-.51.1-.71.3s-.31.43-.31.7v2.99c0,.27.1.5.31.7s.44.3.71.3h4.07c.27,0,.51-.1.71-.3s.31-.43.31-.7v-2.99Z"/>
        <path d="M324.84,172.61v-6.99c0-.27.1-.5.31-.7.2-.2.44-.3.71-.3h5.09c.27,0,.51.1.71.3.2.2.31.43.31.7v24.45c0,.27-.1.5-.31.7-.2.2-.44.3-.71.3h-9.06c-1.53,0-2.88-.27-4.05-.8-1.17-.53-2.14-1.23-2.9-2.1s-1.34-1.85-1.73-2.95c-.39-1.1-.59-2.23-.59-3.39s.19-2.29.59-3.39c.39-1.1.97-2.08,1.73-2.94.76-.86,1.73-1.56,2.9-2.1,1.17-.53,2.52-.8,4.05-.8h2.95ZM322.34,179.6c-.88,0-1.54.23-1.96.7-.42.47-.64.98-.64,1.55s.21,1.08.64,1.55c.42.47,1.08.7,1.96.7h2.49v-4.49h-2.49Z"/>
        <path d="M346.47,185.74c.54,0,1.11-.05,1.71-.15.59-.1,1.18-.22,1.76-.37.58-.15,1.11-.32,1.6-.52.49-.2.92-.4,1.3-.6l1.02,4.99c-.58.33-1.26.62-2.04.87-.78.25-1.57.46-2.37.62-.8.17-1.59.29-2.37.38-.78.08-1.46.12-2.04.12-1.22,0-2.38-.13-3.46-.4-1.09-.27-2.04-.71-2.88-1.32-.83-.62-1.48-1.43-1.96-2.45-.48-1.01-.71-2.29-.71-3.82v-5.64c0-1.33.51-2.47,1.53-3.42,1.02-.95,2.54-1.42,4.58-1.42h6.62c1.73,0,3.01.37,3.84,1.12.83.75,1.25,1.66,1.25,2.72,0,.83-.23,1.68-.69,2.54s-1.12,1.69-1.98,2.47c-.87.78-1.93,1.48-3.18,2.1-1.26.62-2.68,1.09-4.28,1.42.27.27.65.46,1.15.57.49.12,1.03.18,1.6.18ZM343.16,178.6v3.09c.81-.37,1.57-.81,2.27-1.32.69-.51,1.13-1.11,1.3-1.77h-3.56Z"/>
        <path d="M359.45,185.59c2.34,0,4.11.61,5.32,1.82,1.2,1.21,1.81,2.69,1.81,4.42,0,1.4-.43,2.85-1.3,4.37-.87,1.51-2.2,2.9-4,4.17l-1.43-2.05c.81-.6,1.52-1.33,2.11-2.2.59-.87.89-1.7.89-2.5,0-.63-.25-1.19-.76-1.67-.51-.48-1.39-.77-2.65-.87v-5.49Z"/>
        <path d="M384.9,164.63c.27,0,.51.1.71.3.2.2.31.43.31.7v24.45c0,.27-.1.5-.31.7-.2.2-.44.3-.71.3h-5.09c-.27,0-.51-.1-.71-.3-.2-.2-.31-.43-.31-.7v-24.45c0-.27.1-.5.31-.7.2-.2.44-.3.71-.3h5.09Z"/>
        <path d="M389.48,185.09c0-1.7.81-3.03,2.44-3.99,1.63-.96,4.34-1.46,8.14-1.5-.14-.6-.5-1.02-1.09-1.27-.59-.25-1.3-.38-2.11-.38-.54,0-1.12.05-1.73.15-.61.1-1.2.22-1.76.37-.56.15-1.09.32-1.6.52-.51.2-.93.4-1.27.6l-1.02-4.99c.58-.33,1.25-.62,2.04-.87.78-.25,1.57-.46,2.37-.62.8-.17,1.59-.29,2.37-.37.78-.08,1.46-.12,2.04-.12,1.22,0,2.38.13,3.46.4,1.09.27,2.04.71,2.88,1.32.83.62,1.48,1.43,1.96,2.45.47,1.01.71,2.29.71,3.82v9.48c0,.27-.1.5-.31.7-.2.2-.44.3-.71.3h-12.72c-1.12,0-2.08-.39-2.88-1.17-.8-.78-1.2-1.72-1.2-2.82v-2ZM400.17,185.09v-2.35c-.81.17-1.57.43-2.26.8-.7.37-1.13.88-1.3,1.55h3.56Z"/>
        <path d="M430.2,190.08c0,.27-.1.5-.3.7-.2.2-.44.3-.71.3h-5.09c-.27,0-.51-.1-.71-.3-.2-.2-.3-.43-.3-.7v-10.23c0-.76-.19-1.3-.56-1.6s-.75-.45-1.12-.45c-.58,0-1.15.19-1.71.57-.56.38-.96.79-1.2,1.22v10.48c0,.27-.1.5-.31.7-.2.2-.44.3-.71.3h-5.09c-.27,0-.51-.1-.71-.3-.2-.2-.31-.43-.31-.7v-16.47c0-.27.1-.5.31-.7s.44-.3.71-.3h6.11v2c1.02-.57,2.07-1.04,3.16-1.42,1.09-.38,2.14-.57,3.16-.57.75,0,1.45.12,2.11.37s1.23.67,1.71,1.27c.47.6.86,1.37,1.15,2.32.29.95.43,2.12.43,3.52v9.98Z"/>
        <path d="M451.57,191.08c0,1.53-.24,2.8-.71,3.82-.48,1.01-1.13,1.83-1.96,2.45-.83.62-1.79,1.06-2.88,1.32-1.09.27-2.24.4-3.46.4s-2.57-.17-4.15-.5c-1.58-.33-2.96-.83-4.15-1.5l1.53-3.99c.64.2,1.36.37,2.14.52.78.15,1.56.22,2.34.22,1.12,0,2.09-.2,2.93-.6.83-.4,1.25-1.12,1.25-2.15h-6.11c-1.43,0-2.63-.48-3.61-1.45-.98-.96-1.48-2.15-1.48-3.54v-4.99c0-1.46.28-2.73.84-3.79.56-1.06,1.3-1.95,2.21-2.64.92-.7,1.98-1.21,3.18-1.55,1.2-.33,2.45-.5,3.74-.5,1.49,0,2.96.21,4.4.62,1.44.42,2.76,1.04,3.94,1.87v15.97ZM444.45,184.09v-4.24c-.58-.17-1.09-.25-1.53-.25-.68,0-1.27.13-1.78.4-.51.27-.76.63-.76,1.1v2.99h4.07Z"/>
        <path d="M455.64,173.61c0-.27.1-.5.3-.7.2-.2.44-.3.71-.3h5.09c.27,0,.51.1.71.3s.3.43.3.7v9.98c0,.87.15,1.46.46,1.8.3.33.7.5,1.17.5.58,0,1.15-.19,1.73-.57.58-.38.98-.79,1.22-1.22v-10.48c0-.27.1-.5.3-.7s.44-.3.71-.3h5.09c.27,0,.51.1.71.3.2.2.3.43.3.7v16.47c0,.27-.1.5-.3.7-.2.2-.44.3-.71.3h-6.11v-2c-.54.57-1.35,1.04-2.42,1.42-1.07.38-2.2.57-3.38.57-.75,0-1.48-.1-2.19-.3-.71-.2-1.34-.53-1.88-1-.54-.46-.98-1.08-1.32-1.85-.34-.77-.51-1.71-.51-2.84v-11.48Z"/>
        <path d="M478.04,185.09c0-1.7.81-3.03,2.44-3.99s4.34-1.46,8.14-1.5c-.14-.6-.5-1.02-1.09-1.27-.59-.25-1.3-.38-2.11-.38-.54,0-1.12.05-1.73.15-.61.1-1.2.22-1.76.37s-1.09.32-1.6.52c-.51.2-.93.4-1.27.6l-1.02-4.99c.58-.33,1.25-.62,2.04-.87.78-.25,1.57-.46,2.37-.62.8-.17,1.59-.29,2.37-.37.78-.08,1.46-.12,2.04-.12,1.22,0,2.37.13,3.46.4,1.08.27,2.04.71,2.88,1.32.83.62,1.48,1.43,1.96,2.45s.71,2.29.71,3.82v9.48c0,.27-.1.5-.31.7-.2.2-.44.3-.71.3h-12.72c-1.12,0-2.08-.39-2.88-1.17-.8-.78-1.2-1.72-1.2-2.82v-2ZM488.73,185.09v-2.35c-.81.17-1.57.43-2.26.8-.7.37-1.13.88-1.3,1.55h3.56Z"/>
        <path d="M517.74,191.08c0,1.53-.24,2.8-.71,3.82-.48,1.01-1.13,1.83-1.96,2.45-.83.62-1.79,1.06-2.88,1.32-1.09.27-2.24.4-3.46.4s-2.57-.17-4.15-.5c-1.58-.33-2.96-.83-4.15-1.5l1.53-3.99c.64.2,1.36.37,2.14.52.78.15,1.56.22,2.34.22,1.12,0,2.1-.2,2.93-.6.83-.4,1.25-1.12,1.25-2.15h-6.11c-1.43,0-2.63-.48-3.61-1.45-.98-.96-1.48-2.15-1.48-3.54v-4.99c0-1.46.28-2.73.84-3.79s1.3-1.95,2.21-2.64c.92-.7,1.98-1.21,3.18-1.55,1.21-.33,2.45-.5,3.74-.5,1.49,0,2.96.21,4.4.62,1.44.42,2.76,1.04,3.94,1.87v15.97ZM510.61,184.09v-4.24c-.58-.17-1.09-.25-1.53-.25-.68,0-1.27.13-1.78.4-.51.27-.76.63-.76,1.1v2.99h4.07Z"/>
        <path d="M532.25,185.74c.54,0,1.11-.05,1.71-.15.59-.1,1.18-.22,1.76-.37s1.11-.32,1.6-.52c.49-.2.92-.4,1.3-.6l1.02,4.99c-.58.33-1.26.62-2.04.87-.78.25-1.57.46-2.37.62-.8.17-1.59.29-2.37.38-.78.08-1.46.12-2.04.12-1.22,0-2.38-.13-3.46-.4-1.09-.27-2.04-.71-2.88-1.32-.83-.62-1.48-1.43-1.96-2.45-.48-1.01-.71-2.29-.71-3.82v-5.64c0-1.33.51-2.47,1.53-3.42,1.02-.95,2.54-1.42,4.58-1.42h6.62c1.73,0,3.01.37,3.84,1.12s1.25,1.66,1.25,2.72c0,.83-.23,1.68-.69,2.54-.46.87-1.12,1.69-1.98,2.47-.87.78-1.93,1.48-3.18,2.1-1.26.62-2.68,1.09-4.28,1.42.27.27.65.46,1.15.57.49.12,1.03.18,1.6.18ZM528.94,178.6v3.09c.81-.37,1.57-.81,2.26-1.32.7-.51,1.13-1.11,1.3-1.77h-3.56Z"/>
        <path d="M558.36,179c-1.19-.5-2.43-.93-3.72-1.3s-2.48-.55-3.56-.55c-.54,0-.98.06-1.3.17-.32.12-.48.31-.48.57,0,.33.29.6.87.8.58.2,1.3.39,2.16.57.87.18,1.81.41,2.82.67,1.02.27,1.96.62,2.83,1.07.87.45,1.59,1.04,2.16,1.77.58.73.87,1.66.87,2.79,0,1-.23,1.85-.69,2.54-.46.7-1.08,1.26-1.86,1.7-.78.43-1.7.75-2.75.95-1.05.2-2.17.3-3.36.3-1.73,0-3.5-.18-5.29-.55-1.8-.37-3.43-.85-4.89-1.45l1.83-4.34c.54.23,1.14.46,1.78.67s1.31.42,2.01.6c.7.18,1.37.32,2.04.42.66.1,1.26.15,1.81.15.61,0,1.14-.07,1.58-.22.44-.15.66-.41.66-.77,0-.27-.29-.49-.87-.67-.58-.18-1.3-.37-2.16-.57-.87-.2-1.81-.44-2.82-.72-1.02-.28-1.96-.67-2.83-1.15-.87-.48-1.59-1.08-2.16-1.8-.58-.71-.87-1.62-.87-2.72,0-1.03.21-1.89.64-2.57.42-.68,1.01-1.23,1.76-1.65.75-.42,1.62-.71,2.62-.87,1-.17,2.06-.25,3.18-.25,1.73,0,3.38.16,4.96.47,1.58.32,2.96.66,4.15,1.02l-1.12,4.89Z"/>
        <path d="M565.89,185.59c2.34,0,4.11.61,5.32,1.82,1.2,1.21,1.81,2.69,1.81,4.42,0,1.4-.43,2.85-1.3,4.37-.87,1.51-2.2,2.9-4,4.17l-1.43-2.05c.81-.6,1.52-1.33,2.11-2.2.59-.87.89-1.7.89-2.5,0-.63-.25-1.19-.76-1.67-.51-.48-1.39-.77-2.65-.87v-5.49Z"/>
        <path d="M592.35,191.08v6.99c0,.27-.1.5-.3.7-.2.2-.44.3-.71.3h-5.09c-.27,0-.51-.1-.71-.3s-.3-.43-.3-.7v-24.45c0-.27.1-.5.3-.7s.44-.3.71-.3h9.06c1.53,0,2.88.27,4.05.8,1.17.53,2.14,1.23,2.9,2.1.76.87,1.34,1.85,1.73,2.97.39,1.11.58,2.24.58,3.37s-.2,2.29-.58,3.39c-.39,1.1-.97,2.08-1.73,2.95-.76.87-1.73,1.56-2.9,2.1-1.17.53-2.52.8-4.05.8h-2.95ZM594.85,184.09c.88,0,1.54-.23,1.96-.7.42-.46.64-.98.64-1.55s-.21-1.08-.64-1.55c-.42-.46-1.08-.7-1.96-.7h-2.49v4.49h2.49Z"/>
        <path d="M607.62,185.09c0-1.7.81-3.03,2.44-3.99s4.34-1.46,8.14-1.5c-.14-.6-.5-1.02-1.09-1.27-.59-.25-1.3-.38-2.11-.38-.54,0-1.12.05-1.73.15-.61.1-1.2.22-1.76.37s-1.09.32-1.6.52c-.51.2-.93.4-1.27.6l-1.02-4.99c.58-.33,1.25-.62,2.04-.87.78-.25,1.57-.46,2.37-.62.8-.17,1.59-.29,2.37-.37.78-.08,1.46-.12,2.04-.12,1.22,0,2.37.13,3.46.4,1.08.27,2.04.71,2.88,1.32.83.62,1.48,1.43,1.96,2.45s.71,2.29.71,3.82v9.48c0,.27-.1.5-.31.7-.2.2-.44.3-.71.3h-12.72c-1.12,0-2.08-.39-2.88-1.17-.8-.78-1.2-1.72-1.2-2.82v-2ZM618.31,185.09v-2.35c-.81.17-1.57.43-2.26.8-.7.37-1.13.88-1.3,1.55h3.56Z"/>
        <path d="M642.23,190.28c-1.53.5-3,.75-4.43.75-1.19,0-2.29-.18-3.31-.55-1.02-.37-1.89-.91-2.62-1.62-.73-.71-1.31-1.62-1.73-2.72s-.64-2.38-.64-3.84v-16.67c0-.27.1-.5.31-.7.2-.2.44-.3.71-.3h5.09c.27,0,.51.1.71.3.2.2.31.43.31.7v2.5h4.07c.27,0,.51.1.71.3.2.2.31.43.31.7v3.99c0,.27-.1.5-.31.7-.2.2-.44.3-.71.3h-4.07v8.18c0,.96.26,1.72.79,2.27.53.55,1.26.82,2.21.82h.51c.17,0,.36-.03.56-.1l1.53,4.99Z"/>
        <path d="M657.5,190.28c-1.53.5-3,.75-4.43.75-1.19,0-2.29-.18-3.31-.55-1.02-.37-1.89-.91-2.62-1.62-.73-.71-1.31-1.62-1.73-2.72-.42-1.1-.64-2.38-.64-3.84v-16.67c0-.27.1-.5.31-.7.2-.2.44-.3.71-.3h5.09c.27,0,.51.1.71.3.2.2.31.43.31.7v2.5h4.07c.27,0,.51.1.71.3.2.2.31.43.31.7v3.99c0,.27-.1.5-.31.7-.2.2-.44.3-.71.3h-4.07v8.18c0,.96.26,1.72.79,2.27.53.55,1.26.82,2.21.82h.51c.17,0,.36-.03.56-.1l1.53,4.99Z"/>
        <path d="M670.48,185.74c.54,0,1.11-.05,1.71-.15s1.18-.22,1.76-.37,1.11-.32,1.6-.52c.49-.2.92-.4,1.3-.6l1.02,4.99c-.58.33-1.26.62-2.04.87-.78.25-1.57.46-2.37.62-.8.17-1.59.29-2.37.38-.78.08-1.46.12-2.04.12-1.22,0-2.38-.13-3.46-.4-1.09-.27-2.04-.71-2.88-1.32-.83-.62-1.48-1.43-1.96-2.45-.48-1.01-.71-2.29-.71-3.82v-5.64c0-1.33.51-2.47,1.53-3.42,1.02-.95,2.54-1.42,4.58-1.42h6.62c1.73,0,3.01.37,3.84,1.12.83.75,1.25,1.66,1.25,2.72,0,.83-.23,1.68-.69,2.54s-1.12,1.69-1.98,2.47c-.87.78-1.93,1.48-3.18,2.1-1.26.62-2.68,1.09-4.28,1.42.27.27.65.46,1.14.57.49.12,1.03.18,1.6.18ZM667.17,178.6v3.09c.81-.37,1.57-.81,2.27-1.32.7-.51,1.13-1.11,1.3-1.77h-3.56Z"/>
        <path d="M699.75,179.6c0,.27-.1.5-.31.7s-.44.3-.71.3h-6.11v-1.15c0-.5-.15-.85-.46-1.05s-.66-.3-1.07-.3c-.81,0-1.66.27-2.54.8v11.18c0,.27-.1.5-.3.7-.2.2-.44.3-.71.3h-5.09c-.27,0-.51-.1-.71-.3-.2-.2-.3-.43-.3-.7v-16.47c0-.27.1-.5.3-.7.2-.2.44-.3.71-.3h6.11v2c.98-.63,2.04-1.12,3.18-1.47,1.14-.35,2.21-.52,3.23-.52,1.32,0,2.45.32,3.38.95.93.63,1.4,1.65,1.4,3.04v2.99Z"/>
        <path d="M721.63,190.08c0,.27-.1.5-.31.7-.2.2-.44.3-.71.3h-5.09c-.27,0-.51-.1-.71-.3-.2-.2-.31-.43-.31-.7v-10.23c0-.76-.19-1.3-.56-1.6-.38-.3-.75-.45-1.12-.45-.58,0-1.15.19-1.71.57-.56.38-.96.79-1.2,1.22v10.48c0,.27-.1.5-.3.7-.2.2-.44.3-.71.3h-5.09c-.27,0-.51-.1-.71-.3-.2-.2-.3-.43-.3-.7v-16.47c0-.27.1-.5.3-.7s.44-.3.71-.3h6.11v2c1.02-.57,2.07-1.04,3.16-1.42,1.08-.38,2.14-.57,3.16-.57.75,0,1.45.12,2.11.37s1.23.67,1.71,1.27c.47.6.86,1.37,1.14,2.32.29.95.43,2.12.43,3.52v9.98Z"/>
        <path d="M740.36,179c-1.19-.5-2.43-.93-3.72-1.3s-2.48-.55-3.56-.55c-.54,0-.98.06-1.3.17-.32.12-.48.31-.48.57,0,.33.29.6.87.8.58.2,1.3.39,2.16.57.87.18,1.81.41,2.82.67,1.02.27,1.96.62,2.83,1.07.87.45,1.59,1.04,2.16,1.77.58.73.87,1.66.87,2.79,0,1-.23,1.85-.69,2.54-.46.7-1.08,1.26-1.86,1.7-.78.43-1.7.75-2.75.95-1.05.2-2.17.3-3.36.3-1.73,0-3.5-.18-5.29-.55-1.8-.37-3.43-.85-4.89-1.45l1.83-4.34c.54.23,1.14.46,1.78.67s1.31.42,2.01.6c.7.18,1.37.32,2.04.42.66.1,1.26.15,1.81.15.61,0,1.14-.07,1.58-.22.44-.15.66-.41.66-.77,0-.27-.29-.49-.87-.67-.58-.18-1.3-.37-2.16-.57-.87-.2-1.81-.44-2.82-.72-1.02-.28-1.96-.67-2.83-1.15-.87-.48-1.59-1.08-2.16-1.8-.58-.71-.87-1.62-.87-2.72,0-1.03.21-1.89.64-2.57.42-.68,1.01-1.23,1.76-1.65.75-.42,1.62-.71,2.62-.87,1-.17,2.06-.25,3.18-.25,1.73,0,3.38.16,4.96.47,1.58.32,2.96.66,4.15,1.02l-1.12,4.89Z"/>
      </g>
      <g class="st2">
        <path d="M125.32,219.34c0-1.7.81-3.03,2.44-3.99,1.63-.96,4.34-1.46,8.14-1.5-.14-.6-.5-1.02-1.09-1.27-.59-.25-1.3-.38-2.11-.38-.54,0-1.12.05-1.73.15s-1.2.22-1.76.37c-.56.15-1.09.32-1.6.52-.51.2-.93.4-1.27.6l-1.02-4.99c.58-.33,1.25-.62,2.04-.87.78-.25,1.57-.46,2.37-.62.8-.17,1.59-.29,2.37-.38.78-.08,1.46-.12,2.04-.12,1.22,0,2.37.13,3.46.4,1.09.27,2.04.71,2.88,1.32.83.62,1.48,1.43,1.96,2.45.47,1.01.71,2.29.71,3.82v9.48c0,.27-.1.5-.31.7-.2.2-.44.3-.71.3h-12.72c-1.12,0-2.08-.39-2.88-1.17-.8-.78-1.2-1.72-1.2-2.82v-2ZM136.01,219.34v-2.35c-.81.17-1.57.43-2.26.8-.7.37-1.13.88-1.3,1.55h3.56Z"/>
        <path d="M166.04,224.33c0,.27-.1.5-.31.7-.2.2-.44.3-.71.3h-5.09c-.27,0-.51-.1-.71-.3-.2-.2-.31-.43-.31-.7v-10.23c0-.76-.19-1.3-.56-1.6-.37-.3-.75-.45-1.12-.45-.58,0-1.15.19-1.71.57-.56.38-.96.79-1.2,1.22v10.48c0,.27-.1.5-.31.7-.2.2-.44.3-.71.3h-5.09c-.27,0-.51-.1-.71-.3-.2-.2-.31-.43-.31-.7v-16.47c0-.27.1-.5.31-.7.2-.2.44-.3.71-.3h6.11v2c1.02-.57,2.07-1.04,3.16-1.42,1.09-.38,2.14-.57,3.16-.57.75,0,1.45.12,2.11.37s1.23.67,1.71,1.27c.47.6.86,1.37,1.15,2.32.29.95.43,2.12.43,3.52v9.98Z"/>
        <path d="M181.31,206.86v-6.99c0-.27.1-.5.31-.7s.44-.3.71-.3h5.09c.27,0,.51.1.71.3s.31.43.31.7v24.45c0,.27-.1.5-.31.7-.2.2-.44.3-.71.3h-9.06c-1.53,0-2.88-.27-4.05-.8-1.17-.53-2.14-1.23-2.9-2.1s-1.34-1.85-1.73-2.95c-.39-1.1-.59-2.23-.59-3.39s.19-2.29.59-3.39c.39-1.1.97-2.08,1.73-2.95.76-.86,1.73-1.56,2.9-2.1,1.17-.53,2.52-.8,4.05-.8h2.95ZM178.81,213.85c-.88,0-1.54.23-1.96.7-.42.47-.64.98-.64,1.55s.21,1.08.64,1.55c.42.47,1.08.7,1.96.7h2.49v-4.49h-2.49Z"/>
        <path d="M209.05,219.99c.54,0,1.11-.05,1.71-.15.59-.1,1.18-.22,1.76-.37.58-.15,1.11-.32,1.6-.52.49-.2.92-.4,1.3-.6l1.02,4.99c-.58.33-1.26.62-2.04.87-.78.25-1.57.46-2.37.62-.8.17-1.59.29-2.37.38-.78.08-1.46.12-2.04.12-1.22,0-2.38-.13-3.46-.4-1.09-.27-2.04-.71-2.88-1.32-.83-.62-1.48-1.43-1.96-2.45-.48-1.01-.71-2.29-.71-3.82v-5.64c0-1.33.51-2.47,1.53-3.42s2.54-1.42,4.58-1.42h6.62c1.73,0,3.01.37,3.84,1.12.83.75,1.25,1.66,1.25,2.72,0,.83-.23,1.68-.69,2.54s-1.12,1.69-1.98,2.47c-.87.78-1.93,1.48-3.18,2.1-1.26.62-2.68,1.09-4.28,1.42.27.27.65.46,1.15.57.49.12,1.03.18,1.6.18ZM205.74,212.85v3.09c.81-.37,1.57-.81,2.27-1.32.69-.51,1.13-1.11,1.3-1.77h-3.56Z"/>
        <path d="M227.12,224.33c0,.27-.1.5-.31.7-.2.2-.44.3-.71.3h-5.09c-.27,0-.51-.1-.71-.3-.2-.2-.31-.43-.31-.7v-16.47c0-.27.1-.5.31-.7.2-.2.44-.3.71-.3h6.11v2c.98-.57,2-1.04,3.05-1.42,1.05-.38,2.07-.57,3.05-.57.92,0,1.75.22,2.49.65.75.43,1.34,1.17,1.78,2.2,1.19-.9,2.38-1.6,3.59-2.1,1.2-.5,2.33-.75,3.38-.75,1.46,0,2.66.51,3.61,1.52.95,1.01,1.42,2.67,1.42,4.96v10.98c0,.27-.1.5-.31.7-.2.2-.44.3-.71.3h-5.09c-.27,0-.51-.1-.71-.3-.2-.2-.31-.43-.31-.7v-9.98c0-.87-.14-1.46-.41-1.8-.27-.33-.61-.5-1.02-.5-.48,0-.98.19-1.5.57-.53.38-.91.79-1.15,1.22v10.48c0,.27-.1.5-.31.7-.2.2-.44.3-.71.3h-5.09c-.27,0-.51-.1-.71-.3-.2-.2-.31-.43-.31-.7v-9.98c0-.87-.14-1.46-.41-1.8-.27-.33-.61-.5-1.02-.5-.48,0-.98.19-1.5.57-.53.38-.91.79-1.15,1.22v10.48Z"/>
        <path d="M265.54,206.86c1.12,0,2.17.16,3.16.47.98.32,1.85.77,2.6,1.37.75.6,1.33,1.33,1.76,2.2.42.87.64,1.85.64,2.94v4.49c0,1.1-.21,2.08-.64,2.94-.42.87-1.01,1.6-1.76,2.2-.75.6-1.61,1.06-2.6,1.37-.98.32-2.04.47-3.16.47h-4.07c-1.12,0-2.17-.16-3.16-.47-.98-.32-1.85-.77-2.6-1.37-.75-.6-1.33-1.33-1.76-2.2-.42-.87-.64-1.85-.64-2.94v-4.49c0-1.1.21-2.08.64-2.94.42-.87,1.01-1.6,1.76-2.2.75-.6,1.61-1.06,2.6-1.37.98-.32,2.04-.47,3.16-.47h4.07ZM266.56,214.6c0-.27-.1-.5-.31-.7s-.44-.3-.71-.3h-4.07c-.27,0-.51.1-.71.3s-.31.43-.31.7v2.99c0,.27.1.5.31.7s.44.3.71.3h4.07c.27,0,.51-.1.71-.3s.31-.43.31-.7v-2.99Z"/>
        <path d="M290.23,224.53c-1.53.5-3,.75-4.43.75-1.19,0-2.29-.18-3.31-.55-1.02-.37-1.89-.91-2.62-1.62-.73-.71-1.31-1.62-1.73-2.72-.42-1.1-.64-2.38-.64-3.84v-16.67c0-.27.1-.5.31-.7s.44-.3.71-.3h5.09c.27,0,.51.1.71.3s.31.43.31.7v2.5h4.07c.27,0,.51.1.71.3.2.2.31.43.31.7v3.99c0,.27-.1.5-.31.7-.2.2-.44.3-.71.3h-4.07v8.18c0,.96.26,1.72.79,2.27.53.55,1.26.82,2.21.82h.51c.17,0,.36-.03.56-.1l1.53,4.99Z"/>
        <path d="M298.88,198.88c.27,0,.51.1.71.3s.31.43.31.7v3.49c0,.27-.1.5-.31.7-.2.2-.44.3-.71.3h-5.09c-.27,0-.51-.1-.71-.3-.2-.2-.31-.43-.31-.7v-3.49c0-.27.1-.5.31-.7s.44-.3.71-.3h5.09ZM298.88,206.86c.27,0,.51.1.71.3.2.2.31.43.31.7v16.47c0,.27-.1.5-.31.7-.2.2-.44.3-.71.3h-5.09c-.27,0-.51-.1-.71-.3-.2-.2-.31-.43-.31-.7v-16.47c0-.27.1-.5.31-.7.2-.2.44-.3.71-.3h5.09Z"/>
        <path d="M315.93,206.86c1.12,0,2.17.16,3.16.47.98.32,1.85.77,2.6,1.37.75.6,1.33,1.33,1.76,2.2.42.87.64,1.85.64,2.94v4.49c0,1.1-.21,2.08-.64,2.94-.42.87-1.01,1.6-1.76,2.2-.75.6-1.61,1.06-2.6,1.37-.98.32-2.04.47-3.16.47h-4.07c-1.12,0-2.17-.16-3.16-.47-.98-.32-1.85-.77-2.6-1.37-.75-.6-1.33-1.33-1.76-2.2-.42-.87-.64-1.85-.64-2.94v-4.49c0-1.1.21-2.08.64-2.94.42-.87,1.01-1.6,1.76-2.2.75-.6,1.61-1.06,2.6-1.37.98-.32,2.04-.47,3.16-.47h4.07ZM316.95,214.6c0-.27-.1-.5-.31-.7s-.44-.3-.71-.3h-4.07c-.27,0-.51.1-.71.3s-.31.43-.31.7v2.99c0,.27.1.5.31.7s.44.3.71.3h4.07c.27,0,.51-.1.71-.3s.31-.43.31-.7v-2.99Z"/>
        <path d="M346.73,224.33c0,.27-.1.5-.31.7-.2.2-.44.3-.71.3h-5.09c-.27,0-.51-.1-.71-.3-.2-.2-.31-.43-.31-.7v-10.23c0-.76-.19-1.3-.56-1.6-.37-.3-.75-.45-1.12-.45-.58,0-1.15.19-1.71.57-.56.38-.96.79-1.2,1.22v10.48c0,.27-.1.5-.31.7-.2.2-.44.3-.71.3h-5.09c-.27,0-.51-.1-.71-.3-.2-.2-.31-.43-.31-.7v-16.47c0-.27.1-.5.31-.7.2-.2.44-.3.71-.3h6.11v2c1.02-.57,2.07-1.04,3.16-1.42,1.09-.38,2.14-.57,3.16-.57.75,0,1.45.12,2.11.37s1.23.67,1.71,1.27c.47.6.86,1.37,1.15,2.32.29.95.43,2.12.43,3.52v9.98Z"/>
        <path d="M349.78,219.34c0-1.7.81-3.03,2.44-3.99,1.63-.96,4.34-1.46,8.14-1.5-.14-.6-.5-1.02-1.09-1.27-.59-.25-1.3-.38-2.11-.38-.54,0-1.12.05-1.73.15s-1.2.22-1.76.37c-.56.15-1.09.32-1.6.52-.51.2-.93.4-1.27.6l-1.02-4.99c.58-.33,1.25-.62,2.04-.87.78-.25,1.57-.46,2.37-.62.8-.17,1.59-.29,2.37-.38.78-.08,1.46-.12,2.04-.12,1.22,0,2.37.13,3.46.4,1.09.27,2.04.71,2.88,1.32.83.62,1.48,1.43,1.96,2.45.47,1.01.71,2.29.71,3.82v9.48c0,.27-.1.5-.31.7-.2.2-.44.3-.71.3h-12.72c-1.12,0-2.08-.39-2.88-1.17-.8-.78-1.2-1.72-1.2-2.82v-2ZM360.47,219.34v-2.35c-.81.17-1.57.43-2.26.8-.7.37-1.13.88-1.3,1.55h3.56Z"/>
        <path d="M377.77,198.88c.27,0,.51.1.71.3s.31.43.31.7v24.45c0,.27-.1.5-.31.7-.2.2-.44.3-.71.3h-5.09c-.27,0-.51-.1-.71-.3-.2-.2-.31-.43-.31-.7v-24.45c0-.27.1-.5.31-.7s.44-.3.71-.3h5.09Z"/>
        <path d="M406.28,217.99v.35c0,1.1-.21,2.08-.64,2.94-.42.87-1.01,1.6-1.76,2.2-.75.6-1.61,1.06-2.6,1.37-.98.32-2.04.47-3.16.47h-1.53c-1.12,0-2.17-.16-3.15-.47-.99-.32-1.85-.77-2.6-1.37-.75-.6-1.33-1.33-1.76-2.2-.42-.87-.64-1.85-.64-2.94v-4.49c0-1.1.21-2.08.64-2.94.42-.87,1.01-1.6,1.76-2.2.75-.6,1.61-1.06,2.6-1.37.98-.32,2.04-.47,3.15-.47h1.53c1.12,0,2.17.16,3.16.47.98.32,1.85.77,2.6,1.37.75.6,1.33,1.33,1.76,2.2.42.87.64,1.85.64,2.94v.4h-7.13c0-.53-.12-.9-.36-1.1-.24-.2-.7-.3-1.38-.3s-1.2.1-1.45.3c-.25.2-.38.57-.38,1.1v3.74c0,.57.09.94.28,1.12.19.18.62.27,1.3.27.75,0,1.25-.1,1.53-.3.27-.2.42-.57.46-1.1h7.13Z"/>
        <path d="M409.84,207.86c0-.27.1-.5.3-.7.2-.2.44-.3.71-.3h5.09c.27,0,.51.1.71.3.2.2.3.43.3.7v9.98c0,.87.15,1.46.46,1.8.3.33.7.5,1.17.5.58,0,1.15-.19,1.73-.57.58-.38.98-.79,1.22-1.22v-10.48c0-.27.1-.5.3-.7.2-.2.44-.3.71-.3h5.09c.27,0,.51.1.71.3.2.2.3.43.3.7v16.47c0,.27-.1.5-.3.7-.2.2-.44.3-.71.3h-6.11v-2c-.54.57-1.35,1.04-2.42,1.42-1.07.38-2.2.57-3.38.57-.75,0-1.48-.1-2.19-.3-.71-.2-1.34-.53-1.88-1-.54-.46-.98-1.08-1.32-1.85-.34-.77-.51-1.71-.51-2.84v-11.48Z"/>
        <path d="M443.18,219.99c.54,0,1.11-.05,1.71-.15s1.18-.22,1.76-.37c.58-.15,1.11-.32,1.6-.52.49-.2.92-.4,1.3-.6l1.02,4.99c-.58.33-1.26.62-2.04.87-.78.25-1.57.46-2.37.62-.8.17-1.59.29-2.37.38-.78.08-1.46.12-2.04.12-1.22,0-2.38-.13-3.46-.4-1.09-.27-2.04-.71-2.88-1.32-.83-.62-1.49-1.43-1.96-2.45-.48-1.01-.71-2.29-.71-3.82v-5.64c0-1.33.51-2.47,1.53-3.42s2.54-1.42,4.58-1.42h6.62c1.73,0,3.01.37,3.84,1.12.83.75,1.25,1.66,1.25,2.72,0,.83-.23,1.68-.69,2.54-.46.87-1.12,1.69-1.99,2.47-.87.78-1.93,1.48-3.18,2.1-1.26.62-2.68,1.09-4.28,1.42.27.27.65.46,1.14.57.49.12,1.03.18,1.6.18ZM439.87,212.85v3.09c.81-.37,1.57-.81,2.27-1.32.69-.51,1.13-1.11,1.3-1.77h-3.56Z"/>
        <path d="M469.29,213.25c-1.19-.5-2.43-.93-3.72-1.3s-2.48-.55-3.56-.55c-.54,0-.98.06-1.3.17-.32.12-.48.31-.48.57,0,.33.29.6.87.8.58.2,1.3.39,2.16.57.87.18,1.81.41,2.83.67,1.02.27,1.96.62,2.82,1.07.87.45,1.59,1.04,2.16,1.77s.87,1.66.87,2.79c0,1-.23,1.85-.69,2.54-.46.7-1.08,1.26-1.86,1.7-.78.43-1.7.75-2.75.95-1.05.2-2.17.3-3.36.3-1.73,0-3.5-.18-5.29-.55s-3.43-.85-4.89-1.45l1.83-4.34c.54.23,1.14.46,1.78.67.64.22,1.31.42,2.01.6.7.18,1.38.32,2.04.42.66.1,1.26.15,1.81.15.61,0,1.14-.07,1.58-.22.44-.15.66-.41.66-.77,0-.27-.29-.49-.87-.67-.58-.18-1.3-.37-2.16-.57-.87-.2-1.81-.44-2.83-.72-1.02-.28-1.96-.67-2.82-1.15-.87-.48-1.59-1.08-2.16-1.8-.58-.71-.87-1.62-.87-2.72,0-1.03.21-1.89.64-2.57.42-.68,1.01-1.23,1.76-1.65.75-.42,1.62-.71,2.62-.87,1-.17,2.06-.25,3.18-.25,1.73,0,3.38.16,4.96.47,1.58.32,2.96.66,4.15,1.02l-1.12,4.89Z"/>
        <path d="M487,198.88c.27,0,.51.1.71.3.2.2.3.43.3.7v3.49c0,.27-.1.5-.3.7-.2.2-.44.3-.71.3h-5.09c-.27,0-.51-.1-.71-.3-.2-.2-.3-.43-.3-.7v-3.49c0-.27.1-.5.3-.7s.44-.3.71-.3h5.09ZM487,206.86c.27,0,.51.1.71.3.2.2.3.43.3.7v16.47c0,.27-.1.5-.3.7-.2.2-.44.3-.71.3h-5.09c-.27,0-.51-.1-.71-.3-.2-.2-.3-.43-.3-.7v-16.47c0-.27.1-.5.3-.7.2-.2.44-.3.71-.3h5.09Z"/>
        <path d="M510.92,224.33c0,.27-.1.5-.31.7-.2.2-.44.3-.71.3h-5.09c-.27,0-.51-.1-.71-.3-.2-.2-.31-.43-.31-.7v-10.23c0-.76-.19-1.3-.56-1.6-.38-.3-.75-.45-1.12-.45-.58,0-1.15.19-1.71.57-.56.38-.96.79-1.2,1.22v10.48c0,.27-.1.5-.3.7-.2.2-.44.3-.71.3h-5.09c-.27,0-.51-.1-.71-.3-.2-.2-.3-.43-.3-.7v-16.47c0-.27.1-.5.3-.7.2-.2.44-.3.71-.3h6.11v2c1.02-.57,2.07-1.04,3.16-1.42,1.08-.38,2.14-.57,3.16-.57.75,0,1.45.12,2.11.37s1.23.67,1.71,1.27c.47.6.86,1.37,1.14,2.32.29.95.43,2.12.43,3.52v9.98Z"/>
        <path d="M529.65,213.25c-1.19-.5-2.43-.93-3.72-1.3-1.29-.37-2.48-.55-3.56-.55-.54,0-.98.06-1.3.17-.32.12-.48.31-.48.57,0,.33.29.6.87.8.58.2,1.3.39,2.16.57.87.18,1.81.41,2.83.67,1.02.27,1.96.62,2.82,1.07.87.45,1.59,1.04,2.16,1.77.58.73.87,1.66.87,2.79,0,1-.23,1.85-.69,2.54-.46.7-1.08,1.26-1.86,1.7-.78.43-1.7.75-2.75.95-1.05.2-2.17.3-3.36.3-1.73,0-3.5-.18-5.29-.55-1.8-.37-3.43-.85-4.89-1.45l1.83-4.34c.54.23,1.14.46,1.78.67s1.31.42,2.01.6c.7.18,1.38.32,2.04.42.66.1,1.26.15,1.81.15.61,0,1.14-.07,1.58-.22.44-.15.66-.41.66-.77,0-.27-.29-.49-.87-.67-.58-.18-1.3-.37-2.16-.57-.87-.2-1.81-.44-2.83-.72-1.02-.28-1.96-.67-2.83-1.15-.87-.48-1.59-1.08-2.16-1.8-.58-.71-.87-1.62-.87-2.72,0-1.03.21-1.89.64-2.57.42-.68,1.01-1.23,1.76-1.65.75-.42,1.62-.71,2.62-.87,1-.17,2.06-.25,3.18-.25,1.73,0,3.38.16,4.96.47,1.58.32,2.96.66,4.15,1.02l-1.12,4.89Z"/>
        <path d="M547.87,224.53c-1.53.5-3,.75-4.43.75-1.19,0-2.29-.18-3.31-.55-1.02-.37-1.89-.91-2.62-1.62-.73-.71-1.31-1.62-1.73-2.72-.42-1.1-.64-2.38-.64-3.84v-16.67c0-.27.1-.5.31-.7s.44-.3.71-.3h5.09c.27,0,.51.1.71.3.2.2.31.43.31.7v2.5h4.07c.27,0,.51.1.71.3.2.2.31.43.31.7v3.99c0,.27-.1.5-.31.7-.2.2-.44.3-.71.3h-4.07v8.18c0,.96.26,1.72.79,2.27.53.55,1.26.82,2.21.82h.51c.17,0,.36-.03.56-.1l1.53,4.99Z"/>
        <path d="M549.91,219.34c0-1.7.81-3.03,2.44-3.99s4.34-1.46,8.14-1.5c-.14-.6-.5-1.02-1.09-1.27-.59-.25-1.3-.38-2.11-.38-.54,0-1.12.05-1.73.15-.61.1-1.2.22-1.76.37s-1.09.32-1.6.52c-.51.2-.93.4-1.27.6l-1.02-4.99c.58-.33,1.25-.62,2.04-.87.78-.25,1.57-.46,2.37-.62s1.59-.29,2.37-.38c.78-.08,1.46-.12,2.04-.12,1.22,0,2.37.13,3.46.4,1.08.27,2.04.71,2.88,1.32.83.62,1.48,1.43,1.96,2.45s.71,2.29.71,3.82v9.48c0,.27-.1.5-.31.7-.2.2-.44.3-.71.3h-12.72c-1.12,0-2.08-.39-2.88-1.17-.8-.78-1.2-1.72-1.2-2.82v-2ZM560.59,219.34v-2.35c-.81.17-1.57.43-2.26.8-.7.37-1.13.88-1.3,1.55h3.56Z"/>
        <path d="M590.62,224.33c0,.27-.1.5-.31.7-.2.2-.44.3-.71.3h-5.09c-.27,0-.51-.1-.71-.3-.2-.2-.31-.43-.31-.7v-10.23c0-.76-.19-1.3-.56-1.6-.38-.3-.75-.45-1.12-.45-.58,0-1.15.19-1.71.57-.56.38-.96.79-1.2,1.22v10.48c0,.27-.1.5-.3.7-.2.2-.44.3-.71.3h-5.09c-.27,0-.51-.1-.71-.3-.2-.2-.3-.43-.3-.7v-16.47c0-.27.1-.5.3-.7.2-.2.44-.3.71-.3h6.11v2c1.02-.57,2.07-1.04,3.16-1.42,1.08-.38,2.14-.57,3.16-.57.75,0,1.45.12,2.11.37s1.23.67,1.71,1.27c.47.6.86,1.37,1.14,2.32.29.95.43,2.12.43,3.52v9.98Z"/>
        <path d="M606.91,224.53c-1.53.5-3,.75-4.43.75-1.19,0-2.29-.18-3.31-.55-1.02-.37-1.89-.91-2.62-1.62-.73-.71-1.31-1.62-1.73-2.72-.43-1.1-.64-2.38-.64-3.84v-16.67c0-.27.1-.5.3-.7.2-.2.44-.3.71-.3h5.09c.27,0,.51.1.71.3s.3.43.3.7v2.5h4.07c.27,0,.51.1.71.3.2.2.3.43.3.7v3.99c0,.27-.1.5-.3.7-.2.2-.44.3-.71.3h-4.07v8.18c0,.96.26,1.72.79,2.27.53.55,1.26.82,2.21.82h.51c.17,0,.36-.03.56-.1l1.53,4.99Z"/>
        <path d="M615.56,198.88c.27,0,.51.1.71.3.2.2.3.43.3.7v24.45c0,.27-.1.5-.3.7-.2.2-.44.3-.71.3h-5.09c-.27,0-.51-.1-.71-.3-.2-.2-.3-.43-.3-.7v-24.45c0-.27.1-.5.3-.7s.44-.3.71-.3h5.09Z"/>
        <path d="M638.98,225.33c0,1.53-.24,2.8-.71,3.82-.47,1.01-1.13,1.83-1.96,2.45-.83.62-1.79,1.06-2.88,1.32-1.09.27-2.24.4-3.46.4s-2.57-.17-4.15-.5c-1.58-.33-2.96-.83-4.15-1.5l1.53-3.99c.64.2,1.36.37,2.14.52.78.15,1.56.22,2.34.22,1.12,0,2.09-.2,2.93-.6.83-.4,1.25-1.12,1.25-2.15v-1.05c-1.49.6-2.94.9-4.33.9-1.93,0-3.56-.63-4.89-1.9-1.32-1.26-1.98-3.24-1.98-5.94v-9.48c0-.27.1-.5.3-.7.2-.2.44-.3.71-.3h5.09c.27,0,.51.1.71.3.2.2.3.43.3.7v9.98c0,.8.16,1.37.48,1.72.32.35.72.52,1.2.52.71,0,1.51-.3,2.39-.9v-11.33c0-.27.1-.5.3-.7.2-.2.44-.3.71-.3h5.09c.27,0,.51.1.71.3.2.2.3.43.3.7v17.46Z"/>
        <path d="M646.1,225.33c-.27,0-.51-.1-.71-.3-.2-.2-.31-.43-.31-.7v-4.99c0-.27.1-.5.31-.7s.44-.3.71-.3h5.09c.27,0,.51.1.71.3s.31.43.31.7v4.99c0,.27-.1.5-.31.7-.2.2-.44.3-.71.3h-5.09Z"/>
      </g>
    </g>
  </g>
</svg>