<?xml version="1.0" encoding="UTF-8"?>
<svg id="Layer_1" xmlns="http://www.w3.org/2000/svg" version="1.1" viewBox="0 0 389.83 203.14">
  <!-- Generator: Adobe Illustrator 29.7.1, SVG Export Plug-In . SVG Version: 2.1.1 Build 8)  -->
  <defs>
    <style>
      .st0 {
        fill: #441a36;
      }

      .st0, .st1, .st2, .st3, .st4, .st5 {
        isolation: isolate;
      }

      .st0, .st2, .st4, .st5 {
        font-family: AbdoMaster-Black, AbdoMaster-Black;
        font-size: 77.32px;
        font-weight: 800;
      }

      .st6 {
        fill: #9424ff;
      }

      .st7 {
        fill: #08a3f9;
      }

      .st2, .st8, .st9 {
        fill: #fff;
      }

      .st10 {
        fill: #c9094e;
      }

      .st11 {
        fill: #0303ed;
      }

      .st12 {
        opacity: .3;
      }

      .st3, .st13 {
        display: none;
      }

      .st14 {
        fill: #050505;
        stroke: #020202;
        stroke-width: 7.17px;
      }

      .st14, .st9 {
        stroke-miterlimit: 10;
      }

      .st9 {
        stroke: #fff;
        stroke-width: 6.92px;
      }

      .st15 {
        fill: #50b3b7;
      }

      .st4 {
        fill: #c806f7;
      }

      .st5 {
        fill: #e3930a;
      }
    </style>
  </defs>
  <g class="st13">
    <g>
      <g class="st12">
        <path class="st14" d="M23.12,102.85c-.28.39-.46.9-.47,1.39,0,.25.03.49.09.71l.05.16s.05.12.03.08l-.03-.08-.23-.64-.42-1.26c-.25-.84-.48-1.68-.67-2.52-.39-1.68-.65-3.38-.8-5.08-.28-3.41-.08-6.86.7-10.26,1.48-6.82,5.73-13.26,11.65-18.13,5.98-4.88,13.63-8.17,21.66-9.74,8.05-1.59,16.5-1.31,24.36.41l-3.89,1.83h0c2.64-7.61,7.26-14.7,13.71-20.66,3.22-2.97,6.9-5.63,10.94-7.87,4.05-2.23,8.46-4.01,13.06-5.34,4.6-1.32,9.39-2.21,14.24-2.58,4.85-.36,9.74-.27,14.55.26,9.66,1,18.9,3.92,27.13,8.08h0l-5,.97c5.25-7.24,12.3-13.71,20.96-18.48,8.57-4.85,18.69-7.99,29.23-8.88,10.53-.97,21.45.69,31.04,4.41,9.62,3.77,17.87,9.37,24.37,16.26h0l-6.85-.99c6.85-3.65,14.7-6.08,22.86-6.95,8.16-.83,16.61-.08,24.37,2.32,3.89,1.18,7.56,2.83,10.93,4.81s6.45,4.3,9.07,6.9c5.25,5.24,8.9,11.24,10.87,17.84h0l-5.22-3.18c8.51-.22,17.05,1.46,24.37,4.9,7.32,3.43,13.38,8.65,16.97,14.86,3.65,6.2,4.62,13.33,3.03,19.92-1.57,6.61-5.54,12.72-11.12,17.51h0l-.24-3.28c7.71,5.45,13.57,12.81,15.86,21.06,1.11,4.11,1.44,8.43.5,12.65-.89,4.22-3.01,8.27-5.97,11.77-5.97,7.03-15.17,11.89-25.1,14.01-4.97,1.07-10.13,1.58-15.27,1.37-5.14-.23-10.2-1.09-15.05-2.44l3.9-1.66c-1.7,5.69-5.02,11.32-10.46,15.66-2.71,2.16-5.92,3.9-9.31,5.27-3.43,1.33-7.09,2.15-10.78,2.65-3.7.51-7.44.49-11.14.28-3.7-.26-7.32-.88-10.86-1.7-7.05-1.75-13.64-4.55-19.54-8.07h0l7.94-2.05c-.76,1.96-1.62,3.63-2.63,5.35-1,1.69-2.1,3.34-3.34,4.92-2.47,3.17-5.44,6.14-8.92,8.73-3.49,2.57-7.47,4.8-11.86,6.35-4.38,1.54-9.03,2.54-13.76,2.88-9.47.75-18.99-1.09-27.19-4.66-8.28-3.54-15.13-9.01-20.11-15.36l8.39.21c-2.54,2.8-5.39,5.42-8.6,7.75-3.25,2.28-6.81,4.29-10.63,5.94-3.82,1.64-7.94,2.84-12.18,3.63-4.24.79-8.66,1.12-13.07.85-4.4-.26-8.79-1.06-12.92-2.43-4.13-1.37-7.98-3.33-11.3-5.69-3.33-2.37-6.15-5.11-8.52-8.05-2.36-2.96-4.27-6.06-5.71-9.46l8.12,1.77c-5.91,4.13-12.9,7.41-20.6,8.98-3.83.81-7.81,1.26-11.83,1.18-4.01-.06-8.06-.53-11.97-1.62-3.89-1.1-7.63-2.76-10.85-5.03-3.24-2.25-5.83-5.14-7.58-8.22-1.76-3.09-2.8-6.34-3.23-9.57-.44-3.25-.43-6.4.14-9.7l6.25,4.59c-8.14,1.73-17.03,1-24.59-2.04-7.56-2.99-13.87-8.39-16.78-14.99-2.95-6.58-2.48-13.94.8-20.23,1.63-3.16,3.95-6.07,6.82-8.58,1.42-1.27,3.02-2.39,4.69-3.43l1.29-.74.65-.37.31-.18s.01,0,.02.02c.04.07.18.4.66.71h.01ZM32.51,105.89c-1.1,1.03-2.53,2.09-4.06,2.88l-.57.29-.24.14-.46.27-.93.53c-1.19.74-2.35,1.54-3.36,2.46-2.06,1.79-3.72,3.89-4.89,6.15-2.36,4.52-2.64,9.72-.62,14.22,1.98,4.51,6.33,8.27,11.73,10.42,5.4,2.17,11.77,2.71,17.62,1.46l7.27-1.55-1.02,6.14c-.82,4.91-.21,10.33,2.25,14.57,2.39,4.3,6.9,7.36,12.52,8.94,2.8.78,5.83,1.13,8.87,1.18,3.05.07,6.15-.28,9.15-.92,6.05-1.21,11.65-3.84,16.46-7.19l5.66-3.94,2.45,5.71c2.27,5.27,6.22,10.33,11.29,13.94,5.08,3.66,11.52,5.73,18.27,6.12,3.37.22,6.81-.04,10.16-.67s6.64-1.57,9.72-2.9c3.07-1.33,5.96-2.96,8.62-4.82,2.61-1.91,4.95-4.06,7.05-6.36l4.4-4.84,3.98,5.05c4.09,5.18,9.64,9.63,16.32,12.47,6.6,2.88,14.18,4.32,21.51,3.72,3.66-.27,7.23-1.05,10.59-2.21,3.35-1.17,6.4-2.89,9.15-4.91,2.74-2.03,5.15-4.42,7.18-7.04,1.02-1.3,1.94-2.67,2.77-4.07.82-1.38,1.57-2.89,2.08-4.19l2.17-5.62,5.76,3.57h0c4.84,3.21,10.3,5.82,16.14,7.54,2.93.81,5.94,1.47,8.99,1.8,3.04.29,6.14.45,9.16.16,3.01-.28,5.99-.81,8.76-1.75,2.74-.97,5.33-2.22,7.59-3.83,4.51-3.24,7.68-7.81,9.48-12.76l.91-2.49,2.99.84c4.31,1.2,8.78,1.97,13.31,2.19,4.53.2,9.08-.25,13.46-1.18,8.75-1.84,16.79-6.11,21.86-12.07,2.52-2.97,4.3-6.33,5.07-9.88.82-3.55.54-7.25-.4-10.82-1.95-7.17-7.11-13.73-13.96-18.6l-2.06-1.47,1.82-1.82h0c4.61-4.37,7.66-9.76,8.63-15.34.99-5.58-.2-11.31-3.41-16.14-3.18-4.85-8.26-8.82-14.25-11.31-6-2.5-12.82-3.53-19.46-3.1l-4.11.27-1.11-3.46h0c-.73-2.56-1.94-5.18-3.41-7.62-1.49-2.44-3.3-4.74-5.4-6.82s-4.53-3.9-7.19-5.46c-2.65-1.56-5.54-2.87-8.63-3.8-6.15-1.9-12.9-2.51-19.49-1.85-6.59.7-12.98,2.68-18.57,5.65l-4,2.13-2.84-3.12h0c-5.28-5.91-12.37-10.98-20.38-14.3-8.01-3.3-17.1-4.9-26.14-4.26-9.02.57-17.93,3.09-25.61,7.22-7.77,4.05-14.26,9.69-19.19,16.12l-1.91,2.48-3.09-1.52h0c-7.36-3.76-15.62-6.44-24.24-7.37-4.29-.49-8.65-.6-12.96-.3-4.31.31-8.56,1.07-12.64,2.22-4.07,1.15-7.98,2.7-11.57,4.65-3.57,1.96-6.85,4.29-9.73,6.92-5.77,5.25-10.05,11.7-12.46,18.49h0l-.78,2.4-3.11-.57c-6.93-1.27-14.2-1.26-20.94.32-6.72,1.55-12.9,4.52-17.53,8.61-2.31,2.05-4.19,4.38-5.64,6.85-1.48,2.47-2.44,5.12-2.91,7.86-.49,2.73-.52,5.54-.15,8.32.19,1.39.47,2.78.86,4.14.18.68.41,1.35.64,2.02l.38.98.2.47.02.06.06.15.08.23c.1.31.17.64.21.98.07.68-.03,1.37-.23,1.94h.03,0Z"/>
      </g>
      <path class="st9" d="M29.18,102.8c-.27.38-.44.87-.45,1.34,0,.24.03.47.09.68l.05.15s.05.12.03.08l-.03-.08-.23-.62-.4-1.22c-.24-.81-.47-1.62-.64-2.43-.38-1.62-.62-3.26-.77-4.9-.27-3.29-.08-6.62.68-9.9,1.43-6.58,5.53-12.79,11.24-17.49,5.77-4.7,13.15-7.89,20.9-9.39,7.77-1.53,15.92-1.27,23.51.4l-3.76,1.76h0c2.55-7.34,7.01-14.18,13.22-19.93,3.1-2.87,6.66-5.43,10.55-7.6,3.91-2.15,8.17-3.87,12.6-5.15,4.44-1.28,9.06-2.13,13.74-2.49,4.68-.35,9.4-.26,14.04.25,9.32.97,18.24,3.79,26.18,7.79h0l-4.82.94c5.06-6.99,11.87-13.22,20.22-17.83,8.26-4.68,18.03-7.71,28.2-8.56,10.16-.93,20.7.66,29.95,4.26,9.28,3.64,17.24,9.04,23.51,15.68h0l-6.61-.95c6.61-3.52,14.18-5.87,22.06-6.7,7.87-.8,16.03-.08,23.51,2.24,3.75,1.14,7.29,2.73,10.54,4.64s6.23,4.15,8.75,6.66c5.07,5.05,8.59,10.84,10.49,17.21h0l-5.03-3.07c8.21-.21,16.45,1.41,23.52,4.72,7.06,3.31,12.91,8.34,16.37,14.34,3.52,5.99,4.46,12.86,2.93,19.22-1.52,6.38-5.34,12.28-10.73,16.89h0l-.23-3.17c7.44,5.26,13.09,12.36,15.3,20.32,1.07,3.97,1.39,8.14.48,12.21-.86,4.07-2.91,7.98-5.76,11.36-5.76,6.78-14.64,11.47-24.22,13.52-4.79,1.04-9.78,1.52-14.74,1.32-4.95-.22-9.84-1.05-14.52-2.36l3.76-1.6c-1.64,5.49-4.84,10.92-10.09,15.11-2.62,2.08-5.71,3.77-8.98,5.08-3.31,1.28-6.84,2.08-10.4,2.56-3.57.49-7.18.47-10.75.27-3.57-.25-7.06-.85-10.48-1.64-6.8-1.68-13.16-4.39-18.86-7.79h0l7.66-1.98c-.74,1.89-1.56,3.51-2.53,5.16-.96,1.63-2.03,3.22-3.23,4.75-2.39,3.06-5.24,5.93-8.61,8.42-3.36,2.48-7.2,4.63-11.44,6.12-4.23,1.48-8.72,2.45-13.27,2.78-9.14.73-18.32-1.05-26.24-4.5-7.99-3.41-14.6-8.7-19.41-14.82l8.09.2c-2.45,2.71-5.2,5.23-8.29,7.48-3.14,2.2-6.57,4.14-10.25,5.73-3.69,1.58-7.66,2.74-11.75,3.5s-8.35,1.09-12.61.82c-4.25-.25-8.48-1.03-12.47-2.35-3.99-1.32-7.7-3.21-10.9-5.49-3.21-2.28-5.94-4.93-8.22-7.77-2.28-2.85-4.12-5.85-5.51-9.12l7.83,1.71c-5.7,3.98-12.44,7.15-19.88,8.66-3.69.79-7.54,1.22-11.41,1.14-3.87-.06-7.78-.52-11.55-1.56-3.75-1.06-7.36-2.66-10.47-4.85-3.13-2.17-5.62-4.96-7.31-7.93-1.7-2.98-2.7-6.12-3.11-9.23-.42-3.13-.42-6.18.14-9.36l6.04,4.43c-7.85,1.67-16.43.97-23.72-1.97-7.29-2.89-13.38-8.09-16.19-14.47-2.85-6.35-2.4-13.45.77-19.52,1.57-3.05,3.81-5.86,6.58-8.28,1.37-1.22,2.91-2.31,4.52-3.31l1.24-.71.62-.36.3-.17s.01,0,.02.02c.04.07.17.39.63.68v.02h.01ZM38.24,105.73c-1.06.99-2.44,2.01-3.92,2.78l-.55.28-.24.14-.44.26-.89.51c-1.15.72-2.26,1.49-3.24,2.37-1.98,1.73-3.59,3.75-4.72,5.93-2.28,4.36-2.55,9.38-.6,13.72,1.91,4.35,6.11,7.98,11.32,10.06,5.21,2.1,11.35,2.62,17,1.41l7.02-1.5-.98,5.93c-.79,4.74-.2,9.97,2.17,14.06,2.31,4.15,6.66,7.1,12.08,8.62,2.7.75,5.62,1.09,8.56,1.14,2.95.07,5.93-.27,8.83-.89,5.84-1.17,11.24-3.71,15.88-6.94l5.47-3.8,2.37,5.51c2.19,5.08,6,9.97,10.9,13.45,4.9,3.53,11.12,5.53,17.63,5.91,3.25.21,6.58-.04,9.81-.64,3.23-.61,6.41-1.52,9.38-2.8,2.97-1.29,5.75-2.85,8.32-4.65,2.52-1.84,4.78-3.91,6.81-6.14l4.25-4.67,3.84,4.87c3.94,5,9.31,9.3,15.75,12.03,6.37,2.78,13.68,4.17,20.75,3.59,3.53-.26,6.98-1.01,10.21-2.14,3.24-1.13,6.17-2.79,8.83-4.74,2.64-1.96,4.96-4.27,6.93-6.79.99-1.26,1.87-2.58,2.67-3.93.79-1.33,1.52-2.78,2.01-4.05l2.1-5.42,5.56,3.45h0c4.67,3.1,9.93,5.62,15.57,7.28,2.83.78,5.73,1.41,8.68,1.74,2.94.28,5.92.44,8.84.15,2.91-.27,5.78-.79,8.45-1.69,2.65-.94,5.15-2.14,7.32-3.7,4.36-3.13,7.41-7.54,9.15-12.31l.88-2.41,2.88.81c4.15,1.16,8.47,1.9,12.84,2.11,4.37.19,8.77-.24,12.98-1.14,8.44-1.77,16.2-5.9,21.09-11.65,2.43-2.87,4.15-6.11,4.89-9.53.79-3.42.52-7-.39-10.44-1.89-6.92-6.86-13.25-13.47-17.95l-1.99-1.42,1.76-1.75h0c4.45-4.21,7.39-9.41,8.33-14.8.96-5.38-.2-10.91-3.29-15.57-3.06-4.68-7.97-8.51-13.75-10.91-5.79-2.41-12.37-3.41-18.78-2.99l-3.96.26-1.07-3.33h0c-.71-2.47-1.87-5-3.29-7.35-1.44-2.36-3.19-4.58-5.21-6.58-2.02-2.01-4.37-3.77-6.93-5.27-2.56-1.51-5.35-2.77-8.33-3.67-5.93-1.84-12.44-2.43-18.8-1.78-6.36.68-12.52,2.58-17.92,5.45l-3.86,2.05-2.74-3.01h0c-5.09-5.7-11.94-10.6-19.66-13.8-7.73-3.19-16.5-4.73-25.22-4.11-8.7.55-17.3,2.98-24.71,6.97-7.5,3.91-13.76,9.35-18.52,15.55l-1.84,2.4-2.98-1.46h0c-7.1-3.63-15.08-6.21-23.39-7.11-4.14-.47-8.35-.58-12.51-.29-4.16.3-8.26,1.04-12.19,2.14-3.93,1.11-7.7,2.61-11.16,4.48-3.45,1.9-6.61,4.14-9.39,6.68-5.57,5.06-9.7,11.29-12.02,17.84h0l-.76,2.31-3-.55c-6.68-1.22-13.7-1.21-20.2.31-6.49,1.49-12.45,4.36-16.91,8.31-2.23,1.98-4.04,4.23-5.44,6.61-1.42,2.38-2.35,4.94-2.81,7.58-.47,2.64-.5,5.34-.14,8.03.19,1.34.45,2.68.83,4,.18.66.4,1.31.62,1.95l.36.94.19.45.02.06.06.15.08.22c.1.3.17.62.2.95.07.66-.03,1.32-.22,1.87h-.04Z"/>
      <path class="st15" d="M38.68,102.54c-.69-1.55-6.76-15.99,3.83-28.71,9.04-10.86,26.46-15.94,43.35-12.39,1.18-3.44,6.78-18.32,25-26.8,17.47-8.13,39.8-7.23,57.88,2.14,12.06-16.5,33.85-25.77,55.25-23.58,21.8,2.23,34.33,15.45,36.83,18.22,13.69-7.36,30.92-8.23,44.73-2.14,16.34,7.21,20.49,20.9,21.11,23.11,16.72-.79,31.81,7.3,36.83,19.29,4.11,9.79.97,20.91-7.96,28.91,12.55,8.83,17.8,22.2,13.23,33.25-6.17,14.92-29.73,24.38-52.68,17.62-1.27,3.86-4.31,10.47-11.84,15.01-12.75,7.67-33.28,6.32-49.99-4.29-.54,1.44-6.94,17.63-26.31,22.51-17,4.28-36.71-1.99-47.29-15.76-11.72,13.34-31.55,18.63-47.42,13.62-15.41-4.87-20.94-17.52-21.8-19.6-15.45,11.06-36.12,10.91-46.61,2.45-9.53-7.69-7.56-19.73-7.25-21.41-13.22,2.77-26.81-2.43-32.21-11.81-6.07-10.53-.46-23.99,13.34-29.64h-.02Z"/>
      <path d="M34.3,101.12c-.26.36-.43.84-.44,1.3,0,.23.03.46.08.66l.05.15s.05.12.03.08l-.03-.07-.22-.6-.39-1.18c-.23-.79-.45-1.57-.62-2.36-.37-1.57-.6-3.16-.74-4.75-.26-3.19-.07-6.42.66-9.6,1.38-6.38,5.36-12.4,10.89-16.96,5.6-4.56,12.75-7.64,20.26-9.11,7.53-1.49,15.43-1.23,22.79.38l-3.64,1.71h0c2.47-7.12,6.79-13.74,12.82-19.32,3.01-2.78,6.45-5.26,10.23-7.36,3.79-2.08,7.92-3.75,12.21-4.99,4.3-1.24,8.78-2.06,13.32-2.41,4.54-.34,9.11-.25,13.61.24,9.03.94,17.68,3.67,25.37,7.55h0l-4.68.91c4.91-6.77,11.51-12.82,19.6-17.28,8.01-4.53,17.48-7.47,27.34-8.3,9.85-.9,20.06.64,29.03,4.13,8.99,3.52,16.71,8.76,22.79,15.2h0l-6.4-.92c6.41-3.41,13.75-5.69,21.38-6.5,7.63-.78,15.54-.08,22.79,2.17,3.64,1.1,7.07,2.65,10.22,4.5s6.03,4.02,8.48,6.45c4.91,4.9,8.32,10.51,10.16,16.68h0l-4.88-2.98c7.95-.2,15.94,1.37,22.79,4.58,6.85,3.2,12.51,8.09,15.87,13.9,3.41,5.8,4.32,12.47,2.84,18.63-1.47,6.18-5.18,11.9-10.4,16.38h0l-.23-3.07c7.21,5.1,12.69,11.98,14.83,19.69,1.03,3.85,1.35,7.89.46,11.83-.83,3.95-2.82,7.73-5.59,11.01-5.58,6.58-14.19,11.12-23.48,13.1-4.65,1-9.48,1.48-14.28,1.28-4.8-.22-9.54-1.02-14.08-2.28l3.65-1.55c-1.59,5.33-4.69,10.58-9.78,14.65-2.53,2.02-5.53,3.65-8.71,4.92-3.21,1.24-6.63,2.01-10.08,2.48-3.46.48-6.96.46-10.42.26-3.46-.24-6.84-.82-10.16-1.59-6.59-1.63-12.75-4.25-18.28-7.55h0l7.42-1.92c-.71,1.83-1.51,3.4-2.46,5-.93,1.58-1.97,3.12-3.13,4.6-2.31,2.97-5.08,5.74-8.34,8.16-3.26,2.4-6.98,4.49-11.09,5.94-4.1,1.44-8.45,2.37-12.87,2.7-8.86.71-17.76-1.02-25.43-4.36-7.74-3.31-14.15-8.43-18.81-14.36l7.84.2c-2.37,2.62-5.04,5.07-8.04,7.25-3.04,2.14-6.37,4.01-9.94,5.55-3.58,1.53-7.42,2.66-11.39,3.4-3.97.73-8.1,1.05-12.22.79-4.12-.24-8.22-1-12.08-2.28-3.87-1.28-7.46-3.11-10.57-5.32-3.12-2.21-5.76-4.78-7.96-7.53-2.21-2.76-4-5.67-5.34-8.84l7.59,1.66c-5.53,3.86-12.06,6.93-19.27,8.39-3.58.76-7.3,1.18-11.06,1.1-3.75-.06-7.54-.5-11.19-1.51-3.64-1.03-7.14-2.58-10.15-4.7-3.03-2.11-5.45-4.81-7.09-7.69-1.64-2.89-2.62-5.93-3.02-8.95-.41-3.04-.4-5.99.13-9.07l5.85,4.29c-7.61,1.62-15.93.94-22.99-1.91-7.07-2.8-12.97-7.84-15.69-14.02-2.76-6.16-2.32-13.04.74-18.92,1.52-2.95,3.69-5.68,6.38-8.02,1.33-1.19,2.82-2.24,4.39-3.21l1.21-.69.6-.34.29-.16.02.02c.04.06.17.38.61.66h.04,0ZM43.07,103.97c-1.02.96-2.37,1.95-3.8,2.69l-.53.27-.23.13-.43.25-.87.5c-1.12.7-2.19,1.44-3.14,2.3-1.92,1.68-3.48,3.63-4.57,5.75-2.21,4.23-2.47,9.09-.58,13.3,1.85,4.22,5.92,7.74,10.97,9.75,5.05,2.03,11,2.54,16.48,1.37l6.8-1.45-.95,5.74c-.76,4.59-.19,9.66,2.1,13.63,2.24,4.02,6.46,6.88,11.71,8.36,2.62.73,5.45,1.06,8.3,1.1,2.86.07,5.75-.26,8.56-.86,5.66-1.14,10.9-3.6,15.4-6.72l5.3-3.68,2.3,5.34c2.12,4.93,5.82,9.66,10.56,13.04,4.75,3.42,10.77,5.36,17.09,5.73,3.15.21,6.37-.04,9.51-.62,3.13-.59,6.21-1.47,9.09-2.71,2.88-1.25,5.58-2.77,8.06-4.51,2.44-1.79,4.63-3.79,6.6-5.95l4.12-4.53,3.73,4.72c3.82,4.84,9.02,9.01,15.26,11.66,6.18,2.69,13.26,4.04,20.12,3.48,3.43-.25,6.77-.98,9.9-2.07,3.14-1.1,5.98-2.7,8.55-4.59,2.56-1.9,4.81-4.14,6.72-6.58.96-1.22,1.82-2.5,2.59-3.81.77-1.29,1.47-2.7,1.94-3.92l2.03-5.26,5.39,3.34h0c4.53,3,9.63,5.44,15.09,7.05,2.74.76,5.55,1.37,8.41,1.69,2.85.27,5.74.42,8.56.15s5.6-.76,8.2-1.64c2.56-.91,4.99-2.07,7.1-3.58,4.22-3.03,7.18-7.31,8.87-11.93l.85-2.33,2.8.78c4.03,1.13,8.21,1.84,12.45,2.05,4.24.18,8.5-.23,12.59-1.1,8.18-1.72,15.7-5.72,20.45-11.29,2.36-2.78,4.02-5.92,4.74-9.24.76-3.32.51-6.78-.37-10.12-1.83-6.71-6.64-12.84-13.06-17.4l-1.93-1.37,1.7-1.7h0c4.31-4.08,7.16-9.12,8.08-14.34.93-5.22-.19-10.58-3.19-15.1-2.97-4.53-7.72-8.25-13.33-10.58-5.61-2.34-11.99-3.3-18.2-2.9l-3.84.25-1.04-3.23h0c-.69-2.4-1.82-4.84-3.19-7.13-1.4-2.28-3.09-4.43-5.05-6.38s-4.24-3.65-6.72-5.11-5.19-2.69-8.07-3.56c-5.75-1.78-12.06-2.35-18.23-1.73-6.17.65-12.13,2.5-17.37,5.28l-3.74,1.99-2.66-2.91h0c-4.94-5.52-11.57-10.27-19.06-13.37-7.49-3.09-15.99-4.58-24.44-3.98-8.44.53-16.77,2.89-23.96,6.75-7.27,3.79-13.34,9.06-17.95,15.07l-1.78,2.32-2.89-1.42h0c-6.88-3.52-14.61-6.02-22.67-6.89-4.02-.46-8.09-.56-12.12-.28-4.03.29-8.01,1-11.82,2.07-3.81,1.08-7.46,2.53-10.82,4.35-3.34,1.84-6.4,4.01-9.1,6.47-5.4,4.91-9.4,10.94-11.65,17.29h0l-.73,2.24-2.91-.53c-6.48-1.19-13.28-1.17-19.58.3-6.29,1.45-12.06,4.23-16.4,8.05-2.16,1.92-3.91,4.1-5.28,6.41-1.38,2.31-2.28,4.79-2.72,7.35-.46,2.56-.48,5.18-.14,7.78.18,1.3.44,2.6.8,3.87.17.64.38,1.27.6,1.89l.35.91.19.44.02.06.06.14.08.21c.09.29.16.6.19.92.07.64-.03,1.28-.22,1.82h-.03Z"/>
    </g>
    <g class="st3">
      <g class="st3">
        <text class="st5" transform="translate(87.24 132.09) scale(1.02 1)"><tspan x="0" y="0">Bariqa</tspan></text>
      </g>
    </g>
    <g class="st3">
      <g class="st3">
        <text class="st2" transform="translate(91.14 128.28) scale(1.02 1)"><tspan x="0" y="0">Bariqa</tspan></text>
      </g>
    </g>
  </g>
  <g class="st13">
    <g>
      <g class="st12">
        <path class="st14" d="M22.13,100.96c-.28.39-.46.9-.47,1.39,0,.25.03.49.09.71l.05.16s.05.12.03.08l-.03-.08-.23-.64-.42-1.26c-.25-.84-.48-1.68-.67-2.52-.39-1.68-.65-3.38-.8-5.08-.28-3.41-.08-6.86.7-10.26,1.48-6.82,5.73-13.26,11.65-18.13,5.98-4.88,13.63-8.17,21.66-9.74,8.05-1.59,16.5-1.31,24.36.41l-3.89,1.83h0c2.64-7.61,7.26-14.7,13.71-20.66,3.22-2.97,6.9-5.63,10.94-7.87,4.05-2.23,8.46-4.01,13.06-5.34,4.6-1.32,9.39-2.21,14.24-2.58,4.85-.36,9.74-.27,14.55.26,9.66,1,18.9,3.92,27.13,8.08h0l-5,.97c5.25-7.24,12.3-13.71,20.96-18.48,8.57-4.85,18.69-7.99,29.23-8.88,10.53-.97,21.45.69,31.04,4.41,9.62,3.77,17.87,9.37,24.37,16.26h0l-6.85-.99c6.85-3.65,14.7-6.08,22.86-6.95,8.16-.83,16.61-.08,24.37,2.32,3.89,1.18,7.56,2.83,10.93,4.81s6.45,4.3,9.07,6.9c5.25,5.24,8.9,11.24,10.87,17.84h0l-5.22-3.18c8.51-.22,17.05,1.46,24.37,4.9,7.32,3.43,13.38,8.65,16.97,14.86,3.65,6.2,4.62,13.33,3.03,19.92-1.57,6.61-5.54,12.72-11.12,17.51h0l-.24-3.28c7.71,5.45,13.57,12.81,15.86,21.06,1.11,4.11,1.44,8.43.5,12.65-.89,4.22-3.01,8.27-5.97,11.77-5.97,7.03-15.17,11.89-25.1,14.01-4.97,1.07-10.13,1.58-15.27,1.37-5.14-.23-10.2-1.09-15.05-2.44l3.9-1.66c-1.7,5.69-5.02,11.32-10.46,15.66-2.71,2.16-5.92,3.9-9.31,5.27-3.43,1.33-7.09,2.15-10.78,2.65-3.7.51-7.44.49-11.14.28-3.7-.26-7.32-.88-10.86-1.7-7.05-1.75-13.64-4.55-19.54-8.07h0l7.94-2.05c-.76,1.96-1.62,3.63-2.63,5.35-1,1.69-2.1,3.34-3.34,4.92-2.47,3.17-5.44,6.14-8.92,8.73-3.49,2.57-7.47,4.8-11.86,6.35-4.38,1.54-9.03,2.54-13.76,2.88-9.47.75-18.99-1.09-27.19-4.66-8.28-3.54-15.13-9.01-20.11-15.36l8.39.21c-2.54,2.8-5.39,5.42-8.6,7.75-3.25,2.28-6.81,4.29-10.63,5.94-3.82,1.64-7.94,2.84-12.18,3.63-4.24.79-8.66,1.12-13.07.85-4.4-.26-8.79-1.06-12.92-2.43-4.13-1.37-7.98-3.33-11.3-5.69-3.33-2.37-6.15-5.11-8.52-8.05-2.36-2.96-4.27-6.06-5.71-9.46l8.12,1.77c-5.91,4.13-12.9,7.41-20.6,8.98-3.83.81-7.81,1.26-11.83,1.18-4.01-.06-8.06-.53-11.97-1.62-3.89-1.1-7.63-2.76-10.85-5.03-3.24-2.25-5.83-5.14-7.58-8.22-1.76-3.09-2.8-6.34-3.23-9.57-.44-3.25-.43-6.4.14-9.7l6.25,4.59c-8.14,1.73-17.03,1-24.59-2.04-7.56-2.99-13.87-8.39-16.78-14.99-2.95-6.58-2.48-13.94.8-20.23,1.63-3.16,3.95-6.07,6.82-8.58,1.42-1.27,3.02-2.39,4.69-3.43l1.29-.74.65-.37.31-.18s.01,0,.02.02c.04.07.18.4.66.71h.01ZM31.52,104.01c-1.1,1.03-2.53,2.09-4.06,2.88l-.57.29-.24.14-.46.27-.93.53c-1.19.74-2.35,1.54-3.36,2.46-2.06,1.79-3.72,3.89-4.89,6.15-2.36,4.52-2.64,9.72-.62,14.22,1.98,4.51,6.33,8.27,11.73,10.42,5.4,2.17,11.77,2.71,17.62,1.46l7.27-1.55-1.02,6.14c-.82,4.91-.21,10.33,2.25,14.57,2.39,4.3,6.9,7.36,12.52,8.94,2.8.78,5.83,1.13,8.87,1.18,3.05.07,6.15-.28,9.15-.92,6.05-1.21,11.65-3.84,16.46-7.19l5.66-3.94,2.45,5.71c2.27,5.27,6.22,10.33,11.29,13.94,5.08,3.66,11.52,5.73,18.27,6.12,3.37.22,6.81-.04,10.16-.67s6.64-1.57,9.72-2.9c3.07-1.33,5.96-2.96,8.62-4.82,2.61-1.91,4.95-4.06,7.05-6.36l4.4-4.84,3.98,5.05c4.09,5.18,9.64,9.63,16.32,12.47,6.6,2.88,14.18,4.32,21.51,3.72,3.66-.27,7.23-1.05,10.59-2.21,3.35-1.17,6.4-2.89,9.15-4.91,2.74-2.03,5.15-4.42,7.18-7.04,1.02-1.3,1.94-2.67,2.77-4.07.82-1.38,1.57-2.89,2.08-4.19l2.17-5.62,5.76,3.57h0c4.84,3.21,10.3,5.82,16.14,7.54,2.93.81,5.94,1.47,8.99,1.8,3.04.29,6.14.45,9.16.16,3.01-.28,5.99-.81,8.76-1.75,2.74-.97,5.33-2.22,7.59-3.83,4.51-3.24,7.68-7.81,9.48-12.76l.91-2.49,2.99.84c4.31,1.2,8.78,1.97,13.31,2.19,4.53.2,9.08-.25,13.46-1.18,8.75-1.84,16.79-6.11,21.86-12.07,2.52-2.97,4.3-6.33,5.07-9.88.82-3.55.54-7.25-.4-10.82-1.95-7.17-7.11-13.73-13.96-18.6l-2.06-1.47,1.82-1.82h0c4.61-4.37,7.66-9.76,8.63-15.34.99-5.58-.2-11.31-3.41-16.14-3.18-4.85-8.26-8.82-14.25-11.31-6-2.5-12.82-3.53-19.46-3.1l-4.11.27-1.11-3.46h0c-.73-2.56-1.94-5.18-3.41-7.62-1.49-2.44-3.3-4.74-5.4-6.82s-4.53-3.9-7.19-5.46c-2.65-1.56-5.54-2.87-8.63-3.8-6.15-1.9-12.9-2.51-19.49-1.85-6.59.7-12.98,2.68-18.57,5.65l-4,2.13-2.84-3.12h0c-5.28-5.91-12.37-10.98-20.38-14.3-8.01-3.3-17.1-4.9-26.14-4.26-9.02.57-17.93,3.09-25.61,7.22-7.77,4.05-14.26,9.69-19.19,16.12l-1.91,2.48-3.09-1.52h0c-7.36-3.76-15.62-6.44-24.24-7.37-4.29-.49-8.65-.6-12.96-.3-4.31.31-8.56,1.07-12.64,2.22-4.07,1.15-7.98,2.7-11.57,4.65-3.57,1.96-6.85,4.29-9.73,6.92-5.77,5.25-10.05,11.7-12.46,18.49h0l-.78,2.4-3.11-.57c-6.93-1.27-14.2-1.26-20.94.32-6.72,1.55-12.9,4.52-17.53,8.61-2.31,2.05-4.19,4.38-5.64,6.85-1.48,2.47-2.44,5.12-2.91,7.86-.49,2.73-.52,5.54-.15,8.32.19,1.39.47,2.78.86,4.14.18.68.41,1.35.64,2.02l.38.98.2.47.02.06.06.15.08.23c.1.31.17.64.21.98.07.68-.03,1.37-.23,1.94h.03,0Z"/>
      </g>
      <path class="st9" d="M28.19,100.91c-.27.38-.44.87-.45,1.34,0,.24.03.47.09.68l.05.15s.05.12.03.08l-.03-.08-.23-.62-.4-1.22c-.24-.81-.47-1.62-.64-2.43-.38-1.62-.62-3.26-.77-4.9-.27-3.29-.08-6.62.68-9.9,1.43-6.58,5.53-12.79,11.24-17.49,5.77-4.7,13.15-7.89,20.9-9.39,7.77-1.53,15.92-1.27,23.51.4l-3.76,1.76h0c2.55-7.34,7.01-14.18,13.22-19.93,3.1-2.87,6.66-5.43,10.55-7.6,3.91-2.15,8.17-3.87,12.6-5.15,4.44-1.28,9.06-2.13,13.74-2.49,4.68-.35,9.4-.26,14.04.25,9.32.97,18.24,3.79,26.18,7.79h0l-4.82.94c5.06-6.99,11.87-13.22,20.22-17.83,8.26-4.68,18.03-7.71,28.2-8.56,10.16-.93,20.7.66,29.95,4.26,9.28,3.64,17.24,9.04,23.51,15.68h0l-6.61-.95c6.61-3.52,14.18-5.87,22.06-6.7,7.87-.8,16.03-.08,23.51,2.24,3.75,1.14,7.29,2.73,10.54,4.64s6.23,4.15,8.75,6.66c5.07,5.05,8.59,10.84,10.49,17.21h0l-5.03-3.07c8.21-.21,16.45,1.41,23.52,4.72,7.06,3.31,12.91,8.34,16.37,14.34,3.52,5.99,4.46,12.86,2.93,19.22-1.52,6.38-5.34,12.28-10.73,16.89h0l-.23-3.17c7.44,5.26,13.09,12.36,15.3,20.32,1.07,3.97,1.39,8.14.48,12.21-.86,4.07-2.91,7.98-5.76,11.36-5.76,6.78-14.64,11.47-24.22,13.52-4.79,1.04-9.78,1.52-14.74,1.32-4.95-.22-9.84-1.05-14.52-2.36l3.76-1.6c-1.64,5.49-4.84,10.92-10.09,15.11-2.62,2.08-5.71,3.77-8.98,5.08-3.31,1.28-6.84,2.08-10.4,2.56-3.57.49-7.18.47-10.75.27-3.57-.25-7.06-.85-10.48-1.64-6.8-1.68-13.16-4.39-18.86-7.79h0l7.66-1.98c-.74,1.89-1.56,3.51-2.53,5.16-.96,1.63-2.03,3.22-3.23,4.75-2.39,3.06-5.24,5.93-8.61,8.42-3.36,2.48-7.2,4.63-11.44,6.12-4.23,1.48-8.72,2.45-13.27,2.78-9.14.73-18.32-1.05-26.24-4.5-7.99-3.41-14.6-8.7-19.41-14.82l8.09.2c-2.45,2.71-5.2,5.23-8.29,7.48-3.14,2.2-6.57,4.14-10.25,5.73-3.69,1.58-7.66,2.74-11.75,3.5s-8.35,1.09-12.61.82c-4.25-.25-8.48-1.03-12.47-2.35-3.99-1.32-7.7-3.21-10.9-5.49-3.21-2.28-5.94-4.93-8.22-7.77-2.28-2.85-4.12-5.85-5.51-9.12l7.83,1.71c-5.7,3.98-12.44,7.15-19.88,8.66-3.69.79-7.54,1.22-11.41,1.14-3.87-.06-7.78-.52-11.55-1.56-3.75-1.06-7.36-2.66-10.47-4.85-3.13-2.17-5.62-4.96-7.31-7.93-1.7-2.98-2.7-6.12-3.11-9.23-.42-3.13-.42-6.18.14-9.36l6.04,4.43c-7.85,1.67-16.43.97-23.72-1.97-7.29-2.89-13.38-8.09-16.19-14.47-2.85-6.35-2.4-13.45.77-19.52,1.57-3.05,3.81-5.86,6.58-8.28,1.37-1.22,2.91-2.31,4.52-3.31l1.24-.71.62-.36.3-.17s.01,0,.02.02c.04.07.17.39.63.68v.02h.01ZM37.25,103.85c-1.06.99-2.44,2.01-3.92,2.78l-.55.28-.24.14-.44.26-.89.51c-1.15.72-2.26,1.49-3.24,2.37-1.98,1.73-3.59,3.75-4.72,5.93-2.28,4.36-2.55,9.38-.6,13.72,1.91,4.35,6.11,7.98,11.32,10.06,5.21,2.1,11.35,2.62,17,1.41l7.02-1.5-.98,5.93c-.79,4.74-.2,9.97,2.17,14.06,2.31,4.15,6.66,7.1,12.08,8.62,2.7.75,5.62,1.09,8.56,1.14,2.95.07,5.93-.27,8.83-.89,5.84-1.17,11.24-3.71,15.88-6.94l5.47-3.8,2.37,5.51c2.19,5.08,6,9.97,10.9,13.45,4.9,3.53,11.12,5.53,17.63,5.91,3.25.21,6.58-.04,9.81-.64,3.23-.61,6.41-1.52,9.38-2.8,2.97-1.29,5.75-2.85,8.32-4.65,2.52-1.84,4.78-3.91,6.81-6.14l4.25-4.67,3.84,4.87c3.94,5,9.31,9.3,15.75,12.03,6.37,2.78,13.68,4.17,20.75,3.59,3.53-.26,6.98-1.01,10.21-2.14,3.24-1.13,6.17-2.79,8.83-4.74,2.64-1.96,4.96-4.27,6.93-6.79.99-1.26,1.87-2.58,2.67-3.93.79-1.33,1.52-2.78,2.01-4.05l2.1-5.42,5.56,3.45h0c4.67,3.1,9.93,5.62,15.57,7.28,2.83.78,5.73,1.41,8.68,1.74,2.94.28,5.92.44,8.84.15,2.91-.27,5.78-.79,8.45-1.69,2.65-.94,5.15-2.14,7.32-3.7,4.36-3.13,7.41-7.54,9.15-12.31l.88-2.41,2.88.81c4.15,1.16,8.47,1.9,12.84,2.11,4.37.19,8.77-.24,12.98-1.14,8.44-1.77,16.2-5.9,21.09-11.65,2.43-2.87,4.15-6.11,4.89-9.53.79-3.42.52-7-.39-10.44-1.89-6.92-6.86-13.25-13.47-17.95l-1.99-1.42,1.76-1.75h0c4.45-4.21,7.39-9.41,8.33-14.8.96-5.38-.2-10.91-3.29-15.57-3.06-4.68-7.97-8.51-13.75-10.91-5.79-2.41-12.37-3.41-18.78-2.99l-3.96.26-1.07-3.33h0c-.71-2.47-1.87-5-3.29-7.35-1.44-2.36-3.19-4.58-5.21-6.58-2.02-2.01-4.37-3.77-6.93-5.27-2.56-1.51-5.35-2.77-8.33-3.67-5.93-1.84-12.44-2.43-18.8-1.78-6.36.68-12.52,2.58-17.92,5.45l-3.86,2.05-2.74-3.01h0c-5.09-5.7-11.94-10.6-19.66-13.8-7.73-3.19-16.5-4.73-25.22-4.11-8.7.55-17.3,2.98-24.71,6.97-7.5,3.91-13.76,9.35-18.52,15.55l-1.84,2.4-2.98-1.46h0c-7.1-3.63-15.08-6.21-23.39-7.11-4.14-.47-8.35-.58-12.51-.29-4.16.3-8.26,1.04-12.19,2.14-3.93,1.11-7.7,2.61-11.16,4.48-3.45,1.9-6.61,4.14-9.39,6.68-5.57,5.06-9.7,11.29-12.02,17.84h0l-.76,2.31-3-.55c-6.68-1.22-13.7-1.21-20.2.31-6.49,1.49-12.45,4.36-16.91,8.31-2.23,1.98-4.04,4.23-5.44,6.61-1.42,2.38-2.35,4.94-2.81,7.58-.47,2.64-.5,5.34-.14,8.03.19,1.34.45,2.68.83,4,.18.66.4,1.31.62,1.95l.36.94.19.45.02.06.06.15.08.22c.1.3.17.62.2.95.07.66-.03,1.32-.22,1.87h-.04Z"/>
      <path class="st10" d="M37.69,100.66c-.69-1.55-6.76-15.99,3.83-28.71,9.04-10.86,26.46-15.94,43.35-12.39,1.18-3.44,6.78-18.32,25-26.8,17.47-8.13,39.8-7.23,57.88,2.14,12.06-16.5,33.85-25.77,55.25-23.58,21.8,2.23,34.33,15.45,36.83,18.22,13.69-7.36,30.92-8.23,44.73-2.14,16.34,7.21,20.49,20.9,21.11,23.11,16.72-.79,31.81,7.3,36.83,19.29,4.11,9.79.97,20.91-7.96,28.91,12.55,8.83,17.8,22.2,13.23,33.25-6.17,14.92-29.73,24.38-52.68,17.62-1.27,3.86-4.31,10.47-11.84,15.01-12.75,7.67-33.28,6.32-49.99-4.29-.54,1.44-6.94,17.63-26.31,22.51-17,4.28-36.71-1.99-47.29-15.76-11.72,13.34-31.55,18.63-47.42,13.62-15.41-4.87-20.94-17.52-21.8-19.6-15.45,11.06-36.12,10.91-46.61,2.45-9.53-7.69-7.56-19.73-7.25-21.41-13.22,2.77-26.81-2.43-32.21-11.81-6.07-10.53-.46-23.99,13.34-29.64h-.02Z"/>
      <path d="M33.31,99.23c-.26.36-.43.84-.44,1.3,0,.23.03.46.08.66l.05.15s.05.12.03.08l-.03-.07-.22-.6-.39-1.18c-.23-.79-.45-1.57-.62-2.36-.37-1.57-.6-3.16-.74-4.75-.26-3.19-.07-6.42.66-9.6,1.38-6.38,5.36-12.4,10.89-16.96,5.6-4.56,12.75-7.64,20.26-9.11,7.53-1.49,15.43-1.23,22.79.38l-3.64,1.71h0c2.47-7.12,6.79-13.74,12.82-19.32,3.01-2.78,6.45-5.26,10.23-7.36,3.79-2.08,7.92-3.75,12.21-4.99,4.3-1.24,8.78-2.06,13.32-2.41,4.54-.34,9.11-.25,13.61.24,9.03.94,17.68,3.67,25.37,7.55h0l-4.68.91c4.91-6.77,11.51-12.82,19.6-17.28,8.01-4.53,17.48-7.47,27.34-8.3,9.85-.9,20.06.64,29.03,4.13,8.99,3.52,16.71,8.76,22.79,15.2h0l-6.4-.92c6.41-3.41,13.75-5.69,21.38-6.5,7.63-.78,15.54-.08,22.79,2.17,3.64,1.1,7.07,2.65,10.22,4.5s6.03,4.02,8.48,6.45c4.91,4.9,8.32,10.51,10.16,16.68h0l-4.88-2.98c7.95-.2,15.94,1.37,22.79,4.58,6.85,3.2,12.51,8.09,15.87,13.9,3.41,5.8,4.32,12.47,2.84,18.63-1.47,6.18-5.18,11.9-10.4,16.38h0l-.23-3.07c7.21,5.1,12.69,11.98,14.83,19.69,1.03,3.85,1.35,7.89.46,11.83-.83,3.95-2.82,7.73-5.59,11.01-5.58,6.58-14.19,11.12-23.48,13.1-4.65,1-9.48,1.48-14.28,1.28-4.8-.22-9.54-1.02-14.08-2.28l3.65-1.55c-1.59,5.33-4.69,10.58-9.78,14.65-2.53,2.02-5.53,3.65-8.71,4.92-3.21,1.24-6.63,2.01-10.08,2.48-3.46.48-6.96.46-10.42.26-3.46-.24-6.84-.82-10.16-1.59-6.59-1.63-12.75-4.25-18.28-7.55h0l7.42-1.92c-.71,1.83-1.51,3.4-2.46,5-.93,1.58-1.97,3.12-3.13,4.6-2.31,2.97-5.08,5.74-8.34,8.16-3.26,2.4-6.98,4.49-11.09,5.94-4.1,1.44-8.45,2.37-12.87,2.7-8.86.71-17.76-1.02-25.43-4.36-7.74-3.31-14.15-8.43-18.81-14.36l7.84.2c-2.37,2.62-5.04,5.07-8.04,7.25-3.04,2.14-6.37,4.01-9.94,5.55-3.58,1.53-7.42,2.66-11.39,3.4-3.97.73-8.1,1.05-12.22.79-4.12-.24-8.22-1-12.08-2.28-3.87-1.28-7.46-3.11-10.57-5.32-3.12-2.21-5.76-4.78-7.96-7.53-2.21-2.76-4-5.67-5.34-8.84l7.59,1.66c-5.53,3.86-12.06,6.93-19.27,8.39-3.58.76-7.3,1.18-11.06,1.1-3.75-.06-7.54-.5-11.19-1.51-3.64-1.03-7.14-2.58-10.15-4.7-3.03-2.11-5.45-4.81-7.09-7.69-1.64-2.89-2.62-5.93-3.02-8.95-.41-3.04-.4-5.99.13-9.07l5.85,4.29c-7.61,1.62-15.93.94-22.99-1.91-7.07-2.8-12.97-7.84-15.69-14.02-2.76-6.16-2.32-13.04.74-18.92,1.52-2.95,3.69-5.68,6.38-8.02,1.33-1.19,2.82-2.24,4.39-3.21l1.21-.69.6-.34.29-.16.02.02c.04.06.17.38.61.66h.04,0ZM42.08,102.08c-1.02.96-2.37,1.95-3.8,2.69l-.53.27-.23.13-.43.25-.87.5c-1.12.7-2.19,1.44-3.14,2.3-1.92,1.68-3.48,3.63-4.57,5.75-2.21,4.23-2.47,9.09-.58,13.3,1.85,4.22,5.92,7.74,10.97,9.75,5.05,2.03,11,2.54,16.48,1.37l6.8-1.45-.95,5.74c-.76,4.59-.19,9.66,2.1,13.63,2.24,4.02,6.46,6.88,11.71,8.36,2.62.73,5.45,1.06,8.3,1.1,2.86.07,5.75-.26,8.56-.86,5.66-1.14,10.9-3.6,15.4-6.72l5.3-3.68,2.3,5.34c2.12,4.93,5.82,9.66,10.56,13.04,4.75,3.42,10.77,5.36,17.09,5.73,3.15.21,6.37-.04,9.51-.62,3.13-.59,6.21-1.47,9.09-2.71,2.88-1.25,5.58-2.77,8.06-4.51,2.44-1.79,4.63-3.79,6.6-5.95l4.12-4.53,3.73,4.72c3.82,4.84,9.02,9.01,15.26,11.66,6.18,2.69,13.26,4.04,20.12,3.48,3.43-.25,6.77-.98,9.9-2.07,3.14-1.1,5.98-2.7,8.55-4.59,2.56-1.9,4.81-4.14,6.72-6.58.96-1.22,1.82-2.5,2.59-3.81.77-1.29,1.47-2.7,1.94-3.92l2.03-5.26,5.39,3.34h0c4.53,3,9.63,5.44,15.09,7.05,2.74.76,5.55,1.37,8.41,1.69,2.85.27,5.74.42,8.56.15s5.6-.76,8.2-1.64c2.56-.91,4.99-2.07,7.1-3.58,4.22-3.03,7.18-7.31,8.87-11.93l.85-2.33,2.8.78c4.03,1.13,8.21,1.84,12.45,2.05,4.24.18,8.5-.23,12.59-1.1,8.18-1.72,15.7-5.72,20.45-11.29,2.36-2.78,4.02-5.92,4.74-9.24.76-3.32.51-6.78-.37-10.12-1.83-6.71-6.64-12.84-13.06-17.4l-1.93-1.37,1.7-1.7h0c4.31-4.08,7.16-9.12,8.08-14.34.93-5.22-.19-10.58-3.19-15.1-2.97-4.53-7.72-8.25-13.33-10.58-5.61-2.34-11.99-3.3-18.2-2.9l-3.84.25-1.04-3.23h0c-.69-2.4-1.82-4.84-3.19-7.13-1.4-2.28-3.09-4.43-5.05-6.38s-4.24-3.65-6.72-5.11-5.19-2.69-8.07-3.56c-5.75-1.78-12.06-2.35-18.23-1.73-6.17.65-12.13,2.5-17.37,5.28l-3.74,1.99-2.66-2.91h0c-4.94-5.52-11.57-10.27-19.06-13.37-7.49-3.09-15.99-4.58-24.44-3.98-8.44.53-16.77,2.89-23.96,6.75-7.27,3.79-13.34,9.06-17.95,15.07l-1.78,2.32-2.89-1.42h0c-6.88-3.52-14.61-6.02-22.67-6.89-4.02-.46-8.09-.56-12.12-.28-4.03.29-8.01,1-11.82,2.07-3.81,1.08-7.46,2.53-10.82,4.35-3.34,1.84-6.4,4.01-9.1,6.47-5.4,4.91-9.4,10.94-11.65,17.29h0l-.73,2.24-2.91-.53c-6.48-1.19-13.28-1.17-19.58.3-6.29,1.45-12.06,4.23-16.4,8.05-2.16,1.92-3.91,4.1-5.28,6.41-1.38,2.31-2.28,4.79-2.72,7.35-.46,2.56-.48,5.18-.14,7.78.18,1.3.44,2.6.8,3.87.17.64.38,1.27.6,1.89l.35.91.19.44.02.06.06.14.08.21c.09.29.16.6.19.92.07.64-.03,1.28-.22,1.82h-.03Z"/>
    </g>
    <g class="st3">
      <g class="st3">
        <text class="st0" transform="translate(100.3 130.21) scale(1.02 1)"><tspan x="0" y="0">Zakki</tspan></text>
      </g>
    </g>
    <g class="st3">
      <g class="st3">
        <text class="st2" transform="translate(104.3 125.32) scale(1.02 1)"><tspan x="0" y="0">Zakki</tspan></text>
      </g>
    </g>
  </g>
  <g>
    <g>
      <g class="st12">
        <path class="st14" d="M22.14,103.07c-.28.39-.46.9-.47,1.39,0,.25.03.49.09.71l.05.16s.05.12.03.08l-.03-.08-.23-.64-.42-1.26c-.25-.84-.48-1.68-.67-2.52-.39-1.68-.65-3.38-.8-5.08-.28-3.41-.08-6.86.7-10.26,1.48-6.82,5.73-13.26,11.65-18.13,5.98-4.88,13.63-8.17,21.66-9.74,8.05-1.59,16.5-1.31,24.36.41l-3.89,1.83h0c2.64-7.61,7.26-14.7,13.71-20.66,3.22-2.97,6.9-5.63,10.94-7.87,4.05-2.23,8.46-4.01,13.06-5.34,4.6-1.32,9.39-2.21,14.24-2.58,4.85-.36,9.74-.27,14.55.26,9.66,1,18.9,3.92,27.13,8.08h0l-5,.97c5.25-7.24,12.3-13.71,20.96-18.48,8.57-4.85,18.69-7.99,29.23-8.88,10.53-.97,21.45.69,31.04,4.41,9.62,3.77,17.87,9.37,24.37,16.26h0l-6.85-.99c6.85-3.65,14.7-6.08,22.86-6.95,8.16-.83,16.61-.08,24.37,2.32,3.89,1.18,7.56,2.83,10.93,4.81s6.45,4.3,9.07,6.9c5.25,5.24,8.9,11.24,10.87,17.84h0l-5.22-3.18c8.51-.22,17.05,1.46,24.37,4.9,7.32,3.43,13.38,8.65,16.97,14.86,3.65,6.2,4.62,13.33,3.03,19.92-1.57,6.61-5.54,12.72-11.12,17.51h0l-.24-3.28c7.71,5.45,13.57,12.81,15.86,21.06,1.11,4.11,1.44,8.43.5,12.65-.89,4.22-3.01,8.27-5.97,11.77-5.97,7.03-15.17,11.89-25.1,14.01-4.97,1.07-10.13,1.58-15.27,1.37-5.14-.23-10.2-1.09-15.05-2.44l3.9-1.66c-1.7,5.69-5.02,11.32-10.46,15.66-2.71,2.16-5.92,3.9-9.31,5.27-3.43,1.33-7.09,2.15-10.78,2.65-3.7.51-7.44.49-11.14.28-3.7-.26-7.32-.88-10.86-1.7-7.05-1.75-13.64-4.55-19.54-8.07h0l7.94-2.05c-.76,1.96-1.62,3.63-2.63,5.35-1,1.69-2.1,3.34-3.34,4.92-2.47,3.17-5.44,6.14-8.92,8.73-3.49,2.57-7.47,4.8-11.86,6.35-4.38,1.54-9.03,2.54-13.76,2.88-9.47.75-18.99-1.09-27.19-4.66-8.28-3.54-15.13-9.01-20.11-15.36l8.39.21c-2.54,2.8-5.39,5.42-8.6,7.75-3.25,2.28-6.81,4.29-10.63,5.94-3.82,1.64-7.94,2.84-12.18,3.63-4.24.79-8.66,1.12-13.07.85-4.4-.26-8.79-1.06-12.92-2.43-4.13-1.37-7.98-3.33-11.3-5.69-3.33-2.37-6.15-5.11-8.52-8.05-2.36-2.96-4.27-6.06-5.71-9.46l8.12,1.77c-5.91,4.13-12.9,7.41-20.6,8.98-3.83.81-7.81,1.26-11.83,1.18-4.01-.06-8.06-.53-11.97-1.62-3.89-1.1-7.63-2.76-10.85-5.03-3.24-2.25-5.83-5.14-7.58-8.22-1.76-3.09-2.8-6.34-3.23-9.57-.44-3.25-.43-6.4.14-9.7l6.25,4.59c-8.14,1.73-17.03,1-24.59-2.04-7.56-2.99-13.87-8.39-16.78-14.99-2.95-6.58-2.48-13.94.8-20.23,1.63-3.16,3.95-6.07,6.82-8.58,1.42-1.27,3.02-2.39,4.69-3.43l1.29-.74.65-.37.31-.18s.01,0,.02.02c.04.07.18.4.66.71h.01ZM31.53,106.12c-1.1,1.03-2.53,2.09-4.06,2.88l-.57.29-.24.14-.46.27-.93.53c-1.19.74-2.35,1.54-3.36,2.46-2.06,1.79-3.72,3.89-4.89,6.15-2.36,4.52-2.64,9.72-.62,14.22,1.98,4.51,6.33,8.27,11.73,10.42,5.4,2.17,11.77,2.71,17.62,1.46l7.27-1.55-1.02,6.14c-.82,4.91-.21,10.33,2.25,14.57,2.39,4.3,6.9,7.36,12.52,8.94,2.8.78,5.83,1.13,8.87,1.18,3.05.07,6.15-.28,9.15-.92,6.05-1.21,11.65-3.84,16.46-7.19l5.66-3.94,2.45,5.71c2.27,5.27,6.22,10.33,11.29,13.94,5.08,3.66,11.52,5.73,18.27,6.12,3.37.22,6.81-.04,10.16-.67s6.64-1.57,9.72-2.9c3.07-1.33,5.96-2.96,8.62-4.82,2.61-1.91,4.95-4.06,7.05-6.36l4.4-4.84,3.98,5.05c4.09,5.18,9.64,9.63,16.32,12.47,6.6,2.88,14.18,4.32,21.51,3.72,3.66-.27,7.23-1.05,10.59-2.21,3.35-1.17,6.4-2.89,9.15-4.91,2.74-2.03,5.15-4.42,7.18-7.04,1.02-1.3,1.94-2.67,2.77-4.07.82-1.38,1.57-2.89,2.08-4.19l2.17-5.62,5.76,3.57h0c4.84,3.21,10.3,5.82,16.14,7.54,2.93.81,5.94,1.47,8.99,1.8,3.04.29,6.14.45,9.16.16,3.01-.28,5.99-.81,8.76-1.75,2.74-.97,5.33-2.22,7.59-3.83,4.51-3.24,7.68-7.81,9.48-12.76l.91-2.49,2.99.84c4.31,1.2,8.78,1.97,13.31,2.19,4.53.2,9.08-.25,13.46-1.18,8.75-1.84,16.79-6.11,21.86-12.07,2.52-2.97,4.3-6.33,5.07-9.88.82-3.55.54-7.25-.4-10.82-1.95-7.17-7.11-13.73-13.96-18.6l-2.06-1.47,1.82-1.82h0c4.61-4.37,7.66-9.76,8.63-15.34.99-5.58-.2-11.31-3.41-16.14-3.18-4.85-8.26-8.82-14.25-11.31-6-2.5-12.82-3.53-19.46-3.1l-4.11.27-1.11-3.46h0c-.73-2.56-1.94-5.18-3.41-7.62-1.49-2.44-3.3-4.74-5.4-6.82s-4.53-3.9-7.19-5.46c-2.65-1.56-5.54-2.87-8.63-3.8-6.15-1.9-12.9-2.51-19.49-1.85-6.59.7-12.98,2.68-18.57,5.65l-4,2.13-2.84-3.12h0c-5.28-5.91-12.37-10.98-20.38-14.3-8.01-3.3-17.1-4.9-26.14-4.26-9.02.57-17.93,3.09-25.61,7.22-7.77,4.05-14.26,9.69-19.19,16.12l-1.91,2.48-3.09-1.52h0c-7.36-3.76-15.62-6.44-24.24-7.37-4.29-.49-8.65-.6-12.96-.3-4.31.31-8.56,1.07-12.64,2.22-4.07,1.15-7.98,2.7-11.57,4.65-3.57,1.96-6.85,4.29-9.73,6.92-5.77,5.25-10.05,11.7-12.46,18.49h0l-.78,2.4-3.11-.57c-6.93-1.27-14.2-1.26-20.94.32-6.72,1.55-12.9,4.52-17.53,8.61-2.31,2.05-4.19,4.38-5.64,6.85-1.48,2.47-2.44,5.12-2.91,7.86-.49,2.73-.52,5.54-.15,8.32.19,1.39.47,2.78.86,4.14.18.68.41,1.35.64,2.02l.38.98.2.47.02.06.06.15.08.23c.1.31.17.64.21.98.07.68-.03,1.37-.23,1.94h.03,0Z"/>
      </g>
      <path class="st9" d="M28.2,103.02c-.27.38-.44.87-.45,1.34,0,.24.03.47.09.68l.05.15s.05.12.03.08l-.03-.08-.23-.62-.4-1.22c-.24-.81-.47-1.62-.64-2.43-.38-1.62-.62-3.26-.77-4.9-.27-3.29-.08-6.62.68-9.9,1.43-6.58,5.53-12.79,11.24-17.49,5.77-4.7,13.15-7.89,20.9-9.39,7.77-1.53,15.92-1.27,23.51.4l-3.76,1.76h0c2.55-7.34,7.01-14.18,13.22-19.93,3.1-2.87,6.66-5.43,10.55-7.6,3.91-2.15,8.17-3.87,12.6-5.15,4.44-1.28,9.06-2.13,13.74-2.49,4.68-.35,9.4-.26,14.04.25,9.32.97,18.24,3.79,26.18,7.79h0l-4.82.94c5.06-6.99,11.87-13.22,20.22-17.83,8.26-4.68,18.03-7.71,28.2-8.56,10.16-.93,20.7.66,29.95,4.26,9.28,3.64,17.24,9.04,23.51,15.68h0l-6.61-.95c6.61-3.52,14.18-5.87,22.06-6.7,7.87-.8,16.03-.08,23.51,2.24,3.75,1.14,7.29,2.73,10.54,4.64s6.23,4.15,8.75,6.66c5.07,5.05,8.59,10.84,10.49,17.21h0l-5.03-3.07c8.21-.21,16.45,1.41,23.52,4.72,7.06,3.31,12.91,8.34,16.37,14.34,3.52,5.99,4.46,12.86,2.93,19.22-1.52,6.38-5.34,12.28-10.73,16.89h0l-.23-3.17c7.44,5.26,13.09,12.36,15.3,20.32,1.07,3.97,1.39,8.14.48,12.21-.86,4.07-2.91,7.98-5.76,11.36-5.76,6.78-14.64,11.47-24.22,13.52-4.79,1.04-9.78,1.52-14.74,1.32-4.95-.22-9.84-1.05-14.52-2.36l3.76-1.6c-1.64,5.49-4.84,10.92-10.09,15.11-2.62,2.08-5.71,3.77-8.98,5.08-3.31,1.28-6.84,2.08-10.4,2.56-3.57.49-7.18.47-10.75.27-3.57-.25-7.06-.85-10.48-1.64-6.8-1.68-13.16-4.39-18.86-7.79h0l7.66-1.98c-.74,1.89-1.56,3.51-2.53,5.16-.96,1.63-2.03,3.22-3.23,4.75-2.39,3.06-5.24,5.93-8.61,8.42-3.36,2.48-7.2,4.63-11.44,6.12-4.23,1.48-8.72,2.45-13.27,2.78-9.14.73-18.32-1.05-26.24-4.5-7.99-3.41-14.6-8.7-19.41-14.82l8.09.2c-2.45,2.71-5.2,5.23-8.29,7.48-3.14,2.2-6.57,4.14-10.25,5.73-3.69,1.58-7.66,2.74-11.75,3.5s-8.35,1.09-12.61.82c-4.25-.25-8.48-1.03-12.47-2.35-3.99-1.32-7.7-3.21-10.9-5.49-3.21-2.28-5.94-4.93-8.22-7.77-2.28-2.85-4.12-5.85-5.51-9.12l7.83,1.71c-5.7,3.98-12.44,7.15-19.88,8.66-3.69.79-7.54,1.22-11.41,1.14-3.87-.06-7.78-.52-11.55-1.56-3.75-1.06-7.36-2.66-10.47-4.85-3.13-2.17-5.62-4.96-7.31-7.93-1.7-2.98-2.7-6.12-3.11-9.23-.42-3.13-.42-6.18.14-9.36l6.04,4.43c-7.85,1.67-16.43.97-23.72-1.97-7.29-2.89-13.38-8.09-16.19-14.47-2.85-6.35-2.4-13.45.77-19.52,1.57-3.05,3.81-5.86,6.58-8.28,1.37-1.22,2.91-2.31,4.52-3.31l1.24-.71.62-.36.3-.17s.01,0,.02.02c.04.07.17.39.63.68v.02h.01ZM37.26,105.96c-1.06.99-2.44,2.01-3.92,2.78l-.55.28-.24.14-.44.26-.89.51c-1.15.72-2.26,1.49-3.24,2.37-1.98,1.73-3.59,3.75-4.72,5.93-2.28,4.36-2.55,9.38-.6,13.72,1.91,4.35,6.11,7.98,11.32,10.06,5.21,2.1,11.35,2.62,17,1.41l7.02-1.5-.98,5.93c-.79,4.74-.2,9.97,2.17,14.06,2.31,4.15,6.66,7.1,12.08,8.62,2.7.75,5.62,1.09,8.56,1.14,2.95.07,5.93-.27,8.83-.89,5.84-1.17,11.24-3.71,15.88-6.94l5.47-3.8,2.37,5.51c2.19,5.08,6,9.97,10.9,13.45,4.9,3.53,11.12,5.53,17.63,5.91,3.25.21,6.58-.04,9.81-.64,3.23-.61,6.41-1.52,9.38-2.8,2.97-1.29,5.75-2.85,8.32-4.65,2.52-1.84,4.78-3.91,6.81-6.14l4.25-4.67,3.84,4.87c3.94,5,9.31,9.3,15.75,12.03,6.37,2.78,13.68,4.17,20.75,3.59,3.53-.26,6.98-1.01,10.21-2.14,3.24-1.13,6.17-2.79,8.83-4.74,2.64-1.96,4.96-4.27,6.93-6.79.99-1.26,1.87-2.58,2.67-3.93.79-1.33,1.52-2.78,2.01-4.05l2.1-5.42,5.56,3.45h0c4.67,3.1,9.93,5.62,15.57,7.28,2.83.78,5.73,1.41,8.68,1.74,2.94.28,5.92.44,8.84.15,2.91-.27,5.78-.79,8.45-1.69,2.65-.94,5.15-2.14,7.32-3.7,4.36-3.13,7.41-7.54,9.15-12.31l.88-2.41,2.88.81c4.15,1.16,8.47,1.9,12.84,2.11,4.37.19,8.77-.24,12.98-1.14,8.44-1.77,16.2-5.9,21.09-11.65,2.43-2.87,4.15-6.11,4.89-9.53.79-3.42.52-7-.39-10.44-1.89-6.92-6.86-13.25-13.47-17.95l-1.99-1.42,1.76-1.75h0c4.45-4.21,7.39-9.41,8.33-14.8.96-5.38-.2-10.91-3.29-15.57-3.06-4.68-7.97-8.51-13.75-10.91-5.79-2.41-12.37-3.41-18.78-2.99l-3.96.26-1.07-3.33h0c-.71-2.47-1.87-5-3.29-7.35-1.44-2.36-3.19-4.58-5.21-6.58-2.02-2.01-4.37-3.77-6.93-5.27-2.56-1.51-5.35-2.77-8.33-3.67-5.93-1.84-12.44-2.43-18.8-1.78-6.36.68-12.52,2.58-17.92,5.45l-3.86,2.05-2.74-3.01h0c-5.09-5.7-11.94-10.6-19.66-13.8-7.73-3.19-16.5-4.73-25.22-4.11-8.7.55-17.3,2.98-24.71,6.97-7.5,3.91-13.76,9.35-18.52,15.55l-1.84,2.4-2.98-1.46h0c-7.1-3.63-15.08-6.21-23.39-7.11-4.14-.47-8.35-.58-12.51-.29-4.16.3-8.26,1.04-12.19,2.14-3.93,1.11-7.7,2.61-11.16,4.48-3.45,1.9-6.61,4.14-9.39,6.68-5.57,5.06-9.7,11.29-12.02,17.84h0l-.76,2.31-3-.55c-6.68-1.22-13.7-1.21-20.2.31-6.49,1.49-12.45,4.36-16.91,8.31-2.23,1.98-4.04,4.23-5.44,6.61-1.42,2.38-2.35,4.94-2.81,7.58-.47,2.64-.5,5.34-.14,8.03.19,1.34.45,2.68.83,4,.18.66.4,1.31.62,1.95l.36.94.19.45.02.06.06.15.08.22c.1.3.17.62.2.95.07.66-.03,1.32-.22,1.87h-.04Z"/>
      <path class="st6" d="M37.7,102.77c-.69-1.55-6.76-15.99,3.83-28.71,9.04-10.86,26.46-15.94,43.35-12.39,1.18-3.44,6.78-18.32,25-26.8,17.47-8.13,39.8-7.23,57.88,2.14,12.06-16.5,33.85-25.77,55.25-23.58,21.8,2.23,34.33,15.45,36.83,18.22,13.69-7.36,30.92-8.23,44.73-2.14,16.34,7.21,20.49,20.9,21.11,23.11,16.72-.79,31.81,7.3,36.83,19.29,4.11,9.79.97,20.91-7.96,28.91,12.55,8.83,17.8,22.2,13.23,33.25-6.17,14.92-29.73,24.38-52.68,17.62-1.27,3.86-4.31,10.47-11.84,15.01-12.75,7.67-33.28,6.32-49.99-4.29-.54,1.44-6.94,17.63-26.31,22.51-17,4.28-36.71-1.99-47.29-15.76-11.72,13.34-31.55,18.63-47.42,13.62-15.41-4.87-20.94-17.52-21.8-19.6-15.45,11.06-36.12,10.91-46.61,2.45-9.53-7.69-7.56-19.73-7.25-21.41-13.22,2.77-26.81-2.43-32.21-11.81-6.07-10.53-.46-23.99,13.34-29.64h-.02Z"/>
      <path d="M33.32,101.34c-.26.36-.43.84-.44,1.3,0,.23.03.46.08.66l.05.15s.05.12.03.08l-.03-.07-.22-.6-.39-1.18c-.23-.79-.45-1.57-.62-2.36-.37-1.57-.6-3.16-.74-4.75-.26-3.19-.07-6.42.66-9.6,1.38-6.38,5.36-12.4,10.89-16.96,5.6-4.56,12.75-7.64,20.26-9.11,7.53-1.49,15.43-1.23,22.79.38l-3.64,1.71h0c2.47-7.12,6.79-13.74,12.82-19.32,3.01-2.78,6.45-5.26,10.23-7.36,3.79-2.08,7.92-3.75,12.21-4.99,4.3-1.24,8.78-2.06,13.32-2.41,4.54-.34,9.11-.25,13.61.24,9.03.94,17.68,3.67,25.37,7.55h0l-4.68.91c4.91-6.77,11.51-12.82,19.6-17.28,8.01-4.53,17.48-7.47,27.34-8.3,9.85-.9,20.06.64,29.03,4.13,8.99,3.52,16.71,8.76,22.79,15.2h0l-6.4-.92c6.41-3.41,13.75-5.69,21.38-6.5,7.63-.78,15.54-.08,22.79,2.17,3.64,1.1,7.07,2.65,10.22,4.5s6.03,4.02,8.48,6.45c4.91,4.9,8.32,10.51,10.16,16.68h0l-4.88-2.98c7.95-.2,15.94,1.37,22.79,4.58,6.85,3.2,12.51,8.09,15.87,13.9,3.41,5.8,4.32,12.47,2.84,18.63-1.47,6.18-5.18,11.9-10.4,16.38h0l-.23-3.07c7.21,5.1,12.69,11.98,14.83,19.69,1.03,3.85,1.35,7.89.46,11.83-.83,3.95-2.82,7.73-5.59,11.01-5.58,6.58-14.19,11.12-23.48,13.1-4.65,1-9.48,1.48-14.28,1.28-4.8-.22-9.54-1.02-14.08-2.28l3.65-1.55c-1.59,5.33-4.69,10.58-9.78,14.65-2.53,2.02-5.53,3.65-8.71,4.92-3.21,1.24-6.63,2.01-10.08,2.48-3.46.48-6.96.46-10.42.26-3.46-.24-6.84-.82-10.16-1.59-6.59-1.63-12.75-4.25-18.28-7.55h0l7.42-1.92c-.71,1.83-1.51,3.4-2.46,5-.93,1.58-1.97,3.12-3.13,4.6-2.31,2.97-5.08,5.74-8.34,8.16-3.26,2.4-6.98,4.49-11.09,5.94-4.1,1.44-8.45,2.37-12.87,2.7-8.86.71-17.76-1.02-25.43-4.36-7.74-3.31-14.15-8.43-18.81-14.36l7.84.2c-2.37,2.62-5.04,5.07-8.04,7.25-3.04,2.14-6.37,4.01-9.94,5.55-3.58,1.53-7.42,2.66-11.39,3.4-3.97.73-8.1,1.05-12.22.79-4.12-.24-8.22-1-12.08-2.28-3.87-1.28-7.46-3.11-10.57-5.32-3.12-2.21-5.76-4.78-7.96-7.53-2.21-2.76-4-5.67-5.34-8.84l7.59,1.66c-5.53,3.86-12.06,6.93-19.27,8.39-3.58.76-7.3,1.18-11.06,1.1-3.75-.06-7.54-.5-11.19-1.51-3.64-1.03-7.14-2.58-10.15-4.7-3.03-2.11-5.45-4.81-7.09-7.69-1.64-2.89-2.62-5.93-3.02-8.95-.41-3.04-.4-5.99.13-9.07l5.85,4.29c-7.61,1.62-15.93.94-22.99-1.91-7.07-2.8-12.97-7.84-15.69-14.02-2.76-6.16-2.32-13.04.74-18.92,1.52-2.95,3.69-5.68,6.38-8.02,1.33-1.19,2.82-2.24,4.39-3.21l1.21-.69.6-.34.29-.16.02.02c.04.06.17.38.61.66h.04,0ZM42.09,104.19c-1.02.96-2.37,1.95-3.8,2.69l-.53.27-.23.13-.43.25-.87.5c-1.12.7-2.19,1.44-3.14,2.3-1.92,1.68-3.48,3.63-4.57,5.75-2.21,4.23-2.47,9.09-.58,13.3,1.85,4.22,5.92,7.74,10.97,9.75,5.05,2.03,11,2.54,16.48,1.37l6.8-1.45-.95,5.74c-.76,4.59-.19,9.66,2.1,13.63,2.24,4.02,6.46,6.88,11.71,8.36,2.62.73,5.45,1.06,8.3,1.1,2.86.07,5.75-.26,8.56-.86,5.66-1.14,10.9-3.6,15.4-6.72l5.3-3.68,2.3,5.34c2.12,4.93,5.82,9.66,10.56,13.04,4.75,3.42,10.77,5.36,17.09,5.73,3.15.21,6.37-.04,9.51-.62,3.13-.59,6.21-1.47,9.09-2.71,2.88-1.25,5.58-2.77,8.06-4.51,2.44-1.79,4.63-3.79,6.6-5.95l4.12-4.53,3.73,4.72c3.82,4.84,9.02,9.01,15.26,11.66,6.18,2.69,13.26,4.04,20.12,3.48,3.43-.25,6.77-.98,9.9-2.07,3.14-1.1,5.98-2.7,8.55-4.59,2.56-1.9,4.81-4.14,6.72-6.58.96-1.22,1.82-2.5,2.59-3.81.77-1.29,1.47-2.7,1.94-3.92l2.03-5.26,5.39,3.34h0c4.53,3,9.63,5.44,15.09,7.05,2.74.76,5.55,1.37,8.41,1.69,2.85.27,5.74.42,8.56.15s5.6-.76,8.2-1.64c2.56-.91,4.99-2.07,7.1-3.58,4.22-3.03,7.18-7.31,8.87-11.93l.85-2.33,2.8.78c4.03,1.13,8.21,1.84,12.45,2.05,4.24.18,8.5-.23,12.59-1.1,8.18-1.72,15.7-5.72,20.45-11.29,2.36-2.78,4.02-5.92,4.74-9.24.76-3.32.51-6.78-.37-10.12-1.83-6.71-6.64-12.84-13.06-17.4l-1.93-1.37,1.7-1.7h0c4.31-4.08,7.16-9.12,8.08-14.34.93-5.22-.19-10.58-3.19-15.1-2.97-4.53-7.72-8.25-13.33-10.58-5.61-2.34-11.99-3.3-18.2-2.9l-3.84.25-1.04-3.23h0c-.69-2.4-1.82-4.84-3.19-7.13-1.4-2.28-3.09-4.43-5.05-6.38s-4.24-3.65-6.72-5.11-5.19-2.69-8.07-3.56c-5.75-1.78-12.06-2.35-18.23-1.73-6.17.65-12.13,2.5-17.37,5.28l-3.74,1.99-2.66-2.91h0c-4.94-5.52-11.57-10.27-19.06-13.37-7.49-3.09-15.99-4.58-24.44-3.98-8.44.53-16.77,2.89-23.96,6.75-7.27,3.79-13.34,9.06-17.95,15.07l-1.78,2.32-2.89-1.42h0c-6.88-3.52-14.61-6.02-22.67-6.89-4.02-.46-8.09-.56-12.12-.28-4.03.29-8.01,1-11.82,2.07-3.81,1.08-7.46,2.53-10.82,4.35-3.34,1.84-6.4,4.01-9.1,6.47-5.4,4.91-9.4,10.94-11.65,17.29h0l-.73,2.24-2.91-.53c-6.48-1.19-13.28-1.17-19.58.3-6.29,1.45-12.06,4.23-16.4,8.05-2.16,1.92-3.91,4.1-5.28,6.41-1.38,2.31-2.28,4.79-2.72,7.35-.46,2.56-.48,5.18-.14,7.78.18,1.3.44,2.6.8,3.87.17.64.38,1.27.6,1.89l.35.91.19.44.02.06.06.14.08.21c.09.29.16.6.19.92.07.64-.03,1.28-.22,1.82h-.03Z"/>
    </g>
    <g class="st1">
      <g class="st1">
        <text class="st4" transform="translate(83.05 132.32) scale(1.02 1)"><tspan x="0" y="0">Hazem</tspan></text>
      </g>
    </g>
    <g class="st1">
      <g class="st1">
        <text class="st2" transform="translate(86.05 126.45) scale(1.02 1)"><tspan x="0" y="0">Hazem</tspan></text>
      </g>
    </g>
  </g>
  <g>
    <g>
      <g class="st12">
        <path class="st14" d="M22.14,103.07c-.28.39-.46.9-.47,1.39,0,.25.03.49.09.71l.05.16s.05.12.03.08l-.03-.08-.23-.64-.42-1.26c-.25-.84-.48-1.68-.67-2.52-.39-1.68-.65-3.38-.8-5.08-.28-3.41-.08-6.86.7-10.26,1.48-6.82,5.73-13.26,11.65-18.13,5.98-4.88,13.63-8.17,21.66-9.74,8.05-1.59,16.5-1.31,24.36.41l-3.89,1.83h0c2.64-7.61,7.26-14.7,13.71-20.66,3.22-2.97,6.9-5.63,10.94-7.87,4.05-2.23,8.46-4.01,13.06-5.34,4.6-1.32,9.39-2.21,14.24-2.58,4.85-.36,9.74-.27,14.55.26,9.66,1,18.9,3.92,27.13,8.08h0l-5,.97c5.25-7.24,12.3-13.71,20.96-18.48,8.57-4.85,18.69-7.99,29.23-8.88,10.53-.97,21.45.69,31.04,4.41,9.62,3.77,17.87,9.37,24.37,16.26h0l-6.85-.99c6.85-3.65,14.7-6.08,22.86-6.95,8.16-.83,16.61-.08,24.37,2.32,3.89,1.18,7.56,2.83,10.93,4.81s6.45,4.3,9.07,6.9c5.25,5.24,8.9,11.24,10.87,17.84h0l-5.22-3.18c8.51-.22,17.05,1.46,24.37,4.9,7.32,3.43,13.38,8.65,16.97,14.86,3.65,6.2,4.62,13.33,3.03,19.92-1.57,6.61-5.54,12.72-11.12,17.51h0l-.24-3.28c7.71,5.45,13.57,12.81,15.86,21.06,1.11,4.11,1.44,8.43.5,12.65-.89,4.22-3.01,8.27-5.97,11.77-5.97,7.03-15.17,11.89-25.1,14.01-4.97,1.07-10.13,1.58-15.27,1.37-5.14-.23-10.2-1.09-15.05-2.44l3.9-1.66c-1.7,5.69-5.02,11.32-10.46,15.66-2.71,2.16-5.92,3.9-9.31,5.27-3.43,1.33-7.09,2.15-10.78,2.65-3.7.51-7.44.49-11.14.28-3.7-.26-7.32-.88-10.86-1.7-7.05-1.75-13.64-4.55-19.54-8.07h0l7.94-2.05c-.76,1.96-1.62,3.63-2.63,5.35-1,1.69-2.1,3.34-3.34,4.92-2.47,3.17-5.44,6.14-8.92,8.73-3.49,2.57-7.47,4.8-11.86,6.35-4.38,1.54-9.03,2.54-13.76,2.88-9.47.75-18.99-1.09-27.19-4.66-8.28-3.54-15.13-9.01-20.11-15.36l8.39.21c-2.54,2.8-5.39,5.42-8.6,7.75-3.25,2.28-6.81,4.29-10.63,5.94-3.82,1.64-7.94,2.84-12.18,3.63-4.24.79-8.66,1.12-13.07.85-4.4-.26-8.79-1.06-12.92-2.43-4.13-1.37-7.98-3.33-11.3-5.69-3.33-2.37-6.15-5.11-8.52-8.05-2.36-2.96-4.27-6.06-5.71-9.46l8.12,1.77c-5.91,4.13-12.9,7.41-20.6,8.98-3.83.81-7.81,1.26-11.83,1.18-4.01-.06-8.06-.53-11.97-1.62-3.89-1.1-7.63-2.76-10.85-5.03-3.24-2.25-5.83-5.14-7.58-8.22-1.76-3.09-2.8-6.34-3.23-9.57-.44-3.25-.43-6.4.14-9.7l6.25,4.59c-8.14,1.73-17.03,1-24.59-2.04-7.56-2.99-13.87-8.39-16.78-14.99-2.95-6.58-2.48-13.94.8-20.23,1.63-3.16,3.95-6.07,6.82-8.58,1.42-1.27,3.02-2.39,4.69-3.43l1.29-.74.65-.37.31-.18s.01,0,.02.02c.04.07.18.4.66.71h.01ZM31.53,106.12c-1.1,1.03-2.53,2.09-4.06,2.88l-.57.29-.24.14-.46.27-.93.53c-1.19.74-2.35,1.54-3.36,2.46-2.06,1.79-3.72,3.89-4.89,6.15-2.36,4.52-2.64,9.72-.62,14.22,1.98,4.51,6.33,8.27,11.73,10.42,5.4,2.17,11.77,2.71,17.62,1.46l7.27-1.55-1.02,6.14c-.82,4.91-.21,10.33,2.25,14.57,2.39,4.3,6.9,7.36,12.52,8.94,2.8.78,5.83,1.13,8.87,1.18,3.05.07,6.15-.28,9.15-.92,6.05-1.21,11.65-3.84,16.46-7.19l5.66-3.94,2.45,5.71c2.27,5.27,6.22,10.33,11.29,13.94,5.08,3.66,11.52,5.73,18.27,6.12,3.37.22,6.81-.04,10.16-.67s6.64-1.57,9.72-2.9c3.07-1.33,5.96-2.96,8.62-4.82,2.61-1.91,4.95-4.06,7.05-6.36l4.4-4.84,3.98,5.05c4.09,5.18,9.64,9.63,16.32,12.47,6.6,2.88,14.18,4.32,21.51,3.72,3.66-.27,7.23-1.05,10.59-2.21,3.35-1.17,6.4-2.89,9.15-4.91,2.74-2.03,5.15-4.42,7.18-7.04,1.02-1.3,1.94-2.67,2.77-4.07.82-1.38,1.57-2.89,2.08-4.19l2.17-5.62,5.76,3.57h0c4.84,3.21,10.3,5.82,16.14,7.54,2.93.81,5.94,1.47,8.99,1.8,3.04.29,6.14.45,9.16.16,3.01-.28,5.99-.81,8.76-1.75,2.74-.97,5.33-2.22,7.59-3.83,4.51-3.24,7.68-7.81,9.48-12.76l.91-2.49,2.99.84c4.31,1.2,8.78,1.97,13.31,2.19,4.53.2,9.08-.25,13.46-1.18,8.75-1.84,16.79-6.11,21.86-12.07,2.52-2.97,4.3-6.33,5.07-9.88.82-3.55.54-7.25-.4-10.82-1.95-7.17-7.11-13.73-13.96-18.6l-2.06-1.47,1.82-1.82h0c4.61-4.37,7.66-9.76,8.63-15.34.99-5.58-.2-11.31-3.41-16.14-3.18-4.85-8.26-8.82-14.25-11.31-6-2.5-12.82-3.53-19.46-3.1l-4.11.27-1.11-3.46h0c-.73-2.56-1.94-5.18-3.41-7.62-1.49-2.44-3.3-4.74-5.4-6.82s-4.53-3.9-7.19-5.46c-2.65-1.56-5.54-2.87-8.63-3.8-6.15-1.9-12.9-2.51-19.49-1.85-6.59.7-12.98,2.68-18.57,5.65l-4,2.13-2.84-3.12h0c-5.28-5.91-12.37-10.98-20.38-14.3-8.01-3.3-17.1-4.9-26.14-4.26-9.02.57-17.93,3.09-25.61,7.22-7.77,4.05-14.26,9.69-19.19,16.12l-1.91,2.48-3.09-1.52h0c-7.36-3.76-15.62-6.44-24.24-7.37-4.29-.49-8.65-.6-12.96-.3-4.31.31-8.56,1.07-12.64,2.22-4.07,1.15-7.98,2.7-11.57,4.65-3.57,1.96-6.85,4.29-9.73,6.92-5.77,5.25-10.05,11.7-12.46,18.49h0l-.78,2.4-3.11-.57c-6.93-1.27-14.2-1.26-20.94.32-6.72,1.55-12.9,4.52-17.53,8.61-2.31,2.05-4.19,4.38-5.64,6.85-1.48,2.47-2.44,5.12-2.91,7.86-.49,2.73-.52,5.54-.15,8.32.19,1.39.47,2.78.86,4.14.18.68.41,1.35.64,2.02l.38.98.2.47.02.06.06.15.08.23c.1.31.17.64.21.98.07.68-.03,1.37-.23,1.94h.03,0Z"/>
      </g>
      <path class="st9" d="M28.2,103.02c-.27.38-.44.87-.45,1.34,0,.24.03.47.09.68l.05.15s.05.12.03.08l-.03-.08-.23-.62-.4-1.22c-.24-.81-.47-1.62-.64-2.43-.38-1.62-.62-3.26-.77-4.9-.27-3.29-.08-6.62.68-9.9,1.43-6.58,5.53-12.79,11.24-17.49,5.77-4.7,13.15-7.89,20.9-9.39,7.77-1.53,15.92-1.27,23.51.4l-3.76,1.76h0c2.55-7.34,7.01-14.18,13.22-19.93,3.1-2.87,6.66-5.43,10.55-7.6,3.91-2.15,8.17-3.87,12.6-5.15,4.44-1.28,9.06-2.13,13.74-2.49,4.68-.35,9.4-.26,14.04.25,9.32.97,18.24,3.79,26.18,7.79h0l-4.82.94c5.06-6.99,11.87-13.22,20.22-17.83,8.26-4.68,18.03-7.71,28.2-8.56,10.16-.93,20.7.66,29.95,4.26,9.28,3.64,17.24,9.04,23.51,15.68h0l-6.61-.95c6.61-3.52,14.18-5.87,22.06-6.7,7.87-.8,16.03-.08,23.51,2.24,3.75,1.14,7.29,2.73,10.54,4.64s6.23,4.15,8.75,6.66c5.07,5.05,8.59,10.84,10.49,17.21h0l-5.03-3.07c8.21-.21,16.45,1.41,23.52,4.72,7.06,3.31,12.91,8.34,16.37,14.34,3.52,5.99,4.46,12.86,2.93,19.22-1.52,6.38-5.34,12.28-10.73,16.89h0l-.23-3.17c7.44,5.26,13.09,12.36,15.3,20.32,1.07,3.97,1.39,8.14.48,12.21-.86,4.07-2.91,7.98-5.76,11.36-5.76,6.78-14.64,11.47-24.22,13.52-4.79,1.04-9.78,1.52-14.74,1.32-4.95-.22-9.84-1.05-14.52-2.36l3.76-1.6c-1.64,5.49-4.84,10.92-10.09,15.11-2.62,2.08-5.71,3.77-8.98,5.08-3.31,1.28-6.84,2.08-10.4,2.56-3.57.49-7.18.47-10.75.27-3.57-.25-7.06-.85-10.48-1.64-6.8-1.68-13.16-4.39-18.86-7.79h0l7.66-1.98c-.74,1.89-1.56,3.51-2.53,5.16-.96,1.63-2.03,3.22-3.23,4.75-2.39,3.06-5.24,5.93-8.61,8.42-3.36,2.48-7.2,4.63-11.44,6.12-4.23,1.48-8.72,2.45-13.27,2.78-9.14.73-18.32-1.05-26.24-4.5-7.99-3.41-14.6-8.7-19.41-14.82l8.09.2c-2.45,2.71-5.2,5.23-8.29,7.48-3.14,2.2-6.57,4.14-10.25,5.73-3.69,1.58-7.66,2.74-11.75,3.5s-8.35,1.09-12.61.82c-4.25-.25-8.48-1.03-12.47-2.35-3.99-1.32-7.7-3.21-10.9-5.49-3.21-2.28-5.94-4.93-8.22-7.77-2.28-2.85-4.12-5.85-5.51-9.12l7.83,1.71c-5.7,3.98-12.44,7.15-19.88,8.66-3.69.79-7.54,1.22-11.41,1.14-3.87-.06-7.78-.52-11.55-1.56-3.75-1.06-7.36-2.66-10.47-4.85-3.13-2.17-5.62-4.96-7.31-7.93-1.7-2.98-2.7-6.12-3.11-9.23-.42-3.13-.42-6.18.14-9.36l6.04,4.43c-7.85,1.67-16.43.97-23.72-1.97-7.29-2.89-13.38-8.09-16.19-14.47-2.85-6.35-2.4-13.45.77-19.52,1.57-3.05,3.81-5.86,6.58-8.28,1.37-1.22,2.91-2.31,4.52-3.31l1.24-.71.62-.36.3-.17s.01,0,.02.02c.04.07.17.39.63.68v.02h.01ZM37.26,105.96c-1.06.99-2.44,2.01-3.92,2.78l-.55.28-.24.14-.44.26-.89.51c-1.15.72-2.26,1.49-3.24,2.37-1.98,1.73-3.59,3.75-4.72,5.93-2.28,4.36-2.55,9.38-.6,13.72,1.91,4.35,6.11,7.98,11.32,10.06,5.21,2.1,11.35,2.62,17,1.41l7.02-1.5-.98,5.93c-.79,4.74-.2,9.97,2.17,14.06,2.31,4.15,6.66,7.1,12.08,8.62,2.7.75,5.62,1.09,8.56,1.14,2.95.07,5.93-.27,8.83-.89,5.84-1.17,11.24-3.71,15.88-6.94l5.47-3.8,2.37,5.51c2.19,5.08,6,9.97,10.9,13.45,4.9,3.53,11.12,5.53,17.63,5.91,3.25.21,6.58-.04,9.81-.64,3.23-.61,6.41-1.52,9.38-2.8,2.97-1.29,5.75-2.85,8.32-4.65,2.52-1.84,4.78-3.91,6.81-6.14l4.25-4.67,3.84,4.87c3.94,5,9.31,9.3,15.75,12.03,6.37,2.78,13.68,4.17,20.75,3.59,3.53-.26,6.98-1.01,10.21-2.14,3.24-1.13,6.17-2.79,8.83-4.74,2.64-1.96,4.96-4.27,6.93-6.79.99-1.26,1.87-2.58,2.67-3.93.79-1.33,1.52-2.78,2.01-4.05l2.1-5.42,5.56,3.45h0c4.67,3.1,9.93,5.62,15.57,7.28,2.83.78,5.73,1.41,8.68,1.74,2.94.28,5.92.44,8.84.15,2.91-.27,5.78-.79,8.45-1.69,2.65-.94,5.15-2.14,7.32-3.7,4.36-3.13,7.41-7.54,9.15-12.31l.88-2.41,2.88.81c4.15,1.16,8.47,1.9,12.84,2.11,4.37.19,8.77-.24,12.98-1.14,8.44-1.77,16.2-5.9,21.09-11.65,2.43-2.87,4.15-6.11,4.89-9.53.79-3.42.52-7-.39-10.44-1.89-6.92-6.86-13.25-13.47-17.95l-1.99-1.42,1.76-1.75h0c4.45-4.21,7.39-9.41,8.33-14.8.96-5.38-.2-10.91-3.29-15.57-3.06-4.68-7.97-8.51-13.75-10.91-5.79-2.41-12.37-3.41-18.78-2.99l-3.96.26-1.07-3.33h0c-.71-2.47-1.87-5-3.29-7.35-1.44-2.36-3.19-4.58-5.21-6.58-2.02-2.01-4.37-3.77-6.93-5.27-2.56-1.51-5.35-2.77-8.33-3.67-5.93-1.84-12.44-2.43-18.8-1.78-6.36.68-12.52,2.58-17.92,5.45l-3.86,2.05-2.74-3.01h0c-5.09-5.7-11.94-10.6-19.66-13.8-7.73-3.19-16.5-4.73-25.22-4.11-8.7.55-17.3,2.98-24.71,6.97-7.5,3.91-13.76,9.35-18.52,15.55l-1.84,2.4-2.98-1.46h0c-7.1-3.63-15.08-6.21-23.39-7.11-4.14-.47-8.35-.58-12.51-.29-4.16.3-8.26,1.04-12.19,2.14-3.93,1.11-7.7,2.61-11.16,4.48-3.45,1.9-6.61,4.14-9.39,6.68-5.57,5.06-9.7,11.29-12.02,17.84h0l-.76,2.31-3-.55c-6.68-1.22-13.7-1.21-20.2.31-6.49,1.49-12.45,4.36-16.91,8.31-2.23,1.98-4.04,4.23-5.44,6.61-1.42,2.38-2.35,4.94-2.81,7.58-.47,2.64-.5,5.34-.14,8.03.19,1.34.45,2.68.83,4,.18.66.4,1.31.62,1.95l.36.94.19.45.02.06.06.15.08.22c.1.3.17.62.2.95.07.66-.03,1.32-.22,1.87h-.04Z"/>
      <path class="st11" d="M37.7,102.77c-.69-1.55-6.76-15.99,3.83-28.71,9.04-10.86,26.46-15.94,43.35-12.39,1.18-3.44,6.78-18.32,25-26.8,17.47-8.13,39.8-7.23,57.88,2.14,12.06-16.5,33.85-25.77,55.25-23.58,21.8,2.23,34.33,15.45,36.83,18.22,13.69-7.36,30.92-8.23,44.73-2.14,16.34,7.21,20.49,20.9,21.11,23.11,16.72-.79,31.81,7.3,36.83,19.29,4.11,9.79.97,20.91-7.96,28.91,12.55,8.83,17.8,22.2,13.23,33.25-6.17,14.92-29.73,24.38-52.68,17.62-1.27,3.86-4.31,10.47-11.84,15.01-12.75,7.67-33.28,6.32-49.99-4.29-.54,1.44-6.94,17.63-26.31,22.51-17,4.28-36.71-1.99-47.29-15.76-11.72,13.34-31.55,18.63-47.42,13.62-15.41-4.87-20.94-17.52-21.8-19.6-15.45,11.06-36.12,10.91-46.61,2.45-9.53-7.69-7.56-19.73-7.25-21.41-13.22,2.77-26.81-2.43-32.21-11.81-6.07-10.53-.46-23.99,13.34-29.64h-.02Z"/>
      <path d="M33.32,101.34c-.26.36-.43.84-.44,1.3,0,.23.03.46.08.66l.05.15s.05.12.03.08l-.03-.07-.22-.6-.39-1.18c-.23-.79-.45-1.57-.62-2.36-.37-1.57-.6-3.16-.74-4.75-.26-3.19-.07-6.42.66-9.6,1.38-6.38,5.36-12.4,10.89-16.96,5.6-4.56,12.75-7.64,20.26-9.11,7.53-1.49,15.43-1.23,22.79.38l-3.64,1.71h0c2.47-7.12,6.79-13.74,12.82-19.32,3.01-2.78,6.45-5.26,10.23-7.36,3.79-2.08,7.92-3.75,12.21-4.99,4.3-1.24,8.78-2.06,13.32-2.41,4.54-.34,9.11-.25,13.61.24,9.03.94,17.68,3.67,25.37,7.55h0l-4.68.91c4.91-6.77,11.51-12.82,19.6-17.28,8.01-4.53,17.48-7.47,27.34-8.3,9.85-.9,20.06.64,29.03,4.13,8.99,3.52,16.71,8.76,22.79,15.2h0l-6.4-.92c6.41-3.41,13.75-5.69,21.38-6.5,7.63-.78,15.54-.08,22.79,2.17,3.64,1.1,7.07,2.65,10.22,4.5s6.03,4.02,8.48,6.45c4.91,4.9,8.32,10.51,10.16,16.68h0l-4.88-2.98c7.95-.2,15.94,1.37,22.79,4.58,6.85,3.2,12.51,8.09,15.87,13.9,3.41,5.8,4.32,12.47,2.84,18.63-1.47,6.18-5.18,11.9-10.4,16.38h0l-.23-3.07c7.21,5.1,12.69,11.98,14.83,19.69,1.03,3.85,1.35,7.89.46,11.83-.83,3.95-2.82,7.73-5.59,11.01-5.58,6.58-14.19,11.12-23.48,13.1-4.65,1-9.48,1.48-14.28,1.28-4.8-.22-9.54-1.02-14.08-2.28l3.65-1.55c-1.59,5.33-4.69,10.58-9.78,14.65-2.53,2.02-5.53,3.65-8.71,4.92-3.21,1.24-6.63,2.01-10.08,2.48-3.46.48-6.96.46-10.42.26-3.46-.24-6.84-.82-10.16-1.59-6.59-1.63-12.75-4.25-18.28-7.55h0l7.42-1.92c-.71,1.83-1.51,3.4-2.46,5-.93,1.58-1.97,3.12-3.13,4.6-2.31,2.97-5.08,5.74-8.34,8.16-3.26,2.4-6.98,4.49-11.09,5.94-4.1,1.44-8.45,2.37-12.87,2.7-8.86.71-17.76-1.02-25.43-4.36-7.74-3.31-14.15-8.43-18.81-14.36l7.84.2c-2.37,2.62-5.04,5.07-8.04,7.25-3.04,2.14-6.37,4.01-9.94,5.55-3.58,1.53-7.42,2.66-11.39,3.4-3.97.73-8.1,1.05-12.22.79-4.12-.24-8.22-1-12.08-2.28-3.87-1.28-7.46-3.11-10.57-5.32-3.12-2.21-5.76-4.78-7.96-7.53-2.21-2.76-4-5.67-5.34-8.84l7.59,1.66c-5.53,3.86-12.06,6.93-19.27,8.39-3.58.76-7.3,1.18-11.06,1.1-3.75-.06-7.54-.5-11.19-1.51-3.64-1.03-7.14-2.58-10.15-4.7-3.03-2.11-5.45-4.81-7.09-7.69-1.64-2.89-2.62-5.93-3.02-8.95-.41-3.04-.4-5.99.13-9.07l5.85,4.29c-7.61,1.62-15.93.94-22.99-1.91-7.07-2.8-12.97-7.84-15.69-14.02-2.76-6.16-2.32-13.04.74-18.92,1.52-2.95,3.69-5.68,6.38-8.02,1.33-1.19,2.82-2.24,4.39-3.21l1.21-.69.6-.34.29-.16.02.02c.04.06.17.38.61.66h.04,0ZM42.09,104.19c-1.02.96-2.37,1.95-3.8,2.69l-.53.27-.23.13-.43.25-.87.5c-1.12.7-2.19,1.44-3.14,2.3-1.92,1.68-3.48,3.63-4.57,5.75-2.21,4.23-2.47,9.09-.58,13.3,1.85,4.22,5.92,7.74,10.97,9.75,5.05,2.03,11,2.54,16.48,1.37l6.8-1.45-.95,5.74c-.76,4.59-.19,9.66,2.1,13.63,2.24,4.02,6.46,6.88,11.71,8.36,2.62.73,5.45,1.06,8.3,1.1,2.86.07,5.75-.26,8.56-.86,5.66-1.14,10.9-3.6,15.4-6.72l5.3-3.68,2.3,5.34c2.12,4.93,5.82,9.66,10.56,13.04,4.75,3.42,10.77,5.36,17.09,5.73,3.15.21,6.37-.04,9.51-.62,3.13-.59,6.21-1.47,9.09-2.71,2.88-1.25,5.58-2.77,8.06-4.51,2.44-1.79,4.63-3.79,6.6-5.95l4.12-4.53,3.73,4.72c3.82,4.84,9.02,9.01,15.26,11.66,6.18,2.69,13.26,4.04,20.12,3.48,3.43-.25,6.77-.98,9.9-2.07,3.14-1.1,5.98-2.7,8.55-4.59,2.56-1.9,4.81-4.14,6.72-6.58.96-1.22,1.82-2.5,2.59-3.81.77-1.29,1.47-2.7,1.94-3.92l2.03-5.26,5.39,3.34h0c4.53,3,9.63,5.44,15.09,7.05,2.74.76,5.55,1.37,8.41,1.69,2.85.27,5.74.42,8.56.15s5.6-.76,8.2-1.64c2.56-.91,4.99-2.07,7.1-3.58,4.22-3.03,7.18-7.31,8.87-11.93l.85-2.33,2.8.78c4.03,1.13,8.21,1.84,12.45,2.05,4.24.18,8.5-.23,12.59-1.1,8.18-1.72,15.7-5.72,20.45-11.29,2.36-2.78,4.02-5.92,4.74-9.24.76-3.32.51-6.78-.37-10.12-1.83-6.71-6.64-12.84-13.06-17.4l-1.93-1.37,1.7-1.7h0c4.31-4.08,7.16-9.12,8.08-14.34.93-5.22-.19-10.58-3.19-15.1-2.97-4.53-7.72-8.25-13.33-10.58-5.61-2.34-11.99-3.3-18.2-2.9l-3.84.25-1.04-3.23h0c-.69-2.4-1.82-4.84-3.19-7.13-1.4-2.28-3.09-4.43-5.05-6.38s-4.24-3.65-6.72-5.11-5.19-2.69-8.07-3.56c-5.75-1.78-12.06-2.35-18.23-1.73-6.17.65-12.13,2.5-17.37,5.28l-3.74,1.99-2.66-2.91h0c-4.94-5.52-11.57-10.27-19.06-13.37-7.49-3.09-15.99-4.58-24.44-3.98-8.44.53-16.77,2.89-23.96,6.75-7.27,3.79-13.34,9.06-17.95,15.07l-1.78,2.32-2.89-1.42h0c-6.88-3.52-14.61-6.02-22.67-6.89-4.02-.46-8.09-.56-12.12-.28-4.03.29-8.01,1-11.82,2.07-3.81,1.08-7.46,2.53-10.82,4.35-3.34,1.84-6.4,4.01-9.1,6.47-5.4,4.91-9.4,10.94-11.65,17.29h0l-.73,2.24-2.91-.53c-6.48-1.19-13.28-1.17-19.58.3-6.29,1.45-12.06,4.23-16.4,8.05-2.16,1.92-3.91,4.1-5.28,6.41-1.38,2.31-2.28,4.79-2.72,7.35-.46,2.56-.48,5.18-.14,7.78.18,1.3.44,2.6.8,3.87.17.64.38,1.27.6,1.89l.35.91.19.44.02.06.06.14.08.21c.09.29.16.6.19.92.07.64-.03,1.28-.22,1.82h-.03Z"/>
    </g>
    <g class="st1">
      <g class="st1">
        <g class="st1">
          <path class="st7" d="M89.38,132.32c-1.43,0-2.14-.48-2.14-1.44,0-.44.23-1.07.68-1.88l22.42-39.76h-22.08c-.6,0-1.13-.22-1.58-.66-.45-.44-.68-.96-.68-1.55v-11.05c0-.59.23-1.1.68-1.55s.98-.66,1.58-.66h46.19c1.43,0,2.14.48,2.14,1.44,0,.52-.23,1.14-.68,1.88l-22.42,39.76h22.08c.6,0,1.13.22,1.58.66s.68.96.68,1.55v11.05c0,.59-.23,1.1-.68,1.55s-.98.66-1.58.66h-46.19Z"/>
          <path class="st7" d="M144.58,119.06c0-3.75,1.8-6.7,5.41-8.84,3.6-2.13,9.61-3.24,18.03-3.31-.3-1.32-1.11-2.26-2.42-2.82-1.31-.55-2.87-.83-4.68-.83-1.2,0-2.48.11-3.83.33-1.35.22-2.65.5-3.89.83-1.24.33-2.42.72-3.55,1.16-1.13.44-2.07.88-2.82,1.32l-2.25-11.04c1.28-.74,2.78-1.38,4.51-1.93,1.73-.55,3.47-1.01,5.24-1.38,1.76-.37,3.51-.64,5.24-.83,1.73-.18,3.23-.28,4.51-.28,2.7,0,5.26.29,7.66.88,2.4.59,4.52,1.57,6.37,2.93,1.84,1.36,3.28,3.17,4.34,5.41,1.05,2.25,1.58,5.06,1.58,8.45v20.99c0,.59-.23,1.1-.68,1.55s-.98.66-1.58.66h-28.17c-2.48,0-4.6-.87-6.37-2.6-1.77-1.73-2.65-3.81-2.65-6.24v-4.42ZM168.25,119.06v-5.19c-1.8.37-3.48.96-5.01,1.77-1.54.81-2.5,1.95-2.87,3.42h7.89Z"/>
          <path class="st7" d="M233.59,132.32c0,3.39-.53,6.2-1.58,8.45-1.05,2.25-2.5,4.05-4.34,5.41-1.84,1.36-3.96,2.34-6.37,2.93-2.41.59-4.96.88-7.66.88s-5.69-.37-9.18-1.1c-3.49-.74-6.55-1.84-9.18-3.31l3.38-8.84c1.43.44,3,.83,4.73,1.16,1.73.33,3.45.5,5.18.5,2.48,0,4.64-.44,6.48-1.33,1.84-.88,2.76-2.47,2.76-4.75v-2.32c-3.31,1.33-6.5,1.99-9.58,1.99-4.28,0-7.89-1.4-10.82-4.2-2.93-2.8-4.39-7.18-4.39-13.14v-20.99c0-.59.23-1.1.68-1.55s.98-.66,1.58-.66h11.27c.6,0,1.13.22,1.58.66s.68.96.68,1.55v22.09c0,1.77.36,3.04,1.07,3.81.71.77,1.59,1.16,2.65,1.16,1.58,0,3.34-.66,5.3-1.99v-25.07c0-.59.23-1.1.68-1.55s.98-.66,1.58-.66h11.27c.6,0,1.13.22,1.58.66.45.44.68.96.68,1.55v38.66Z"/>
          <path class="st7" d="M265.7,120.5c1.2,0,2.46-.11,3.77-.33,1.31-.22,2.61-.5,3.89-.83,1.28-.33,2.46-.72,3.55-1.16,1.09-.44,2.05-.88,2.87-1.33l2.25,11.05c-1.28.74-2.78,1.38-4.51,1.93-1.73.55-3.48,1.01-5.24,1.38-1.77.37-3.51.65-5.24.83-1.73.19-3.23.28-4.51.28-2.7,0-5.26-.29-7.66-.88-2.41-.59-4.53-1.56-6.37-2.93-1.84-1.36-3.29-3.17-4.34-5.41-1.05-2.25-1.58-5.06-1.58-8.45v-12.48c0-2.94,1.13-5.47,3.38-7.57,2.25-2.1,5.63-3.15,10.14-3.15h14.65c3.83,0,6.67.83,8.51,2.49,1.84,1.66,2.76,3.66,2.76,6.02,0,1.84-.51,3.72-1.52,5.63-1.01,1.92-2.48,3.74-4.39,5.47-1.92,1.73-4.26,3.28-7.04,4.64-2.78,1.36-5.93,2.41-9.46,3.15.6.59,1.45,1.01,2.54,1.27,1.09.26,2.27.39,3.55.39ZM258.38,104.71v6.85c1.8-.81,3.47-1.78,5.01-2.93,1.54-1.14,2.5-2.45,2.87-3.92h-7.89Z"/>
          <path class="st7" d="M331.61,130.11c0,.59-.22,1.1-.68,1.55s-.98.66-1.58.66h-11.27c-.6,0-1.13-.22-1.58-.66-.45-.44-.68-.96-.68-1.55v-22.64c0-1.69-.41-2.87-1.24-3.54-.83-.66-1.65-.99-2.48-.99-1.28,0-2.54.43-3.78,1.27-1.24.85-2.12,1.75-2.65,2.71v23.2c0,.59-.23,1.1-.68,1.55s-.98.66-1.58.66h-11.27c-.6,0-1.13-.22-1.58-.66-.45-.44-.68-.96-.68-1.55v-36.45c0-.59.22-1.1.68-1.55.45-.44.97-.66,1.58-.66h13.52v4.42c2.25-1.25,4.58-2.3,6.99-3.15,2.4-.85,4.73-1.27,6.99-1.27,1.65,0,3.21.28,4.68.83,1.46.55,2.72,1.49,3.77,2.82,1.05,1.33,1.9,3.04,2.54,5.14.64,2.1.96,4.69.96,7.79v22.09Z"/>
        </g>
      </g>
    </g>
    <g class="st1">
      <g class="st1">
        <path class="st8" d="M87.31,129.43c-1.43,0-2.14-.48-2.14-1.44,0-.44.23-1.07.68-1.88l22.42-39.77h-22.08c-.6,0-1.13-.22-1.58-.66-.45-.44-.68-.96-.68-1.55v-11.05c0-.59.23-1.1.68-1.55s.98-.66,1.58-.66h46.19c1.43,0,2.14.48,2.14,1.44,0,.52-.23,1.14-.68,1.88l-22.42,39.77h22.08c.6,0,1.13.22,1.58.66s.68.96.68,1.55v11.04c0,.59-.23,1.11-.68,1.55s-.98.66-1.58.66h-46.19Z"/>
        <path class="st8" d="M142.52,116.18c0-3.76,1.8-6.7,5.41-8.84,3.6-2.14,9.61-3.24,18.03-3.31-.3-1.33-1.11-2.26-2.42-2.82-1.31-.55-2.87-.83-4.68-.83-1.2,0-2.48.11-3.83.33s-2.65.5-3.89.83-2.42.72-3.55,1.16-2.07.88-2.82,1.33l-2.25-11.05c1.28-.74,2.78-1.38,4.51-1.93s3.47-1.01,5.24-1.38c1.76-.37,3.51-.64,5.24-.83,1.73-.18,3.23-.28,4.51-.28,2.7,0,5.26.29,7.66.88,2.4.59,4.52,1.57,6.37,2.93,1.84,1.36,3.28,3.17,4.34,5.41,1.05,2.25,1.58,5.06,1.58,8.45v20.99c0,.59-.23,1.11-.68,1.55s-.98.66-1.58.66h-28.17c-2.48,0-4.6-.86-6.37-2.6-1.77-1.73-2.65-3.81-2.65-6.24v-4.42h0ZM166.18,116.18v-5.19c-1.8.37-3.48.96-5.01,1.77-1.54.81-2.5,1.95-2.87,3.42h7.89-.01Z"/>
        <path class="st8" d="M231.53,129.43c0,3.39-.53,6.2-1.58,8.45-1.05,2.24-2.5,4.05-4.34,5.41s-3.96,2.34-6.37,2.93c-2.41.59-4.96.88-7.66.88s-5.69-.37-9.18-1.11-6.55-1.84-9.18-3.31l3.38-8.84c1.43.44,3,.83,4.73,1.16s3.45.5,5.18.5c2.48,0,4.64-.44,6.48-1.33,1.84-.88,2.76-2.47,2.76-4.75v-2.32c-3.31,1.33-6.5,1.99-9.58,1.99-4.28,0-7.89-1.4-10.82-4.2-2.93-2.8-4.39-7.18-4.39-13.14v-20.99c0-.59.22-1.1.68-1.55.45-.44.97-.66,1.58-.66h11.27c.6,0,1.13.22,1.58.66s.68.96.68,1.55v22.09c0,1.77.36,3.04,1.07,3.81s1.59,1.16,2.65,1.16c1.58,0,3.34-.66,5.3-1.99v-25.07c0-.59.23-1.1.68-1.55s.98-.66,1.58-.66h11.27c.6,0,1.13.22,1.58.66s.68.96.68,1.55v38.66h-.03Z"/>
        <path class="st8" d="M263.64,117.61c1.2,0,2.46-.11,3.77-.33s2.61-.5,3.89-.83c1.28-.33,2.46-.72,3.55-1.16s2.05-.88,2.87-1.32l2.25,11.04c-1.28.74-2.78,1.38-4.51,1.93s-3.48,1.01-5.24,1.38c-1.77.37-3.51.64-5.24.83-1.73.18-3.23.28-4.51.28-2.7,0-5.26-.29-7.66-.88-2.41-.59-4.53-1.56-6.37-2.93-1.84-1.36-3.29-3.17-4.34-5.41-1.05-2.25-1.58-5.06-1.58-8.45v-12.48c0-2.94,1.13-5.47,3.38-7.57,2.25-2.1,5.63-3.15,10.14-3.15h14.65c3.83,0,6.67.83,8.51,2.49,1.84,1.66,2.76,3.66,2.76,6.02,0,1.84-.51,3.72-1.52,5.63-1.01,1.92-2.48,3.74-4.39,5.47-1.92,1.73-4.26,3.28-7.04,4.64s-5.93,2.41-9.46,3.15c.6.59,1.45,1.01,2.54,1.27,1.09.26,2.27.39,3.55.39h0ZM256.31,101.82v6.85c1.8-.81,3.47-1.78,5.01-2.93,1.54-1.14,2.5-2.45,2.87-3.92h-7.89.01Z"/>
        <path class="st8" d="M329.54,127.22c0,.59-.22,1.11-.68,1.55s-.98.66-1.58.66h-11.27c-.6,0-1.13-.22-1.58-.66-.45-.44-.68-.96-.68-1.55v-22.64c0-1.69-.41-2.87-1.24-3.53-.83-.66-1.65-.99-2.48-.99-1.28,0-2.54.42-3.78,1.27s-2.12,1.75-2.65,2.71v23.2c0,.59-.23,1.11-.68,1.55s-.98.66-1.58.66h-11.27c-.6,0-1.13-.22-1.58-.66-.45-.44-.68-.96-.68-1.55v-36.45c0-.59.22-1.1.68-1.55.45-.44.97-.66,1.58-.66h13.52v4.42c2.25-1.25,4.58-2.3,6.99-3.15,2.4-.85,4.73-1.27,6.99-1.27,1.65,0,3.21.28,4.68.83,1.46.55,2.72,1.49,3.77,2.82s1.9,3.04,2.54,5.14.96,4.69.96,7.79v22.09l.02-.03Z"/>
      </g>
    </g>
  </g>
</svg>