<?xml version="1.0" encoding="UTF-8"?>
<svg id="Layer_1" xmlns="http://www.w3.org/2000/svg" version="1.1" viewBox="0 0 784.8 350.74">
  <!-- Generator: Adobe Illustrator 29.7.1, SVG Export Plug-In . SVG Version: 2.1.1 Build 8)  -->
  <defs>
    <style>
      .st0 {
        fill: #5858dd;
      }
    </style>
  </defs>
  <g>
    <path d="M708.29,8.65c.8.78,1.2,1.88,1.14,2.96l-14.53,153.11,13.76-3.04c.52-.12,1.04-.11,1.54-.02.27,0,.54-.05.81,0,.27,0,.54-.05.81,0,.27,0,.54-.05.81,0,.27,0,.54-.05.81,0,.27,0,.55-.05.81,0,.27,0,.54-.05.81,0,.27,0,.54-.05.81,0,.27,0,.54-.05.81,0,.27,0,.54-.05.81,0,.27,0,.54-.05.81,0,.27,0,.54-.05.81,0,.27,0,.54-.05.81,0,.27,0,.54-.05.81,0,.27,0,.54-.05.81,0,.27,0,.54-.05.81,0,.27,0,.55-.05.81,0,.27,0,.55-.05.81,0,.27,0,.54-.05.81,0,.27,0,.55-.05.81,0,.27,0,.54-.05.81,0,1.73-.05,3.33.95,3.86,2.62l7.73,24.2,17.4-9.34c.69-.37,1.46-.44,2.23-.37.27-.03.53-.02.81,0,.27-.03.53-.02.81,0,.27-.03.53-.02.81,0,.27-.03.53-.02.81,0,.27-.03.53-.02.81,0,.27-.03.53-.02.81,0,.27-.03.53-.02.81,0,.27-.03.53-.02.81,0,.27-.03.53-.02.81,0,.27-.03.53-.02.81,0,.28-.03.53-.02.81,0,.28-.03.53-.02.81,0,.27-.03.53-.02.81,0,.28-.03.53-.02.81,0,.27-.03.53-.02.81,0,.27-.03.53-.02.81,0,.28-.03.53-.02.81,0,.27-.03.53-.02.81,0,.27-.03.53-.02.81,0,.27-.03.53-.02.81,0,.73-.09,1.47-.04,2.16.29,1.14.54,1.94,1.58,2.15,2.8l7.6,43.55,59.56,1.08c1.85.03,3.42,1.33,3.77,3.11.05.24.07.48.07.71,0,1.52-.93,2.93-2.41,3.53l-83.73,34.15c-.63.26-1.29.29-1.95.21-.27.03-.53.03-.81,0-.27.03-.53.03-.81,0-.27.03-.53.03-.81,0-.27.03-.53.03-.81,0-.27.03-.53.03-.81,0-.27.03-.53.03-.81,0-.27.03-.53.03-.81,0-.27.03-.53.03-.81,0-.27.03-.53.03-.81,0-.27.03-.53.03-.81,0-.28.03-.53.03-.81,0-.27.03-.53.03-.81,0-.27.03-.53.03-.81,0-.27.03-.53.03-.81,0-.27.03-.53.03-.81,0-.27.03-.53.03-.81,0-.27.03-.53.03-.81,0-.27.03-.53.03-.81,0-.27.03-.53.03-.81,0-.27.03-.53.03-.81,0-.69.06-1.39.01-2.03-.29-1-.46-1.75-1.32-2.07-2.36l-5.09-16.61-5.33,4.7c-.91.8-2.16,1.14-3.36.91-.02,0-.04-.02-.06-.03-.25,0-.49.08-.74.03-.02,0-.04-.02-.06-.03-.25,0-.49.08-.74.03-.02,0-.04-.02-.06-.03-.25,0-.49.08-.74.03-.02,0-.04-.02-.06-.03-.25,0-.49.08-.74.03-.02,0-.04-.02-.06-.03-.25,0-.49.08-.74.03-.02,0-.04-.02-.06-.03-.25,0-.49.08-.74.03-.02,0-.04-.02-.06-.03-.25,0-.49.08-.74.03-.02,0-.04-.02-.06-.03-.25,0-.49.08-.74.03-.02,0-.04-.02-.06-.03-.25,0-.49.08-.74.03-.02,0-.04-.02-.06-.03-.25,0-.49.08-.74.03-.02,0-.04-.02-.06-.03-.25,0-.49.08-.74.03-.02,0-.04-.02-.06-.03-.25,0-.49.08-.74.03-.02,0-.04-.02-.06-.03-.25,0-.49.08-.74.03-.02,0-.04-.02-.06-.03-.25,0-.49.08-.74.03-.02,0-.04-.02-.06-.03-.25,0-.49.08-.74.03-.02,0-.04-.02-.06-.03-.25,0-.49.08-.74.03-.02,0-.04-.02-.06-.03-.25,0-.49.08-.74.03-.02,0-.04-.02-.06-.03-.25,0-.49.08-.74.03-.02,0-.04-.02-.06-.03-.25,0-.49.08-.74.03-.02,0-.04-.02-.06-.03-.25,0-.49.08-.74.03-.02,0-.04-.02-.06-.03-.25,0-.49.08-.74.03-1.21-.23-2.23-1-2.77-2.09l-14.22-28.64-3.55,2.01-14.88,114.23c-.14,1.06-.72,2.01-1.6,2.63s-1.99.85-3.05.64h-.02c-.26,0-.52.05-.79,0h-.02c-.26,0-.52.05-.79,0h-.02c-.26,0-.52.05-.79,0h-.02c-.26,0-.52.05-.79,0h-.02c-.26,0-.52.05-.79,0h-.02c-.26,0-.52.05-.79,0h-.02c-.26,0-.53.05-.79,0h-.02c-.26,0-.52.05-.79,0h-.02c-.26,0-.52.05-.79,0h-.02c-.26,0-.52.05-.79,0h-.02c-.26,0-.52.05-.79,0h-.02c-.26,0-.52.05-.79,0h-.02c-.26,0-.52.05-.79,0h-.02c-.26,0-.52.05-.79,0h-.02c-.26,0-.52.05-.79,0h-.02c-.26,0-.52.05-.79,0h-.02c-.26,0-.52.05-.79,0h-.02c-.26,0-.52.05-.79,0h-.02c-.26,0-.53.05-.79,0h-.02c-.26,0-.52.05-.79,0h-.02c-.26,0-.53.05-.79,0L37.3,303.48c-1.74-.34-3.02-1.79-3.12-3.53L14.41,28.65c-.09-2.02,1.5-3.89,3.64-4.04L688.32,7.54c.09,0,.17.04.26.04l.55-.04c.09,0,.17.04.26.04l.55-.04c.09,0,.17.04.26.04l.55-.04c.09,0,.17.04.26.04l.55-.04c.09,0,.17.04.26.04l.55-.04c.09,0,.17.04.26.04l.55-.04c.09,0,.17.04.26.04l.55-.04c.09,0,.17.04.26.04l.55-.04c.09,0,.17.04.26.04l.55-.04c.09,0,.17.04.26.04l.55-.04c.09,0,.17.04.26.04l.55-.04c.09,0,.17.04.26.04l.55-.04c.09,0,.17.04.26.04l.55-.04c.09,0,.17.04.26.04l.55-.04c.09,0,.17.04.26.04l.55-.04c.09,0,.17.04.26.04l.55-.04c.09,0,.17.04.26.04l.55-.04c.09,0,.17.04.26.04l.55-.04c.09,0,.17.04.26.04l.55-.04c.09,0,.17.04.26.04l.55-.04c.09,0,.17.04.26.04l.55-.04c1.13-.08,2.23.33,3.03,1.11h-.07Z"/>
    <path class="st0" d="M669.57,173.13c-.08,1.2.43,2.37,1.36,3.16.94.78,2.2,1.09,3.4.82l32.53-7.19,10.56,33.06c.35,1.1,1.18,1.98,2.27,2.41,1.09.43,2.31.36,3.34-.19l31.24-16.77,7.22,41.37c.31,1.81,1.9,3.15,3.78,3.18l44.15.8-62.51,25.49-9.22-30.08c-.39-1.26-1.4-2.23-2.69-2.59s-2.67-.04-3.67.84l-19.4,17.08-17.5-35.26c-.47-.96-1.33-1.68-2.37-1.99-1.04-.31-2.16-.19-3.1.35l-22.09,12.52c-1.05.6-1.76,1.64-1.92,2.83l-14.59,112.02L41.81,296.57,22.44,32,684.4,15.48l-14.83,157.66h0Z"/>
    <path d="M691.35,8.65c-.8-.78-1.9-1.18-3.03-1.11L18.05,24.62c-2.14.14-3.72,2.01-3.64,4.04l19.77,271.29c.1,1.74,1.38,3.19,3.12,3.53l615.62,39.84c1.07.21,2.17-.02,3.05-.64.89-.62,1.47-1.57,1.6-2.63l14.88-114.23,16.78-9.51,17.94,36.14c.53,1.08,1.56,1.85,2.77,2.09,1.2.23,2.45-.11,3.36-.91l18.67-16.45,8.69,28.36c.32,1.04,1.07,1.89,2.07,2.36,1,.47,2.15.49,3.18.07l83.73-34.15c1.48-.6,2.41-2.01,2.41-3.53,0-.24-.02-.47-.07-.71-.35-1.78-1.92-3.08-3.77-3.11l-59.56-1.08-7.6-43.55c-.21-1.22-1.01-2.26-2.15-2.8-1.14-.54-2.47-.5-3.58.09l-31.87,17.11-10.21-31.96c-.61-1.91-2.6-3.03-4.59-2.59l-30.95,6.84,14.78-156.91c.06-1.08-.34-2.18-1.14-2.96h.01ZM22.44,32L684.4,15.48l-14.83,157.66c-.08,1.2.43,2.37,1.36,3.16.94.78,2.2,1.09,3.4.82l32.53-7.19,10.56,33.06c.35,1.1,1.18,1.98,2.27,2.41,1.09.43,2.31.36,3.34-.19l31.24-16.77,7.22,41.37c.31,1.81,1.9,3.15,3.78,3.18l44.15.8-62.51,25.49-9.22-30.08c-.39-1.26-1.4-2.23-2.69-2.59s-2.67-.04-3.67.84l-19.4,17.08-17.5-35.26c-.47-.96-1.33-1.68-2.37-1.99-1.04-.31-2.16-.19-3.1.35l-22.09,12.52c-1.05.6-1.76,1.64-1.92,2.83l-14.59,112.02L41.81,296.57,22.44,32Z"/>
  </g>
  <g>
    <path d="M478.33,87.91h-15.55c-1.83,0-3.14-.34-3.93-1.02-.78-.68-1.17-1.55-1.17-2.62,0-.8.2-1.7.61-2.7l2.8-6.94c.37-.93.98-1.7,1.81-2.3.83-.6,1.81-.9,2.93-.9h8.67c.27,0,.51.1.71.3.2.2.31.43.31.7v9.98h2.8v5.49h.01ZM463.85,67.3c-.54-.43-.82-.96-.82-1.6s.27-1.16.82-1.6,1.21-.65,1.99-.65,1.44.22,1.99.65.82.96.82,1.6-.27,1.17-.82,1.6c-.54.43-1.21.65-1.99.65s-1.44-.22-1.99-.65ZM469.92,82.42v-5.49h-3.77l-2.19,5.49h5.96ZM470.48,67.3c-.54-.43-.82-.96-.82-1.6s.27-1.16.82-1.6c.54-.43,1.21-.65,1.99-.65s1.44.22,1.99.65c.54.43.82.96.82,1.6s-.27,1.17-.82,1.6c-.54.43-1.21.65-1.99.65s-1.45-.22-1.99-.65Z"/>
    <path d="M476.85,83.92c0-.43.14-.79.43-1.07.29-.28.65-.42,1.1-.42h3.67c-.58-1.1-.87-2.28-.87-3.54,0-.96.19-1.9.56-2.79.37-.9.92-1.69,1.63-2.37s1.58-1.23,2.6-1.65c1.02-.42,2.17-.62,3.47-.62h5c1.12,0,2.08.39,2.88,1.17.8.78,1.2,1.72,1.2,2.82v11.48c0,.27-.1.5-.31.7-.2.2-.44.3-.71.3h-19.12c-.44,0-.81-.14-1.1-.42s-.43-.64-.43-1.07v-2.52ZM484.55,67.3c-.54-.43-.82-.96-.82-1.6s.27-1.16.82-1.6c.54-.43,1.21-.65,1.99-.65s1.44.22,1.99.65c.54.43.82.96.82,1.6s-.27,1.17-.82,1.6c-.54.43-1.21.65-1.99.65s-1.45-.22-1.99-.65ZM489.75,76.93c-.82,0-1.51.27-2.09.8s-.87,1.18-.87,1.95.27,1.37.82,1.92c.54.55,1.26.82,2.14.82h3.16v-5.49h-3.16ZM491.18,67.3c-.54-.43-.82-.96-.82-1.6s.27-1.16.82-1.6c.54-.43,1.21-.65,1.99-.65s1.44.22,1.99.65c.54.43.82.96.82,1.6s-.27,1.17-.82,1.6c-.54.43-1.21.65-1.99.65s-1.45-.22-1.99-.65Z"/>
    <path d="M504.12,72.44c0-.27.1-.5.31-.7.2-.2.44-.3.71-.3h3.57c.27,0,.51.1.71.3.2.2.31.43.31.7v15.47c0,1.5-.2,2.79-.61,3.89s-.97,2-1.68,2.72c-.71.71-1.55,1.24-2.52,1.57s-2.01.5-3.14.5c-1.19,0-2.43-.17-3.72-.52s-2.58-.86-3.87-1.52l1.48-4.14c.68.27,1.45.52,2.32.77s1.69.37,2.47.37c.99,0,1.84-.26,2.57-.77s1.1-1.47,1.1-2.87v-15.47h-.01Z"/>
    <path d="M519.88,60.46c.27,0,.51.1.71.3s.31.43.31.7v20.96h2.8v5.49h-7.39c-.27,0-.51-.1-.71-.3-.2-.2-.31-.43-.31-.7v-25.45c0-.27.1-.5.31-.7s.44-.3.71-.3c0,0,3.57,0,3.57,0Z"/>
    <path d="M522.22,83.92c0-.43.14-.79.43-1.07s.65-.42,1.1-.42h11.83c-.31-.7-.61-1.46-.92-2.29s-.66-1.61-1.07-2.35c-.41-.73-.89-1.35-1.45-1.85s-1.25-.75-2.07-.75c-.58,0-1.14.1-1.68.3-.54.2-1.07.48-1.58.85l-1.53-3.89c.92-.73,1.94-1.33,3.06-1.8s2.23-.7,3.31-.7c1.56,0,2.82.43,3.77,1.3s1.77,1.93,2.45,3.19,1.3,2.62,1.86,4.07,1.21,2.75,1.96,3.92h2.45v5.49h-20.39c-.44,0-.81-.14-1.1-.42s-.43-.64-.43-1.07v-2.5h0ZM529.67,66.8c-.54-.43-.82-.96-.82-1.6s.27-1.16.82-1.6c.54-.43,1.21-.65,1.99-.65s1.44.22,1.99.65c.54.43.82.96.82,1.6s-.27,1.17-.82,1.6c-.54.43-1.21.65-1.99.65s-1.45-.22-1.99-.65Z"/>
    <path d="M546.95,82.42v-20.96c0-.27.1-.5.31-.7.2-.2.44-.3.71-.3h3.57c.27,0,.51.1.71.3s.31.43.31.7v22.46c0,1.1-.4,2.04-1.2,2.82s-1.76,1.17-2.88,1.17h-4.33c-.44,0-.81-.14-1.1-.42s-.43-.64-.43-1.07v-2.5c0-.43.14-.79.43-1.07s.65-.42,1.1-.42h2.8Z"/>
    <path d="M562.7,60.46c.27,0,.51.1.71.3s.31.43.31.7v25.45c0,.27-.1.5-.31.7-.2.2-.44.3-.71.3h-3.57c-.27,0-.51-.1-.71-.3-.2-.2-.31-.43-.31-.7v-25.45c0-.27.1-.5.31-.7s.44-.3.71-.3c0,0,3.57,0,3.57,0Z"/>
    <path d="M575.45,87.91v-8.98c0-1.26.27-2.37.82-3.32s1.26-1.73,2.14-2.35c.88-.62,1.9-1.07,3.06-1.37s2.33-.45,3.52-.45c1.29,0,2.58.19,3.85.57,1.27.38,2.42.96,3.44,1.72v14.17h-16.83ZM586.66,82.42v-5.04c-.44-.13-.86-.24-1.25-.32s-.74-.12-1.04-.12c-.92,0-1.7.2-2.34.6-.65.4-.97.95-.97,1.65v3.24h5.61-.01Z"/>
    <path d="M602.47,60.46c.27,0,.51.1.71.3s.31.43.31.7v25.45c0,.27-.1.5-.31.7-.2.2-.44.3-.71.3h-3.57c-.27,0-.51-.1-.71-.3-.2-.2-.31-.43-.31-.7v-25.45c0-.27.1-.5.31-.7s.44-.3.71-.3c0,0,3.57,0,3.57,0Z"/>
    <path d="M614.2,87.91c-1.43,0-2.63-.48-3.62-1.45-.99-.96-1.48-2.15-1.48-3.54v-2.99c0-1.46.25-2.73.74-3.79s1.15-1.95,1.96-2.65c.82-.7,1.76-1.21,2.83-1.55,1.07-.33,2.2-.5,3.39-.5,1.33,0,2.68.21,4.05.62,1.38.42,2.66,1.04,3.85,1.87v8.48h2.8v5.49h-2.8c0,1.5-.2,2.79-.61,3.89s-.97,2-1.68,2.72c-.71.71-1.56,1.24-2.52,1.57-.97.33-2.01.5-3.13.5-1.19,0-2.47-.17-3.85-.52s-2.71-.86-4-1.52l1.48-4.09c.71.27,1.5.52,2.37.75s1.71.35,2.52.35c1.05,0,1.95-.26,2.7-.77.75-.52,1.12-1.47,1.12-2.87h-6.12ZM620.31,82.42v-5.09c-.88-.27-1.68-.4-2.4-.4-.88,0-1.64.25-2.27.75s-.94,1.25-.94,2.25v2.5h5.61Z"/>
    <path d="M627.25,83.92c0-.43.15-.79.43-1.07.29-.28.66-.42,1.1-.42h3.67c-.58-1.1-.87-2.28-.87-3.54,0-.96.19-1.9.56-2.79.37-.9.92-1.69,1.63-2.37s1.58-1.23,2.6-1.65,2.17-.62,3.47-.62h5c1.12,0,2.08.39,2.88,1.17s1.2,1.72,1.2,2.82v11.48c0,.27-.1.5-.31.7-.2.2-.44.3-.71.3h-19.12c-.44,0-.81-.14-1.1-.42s-.43-.64-.43-1.07v-2.52ZM634.94,67.3c-.54-.43-.82-.96-.82-1.6s.27-1.16.82-1.6,1.21-.65,1.99-.65,1.44.22,1.99.65.82.96.82,1.6-.27,1.17-.82,1.6c-.54.43-1.21.65-1.99.65s-1.44-.22-1.99-.65ZM640.14,76.93c-.82,0-1.51.27-2.09.8-.58.53-.87,1.18-.87,1.95s.27,1.37.82,1.92c.54.55,1.26.82,2.14.82h3.16v-5.49h-3.16ZM641.57,67.3c-.54-.43-.82-.96-.82-1.6s.27-1.16.82-1.6c.54-.43,1.21-.65,1.99-.65s1.44.22,1.99.65c.54.43.82.96.82,1.6s-.27,1.17-.82,1.6c-.54.43-1.21.65-1.99.65s-1.45-.22-1.99-.65Z"/>
    <path d="M479.92,129.85c.86-.86,1.29-1.89,1.29-3.08h-7.2c-1.03,0-1.9-.36-2.63-1.07s-1.09-1.57-1.09-2.57v-5.34c0-1.2.24-2.24.72-3.13s1.11-1.63,1.89-2.21,1.68-1.01,2.7-1.29,2.08-.41,3.18-.41c1.19,0,2.4.15,3.62.46s2.32.75,3.28,1.33v14.23c0,1.2-.23,2.33-.69,3.4-.46,1.07-1.1,2-1.91,2.79s-1.76,1.42-2.85,1.87-2.25.68-3.47.68h-7.44c-1.22,0-2.38-.23-3.47-.68s-2.04-1.08-2.85-1.87-1.45-1.72-1.91-2.79-.69-2.2-.69-3.4v-6.56c0-.26.1-.49.3-.68.2-.19.43-.29.7-.29h2.48c.26,0,.5.1.7.29s.3.42.3.68v6.56c0,1.2.44,2.23,1.31,3.08.88.86,1.93,1.29,3.15,1.29h7.44c1.26,0,2.32-.43,3.18-1.29h-.04ZM472.82,103.6c.53-.42,1.17-.63,1.94-.63s1.41.21,1.94.63.79.94.79,1.55-.26,1.13-.79,1.55-1.17.63-1.94.63-1.41-.21-1.94-.63-.79-.94-.79-1.55.26-1.13.79-1.55ZM481.21,115.64c-1.09-.36-2-.53-2.73-.53-.99,0-1.86.23-2.61.68-.74.45-1.12,1.12-1.12,1.99v4.61h6.45v-6.75h0ZM479.28,103.6c.53-.42,1.17-.63,1.94-.63s1.41.21,1.93.63c.53.42.79.94.79,1.55s-.26,1.13-.79,1.55-1.17.63-1.93.63-1.41-.21-1.94-.63-.79-.94-.79-1.55.26-1.13.79-1.55Z"/>
    <path d="M489.8,132.54c.93,0,1.71-.31,2.36-.92s.97-1.59.97-2.91v-15.06c0-.26.1-.49.3-.68.2-.19.43-.29.69-.29h2.48c.26,0,.5.1.69.29s.3.42.3.68v15.06c0,1.46-.17,2.7-.52,3.72-.35,1.02-.83,1.85-1.46,2.5s-1.37,1.12-2.23,1.43-1.8.46-2.83.46c-1.22,0-2.4-.16-3.52-.49l1.04-4.13c.56.23,1.14.34,1.74.34h-.01Z"/>
    <path d="M508.21,102.29c.2.19.3.42.3.68v21.37h3.23v4.37h-6.7c-.26,0-.5-.1-.69-.29s-.3-.42-.3-.68v-24.77c0-.26.1-.49.3-.68.2-.19.43-.29.69-.29h2.48c.26,0,.5.1.69.29h0Z"/>
    <path d="M510.66,124.75c.28-.28.64-.41,1.07-.41h12.5c-.33-.78-.67-1.68-1.02-2.7-.35-1.02-.76-1.99-1.24-2.91s-1.03-1.7-1.66-2.33c-.63-.63-1.41-.95-2.33-.95-.56,0-1.11.11-1.64.34s-1.08.52-1.64.87l-1.49-3.01c.89-.71,1.86-1.29,2.9-1.75s2.08-.68,3.1-.68,1.85.21,2.58.63,1.37.98,1.91,1.68c.55.7,1.03,1.5,1.46,2.4.43.91.85,1.85,1.27,2.82.41.97.84,1.94,1.29,2.92.45.97.97,1.86,1.56,2.67h2.28v4.37h-19.85c-.43,0-.79-.14-1.07-.41s-.42-.62-.42-1.04v-1.46c0-.42.14-.77.42-1.04h.02ZM517.49,105.05c.53-.42,1.17-.63,1.94-.63s1.41.21,1.94.63.79.94.79,1.55-.26,1.13-.79,1.55-1.17.63-1.94.63-1.41-.21-1.94-.63-.79-.94-.79-1.55.26-1.13.79-1.55Z"/>
    <path d="M534.8,102.97c0-.26.1-.49.3-.68s.43-.29.7-.29h2.48c.26,0,.5.1.7.29s.3.42.3.68v21.86c0,1.07-.39,1.98-1.17,2.74-.78.76-1.71,1.14-2.8,1.14h-3.72c-.43,0-.79-.14-1.07-.41s-.42-.62-.42-1.04v-1.46c0-.42.14-.77.42-1.04.28-.28.64-.41,1.07-.41h3.23v-21.37h-.02Z"/>
    <path d="M549.89,102.29c.2.19.3.42.3.68v24.77c0,.26-.1.49-.3.68s-.43.29-.7.29h-2.48c-.26,0-.5-.1-.7-.29-.2-.19-.3-.42-.3-.68v-24.77c0-.26.1-.49.3-.68s.43-.29.7-.29h2.48c.26,0,.5.1.7.29Z"/>
    <path d="M562.29,128.42c-.2-.19-.3-.42-.3-.68v-1.94c0-.26.1-.49.3-.68s.43-.29.7-.29h2.48c-.79-1.17-1.41-2.23-1.84-3.21-.43-.97-.64-1.98-.64-3.01,0-.87.14-1.6.42-2.19.28-.58.65-1.04,1.09-1.38.45-.34.96-.58,1.54-.7.58-.13,1.18-.19,1.81-.19,1.09,0,2.21.17,3.35.51s2.14.77,3,1.29l-1.54,3.06c-.26-.16-.75-.36-1.46-.58s-1.41-.34-2.11-.34c-.43,0-.8.08-1.12.24s-.47.5-.47,1.02c0,.49.15,1.01.45,1.58s.63,1.11.99,1.63.73.99,1.09,1.41.6.71.69.87h3.92c.26,0,.5.1.7.29s.3.42.3.68v1.94c0,.26-.1.49-.3.68s-.43.29-.7.29h-11.66c-.26,0-.5-.1-.7-.29h.01Z"/>
    <path d="M585.62,102.29c.2.19.3.42.3.68v21.37h3.22v4.37h-6.7c-.26,0-.5-.1-.7-.29-.2-.19-.3-.42-.3-.68v-24.77c0-.26.1-.49.3-.68s.43-.29.7-.29h2.48c.26,0,.5.1.7.29h0Z"/>
    <path d="M588.07,128.29c-.28-.28-.42-.62-.42-1.04v-1.46c0-.42.14-.77.42-1.04.28-.28.64-.41,1.07-.41h12.65v-3.3c0-.75-.13-1.37-.4-1.87s-.63-.91-1.09-1.24c-.46-.32-1-.55-1.61-.68s-1.27-.19-1.96-.19c-.56,0-1.13.05-1.71.15s-1.1.23-1.56.39l-1.49-3.79,11.86-11.66,3.18,3.11-7.49,7.38c1.98.32,3.61,1.17,4.86,2.55s1.89,3.33,1.89,5.85v6.7c0,.26-.1.49-.3.68s-.43.29-.69.29h-16.13c-.43,0-.79-.14-1.07-.41h0Z"/>
    <path d="M622.14,124.34v-4.86c0-.78-.14-1.44-.42-1.99-.28-.55-.65-1-1.12-1.33-.46-.34-1.01-.58-1.64-.73s-1.29-.22-1.99-.22c-.56,0-1.14.05-1.74.15s-1.16.24-1.69.44l-1.09-4.08c1.03-.32,2-.57,2.93-.73s1.84-.24,2.73-.24c1.22,0,2.35.17,3.37.51,1.03.34,1.92.87,2.68,1.58s1.36,1.62,1.79,2.72.65,2.41.65,3.93v4.86h3.23v4.37h-18.36v-4.37h10.67ZM615.24,103.6c.53-.42,1.17-.63,1.94-.63s1.41.21,1.93.63.79.94.79,1.55-.26,1.13-.79,1.55-1.17.63-1.93.63-1.41-.21-1.94-.63-.79-.94-.79-1.55.26-1.13.79-1.55Z"/>
    <path d="M633.06,102.97c0-.26.1-.49.3-.68s.43-.29.69-.29h2.48c.26,0,.5.1.69.29.2.19.3.42.3.68v21.86c0,1.07-.39,1.98-1.17,2.74-.78.76-1.71,1.14-2.8,1.14h-3.72c-.43,0-.79-.14-1.07-.41s-.42-.62-.42-1.04v-1.46c0-.42.14-.77.42-1.04.28-.28.64-.41,1.07-.41h3.23v-21.37h0Z"/>
    <path d="M648.14,102.29c.2.19.3.42.3.68v24.77c0,.26-.1.49-.3.68-.2.19-.43.29-.69.29h-2.48c-.26,0-.5-.1-.69-.29s-.3-.42-.3-.68v-24.77c0-.26.1-.49.3-.68s.43-.29.69-.29h2.48c.26,0,.5.1.69.29Z"/>
    <path d="M299.09,160.28c0-1.17.26-2.18.77-3.04s1.17-1.56,1.98-2.11,1.75-.96,2.8-1.24c1.06-.27,2.13-.41,3.23-.41,1.19,0,2.35.16,3.47.49s2.17.81,3.13,1.46v14.08h-15.38v-9.23h0ZM301.62,146.34c.53-.42,1.17-.63,1.94-.63s1.41.21,1.94.63.79.94.79,1.55-.26,1.13-.79,1.55-1.17.63-1.94.63-1.41-.21-1.94-.63-.79-.94-.79-1.55.26-1.13.79-1.55ZM310.01,158.39c-1.09-.36-2-.53-2.73-.53-.99,0-1.86.23-2.61.68-.74.45-1.12,1.12-1.12,1.99v4.61h6.45v-6.75h0ZM308.08,146.34c.53-.42,1.17-.63,1.94-.63s1.41.21,1.94.63.79.94.79,1.55-.26,1.13-.79,1.55-1.17.63-1.94.63-1.41-.21-1.94-.63-.79-.94-.79-1.55.26-1.13.79-1.55Z"/>
    <path d="M321.23,153.77c.2-.19.43-.29.69-.29h2.48c.26,0,.5.1.69.29.2.19.3.42.3.68v15.06c0,1.46-.17,2.7-.52,3.72-.35,1.02-.83,1.86-1.46,2.53-.63.66-1.37,1.15-2.23,1.46-.86.31-1.8.46-2.83.46-1.16,0-2.37-.17-3.65-.51-1.27-.34-2.59-.83-3.94-1.48l1.44-3.45c.76.36,1.63.68,2.6.97.98.29,1.93.44,2.85.44.46,0,.89-.06,1.29-.19s.74-.35,1.04-.66.53-.73.69-1.26.25-1.21.25-2.02v-15.06c0-.26.1-.49.3-.68h0Z"/>
    <path d="M341.27,165.14v-4.86c0-.78-.14-1.44-.42-1.99s-.65-1-1.12-1.33-1.01-.58-1.64-.73-1.29-.22-1.98-.22c-.56,0-1.14.05-1.74.15-.6.1-1.16.24-1.69.44l-1.09-4.08c1.03-.32,2-.57,2.93-.73s1.84-.24,2.73-.24c1.22,0,2.35.17,3.37.51,1.03.34,1.92.87,2.68,1.58.76.71,1.36,1.62,1.79,2.72.43,1.1.65,2.41.65,3.93v4.86h3.23v4.37h-18.36v-4.37h10.67-.01Z"/>
    <path d="M347.9,165.55c.28-.28.64-.41,1.07-.41h4.07c-.3-.52-.51-1.08-.65-1.68s-.2-1.22-.2-1.87c0-.94.16-1.89.47-2.87s.81-1.85,1.49-2.62c.68-.78,1.55-1.41,2.6-1.89,1.06-.49,2.32-.73,3.77-.73h3.57c1.09,0,2.03.38,2.8,1.14.78.76,1.17,1.68,1.17,2.74v11.17c0,.26-.1.49-.3.68-.2.19-.43.29-.69.29h-18.11c-.43,0-.79-.14-1.07-.41s-.42-.62-.42-1.04v-1.46c0-.42.14-.77.42-1.04h0ZM354.97,146.34c.53-.42,1.17-.63,1.94-.63s1.41.21,1.94.63.79.94.79,1.55-.26,1.13-.79,1.55-1.17.63-1.94.63-1.41-.21-1.94-.63-.79-.94-.79-1.55.26-1.13.79-1.55ZM357.7,158.9c-.69.7-1.04,1.56-1.04,2.6,0,.94.33,1.78.99,2.53s1.52,1.12,2.58,1.12h3.37v-7.29h-3.37c-.99,0-1.84.35-2.53,1.04h0ZM361.42,146.34c.53-.42,1.17-.63,1.94-.63s1.41.21,1.94.63.79.94.79,1.55-.26,1.13-.79,1.55-1.17.63-1.94.63-1.41-.21-1.94-.63-.79-.94-.79-1.55.26-1.13.79-1.55Z"/>
    <path d="M400.03,170.65c.86-.86,1.29-1.89,1.29-3.08h-7.2c-1.03,0-1.9-.36-2.63-1.07s-1.09-1.57-1.09-2.57v-5.34c0-1.2.24-2.24.72-3.13s1.11-1.63,1.89-2.21,1.68-1.01,2.7-1.29c1.03-.28,2.08-.41,3.18-.41,1.19,0,2.4.15,3.62.46,1.22.31,2.32.75,3.27,1.33v14.23c0,1.2-.23,2.33-.69,3.4s-1.1,2-1.91,2.79-1.76,1.42-2.85,1.87-2.25.68-3.47.68h-7.44c-1.22,0-2.38-.23-3.47-.68s-2.04-1.08-2.85-1.87-1.45-1.72-1.91-2.79c-.46-1.07-.69-2.2-.69-3.4v-6.56c0-.26.1-.49.3-.68.2-.19.43-.29.69-.29h2.48c.26,0,.5.1.69.29.2.19.3.42.3.68v6.56c0,1.2.44,2.23,1.31,3.08.88.86,1.93,1.29,3.15,1.29h7.44c1.26,0,2.32-.43,3.18-1.29h0ZM392.93,144.4c.53-.42,1.17-.63,1.94-.63s1.41.21,1.93.63.79.94.79,1.55-.26,1.13-.79,1.55-1.17.63-1.93.63-1.41-.21-1.94-.63-.79-.94-.79-1.55.26-1.13.79-1.55ZM401.32,156.44c-1.09-.36-2-.53-2.73-.53-.99,0-1.86.23-2.61.68-.74.45-1.12,1.12-1.12,1.99v4.61h6.45v-6.75h0ZM399.38,144.4c.53-.42,1.17-.63,1.93-.63s1.41.21,1.94.63.79.94.79,1.55-.26,1.13-.79,1.55-1.17.63-1.94.63-1.41-.21-1.93-.63-.79-.94-.79-1.55.26-1.13.79-1.55Z"/>
    <path d="M412.88,158.05c.43-1.04,1.01-1.89,1.74-2.57.73-.68,1.57-1.18,2.53-1.51.96-.32,1.99-.49,3.08-.49,1.26,0,2.51.2,3.77.61,1.26.41,2.46,1.01,3.62,1.82v9.23h3.23v4.37h-3.23c0,1.46-.17,2.7-.52,3.74-.35,1.04-.83,1.89-1.46,2.55s-1.37,1.15-2.23,1.46-1.8.46-2.83.46c-1.16,0-2.33-.18-3.52-.53-1.19-.36-2.46-.86-3.82-1.51l1.44-3.4c.79.36,1.63.66,2.51.92s1.73.39,2.56.39c.99,0,1.81-.28,2.46-.85s.97-1.64.97-3.23h-6.45c-1.26,0-2.32-.42-3.18-1.26s-1.29-1.88-1.29-3.11v-3.4c0-1.42.21-2.65.65-3.69h-.03ZM423.15,158.34c-.86-.32-1.8-.49-2.83-.49-.96,0-1.8.31-2.53.92s-1.09,1.6-1.09,2.96v3.4h6.45v-6.8h0Z"/>
    <path d="M429.78,169.09c-.28-.28-.42-.62-.42-1.04v-1.46c0-.42.14-.77.42-1.04.28-.28.64-.41,1.07-.41h4.07c-.3-.52-.51-1.08-.65-1.68-.13-.6-.2-1.22-.2-1.87,0-.94.16-1.89.47-2.87s.81-1.85,1.49-2.62c.68-.78,1.55-1.41,2.61-1.89,1.06-.49,2.32-.73,3.77-.73h3.57c1.09,0,2.03.38,2.8,1.14.78.76,1.17,1.68,1.17,2.74v7.77h3.23v4.37h-22.33c-.43,0-.79-.14-1.07-.41h0ZM445.48,157.85h-3.37c-.99,0-1.84.35-2.53,1.04-.69.7-1.04,1.56-1.04,2.6,0,.94.33,1.78.99,2.53s1.49,1.12,2.48,1.12h3.47v-7.29ZM440.07,146.34c.53-.42,1.17-.63,1.94-.63s1.41.21,1.94.63.79.94.79,1.55-.26,1.13-.79,1.55-1.17.63-1.94.63-1.41-.21-1.94-.63-.79-.94-.79-1.55.26-1.13.79-1.55Z"/>
    <path d="M452.11,165.55c.28-.28.64-.41,1.07-.41h5.21v-10.69c0-.26.1-.49.3-.68.2-.19.43-.29.7-.29h2.48c.26,0,.5.1.7.29s.3.42.3.68v11.17c0,1.07-.39,1.98-1.17,2.74s-1.71,1.14-2.8,1.14h-5.71c-.43,0-.79-.14-1.07-.41s-.42-.62-.42-1.04v-1.46c0-.42.14-.77.42-1.04h-.01ZM454.22,146.34c.53-.42,1.17-.63,1.94-.63s1.41.21,1.94.63.79.94.79,1.55-.26,1.13-.79,1.55-1.17.63-1.94.63-1.41-.21-1.94-.63-.79-.94-.79-1.55.26-1.13.79-1.55ZM460.67,146.34c.53-.42,1.17-.63,1.94-.63s1.41.21,1.93.63.79.94.79,1.55-.26,1.13-.79,1.55-1.17.63-1.93.63-1.41-.21-1.94-.63-.79-.94-.79-1.55.26-1.13.79-1.55Z"/>
    <path d="M480.22,169.51c-1.79,0-3.06-.33-3.82-1-.76-.66-1.14-1.51-1.14-2.55,0-.78.2-1.65.59-2.62l2.73-6.75c.36-.91.97-1.65,1.81-2.23s1.78-.87,2.8-.87h7.44c.26,0,.5.1.7.29s.3.42.3.68v10.69h3.22v4.37h-14.64.01ZM480.76,146.34c.53-.42,1.17-.63,1.93-.63s1.41.21,1.94.63.79.94.79,1.55-.26,1.13-.79,1.55-1.17.63-1.94.63-1.41-.21-1.93-.63-.79-.94-.79-1.55.26-1.13.79-1.55ZM487.17,157.85h-4.27l-2.93,7.29h7.2v-7.29h0ZM487.21,146.34c.53-.42,1.17-.63,1.94-.63s1.41.21,1.94.63.79.94.79,1.55-.26,1.13-.79,1.55-1.17.63-1.94.63-1.41-.21-1.94-.63-.79-.94-.79-1.55.26-1.13.79-1.55Z"/>
    <path d="M493.82,165.52c.3-.26.65-.39,1.04-.39h4.81c-.76-.75-1.31-1.55-1.66-2.43s-.52-1.75-.52-2.62c0-1.07.21-2.02.65-2.87.43-.84,1.01-1.55,1.74-2.14.73-.58,1.58-1.03,2.56-1.34s2.03-.46,3.15-.46c1.06,0,2.15.14,3.27.41,1.12.28,2.27.69,3.42,1.24l-1.69,3.79c-.66-.26-1.39-.5-2.18-.73s-1.6-.34-2.43-.34c-.4,0-.83.06-1.31.17s-.93.29-1.34.53-.76.57-1.04.97-.42.91-.42,1.53c0,.45.1.92.3,1.41.2.49.5.95.89,1.38.4.44.88.79,1.46,1.07s1.23.41,1.96.41h6.65l-.89,4.37h-17.37c-.43,0-.79-.14-1.07-.41s-.42-.62-.42-1.04v-1.46c0-.45.15-.81.45-1.07v.02Z"/>
    <path d="M512.8,173.22c.98.31,1.91.46,2.8.46s1.71-.29,2.36-.87.97-1.68.97-3.3v-15.06c0-.26.1-.49.3-.68.2-.19.43-.29.69-.29h2.48c.26,0,.5.1.69.29s.3.42.3.68v10.69h3.23v4.37h-3.23c0,1.46-.17,2.7-.52,3.74-.35,1.04-.83,1.89-1.46,2.55s-1.37,1.15-2.23,1.46-1.8.46-2.83.46c-1.16,0-2.37-.18-3.65-.53s-2.59-.86-3.95-1.51l1.44-3.45c.76.36,1.63.69,2.6,1h.01Z"/>
    <path d="M525.55,169.09c-.28-.28-.42-.62-.42-1.04v-1.46c0-.42.14-.77.42-1.04.28-.28.64-.41,1.07-.41h5.21v-10.69c0-.26.1-.49.3-.68.2-.19.43-.29.7-.29h2.48c.26,0,.5.1.7.29s.3.42.3.68v10.69h5.46v-10.69c0-.26.1-.49.3-.68s.43-.29.69-.29h2.48c.26,0,.5.1.69.29.2.19.3.42.3.68v10.69h5.46v-10.69c0-.26.1-.49.3-.68.2-.19.43-.29.7-.29h2.48c.26,0,.5.1.7.29s.3.42.3.68v10.69h5.21v4.37h-34.74c-.43,0-.79-.14-1.07-.41h-.02Z"/>
    <path d="M560.29,165.55c.28-.28.64-.41,1.07-.41h5.21v-10.69c0-.26.1-.49.3-.68s.43-.29.69-.29h2.48c.26,0,.5.1.69.29.2.19.3.42.3.68v11.17c0,1.07-.39,1.98-1.17,2.74s-1.71,1.14-2.8,1.14h-5.71c-.43,0-.79-.14-1.07-.41s-.42-.62-.42-1.04v-1.46c0-.42.14-.77.42-1.04h.01ZM564.43,173.05c.53-.42,1.17-.63,1.94-.63s1.41.21,1.93.63.79.94.79,1.55-.26,1.13-.79,1.56c-.53.42-1.17.63-1.93.63s-1.41-.21-1.94-.63-.79-.94-.79-1.56.26-1.13.79-1.55Z"/>
    <path d="M582.27,173.22c.98.31,1.91.46,2.8.46s1.71-.29,2.36-.87c.65-.58.97-1.68.97-3.3v-15.06c0-.26.1-.49.3-.68s.43-.29.7-.29h2.48c.26,0,.5.1.7.29.2.19.3.42.3.68v10.69h3.23v4.37h-3.23c0,1.46-.17,2.7-.52,3.74s-.83,1.89-1.46,2.55-1.37,1.15-2.23,1.46c-.86.31-1.8.46-2.83.46-1.16,0-2.37-.18-3.65-.53-1.27-.36-2.59-.86-3.94-1.51l1.44-3.45c.76.36,1.63.69,2.61,1h-.03Z"/>
    <path d="M595.02,169.09c-.28-.28-.42-.62-.42-1.04v-1.46c0-.42.14-.77.42-1.04.28-.28.64-.41,1.07-.41h12.65v-3.3c0-.75-.13-1.37-.4-1.87s-.63-.91-1.09-1.24c-.46-.32-1-.55-1.61-.68-.61-.13-1.27-.19-1.96-.19-.56,0-1.13.05-1.71.15-.58.1-1.1.23-1.56.39l-1.49-3.79,11.86-11.66,3.18,3.11-7.49,7.38c1.98.32,3.61,1.17,4.86,2.55s1.89,3.33,1.89,5.85v3.3h3.23v4.37h-20.34c-.43,0-.79-.14-1.07-.41h-.02Z"/>
    <path d="M615.37,169.09c-.28-.28-.42-.62-.42-1.04v-1.46c0-.42.14-.77.42-1.04.28-.28.64-.41,1.07-.41h4.07c-.3-.52-.51-1.08-.65-1.68-.13-.6-.2-1.22-.2-1.87,0-.94.16-1.89.47-2.87s.81-1.85,1.49-2.62c.68-.78,1.55-1.41,2.61-1.89,1.06-.49,2.32-.73,3.77-.73h3.57c1.09,0,2.03.38,2.8,1.14.78.76,1.17,1.68,1.17,2.74v7.77h3.23v4.37h-22.33c-.43,0-.79-.14-1.07-.41h0ZM631.07,157.85h-3.37c-.99,0-1.84.35-2.53,1.04-.69.7-1.04,1.56-1.04,2.6,0,.94.33,1.78.99,2.53s1.49,1.12,2.48,1.12h3.47v-7.29h0ZM625.66,146.34c.53-.42,1.17-.63,1.94-.63s1.41.21,1.94.63.79.94.79,1.55-.26,1.13-.79,1.55-1.17.63-1.94.63-1.41-.21-1.94-.63-.79-.94-.79-1.55.26-1.13.79-1.55Z"/>
    <path d="M637.7,165.55c.28-.28.64-.41,1.07-.41h5.21v-10.69c0-.26.1-.49.3-.68s.43-.29.69-.29h2.48c.26,0,.5.1.69.29.2.19.3.42.3.68v11.17c0,1.07-.39,1.98-1.17,2.74s-1.71,1.14-2.8,1.14h-5.71c-.43,0-.79-.14-1.07-.41s-.42-.62-.42-1.04v-1.46c0-.42.14-.77.42-1.04h.01ZM638.57,173.05c.53-.42,1.17-.63,1.94-.63s1.41.21,1.94.63.79.94.79,1.55-.26,1.13-.79,1.56c-.53.42-1.17.63-1.94.63s-1.41-.21-1.94-.63-.79-.94-.79-1.56.26-1.13.79-1.55ZM645.02,173.05c.53-.42,1.17-.63,1.94-.63s1.41.21,1.93.63.79.94.79,1.55-.26,1.13-.79,1.56c-.53.42-1.17.63-1.93.63s-1.41-.21-1.94-.63-.79-.94-.79-1.56.26-1.13.79-1.55Z"/>
    <path d="M421.66,210.31c-1.79,0-3.06-.33-3.82-1-.76-.66-1.14-1.51-1.14-2.55,0-.78.2-1.65.6-2.62l2.73-6.75c.36-.91.97-1.65,1.81-2.23s1.78-.87,2.8-.87h7.44c.26,0,.5.1.69.29.2.19.3.42.3.68v10.69h3.23v4.37h-14.64,0ZM422.21,187.14c.53-.42,1.17-.63,1.94-.63s1.41.21,1.94.63.79.94.79,1.55-.26,1.13-.79,1.55-1.17.63-1.94.63-1.41-.21-1.94-.63-.79-.94-.79-1.55.26-1.13.79-1.55ZM428.61,198.65h-4.27l-2.93,7.29h7.2v-7.29h0ZM428.66,187.14c.53-.42,1.17-.63,1.94-.63s1.41.21,1.93.63.79.94.79,1.55-.26,1.13-.79,1.55-1.17.63-1.93.63-1.41-.21-1.94-.63-.79-.94-.79-1.55.26-1.13.79-1.55Z"/>
    <path d="M435.24,206.35c.28-.28.64-.41,1.07-.41h5.21v-10.69c0-.26.1-.49.3-.68s.43-.29.69-.29h2.48c.26,0,.5.1.69.29.2.19.3.42.3.68v10.69h5.21v4.37h-14.89c-.43,0-.79-.14-1.07-.41s-.42-.62-.42-1.04v-1.46c0-.42.14-.77.42-1.04h.01ZM437.1,213.85c.53-.42,1.17-.63,1.93-.63s1.41.21,1.94.63.79.94.79,1.55-.26,1.13-.79,1.55-1.17.63-1.94.63-1.41-.21-1.93-.63-.79-.94-.79-1.55.26-1.13.79-1.55ZM443.55,213.85c.53-.42,1.17-.63,1.94-.63s1.41.21,1.94.63.79.94.79,1.55-.26,1.13-.79,1.55-1.17.63-1.94.63-1.41-.21-1.94-.63-.79-.94-.79-1.55.26-1.13.79-1.55Z"/>
    <path d="M450.12,206.35c.28-.28.64-.41,1.07-.41h6.7l-2.93-4.95c-.2-.32-.34-.69-.42-1.09-.08-.4-.12-.8-.12-1.19,0-.55.08-1.09.25-1.63.17-.53.41-1,.74-1.41.33-.4.74-.74,1.24-1s1.08-.39,1.74-.39h10.42c.66,0,1.24.13,1.74.39s.91.59,1.24,1,.58.87.74,1.41.25,1.08.25,1.63c0,.39-.04.78-.12,1.17s-.22.76-.42,1.12l-2.88,4.95h6.65v4.37h-24.81c-.43,0-.79-.14-1.07-.41s-.42-.62-.42-1.04v-1.46c0-.42.14-.77.42-1.04v-.02ZM458.78,198.65l4.52,7.29h.55l4.61-7.29h-9.68,0Z"/>
    <path d="M474.93,206.35c.28-.28.64-.41,1.07-.41h5.21v-10.69c0-.26.1-.49.3-.68s.43-.29.69-.29h2.48c.26,0,.5.1.69.29.2.19.3.42.3.68v10.69h5.21v4.37h-14.89c-.43,0-.79-.14-1.07-.41s-.42-.62-.42-1.04v-1.46c0-.42.14-.77.42-1.04h.01ZM476.79,213.85c.53-.42,1.17-.63,1.93-.63s1.41.21,1.94.63.79.94.79,1.55-.26,1.13-.79,1.55-1.17.63-1.94.63-1.41-.21-1.93-.63-.79-.94-.79-1.55.26-1.13.79-1.55ZM483.25,213.85c.53-.42,1.17-.63,1.94-.63s1.41.21,1.94.63.79.94.79,1.55-.26,1.13-.79,1.55-1.17.63-1.94.63-1.41-.21-1.94-.63-.79-.94-.79-1.55.26-1.13.79-1.55Z"/>
    <path d="M489.82,206.35c.28-.28.64-.41,1.07-.41h5.21v-10.69c0-.26.1-.49.3-.68.2-.19.43-.29.7-.29h2.48c.26,0,.5.1.7.29s.3.42.3.68v10.69h5.21v4.37h-14.89c-.43,0-.79-.14-1.07-.41s-.42-.62-.42-1.04v-1.46c0-.42.14-.77.42-1.04h0ZM496.4,213.85c.53-.42,1.17-.63,1.94-.63s1.41.21,1.94.63.79.94.79,1.55-.26,1.13-.79,1.55-1.17.63-1.94.63-1.41-.21-1.94-.63-.79-.94-.79-1.55.26-1.13.79-1.55Z"/>
    <path d="M504.71,209.9c-.28-.28-.42-.62-.42-1.04v-1.46c0-.42.14-.77.42-1.04.28-.28.64-.41,1.07-.41h3.23v-21.37c0-.26.1-.49.3-.68.2-.19.43-.29.69-.29h2.48c.26,0,.5.1.69.29.2.19.3.42.3.68v16.03l6.1-4.86c.53-.42,1.09-.77,1.69-1.04.59-.27,1.27-.41,2.03-.41h6.05c1.09,0,2.03.38,2.8,1.14.78.76,1.17,1.68,1.17,2.74v7.77h3.23v4.37h-30.77c-.43,0-.79-.14-1.07-.41h.01ZM528.85,205.94v-7.29h-6.3l-9.18,7.29h15.48Z"/>
    <path d="M539.77,184.57c0-.26.1-.49.3-.68.2-.19.43-.29.7-.29h2.48c.26,0,.5.1.7.29.2.19.3.42.3.68v21.86c0,1.07-.39,1.98-1.17,2.74s-1.71,1.14-2.8,1.14h-3.72c-.43,0-.79-.14-1.07-.41s-.42-.62-.42-1.04v-1.46c0-.42.14-.77.42-1.04.28-.28.64-.41,1.07-.41h3.23v-21.37h-.02Z"/>
    <path d="M554.85,183.89c.2.19.3.42.3.68v24.77c0,.26-.1.49-.3.68s-.43.29-.7.29h-2.48c-.26,0-.5-.1-.7-.29-.2-.19-.3-.42-.3-.68v-24.77c0-.26.1-.49.3-.68.2-.19.43-.29.7-.29h2.48c.26,0,.5.1.7.29Z"/>
    <path d="M566.39,214.02c.98.31,1.91.46,2.8.46s1.71-.29,2.36-.87.97-1.68.97-3.3v-15.06c0-.26.1-.49.3-.68.2-.19.43-.29.69-.29h2.48c.26,0,.5.1.69.29s.3.42.3.68v10.69h3.23v4.37h-3.23c0,1.46-.17,2.7-.52,3.74-.35,1.04-.83,1.89-1.46,2.55s-1.37,1.15-2.23,1.46-1.8.46-2.83.46c-1.16,0-2.37-.18-3.65-.53s-2.59-.86-3.95-1.51l1.44-3.45c.76.36,1.63.69,2.6,1h.01Z"/>
    <path d="M579.14,209.9c-.28-.28-.42-.62-.42-1.04v-1.46c0-.42.14-.77.42-1.04.28-.28.64-.41,1.07-.41h5.21v-10.69c0-.26.1-.49.3-.68.2-.19.43-.29.7-.29h2.48c.26,0,.5.1.7.29s.3.42.3.68v10.69h5.46v-10.69c0-.26.1-.49.3-.68s.43-.29.69-.29h2.48c.26,0,.5.1.69.29.2.19.3.42.3.68v10.69h5.46v-10.69c0-.26.1-.49.3-.68.2-.19.43-.29.7-.29h2.48c.26,0,.5.1.7.29s.3.42.3.68v10.69h5.21v4.37h-34.74c-.43,0-.79-.14-1.07-.41h-.02ZM592.42,188.11c.53-.42,1.17-.63,1.94-.63s1.41.21,1.93.63.79.94.79,1.55-.26,1.13-.79,1.55-1.17.63-1.93.63-1.41-.21-1.94-.63-.79-.94-.79-1.55.26-1.13.79-1.55ZM595.64,183.26c.53-.42,1.17-.63,1.94-.63s1.41.21,1.93.63.79.94.79,1.55-.26,1.13-.79,1.55-1.17.63-1.93.63-1.41-.21-1.94-.63-.79-.94-.79-1.55.26-1.13.79-1.55ZM598.87,188.11c.53-.42,1.17-.63,1.93-.63s1.41.21,1.94.63.79.94.79,1.55-.26,1.13-.79,1.55-1.17.63-1.94.63-1.41-.21-1.93-.63-.79-.94-.79-1.55.26-1.13.79-1.55Z"/>
    <path d="M613.88,206.35c.28-.28.64-.41,1.07-.41h5.21v-10.69c0-.26.1-.49.3-.68s.43-.29.69-.29h2.48c.26,0,.5.1.69.29.2.19.3.42.3.68v10.69h5.21v4.37h-14.89c-.43,0-.79-.14-1.07-.41s-.42-.62-.42-1.04v-1.46c0-.42.14-.77.42-1.04h.01ZM620.45,213.85c.53-.42,1.17-.63,1.94-.63s1.41.21,1.93.63.79.94.79,1.55-.26,1.13-.79,1.55-1.17.63-1.93.63-1.41-.21-1.94-.63-.79-.94-.79-1.55.26-1.13.79-1.55Z"/>
    <path d="M633.06,184.57c0-.26.1-.49.3-.68.2-.19.43-.29.69-.29h2.48c.26,0,.5.1.69.29.2.19.3.42.3.68v21.86c0,1.07-.39,1.98-1.17,2.74s-1.71,1.14-2.8,1.14h-3.72c-.43,0-.79-.14-1.07-.41s-.42-.62-.42-1.04v-1.46c0-.42.14-.77.42-1.04.28-.28.64-.41,1.07-.41h3.23v-21.37h0Z"/>
    <path d="M648.14,183.89c.2.19.3.42.3.68v24.77c0,.26-.1.49-.3.68-.2.19-.43.29-.69.29h-2.48c-.26,0-.5-.1-.69-.29s-.3-.42-.3-.68v-24.77c0-.26.1-.49.3-.68.2-.19.43-.29.69-.29h2.48c.26,0,.5.1.69.29Z"/>
  </g>
</svg>