<?xml version="1.0" encoding="UTF-8"?>
<svg id="Layer_1" xmlns="http://www.w3.org/2000/svg" version="1.1" viewBox="0 0 784.8 350.74">
  <!-- Generator: Adobe Illustrator 29.7.1, SVG Export Plug-In . SVG Version: 2.1.1 Build 8)  -->
  <defs>
    <style>
      .st0 {
        fill: #6d6dbc;
      }
    </style>
  </defs>
  <g>
    <path d="M706.29,8.65c.8.78,1.2,1.88,1.14,2.96l-14.53,153.11,13.76-3.04c.52-.12,1.04-.11,1.54-.02.27,0,.54-.05.81,0,.27,0,.54-.05.81,0,.27,0,.54-.05.81,0,.27,0,.54-.05.81,0,.27,0,.55-.05.81,0,.27,0,.54-.05.81,0,.27,0,.54-.05.81,0,.27,0,.54-.05.81,0,.27,0,.54-.05.81,0,.27,0,.54-.05.81,0,.27,0,.54-.05.81,0,.27,0,.54-.05.81,0,.27,0,.54-.05.81,0,.27,0,.54-.05.81,0,.27,0,.54-.05.81,0,.27,0,.55-.05.81,0,.27,0,.55-.05.81,0,.27,0,.54-.05.81,0,.27,0,.55-.05.81,0,.27,0,.54-.05.81,0,1.73-.05,3.33.95,3.86,2.62l7.73,24.2,17.4-9.34c.69-.37,1.46-.44,2.23-.37.27-.03.53-.02.81,0,.27-.03.53-.02.81,0,.27-.03.53-.02.81,0,.27-.03.53-.02.81,0,.27-.03.53-.02.81,0,.27-.03.53-.02.81,0,.27-.03.53-.02.81,0,.27-.03.53-.02.81,0,.27-.03.53-.02.81,0,.27-.03.53-.02.81,0,.28-.03.53-.02.81,0,.28-.03.53-.02.81,0,.27-.03.53-.02.81,0,.28-.03.53-.02.81,0,.27-.03.53-.02.81,0,.27-.03.53-.02.81,0,.28-.03.53-.02.81,0,.27-.03.53-.02.81,0,.27-.03.53-.02.81,0,.27-.03.53-.02.81,0,.73-.09,1.47-.04,2.16.29,1.14.54,1.94,1.58,2.15,2.8l7.6,43.55,59.56,1.08c1.85.03,3.42,1.33,3.77,3.11.05.24.07.48.07.71,0,1.52-.93,2.93-2.41,3.53l-83.73,34.15c-.63.26-1.29.29-1.95.21-.27.03-.53.03-.81,0-.27.03-.53.03-.81,0-.27.03-.53.03-.81,0-.27.03-.53.03-.81,0-.27.03-.53.03-.81,0-.27.03-.53.03-.81,0-.27.03-.53.03-.81,0-.27.03-.53.03-.81,0-.27.03-.53.03-.81,0-.27.03-.53.03-.81,0-.28.03-.53.03-.81,0-.27.03-.53.03-.81,0-.27.03-.53.03-.81,0-.27.03-.53.03-.81,0-.27.03-.53.03-.81,0-.27.03-.53.03-.81,0-.27.03-.53.03-.81,0-.27.03-.53.03-.81,0-.27.03-.53.03-.81,0-.27.03-.53.03-.81,0-.69.06-1.39.01-2.03-.29-1-.46-1.75-1.32-2.07-2.36l-5.09-16.61-5.33,4.7c-.91.8-2.16,1.14-3.36.91-.02,0-.04-.02-.06-.03-.25,0-.49.08-.74.03-.02,0-.04-.02-.06-.03-.25,0-.49.08-.74.03-.02,0-.04-.02-.06-.03-.25,0-.49.08-.74.03-.02,0-.04-.02-.06-.03-.25,0-.49.08-.74.03-.02,0-.04-.02-.06-.03-.25,0-.49.08-.74.03-.02,0-.04-.02-.06-.03-.25,0-.49.08-.74.03-.02,0-.04-.02-.06-.03-.25,0-.49.08-.74.03-.02,0-.04-.02-.06-.03-.25,0-.49.08-.74.03-.02,0-.04-.02-.06-.03-.25,0-.49.08-.74.03-.02,0-.04-.02-.06-.03-.25,0-.49.08-.74.03-.02,0-.04-.02-.06-.03-.25,0-.49.08-.74.03-.02,0-.04-.02-.06-.03-.25,0-.49.08-.74.03-.02,0-.04-.02-.06-.03-.25,0-.49.08-.74.03-.02,0-.04-.02-.06-.03-.25,0-.49.08-.74.03-.02,0-.04-.02-.06-.03-.25,0-.49.08-.74.03-.02,0-.04-.02-.06-.03-.25,0-.49.08-.74.03-.02,0-.04-.02-.06-.03-.25,0-.49.08-.74.03-.02,0-.04-.02-.06-.03-.25,0-.49.08-.74.03-.02,0-.04-.02-.06-.03-.25,0-.49.08-.74.03-.02,0-.04-.02-.06-.03-.25,0-.49.08-.74.03-.02,0-.04-.02-.06-.03-.25,0-.49.08-.74.03-1.21-.23-2.23-1-2.77-2.09l-14.22-28.64-3.55,2.01-14.88,114.23c-.14,1.06-.72,2.01-1.6,2.63s-1.99.85-3.05.64h-.02c-.26,0-.52.05-.79,0h-.02c-.26,0-.52.05-.79,0h-.02c-.26,0-.52.05-.79,0h-.02c-.26,0-.52.05-.79,0h-.02c-.26,0-.52.05-.79,0h-.02c-.26,0-.52.05-.79,0h-.02c-.26,0-.53.05-.79,0h-.02c-.26,0-.52.05-.79,0h-.02c-.26,0-.52.05-.79,0h-.02c-.26,0-.52.05-.79,0h-.02c-.26,0-.52.05-.79,0h-.02c-.26,0-.52.05-.79,0h-.02c-.26,0-.52.05-.79,0h-.02c-.26,0-.52.05-.79,0h-.02c-.26,0-.52.05-.79,0h-.02c-.26,0-.52.05-.79,0h-.02c-.26,0-.52.05-.79,0h-.02c-.26,0-.52.05-.79,0h-.02c-.26,0-.53.05-.79,0h-.02c-.26,0-.52.05-.79,0h-.02c-.26,0-.53.05-.79,0L35.3,303.48c-1.74-.34-3.02-1.79-3.12-3.53L12.41,28.65c-.09-2.02,1.5-3.89,3.64-4.04L686.32,7.54c.09,0,.17.04.26.04l.55-.04c.09,0,.17.04.26.04l.55-.04c.09,0,.17.04.26.04l.55-.04c.09,0,.17.04.26.04l.55-.04c.09,0,.17.04.26.04l.55-.04c.09,0,.17.04.26.04l.55-.04c.09,0,.17.04.26.04l.55-.04c.09,0,.17.04.26.04l.55-.04c.09,0,.17.04.26.04l.55-.04c.09,0,.17.04.26.04l.55-.04c.09,0,.17.04.26.04l.55-.04c.09,0,.17.04.26.04l.55-.04c.09,0,.17.04.26.04l.55-.04c.09,0,.17.04.26.04l.55-.04c.09,0,.17.04.26.04l.55-.04c.09,0,.17.04.26.04l.55-.04c.09,0,.17.04.26.04l.55-.04c.09,0,.17.04.26.04l.55-.04c.09,0,.17.04.26.04l.55-.04c.09,0,.17.04.26.04l.55-.04c.09,0,.17.04.26.04l.55-.04c1.13-.08,2.23.33,3.03,1.11h-.07Z"/>
    <path class="st0" d="M667.57,173.13c-.08,1.2.43,2.37,1.36,3.16.94.78,2.2,1.09,3.4.82l32.53-7.19,10.56,33.06c.35,1.1,1.18,1.98,2.27,2.41,1.09.43,2.31.36,3.34-.19l31.24-16.77,7.22,41.37c.31,1.81,1.9,3.15,3.78,3.18l44.15.8-62.51,25.49-9.22-30.08c-.39-1.26-1.4-2.23-2.69-2.59s-2.67-.04-3.67.84l-19.4,17.08-17.5-35.26c-.47-.96-1.33-1.68-2.37-1.99-1.04-.31-2.16-.19-3.1.35l-22.09,12.52c-1.05.6-1.76,1.64-1.92,2.83l-14.59,112.02L39.81,296.57,20.44,32,682.4,15.48l-14.83,157.66h0Z"/>
    <path d="M689.35,8.65c-.8-.78-1.9-1.18-3.03-1.11L16.05,24.62c-2.14.14-3.72,2.01-3.64,4.04l19.77,271.29c.1,1.74,1.38,3.19,3.12,3.53l615.62,39.84c1.07.21,2.17-.02,3.05-.64.89-.62,1.47-1.57,1.6-2.63l14.88-114.23,16.78-9.51,17.94,36.14c.53,1.08,1.56,1.85,2.77,2.09,1.2.23,2.45-.11,3.36-.91l18.67-16.45,8.69,28.36c.32,1.04,1.07,1.89,2.07,2.36,1,.47,2.15.49,3.18.07l83.73-34.15c1.48-.6,2.41-2.01,2.41-3.53,0-.24-.02-.47-.07-.71-.35-1.78-1.92-3.08-3.77-3.11l-59.56-1.08-7.6-43.55c-.21-1.22-1.01-2.26-2.15-2.8-1.14-.54-2.47-.5-3.58.09l-31.87,17.11-10.21-31.96c-.61-1.91-2.6-3.03-4.59-2.59l-30.95,6.84,14.78-156.91c.06-1.08-.34-2.18-1.14-2.96h.01ZM20.44,32L682.4,15.48l-14.83,157.66c-.08,1.2.43,2.37,1.36,3.16.94.78,2.2,1.09,3.4.82l32.53-7.19,10.56,33.06c.35,1.1,1.18,1.98,2.27,2.41,1.09.43,2.31.36,3.34-.19l31.24-16.77,7.22,41.37c.31,1.81,1.9,3.15,3.78,3.18l44.15.8-62.51,25.49-9.22-30.08c-.39-1.26-1.4-2.23-2.69-2.59s-2.67-.04-3.67.84l-19.4,17.08-17.5-35.26c-.47-.96-1.33-1.68-2.37-1.99-1.04-.31-2.16-.19-3.1.35l-22.09,12.52c-1.05.6-1.76,1.64-1.92,2.83l-14.59,112.02L39.81,296.57,20.44,32Z"/>
  </g>
  <g>
    <path d="M553.77,90.51h-15.55c-1.83,0-3.14-.34-3.93-1.02-.78-.68-1.17-1.55-1.17-2.62,0-.8.2-1.7.61-2.7l2.8-6.94c.37-.93.98-1.7,1.81-2.3.83-.6,1.81-.9,2.93-.9h8.67c.27,0,.51.1.71.3.2.2.31.43.31.7v9.98h2.8v5.49h.01ZM545.36,85.02v-5.49h-3.77l-2.19,5.49h5.96Z"/>
    <path d="M552.3,86.52c0-.43.14-.79.43-1.07s.65-.42,1.1-.42h4.84v-9.98c0-.27.1-.5.31-.7.2-.2.44-.3.71-.3h3.57c.27,0,.51.1.71.3.2.2.31.43.31.7v9.98h4.84v5.49h-15.29c-.44,0-.81-.14-1.1-.42s-.43-.64-.43-1.07v-2.5h0ZM554.9,69.9c-.54-.43-.82-.96-.82-1.6s.27-1.16.82-1.6,1.21-.65,1.99-.65,1.44.22,1.99.65.82.96.82,1.6-.27,1.17-.82,1.6c-.54.43-1.21.65-1.99.65s-1.44-.22-1.99-.65ZM561.52,69.9c-.54-.43-.82-.96-.82-1.6s.27-1.16.82-1.6c.54-.43,1.21-.65,1.99-.65s1.44.22,1.99.65c.54.43.82.96.82,1.6s-.27,1.17-.82,1.6c-.54.43-1.21.65-1.99.65s-1.45-.22-1.99-.65Z"/>
    <path d="M567.59,86.52c0-.43.15-.79.43-1.07.29-.28.66-.42,1.1-.42h2.8v-2.59c0-1.3.25-2.4.74-3.32s1.14-1.66,1.94-2.25c.8-.58,1.7-1.01,2.7-1.27,1-.27,2.01-.4,3.03-.4s2.04.14,3.06.42,1.92.72,2.7,1.32,1.42,1.36,1.91,2.3c.49.93.74,2.05.74,3.34v2.45h2.8v5.49h-4.23c-.78.86-1.8,1.5-3.06,1.9s-2.55.6-3.87.6c-1.39,0-2.72-.21-3.98-.62-1.26-.42-2.31-1.04-3.16-1.87h-4.13c-.44,0-.81-.14-1.1-.42s-.43-.64-.43-1.07v-2.52ZM577.53,86.02c0,.5.29.87.87,1.12s1.22.37,1.94.37,1.32-.12,1.91-.37c.59-.25.89-.62.89-1.12v-3.19c0-.77-.3-1.31-.89-1.65-.59-.33-1.23-.5-1.91-.5s-1.36.17-1.94.5-.87.88-.87,1.65v3.19Z"/>
    <path d="M590.02,86.52c0-.43.14-.79.43-1.07s.65-.42,1.1-.42h3.67c-.58-1-.87-2.15-.87-3.44,0-.93.19-1.85.56-2.77.37-.91.92-1.72,1.63-2.42s1.58-1.26,2.6-1.7c1.02-.43,2.19-.65,3.52-.65h2.4l-.76-2.99c.99-.33,1.97-.57,2.96-.72.99-.15,1.94-.22,2.86-.22,1.29,0,2.5.17,3.62.52s2.1.88,2.93,1.6,1.49,1.64,1.96,2.77c.48,1.13.71,2.48.71,4.04v5.99h2.8v5.49h-30.59c-.44,0-.81-.14-1.1-.42s-.43-.64-.43-1.07v-2.52ZM604.55,85.02v-5.49h-1.73c-.82,0-1.5.27-2.04.8-.54.53-.82,1.18-.82,1.95s.27,1.41.82,1.95c.54.53,1.22.8,2.04.8h1.73ZM613.73,79.03c0-1.4-.46-2.34-1.38-2.82s-2.07-.74-3.47-.77c.34.37.61.77.82,1.2.2.43.31.9.31,1.4v6.99h3.72v-5.99h0Z"/>
    <path d="M622.14,90.51c-.44,0-.81-.14-1.1-.42s-.43-.64-.43-1.07v-2.5c0-.43.15-.79.43-1.07.29-.28.66-.42,1.1-.42h2.8v-3.09c0-1.1.26-2.07.79-2.92.53-.85,1.21-1.55,2.06-2.12s1.83-.99,2.93-1.27,2.25-.42,3.44-.42c1.39,0,2.76.2,4.1.6s2.51,1.01,3.49,1.85v8.28c0,1.13-.23,2.11-.69,2.94s-1.06,1.51-1.81,2.05c-.75.53-1.62.93-2.6,1.2-.99.27-2.01.4-3.06.4-1.36,0-2.61-.17-3.75-.52s-2.25-.84-3.34-1.47h-4.38l.02-.03ZM630.55,86.27c.44.27.92.46,1.43.57.51.12,1.02.17,1.53.17.71,0,1.33-.12,1.86-.35.53-.23.79-.56.79-1v-4.54c-.31-.13-.68-.24-1.12-.32s-.9-.12-1.38-.12c-.82,0-1.54.16-2.17.47-.63.32-.94.82-.94,1.52v3.59h0Z"/>
    <path d="M336.81,125.82c0-.75.23-1.31.69-1.7s.98-.58,1.54-.58c.66,0,1.22.23,1.69.68l2.73,2.72h5.81v4.37h-1.44l1.44,1.46c.99,1.04,1.49,2.17,1.49,3.4,0,1.04-.37,1.94-1.12,2.72-.74.78-1.86,1.17-3.35,1.17h-12.16c-1.22,0-2.38-.23-3.47-.68s-2.04-1.08-2.85-1.87-1.45-1.72-1.91-2.79c-.46-1.07-.69-2.2-.69-3.4v-5.83c0-.26.1-.49.3-.68.2-.19.43-.29.69-.29h2.48c.26,0,.5.1.69.29.2.19.3.42.3.68v5.83c0,1.23.44,2.27,1.31,3.11s1.93,1.26,3.15,1.26h11.61l-8.24-8.21c-.46-.45-.69-1-.69-1.65h0Z"/>
    <path d="M352.49,105.57c0-.26.1-.49.3-.68.2-.19.43-.29.69-.29h2.48c.26,0,.5.1.69.29.2.19.3.42.3.68v21.86c0,1.07-.39,1.98-1.17,2.74s-1.71,1.14-2.8,1.14h-3.72c-.43,0-.79-.14-1.07-.41s-.42-.62-.42-1.04v-1.46c0-.42.14-.77.42-1.04.28-.28.64-.41,1.07-.41h3.23v-21.37h0Z"/>
    <path d="M367.1,135.07c-.25-.08-.49-.12-.72-.12-.26,0-.49.06-.67.19-.18.13-.27.36-.27.68,0,.26.12.5.35.73s.58.34,1.04.34h1.89v2.19h-6.15v-2.19h1.19c-.46-.39-.69-.89-.69-1.5,0-.75.3-1.33.89-1.75.6-.42,1.29-.63,2.08-.63.46,0,.93.09,1.41.27.48.18.88.4,1.22.66l-.94,1.46c-.17-.13-.37-.24-.62-.32h-.01ZM367.58,104.89c.2.19.3.42.3.68v24.77c0,.26-.1.49-.3.68-.2.19-.43.29-.69.29h-2.48c-.26,0-.5-.1-.69-.29-.2-.19-.3-.42-.3-.68v-24.77c0-.26.1-.49.3-.68.2-.19.43-.29.69-.29h2.48c.26,0,.5.1.69.29Z"/>
    <path d="M385.24,131.31c-1.79,0-3.06-.33-3.82-1-.76-.66-1.14-1.51-1.14-2.55,0-.78.2-1.65.6-2.62l2.73-6.75c.36-.91.97-1.65,1.81-2.23s1.78-.87,2.8-.87h7.44c.26,0,.5.1.7.29s.3.42.3.68v10.69h3.23v4.37h-14.65ZM385.79,108.14c.53-.42,1.17-.63,1.94-.63s1.41.21,1.94.63.79.94.79,1.55-.26,1.13-.79,1.55-1.17.63-1.94.63-1.41-.21-1.94-.63-.79-.94-.79-1.55.26-1.13.79-1.55ZM392.19,119.65h-4.27l-2.93,7.29h7.2v-7.29h0ZM392.24,108.14c.53-.42,1.17-.63,1.94-.63s1.41.21,1.94.63.79.94.79,1.55-.26,1.13-.79,1.55-1.17.63-1.94.63-1.41-.21-1.94-.63-.79-.94-.79-1.55.26-1.13.79-1.55Z"/>
    <path d="M398.81,127.35c.28-.28.64-.41,1.07-.41h5.21v-10.69c0-.26.1-.49.3-.68.2-.19.43-.29.7-.29h2.48c.26,0,.5.1.7.29s.3.42.3.68v10.69h5.21v4.37h-14.89c-.43,0-.79-.14-1.07-.41s-.42-.62-.42-1.04v-1.46c0-.42.14-.77.42-1.04h0ZM400.67,134.85c.53-.42,1.17-.63,1.94-.63s1.41.21,1.94.63.79.94.79,1.55-.26,1.13-.79,1.55-1.17.63-1.94.63-1.41-.21-1.94-.63-.79-.94-.79-1.55.26-1.13.79-1.55ZM407.13,134.85c.53-.42,1.17-.63,1.94-.63s1.41.21,1.93.63.79.94.79,1.55-.26,1.13-.79,1.55-1.17.63-1.93.63-1.41-.21-1.94-.63-.79-.94-.79-1.55.26-1.13.79-1.55Z"/>
    <path d="M413.7,127.35c.28-.28.64-.41,1.07-.41h3.23v-21.37c0-.26.1-.49.3-.68.2-.19.43-.29.69-.29h2.48c.26,0,.5.1.69.29.2.19.3.42.3.68v21.37h3.23v4.37h-10.92c-.43,0-.79-.14-1.07-.41s-.42-.62-.42-1.04v-1.46c0-.42.14-.77.42-1.04h0Z"/>
    <path d="M424.62,130.89c-.28-.28-.42-.62-.42-1.04v-1.46c0-.42.14-.77.42-1.04.28-.28.64-.41,1.07-.41h4.07c-.3-.52-.51-1.08-.65-1.68-.13-.6-.2-1.22-.2-1.87,0-.94.16-1.89.47-2.87s.81-1.85,1.49-2.62c.68-.78,1.55-1.41,2.61-1.89,1.06-.49,2.32-.73,3.77-.73h3.57c1.09,0,2.03.38,2.8,1.14.78.76,1.17,1.68,1.17,2.74v7.77h3.23v4.37h-22.33c-.43,0-.79-.14-1.07-.41h0ZM431.69,108.14c.53-.42,1.17-.63,1.93-.63s1.41.21,1.94.63.79.94.79,1.55-.26,1.13-.79,1.55-1.17.63-1.94.63-1.41-.21-1.93-.63-.79-.94-.79-1.55.26-1.13.79-1.55ZM440.32,119.65h-3.37c-.99,0-1.84.35-2.53,1.04-.69.7-1.04,1.56-1.04,2.6,0,.94.33,1.78.99,2.53s1.49,1.12,2.48,1.12h3.47v-7.29ZM438.14,108.14c.53-.42,1.17-.63,1.94-.63s1.41.21,1.94.63.79.94.79,1.55-.26,1.13-.79,1.55-1.17.63-1.94.63-1.41-.21-1.94-.63-.79-.94-.79-1.55.26-1.13.79-1.55Z"/>
    <path d="M446.95,127.35c.28-.28.64-.41,1.07-.41h6.7l-2.93-4.95c-.2-.32-.34-.69-.42-1.09-.08-.4-.12-.8-.12-1.19,0-.55.08-1.09.25-1.63.17-.53.41-1,.74-1.41.33-.4.74-.74,1.24-1s1.08-.39,1.74-.39h10.42c.66,0,1.24.13,1.74.39s.91.59,1.24,1,.58.87.74,1.41c.17.53.25,1.08.25,1.63,0,.39-.04.78-.12,1.17s-.22.76-.42,1.12l-2.88,4.95h6.65v4.37h-24.81c-.43,0-.79-.14-1.07-.41s-.42-.62-.42-1.04v-1.46c0-.42.14-.77.42-1.04v-.02ZM455.61,119.65l4.52,7.29h.55l4.62-7.29h-9.69Z"/>
    <path d="M476.05,105.57c0-.26.1-.49.3-.68.2-.19.43-.29.7-.29h2.48c.26,0,.5.1.7.29s.3.42.3.68v21.86c0,1.07-.39,1.98-1.17,2.74s-1.71,1.14-2.8,1.14h-3.72c-.43,0-.79-.14-1.07-.41s-.42-.62-.42-1.04v-1.46c0-.42.14-.77.42-1.04.28-.28.64-.41,1.07-.41h3.23v-21.37h-.02Z"/>
    <path d="M491.14,104.89c.2.19.3.42.3.68v24.77c0,.26-.1.49-.3.68s-.43.29-.7.29h-2.48c-.26,0-.5-.1-.7-.29-.2-.19-.3-.42-.3-.68v-24.77c0-.26.1-.49.3-.68.2-.19.43-.29.7-.29h2.48c.26,0,.5.1.7.29Z"/>
    <path d="M503.84,122.08c0-1.17.26-2.18.77-3.04s1.17-1.56,1.98-2.11,1.75-.96,2.8-1.24c1.06-.27,2.13-.41,3.23-.41,1.19,0,2.35.16,3.47.49s2.17.81,3.13,1.46v14.08h-15.38v-9.23h0ZM514.76,120.19c-1.09-.36-2-.53-2.73-.53-.99,0-1.86.23-2.61.68-.74.45-1.12,1.12-1.12,1.99v4.61h6.45v-6.75h0Z"/>
    <path d="M529.84,104.89c.2.19.3.42.3.68v24.77c0,.26-.1.49-.3.68s-.43.29-.7.29h-2.48c-.26,0-.5-.1-.7-.29-.2-.19-.3-.42-.3-.68v-24.77c0-.26.1-.49.3-.68s.43-.29.7-.29h2.48c.26,0,.5.1.7.29Z"/>
    <path d="M537.24,119.85c.43-1.04,1.01-1.89,1.74-2.57s1.57-1.18,2.53-1.51,1.99-.49,3.08-.49c1.26,0,2.51.2,3.77.61s2.46,1.01,3.62,1.82v9.23h3.23v4.37h-3.23c0,1.46-.17,2.7-.52,3.74s-.83,1.89-1.46,2.55-1.37,1.15-2.23,1.46c-.86.31-1.8.46-2.83.46-1.16,0-2.33-.18-3.52-.53-1.19-.36-2.46-.86-3.82-1.51l1.44-3.4c.79.36,1.63.66,2.51.92s1.73.39,2.56.39c.99,0,1.81-.28,2.46-.85s.97-1.64.97-3.23h-6.45c-1.26,0-2.32-.42-3.18-1.26s-1.29-1.88-1.29-3.11v-3.4c0-1.42.21-2.66.64-3.69h-.02ZM547.51,120.14c-.86-.32-1.8-.49-2.83-.49-.96,0-1.8.31-2.53.92-.73.62-1.09,1.6-1.09,2.96v3.4h6.45v-6.8h0Z"/>
    <path d="M554.13,127.35c.28-.28.64-.41,1.07-.41h4.07c-.3-.52-.51-1.08-.64-1.68s-.2-1.22-.2-1.87c0-.94.16-1.89.47-2.87s.81-1.85,1.49-2.62c.68-.78,1.55-1.41,2.6-1.89,1.06-.49,2.32-.73,3.77-.73h3.57c1.09,0,2.03.38,2.8,1.14.78.76,1.17,1.68,1.17,2.74v11.17c0,.26-.1.49-.3.68-.2.19-.43.29-.7.29h-18.11c-.43,0-.79-.14-1.07-.41s-.42-.62-.42-1.04v-1.46c0-.42.14-.77.42-1.04h.01ZM561.21,108.14c.53-.42,1.17-.63,1.94-.63s1.41.21,1.93.63.79.94.79,1.55-.26,1.13-.79,1.55-1.17.63-1.93.63-1.41-.21-1.94-.63-.79-.94-.79-1.55.26-1.13.79-1.55ZM563.93,120.7c-.7.7-1.04,1.56-1.04,2.6,0,.94.33,1.78.99,2.53s1.52,1.12,2.58,1.12h3.37v-7.29h-3.37c-.99,0-1.84.35-2.53,1.04ZM567.66,108.14c.53-.42,1.17-.63,1.93-.63s1.41.21,1.94.63.79.94.79,1.55-.26,1.13-.79,1.55-1.17.63-1.94.63-1.41-.21-1.93-.63-.79-.94-.79-1.55.26-1.13.79-1.55Z"/>
    <path d="M609.29,126.94v4.37h-3.23v3.4c0,1.07-.39,1.98-1.17,2.74-.78.76-1.71,1.14-2.8,1.14h-6.45c-1.22,0-2.38-.23-3.47-.68s-2.04-1.08-2.85-1.87-1.45-1.72-1.91-2.79c-.46-1.07-.69-2.2-.69-3.4v-6.31c0-.26.1-.49.3-.68s.43-.29.7-.29h2.48c.26,0,.5.1.7.29s.3.42.3.68v6.31c0,1.23.44,2.27,1.31,3.11.88.84,1.93,1.26,3.15,1.26h5.95v-28.66c0-.26.1-.49.3-.68s.43-.29.7-.29h2.48c.26,0,.5.1.7.29s.3.42.3.68v21.37h3.23-.03Z"/>
    <path d="M608.22,130.89c-.28-.28-.42-.62-.42-1.04v-1.46c0-.42.14-.77.42-1.04.28-.28.64-.41,1.07-.41h4.07c-.3-.52-.51-1.08-.65-1.68-.13-.6-.2-1.22-.2-1.87,0-.94.16-1.89.47-2.87s.81-1.85,1.49-2.62c.68-.78,1.55-1.41,2.61-1.89,1.06-.49,2.32-.73,3.77-.73h3.57c1.09,0,2.03.38,2.8,1.14.78.76,1.17,1.68,1.17,2.74v7.77h3.23v4.37h-22.33c-.43,0-.79-.14-1.07-.41h0ZM615.29,108.14c.53-.42,1.17-.63,1.93-.63s1.41.21,1.94.63.79.94.79,1.55-.26,1.13-.79,1.55-1.17.63-1.94.63-1.41-.21-1.93-.63-.79-.94-.79-1.55.26-1.13.79-1.55ZM623.93,119.65h-3.37c-.99,0-1.84.35-2.53,1.04-.69.7-1.04,1.56-1.04,2.6,0,.94.33,1.78.99,2.53s1.49,1.12,2.48,1.12h3.47v-7.29h0ZM621.75,108.14c.53-.42,1.17-.63,1.94-.63s1.41.21,1.94.63.79.94.79,1.55-.26,1.13-.79,1.55-1.17.63-1.94.63-1.41-.21-1.94-.63-.79-.94-.79-1.55.26-1.13.79-1.55Z"/>
    <path d="M630.55,127.35c.28-.28.64-.41,1.07-.41h5.21v-10.69c0-.26.1-.49.3-.68s.43-.29.7-.29h2.48c.26,0,.5.1.7.29s.3.42.3.68v11.17c0,1.07-.39,1.98-1.17,2.74s-1.71,1.14-2.8,1.14h-5.71c-.43,0-.79-.14-1.07-.41s-.42-.62-.42-1.04v-1.46c0-.42.14-.77.42-1.04h-.01ZM637.13,108.14c.53-.42,1.17-.63,1.94-.63s1.41.21,1.94.63.79.94.79,1.55-.26,1.13-.79,1.55-1.17.63-1.94.63-1.41-.21-1.94-.63-.79-.94-.79-1.55.26-1.13.79-1.55Z"/>
    <path d="M349.29,159.84c.51-.86,1.17-1.56,1.98-2.11s1.75-.96,2.8-1.24c1.06-.27,2.13-.41,3.23-.41,1.19,0,2.35.16,3.47.49s2.17.81,3.13,1.46v9.71h3.23v4.37h-14.14v5.83h-4.47v-15.06c0-1.17.26-2.18.77-3.04h0ZM359.44,160.99c-1.09-.36-2-.53-2.73-.53-.99,0-1.86.23-2.61.68-.74.45-1.12,1.12-1.12,1.99v4.61h6.45v-6.75h0Z"/>
    <path d="M366.06,168.15c.28-.28.64-.41,1.07-.41h4.07c-.3-.55-.51-1.14-.65-1.77-.13-.63-.2-1.25-.2-1.87,0-.97.17-1.93.5-2.89s.84-1.81,1.51-2.57c.68-.76,1.54-1.38,2.58-1.85s2.27-.7,3.7-.7h1.64l-.74-2.91c.93-.29,1.85-.52,2.78-.68.93-.16,1.85-.24,2.78-.24,1.16,0,2.26.15,3.3.46s1.95.8,2.73,1.48,1.4,1.58,1.86,2.7.69,2.47.69,4.06v6.8h3.23v4.37h-29.77c-.43,0-.79-.14-1.07-.41s-.42-.62-.42-1.04v-1.46c0-.42.14-.77.42-1.04v-.03ZM380.28,160.45h-1.79c-.99,0-1.85.35-2.58,1.04-.73.7-1.09,1.56-1.09,2.6s.36,1.9,1.09,2.6c.73.7,1.59,1.04,2.58,1.04h1.79v-7.29h0ZM388.76,158.73c-.3-.57-.71-1-1.24-1.31s-1.16-.51-1.89-.61-1.51-.15-2.33-.15c.46.39.84.87,1.14,1.43.3.57.45,1.19.45,1.87v7.77h4.32v-6.8c0-.91-.15-1.64-.45-2.21h0Z"/>
    <path d="M395.84,168.15c.28-.28.64-.41,1.07-.41h5.21v-10.69c0-.26.1-.49.3-.68.2-.19.43-.29.7-.29h2.48c.26,0,.5.1.7.29s.3.42.3.68v11.17c0,1.07-.39,1.98-1.17,2.74s-1.71,1.14-2.8,1.14h-5.71c-.43,0-.79-.14-1.07-.41s-.42-.62-.42-1.04v-1.46c0-.42.14-.77.42-1.04h-.01ZM397.95,148.94c.53-.42,1.17-.63,1.94-.63s1.41.21,1.94.63.79.94.79,1.55-.26,1.13-.79,1.55-1.17.63-1.94.63-1.41-.21-1.94-.63-.79-.94-.79-1.55.26-1.13.79-1.55ZM404.4,148.94c.53-.42,1.17-.63,1.94-.63s1.41.21,1.93.63.79.94.79,1.55-.26,1.13-.79,1.55-1.17.63-1.93.63-1.41-.21-1.94-.63-.79-.94-.79-1.55.26-1.13.79-1.55Z"/>
    <path d="M422.46,167.74v-4.86c0-.78-.14-1.44-.42-1.99s-.65-1-1.12-1.33-1.01-.58-1.64-.73-1.29-.22-1.99-.22c-.56,0-1.14.05-1.74.15-.6.1-1.16.24-1.69.44l-1.09-4.08c1.03-.32,2-.57,2.93-.73.93-.16,1.84-.24,2.73-.24,1.22,0,2.35.17,3.37.51,1.03.34,1.92.87,2.68,1.58.76.71,1.36,1.62,1.79,2.72.43,1.1.64,2.41.64,3.93v4.86h3.23v4.37h-18.36v-4.37h10.68Z"/>
    <path d="M429.11,168.12c.3-.26.64-.39,1.04-.39h4.81c-.76-.75-1.32-1.55-1.66-2.43-.35-.87-.52-1.75-.52-2.62,0-1.07.21-2.02.64-2.87.43-.84,1.01-1.55,1.74-2.14s1.58-1.03,2.56-1.34,2.03-.46,3.15-.46c1.06,0,2.15.14,3.28.41,1.12.28,2.27.69,3.42,1.24l-1.69,3.79c-.66-.26-1.39-.5-2.18-.73s-1.6-.34-2.43-.34c-.4,0-.84.06-1.32.17s-.93.29-1.34.53-.76.57-1.04.97-.42.91-.42,1.53c0,.45.1.92.3,1.41.2.49.5.95.89,1.38.4.44.88.79,1.46,1.07s1.23.41,1.96.41h6.65l-.89,4.37h-17.37c-.43,0-.79-.14-1.07-.41s-.42-.62-.42-1.04v-1.46c0-.45.15-.81.45-1.07v.02Z"/>
    <path d="M458.39,145.69c.2.19.3.42.3.68v21.37h3.23v4.37h-6.7c-.26,0-.5-.1-.69-.29s-.3-.42-.3-.68v-24.77c0-.26.1-.49.3-.68.2-.19.43-.29.69-.29h2.48c.26,0,.5.1.69.29Z"/>
    <path d="M460.84,171.69c-.28-.28-.42-.62-.42-1.04v-1.46c0-.42.14-.77.42-1.04.28-.28.64-.41,1.07-.41h5.21v-10.69c0-.26.1-.49.3-.68s.43-.29.69-.29h2.48c.26,0,.5.1.69.29.2.19.3.42.3.68v10.69h5.46v-10.69c0-.26.1-.49.3-.68.2-.19.43-.29.7-.29h2.48c.26,0,.5.1.7.29s.3.42.3.68v10.69h5.46v-10.69c0-.26.1-.49.3-.68s.43-.29.69-.29h2.48c.26,0,.5.1.69.29.2.19.3.42.3.68v10.69h5.21v4.37h-34.74c-.43,0-.79-.14-1.07-.41h0Z"/>
    <path d="M495.58,168.15c.28-.28.64-.41,1.07-.41h3.23v-3.5c0-1.23.21-2.31.65-3.23.43-.92,1-1.68,1.71-2.28s1.53-1.05,2.46-1.36,1.89-.46,2.88-.46,1.94.15,2.85.44c.91.29,1.73.74,2.46,1.33.73.6,1.31,1.35,1.74,2.26.43.91.65,1.96.65,3.16v3.64h3.23v4.37h-5.11c-.73.78-1.61,1.38-2.65,1.8s-2.11.63-3.2.63-2.14-.2-3.15-.61c-1.01-.4-1.88-1.01-2.61-1.82h-5.11c-.43,0-.79-.14-1.07-.41s-.42-.62-.42-1.04v-1.46c0-.42.14-.77.42-1.04h-.03ZM505.35,169.68c.68.32,1.41.49,2.21.49s1.57-.16,2.23-.49c.66-.32.99-.81.99-1.46v-4.37c0-.87-.33-1.52-.99-1.94s-1.41-.63-2.23-.63-1.53.21-2.21.63-1.02,1.07-1.02,1.94v4.37c0,.65.34,1.13,1.02,1.46Z"/>
    <path d="M521.71,146.37c0-.26.1-.49.3-.68.2-.19.43-.29.69-.29h2.48c.26,0,.5.1.69.29.2.19.3.42.3.68v21.86c0,1.07-.39,1.98-1.17,2.74s-1.71,1.14-2.8,1.14h-3.72c-.43,0-.79-.14-1.07-.41s-.42-.62-.42-1.04v-1.46c0-.42.14-.77.42-1.04.28-.28.64-.41,1.07-.41h3.23v-21.37h0Z"/>
    <path d="M561.16,167.74v4.37h-3.23v3.4c0,1.07-.39,1.98-1.17,2.74-.78.76-1.71,1.14-2.8,1.14h-6.45c-1.22,0-2.38-.23-3.47-.68-1.09-.45-2.04-1.08-2.85-1.87s-1.45-1.72-1.91-2.79c-.46-1.07-.69-2.2-.69-3.4v-8.26c0-.26.1-.49.3-.68s.43-.29.69-.29h2.48c.26,0,.5.1.69.29.2.19.3.42.3.68v8.26c0,.52.11,1.04.32,1.55.22.52.5.99.87,1.41.36.42.79.76,1.29,1.02s1.04.39,1.64.39h6.3v-17.97c0-.26.1-.49.3-.68.2-.19.43-.29.69-.29h2.48c.26,0,.5.1.69.29s.3.42.3.68v10.69h3.23ZM546.32,148.94c.53-.42,1.17-.63,1.94-.63s1.41.21,1.93.63.79.94.79,1.55-.26,1.13-.79,1.55-1.17.63-1.93.63-1.41-.21-1.94-.63-.79-.94-.79-1.55.26-1.13.79-1.55Z"/>
    <path d="M560.09,168.15c.28-.28.64-.41,1.07-.41h7.69v-10.69c0-.26.1-.49.3-.68s.43-.29.69-.29h2.48c.26,0,.5.1.69.29.2.19.3.42.3.68v11.17c0,1.07-.39,1.98-1.17,2.74s-1.71,1.14-2.8,1.14h-8.19c-.43,0-.79-.14-1.07-.41s-.42-.62-.42-1.04v-1.46c0-.42.14-.77.42-1.04h.01ZM560.96,177.11c.53-.42,1.17-.63,1.94-.63s1.41.21,1.93.63.79.94.79,1.55-.26,1.13-.79,1.55-1.17.63-1.93.63-1.41-.21-1.94-.63-.79-.94-.79-1.55.26-1.13.79-1.55ZM567.41,177.11c.53-.42,1.17-.63,1.93-.63s1.41.21,1.94.63.79.94.79,1.55-.26,1.13-.79,1.55-1.17.63-1.94.63-1.41-.21-1.93-.63-.79-.94-.79-1.55.26-1.13.79-1.55Z"/>
    <path d="M584.92,156.37c.2.19.3.42.3.68v10.69h3.23v4.37h-3.23c0,1.46-.17,2.7-.52,3.72-.35,1.02-.83,1.85-1.46,2.5s-1.37,1.12-2.23,1.43-1.8.46-2.83.46c-1.19,0-2.38-.16-3.57-.49l1.09-4.13c.3.1.6.16.89.19.3.03.58.05.84.05.96,0,1.75-.27,2.38-.8s.94-1.51.94-2.94v-15.06c0-.26.1-.49.3-.68.2-.19.43-.29.69-.29h2.48c.26,0,.5.1.69.29h.01Z"/>
    <path d="M587.38,168.15c.28-.28.64-.41,1.07-.41h12.5c-.33-.78-.67-1.68-1.02-2.7-.35-1.02-.76-1.99-1.24-2.91s-1.03-1.7-1.66-2.33c-.63-.63-1.41-.95-2.33-.95-.56,0-1.11.11-1.64.34s-1.08.52-1.64.87l-1.49-3.01c.89-.71,1.86-1.29,2.9-1.75s2.08-.68,3.1-.68,1.85.21,2.58.63,1.37.98,1.91,1.68c.55.7,1.03,1.5,1.46,2.4.43.91.85,1.85,1.27,2.82.41.97.84,1.94,1.29,2.92.45.97.97,1.86,1.56,2.67h2.28v4.37h-19.85c-.43,0-.79-.14-1.07-.41s-.42-.62-.42-1.04v-1.46c0-.42.14-.77.42-1.04h.02ZM594.21,148.45c.53-.42,1.17-.63,1.93-.63s1.41.21,1.94.63.79.94.79,1.55-.26,1.13-.79,1.55-1.17.63-1.94.63-1.41-.21-1.93-.63-.79-.94-.79-1.55.26-1.13.79-1.55Z"/>
    <path d="M618,145.81c-.35.11-.67.17-.97.17-.56,0-1.08-.11-1.54-.32-.46-.21-.98-.32-1.54-.32-.33,0-.68.07-1.04.22s-.78.41-1.24.8v-1.99c.46-.39.88-.66,1.24-.8.36-.15.71-.22,1.04-.22.56,0,1.08.11,1.54.32.46.21.98.32,1.54.32.3,0,.62-.06.97-.17s.72-.32,1.12-.61v1.99c-.4.29-.77.49-1.12.61ZM618.02,148.07c.23.16.38.41.45.73l2.48,20.64h-3.47c-.26,0-.52-.08-.77-.24s-.39-.41-.42-.73l-2.48-20.64h3.47c.26,0,.51.08.74.24ZM615.39,174.54c.1-.29.18-.56.25-.8s.14-.51.22-.8c.08-.29.21-.7.37-1.21.46.16,1.19.34,2.18.53s2,.29,3.03.29c.6,0,1.16-.04,1.69-.12s1-.23,1.41-.46c.41-.23.74-.51.99-.85.25-.34.37-.79.37-1.33v-23.41c0-.26.1-.49.3-.68.2-.19.43-.29.69-.29h2.48c.26,0,.5.1.69.29.2.19.3.42.3.68v23.41c0,1.36-.23,2.5-.69,3.42s-1.09,1.67-1.89,2.23-1.71.97-2.75,1.21-2.12.36-3.25.36-2.32-.11-3.5-.34c-1.17-.23-2.27-.53-3.3-.92.17-.52.3-.92.4-1.21h.01Z"/>
    <path d="M641,145.69c.2.19.3.42.3.68v24.77c0,.26-.1.49-.3.68s-.43.29-.7.29h-2.48c-.26,0-.5-.1-.7-.29-.2-.19-.3-.42-.3-.68v-24.77c0-.26.1-.49.3-.68.2-.19.43-.29.7-.29h2.48c.26,0,.5.1.7.29Z"/>
    <path d="M187.92,212.5c-.28-.28-.42-.62-.42-1.04v-1.46c0-.42.14-.77.42-1.04.28-.28.64-.41,1.07-.41h3.23v-21.37c0-.26.1-.49.3-.68.2-.19.43-.29.69-.29h2.48c.26,0,.5.1.69.29.2.19.3.42.3.68v16.03l6.1-4.86c.53-.42,1.09-.77,1.69-1.04.6-.27,1.27-.41,2.03-.41h6.05c1.09,0,2.03.38,2.8,1.14.78.76,1.17,1.68,1.17,2.74v8.26c0,1.07-.39,1.98-1.17,2.74s-1.71,1.14-2.8,1.14h-23.57c-.43,0-.79-.14-1.07-.41h0ZM212.06,208.54v-7.29h-6.3l-9.18,7.29h15.48Z"/>
    <path d="M227.14,186.49c.2.19.3.42.3.68v21.37h3.23v4.37h-6.7c-.26,0-.5-.1-.69-.29-.2-.19-.3-.42-.3-.68v-24.77c0-.26.1-.49.3-.68.2-.19.43-.29.69-.29h2.48c.26,0,.5.1.69.29Z"/>
    <path d="M229.6,208.95c.28-.28.64-.41,1.07-.41h3.23v-3.5c0-1.23.21-2.31.65-3.23s1-1.68,1.71-2.28,1.53-1.05,2.46-1.36,1.89-.46,2.88-.46,1.94.15,2.85.44c.91.29,1.73.74,2.46,1.33.73.6,1.31,1.35,1.74,2.26.43.91.65,1.96.65,3.16v3.64h3.23v4.37h-5.11c-.73.78-1.61,1.38-2.65,1.8s-2.11.63-3.2.63-2.14-.2-3.15-.61c-1.01-.4-1.88-1.01-2.61-1.82h-5.11c-.43,0-.79-.14-1.07-.41s-.42-.62-.42-1.04v-1.46c0-.42.14-.77.42-1.04h-.03ZM239.38,210.48c.68.32,1.41.49,2.21.49s1.57-.16,2.23-.49c.66-.32.99-.81.99-1.46v-4.37c0-.87-.33-1.52-.99-1.94s-1.41-.63-2.23-.63-1.53.21-2.21.63-1.02,1.07-1.02,1.94v4.37c0,.65.34,1.13,1.02,1.46Z"/>
    <path d="M251.43,208.95c.28-.28.64-.41,1.07-.41h5.21v-10.69c0-.26.1-.49.3-.68.2-.19.43-.29.69-.29h2.48c.26,0,.5.1.69.29.2.19.3.42.3.68v11.17c0,1.07-.39,1.98-1.17,2.74s-1.71,1.14-2.8,1.14h-5.71c-.43,0-.79-.14-1.07-.41s-.42-.62-.42-1.04v-1.46c0-.42.14-.77.42-1.04h.01ZM258.01,189.74c.53-.42,1.17-.63,1.94-.63s1.41.21,1.94.63.79.94.79,1.55-.26,1.13-.79,1.55-1.17.63-1.94.63-1.41-.21-1.94-.63-.79-.94-.79-1.55.26-1.13.79-1.55Z"/>
    <path d="M272.08,182.67c-.25-.08-.49-.12-.72-.12-.26,0-.49.06-.67.19s-.27.36-.27.68c0,.26.12.5.35.73s.58.34,1.04.34h1.89v2.19h-6.15v-2.19h1.19c-.46-.39-.69-.89-.69-1.5,0-.75.3-1.33.89-1.75.6-.42,1.29-.63,2.08-.63.46,0,.93.09,1.41.27.48.18.88.4,1.22.66l-.94,1.46c-.17-.13-.37-.24-.62-.32h-.01ZM273.14,188.87c.23.16.38.41.45.73l2.48,20.64h-3.47c-.26,0-.52-.08-.77-.24s-.39-.41-.42-.73l-2.48-20.64h3.47c.26,0,.51.08.74.24ZM270.51,215.34c.1-.29.18-.56.25-.8s.14-.51.22-.8c.08-.29.21-.7.37-1.21.46.16,1.19.34,2.18.53s2,.29,3.03.29c.6,0,1.16-.04,1.69-.12s1-.23,1.41-.46.74-.51.99-.85c.25-.34.37-.79.37-1.33v-23.41c0-.26.1-.49.3-.68.2-.19.43-.29.69-.29h2.48c.26,0,.5.1.69.29.2.19.3.42.3.68v23.41c0,1.36-.23,2.5-.69,3.42s-1.09,1.67-1.89,2.23-1.71.97-2.75,1.21-2.12.36-3.25.36-2.32-.11-3.5-.34c-1.17-.23-2.27-.53-3.3-.92.17-.52.3-.92.4-1.21h.01Z"/>
    <path d="M296.12,186.49c.2.19.3.42.3.68v24.77c0,.26-.1.49-.3.68-.2.19-.43.29-.69.29h-2.48c-.26,0-.5-.1-.69-.29-.2-.19-.3-.42-.3-.68v-24.77c0-.26.1-.49.3-.68.2-.19.43-.29.69-.29h2.48c.26,0,.5.1.69.29Z"/>
    <path d="M303.51,201.45c.43-1.04,1.01-1.89,1.74-2.57.73-.68,1.57-1.18,2.53-1.51.96-.32,1.99-.49,3.08-.49,1.26,0,2.51.2,3.77.61,1.26.41,2.46,1.01,3.62,1.82v13.6c0,1.46-.17,2.7-.52,3.74-.35,1.04-.83,1.89-1.46,2.55s-1.37,1.15-2.23,1.46c-.86.31-1.8.46-2.83.46-1.16,0-2.33-.18-3.52-.53s-2.46-.86-3.82-1.51l1.44-3.4c.79.36,1.63.66,2.51.92s1.73.39,2.56.39c.99,0,1.81-.28,2.46-.85s.97-1.64.97-3.23h-6.45c-1.26,0-2.32-.42-3.18-1.26s-1.29-1.88-1.29-3.11v-3.4c0-1.42.21-2.65.65-3.69h-.03ZM313.78,201.74c-.86-.32-1.8-.49-2.83-.49-.96,0-1.8.31-2.53.92-.73.62-1.09,1.6-1.09,2.96v3.4h6.45v-6.8h0Z"/>
    <path d="M361.25,211.77c-.78.76-1.71,1.14-2.8,1.14h-23.82c-1.09,0-2.03-.38-2.8-1.14s-1.17-1.68-1.17-2.74v-11.17c0-.26.1-.49.3-.68.2-.19.43-.29.69-.29h2.48c.26,0,.5.1.69.29.2.19.3.42.3.68v10.69h22.83v-10.69c0-.26.1-.49.3-.68.2-.19.43-.29.69-.29h2.48c.26,0,.5.1.69.29.2.19.3.42.3.68v11.17c0,1.07-.39,1.98-1.17,2.74h.01ZM341.38,189.74c.53-.42,1.17-.63,1.94-.63s1.41.21,1.94.63.79.94.79,1.55-.26,1.13-.79,1.55-1.17.63-1.94.63-1.41-.21-1.94-.63-.79-.94-.79-1.55.26-1.13.79-1.55ZM347.83,189.74c.53-.42,1.17-.63,1.94-.63s1.41.21,1.94.63.79.94.79,1.55-.26,1.13-.79,1.55-1.17.63-1.94.63-1.41-.21-1.94-.63-.79-.94-.79-1.55.26-1.13.79-1.55Z"/>
    <path d="M373.03,186.49c.2.19.3.42.3.68v21.37h3.23v4.37h-6.7c-.26,0-.5-.1-.69-.29-.2-.19-.3-.42-.3-.68v-24.77c0-.26.1-.49.3-.68.2-.19.43-.29.69-.29h2.48c.26,0,.5.1.69.29Z"/>
    <path d="M375.49,208.95c.28-.28.64-.41,1.07-.41h6.7l-2.93-4.95c-.2-.32-.34-.69-.42-1.09-.08-.4-.12-.8-.12-1.19,0-.55.08-1.09.25-1.63.17-.53.41-1,.74-1.41.33-.4.74-.74,1.24-1s1.08-.39,1.74-.39h10.42c.66,0,1.24.13,1.74.39s.91.59,1.24,1,.58.87.74,1.41c.17.53.25,1.08.25,1.63,0,.39-.04.78-.12,1.17s-.22.76-.42,1.12l-2.88,4.95h6.65v4.37h-24.81c-.43,0-.79-.14-1.07-.41s-.42-.62-.42-1.04v-1.46c0-.42.14-.77.42-1.04v-.02ZM384.15,201.25l4.52,7.29h.55l4.62-7.29h-9.69ZM387.03,189.74c.53-.42,1.17-.63,1.94-.63s1.41.21,1.94.63.79.94.79,1.55-.26,1.13-.79,1.55-1.17.63-1.94.63-1.41-.21-1.94-.63-.79-.94-.79-1.55.26-1.13.79-1.55Z"/>
    <path d="M400.3,208.95c.28-.28.64-.41,1.07-.41h3.23v-21.37c0-.26.1-.49.3-.68.2-.19.43-.29.7-.29h2.48c.26,0,.5.1.7.29.2.19.3.42.3.68v21.37h3.23v4.37h-10.92c-.43,0-.79-.14-1.07-.41s-.42-.62-.42-1.04v-1.46c0-.42.14-.77.42-1.04h-.02Z"/>
    <path d="M415.51,187.17c0-.26.1-.49.3-.68.2-.19.43-.29.7-.29h2.48c.26,0,.5.1.7.29.2.19.3.42.3.68v21.86c0,1.07-.39,1.98-1.17,2.74s-1.71,1.14-2.8,1.14h-3.72c-.43,0-.79-.14-1.07-.41s-.42-.62-.42-1.04v-1.46c0-.42.14-.77.42-1.04.28-.28.64-.41,1.07-.41h3.23v-21.37h-.02Z"/>
    <path d="M430.6,186.49c.2.19.3.42.3.68v24.77c0,.26-.1.49-.3.68s-.43.29-.7.29h-2.48c-.26,0-.5-.1-.7-.29-.2-.19-.3-.42-.3-.68v-24.77c0-.26.1-.49.3-.68.2-.19.43-.29.7-.29h2.48c.26,0,.5.1.7.29Z"/>
    <path d="M437.99,201.45c.43-1.04,1.01-1.89,1.74-2.57.73-.68,1.57-1.18,2.53-1.51s1.99-.49,3.08-.49c1.26,0,2.51.2,3.77.61,1.26.41,2.46,1.01,3.62,1.82v13.6c0,1.46-.17,2.7-.52,3.74s-.83,1.89-1.46,2.55-1.37,1.15-2.23,1.46c-.86.31-1.8.46-2.83.46-1.16,0-2.33-.18-3.52-.53-1.19-.36-2.46-.86-3.82-1.51l1.44-3.4c.79.36,1.63.66,2.51.92s1.73.39,2.56.39c.99,0,1.81-.28,2.46-.85s.97-1.64.97-3.23h-6.45c-1.26,0-2.32-.42-3.18-1.26s-1.29-1.88-1.29-3.11v-3.4c0-1.42.21-2.65.64-3.69h-.02ZM448.26,201.74c-.86-.32-1.8-.49-2.83-.49-.96,0-1.8.31-2.53.92-.73.62-1.09,1.6-1.09,2.96v3.4h6.45v-6.8h0Z"/>
    <path d="M470.4,197.17c.2-.19.43-.29.69-.29h2.48c.26,0,.5.1.69.29s.3.42.3.68v15.06c0,1.46-.17,2.7-.52,3.72-.35,1.02-.83,1.86-1.46,2.53-.63.66-1.37,1.15-2.23,1.46s-1.8.46-2.83.46c-1.16,0-2.37-.17-3.65-.51s-2.59-.83-3.95-1.48l1.44-3.45c.76.36,1.63.68,2.6.97.98.29,1.93.44,2.85.44.46,0,.89-.06,1.29-.19s.75-.35,1.04-.66c.3-.31.53-.73.7-1.26s.25-1.21.25-2.02v-15.06c0-.26.1-.49.3-.68h0ZM470.4,189.74c.53-.42,1.17-.63,1.93-.63s1.41.21,1.94.63.79.94.79,1.55-.26,1.13-.79,1.55-1.17.63-1.94.63-1.41-.21-1.93-.63-.79-.94-.79-1.55.26-1.13.79-1.55Z"/>
    <path d="M481.16,201.45c.43-1.04,1.01-1.89,1.74-2.57.73-.68,1.57-1.18,2.53-1.51s1.99-.49,3.08-.49c1.26,0,2.51.2,3.77.61,1.26.41,2.46,1.01,3.62,1.82v9.23h3.23v4.37h-3.23c0,1.46-.17,2.7-.52,3.74s-.83,1.89-1.46,2.55-1.37,1.15-2.23,1.46c-.86.31-1.8.46-2.83.46-1.16,0-2.33-.18-3.52-.53-1.19-.36-2.46-.86-3.82-1.51l1.44-3.4c.79.36,1.63.66,2.51.92s1.73.39,2.56.39c.99,0,1.81-.28,2.46-.85s.97-1.64.97-3.23h-6.45c-1.26,0-2.32-.42-3.18-1.26s-1.29-1.88-1.29-3.11v-3.4c0-1.42.21-2.65.64-3.69h-.02ZM491.43,201.74c-.86-.32-1.8-.49-2.83-.49-.96,0-1.8.31-2.53.92-.73.62-1.09,1.6-1.09,2.96v3.4h6.45v-6.8h0Z"/>
    <path d="M498.06,212.5c-.28-.28-.42-.62-.42-1.04v-1.46c0-.42.14-.77.42-1.04.28-.28.64-.41,1.07-.41h3.23v-4.76c0-.97.22-1.84.67-2.6s1.04-1.4,1.79-1.92c.74-.52,1.6-.91,2.58-1.17.98-.26,1.99-.39,3.05-.39,1.29,0,2.57.2,3.84.61,1.27.4,2.42,1.03,3.45,1.87v8.26c0,1.07-.21,2.01-.62,2.82-.41.81-.96,1.48-1.64,2.02s-1.46.93-2.36,1.19c-.89.26-1.84.39-2.83.39-1.26,0-2.34-.17-3.25-.51s-1.89-.82-2.95-1.43h-4.96c-.43,0-.79-.14-1.07-.41v-.02ZM508.51,210.26c.6.15,1.19.22,1.79.22.79,0,1.49-.15,2.08-.44.6-.29.89-.75.89-1.36v-5.97c-.3-.16-.71-.31-1.24-.44-.53-.13-1.09-.19-1.69-.19-.86,0-1.66.18-2.41.53-.74.36-1.12.99-1.12,1.89v5.05c.53.32,1.09.56,1.69.7h0Z"/>
    <path d="M518.06,216.62c.98.31,1.91.46,2.8.46s1.71-.29,2.36-.87.97-1.68.97-3.3v-15.06c0-.26.1-.49.3-.68.2-.19.43-.29.69-.29h2.48c.26,0,.5.1.69.29s.3.42.3.68v10.69h3.23v4.37h-3.23c0,1.46-.17,2.7-.52,3.74-.35,1.04-.83,1.89-1.46,2.55s-1.37,1.15-2.23,1.46-1.8.46-2.83.46c-1.16,0-2.37-.18-3.65-.53s-2.59-.86-3.95-1.51l1.44-3.45c.76.36,1.63.69,2.6,1h.01Z"/>
    <path d="M535.1,187.17c0-.26.1-.49.3-.68.2-.19.43-.29.69-.29h2.48c.26,0,.5.1.69.29.2.19.3.42.3.68v21.86c0,1.07-.39,1.98-1.17,2.74s-1.71,1.14-2.8,1.14h-3.72c-.43,0-.79-.14-1.07-.41s-.42-.62-.42-1.04v-1.46c0-.42.14-.77.42-1.04.28-.28.64-.41,1.07-.41h3.23v-21.37h0Z"/>
    <path d="M550.19,186.49c.2.19.3.42.3.68v24.77c0,.26-.1.49-.3.68-.2.19-.43.29-.69.29h-2.48c-.26,0-.5-.1-.69-.29s-.3-.42-.3-.68v-24.77c0-.26.1-.49.3-.68.2-.19.43-.29.69-.29h2.48c.26,0,.5.1.69.29Z"/>
    <path d="M562.89,203.68c0-1.17.26-2.18.77-3.04s1.17-1.56,1.98-2.11,1.75-.96,2.8-1.24c1.06-.27,2.13-.41,3.23-.41,1.19,0,2.35.16,3.47.49s2.17.81,3.13,1.46v14.08h-15.38v-9.23h0ZM565.42,189.74c.53-.42,1.17-.63,1.93-.63s1.41.21,1.94.63.79.94.79,1.55-.26,1.13-.79,1.55-1.17.63-1.94.63-1.41-.21-1.93-.63-.79-.94-.79-1.55.26-1.13.79-1.55ZM573.81,201.79c-1.09-.36-2-.53-2.73-.53-.99,0-1.86.23-2.61.68-.74.45-1.12,1.12-1.12,1.99v4.61h6.45v-6.75h0ZM571.87,189.74c.53-.42,1.17-.63,1.94-.63s1.41.21,1.94.63.79.94.79,1.55-.26,1.13-.79,1.55-1.17.63-1.94.63-1.41-.21-1.94-.63-.79-.94-.79-1.55.26-1.13.79-1.55Z"/>
    <path d="M584.43,212.62c-.2-.19-.3-.42-.3-.68v-1.94c0-.26.1-.49.3-.68s.43-.29.7-.29h2.48c-.79-1.17-1.41-2.23-1.84-3.21-.43-.97-.64-1.98-.64-3.01,0-.87.14-1.6.42-2.19.28-.58.65-1.04,1.09-1.38.45-.34.96-.58,1.54-.7.58-.13,1.18-.19,1.81-.19,1.09,0,2.21.17,3.35.51s2.14.77,3,1.29l-1.54,3.06c-.26-.16-.75-.36-1.46-.58s-1.41-.34-2.11-.34c-.43,0-.8.08-1.12.24s-.47.5-.47,1.02c0,.49.15,1.01.45,1.58s.63,1.11.99,1.63.73.99,1.09,1.41.6.71.69.87h3.92c.26,0,.5.1.69.29s.3.42.3.68v1.94c0,.26-.1.49-.3.68s-.43.29-.69.29h-11.66c-.26,0-.5-.1-.7-.29h.01Z"/>
    <path d="M607.75,186.49c.2.19.3.42.3.68v24.77c0,.26-.1.49-.3.68s-.43.29-.7.29h-2.48c-.26,0-.5-.1-.7-.29-.2-.19-.3-.42-.3-.68v-24.77c0-.26.1-.49.3-.68.2-.19.43-.29.7-.29h2.48c.26,0,.5.1.7.29Z"/>
    <path d="M608.37,216.62c.98.31,1.91.46,2.8.46s1.71-.29,2.36-.87c.65-.58.97-1.68.97-3.3v-15.06c0-.26.1-.49.3-.68s.43-.29.7-.29h2.48c.26,0,.5.1.7.29.2.19.3.42.3.68v10.69h3.23v4.37h-3.23c0,1.46-.17,2.7-.52,3.74s-.83,1.89-1.46,2.55-1.37,1.15-2.23,1.46c-.86.31-1.8.46-2.83.46-1.16,0-2.37-.18-3.65-.53-1.27-.36-2.59-.86-3.94-1.51l1.44-3.45c.76.36,1.63.69,2.61,1h-.03Z"/>
    <path d="M621.12,208.95c.28-.28.64-.41,1.07-.41h4.07c-.3-.52-.51-1.08-.64-1.68-.13-.6-.2-1.22-.2-1.87,0-.94.16-1.89.47-2.87s.81-1.85,1.49-2.62c.68-.78,1.55-1.41,2.6-1.89,1.06-.49,2.32-.73,3.77-.73h3.57c1.09,0,2.03.38,2.8,1.14.78.76,1.17,1.68,1.17,2.74v11.17c0,.26-.1.49-.3.68-.2.19-.43.29-.7.29h-18.11c-.43,0-.79-.14-1.07-.41s-.42-.62-.42-1.04v-1.46c0-.42.14-.77.42-1.04h.01ZM628.2,189.74c.53-.42,1.17-.63,1.94-.63s1.41.21,1.93.63.79.94.79,1.55-.26,1.13-.79,1.55-1.17.63-1.93.63-1.41-.21-1.94-.63-.79-.94-.79-1.55.26-1.13.79-1.55ZM630.93,202.3c-.7.7-1.04,1.56-1.04,2.6,0,.94.33,1.78.99,2.53s1.52,1.12,2.58,1.12h3.37v-7.29h-3.37c-.99,0-1.84.35-2.53,1.04ZM634.65,189.74c.53-.42,1.17-.63,1.93-.63s1.41.21,1.94.63.79.94.79,1.55-.26,1.13-.79,1.55-1.17.63-1.94.63-1.41-.21-1.93-.63-.79-.94-.79-1.55.26-1.13.79-1.55Z"/>
    <path d="M251.66,262.45v1.36l-7.29,1.17v-1.36l7.29-1.17Z"/>
    <path d="M259.52,257.42c-.78.76-1.71,1.14-2.8,1.14h-6.45c-1.22,0-2.38-.23-3.47-.68-1.09-.45-2.04-1.08-2.85-1.87-.81-.79-1.45-1.72-1.91-2.79-.46-1.07-.69-2.2-.69-3.4v-6.31c0-.26.1-.49.3-.68.2-.19.43-.29.69-.29h2.48c.26,0,.5.1.69.29.2.19.3.42.3.68v6.31c0,1.2.44,2.23,1.31,3.08.88.86,1.93,1.29,3.15,1.29h5.95v-15.54c0-.26.1-.49.3-.68.2-.19.43-.29.69-.29h2.48c.26,0,.5.1.69.29.2.19.3.42.3.68v16.03c0,1.07-.39,1.98-1.17,2.74h.01ZM249.08,230.54c.53-.42,1.17-.63,1.94-.63s1.41.21,1.94.63.79.94.79,1.55-.26,1.13-.79,1.55-1.17.63-1.94.63-1.41-.21-1.94-.63-.79-.94-.79-1.55.26-1.13.79-1.55Z"/>
    <path d="M271.31,227.29c.2.19.3.42.3.68v24.77c0,.26-.1.49-.3.68-.2.19-.43.29-.69.29h-2.48c-.26,0-.5-.1-.69-.29-.2-.19-.3-.42-.3-.68v-24.77c0-.26.1-.49.3-.68.2-.19.43-.29.69-.29h2.48c.26,0,.5.1.69.29Z"/>
    <path d="M278.7,242.25c.43-1.04,1.01-1.89,1.74-2.57.73-.68,1.57-1.18,2.53-1.51.96-.32,1.98-.49,3.08-.49,1.26,0,2.51.2,3.77.61,1.26.41,2.46,1.01,3.62,1.82v9.23h3.23v4.37h-3.23c0,1.46-.17,2.7-.52,3.74-.35,1.04-.83,1.89-1.46,2.55-.63.66-1.37,1.15-2.23,1.46-.86.31-1.8.46-2.83.46-1.16,0-2.33-.18-3.52-.53s-2.46-.86-3.82-1.51l1.44-3.4c.79.36,1.63.66,2.51.92s1.73.39,2.56.39c.99,0,1.81-.28,2.46-.85s.97-1.64.97-3.23h-6.45c-1.26,0-2.32-.42-3.18-1.26s-1.29-1.88-1.29-3.11v-3.4c0-1.42.21-2.66.65-3.69h-.03ZM288.97,242.54c-.86-.32-1.8-.49-2.83-.49-.96,0-1.8.31-2.53.92-.73.62-1.09,1.6-1.09,2.96v3.4h6.45v-6.8h0Z"/>
    <path d="M295.6,249.75c.28-.28.64-.41,1.07-.41h5.21v-10.69c0-.26.1-.49.3-.68.2-.19.43-.29.69-.29h2.48c.26,0,.5.1.69.29.2.19.3.42.3.68v10.69h5.21v4.37h-14.89c-.43,0-.79-.14-1.07-.41s-.42-.62-.42-1.04v-1.46c0-.42.14-.77.42-1.04h.01ZM297.71,231.51c.53-.42,1.17-.63,1.94-.63s1.41.21,1.94.63.79.94.79,1.55-.26,1.13-.79,1.55-1.17.63-1.94.63-1.41-.21-1.94-.63-.79-.94-.79-1.55.26-1.13.79-1.55ZM300.93,226.66c.53-.42,1.17-.63,1.94-.63s1.41.21,1.94.63.79.94.79,1.55-.26,1.13-.79,1.55-1.17.63-1.94.63-1.41-.21-1.94-.63-.79-.94-.79-1.55.26-1.13.79-1.55ZM304.16,231.51c.53-.42,1.17-.63,1.94-.63s1.41.21,1.94.63.79.94.79,1.55-.26,1.13-.79,1.55-1.17.63-1.94.63-1.41-.21-1.94-.63-.79-.94-.79-1.55.26-1.13.79-1.55Z"/>
    <path d="M310.48,249.75c.28-.28.64-.41,1.07-.41h5.21v-10.69c0-.26.1-.49.3-.68.2-.19.43-.29.69-.29h2.48c.26,0,.5.1.69.29.2.19.3.42.3.68v11.17c0,1.07-.39,1.98-1.17,2.74s-1.71,1.14-2.8,1.14h-5.71c-.43,0-.79-.14-1.07-.41s-.42-.62-.42-1.04v-1.46c0-.42.14-.77.42-1.04h.01ZM314.63,257.25c.53-.42,1.17-.63,1.94-.63s1.41.21,1.94.63.79.94.79,1.55-.26,1.13-.79,1.55-1.17.63-1.94.63-1.41-.21-1.94-.63-.79-.94-.79-1.55.26-1.13.79-1.55Z"/>
    <path d="M338.6,253.71c-1.79,0-3.06-.33-3.82-1-.76-.66-1.14-1.51-1.14-2.55,0-.78.2-1.65.6-2.62l2.73-6.75c.36-.91.97-1.65,1.81-2.23s1.78-.87,2.8-.87h7.44c.26,0,.5.1.69.29.2.19.3.42.3.68v10.69h3.23v4.37h-14.64,0ZM339.14,230.54c.53-.42,1.17-.63,1.94-.63s1.41.21,1.94.63.79.94.79,1.55-.26,1.13-.79,1.55-1.17.63-1.94.63-1.41-.21-1.94-.63-.79-.94-.79-1.55.26-1.13.79-1.55ZM345.54,242.05h-4.27l-2.93,7.29h7.2v-7.29h0ZM345.59,230.54c.53-.42,1.17-.63,1.94-.63s1.41.21,1.94.63.79.94.79,1.55-.26,1.13-.79,1.55-1.17.63-1.94.63-1.41-.21-1.94-.63-.79-.94-.79-1.55.26-1.13.79-1.55Z"/>
    <path d="M352.17,249.75c.28-.28.64-.41,1.07-.41h5.21v-10.69c0-.26.1-.49.3-.68.2-.19.43-.29.69-.29h2.48c.26,0,.5.1.69.29.2.19.3.42.3.68v10.69h5.21v4.37h-14.89c-.43,0-.79-.14-1.07-.41s-.42-.62-.42-1.04v-1.46c0-.42.14-.77.42-1.04h.01ZM354.03,257.25c.53-.42,1.17-.63,1.94-.63s1.41.21,1.94.63.79.94.79,1.55-.26,1.13-.79,1.55-1.17.63-1.94.63-1.41-.21-1.94-.63-.79-.94-.79-1.55.26-1.13.79-1.55ZM360.48,257.25c.53-.42,1.17-.63,1.94-.63s1.41.21,1.94.63.79.94.79,1.55-.26,1.13-.79,1.55-1.17.63-1.94.63-1.41-.21-1.94-.63-.79-.94-.79-1.55.26-1.13.79-1.55Z"/>
    <path d="M367.06,253.29c-.28-.28-.42-.62-.42-1.04v-1.46c0-.42.14-.77.42-1.04.28-.28.64-.41,1.07-.41h4.07c-.3-.52-.51-1.08-.65-1.68s-.2-1.22-.2-1.87c0-.94.16-1.89.47-2.87s.81-1.85,1.49-2.62c.68-.78,1.55-1.41,2.6-1.89,1.06-.49,2.32-.73,3.77-.73h3.57c1.09,0,2.03.38,2.8,1.14.78.76,1.17,1.68,1.17,2.74v7.77h3.23v4.37h-22.33c-.43,0-.79-.14-1.07-.41h0ZM382.76,242.05h-3.37c-.99,0-1.84.35-2.53,1.04s-1.04,1.56-1.04,2.6c0,.94.33,1.78.99,2.53s1.49,1.12,2.48,1.12h3.47v-7.29ZM377.35,230.54c.53-.42,1.17-.63,1.94-.63s1.41.21,1.94.63.79.94.79,1.55-.26,1.13-.79,1.55-1.17.63-1.94.63-1.41-.21-1.94-.63-.79-.94-.79-1.55.26-1.13.79-1.55Z"/>
    <path d="M389.39,253.29c-.28-.28-.42-.62-.42-1.04v-1.46c0-.42.14-.77.42-1.04.28-.28.64-.41,1.07-.41h3.23v-21.37c0-.26.1-.49.3-.68.2-.19.43-.29.7-.29h2.48c.26,0,.5.1.7.29.2.19.3.42.3.68v16.03l6.1-4.86c.53-.42,1.09-.77,1.69-1.04.6-.27,1.27-.41,2.04-.41h6.05c1.09,0,2.03.38,2.8,1.14.78.76,1.17,1.68,1.17,2.74v8.26c0,1.07-.39,1.98-1.17,2.74s-1.71,1.14-2.8,1.14h-23.57c-.43,0-.79-.14-1.07-.41h-.02ZM413.53,249.34v-7.29h-6.3l-9.18,7.29h15.48,0Z"/>
    <path d="M428.61,227.29c.2.19.3.42.3.68v21.37h3.23v4.37h-6.7c-.26,0-.5-.1-.69-.29s-.3-.42-.3-.68v-24.77c0-.26.1-.49.3-.68.2-.19.43-.29.69-.29h2.48c.26,0,.5.1.69.29Z"/>
    <path d="M431.07,249.75c.28-.28.64-.41,1.07-.41h6.7l-2.93-4.95c-.2-.32-.34-.69-.42-1.09s-.12-.8-.12-1.19c0-.55.08-1.09.25-1.63.17-.53.41-1,.74-1.41.33-.4.75-.74,1.24-1,.5-.26,1.08-.39,1.74-.39h10.42c.66,0,1.24.13,1.74.39s.91.59,1.24,1,.58.87.75,1.41c.17.53.25,1.08.25,1.63,0,.39-.04.78-.12,1.17s-.22.76-.42,1.12l-2.88,4.95h6.65v4.37h-24.81c-.43,0-.79-.14-1.07-.41s-.42-.62-.42-1.04v-1.46c0-.42.14-.77.42-1.04l-.02-.02ZM439.73,242.05l4.52,7.29h.54l4.62-7.29h-9.68Z"/>
    <path d="M460.17,227.97c0-.26.1-.49.3-.68.2-.19.43-.29.69-.29h2.48c.26,0,.5.1.69.29.2.19.3.42.3.68v21.86c0,1.07-.39,1.98-1.17,2.74s-1.71,1.14-2.8,1.14h-3.72c-.43,0-.79-.14-1.07-.41s-.42-.62-.42-1.04v-1.46c0-.42.14-.77.42-1.04.28-.28.64-.41,1.07-.41h3.23v-21.37h0Z"/>
    <path d="M475.26,227.29c.2.19.3.42.3.68v24.77c0,.26-.1.49-.3.68-.2.19-.43.29-.69.29h-2.48c-.26,0-.5-.1-.69-.29s-.3-.42-.3-.68v-24.77c0-.26.1-.49.3-.68.2-.19.43-.29.69-.29h2.48c.26,0,.5.1.69.29Z"/>
    <path d="M518.55,252.57c-.78.76-1.71,1.14-2.8,1.14h-23.82c-1.09,0-2.03-.38-2.8-1.14s-1.17-1.68-1.17-2.74v-11.17c0-.26.1-.49.3-.68s.43-.29.69-.29h2.48c.26,0,.5.1.69.29.2.19.3.42.3.68v10.69h22.83v-10.69c0-.26.1-.49.3-.68s.43-.29.69-.29h2.48c.26,0,.5.1.69.29s.3.42.3.68v11.17c0,1.07-.39,1.98-1.17,2.74h.01ZM498.68,230.54c.53-.42,1.17-.63,1.93-.63s1.41.21,1.94.63.79.94.79,1.55-.26,1.13-.79,1.55-1.17.63-1.94.63-1.41-.21-1.93-.63-.79-.94-.79-1.55.26-1.13.79-1.55ZM505.13,230.54c.53-.42,1.17-.63,1.94-.63s1.41.21,1.94.63.79.94.79,1.55-.26,1.13-.79,1.55-1.17.63-1.94.63-1.41-.21-1.94-.63-.79-.94-.79-1.55.26-1.13.79-1.55Z"/>
    <path d="M530.34,227.29c.2.19.3.42.3.68v24.77c0,.26-.1.49-.3.68s-.43.29-.7.29h-2.48c-.26,0-.5-.1-.7-.29-.2-.19-.3-.42-.3-.68v-24.77c0-.26.1-.49.3-.68.2-.19.43-.29.7-.29h2.48c.26,0,.5.1.7.29Z"/>
    <path d="M537.39,237.97c.2-.19.43-.29.7-.29h2.48c.26,0,.5.1.7.29.2.19.3.42.3.68v15.06c0,1.46-.17,2.7-.52,3.72-.35,1.02-.83,1.86-1.46,2.53s-1.37,1.15-2.23,1.46-1.8.46-2.83.46c-1.16,0-2.37-.17-3.65-.51-1.27-.34-2.59-.83-3.94-1.48l1.44-3.45c.76.36,1.63.68,2.61.97s1.93.44,2.85.44c.46,0,.89-.06,1.29-.19.4-.13.74-.35,1.04-.66s.53-.73.69-1.26c.17-.53.25-1.21.25-2.02v-15.06c0-.26.1-.49.3-.68h-.02Z"/>
    <path d="M552.17,227.29c.2.19.3.42.3.68v21.37h3.23v4.37h-6.7c-.26,0-.5-.1-.7-.29-.2-.19-.3-.42-.3-.68v-24.77c0-.26.1-.49.3-.68.2-.19.43-.29.7-.29h2.48c.26,0,.5.1.7.29h0Z"/>
    <path d="M560.91,238.65c0-.26.1-.49.3-.68s.43-.29.69-.29h2.48c.26,0,.5.1.69.29.2.19.3.42.3.68v10.69h5.46v-10.69c0-.26.1-.49.3-.68.2-.19.43-.29.7-.29h2.48c.26,0,.5.1.7.29s.3.42.3.68v10.69h5.46v-10.69c0-.26.1-.49.3-.68s.43-.29.69-.29h2.48c.26,0,.5.1.69.29.2.19.3.42.3.68v11.17c0,1.07-.39,1.98-1.17,2.74s-1.71,1.14-2.8,1.14h-25.55c-.43,0-.79-.14-1.07-.41s-.42-.62-.42-1.04v-1.46c0-.42.14-.77.42-1.04.28-.28.64-.41,1.07-.41h5.21v-10.69h-.01ZM567.9,231.51c.53-.42,1.17-.63,1.93-.63s1.41.21,1.94.63.79.94.79,1.55-.26,1.13-.79,1.55-1.17.63-1.94.63-1.41-.21-1.93-.63-.79-.94-.79-1.55.26-1.13.79-1.55ZM571.13,226.66c.53-.42,1.17-.63,1.94-.63s1.41.21,1.94.63.79.94.79,1.55-.26,1.13-.79,1.55-1.17.63-1.94.63-1.41-.21-1.94-.63-.79-.94-.79-1.55.26-1.13.79-1.55ZM574.35,231.51c.53-.42,1.17-.63,1.94-.63s1.41.21,1.94.63.79.94.79,1.55-.26,1.13-.79,1.55-1.17.63-1.94.63-1.41-.21-1.94-.63-.79-.94-.79-1.55.26-1.13.79-1.55Z"/>
    <path d="M596.19,229.67c.23.16.38.41.45.73l2.48,20.64h-3.47c-.26,0-.52-.08-.77-.24s-.39-.41-.42-.73l-2.48-20.64h3.47c.26,0,.51.08.74.24ZM597.11,262.24c-.25-.07-.49-.11-.72-.11-.26,0-.49.06-.67.17-.18.12-.27.32-.27.61,0,.23.12.45.35.66.23.2.58.31,1.04.31h1.88v1.97h-6.15v-1.97h1.19c-.46-.35-.69-.8-.69-1.35,0-.67.3-1.2.89-1.57.6-.38,1.29-.57,2.08-.57.46,0,.93.08,1.41.24s.88.36,1.22.59l-.94,1.31c-.17-.12-.37-.21-.62-.28h0ZM593.56,256.14c.1-.29.18-.56.25-.8s.14-.51.22-.8c.08-.29.21-.7.37-1.21.46.16,1.19.34,2.18.53s2,.29,3.03.29c.6,0,1.16-.04,1.69-.12s1-.23,1.41-.46c.41-.23.74-.51.99-.85.25-.34.37-.79.37-1.33v-23.41c0-.26.1-.49.3-.68.2-.19.43-.29.69-.29h2.48c.26,0,.5.1.69.29.2.19.3.42.3.68v23.41c0,1.36-.23,2.5-.69,3.42s-1.09,1.67-1.89,2.23-1.71.97-2.75,1.21-2.12.36-3.25.36-2.32-.11-3.5-.34c-1.17-.23-2.27-.53-3.3-.92.17-.52.3-.92.4-1.21h.01Z"/>
    <path d="M619.17,227.29c.2.19.3.42.3.68v24.77c0,.26-.1.49-.3.68s-.43.29-.7.29h-2.48c-.26,0-.5-.1-.7-.29-.2-.19-.3-.42-.3-.68v-24.77c0-.26.1-.49.3-.68.2-.19.43-.29.7-.29h2.48c.26,0,.5.1.7.29Z"/>
    <path d="M626.56,242.25c.43-1.04,1.01-1.89,1.74-2.57.73-.68,1.57-1.18,2.53-1.51s1.99-.49,3.08-.49c1.26,0,2.51.2,3.77.61s2.46,1.01,3.62,1.82v13.6c0,1.46-.17,2.7-.52,3.74s-.83,1.89-1.46,2.55c-.63.66-1.37,1.15-2.23,1.46s-1.8.46-2.83.46c-1.16,0-2.33-.18-3.52-.53-1.19-.36-2.46-.86-3.82-1.51l1.44-3.4c.79.36,1.63.66,2.51.92s1.73.39,2.56.39c.99,0,1.81-.28,2.46-.85s.97-1.64.97-3.23h-6.45c-1.26,0-2.32-.42-3.18-1.26s-1.29-1.88-1.29-3.11v-3.4c0-1.42.21-2.66.64-3.69h-.02ZM636.83,242.54c-.86-.32-1.8-.49-2.83-.49-.96,0-1.8.31-2.53.92-.73.62-1.09,1.6-1.09,2.96v3.4h6.45v-6.8h0Z"/>
  </g>
</svg>