<?xml version="1.0" encoding="UTF-8"?>
<svg id="Layer_1" xmlns="http://www.w3.org/2000/svg" version="1.1" viewBox="0 0 778.28 233.66">
  <!-- Generator: Adobe Illustrator 29.7.1, SVG Export Plug-In . SVG Version: 2.1.1 Build 8)  -->
  <defs>
    <style>
      .st0 {
        fill: #8f8fcc;
      }
    </style>
  </defs>
  <g>
    <path d="M674.74,4.46c.8.78,1.2,1.88,1.14,2.96l5.46,94.41,13.76-3.04c.52-.12,1.04-.11,1.54-.02.27,0,.54-.05.81,0,.27,0,.54-.05.81,0,.27,0,.54-.05.81,0,.27,0,.54-.05.81,0,.27,0,.55-.05.81,0,.27,0,.54-.05.81,0,.27,0,.54-.05.81,0,.27,0,.54-.05.81,0,.27,0,.54-.05.81,0,.27,0,.54-.05.81,0,.27,0,.54-.05.81,0,.27,0,.54-.05.81,0,.27,0,.54-.05.81,0,.27,0,.54-.05.81,0,.27,0,.54-.05.81,0,.27,0,.55-.05.81,0,.27,0,.55-.05.81,0,.27,0,.54-.05.81,0,.27,0,.55-.05.81,0,.27,0,.54-.05.81,0,1.73-.05,3.33.95,3.86,2.62l7.73,24.2,17.4-9.34c.69-.37,1.46-.44,2.23-.37.27-.03.53-.02.81,0,.27-.03.53-.02.81,0,.27-.03.53-.02.81,0,.27-.03.53-.02.81,0,.27-.03.53-.02.81,0,.27-.03.53-.02.81,0,.27-.03.53-.02.81,0,.27-.03.53-.02.81,0,.27-.03.53-.02.81,0,.27-.03.53-.02.81,0,.28-.03.53-.02.81,0,.28-.03.53-.02.81,0,.27-.03.53-.02.81,0,.28-.03.53-.02.81,0,.27-.03.53-.02.81,0,.27-.03.53-.02.81,0,.28-.03.53-.02.81,0,.27-.03.53-.02.81,0,.27-.03.53-.02.81,0,.27-.03.53-.02.81,0,.73-.09,1.47-.04,2.16.29,1.14.54,1.94,1.58,2.15,2.8l7.6,43.55,59.56,1.08c1.85.03,3.42,1.33,3.77,3.11.05.24.07.48.07.71,0,1.52-.93,2.93-2.41,3.53l-83.73,34.15c-.63.26-1.29.29-1.95.21-.27.03-.53.03-.81,0-.27.03-.53.03-.81,0-.27.03-.53.03-.81,0-.27.03-.53.03-.81,0-.27.03-.53.03-.81,0-.27.03-.53.03-.81,0-.27.03-.53.03-.81,0-.27.03-.53.03-.81,0-.27.03-.53.03-.81,0-.27.03-.53.03-.81,0-.28.03-.53.03-.81,0-.27.03-.53.03-.81,0-.27.03-.53.03-.81,0-.27.03-.53.03-.81,0-.27.03-.53.03-.81,0-.27.03-.53.03-.81,0-.27.03-.53.03-.81,0-.27.03-.53.03-.81,0-.27.03-.53.03-.81,0-.27.03-.53.03-.81,0-.69.06-1.39,0-2.03-.29-1-.46-1.75-1.32-2.07-2.36l-5.09-16.61-5.33,4.7c-.91.8-2.16,1.14-3.36.91-.02,0-.04-.02-.06-.03-.25,0-.49.08-.74.03-.02,0-.04-.02-.06-.03-.25,0-.49.08-.74.03-.02,0-.04-.02-.06-.03-.25,0-.49.08-.74.03-.02,0-.04-.02-.06-.03-.25,0-.49.08-.74.03-.02,0-.04-.02-.06-.03-.25,0-.49.08-.74.03-.02,0-.04-.02-.06-.03-.25,0-.49.08-.74.03-.02,0-.04-.02-.06-.03-.25,0-.49.08-.74.03-.02,0-.04-.02-.06-.03-.25,0-.49.08-.74.03-.02,0-.04-.02-.06-.03-.25,0-.49.08-.74.03-.02,0-.04-.02-.06-.03-.25,0-.49.08-.74.03-.02,0-.04-.02-.06-.03-.25,0-.49.08-.74.03-.02,0-.04-.02-.06-.03-.25,0-.49.08-.74.03-.02,0-.04-.02-.06-.03-.25,0-.49.08-.74.03-.02,0-.04-.02-.06-.03-.25,0-.49.08-.74.03-.02,0-.04-.02-.06-.03-.25,0-.49.08-.74.03-.02,0-.04-.02-.06-.03-.25,0-.49.08-.74.03-.02,0-.04-.02-.06-.03-.25,0-.49.08-.74.03-.02,0-.04-.02-.06-.03-.25,0-.49.08-.74.03-.02,0-.04-.02-.06-.03-.25,0-.49.08-.74.03-.02,0-.04-.02-.06-.03-.25,0-.49.08-.74.03-.02,0-.04-.02-.06-.03-.25,0-.49.08-.74.03-1.21-.23-2.23-1-2.77-2.09l-14.22-28.64-3.55,2.01-8.88,65.31c-.14,1.06-.72,2.01-1.6,2.63-.88.62-1.99.85-3.05.64h-.02c-.26,0-.52.05-.79,0h-.02c-.26,0-.52.05-.79,0h-.02c-.26,0-.52.05-.79,0h-.02c-.26,0-.52.05-.79,0h-.02c-.26,0-.52.05-.79,0h-.02c-.26,0-.52.05-.79,0h-.02c-.26,0-.53.05-.79,0h-.02c-.26,0-.52.05-.79,0h-.02c-.26,0-.52.05-.79,0h-.02c-.26,0-.52.05-.79,0h-.02c-.26,0-.52.05-.79,0h-.02c-.26,0-.52.05-.79,0h-.02c-.26,0-.52.05-.79,0h-.02c-.26,0-.52.05-.79,0h-.02c-.26,0-.52.05-.79,0h-.02c-.26,0-.52.05-.79,0h-.02c-.26,0-.52.05-.79,0h-.02c-.26,0-.52.05-.79,0h-.02c-.26,0-.53.05-.79,0h-.02c-.26,0-.52.05-.79,0h-.02c-.26,0-.53.05-.79,0L29.74,191.67c-1.74-.34-3.02-1.79-3.12-3.53L.85,24.47c-.09-2.02,1.5-3.89,3.64-4.04L654.77,3.36c.09,0,.17.04.26.04l.55-.04c.09,0,.17.04.26.04l.55-.04c.09,0,.17.04.26.04l.55-.04c.09,0,.17.04.26.04l.55-.04c.09,0,.17.04.26.04l.55-.04c.09,0,.17.04.26.04l.55-.04c.09,0,.17.04.26.04l.55-.04c.09,0,.17.04.26.04l.55-.04c.09,0,.17.04.26.04l.55-.04c.09,0,.17.04.26.04l.55-.04c.09,0,.17.04.26.04l.55-.04c.09,0,.17.04.26.04l.55-.04c.09,0,.17.04.26.04l.55-.04c.09,0,.17.04.26.04l.55-.04c.09,0,.17.04.26.04l.55-.04c.09,0,.17.04.26.04l.55-.04c.09,0,.17.04.26.04l.55-.04c.09,0,.17.04.26.04l.55-.04c.09,0,.17.04.26.04l.55-.04c.09,0,.17.04.26.04l.55-.04c.09,0,.17.04.26.04l.55-.04c1.13-.08,2.23.33,3.03,1.11h-.07Z"/>
    <path class="st0" d="M656.01,110.24c-.08,1.2.43,2.37,1.36,3.16.94.78,2.2,1.09,3.4.82l32.53-7.19,10.56,33.06c.35,1.1,1.18,1.98,2.27,2.41,1.09.43,2.31.36,3.34-.19l31.24-16.77,7.22,41.37c.31,1.81,1.9,3.15,3.78,3.18l44.15.8-62.51,25.49-9.22-30.08c-.39-1.26-1.4-2.23-2.69-2.59s-2.67-.04-3.67.84l-19.4,17.08-17.5-35.26c-.47-.96-1.33-1.68-2.37-1.99-1.04-.31-2.16-.19-3.1.35l-22.09,12.52c-1.05.6-1.76,1.64-1.92,2.83l-8.59,63.1L34.25,184.76,8.88,27.81,650.85,11.29l5.16,98.95h0Z"/>
    <path d="M657.79,4.46c-.8-.78-1.9-1.18-3.03-1.11L4.49,20.43c-2.14.14-3.72,2.01-3.64,4.04l25.77,163.67c.1,1.74,1.38,3.19,3.12,3.53l615.62,39.84c1.07.21,2.17-.02,3.05-.64.89-.62,1.47-1.57,1.6-2.63l8.88-65.31,16.78-9.51,17.94,36.14c.53,1.08,1.56,1.85,2.77,2.09,1.2.23,2.45-.11,3.36-.91l18.67-16.45,8.69,28.36c.32,1.04,1.07,1.89,2.07,2.36s2.15.49,3.18.07l83.73-34.15c1.48-.6,2.41-2.01,2.41-3.53,0-.24-.02-.47-.07-.71-.35-1.78-1.92-3.08-3.77-3.11l-59.56-1.08-7.6-43.55c-.21-1.22-1.01-2.26-2.15-2.8s-2.47-.5-3.58.09l-31.87,17.11-10.21-31.96c-.61-1.91-2.6-3.03-4.59-2.59l-30.95,6.84-5.21-98.21c.06-1.08-.34-2.18-1.14-2.96h0ZM8.88,27.81L650.85,11.29l5.16,98.95c-.08,1.2.43,2.37,1.36,3.16.94.78,2.2,1.09,3.4.82l32.53-7.19,10.56,33.06c.35,1.1,1.18,1.98,2.27,2.41,1.09.43,2.31.36,3.34-.19l31.24-16.77,7.22,41.37c.31,1.81,1.9,3.15,3.78,3.18l44.15.8-62.51,25.49-9.22-30.08c-.39-1.26-1.4-2.23-2.69-2.59s-2.67-.04-3.67.84l-19.4,17.08-17.5-35.26c-.47-.96-1.33-1.68-2.37-1.99-1.04-.31-2.16-.19-3.1.35l-22.09,12.52c-1.05.6-1.76,1.64-1.92,2.83l-8.59,63.1L34.25,184.76,8.88,27.81Z"/>
  </g>
  <g>
    <path d="M550.09,78.11h-15.55c-1.84,0-3.14-.34-3.93-1.02-.78-.68-1.17-1.55-1.17-2.62,0-.8.2-1.7.61-2.7l2.8-6.94c.37-.93.98-1.7,1.81-2.3s1.81-.9,2.93-.9h8.67c.27,0,.51.1.71.3s.31.43.31.7v9.98h2.8v5.49h.01ZM541.68,72.62v-5.49h-3.77l-2.19,5.49h5.96Z"/>
    <path d="M548.61,74.12c0-.43.15-.79.43-1.07.29-.28.66-.42,1.1-.42h4.84v-9.98c0-.27.1-.5.31-.7.2-.2.44-.3.71-.3h3.57c.27,0,.51.1.71.3s.31.43.31.7v11.48c0,1.1-.4,2.04-1.2,2.82s-1.76,1.17-2.88,1.17h-6.37c-.44,0-.81-.14-1.1-.42s-.43-.64-.43-1.07v-2.5h0ZM551.21,57.5c-.54-.43-.82-.96-.82-1.6s.27-1.16.82-1.6c.54-.43,1.21-.65,1.99-.65s1.44.22,1.99.65c.54.43.82.96.82,1.6s-.27,1.17-.82,1.6c-.54.43-1.21.65-1.99.65s-1.45-.22-1.99-.65ZM557.84,57.5c-.54-.43-.82-.96-.82-1.6s.27-1.16.82-1.6,1.21-.65,1.99-.65,1.44.22,1.99.65c.54.43.82.96.82,1.6s-.27,1.17-.82,1.6c-.54.43-1.21.65-1.99.65s-1.45-.22-1.99-.65Z"/>
    <path d="M570.74,50.66c.27,0,.51.1.71.3s.31.43.31.7v20.96h2.8v5.49h-7.39c-.27,0-.51-.1-.71-.3-.2-.2-.31-.43-.31-.7v-25.45c0-.27.1-.5.31-.7s.44-.3.71-.3c0,0,3.57,0,3.57,0Z"/>
    <path d="M574.62,78.11c-.44,0-.81-.14-1.1-.42s-.43-.64-.43-1.07v-2.5c0-.43.14-.79.43-1.07s.65-.42,1.1-.42h3.67c-.58-1.1-.87-2.28-.87-3.54,0-.96.19-1.9.56-2.79.37-.9.92-1.69,1.63-2.37.71-.68,1.58-1.23,2.6-1.65,1.02-.42,2.17-.62,3.47-.62h5c1.12,0,2.08.39,2.88,1.17s1.2,1.72,1.2,2.82v6.99h2.8v5.49h-22.94v-.02ZM589.15,72.62v-5.49h-3.16c-.82,0-1.51.27-2.09.8s-.87,1.18-.87,1.95.27,1.37.82,1.92c.54.55,1.26.82,2.14.82h3.16ZM584.1,57.5c-.54-.43-.82-.96-.82-1.6s.27-1.16.82-1.6c.54-.43,1.21-.65,1.99-.65s1.44.22,1.99.65.82.96.82,1.6-.27,1.17-.82,1.6c-.54.43-1.21.65-1.99.65s-1.45-.22-1.99-.65Z"/>
    <path d="M596.03,74.12c0-.43.15-.79.43-1.07.29-.28.66-.42,1.1-.42h2.8v-9.98c0-.27.1-.5.31-.7.2-.2.44-.3.71-.3h3.57c.27,0,.51.1.71.3s.31.43.31.7v4.89l5.1-4.39c.54-.46,1.12-.83,1.73-1.1.61-.27,1.31-.4,2.09-.4h7.39c1.12,0,2.08.39,2.88,1.17s1.2,1.72,1.2,2.82v8.48c0,1.1-.4,2.04-1.2,2.82s-1.76,1.17-2.88,1.17h-24.73c-.44,0-.81-.14-1.1-.42s-.43-.64-.43-1.07v-2.5h0ZM607.09,72.62h13.66v-5.49h-6.17l-7.49,5.49Z"/>
    <path d="M365.37,118.91c-1.79,0-3.06-.33-3.82-1-.76-.66-1.14-1.51-1.14-2.55,0-.78.2-1.65.6-2.62l2.73-6.75c.36-.91.97-1.65,1.81-2.23s1.78-.87,2.8-.87h7.44c.26,0,.5.1.69.29.2.19.3.42.3.68v10.69h3.23v4.37h-14.64,0ZM365.91,95.74c.53-.42,1.17-.63,1.94-.63s1.41.21,1.94.63.79.94.79,1.55-.26,1.13-.79,1.55-1.17.63-1.94.63-1.41-.21-1.94-.63-.79-.94-.79-1.55.26-1.13.79-1.55ZM372.32,107.25h-4.27l-2.93,7.29h7.2v-7.29h0ZM372.36,95.74c.53-.42,1.17-.63,1.94-.63s1.41.21,1.94.63.79.94.79,1.55-.26,1.13-.79,1.55-1.17.63-1.94.63-1.41-.21-1.94-.63-.79-.94-.79-1.55.26-1.13.79-1.55Z"/>
    <path d="M378.94,114.95c.28-.28.64-.41,1.07-.41h5.21v-10.69c0-.26.1-.49.3-.68.2-.19.43-.29.69-.29h2.48c.26,0,.5.1.69.29.2.19.3.42.3.68v10.69h5.21v4.37h-14.89c-.43,0-.79-.14-1.07-.41s-.42-.62-.42-1.04v-1.46c0-.42.14-.77.42-1.04h.01ZM380.8,122.45c.53-.42,1.17-.63,1.94-.63s1.41.21,1.94.63.79.94.79,1.55-.26,1.13-.79,1.55c-.53.42-1.17.63-1.94.63s-1.41-.21-1.94-.63-.79-.94-.79-1.55.26-1.13.79-1.55ZM387.25,122.45c.53-.42,1.17-.63,1.94-.63s1.41.21,1.94.63.79.94.79,1.55-.26,1.13-.79,1.55c-.53.42-1.17.63-1.94.63s-1.41-.21-1.94-.63-.79-.94-.79-1.55.26-1.13.79-1.55Z"/>
    <path d="M393.83,114.95c.28-.28.64-.41,1.07-.41h4.07c-.3-.52-.51-1.08-.64-1.68s-.2-1.22-.2-1.87c0-.94.16-1.89.47-2.87s.81-1.85,1.49-2.62c.68-.78,1.55-1.41,2.6-1.89,1.06-.49,2.32-.73,3.77-.73h3.57c1.09,0,2.03.38,2.8,1.14.78.76,1.17,1.68,1.17,2.74v11.17c0,.26-.1.49-.3.68-.2.19-.43.29-.7.29h-18.11c-.43,0-.79-.14-1.07-.41s-.42-.62-.42-1.04v-1.46c0-.42.14-.77.42-1.04h.01ZM403.63,108.3c-.7.7-1.04,1.56-1.04,2.6,0,.94.33,1.78.99,2.53s1.52,1.12,2.58,1.12h3.37v-7.29h-3.37c-.99,0-1.84.35-2.53,1.04h0ZM404.12,95.74c.53-.42,1.17-.63,1.94-.63s1.41.21,1.93.63.79.94.79,1.55-.26,1.13-.79,1.55-1.17.63-1.93.63-1.41-.21-1.94-.63-.79-.94-.79-1.55.26-1.13.79-1.55Z"/>
    <path d="M424.62,92.49c.2.19.3.42.3.68v24.77c0,.26-.1.49-.3.68-.2.19-.43.29-.69.29h-2.48c-.26,0-.5-.1-.69-.29-.2-.2-.3-.42-.3-.68v-24.77c0-.26.1-.49.3-.68.2-.19.43-.29.69-.29h2.48c.26,0,.5.1.69.29Z"/>
    <path d="M425.24,122.62c.98.31,1.91.46,2.8.46s1.71-.29,2.36-.87.97-1.68.97-3.3v-15.06c0-.26.1-.49.3-.68.2-.19.43-.29.69-.29h2.48c.26,0,.5.1.69.29s.3.42.3.68v10.69h3.23v4.37h-3.23c0,1.46-.17,2.7-.52,3.74-.35,1.04-.83,1.88-1.46,2.55-.63.66-1.37,1.15-2.23,1.46-.86.31-1.8.46-2.83.46-1.16,0-2.37-.18-3.65-.53-1.27-.36-2.59-.86-3.95-1.51l1.44-3.45c.76.36,1.63.69,2.6,1h.01Z"/>
    <path d="M438.02,114.93c.3-.26.65-.39,1.04-.39h4.81c-.76-.75-1.31-1.55-1.66-2.43s-.52-1.75-.52-2.62c0-1.07.22-2.02.65-2.87s1.01-1.55,1.74-2.14c.73-.58,1.58-1.03,2.56-1.34s2.03-.46,3.15-.46c1.06,0,2.15.14,3.27.41,1.12.28,2.27.69,3.42,1.24l-1.69,3.79c-.66-.26-1.39-.5-2.18-.73s-1.6-.34-2.43-.34c-.4,0-.83.06-1.31.17s-.93.29-1.34.53-.76.57-1.04.97-.42.91-.42,1.53c0,.45.1.92.3,1.41.2.49.5.95.89,1.38.4.44.88.79,1.46,1.07s1.23.41,1.96.41h6.65l-.89,4.37h-17.37c-.43,0-.79-.14-1.07-.41s-.42-.62-.42-1.04v-1.46c0-.45.15-.81.45-1.07v.02ZM446.55,95.74c.53-.42,1.17-.63,1.94-.63s1.41.21,1.93.63.79.94.79,1.55-.26,1.13-.79,1.55-1.17.63-1.93.63-1.41-.21-1.94-.63-.79-.94-.79-1.55.26-1.13.79-1.55Z"/>
    <path d="M463.77,107.45c.43-1.04,1.01-1.89,1.74-2.57.73-.68,1.57-1.18,2.53-1.51.96-.32,1.98-.49,3.08-.49,1.26,0,2.51.2,3.77.61,1.26.41,2.46,1.01,3.62,1.82v9.23h3.23v4.37h-3.23c0,1.46-.17,2.7-.52,3.74-.35,1.04-.83,1.88-1.46,2.55-.63.66-1.37,1.15-2.23,1.46-.86.31-1.8.46-2.83.46-1.16,0-2.33-.18-3.52-.53-1.19-.36-2.46-.86-3.82-1.51l1.44-3.4c.79.36,1.63.66,2.51.92.88.26,1.73.39,2.56.39.99,0,1.81-.28,2.46-.85s.97-1.64.97-3.23h-6.45c-1.26,0-2.32-.42-3.18-1.26-.86-.84-1.29-1.88-1.29-3.11v-3.4c0-1.42.21-2.66.65-3.69h-.03ZM474.04,107.74c-.86-.32-1.8-.49-2.83-.49-.96,0-1.8.31-2.53.92s-1.09,1.6-1.09,2.96v3.4h6.45v-6.8h0Z"/>
    <path d="M480.67,114.95c.28-.28.64-.41,1.07-.41h5.21v-10.69c0-.26.1-.49.3-.68.2-.19.43-.29.7-.29h2.48c.26,0,.5.1.7.29s.3.42.3.68v11.17c0,1.07-.39,1.98-1.17,2.74-.78.76-1.71,1.14-2.8,1.14h-5.71c-.43,0-.79-.14-1.07-.41s-.42-.62-.42-1.04v-1.46c0-.42.14-.77.42-1.04h-.01ZM482.78,95.74c.53-.42,1.17-.63,1.94-.63s1.41.21,1.94.63.79.94.79,1.55-.26,1.13-.79,1.55-1.17.63-1.94.63-1.41-.21-1.94-.63-.79-.94-.79-1.55.26-1.13.79-1.55ZM489.23,95.74c.53-.42,1.17-.63,1.94-.63s1.41.21,1.93.63.79.94.79,1.55-.26,1.13-.79,1.55-1.17.63-1.93.63-1.41-.21-1.94-.63-.79-.94-.79-1.55.26-1.13.79-1.55Z"/>
    <path d="M498.51,107.45c.43-1.04,1.01-1.89,1.74-2.57.73-.68,1.57-1.18,2.53-1.51s1.99-.49,3.08-.49c1.26,0,2.51.2,3.77.61,1.26.41,2.46,1.01,3.62,1.82v9.23h3.23v4.37h-3.23c0,1.46-.17,2.7-.52,3.74-.35,1.04-.83,1.88-1.46,2.55s-1.37,1.15-2.23,1.46c-.86.31-1.8.46-2.83.46-1.16,0-2.33-.18-3.52-.53-1.19-.36-2.46-.86-3.82-1.51l1.44-3.4c.79.36,1.63.66,2.51.92.88.26,1.73.39,2.56.39.99,0,1.81-.28,2.46-.85s.97-1.64.97-3.23h-6.45c-1.26,0-2.32-.42-3.18-1.26-.86-.84-1.29-1.88-1.29-3.11v-3.4c0-1.42.21-2.66.64-3.69h-.02ZM508.78,107.74c-.86-.32-1.8-.49-2.83-.49-.96,0-1.8.31-2.53.92-.73.62-1.09,1.6-1.09,2.96v3.4h6.45v-6.8h0Z"/>
    <path d="M515.4,114.95c.28-.28.64-.41,1.07-.41h4.07c-.3-.52-.51-1.08-.65-1.68-.13-.6-.2-1.22-.2-1.87,0-.94.16-1.89.47-2.87s.81-1.85,1.49-2.62c.68-.78,1.55-1.41,2.61-1.89,1.06-.49,2.32-.73,3.77-.73h3.57c1.09,0,2.03.38,2.8,1.14.78.76,1.17,1.68,1.17,2.74v11.17c0,.26-.1.49-.3.68s-.43.29-.69.29h-18.11c-.43,0-.79-.14-1.07-.41s-.42-.62-.42-1.04v-1.46c0-.42.14-.77.42-1.04h0ZM525.2,108.3c-.69.7-1.04,1.56-1.04,2.6,0,.94.33,1.78.99,2.53s1.52,1.12,2.58,1.12h3.37v-7.29h-3.37c-.99,0-1.84.35-2.53,1.04ZM525.7,95.74c.53-.42,1.17-.63,1.94-.63s1.41.21,1.94.63.79.94.79,1.55-.26,1.13-.79,1.55-1.17.63-1.94.63-1.41-.21-1.94-.63-.79-.94-.79-1.55.26-1.13.79-1.55Z"/>
    <path d="M547.98,109.68c0-1.17.26-2.18.77-3.04s1.17-1.56,1.99-2.11c.81-.55,1.75-.96,2.8-1.24,1.06-.27,2.13-.41,3.22-.41,1.19,0,2.35.16,3.47.49,1.12.32,2.17.81,3.13,1.46v14.09h-15.38v-9.23h0ZM550.51,95.74c.53-.42,1.17-.63,1.94-.63s1.41.21,1.93.63.79.94.79,1.55-.26,1.13-.79,1.55-1.17.63-1.93.63-1.41-.21-1.94-.63-.79-.94-.79-1.55.26-1.13.79-1.55ZM558.9,107.79c-1.09-.36-2-.53-2.73-.53-.99,0-1.86.23-2.61.68s-1.12,1.12-1.12,1.99v4.61h6.45v-6.75h0ZM556.96,95.74c.53-.42,1.17-.63,1.93-.63s1.41.21,1.94.63.79.94.79,1.55-.26,1.13-.79,1.55-1.17.63-1.94.63-1.41-.21-1.93-.63-.79-.94-.79-1.55.26-1.13.79-1.55Z"/>
    <path d="M563.69,122.62c.98.31,1.91.46,2.8.46s1.71-.29,2.36-.87c.65-.58.97-1.68.97-3.3v-15.06c0-.26.1-.49.3-.68s.43-.29.69-.29h2.48c.26,0,.5.1.69.29s.3.42.3.68v10.69h3.23v4.37h-3.23c0,1.46-.17,2.7-.52,3.74-.35,1.04-.83,1.88-1.46,2.55-.63.66-1.37,1.15-2.23,1.46s-1.8.46-2.83.46c-1.16,0-2.37-.18-3.65-.53-1.27-.36-2.59-.86-3.95-1.51l1.44-3.45c.76.36,1.63.69,2.6,1h.01Z"/>
    <path d="M576.44,118.49c-.28-.28-.42-.62-.42-1.04v-1.46c0-.42.14-.77.42-1.04.28-.28.64-.41,1.07-.41h12.65v-3.3c0-.75-.13-1.37-.4-1.87s-.63-.91-1.09-1.24-1-.55-1.61-.68-1.27-.19-1.96-.19c-.56,0-1.13.05-1.71.15s-1.1.23-1.56.39l-1.49-3.79,11.86-11.66,3.18,3.11-7.49,7.38c1.99.32,3.61,1.17,4.86,2.55,1.26,1.38,1.89,3.33,1.89,5.85v6.7c0,.26-.1.49-.3.68s-.43.29-.7.29h-16.13c-.43,0-.79-.14-1.07-.41h0Z"/>
    <path d="M605.25,92.49c.2.19.3.42.3.68v24.77c0,.26-.1.49-.3.68s-.43.29-.7.29h-2.48c-.26,0-.5-.1-.7-.29-.2-.2-.3-.42-.3-.68v-24.77c0-.26.1-.49.3-.68s.43-.29.7-.29h2.48c.26,0,.5.1.7.29Z"/>
    <path d="M614.67,101.18c.93-.16,1.84-.24,2.73-.24,1.22,0,2.35.17,3.37.51,1.03.34,1.92.87,2.68,1.58s1.36,1.62,1.79,2.72.64,2.41.64,3.93v8.26c0,.26-.1.49-.3.68s-.43.29-.69.29h-14.14v-4.37h10.67v-4.86c0-.78-.14-1.44-.42-1.99-.28-.55-.65-1-1.12-1.33s-1.01-.58-1.64-.73-1.29-.22-1.99-.22c-.56,0-1.14.05-1.74.15s-1.16.24-1.69.44l-1.09-4.08c1.03-.32,2-.57,2.93-.73h.01ZM614.53,93.8c.53-.42,1.17-.63,1.94-.63s1.41.21,1.93.63.79.94.79,1.55-.26,1.13-.79,1.55-1.17.63-1.93.63-1.41-.21-1.94-.63-.79-.94-.79-1.55.26-1.13.79-1.55Z"/>
    <path d="M229.4,165.91c-1.79,0-3.06-.33-3.82-1s-1.14-1.51-1.14-2.55c0-.78.2-1.65.6-2.62l2.73-6.75c.36-.91.97-1.65,1.81-2.23s1.78-.87,2.8-.87h7.44c.26,0,.5.1.69.29.2.19.3.42.3.68v10.69h3.23v4.37h-14.64ZM229.95,142.74c.53-.42,1.17-.63,1.94-.63s1.41.21,1.94.63.79.94.79,1.55-.26,1.13-.79,1.55-1.17.63-1.94.63-1.41-.21-1.94-.63-.79-.94-.79-1.55.26-1.13.79-1.55ZM236.35,154.25h-4.27l-2.93,7.29h7.2v-7.29ZM236.4,142.74c.53-.42,1.17-.63,1.94-.63s1.41.21,1.94.63.79.94.79,1.55-.26,1.13-.79,1.55-1.17.63-1.94.63-1.41-.21-1.94-.63-.79-.94-.79-1.55.26-1.13.79-1.55Z"/>
    <path d="M242.97,161.95c.28-.28.64-.41,1.07-.41h4.07c-.3-.52-.51-1.08-.65-1.68-.13-.6-.2-1.22-.2-1.87,0-.94.16-1.89.47-2.87.31-.97.81-1.85,1.49-2.62.68-.78,1.55-1.41,2.6-1.89,1.06-.49,2.32-.73,3.77-.73h3.57c1.09,0,2.03.38,2.8,1.14.78.76,1.17,1.68,1.17,2.74v11.17c0,.26-.1.49-.3.68-.2.19-.43.29-.69.29h-18.11c-.43,0-.79-.14-1.07-.41s-.42-.62-.42-1.04v-1.46c0-.42.14-.77.42-1.04h0ZM250.04,142.74c.53-.42,1.17-.63,1.94-.63s1.41.21,1.94.63.79.94.79,1.55-.26,1.13-.79,1.55-1.17.63-1.94.63-1.41-.21-1.94-.63-.79-.94-.79-1.55.26-1.13.79-1.55ZM252.77,155.29c-.69.7-1.04,1.56-1.04,2.6,0,.94.33,1.78.99,2.53.66.74,1.52,1.12,2.58,1.12h3.37v-7.29h-3.37c-.99,0-1.84.35-2.53,1.04h0ZM256.5,142.74c.53-.42,1.17-.63,1.94-.63s1.41.21,1.94.63.79.94.79,1.55-.26,1.13-.79,1.55-1.17.63-1.94.63-1.41-.21-1.94-.63-.79-.94-.79-1.55.26-1.13.79-1.55Z"/>
    <path d="M269.89,150.17c.2-.2.43-.29.69-.29h2.48c.26,0,.5.1.69.29.2.19.3.42.3.68v15.06c0,1.46-.17,2.7-.52,3.71-.35,1.02-.83,1.86-1.46,2.53-.63.66-1.37,1.15-2.23,1.46-.86.31-1.8.46-2.83.46-1.16,0-2.37-.17-3.65-.51-1.27-.34-2.59-.83-3.94-1.48l1.44-3.45c.76.36,1.63.68,2.6.97.98.29,1.93.44,2.85.44.46,0,.89-.06,1.29-.19s.74-.35,1.04-.66c.3-.31.53-.73.69-1.26.17-.54.25-1.21.25-2.02v-15.06c0-.26.1-.49.3-.68h0Z"/>
    <path d="M284.68,139.49c.2.19.3.42.3.68v21.37h3.23v4.37h-6.7c-.26,0-.5-.1-.69-.29-.2-.2-.3-.42-.3-.68v-24.77c0-.26.1-.49.3-.68.2-.19.43-.29.69-.29h2.48c.26,0,.5.1.69.29Z"/>
    <path d="M287.14,161.95c.28-.28.64-.41,1.07-.41h12.5c-.33-.78-.67-1.68-1.02-2.7-.35-1.02-.76-1.99-1.24-2.91-.48-.92-1.03-1.7-1.66-2.33s-1.41-.95-2.33-.95c-.56,0-1.11.11-1.64.34s-1.08.52-1.64.88l-1.49-3.01c.89-.71,1.86-1.29,2.9-1.75s2.08-.68,3.1-.68,1.85.21,2.58.63c.73.42,1.36.98,1.91,1.68.55.7,1.03,1.5,1.46,2.4.43.91.85,1.85,1.27,2.82s.84,1.94,1.29,2.91.97,1.86,1.56,2.67h2.28v4.37h-19.85c-.43,0-.79-.14-1.07-.41s-.42-.62-.42-1.04v-1.46c0-.42.14-.77.42-1.04h.02ZM293.96,142.25c.53-.42,1.17-.63,1.94-.63s1.41.21,1.94.63.79.94.79,1.55-.26,1.13-.79,1.55-1.17.63-1.94.63-1.41-.21-1.94-.63-.79-.94-.79-1.55.26-1.13.79-1.55Z"/>
    <path d="M324.18,165.91c-1.79,0-3.06-.33-3.82-1s-1.14-1.51-1.14-2.55c0-.78.2-1.65.6-2.62l2.73-6.75c.36-.91.97-1.65,1.81-2.23s1.78-.87,2.8-.87h7.44c.26,0,.5.1.69.29.2.19.3.42.3.68v10.69h3.23v4.37h-14.64,0ZM324.73,142.74c.53-.42,1.17-.63,1.94-.63s1.41.21,1.94.63.79.94.79,1.55-.26,1.13-.79,1.55-1.17.63-1.94.63-1.41-.21-1.94-.63-.79-.94-.79-1.55.26-1.13.79-1.55ZM331.13,154.25h-4.27l-2.93,7.29h7.2v-7.29h0ZM331.18,142.74c.53-.42,1.17-.63,1.94-.63s1.41.21,1.94.63.79.94.79,1.55-.26,1.13-.79,1.55-1.17.63-1.94.63-1.41-.21-1.94-.63-.79-.94-.79-1.55.26-1.13.79-1.55Z"/>
    <path d="M337.78,161.93c.3-.26.65-.39,1.04-.39h4.81c-.76-.75-1.31-1.55-1.66-2.43-.35-.87-.52-1.75-.52-2.62,0-1.07.22-2.03.65-2.87s1.01-1.55,1.74-2.14c.73-.58,1.58-1.03,2.56-1.34s2.03-.46,3.15-.46c1.06,0,2.15.14,3.27.41,1.12.28,2.27.69,3.42,1.24l-1.69,3.79c-.66-.26-1.39-.5-2.18-.73s-1.6-.34-2.43-.34c-.4,0-.84.06-1.31.17s-.93.29-1.34.54c-.41.24-.76.57-1.04.97s-.42.91-.42,1.53c0,.45.1.92.3,1.41.2.48.5.95.89,1.38s.88.79,1.46,1.07,1.23.41,1.96.41h6.65l-.89,4.37h-17.37c-.43,0-.79-.14-1.07-.41s-.42-.62-.42-1.04v-1.46c0-.45.15-.81.45-1.07h0Z"/>
    <path d="M356.76,169.62c.98.31,1.91.46,2.8.46s1.71-.29,2.36-.87.97-1.68.97-3.3v-15.06c0-.26.1-.49.3-.68.2-.2.43-.29.69-.29h2.48c.26,0,.5.1.69.29.2.19.3.42.3.68v10.69h3.23v4.37h-3.23c0,1.46-.17,2.7-.52,3.74-.35,1.04-.83,1.88-1.46,2.55-.63.66-1.37,1.15-2.23,1.46-.86.31-1.8.46-2.83.46-1.16,0-2.37-.18-3.65-.53-1.27-.36-2.59-.86-3.94-1.51l1.44-3.45c.76.36,1.63.69,2.6,1h0Z"/>
    <path d="M369.51,165.49c-.28-.28-.42-.62-.42-1.04v-1.46c0-.42.14-.77.42-1.04s.64-.41,1.07-.41h5.21v-10.69c0-.26.1-.49.3-.68.2-.2.43-.29.69-.29h2.48c.26,0,.5.1.69.29.2.19.3.42.3.68v10.69h5.46v-10.69c0-.26.1-.49.3-.68.2-.2.43-.29.69-.29h2.48c.26,0,.5.1.69.29.2.19.3.42.3.68v10.69h5.46v-10.69c0-.26.1-.49.3-.68.2-.2.43-.29.7-.29h2.48c.26,0,.5.1.7.29.2.19.3.42.3.68v10.69h5.21v4.37h-34.74c-.43,0-.79-.14-1.07-.41h0Z"/>
    <path d="M404.25,161.95c.28-.28.64-.41,1.07-.41h5.21v-10.69c0-.26.1-.49.3-.68.2-.2.43-.29.7-.29h2.48c.26,0,.5.1.7.29.2.19.3.42.3.68v11.17c0,1.07-.39,1.98-1.17,2.74-.78.76-1.71,1.14-2.8,1.14h-5.71c-.43,0-.79-.14-1.07-.41s-.42-.62-.42-1.04v-1.46c0-.42.14-.77.42-1.04h-.01ZM408.39,169.45c.53-.42,1.17-.63,1.93-.63s1.41.21,1.94.63.79.94.79,1.55-.26,1.13-.79,1.55-1.17.63-1.94.63-1.41-.21-1.93-.63c-.53-.42-.79-.94-.79-1.55s.26-1.13.79-1.55Z"/>
    <path d="M432.36,165.91c-1.79,0-3.06-.33-3.82-1s-1.14-1.51-1.14-2.55c0-.78.2-1.65.6-2.62l2.73-6.75c.36-.91.97-1.65,1.81-2.23s1.78-.87,2.8-.87h7.44c.26,0,.5.1.69.29.2.19.3.42.3.68v10.69h3.23v4.37h-14.64,0ZM432.91,142.74c.53-.42,1.17-.63,1.94-.63s1.41.21,1.94.63.79.94.79,1.55-.26,1.13-.79,1.55-1.17.63-1.94.63-1.41-.21-1.94-.63-.79-.94-.79-1.55.26-1.13.79-1.55ZM439.31,154.25h-4.27l-2.93,7.29h7.2v-7.29h0ZM439.36,142.74c.53-.42,1.17-.63,1.94-.63s1.41.21,1.93.63c.53.42.79.94.79,1.55s-.26,1.13-.79,1.55-1.17.63-1.93.63-1.41-.21-1.94-.63-.79-.94-.79-1.55.26-1.13.79-1.55Z"/>
    <path d="M450.22,140.17c0-.26.1-.49.3-.68.2-.19.43-.29.7-.29h2.48c.26,0,.5.1.7.29s.3.42.3.68v21.86c0,1.07-.39,1.98-1.17,2.74-.78.76-1.71,1.14-2.8,1.14h-3.72c-.43,0-.79-.14-1.07-.41s-.42-.62-.42-1.04v-1.46c0-.42.14-.77.42-1.04s.64-.41,1.07-.41h3.23v-21.37h-.02Z"/>
    <path d="M464.84,133.73c-.25-.08-.49-.12-.72-.12-.26,0-.49.06-.67.2-.18.13-.27.36-.27.68,0,.26.12.5.35.73s.58.34,1.04.34h1.89v2.19h-6.15v-2.19h1.19c-.46-.39-.69-.89-.69-1.51,0-.74.3-1.33.89-1.75.59-.42,1.29-.63,2.08-.63.46,0,.93.09,1.41.27s.88.4,1.22.66l-.94,1.46c-.17-.13-.37-.24-.62-.32h-.01ZM465.31,139.49c.2.19.3.42.3.68v21.37h3.23v4.37h-6.7c-.26,0-.5-.1-.7-.29-.2-.2-.3-.42-.3-.68v-24.77c0-.26.1-.49.3-.68.2-.19.43-.29.7-.29h2.48c.26,0,.5.1.7.29h-.01Z"/>
    <path d="M467.77,165.49c-.28-.28-.42-.62-.42-1.04v-1.46c0-.42.14-.77.42-1.04s.64-.41,1.07-.41h5.21v-10.69c0-.26.1-.49.3-.68.2-.2.43-.29.69-.29h2.48c.26,0,.5.1.69.29.2.19.3.42.3.68v10.69h5.46v-10.69c0-.26.1-.49.3-.68.2-.2.43-.29.7-.29h2.48c.26,0,.5.1.7.29.2.19.3.42.3.68v10.69h5.46v-10.69c0-.26.1-.49.3-.68.2-.2.43-.29.69-.29h2.48c.26,0,.5.1.69.29.2.19.3.42.3.68v10.69h5.21v4.37h-34.74c-.43,0-.79-.14-1.07-.41h0Z"/>
    <path d="M502.5,165.49c-.28-.28-.42-.62-.42-1.04v-1.46c0-.42.14-.77.42-1.04s.64-.41,1.07-.41h3.23v-4.76c0-.97.22-1.84.67-2.6.45-.76,1.04-1.4,1.79-1.92s1.6-.91,2.58-1.17,1.99-.39,3.05-.39c1.29,0,2.57.2,3.85.61s2.42,1.03,3.45,1.87v8.26c0,1.07-.21,2.01-.62,2.82-.41.81-.96,1.48-1.64,2.02-.68.54-1.46.93-2.36,1.19-.89.26-1.84.39-2.83.39-1.26,0-2.34-.17-3.25-.51-.91-.34-1.89-.82-2.95-1.43h-4.96c-.43,0-.79-.14-1.07-.41v-.02ZM512.95,163.26c.6.15,1.19.22,1.79.22.79,0,1.49-.14,2.08-.44.59-.29.89-.75.89-1.36v-5.97c-.3-.16-.71-.31-1.24-.44s-1.09-.2-1.69-.2c-.86,0-1.66.18-2.41.54s-1.12.99-1.12,1.89v5.05c.53.32,1.09.56,1.69.7h0Z"/>
    <path d="M557.16,151.58c-.7,0-1.36.07-1.99.22-.63.14-1.18.38-1.66.7-.48.32-.86.76-1.14,1.31s-.42,1.23-.42,2.04v2.04h5.46c1.09,0,2.03.38,2.8,1.14s1.17,1.68,1.17,2.74v1.7c0,1.2-.23,2.33-.7,3.4-.46,1.07-1.1,2-1.91,2.79s-1.76,1.42-2.85,1.87c-1.09.45-2.25.68-3.47.68h-8.93c-1.22,0-2.38-.23-3.47-.68-1.09-.45-2.04-1.08-2.85-1.87s-1.45-1.72-1.91-2.79c-.46-1.07-.69-2.2-.69-3.4v-5.1c0-.26.1-.48.3-.68.2-.19.43-.29.69-.29h2.48c.26,0,.5.1.69.29.2.2.3.42.3.68v5.49c0,.55.13,1.07.4,1.55s.6.91,1.02,1.26c.41.36.89.64,1.42.85s1.07.31,1.64.31h8.93c.63,0,1.21-.12,1.76-.36s1.02-.57,1.42-.97c.4-.41.71-.88.94-1.41s.35-1.08.35-1.63v-1.21h-6.45c-.83,0-1.53-.28-2.11-.85-.58-.57-.87-1.26-.87-2.06v-3.55c0-1.52.22-2.83.65-3.93s1.03-2.01,1.79-2.72c.76-.71,1.66-1.24,2.7-1.58s2.18-.51,3.4-.51c.89,0,1.8.08,2.73.24s1.89.4,2.88.73l-1.04,4.08c-1.16-.36-2.3-.53-3.42-.53h-.04ZM542.82,175.7c.53-.38,1.17-.57,1.94-.57s1.41.19,1.93.57.79.85.79,1.4-.26,1.02-.79,1.4-1.17.57-1.93.57-1.41-.19-1.94-.57-.79-.85-.79-1.4.26-1.02.79-1.4ZM549.27,175.7c.53-.38,1.17-.57,1.93-.57s1.41.19,1.94.57.79.85.79,1.4-.26,1.02-.79,1.4-1.17.57-1.94.57-1.41-.19-1.93-.57-.79-.85-.79-1.4.26-1.02.79-1.4Z"/>
    <path d="M571.53,133.73c-.25-.08-.49-.12-.72-.12-.26,0-.49.06-.67.2-.18.13-.27.36-.27.68,0,.26.12.5.35.73s.58.34,1.04.34h1.89v2.19h-6.15v-2.19h1.19c-.46-.39-.69-.89-.69-1.51,0-.74.3-1.33.89-1.75s1.29-.63,2.08-.63c.46,0,.93.09,1.41.27s.88.4,1.22.66l-.94,1.46c-.17-.13-.37-.24-.62-.32h0ZM572,139.49c.2.19.3.42.3.68v24.77c0,.26-.1.49-.3.68-.2.19-.43.29-.7.29h-2.48c-.26,0-.5-.1-.7-.29-.2-.2-.3-.42-.3-.68v-24.77c0-.26.1-.49.3-.68.2-.19.43-.29.7-.29h2.48c.26,0,.5.1.7.29Z"/>
    <path d="M607.28,161.54v4.37h-3.23v3.4c0,1.07-.39,1.98-1.17,2.74-.78.76-1.71,1.14-2.8,1.14h-6.45c-1.22,0-2.38-.23-3.47-.68s-2.04-1.08-2.85-1.87-1.45-1.72-1.91-2.79c-.46-1.07-.69-2.2-.69-3.4v-6.31c0-.26.1-.49.3-.68.2-.2.43-.29.7-.29h2.48c.26,0,.5.1.7.29.2.19.3.42.3.68v6.31c0,1.23.44,2.27,1.31,3.11.88.84,1.93,1.26,3.15,1.26h5.95v-28.66c0-.26.1-.49.3-.68s.43-.29.7-.29h2.48c.26,0,.5.1.7.29.2.19.3.42.3.68v21.37h3.23-.03Z"/>
    <path d="M606.21,161.95c.28-.28.64-.41,1.07-.41h12.5c-.33-.78-.67-1.68-1.02-2.7-.35-1.02-.76-1.99-1.24-2.91s-1.03-1.7-1.66-2.33c-.63-.63-1.41-.95-2.33-.95-.56,0-1.11.11-1.64.34s-1.08.52-1.64.88l-1.49-3.01c.89-.71,1.86-1.29,2.9-1.75s2.08-.68,3.1-.68,1.85.21,2.58.63c.73.42,1.36.98,1.91,1.68s1.03,1.5,1.46,2.4c.43.91.85,1.85,1.27,2.82.41.97.84,1.94,1.29,2.91.45.97.97,1.86,1.56,2.67h2.28v4.37h-19.85c-.43,0-.79-.14-1.07-.41s-.42-.62-.42-1.04v-1.46c0-.42.14-.77.42-1.04h.02Z"/>
  </g>
</svg>