<?xml version="1.0" encoding="UTF-8"?>
<svg id="Layer_1" xmlns="http://www.w3.org/2000/svg" version="1.1" viewBox="0 0 778.28 233.66">
  <!-- Generator: Adobe Illustrator 29.7.1, SVG Export Plug-In . SVG Version: 2.1.1 Build 8)  -->
  <defs>
    <style>
      .st0 {
        fill: #8f8fcc;
      }

      .st1 {
        isolation: isolate;
      }

      .st2 {
        fill: #d38dc1;
      }

      .st3 {
        fill: #91f2b3;
      }

      .st4 {
        display: none;
      }
    </style>
  </defs>
  <g class="st4">
    <path d="M103.16,4.13c-.8.78-1.2,1.88-1.14,2.96l-5.46,94.41-13.76-3.04c-.52-.12-1.04-.11-1.54-.02-.27,0-.54-.05-.81,0-.27,0-.54-.05-.81,0-.27,0-.54-.05-.81,0-.27,0-.54-.05-.81,0-.27,0-.55-.05-.81,0-.27,0-.54-.05-.81,0-.27,0-.54-.05-.81,0-.27,0-.54-.05-.81,0-.27,0-.54-.05-.81,0-.27,0-.54-.05-.81,0-.27,0-.54-.05-.81,0-.27,0-.54-.05-.81,0-.27,0-.54-.05-.81,0-.27,0-.54-.05-.81,0-.27,0-.54-.05-.81,0-.27,0-.55-.05-.81,0-.27,0-.55-.05-.81,0-.27,0-.54-.05-.81,0-.27,0-.55-.05-.81,0-.27,0-.54-.05-.81,0-1.73-.05-3.33.95-3.86,2.62l-7.73,24.2-17.4-9.34c-.69-.37-1.46-.44-2.23-.37-.27-.03-.53-.02-.81,0-.27-.03-.53-.02-.81,0-.27-.03-.53-.02-.81,0-.27-.03-.53-.02-.81,0-.27-.03-.53-.02-.81,0-.27-.03-.53-.02-.81,0-.27-.03-.53-.02-.81,0-.27-.03-.53-.02-.81,0-.27-.03-.53-.02-.81,0-.27-.03-.53-.02-.81,0-.28-.03-.53-.02-.81,0-.28-.03-.53-.02-.81,0-.27-.03-.53-.02-.81,0-.28-.03-.53-.02-.81,0-.27-.03-.53-.02-.81,0-.27-.03-.53-.02-.81,0-.28-.03-.53-.02-.81,0-.27-.03-.53-.02-.81,0-.27-.03-.53-.02-.81,0-.27-.03-.53-.02-.81,0-.73-.09-1.47-.04-2.16.29-1.14.54-1.94,1.58-2.15,2.8l-7.6,43.55-59.56,1.08c-1.85.03-3.42,1.33-3.77,3.11-.05.24-.07.48-.07.71,0,1.52.93,2.93,2.41,3.53l83.73,34.15c.63.26,1.29.29,1.95.21.27.03.53.03.81,0,.27.03.53.03.81,0,.27.03.53.03.81,0,.27.03.53.03.81,0,.27.03.53.03.81,0,.27.03.53.03.81,0,.27.03.53.03.81,0,.27.03.53.03.81,0,.27.03.53.03.81,0,.27.03.53.03.81,0,.28.03.53.03.81,0,.27.03.53.03.81,0,.27.03.53.03.81,0,.27.03.53.03.81,0,.27.03.53.03.81,0,.27.03.53.03.81,0,.27.03.53.03.81,0,.27.03.53.03.81,0,.27.03.53.03.81,0,.27.03.53.03.81,0,.69.06,1.39,0,2.03-.29,1-.46,1.75-1.32,2.07-2.36l5.09-16.61,5.33,4.7c.91.8,2.16,1.14,3.36.91.02,0,.04-.02.06-.03.25,0,.49.08.74.03.02,0,.04-.02.06-.03.25,0,.49.08.74.03.02,0,.04-.02.06-.03.25,0,.49.08.74.03.02,0,.04-.02.06-.03.25,0,.49.08.74.03.02,0,.04-.02.06-.03.25,0,.49.08.74.03.02,0,.04-.02.06-.03.25,0,.49.08.74.03.02,0,.04-.02.06-.03.25,0,.49.08.74.03.02,0,.04-.02.06-.03.25,0,.49.08.74.03.02,0,.04-.02.06-.03.25,0,.49.08.74.03.02,0,.04-.02.06-.03.25,0,.49.08.74.03.02,0,.04-.02.06-.03.25,0,.49.08.74.03.02,0,.04-.02.06-.03.25,0,.49.08.74.03.02,0,.04-.02.06-.03.25,0,.49.08.74.03.02,0,.04-.02.06-.03.25,0,.49.08.74.03.02,0,.04-.02.06-.03.25,0,.49.08.74.03.02,0,.04-.02.06-.03.25,0,.49.08.74.03.02,0,.04-.02.06-.03.25,0,.49.08.74.03.02,0,.04-.02.06-.03.25,0,.49.08.74.03.02,0,.04-.02.06-.03.25,0,.49.08.74.03.02,0,.04-.02.06-.03.25,0,.49.08.74.03.02,0,.04-.02.06-.03.25,0,.49.08.74.03,1.21-.23,2.23-1,2.77-2.09l14.22-28.64,3.55,2.01,8.88,65.31c.14,1.06.72,2.01,1.6,2.63.88.62,1.99.85,3.05.64h.02c.26,0,.52.05.79,0h.02c.26,0,.52.05.79,0h.02c.26,0,.52.05.79,0h.02c.26,0,.52.05.79,0h.02c.26,0,.52.05.79,0h.02c.26,0,.52.05.79,0h.02c.26,0,.53.05.79,0h.02c.26,0,.52.05.79,0h.02c.26,0,.52.05.79,0h.02c.26,0,.52.05.79,0h.02c.26,0,.52.05.79,0h.02c.26,0,.52.05.79,0h.02c.26,0,.52.05.79,0h.02c.26,0,.52.05.79,0h.02c.26,0,.52.05.79,0h.02c.26,0,.52.05.79,0h.02c.26,0,.52.05.79,0h.02c.26,0,.52.05.79,0h.02c.26,0,.53.05.79,0h.02c.26,0,.52.05.79,0h.02c.26,0,.53.05.79,0l615.62-39.84c1.74-.34,3.02-1.79,3.12-3.53l25.77-163.67c.09-2.02-1.5-3.89-3.64-4.04L123.13,3.02c-.09,0-.17.04-.26.04l-.55-.04c-.09,0-.17.04-.26.04l-.55-.04c-.09,0-.17.04-.26.04l-.55-.04c-.09,0-.17.04-.26.04l-.55-.04c-.09,0-.17.04-.26.04l-.55-.04c-.09,0-.17.04-.26.04l-.55-.04c-.09,0-.17.04-.26.04l-.55-.04c-.09,0-.17.04-.26.04l-.55-.04c-.09,0-.17.04-.26.04l-.55-.04c-.09,0-.17.04-.26.04l-.55-.04c-.09,0-.17.04-.26.04l-.55-.04c-.09,0-.17.04-.26.04l-.55-.04c-.09,0-.17.04-.26.04l-.55-.04c-.09,0-.17.04-.26.04l-.55-.04c-.09,0-.17.04-.26.04l-.55-.04c-.09,0-.17.04-.26.04l-.55-.04c-.09,0-.17.04-.26.04l-.55-.04c-.09,0-.17.04-.26.04l-.55-.04c-.09,0-.17.04-.26.04l-.55-.04c-.09,0-.17.04-.26.04l-.55-.04c-.09,0-.17.04-.26.04l-.55-.04c-1.13-.08-2.23.33-3.03,1.11h.07Z"/>
    <path class="st3" d="M121.89,109.91c.08,1.2-.43,2.37-1.36,3.16-.94.78-2.2,1.09-3.4.82l-32.53-7.19-10.56,33.06c-.35,1.1-1.18,1.98-2.27,2.41-1.09.43-2.31.36-3.34-.19l-31.24-16.77-7.22,41.37c-.31,1.81-1.9,3.15-3.78,3.18l-44.15.8,62.51,25.49,9.22-30.08c.39-1.26,1.4-2.23,2.69-2.59,1.29-.36,2.67-.04,3.67.84l19.4,17.08,17.5-35.26c.47-.96,1.33-1.68,2.37-1.99,1.04-.31,2.16-.19,3.1.35l22.09,12.52c1.05.6,1.76,1.64,1.92,2.83l8.59,63.1,608.54-38.43,25.37-156.95L127.05,10.96s-5.16,98.95-5.16,98.95Z"/>
    <path d="M118.96,7.09l-5.21,98.21-30.95-6.84c-1.99-.44-3.99.69-4.59,2.59l-10.21,31.96-31.87-17.11c-1.11-.59-2.44-.63-3.58-.09-1.14.54-1.94,1.58-2.15,2.8l-7.6,43.55-59.56,1.08c-1.85.03-3.42,1.33-3.77,3.11-.05.24-.07.48-.07.71,0,1.52.93,2.93,2.41,3.53l83.73,34.15c1.02.42,2.18.39,3.18-.07s1.75-1.32,2.07-2.36l8.69-28.36,18.67,16.45c.91.8,2.16,1.14,3.36.91,1.21-.23,2.23-1,2.77-2.09l17.94-36.14,16.78,9.51,8.88,65.31c.14,1.06.72,2.01,1.6,2.63.88.62,1.99.85,3.05.64l615.62-39.84c1.74-.34,3.02-1.79,3.12-3.53l25.77-163.67c.09-2.02-1.5-3.89-3.64-4.04L123.13,3.02c-1.13-.08-2.23.33-3.03,1.11-.8.78-1.2,1.88-1.14,2.96ZM743.65,184.43l-608.54,38.43-8.59-63.1c-.16-1.18-.87-2.23-1.92-2.83l-22.09-12.52c-.94-.53-2.07-.66-3.1-.35-1.04.31-1.9,1.03-2.37,1.99l-17.5,35.26-19.4-17.08c-1-.88-2.38-1.2-3.67-.84-1.29.36-2.31,1.33-2.69,2.59l-9.22,30.08-62.51-25.49,44.15-.8c1.88-.03,3.47-1.37,3.78-3.18l7.22-41.37,31.24,16.77c1.03.55,2.25.62,3.34.19s1.92-1.31,2.27-2.41l10.56-33.06,32.53,7.19c1.2.27,2.46-.04,3.4-.82s1.44-1.96,1.36-3.16l5.16-98.95,641.97,16.52-25.37,156.95h-.01Z"/>
  </g>
  <g class="st4">
    <g>
      <path d="M103.16,4.13c-.8.78-1.2,1.88-1.14,2.96l-5.46,94.41-13.76-3.04c-.52-.12-1.04-.11-1.54-.02-.27,0-.54-.05-.81,0-.27,0-.54-.05-.81,0-.27,0-.54-.05-.81,0-.27,0-.54-.05-.81,0-.27,0-.55-.05-.81,0-.27,0-.54-.05-.81,0-.27,0-.54-.05-.81,0-.27,0-.54-.05-.81,0-.27,0-.54-.05-.81,0-.27,0-.54-.05-.81,0-.27,0-.54-.05-.81,0-.27,0-.54-.05-.81,0-.27,0-.54-.05-.81,0-.27,0-.54-.05-.81,0-.27,0-.54-.05-.81,0-.27,0-.55-.05-.81,0-.27,0-.55-.05-.81,0-.27,0-.54-.05-.81,0-.27,0-.55-.05-.81,0-.27,0-.54-.05-.81,0-1.73-.05-3.33.95-3.86,2.62l-7.73,24.2-17.4-9.34c-.69-.37-1.46-.44-2.23-.37-.27-.03-.53-.02-.81,0-.27-.03-.53-.02-.81,0-.27-.03-.53-.02-.81,0-.27-.03-.53-.02-.81,0-.27-.03-.53-.02-.81,0-.27-.03-.53-.02-.81,0-.27-.03-.53-.02-.81,0-.27-.03-.53-.02-.81,0-.27-.03-.53-.02-.81,0-.27-.03-.53-.02-.81,0-.28-.03-.53-.02-.81,0-.28-.03-.53-.02-.81,0-.27-.03-.53-.02-.81,0-.28-.03-.53-.02-.81,0-.27-.03-.53-.02-.81,0-.27-.03-.53-.02-.81,0-.28-.03-.53-.02-.81,0-.27-.03-.53-.02-.81,0-.27-.03-.53-.02-.81,0-.27-.03-.53-.02-.81,0-.73-.09-1.47-.04-2.16.29-1.14.54-1.94,1.58-2.15,2.8l-7.6,43.55-59.56,1.08c-1.85.03-3.42,1.33-3.77,3.11-.05.24-.07.48-.07.71,0,1.52.93,2.93,2.41,3.53l83.73,34.15c.63.26,1.29.29,1.95.21.27.03.53.03.81,0,.27.03.53.03.81,0,.27.03.53.03.81,0,.27.03.53.03.81,0,.27.03.53.03.81,0,.27.03.53.03.81,0,.27.03.53.03.81,0,.27.03.53.03.81,0,.27.03.53.03.81,0,.27.03.53.03.81,0,.28.03.53.03.81,0,.27.03.53.03.81,0,.27.03.53.03.81,0,.27.03.53.03.81,0,.27.03.53.03.81,0,.27.03.53.03.81,0,.27.03.53.03.81,0,.27.03.53.03.81,0,.27.03.53.03.81,0,.27.03.53.03.81,0,.69.06,1.39,0,2.03-.29,1-.46,1.75-1.32,2.07-2.36l5.09-16.61,5.33,4.7c.91.8,2.16,1.14,3.36.91.02,0,.04-.02.06-.03.25,0,.49.08.74.03.02,0,.04-.02.06-.03.25,0,.49.08.74.03.02,0,.04-.02.06-.03.25,0,.49.08.74.03.02,0,.04-.02.06-.03.25,0,.49.08.74.03.02,0,.04-.02.06-.03.25,0,.49.08.74.03.02,0,.04-.02.06-.03.25,0,.49.08.74.03.02,0,.04-.02.06-.03.25,0,.49.08.74.03.02,0,.04-.02.06-.03.25,0,.49.08.74.03.02,0,.04-.02.06-.03.25,0,.49.08.74.03.02,0,.04-.02.06-.03.25,0,.49.08.74.03.02,0,.04-.02.06-.03.25,0,.49.08.74.03.02,0,.04-.02.06-.03.25,0,.49.08.74.03.02,0,.04-.02.06-.03.25,0,.49.08.74.03.02,0,.04-.02.06-.03.25,0,.49.08.74.03.02,0,.04-.02.06-.03.25,0,.49.08.74.03.02,0,.04-.02.06-.03.25,0,.49.08.74.03.02,0,.04-.02.06-.03.25,0,.49.08.74.03.02,0,.04-.02.06-.03.25,0,.49.08.74.03.02,0,.04-.02.06-.03.25,0,.49.08.74.03.02,0,.04-.02.06-.03.25,0,.49.08.74.03.02,0,.04-.02.06-.03.25,0,.49.08.74.03,1.21-.23,2.23-1,2.77-2.09l14.22-28.64,3.55,2.01,8.88,65.31c.14,1.06.72,2.01,1.6,2.63.88.62,1.99.85,3.05.64h.02c.26,0,.52.05.79,0h.02c.26,0,.52.05.79,0h.02c.26,0,.52.05.79,0h.02c.26,0,.52.05.79,0h.02c.26,0,.52.05.79,0h.02c.26,0,.52.05.79,0h.02c.26,0,.53.05.79,0h.02c.26,0,.52.05.79,0h.02c.26,0,.52.05.79,0h.02c.26,0,.52.05.79,0h.02c.26,0,.52.05.79,0h.02c.26,0,.52.05.79,0h.02c.26,0,.52.05.79,0h.02c.26,0,.52.05.79,0h.02c.26,0,.52.05.79,0h.02c.26,0,.52.05.79,0h.02c.26,0,.52.05.79,0h.02c.26,0,.52.05.79,0h.02c.26,0,.53.05.79,0h.02c.26,0,.52.05.79,0h.02c.26,0,.53.05.79,0l615.62-39.84c1.74-.34,3.02-1.79,3.12-3.53l25.77-163.67c.09-2.02-1.5-3.89-3.64-4.04L123.13,3.02c-.09,0-.17.04-.26.04l-.55-.04c-.09,0-.17.04-.26.04l-.55-.04c-.09,0-.17.04-.26.04l-.55-.04c-.09,0-.17.04-.26.04l-.55-.04c-.09,0-.17.04-.26.04l-.55-.04c-.09,0-.17.04-.26.04l-.55-.04c-.09,0-.17.04-.26.04l-.55-.04c-.09,0-.17.04-.26.04l-.55-.04c-.09,0-.17.04-.26.04l-.55-.04c-.09,0-.17.04-.26.04l-.55-.04c-.09,0-.17.04-.26.04l-.55-.04c-.09,0-.17.04-.26.04l-.55-.04c-.09,0-.17.04-.26.04l-.55-.04c-.09,0-.17.04-.26.04l-.55-.04c-.09,0-.17.04-.26.04l-.55-.04c-.09,0-.17.04-.26.04l-.55-.04c-.09,0-.17.04-.26.04l-.55-.04c-.09,0-.17.04-.26.04l-.55-.04c-.09,0-.17.04-.26.04l-.55-.04c-.09,0-.17.04-.26.04l-.55-.04c-.09,0-.17.04-.26.04l-.55-.04c-1.13-.08-2.23.33-3.03,1.11h.07Z"/>
      <path class="st2" d="M121.89,109.91c.08,1.2-.43,2.37-1.36,3.16-.94.78-2.2,1.09-3.4.82l-32.53-7.19-10.56,33.06c-.35,1.1-1.18,1.98-2.27,2.41-1.09.43-2.31.36-3.34-.19l-31.24-16.77-7.22,41.37c-.31,1.81-1.9,3.15-3.78,3.18l-44.15.8,62.51,25.49,9.22-30.08c.39-1.26,1.4-2.23,2.69-2.59,1.29-.36,2.67-.04,3.67.84l19.4,17.08,17.5-35.26c.47-.96,1.33-1.68,2.37-1.99,1.04-.31,2.16-.19,3.1.35l22.09,12.52c1.05.6,1.76,1.64,1.92,2.83l8.59,63.1,608.54-38.43,25.37-156.95L127.05,10.96s-5.16,98.95-5.16,98.95Z"/>
      <path d="M118.96,7.09l-5.21,98.21-30.95-6.84c-1.99-.44-3.99.69-4.59,2.59l-10.21,31.96-31.87-17.11c-1.11-.59-2.44-.63-3.58-.09-1.14.54-1.94,1.58-2.15,2.8l-7.6,43.55-59.56,1.08c-1.85.03-3.42,1.33-3.77,3.11-.05.24-.07.48-.07.71,0,1.52.93,2.93,2.41,3.53l83.73,34.15c1.02.42,2.18.39,3.18-.07s1.75-1.32,2.07-2.36l8.69-28.36,18.67,16.45c.91.8,2.16,1.14,3.36.91,1.21-.23,2.23-1,2.77-2.09l17.94-36.14,16.78,9.51,8.88,65.31c.14,1.06.72,2.01,1.6,2.63.88.62,1.99.85,3.05.64l615.62-39.84c1.74-.34,3.02-1.79,3.12-3.53l25.77-163.67c.09-2.02-1.5-3.89-3.64-4.04L123.13,3.02c-1.13-.08-2.23.33-3.03,1.11-.8.78-1.2,1.88-1.14,2.96ZM743.65,184.43l-608.54,38.43-8.59-63.1c-.16-1.18-.87-2.23-1.92-2.83l-22.09-12.52c-.94-.53-2.07-.66-3.1-.35-1.04.31-1.9,1.03-2.37,1.99l-17.5,35.26-19.4-17.08c-1-.88-2.38-1.2-3.67-.84-1.29.36-2.31,1.33-2.69,2.59l-9.22,30.08-62.51-25.49,44.15-.8c1.88-.03,3.47-1.37,3.78-3.18l7.22-41.37,31.24,16.77c1.03.55,2.25.62,3.34.19s1.92-1.31,2.27-2.41l10.56-33.06,32.53,7.19c1.2.27,2.46-.04,3.4-.82s1.44-1.96,1.36-3.16l5.16-98.95,641.97,16.52-25.37,156.95h-.01Z"/>
    </g>
  </g>
  <g class="st4">
    <path d="M103.16,4.13c-.8.78-1.2,1.88-1.14,2.96l-5.46,94.41-13.76-3.04c-.52-.12-1.04-.11-1.54-.02-.27,0-.54-.05-.81,0-.27,0-.54-.05-.81,0-.27,0-.54-.05-.81,0-.27,0-.54-.05-.81,0-.27,0-.55-.05-.81,0-.27,0-.54-.05-.81,0-.27,0-.54-.05-.81,0-.27,0-.54-.05-.81,0-.27,0-.54-.05-.81,0-.27,0-.54-.05-.81,0-.27,0-.54-.05-.81,0-.27,0-.54-.05-.81,0-.27,0-.54-.05-.81,0-.27,0-.54-.05-.81,0-.27,0-.54-.05-.81,0-.27,0-.55-.05-.81,0-.27,0-.55-.05-.81,0-.27,0-.54-.05-.81,0-.27,0-.55-.05-.81,0-.27,0-.54-.05-.81,0-1.73-.05-3.33.95-3.86,2.62l-7.73,24.2-17.4-9.34c-.69-.37-1.46-.44-2.23-.37-.27-.03-.53-.02-.81,0-.27-.03-.53-.02-.81,0-.27-.03-.53-.02-.81,0-.27-.03-.53-.02-.81,0-.27-.03-.53-.02-.81,0-.27-.03-.53-.02-.81,0-.27-.03-.53-.02-.81,0-.27-.03-.53-.02-.81,0-.27-.03-.53-.02-.81,0-.27-.03-.53-.02-.81,0-.28-.03-.53-.02-.81,0-.28-.03-.53-.02-.81,0-.27-.03-.53-.02-.81,0-.28-.03-.53-.02-.81,0-.27-.03-.53-.02-.81,0-.27-.03-.53-.02-.81,0-.28-.03-.53-.02-.81,0-.27-.03-.53-.02-.81,0-.27-.03-.53-.02-.81,0-.27-.03-.53-.02-.81,0-.73-.09-1.47-.04-2.16.29-1.14.54-1.94,1.58-2.15,2.8l-7.6,43.55-59.56,1.08c-1.85.03-3.42,1.33-3.77,3.11-.05.24-.07.48-.07.71,0,1.52.93,2.93,2.41,3.53l83.73,34.15c.63.26,1.29.29,1.95.21.27.03.53.03.81,0,.27.03.53.03.81,0,.27.03.53.03.81,0,.27.03.53.03.81,0,.27.03.53.03.81,0,.27.03.53.03.81,0,.27.03.53.03.81,0,.27.03.53.03.81,0,.27.03.53.03.81,0,.27.03.53.03.81,0,.28.03.53.03.81,0,.27.03.53.03.81,0,.27.03.53.03.81,0,.27.03.53.03.81,0,.27.03.53.03.81,0,.27.03.53.03.81,0,.27.03.53.03.81,0,.27.03.53.03.81,0,.27.03.53.03.81,0,.27.03.53.03.81,0,.69.06,1.39,0,2.03-.29,1-.46,1.75-1.32,2.07-2.36l5.09-16.61,5.33,4.7c.91.8,2.16,1.14,3.36.91.02,0,.04-.02.06-.03.25,0,.49.08.74.03.02,0,.04-.02.06-.03.25,0,.49.08.74.03.02,0,.04-.02.06-.03.25,0,.49.08.74.03.02,0,.04-.02.06-.03.25,0,.49.08.74.03.02,0,.04-.02.06-.03.25,0,.49.08.74.03.02,0,.04-.02.06-.03.25,0,.49.08.74.03.02,0,.04-.02.06-.03.25,0,.49.08.74.03.02,0,.04-.02.06-.03.25,0,.49.08.74.03.02,0,.04-.02.06-.03.25,0,.49.08.74.03.02,0,.04-.02.06-.03.25,0,.49.08.74.03.02,0,.04-.02.06-.03.25,0,.49.08.74.03.02,0,.04-.02.06-.03.25,0,.49.08.74.03.02,0,.04-.02.06-.03.25,0,.49.08.74.03.02,0,.04-.02.06-.03.25,0,.49.08.74.03.02,0,.04-.02.06-.03.25,0,.49.08.74.03.02,0,.04-.02.06-.03.25,0,.49.08.74.03.02,0,.04-.02.06-.03.25,0,.49.08.74.03.02,0,.04-.02.06-.03.25,0,.49.08.74.03.02,0,.04-.02.06-.03.25,0,.49.08.74.03.02,0,.04-.02.06-.03.25,0,.49.08.74.03.02,0,.04-.02.06-.03.25,0,.49.08.74.03,1.21-.23,2.23-1,2.77-2.09l14.22-28.64,3.55,2.01,8.88,65.31c.14,1.06.72,2.01,1.6,2.63.88.62,1.99.85,3.05.64h.02c.26,0,.52.05.79,0h.02c.26,0,.52.05.79,0h.02c.26,0,.52.05.79,0h.02c.26,0,.52.05.79,0h.02c.26,0,.52.05.79,0h.02c.26,0,.52.05.79,0h.02c.26,0,.53.05.79,0h.02c.26,0,.52.05.79,0h.02c.26,0,.52.05.79,0h.02c.26,0,.52.05.79,0h.02c.26,0,.52.05.79,0h.02c.26,0,.52.05.79,0h.02c.26,0,.52.05.79,0h.02c.26,0,.52.05.79,0h.02c.26,0,.52.05.79,0h.02c.26,0,.52.05.79,0h.02c.26,0,.52.05.79,0h.02c.26,0,.52.05.79,0h.02c.26,0,.53.05.79,0h.02c.26,0,.52.05.79,0h.02c.26,0,.53.05.79,0l615.62-39.84c1.74-.34,3.02-1.79,3.12-3.53l25.77-163.67c.09-2.02-1.5-3.89-3.64-4.04L123.13,3.02c-.09,0-.17.04-.26.04l-.55-.04c-.09,0-.17.04-.26.04l-.55-.04c-.09,0-.17.04-.26.04l-.55-.04c-.09,0-.17.04-.26.04l-.55-.04c-.09,0-.17.04-.26.04l-.55-.04c-.09,0-.17.04-.26.04l-.55-.04c-.09,0-.17.04-.26.04l-.55-.04c-.09,0-.17.04-.26.04l-.55-.04c-.09,0-.17.04-.26.04l-.55-.04c-.09,0-.17.04-.26.04l-.55-.04c-.09,0-.17.04-.26.04l-.55-.04c-.09,0-.17.04-.26.04l-.55-.04c-.09,0-.17.04-.26.04l-.55-.04c-.09,0-.17.04-.26.04l-.55-.04c-.09,0-.17.04-.26.04l-.55-.04c-.09,0-.17.04-.26.04l-.55-.04c-.09,0-.17.04-.26.04l-.55-.04c-.09,0-.17.04-.26.04l-.55-.04c-.09,0-.17.04-.26.04l-.55-.04c-.09,0-.17.04-.26.04l-.55-.04c-.09,0-.17.04-.26.04l-.55-.04c-1.13-.08-2.23.33-3.03,1.11h.07Z"/>
    <path class="st0" d="M121.89,109.91c.08,1.2-.43,2.37-1.36,3.16-.94.78-2.2,1.09-3.4.82l-32.53-7.19-10.56,33.06c-.35,1.1-1.18,1.98-2.27,2.41-1.09.43-2.31.36-3.34-.19l-31.24-16.77-7.22,41.37c-.31,1.81-1.9,3.15-3.78,3.18l-44.15.8,62.51,25.49,9.22-30.08c.39-1.26,1.4-2.23,2.69-2.59,1.29-.36,2.67-.04,3.67.84l19.4,17.08,17.5-35.26c.47-.96,1.33-1.68,2.37-1.99,1.04-.31,2.16-.19,3.1.35l22.09,12.52c1.05.6,1.76,1.64,1.92,2.83l8.59,63.1,608.54-38.43,25.37-156.95L127.05,10.96s-5.16,98.95-5.16,98.95Z"/>
    <path d="M118.96,7.09l-5.21,98.21-30.95-6.84c-1.99-.44-3.99.69-4.59,2.59l-10.21,31.96-31.87-17.11c-1.11-.59-2.44-.63-3.58-.09-1.14.54-1.94,1.58-2.15,2.8l-7.6,43.55-59.56,1.08c-1.85.03-3.42,1.33-3.77,3.11-.05.24-.07.48-.07.71,0,1.52.93,2.93,2.41,3.53l83.73,34.15c1.02.42,2.18.39,3.18-.07s1.75-1.32,2.07-2.36l8.69-28.36,18.67,16.45c.91.8,2.16,1.14,3.36.91,1.21-.23,2.23-1,2.77-2.09l17.94-36.14,16.78,9.51,8.88,65.31c.14,1.06.72,2.01,1.6,2.63.88.62,1.99.85,3.05.64l615.62-39.84c1.74-.34,3.02-1.79,3.12-3.53l25.77-163.67c.09-2.02-1.5-3.89-3.64-4.04L123.13,3.02c-1.13-.08-2.23.33-3.03,1.11-.8.78-1.2,1.88-1.14,2.96ZM743.65,184.43l-608.54,38.43-8.59-63.1c-.16-1.18-.87-2.23-1.92-2.83l-22.09-12.52c-.94-.53-2.07-.66-3.1-.35-1.04.31-1.9,1.03-2.37,1.99l-17.5,35.26-19.4-17.08c-1-.88-2.38-1.2-3.67-.84-1.29.36-2.31,1.33-2.69,2.59l-9.22,30.08-62.51-25.49,44.15-.8c1.88-.03,3.47-1.37,3.78-3.18l7.22-41.37,31.24,16.77c1.03.55,2.25.62,3.34.19s1.92-1.31,2.27-2.41l10.56-33.06,32.53,7.19c1.2.27,2.46-.04,3.4-.82s1.44-1.96,1.36-3.16l5.16-98.95,641.97,16.52-25.37,156.95h-.01Z"/>
  </g>
  <g>
    <g>
      <path d="M103.01,4.46c-.8.78-1.2,1.88-1.14,2.96l-5.46,94.41-13.76-3.04c-.52-.12-1.04-.11-1.54-.02-.27,0-.54-.05-.81,0-.27,0-.54-.05-.81,0-.27,0-.54-.05-.81,0-.27,0-.54-.05-.81,0-.27,0-.55-.05-.81,0-.27,0-.54-.05-.81,0-.27,0-.54-.05-.81,0-.27,0-.54-.05-.81,0-.27,0-.54-.05-.81,0-.27,0-.54-.05-.81,0-.27,0-.54-.05-.81,0-.27,0-.54-.05-.81,0-.27,0-.54-.05-.81,0-.27,0-.54-.05-.81,0-.27,0-.54-.05-.81,0-.27,0-.55-.05-.81,0-.27,0-.55-.05-.81,0-.27,0-.54-.05-.81,0-.27,0-.55-.05-.81,0-.27,0-.54-.05-.81,0-1.73-.05-3.33.95-3.86,2.62l-7.73,24.2-17.4-9.34c-.69-.37-1.46-.44-2.23-.37-.27-.03-.53-.02-.81,0-.27-.03-.53-.02-.81,0-.27-.03-.53-.02-.81,0-.27-.03-.53-.02-.81,0-.27-.03-.53-.02-.81,0-.27-.03-.53-.02-.81,0-.27-.03-.53-.02-.81,0-.27-.03-.53-.02-.81,0-.27-.03-.53-.02-.81,0-.27-.03-.53-.02-.81,0-.28-.03-.53-.02-.81,0-.28-.03-.53-.02-.81,0-.27-.03-.53-.02-.81,0-.28-.03-.53-.02-.81,0-.27-.03-.53-.02-.81,0-.27-.03-.53-.02-.81,0-.28-.03-.53-.02-.81,0-.27-.03-.53-.02-.81,0-.27-.03-.53-.02-.81,0-.27-.03-.53-.02-.81,0-.73-.09-1.47-.04-2.16.29-1.14.54-1.94,1.58-2.15,2.8l-7.6,43.55-59.56,1.08c-1.85.03-3.42,1.33-3.77,3.11-.05.24-.07.48-.07.71,0,1.52.93,2.93,2.41,3.53l83.73,34.15c.63.26,1.29.29,1.95.21.27.03.53.03.81,0,.27.03.53.03.81,0,.27.03.53.03.81,0,.27.03.53.03.81,0,.27.03.53.03.81,0,.27.03.53.03.81,0,.27.03.53.03.81,0,.27.03.53.03.81,0,.27.03.53.03.81,0,.27.03.53.03.81,0,.28.03.53.03.81,0,.27.03.53.03.81,0,.27.03.53.03.81,0,.27.03.53.03.81,0,.27.03.53.03.81,0,.27.03.53.03.81,0,.27.03.53.03.81,0,.27.03.53.03.81,0,.27.03.53.03.81,0,.27.03.53.03.81,0,.69.06,1.39,0,2.03-.29,1-.46,1.75-1.32,2.07-2.36l5.09-16.61,5.33,4.7c.91.8,2.16,1.14,3.36.91.02,0,.04-.02.06-.03.25,0,.49.08.74.03.02,0,.04-.02.06-.03.25,0,.49.08.74.03.02,0,.04-.02.06-.03.25,0,.49.08.74.03.02,0,.04-.02.06-.03.25,0,.49.08.74.03.02,0,.04-.02.06-.03.25,0,.49.08.74.03.02,0,.04-.02.06-.03.25,0,.49.08.74.03.02,0,.04-.02.06-.03.25,0,.49.08.74.03.02,0,.04-.02.06-.03.25,0,.49.08.74.03.02,0,.04-.02.06-.03.25,0,.49.08.74.03.02,0,.04-.02.06-.03.25,0,.49.08.74.03.02,0,.04-.02.06-.03.25,0,.49.08.74.03.02,0,.04-.02.06-.03.25,0,.49.08.74.03.02,0,.04-.02.06-.03.25,0,.49.08.74.03.02,0,.04-.02.06-.03.25,0,.49.08.74.03.02,0,.04-.02.06-.03.25,0,.49.08.74.03.02,0,.04-.02.06-.03.25,0,.49.08.74.03.02,0,.04-.02.06-.03.25,0,.49.08.74.03.02,0,.04-.02.06-.03.25,0,.49.08.74.03.02,0,.04-.02.06-.03.25,0,.49.08.74.03.02,0,.04-.02.06-.03.25,0,.49.08.74.03.02,0,.04-.02.06-.03.25,0,.49.08.74.03,1.21-.23,2.23-1,2.77-2.09l14.22-28.64,3.55,2.01,8.88,65.31c.14,1.06.72,2.01,1.6,2.63.88.62,1.99.85,3.05.64h.02c.26,0,.52.05.79,0h.02c.26,0,.52.05.79,0h.02c.26,0,.52.05.79,0h.02c.26,0,.52.05.79,0h.02c.26,0,.52.05.79,0h.02c.26,0,.52.05.79,0h.02c.26,0,.53.05.79,0h.02c.26,0,.52.05.79,0h.02c.26,0,.52.05.79,0h.02c.26,0,.52.05.79,0h.02c.26,0,.52.05.79,0h.02c.26,0,.52.05.79,0h.02c.26,0,.52.05.79,0h.02c.26,0,.52.05.79,0h.02c.26,0,.52.05.79,0h.02c.26,0,.52.05.79,0h.02c.26,0,.52.05.79,0h.02c.26,0,.52.05.79,0h.02c.26,0,.53.05.79,0h.02c.26,0,.52.05.79,0h.02c.26,0,.53.05.79,0l615.62-39.84c1.74-.34,3.02-1.79,3.12-3.53l25.77-163.67c.09-2.02-1.5-3.89-3.64-4.04L122.98,3.36c-.09,0-.17.04-.26.04l-.55-.04c-.09,0-.17.04-.26.04l-.55-.04c-.09,0-.17.04-.26.04l-.55-.04c-.09,0-.17.04-.26.04l-.55-.04c-.09,0-.17.04-.26.04l-.55-.04c-.09,0-.17.04-.26.04l-.55-.04c-.09,0-.17.04-.26.04l-.55-.04c-.09,0-.17.04-.26.04l-.55-.04c-.09,0-.17.04-.26.04l-.55-.04c-.09,0-.17.04-.26.04l-.55-.04c-.09,0-.17.04-.26.04l-.55-.04c-.09,0-.17.04-.26.04l-.55-.04c-.09,0-.17.04-.26.04l-.55-.04c-.09,0-.17.04-.26.04l-.55-.04c-.09,0-.17.04-.26.04l-.55-.04c-.09,0-.17.04-.26.04l-.55-.04c-.09,0-.17.04-.26.04l-.55-.04c-.09,0-.17.04-.26.04l-.55-.04c-.09,0-.17.04-.26.04l-.55-.04c-.09,0-.17.04-.26.04l-.55-.04c-.09,0-.17.04-.26.04l-.55-.04c-1.13-.08-2.23.33-3.03,1.11h.07Z"/>
      <path class="st0" d="M121.75,110.24c.08,1.2-.43,2.37-1.36,3.16-.94.78-2.2,1.09-3.4.82l-32.53-7.19-10.56,33.06c-.35,1.1-1.18,1.98-2.27,2.41-1.09.43-2.31.36-3.34-.19l-31.24-16.77-7.22,41.37c-.31,1.81-1.9,3.15-3.78,3.18l-44.15.8,62.51,25.49,9.22-30.08c.39-1.26,1.4-2.23,2.69-2.59,1.29-.36,2.67-.04,3.67.84l19.4,17.08,17.5-35.26c.47-.96,1.33-1.68,2.37-1.99,1.04-.31,2.16-.19,3.1.35l22.09,12.52c1.05.6,1.76,1.64,1.92,2.83l8.59,63.1,608.54-38.43,25.37-156.95L126.91,11.29l-5.16,98.95Z"/>
      <path d="M118.82,7.42l-5.21,98.21-30.95-6.84c-1.99-.44-3.99.69-4.59,2.59l-10.21,31.96-31.87-17.11c-1.11-.59-2.44-.63-3.58-.09-1.14.54-1.94,1.58-2.15,2.8l-7.6,43.55-59.56,1.08c-1.85.03-3.42,1.33-3.77,3.11-.05.24-.07.48-.07.71,0,1.52.93,2.93,2.41,3.53l83.73,34.15c1.02.42,2.18.39,3.18-.07s1.75-1.32,2.07-2.36l8.69-28.36,18.67,16.45c.91.8,2.16,1.14,3.36.91,1.21-.23,2.23-1,2.77-2.09l17.94-36.14,16.78,9.51,8.88,65.31c.14,1.06.72,2.01,1.6,2.63.88.62,1.99.85,3.05.64l615.62-39.84c1.74-.34,3.02-1.79,3.12-3.53l25.77-163.67c.09-2.02-1.5-3.89-3.64-4.04L122.98,3.36c-1.13-.08-2.23.33-3.03,1.11-.8.78-1.2,1.88-1.14,2.96h0ZM743.5,184.76l-608.54,38.43-8.59-63.1c-.16-1.18-.87-2.23-1.92-2.83l-22.09-12.52c-.94-.53-2.07-.66-3.1-.35-1.04.31-1.9,1.03-2.37,1.99l-17.5,35.26-19.4-17.08c-1-.88-2.38-1.2-3.67-.84-1.29.36-2.31,1.33-2.69,2.59l-9.22,30.08-62.51-25.49,44.15-.8c1.88-.03,3.47-1.37,3.78-3.18l7.22-41.37,31.24,16.77c1.03.55,2.25.62,3.34.19s1.92-1.31,2.27-2.41l10.56-33.06,32.53,7.19c1.2.27,2.46-.04,3.4-.82s1.44-1.96,1.36-3.16l5.16-98.95,641.97,16.52-25.37,156.95h-.01Z"/>
    </g>
    <g class="st1">
      <g class="st1">
        <path d="M173.19,57.02v6.99c0,.27-.1.5-.31.7s-.44.3-.71.3h-5.09c-.27,0-.51-.1-.71-.3s-.31-.43-.31-.7v-24.45c0-.27.1-.5.31-.7.2-.2.44-.3.71-.3h11.6c1.53,0,2.88.27,4.05.8,1.17.53,2.14,1.23,2.9,2.1.76.87,1.34,1.85,1.73,2.97.39,1.12.58,2.24.58,3.37s-.2,2.3-.58,3.39c-.39,1.1-.97,2.08-1.73,2.94-.76.87-1.73,1.56-2.9,2.1-1.17.53-2.52.8-4.05.8h-5.5ZM178.23,50.03c.88,0,1.53-.23,1.96-.7.42-.47.64-.98.64-1.55s-.21-1.08-.64-1.55c-.42-.47-1.08-.7-1.96-.7h-5.04v4.49h5.04Z"/>
        <path d="M201.95,59.66c.54,0,1.11-.05,1.71-.15.59-.1,1.18-.22,1.76-.37.58-.15,1.11-.32,1.6-.52.49-.2.92-.4,1.3-.6l1.02,4.99c-.58.33-1.26.62-2.04.87-.78.25-1.57.46-2.37.62-.8.17-1.59.29-2.37.37-.78.08-1.46.12-2.04.12-1.22,0-2.38-.13-3.46-.4-1.09-.27-2.04-.71-2.88-1.32-.83-.62-1.48-1.43-1.96-2.44-.48-1.01-.71-2.29-.71-3.82v-5.64c0-1.33.51-2.47,1.53-3.42,1.02-.95,2.54-1.42,4.58-1.42h6.62c1.73,0,3.01.37,3.84,1.12.83.75,1.25,1.66,1.25,2.72,0,.83-.23,1.68-.69,2.54-.46.87-1.12,1.69-1.98,2.47-.87.78-1.93,1.48-3.18,2.1-1.26.62-2.68,1.09-4.28,1.42.27.27.65.46,1.15.57.49.12,1.03.17,1.6.17ZM198.64,52.52v3.09c.81-.37,1.57-.81,2.27-1.32.69-.52,1.13-1.11,1.3-1.77h-3.56Z"/>
        <path d="M231.21,53.52c0,.27-.1.5-.31.7s-.44.3-.71.3h-6.11v-1.15c0-.5-.15-.85-.46-1.05-.31-.2-.66-.3-1.07-.3-.81,0-1.66.27-2.54.8v11.18c0,.27-.1.5-.31.7s-.44.3-.71.3h-5.09c-.27,0-.51-.1-.71-.3s-.31-.43-.31-.7v-16.47c0-.27.1-.5.31-.7s.44-.3.71-.3h6.11v2c.98-.63,2.04-1.12,3.18-1.47,1.14-.35,2.21-.52,3.23-.52,1.32,0,2.45.32,3.38.95.93.63,1.4,1.65,1.4,3.04v2.99Z"/>
        <path d="M249.44,52.92c-1.19-.5-2.43-.93-3.72-1.3-1.29-.37-2.48-.55-3.56-.55-.54,0-.98.06-1.3.17-.32.12-.48.31-.48.57,0,.33.29.6.87.8.58.2,1.3.39,2.16.57.87.18,1.81.41,2.83.67,1.02.27,1.96.62,2.82,1.07.87.45,1.59,1.04,2.16,1.77.58.73.87,1.66.87,2.79,0,1-.23,1.85-.69,2.54-.46.7-1.08,1.26-1.86,1.7-.78.43-1.7.75-2.75.95s-2.17.3-3.36.3c-1.73,0-3.5-.18-5.29-.55-1.8-.37-3.43-.85-4.89-1.45l1.83-4.34c.54.23,1.14.46,1.78.67.64.22,1.31.42,2.01.6.7.18,1.37.32,2.04.42.66.1,1.26.15,1.81.15.61,0,1.14-.07,1.58-.22.44-.15.66-.41.66-.77,0-.27-.29-.49-.87-.67-.58-.18-1.3-.37-2.16-.57-.87-.2-1.81-.44-2.83-.72-1.02-.28-1.96-.67-2.82-1.15-.87-.48-1.59-1.08-2.16-1.8-.58-.71-.87-1.62-.87-2.72,0-1.03.21-1.89.64-2.57.42-.68,1.01-1.23,1.76-1.65.75-.42,1.62-.71,2.62-.87,1-.17,2.06-.25,3.18-.25,1.73,0,3.38.16,4.96.47,1.58.32,2.96.66,4.15,1.02l-1.12,4.89Z"/>
        <path d="M266.89,46.54c1.12,0,2.17.16,3.16.47.98.32,1.85.77,2.6,1.37.75.6,1.33,1.33,1.76,2.2.42.87.64,1.85.64,2.94v4.49c0,1.1-.21,2.08-.64,2.94-.42.87-1.01,1.6-1.76,2.2-.75.6-1.61,1.06-2.6,1.37-.98.32-2.04.47-3.16.47h-4.07c-1.12,0-2.17-.16-3.16-.47-.98-.32-1.85-.77-2.6-1.37-.75-.6-1.33-1.33-1.76-2.2-.42-.86-.64-1.85-.64-2.94v-4.49c0-1.1.21-2.08.64-2.94.42-.86,1.01-1.6,1.76-2.2.75-.6,1.61-1.06,2.6-1.37.98-.32,2.04-.47,3.16-.47h4.07ZM267.91,54.27c0-.27-.1-.5-.31-.7-.2-.2-.44-.3-.71-.3h-4.07c-.27,0-.51.1-.71.3-.2.2-.31.43-.31.7v2.99c0,.27.1.5.31.7.2.2.44.3.71.3h4.07c.27,0,.51-.1.71-.3.2-.2.31-.43.31-.7v-2.99Z"/>
        <path d="M297.69,64c0,.27-.1.5-.31.7s-.44.3-.71.3h-5.09c-.27,0-.51-.1-.71-.3s-.31-.43-.31-.7v-10.23c0-.76-.19-1.3-.56-1.6-.37-.3-.75-.45-1.12-.45-.58,0-1.15.19-1.71.57-.56.38-.96.79-1.2,1.22v10.48c0,.27-.1.5-.31.7s-.44.3-.71.3h-5.09c-.27,0-.51-.1-.71-.3s-.31-.43-.31-.7v-16.47c0-.27.1-.5.31-.7s.44-.3.71-.3h6.11v2c1.02-.57,2.07-1.04,3.16-1.42,1.09-.38,2.14-.57,3.16-.57.75,0,1.45.12,2.11.37s1.23.67,1.71,1.27c.47.6.86,1.37,1.15,2.32.29.95.43,2.12.43,3.52v9.98Z"/>
        <path d="M300.74,59.01c0-1.7.81-3.03,2.44-3.99,1.63-.96,4.34-1.46,8.14-1.5-.14-.6-.5-1.02-1.09-1.27-.59-.25-1.3-.37-2.11-.37-.54,0-1.12.05-1.73.15-.61.1-1.2.22-1.76.37-.56.15-1.09.32-1.6.52s-.93.4-1.27.6l-1.02-4.99c.58-.33,1.25-.62,2.04-.87.78-.25,1.57-.46,2.37-.62.8-.17,1.59-.29,2.37-.37.78-.08,1.46-.12,2.04-.12,1.22,0,2.37.13,3.46.4,1.09.27,2.04.71,2.88,1.32.83.62,1.48,1.43,1.96,2.44.47,1.02.71,2.29.71,3.82v9.48c0,.27-.1.5-.31.7s-.44.3-.71.3h-12.72c-1.12,0-2.08-.39-2.88-1.17-.8-.78-1.2-1.72-1.2-2.82v-2ZM311.43,59.01v-2.35c-.81.17-1.57.43-2.26.8-.7.37-1.13.88-1.3,1.55h3.56Z"/>
        <path d="M328.73,38.55c.27,0,.51.1.71.3.2.2.31.43.31.7v24.45c0,.27-.1.5-.31.7s-.44.3-.71.3h-5.09c-.27,0-.51-.1-.71-.3s-.31-.43-.31-.7v-24.45c0-.27.1-.5.31-.7.2-.2.44-.3.71-.3h5.09Z"/>
        <path d="M339.93,38.55c.27,0,.51.1.71.3.2.2.31.43.31.7v3.49c0,.27-.1.5-.31.7s-.44.3-.71.3h-5.09c-.27,0-.51-.1-.71-.3s-.31-.43-.31-.7v-3.49c0-.27.1-.5.31-.7.2-.2.44-.3.71-.3h5.09ZM339.93,46.54c.27,0,.51.1.71.3s.31.43.31.7v16.47c0,.27-.1.5-.31.7s-.44.3-.71.3h-5.09c-.27,0-.51-.1-.71-.3s-.31-.43-.31-.7v-16.47c0-.27.1-.5.31-.7s.44-.3.71-.3h5.09Z"/>
        <path d="M357.75,64.2c-1.53.5-3,.75-4.43.75-1.19,0-2.29-.18-3.31-.55-1.02-.37-1.89-.91-2.62-1.62-.73-.71-1.31-1.62-1.73-2.72-.42-1.1-.64-2.38-.64-3.84v-16.67c0-.27.1-.5.31-.7.2-.2.44-.3.71-.3h5.09c.27,0,.51.1.71.3.2.2.31.43.31.7v2.5h4.07c.27,0,.51.1.71.3.2.2.31.43.31.7v3.99c0,.27-.1.5-.31.7-.2.2-.44.3-.71.3h-4.07v8.18c0,.96.26,1.72.79,2.27.53.55,1.26.82,2.21.82h.51c.17,0,.36-.03.56-.1l1.53,4.99Z"/>
        <path d="M378.61,65c0,1.53-.24,2.8-.71,3.82-.48,1.01-1.13,1.83-1.96,2.44-.83.62-1.79,1.06-2.88,1.32-1.09.27-2.24.4-3.46.4s-2.57-.17-4.15-.5c-1.58-.33-2.96-.83-4.15-1.5l1.53-3.99c.64.2,1.36.37,2.14.52.78.15,1.56.22,2.34.22,1.12,0,2.09-.2,2.93-.6.83-.4,1.25-1.11,1.25-2.15v-1.05c-1.49.6-2.94.9-4.33.9-1.93,0-3.56-.63-4.89-1.9-1.32-1.26-1.98-3.24-1.98-5.94v-9.48c0-.27.1-.5.31-.7s.44-.3.71-.3h5.09c.27,0,.51.1.71.3s.31.43.31.7v9.98c0,.8.16,1.37.48,1.72.32.35.72.52,1.2.52.71,0,1.51-.3,2.39-.9v-11.33c0-.27.1-.5.31-.7s.44-.3.71-.3h5.09c.27,0,.51.1.71.3s.31.43.31.7v17.46Z"/>
        <path d="M401.52,64.2c-1.53.5-3,.75-4.43.75-1.19,0-2.29-.18-3.31-.55-1.02-.37-1.89-.91-2.62-1.62-.73-.71-1.31-1.62-1.73-2.72-.42-1.1-.64-2.38-.64-3.84v-16.67c0-.27.1-.5.31-.7.2-.2.44-.3.71-.3h5.09c.27,0,.51.1.71.3.2.2.3.43.3.7v2.5h4.07c.27,0,.51.1.71.3.2.2.3.43.3.7v3.99c0,.27-.1.5-.3.7-.2.2-.44.3-.71.3h-4.07v8.18c0,.96.26,1.72.79,2.27.53.55,1.26.82,2.21.82h.51c.17,0,.36-.03.56-.1l1.53,4.99Z"/>
        <path d="M422.38,53.52c0,.27-.1.5-.31.7s-.44.3-.71.3h-6.11v-1.15c0-.5-.15-.85-.46-1.05-.3-.2-.66-.3-1.07-.3-.81,0-1.66.27-2.54.8v11.18c0,.27-.1.5-.31.7s-.44.3-.71.3h-5.09c-.27,0-.51-.1-.71-.3-.2-.2-.31-.43-.31-.7v-16.47c0-.27.1-.5.31-.7.2-.2.44-.3.71-.3h6.11v2c.98-.63,2.04-1.12,3.18-1.47,1.14-.35,2.21-.52,3.23-.52,1.32,0,2.45.32,3.38.95.93.63,1.4,1.65,1.4,3.04v2.99Z"/>
        <path d="M424.93,59.01c0-1.7.81-3.03,2.44-3.99,1.63-.96,4.34-1.46,8.14-1.5-.14-.6-.5-1.02-1.09-1.27-.59-.25-1.3-.37-2.11-.37-.54,0-1.12.05-1.73.15-.61.1-1.2.22-1.76.37-.56.15-1.09.32-1.6.52-.51.2-.93.4-1.27.6l-1.02-4.99c.58-.33,1.25-.62,2.04-.87.78-.25,1.57-.46,2.37-.62.8-.17,1.59-.29,2.37-.37.78-.08,1.46-.12,2.04-.12,1.22,0,2.38.13,3.46.4,1.09.27,2.04.71,2.88,1.32.83.62,1.48,1.43,1.96,2.44.47,1.02.71,2.29.71,3.82v9.48c0,.27-.1.5-.31.7s-.44.3-.71.3h-12.72c-1.12,0-2.08-.39-2.88-1.17-.8-.78-1.2-1.72-1.2-2.82v-2ZM435.62,59.01v-2.35c-.81.17-1.57.43-2.26.8-.7.37-1.13.88-1.3,1.55h3.56Z"/>
        <path d="M452.92,38.55c.27,0,.51.1.71.3.2.2.31.43.31.7v3.49c0,.27-.1.5-.31.7-.2.2-.44.3-.71.3h-5.09c-.27,0-.51-.1-.71-.3s-.31-.43-.31-.7v-3.49c0-.27.1-.5.31-.7.2-.2.44-.3.71-.3h5.09ZM452.92,46.54c.27,0,.51.1.71.3.2.2.31.43.31.7v16.47c0,.27-.1.5-.31.7-.2.2-.44.3-.71.3h-5.09c-.27,0-.51-.1-.71-.3s-.31-.43-.31-.7v-16.47c0-.27.1-.5.31-.7s.44-.3.71-.3h5.09Z"/>
        <path d="M470.74,64.2c-1.53.5-3,.75-4.43.75-1.19,0-2.29-.18-3.31-.55-1.02-.37-1.89-.91-2.62-1.62-.73-.71-1.31-1.62-1.73-2.72-.42-1.1-.64-2.38-.64-3.84v-16.67c0-.27.1-.5.31-.7.2-.2.44-.3.71-.3h5.09c.27,0,.51.1.71.3.2.2.31.43.31.7v2.5h4.07c.27,0,.51.1.71.3.2.2.31.43.31.7v3.99c0,.27-.1.5-.31.7-.2.2-.44.3-.71.3h-4.07v8.18c0,.96.26,1.72.79,2.27.53.55,1.26.82,2.21.82h.51c.17,0,.36-.03.56-.1l1.53,4.99Z"/>
        <path d="M488.45,52.92c-1.19-.5-2.43-.93-3.72-1.3-1.29-.37-2.48-.55-3.56-.55-.54,0-.98.06-1.3.17-.32.12-.48.31-.48.57,0,.33.29.6.87.8.58.2,1.3.39,2.16.57.87.18,1.81.41,2.83.67,1.02.27,1.96.62,2.82,1.07.87.45,1.59,1.04,2.16,1.77.58.73.87,1.66.87,2.79,0,1-.23,1.85-.69,2.54-.46.7-1.08,1.26-1.86,1.7-.78.43-1.7.75-2.75.95s-2.17.3-3.36.3c-1.73,0-3.5-.18-5.29-.55-1.8-.37-3.43-.85-4.89-1.45l1.83-4.34c.54.23,1.14.46,1.78.67.64.22,1.31.42,2.01.6.7.18,1.38.32,2.04.42.66.1,1.26.15,1.81.15.61,0,1.14-.07,1.58-.22.44-.15.66-.41.66-.77,0-.27-.29-.49-.87-.67-.58-.18-1.3-.37-2.16-.57-.87-.2-1.81-.44-2.83-.72-1.02-.28-1.96-.67-2.83-1.15-.87-.48-1.59-1.08-2.16-1.8-.58-.71-.87-1.62-.87-2.72,0-1.03.21-1.89.64-2.57.42-.68,1.01-1.23,1.76-1.65.75-.42,1.62-.71,2.62-.87,1-.17,2.06-.25,3.18-.25,1.73,0,3.38.16,4.96.47,1.58.32,2.96.66,4.15,1.02l-1.12,4.89Z"/>
        <path d="M497,55.02c-.27,0-.51-.1-.71-.3-.2-.2-.31-.43-.31-.7v-3.99c0-.27.1-.5.31-.7.2-.2.44-.3.71-.3h4.07c.27,0,.51.1.71.3.2.2.31.43.31.7v3.99c0,.27-.1.5-.31.7s-.44.3-.71.3h-4.07ZM497,65c-.27,0-.51-.1-.71-.3-.2-.2-.31-.43-.31-.7v-3.99c0-.27.1-.5.31-.7.2-.2.44-.3.71-.3h4.07c.27,0,.51.1.71.3s.31.43.31.7v3.99c0,.27-.1.5-.31.7s-.44.3-.71.3h-4.07Z"/>
      </g>
      <g class="st1">
        <path d="M173.19,98.94v6.99c0,.27-.1.5-.31.7s-.44.3-.71.3h-5.09c-.27,0-.51-.1-.71-.3s-.31-.43-.31-.7v-24.45c0-.27.1-.5.31-.7.2-.2.44-.3.71-.3h11.6c1.53,0,2.88.27,4.05.8,1.17.53,2.14,1.23,2.9,2.1.76.87,1.34,1.85,1.73,2.97.39,1.12.58,2.24.58,3.37s-.2,2.3-.58,3.39c-.39,1.1-.97,2.08-1.73,2.94-.76.87-1.73,1.56-2.9,2.1-1.17.53-2.52.8-4.05.8h-5.5ZM178.23,91.95c.88,0,1.53-.23,1.96-.7.42-.47.64-.98.64-1.55s-.21-1.08-.64-1.55c-.42-.47-1.08-.7-1.96-.7h-5.04v4.49h5.04Z"/>
        <path d="M210.35,105.92c0,.27-.1.5-.31.7s-.44.3-.71.3h-5.09c-.27,0-.51-.1-.71-.3s-.31-.43-.31-.7v-9.98c0-.86-.2-1.46-.59-1.8-.39-.33-.84-.5-1.35-.5-.44,0-.9.09-1.37.27-.48.18-.9.41-1.27.67v11.33c0,.27-.1.5-.31.7s-.44.3-.71.3h-5.09c-.27,0-.51-.1-.71-.3s-.31-.43-.31-.7v-24.45c0-.27.1-.5.31-.7.2-.2.44-.3.71-.3h5.09c.27,0,.51.1.71.3.2.2.31.43.31.7v8.03c.78-.3,1.59-.54,2.42-.72.83-.18,1.64-.27,2.42-.27.88,0,1.73.13,2.54.4.81.27,1.53.71,2.16,1.32.63.62,1.14,1.43,1.53,2.44.39,1.02.6,2.27.64,3.77v9.48Z"/>
        <path d="M225.87,88.46c1.12,0,2.17.16,3.16.47.98.32,1.85.77,2.6,1.37.75.6,1.33,1.33,1.76,2.2.42.87.64,1.85.64,2.94v4.49c0,1.1-.21,2.08-.64,2.94-.42.87-1.01,1.6-1.76,2.2-.75.6-1.61,1.06-2.6,1.37-.98.32-2.04.47-3.16.47h-4.07c-1.12,0-2.17-.16-3.16-.47-.98-.32-1.85-.77-2.6-1.37-.75-.6-1.33-1.33-1.76-2.2-.42-.86-.64-1.85-.64-2.94v-4.49c0-1.1.21-2.08.64-2.94.42-.86,1.01-1.6,1.76-2.2.75-.6,1.61-1.06,2.6-1.37.98-.32,2.04-.47,3.16-.47h4.07ZM226.89,96.19c0-.27-.1-.5-.31-.7-.2-.2-.44-.3-.71-.3h-4.07c-.27,0-.51.1-.71.3-.2.2-.31.43-.31.7v2.99c0,.27.1.5.31.7.2.2.44.3.71.3h4.07c.27,0,.51-.1.71-.3.2-.2.31-.43.31-.7v-2.99Z"/>
        <path d="M250.56,106.12c-1.53.5-3,.75-4.43.75-1.19,0-2.29-.18-3.31-.55-1.02-.37-1.89-.91-2.62-1.62-.73-.71-1.31-1.62-1.73-2.72-.42-1.1-.64-2.38-.64-3.84v-16.67c0-.27.1-.5.31-.7.2-.2.44-.3.71-.3h5.09c.27,0,.51.1.71.3.2.2.31.43.31.7v2.5h4.07c.27,0,.51.1.71.3.2.2.31.43.31.7v3.99c0,.27-.1.5-.31.7-.2.2-.44.3-.71.3h-4.07v8.18c0,.96.26,1.72.79,2.27.53.55,1.26.82,2.21.82h.51c.17,0,.36-.03.56-.1l1.53,4.99Z"/>
        <path d="M265.06,88.46c1.12,0,2.17.16,3.16.47.98.32,1.85.77,2.6,1.37.75.6,1.33,1.33,1.76,2.2.42.87.64,1.85.64,2.94v4.49c0,1.1-.21,2.08-.64,2.94-.42.87-1.01,1.6-1.76,2.2-.75.6-1.61,1.06-2.6,1.37-.98.32-2.04.47-3.16.47h-4.07c-1.12,0-2.17-.16-3.16-.47-.98-.32-1.85-.77-2.6-1.37-.75-.6-1.33-1.33-1.76-2.2-.42-.86-.64-1.85-.64-2.94v-4.49c0-1.1.21-2.08.64-2.94.42-.86,1.01-1.6,1.76-2.2.75-.6,1.61-1.06,2.6-1.37.98-.32,2.04-.47,3.16-.47h4.07ZM266.08,96.19c0-.27-.1-.5-.31-.7-.2-.2-.44-.3-.71-.3h-4.07c-.27,0-.51.1-.71.3-.2.2-.31.43-.31.7v2.99c0,.27.1.5.31.7.2.2.44.3.71.3h4.07c.27,0,.51-.1.71-.3.2-.2.31-.43.31-.7v-2.99Z"/>
        <path d="M294.84,106.92c0,1.53-.24,2.8-.71,3.82-.48,1.01-1.13,1.83-1.96,2.44-.83.62-1.79,1.06-2.88,1.32-1.09.27-2.24.4-3.46.4s-2.57-.17-4.15-.5c-1.58-.33-2.96-.83-4.15-1.5l1.53-3.99c.64.2,1.36.37,2.14.52.78.15,1.56.22,2.34.22,1.12,0,2.09-.2,2.93-.6.83-.4,1.25-1.11,1.25-2.15h-6.11c-1.43,0-2.63-.48-3.61-1.45-.98-.96-1.48-2.15-1.48-3.54v-4.99c0-1.46.28-2.73.84-3.79.56-1.06,1.3-1.95,2.21-2.64.92-.7,1.98-1.21,3.18-1.55,1.2-.33,2.45-.5,3.74-.5,1.49,0,2.96.21,4.4.62,1.44.42,2.76,1.04,3.94,1.87v15.97ZM287.71,99.93v-4.24c-.58-.17-1.09-.25-1.53-.25-.68,0-1.27.13-1.78.4-.51.27-.76.63-.76,1.1v2.99h4.07Z"/>
        <path d="M317.23,95.44c0,.27-.1.5-.31.7s-.44.3-.71.3h-6.11v-1.15c0-.5-.15-.85-.46-1.05-.31-.2-.66-.3-1.07-.3-.81,0-1.66.27-2.54.8v11.18c0,.27-.1.5-.31.7s-.44.3-.71.3h-5.09c-.27,0-.51-.1-.71-.3s-.31-.43-.31-.7v-16.47c0-.27.1-.5.31-.7s.44-.3.71-.3h6.11v2c.98-.63,2.04-1.12,3.18-1.47,1.14-.35,2.21-.52,3.23-.52,1.32,0,2.45.32,3.38.95.93.63,1.4,1.65,1.4,3.04v2.99Z"/>
        <path d="M319.78,100.93c0-1.7.81-3.03,2.44-3.99,1.63-.96,4.34-1.46,8.14-1.5-.14-.6-.5-1.02-1.09-1.27-.59-.25-1.3-.37-2.11-.37-.54,0-1.12.05-1.73.15-.61.1-1.2.22-1.76.37-.56.15-1.09.32-1.6.52s-.93.4-1.27.6l-1.02-4.99c.58-.33,1.25-.62,2.04-.87.78-.25,1.57-.46,2.37-.62.8-.17,1.59-.29,2.37-.37.78-.08,1.46-.12,2.04-.12,1.22,0,2.37.13,3.46.4,1.09.27,2.04.71,2.88,1.32.83.62,1.48,1.43,1.96,2.44.47,1.02.71,2.29.71,3.82v9.48c0,.27-.1.5-.31.7s-.44.3-.71.3h-12.72c-1.12,0-2.08-.39-2.88-1.17-.8-.78-1.2-1.72-1.2-2.82v-2ZM330.46,100.93v-2.35c-.81.17-1.57.43-2.26.8-.7.37-1.13.88-1.3,1.55h3.56Z"/>
        <path d="M348.79,106.92v6.99c0,.27-.1.5-.31.7s-.44.3-.71.3h-5.09c-.27,0-.51-.1-.71-.3s-.31-.43-.31-.7v-24.45c0-.27.1-.5.31-.7s.44-.3.71-.3h9.06c1.53,0,2.88.27,4.05.8,1.17.53,2.14,1.23,2.9,2.1.76.87,1.34,1.85,1.73,2.97.39,1.11.58,2.24.58,3.37s-.2,2.3-.58,3.39c-.39,1.1-.97,2.08-1.73,2.94-.76.87-1.73,1.56-2.9,2.1-1.17.53-2.52.8-4.05.8h-2.95ZM351.28,99.93c.88,0,1.53-.23,1.96-.7.42-.47.64-.98.64-1.55s-.21-1.08-.64-1.55c-.42-.47-1.08-.7-1.96-.7h-2.49v4.49h2.49Z"/>
        <path d="M383.4,105.92c0,.27-.1.5-.31.7s-.44.3-.71.3h-5.09c-.27,0-.51-.1-.71-.3s-.31-.43-.31-.7v-9.98c0-.86-.2-1.46-.59-1.8-.39-.33-.84-.5-1.35-.5-.44,0-.9.09-1.37.27-.48.18-.9.41-1.27.67v11.33c0,.27-.1.5-.31.7s-.44.3-.71.3h-5.09c-.27,0-.51-.1-.71-.3s-.31-.43-.31-.7v-24.45c0-.27.1-.5.31-.7.2-.2.44-.3.71-.3h5.09c.27,0,.51.1.71.3.2.2.31.43.31.7v8.03c.78-.3,1.59-.54,2.42-.72.83-.18,1.64-.27,2.42-.27.88,0,1.73.13,2.54.4.81.27,1.53.71,2.16,1.32.63.62,1.14,1.43,1.53,2.44.39,1.02.6,2.27.64,3.77v9.48Z"/>
        <path d="M393.07,80.47c.27,0,.51.1.71.3.2.2.3.43.3.7v3.49c0,.27-.1.5-.3.7-.2.2-.44.3-.71.3h-5.09c-.27,0-.51-.1-.71-.3s-.31-.43-.31-.7v-3.49c0-.27.1-.5.31-.7.2-.2.44-.3.71-.3h5.09ZM393.07,88.46c.27,0,.51.1.71.3.2.2.3.43.3.7v16.47c0,.27-.1.5-.3.7-.2.2-.44.3-.71.3h-5.09c-.27,0-.51-.1-.71-.3s-.31-.43-.31-.7v-16.47c0-.27.1-.5.31-.7s.44-.3.71-.3h5.09Z"/>
        <path d="M415.46,99.58v.35c0,1.1-.21,2.08-.64,2.94-.42.87-1.01,1.6-1.76,2.2-.75.6-1.61,1.06-2.6,1.37-.98.32-2.04.47-3.16.47h-1.53c-1.12,0-2.17-.16-3.16-.47-.98-.32-1.85-.77-2.6-1.37-.75-.6-1.33-1.33-1.76-2.2-.43-.86-.64-1.85-.64-2.94v-4.49c0-1.1.21-2.08.64-2.94.42-.86,1.01-1.6,1.76-2.2.75-.6,1.61-1.06,2.6-1.37.98-.32,2.04-.47,3.16-.47h1.53c1.12,0,2.17.16,3.16.47.98.32,1.85.77,2.6,1.37s1.33,1.33,1.76,2.2c.42.87.64,1.85.64,2.94v.4h-7.13c0-.53-.12-.9-.36-1.1-.24-.2-.7-.3-1.37-.3-.71,0-1.2.1-1.45.3-.25.2-.38.57-.38,1.1v3.74c0,.57.09.94.28,1.12.19.18.62.27,1.3.27.75,0,1.26-.1,1.53-.3.27-.2.42-.57.46-1.1h7.13Z"/>
        <path d="M432.26,105.92c0,.27-.1.5-.31.7-.2.2-.44.3-.71.3h-5.09c-.27,0-.51-.1-.71-.3s-.31-.43-.31-.7v-16.47c0-.27.1-.5.31-.7s.44-.3.71-.3h6.11v2c.98-.57,2-1.04,3.05-1.42,1.05-.38,2.07-.57,3.05-.57.92,0,1.75.22,2.49.65.75.43,1.34,1.17,1.78,2.2,1.19-.9,2.38-1.6,3.59-2.1,1.2-.5,2.33-.75,3.38-.75,1.46,0,2.66.51,3.61,1.52.95,1.02,1.43,2.67,1.43,4.96v10.98c0,.27-.1.5-.31.7s-.44.3-.71.3h-5.09c-.27,0-.51-.1-.71-.3-.2-.2-.31-.43-.31-.7v-9.98c0-.86-.14-1.46-.41-1.8-.27-.33-.61-.5-1.02-.5-.48,0-.98.19-1.5.57-.53.38-.91.79-1.14,1.22v10.48c0,.27-.1.5-.31.7-.2.2-.44.3-.71.3h-5.09c-.27,0-.51-.1-.71-.3-.2-.2-.31-.43-.31-.7v-9.98c0-.86-.13-1.46-.41-1.8-.27-.33-.61-.5-1.02-.5-.48,0-.98.19-1.5.57-.53.38-.91.79-1.15,1.22v10.48Z"/>
        <path d="M469.16,101.58c.54,0,1.11-.05,1.71-.15.59-.1,1.18-.22,1.76-.37.58-.15,1.11-.32,1.6-.52.49-.2.92-.4,1.3-.6l1.02,4.99c-.58.33-1.26.62-2.04.87-.78.25-1.57.46-2.37.62-.8.17-1.59.29-2.37.37-.78.08-1.46.12-2.04.12-1.22,0-2.38-.13-3.46-.4-1.09-.27-2.04-.71-2.88-1.32-.83-.62-1.49-1.43-1.96-2.44-.47-1.01-.71-2.29-.71-3.82v-5.64c0-1.33.51-2.47,1.53-3.42,1.02-.95,2.54-1.42,4.58-1.42h6.62c1.73,0,3.01.37,3.84,1.12.83.75,1.25,1.66,1.25,2.72,0,.83-.23,1.68-.69,2.54-.46.87-1.12,1.69-1.99,2.47-.87.78-1.93,1.48-3.18,2.1-1.26.62-2.68,1.09-4.28,1.42.27.27.65.46,1.15.57.49.12,1.03.17,1.6.17ZM465.85,94.44v3.09c.81-.37,1.57-.81,2.26-1.32.69-.52,1.13-1.11,1.3-1.77h-3.56Z"/>
        <path d="M487.23,105.92c0,.27-.1.5-.31.7s-.44.3-.71.3h-5.09c-.27,0-.51-.1-.71-.3-.2-.2-.31-.43-.31-.7v-16.47c0-.27.1-.5.31-.7.2-.2.44-.3.71-.3h6.11v2c.98-.57,2-1.04,3.05-1.42,1.05-.38,2.07-.57,3.05-.57.92,0,1.75.22,2.49.65.75.43,1.34,1.17,1.78,2.2,1.19-.9,2.38-1.6,3.59-2.1s2.33-.75,3.38-.75c1.46,0,2.66.51,3.61,1.52.95,1.02,1.42,2.67,1.42,4.96v10.98c0,.27-.1.5-.3.7-.2.2-.44.3-.71.3h-5.09c-.27,0-.51-.1-.71-.3s-.3-.43-.3-.7v-9.98c0-.86-.14-1.46-.41-1.8-.27-.33-.61-.5-1.02-.5-.48,0-.98.19-1.5.57-.53.38-.91.79-1.14,1.22v10.48c0,.27-.1.5-.31.7s-.44.3-.71.3h-5.09c-.27,0-.51-.1-.71-.3s-.31-.43-.31-.7v-9.98c0-.86-.14-1.46-.41-1.8-.27-.33-.61-.5-1.02-.5-.48,0-.98.19-1.5.57-.53.38-.91.79-1.14,1.22v10.48Z"/>
        <path d="M525.66,88.46c1.12,0,2.17.16,3.16.47.98.32,1.85.77,2.6,1.37.75.6,1.33,1.33,1.76,2.2.42.87.64,1.85.64,2.94v4.49c0,1.1-.21,2.08-.64,2.94-.43.87-1.01,1.6-1.76,2.2-.75.6-1.61,1.06-2.6,1.37-.99.32-2.04.47-3.16.47h-4.07c-1.12,0-2.17-.16-3.16-.47-.99-.32-1.85-.77-2.6-1.37-.75-.6-1.33-1.33-1.76-2.2-.42-.86-.64-1.85-.64-2.94v-4.49c0-1.1.21-2.08.64-2.94.42-.86,1.01-1.6,1.76-2.2.75-.6,1.61-1.06,2.6-1.37.98-.32,2.04-.47,3.16-.47h4.07ZM526.67,96.19c0-.27-.1-.5-.3-.7-.2-.2-.44-.3-.71-.3h-4.07c-.27,0-.51.1-.71.3-.2.2-.3.43-.3.7v2.99c0,.27.1.5.3.7.2.2.44.3.71.3h4.07c.27,0,.51-.1.71-.3.2-.2.3-.43.3-.7v-2.99Z"/>
        <path d="M555.94,95.44c0,.27-.1.5-.31.7s-.44.3-.71.3h-6.11v-1.15c0-.5-.15-.85-.46-1.05-.31-.2-.66-.3-1.07-.3-.81,0-1.66.27-2.54.8v11.18c0,.27-.1.5-.3.7s-.44.3-.71.3h-5.09c-.27,0-.51-.1-.71-.3-.2-.2-.3-.43-.3-.7v-16.47c0-.27.1-.5.3-.7.2-.2.44-.3.71-.3h6.11v2c.98-.63,2.04-1.12,3.18-1.47,1.14-.35,2.21-.52,3.23-.52,1.32,0,2.45.32,3.38.95.93.63,1.4,1.65,1.4,3.04v2.99Z"/>
        <path d="M577.32,106.92c0,1.53-.24,2.8-.71,3.82-.47,1.01-1.13,1.83-1.96,2.44-.83.62-1.79,1.06-2.88,1.32-1.09.27-2.24.4-3.46.4s-2.57-.17-4.15-.5c-1.58-.33-2.96-.83-4.15-1.5l1.53-3.99c.64.2,1.36.37,2.14.52.78.15,1.56.22,2.34.22,1.12,0,2.09-.2,2.93-.6.83-.4,1.25-1.11,1.25-2.15v-1.05c-1.49.6-2.94.9-4.33.9-1.93,0-3.56-.63-4.89-1.9-1.32-1.26-1.98-3.24-1.98-5.94v-9.48c0-.27.1-.5.3-.7s.44-.3.71-.3h5.09c.27,0,.51.1.71.3.2.2.3.43.3.7v9.98c0,.8.16,1.37.48,1.72.32.35.72.52,1.2.52.71,0,1.51-.3,2.39-.9v-11.33c0-.27.1-.5.3-.7.2-.2.44-.3.71-.3h5.09c.27,0,.51.1.71.3.2.2.3.43.3.7v17.46Z"/>
        <path d="M584.44,106.92c-.27,0-.51-.1-.71-.3-.2-.2-.31-.43-.31-.7v-4.99c0-.27.1-.5.31-.7.2-.2.44-.3.71-.3h5.09c.27,0,.51.1.71.3.2.2.31.43.31.7v4.99c0,.27-.1.5-.31.7-.2.2-.44.3-.71.3h-5.09Z"/>
      </g>
      <g class="st1">
        <path d="M168.31,141.35c1.15.57,2.25.96,3.28,1.2,1.03.23,1.94.35,2.72.35.88,0,1.59-.14,2.14-.42.54-.28.81-.66.81-1.12,0-.67-.29-1.22-.87-1.67-.58-.45-1.3-.88-2.16-1.3-.87-.42-1.81-.85-2.82-1.3-1.02-.45-1.96-1.01-2.83-1.67-.87-.66-1.59-1.46-2.16-2.39-.58-.93-.87-2.1-.87-3.49,0-1.16.25-2.2.76-3.09.51-.9,1.2-1.65,2.06-2.25.87-.6,1.88-1.05,3.05-1.35,1.17-.3,2.42-.45,3.74-.45,1.39,0,2.8.17,4.22.5,1.43.33,2.85.83,4.28,1.5l-2.04,5.49c-1.15-.57-2.25-.96-3.28-1.2-1.04-.23-1.94-.35-2.72-.35-.92,0-1.64.14-2.16.42-.53.28-.79.66-.79,1.12,0,.67.29,1.22.87,1.67.58.45,1.3.88,2.16,1.3.87.42,1.81.85,2.82,1.3s1.96,1.01,2.82,1.67,1.59,1.46,2.16,2.39c.58.93.87,2.1.87,3.49,0,1.17-.25,2.2-.76,3.09-.51.9-1.2,1.65-2.06,2.25-.87.6-1.88,1.05-3.05,1.35-1.17.3-2.42.45-3.74.45-1.39,0-2.8-.17-4.22-.5-1.43-.33-2.85-.83-4.28-1.5l2.04-5.49Z"/>
        <path d="M199.91,130.37c1.12,0,2.17.16,3.16.47.98.32,1.85.77,2.6,1.37.75.6,1.33,1.33,1.76,2.2.42.87.64,1.85.64,2.94v4.49c0,1.1-.21,2.08-.64,2.94-.42.87-1.01,1.6-1.76,2.2-.75.6-1.61,1.06-2.6,1.37-.98.32-2.04.47-3.16.47h-4.07c-1.12,0-2.17-.16-3.16-.47-.98-.32-1.85-.77-2.6-1.37-.75-.6-1.33-1.33-1.76-2.2-.42-.86-.64-1.85-.64-2.94v-4.49c0-1.1.21-2.08.64-2.94.42-.86,1.01-1.6,1.76-2.2.75-.6,1.61-1.05,2.6-1.37.98-.32,2.04-.47,3.16-.47h4.07ZM200.93,138.1c0-.27-.1-.5-.31-.7-.2-.2-.44-.3-.71-.3h-4.07c-.27,0-.51.1-.71.3-.2.2-.31.43-.31.7v2.99c0,.27.1.5.31.7.2.2.44.3.71.3h4.07c.27,0,.51-.1.71-.3.2-.2.31-.43.31-.7v-2.99Z"/>
        <path d="M217.98,122.38c.27,0,.51.1.71.3.2.2.31.43.31.7v24.45c0,.27-.1.5-.31.7-.2.2-.44.3-.71.3h-5.09c-.27,0-.51-.1-.71-.3-.2-.2-.31-.43-.31-.7v-24.45c0-.27.1-.5.31-.7.2-.2.44-.3.71-.3h5.09Z"/>
        <path d="M227.04,148.83c-.27,0-.49-.1-.66-.3-.17-.2-.29-.43-.36-.7l-3.46-17.46h6.46c.27,0,.49.1.66.3.17.2.29.43.36.7l2.24,11.48,2.19-11.48c.07-.27.19-.5.36-.7.17-.2.39-.3.66-.3h6.46l-3.41,17.46c-.07.27-.19.5-.36.7-.17.2-.39.3-.66.3h-10.48Z"/>
        <path d="M255.95,143.49c.54,0,1.11-.05,1.71-.15.59-.1,1.18-.22,1.76-.38.58-.15,1.11-.32,1.6-.52.49-.2.92-.4,1.3-.6l1.02,4.99c-.58.33-1.26.62-2.04.87-.78.25-1.57.46-2.37.62-.8.17-1.59.29-2.37.37-.78.08-1.46.12-2.04.12-1.22,0-2.38-.13-3.46-.4-1.09-.27-2.04-.71-2.88-1.32-.83-.62-1.48-1.43-1.96-2.44-.48-1.02-.71-2.29-.71-3.82v-5.64c0-1.33.51-2.47,1.53-3.42,1.02-.95,2.54-1.42,4.58-1.42h6.62c1.73,0,3.01.37,3.84,1.12.83.75,1.25,1.65,1.25,2.72,0,.83-.23,1.68-.69,2.54-.46.87-1.12,1.69-1.98,2.47s-1.93,1.48-3.18,2.1c-1.26.62-2.68,1.09-4.28,1.42.27.27.65.46,1.15.57.49.12,1.03.17,1.6.17ZM252.64,136.36v3.09c.81-.37,1.57-.81,2.27-1.32.69-.52,1.13-1.11,1.3-1.77h-3.56Z"/>
        <path d="M282.06,136.75c-1.19-.5-2.43-.93-3.72-1.3-1.29-.37-2.48-.55-3.56-.55-.54,0-.98.06-1.3.17-.32.12-.48.31-.48.57,0,.33.29.6.87.8.58.2,1.3.39,2.16.57.87.18,1.81.41,2.83.67,1.02.27,1.96.62,2.82,1.07s1.59,1.04,2.16,1.77c.58.73.87,1.66.87,2.79,0,1-.23,1.85-.69,2.54s-1.08,1.26-1.86,1.7c-.78.43-1.7.75-2.75.95-1.05.2-2.17.3-3.36.3-1.73,0-3.5-.18-5.29-.55-1.8-.37-3.43-.85-4.89-1.45l1.83-4.34c.54.23,1.14.46,1.78.67.64.22,1.31.42,2.01.6.7.18,1.37.32,2.04.42s1.26.15,1.81.15c.61,0,1.14-.08,1.58-.22.44-.15.66-.41.66-.77,0-.27-.29-.49-.87-.67-.58-.18-1.3-.38-2.16-.57-.87-.2-1.81-.44-2.83-.72s-1.96-.67-2.82-1.15-1.59-1.08-2.16-1.8c-.58-.71-.87-1.62-.87-2.72,0-1.03.21-1.89.64-2.57.42-.68,1.01-1.23,1.76-1.65.75-.42,1.62-.71,2.62-.87,1-.17,2.06-.25,3.18-.25,1.73,0,3.38.16,4.96.47,1.58.32,2.96.66,4.15,1.02l-1.12,4.89Z"/>
        <path d="M293.16,142.84c0-1.7.81-3.03,2.44-3.99,1.63-.96,4.34-1.46,8.14-1.5-.14-.6-.5-1.02-1.09-1.27-.59-.25-1.3-.37-2.11-.37-.54,0-1.12.05-1.73.15-.61.1-1.2.22-1.76.38-.56.15-1.09.32-1.6.52-.51.2-.93.4-1.27.6l-1.02-4.99c.58-.33,1.25-.62,2.04-.87.78-.25,1.57-.46,2.37-.62.8-.17,1.59-.29,2.37-.37.78-.08,1.46-.12,2.04-.12,1.22,0,2.37.13,3.46.4,1.09.27,2.04.71,2.88,1.32.83.62,1.48,1.43,1.96,2.44.47,1.02.71,2.29.71,3.82v9.48c0,.27-.1.5-.31.7-.2.2-.44.3-.71.3h-12.72c-1.12,0-2.08-.39-2.88-1.17-.8-.78-1.2-1.72-1.2-2.82v-2ZM303.84,142.84v-2.35c-.81.17-1.57.43-2.26.8-.7.37-1.13.88-1.3,1.55h3.56Z"/>
        <path d="M333.87,147.83c0,.27-.1.5-.31.7-.2.2-.44.3-.71.3h-5.09c-.27,0-.51-.1-.71-.3-.2-.2-.31-.43-.31-.7v-10.23c0-.76-.19-1.3-.56-1.6-.37-.3-.75-.45-1.12-.45-.58,0-1.15.19-1.71.57-.56.38-.96.79-1.2,1.22v10.48c0,.27-.1.5-.31.7-.2.2-.44.3-.71.3h-5.09c-.27,0-.51-.1-.71-.3-.2-.2-.31-.43-.31-.7v-16.47c0-.27.1-.5.31-.7.2-.2.44-.3.71-.3h6.11v2c1.02-.57,2.07-1.04,3.16-1.42,1.09-.38,2.14-.57,3.16-.57.75,0,1.45.12,2.11.37s1.23.67,1.71,1.27c.47.6.86,1.37,1.15,2.32.29.95.43,2.12.43,3.52v9.98Z"/>
        <path d="M355.76,148.83c0,1.53-.24,2.8-.71,3.82-.48,1.01-1.13,1.83-1.96,2.44-.83.62-1.79,1.06-2.88,1.32-1.09.27-2.24.4-3.46.4s-2.57-.17-4.15-.5c-1.58-.33-2.96-.83-4.15-1.5l1.53-3.99c.64.2,1.36.37,2.14.52.78.15,1.56.22,2.34.22,1.12,0,2.09-.2,2.93-.6.83-.4,1.25-1.11,1.25-2.15v-1.05c-1.49.6-2.94.9-4.33.9-1.93,0-3.56-.63-4.89-1.9-1.32-1.26-1.98-3.24-1.98-5.94v-9.48c0-.27.1-.5.31-.7.2-.2.44-.3.71-.3h5.09c.27,0,.51.1.71.3.2.2.31.43.31.7v9.98c0,.8.16,1.37.48,1.72.32.35.72.52,1.2.52.71,0,1.51-.3,2.39-.9v-11.33c0-.27.1-.5.31-.7.2-.2.44-.3.71-.3h5.09c.27,0,.51.1.71.3.2.2.31.43.31.7v17.46Z"/>
        <path d="M372.56,148.03c-1.53.5-3,.75-4.43.75-1.19,0-2.29-.18-3.31-.55s-1.89-.91-2.62-1.62c-.73-.71-1.31-1.62-1.73-2.72-.42-1.1-.64-2.38-.64-3.84v-16.67c0-.27.1-.5.31-.7.2-.2.44-.3.71-.3h5.09c.27,0,.51.1.71.3.2.2.31.43.31.7v2.5h4.07c.27,0,.51.1.71.3.2.2.31.43.31.7v3.99c0,.27-.1.5-.31.7-.2.2-.44.3-.71.3h-4.07v8.18c0,.96.26,1.72.79,2.27.53.55,1.26.82,2.21.82h.51c.17,0,.36-.03.56-.1l1.53,4.99Z"/>
        <path d="M393.93,147.83c0,.27-.1.5-.31.7-.2.2-.44.3-.71.3h-5.09c-.27,0-.51-.1-.71-.3-.2-.2-.31-.43-.31-.7v-9.98c0-.86-.2-1.46-.59-1.8-.39-.33-.84-.5-1.35-.5-.44,0-.9.09-1.37.27-.48.18-.9.41-1.27.67v11.33c0,.27-.1.5-.31.7-.2.2-.44.3-.71.3h-5.09c-.27,0-.51-.1-.71-.3-.2-.2-.31-.43-.31-.7v-24.45c0-.27.1-.5.31-.7.2-.2.44-.3.71-.3h5.09c.27,0,.51.1.71.3.2.2.31.43.31.7v8.03c.78-.3,1.59-.54,2.42-.72.83-.18,1.64-.27,2.42-.27.88,0,1.73.13,2.54.4.81.27,1.53.71,2.16,1.32.63.62,1.14,1.43,1.53,2.45.39,1.01.6,2.27.64,3.77v9.48Z"/>
        <path d="M403.6,122.38c.27,0,.51.1.71.3.2.2.3.43.3.7v3.49c0,.27-.1.5-.3.7-.2.2-.44.3-.71.3h-5.09c-.27,0-.51-.1-.71-.3-.2-.2-.3-.43-.3-.7v-3.49c0-.27.1-.5.3-.7.2-.2.44-.3.71-.3h5.09ZM403.6,130.37c.27,0,.51.1.71.3.2.2.3.43.3.7v16.47c0,.27-.1.5-.3.7-.2.2-.44.3-.71.3h-5.09c-.27,0-.51-.1-.71-.3-.2-.2-.3-.43-.3-.7v-16.47c0-.27.1-.5.3-.7.2-.2.44-.3.71-.3h5.09Z"/>
        <path d="M427.53,147.83c0,.27-.1.5-.3.7-.2.2-.44.3-.71.3h-5.09c-.27,0-.51-.1-.71-.3-.2-.2-.3-.43-.3-.7v-10.23c0-.76-.19-1.3-.56-1.6-.37-.3-.75-.45-1.12-.45-.58,0-1.15.19-1.71.57-.56.38-.96.79-1.2,1.22v10.48c0,.27-.1.5-.3.7-.2.2-.44.3-.71.3h-5.09c-.27,0-.51-.1-.71-.3-.2-.2-.3-.43-.3-.7v-16.47c0-.27.1-.5.3-.7.2-.2.44-.3.71-.3h6.11v2c1.02-.57,2.07-1.04,3.16-1.42s2.14-.57,3.16-.57c.75,0,1.45.12,2.11.37.66.25,1.23.67,1.71,1.27.47.6.86,1.37,1.15,2.32.29.95.43,2.12.43,3.52v9.98Z"/>
        <path d="M448.9,148.83c0,1.53-.24,2.8-.71,3.82s-1.13,1.83-1.96,2.44c-.83.62-1.79,1.06-2.88,1.32-1.09.27-2.24.4-3.46.4s-2.57-.17-4.15-.5c-1.58-.33-2.96-.83-4.15-1.5l1.53-3.99c.64.2,1.36.37,2.14.52.78.15,1.56.22,2.34.22,1.12,0,2.09-.2,2.93-.6s1.25-1.11,1.25-2.15h-6.11c-1.42,0-2.63-.48-3.61-1.45s-1.48-2.15-1.48-3.54v-4.99c0-1.46.28-2.73.84-3.79.56-1.06,1.3-1.95,2.21-2.64s1.98-1.21,3.18-1.55c1.2-.33,2.45-.5,3.74-.5,1.49,0,2.96.21,4.4.62,1.44.42,2.76,1.04,3.94,1.87v15.97ZM441.78,141.84v-4.24c-.58-.17-1.09-.25-1.53-.25-.68,0-1.27.13-1.78.4-.51.27-.76.63-.76,1.1v2.99h4.07Z"/>
        <path d="M458.57,142.84c0-1.7.81-3.03,2.44-3.99,1.63-.96,4.34-1.46,8.14-1.5-.14-.6-.5-1.02-1.09-1.27-.59-.25-1.3-.37-2.11-.37-.54,0-1.12.05-1.73.15-.61.1-1.2.22-1.76.38-.56.15-1.09.32-1.6.52-.51.2-.93.4-1.27.6l-1.02-4.99c.58-.33,1.25-.62,2.04-.87.78-.25,1.57-.46,2.37-.62.8-.17,1.59-.29,2.37-.37.78-.08,1.46-.12,2.04-.12,1.22,0,2.37.13,3.46.4,1.08.27,2.04.71,2.88,1.32.83.62,1.48,1.43,1.96,2.44.47,1.02.71,2.29.71,3.82v9.48c0,.27-.1.5-.31.7-.2.2-.44.3-.71.3h-12.72c-1.12,0-2.08-.39-2.88-1.17-.8-.78-1.2-1.72-1.2-2.82v-2ZM469.26,142.84v-2.35c-.81.17-1.57.43-2.26.8-.7.37-1.13.88-1.3,1.55h3.56Z"/>
        <path d="M493.18,148.03c-1.53.5-3,.75-4.43.75-1.19,0-2.29-.18-3.31-.55-1.02-.37-1.89-.91-2.62-1.62-.73-.71-1.31-1.62-1.73-2.72-.42-1.1-.64-2.38-.64-3.84v-16.67c0-.27.1-.5.31-.7.2-.2.44-.3.71-.3h5.09c.27,0,.51.1.71.3.2.2.31.43.31.7v2.5h4.07c.27,0,.51.1.71.3.2.2.31.43.31.7v3.99c0,.27-.1.5-.31.7-.2.2-.44.3-.71.3h-4.07v8.18c0,.96.26,1.72.79,2.27.53.55,1.26.82,2.21.82h.51c.17,0,.36-.03.56-.1l1.53,4.99Z"/>
        <path d="M517,136.75c-1.19-.5-2.43-.93-3.72-1.3-1.29-.37-2.48-.55-3.56-.55-.54,0-.98.06-1.3.17-.32.12-.48.31-.48.57,0,.33.29.6.87.8.58.2,1.3.39,2.16.57.87.18,1.81.41,2.82.67,1.02.27,1.96.62,2.83,1.07s1.59,1.04,2.16,1.77c.58.73.87,1.66.87,2.79,0,1-.23,1.85-.69,2.54-.46.7-1.08,1.26-1.86,1.7-.78.43-1.7.75-2.75.95-1.05.2-2.17.3-3.36.3-1.73,0-3.5-.18-5.29-.55-1.8-.37-3.43-.85-4.89-1.45l1.83-4.34c.54.23,1.14.46,1.78.67.64.22,1.31.42,2.01.6.7.18,1.37.32,2.04.42s1.26.15,1.81.15c.61,0,1.14-.08,1.58-.22.44-.15.66-.41.66-.77,0-.27-.29-.49-.87-.67-.58-.18-1.3-.38-2.16-.57s-1.81-.44-2.82-.72c-1.02-.28-1.96-.67-2.83-1.15s-1.59-1.08-2.16-1.8c-.58-.71-.87-1.62-.87-2.72,0-1.03.21-1.89.64-2.57.42-.68,1.01-1.23,1.76-1.65.75-.42,1.62-.71,2.62-.87,1-.17,2.06-.25,3.18-.25,1.73,0,3.38.16,4.96.47,1.58.32,2.96.66,4.15,1.02l-1.12,4.89Z"/>
        <path d="M522.5,131.37c0-.27.1-.5.31-.7.2-.2.44-.3.71-.3h5.09c.27,0,.51.1.71.3.2.2.31.43.31.7v9.98c0,.87.15,1.46.46,1.8.31.33.7.5,1.17.5.58,0,1.15-.19,1.73-.57.58-.38.98-.79,1.22-1.22v-10.48c0-.27.1-.5.3-.7.2-.2.44-.3.71-.3h5.09c.27,0,.51.1.71.3.2.2.3.43.3.7v16.47c0,.27-.1.5-.3.7-.2.2-.44.3-.71.3h-6.11v-2c-.54.57-1.35,1.04-2.42,1.42-1.07.38-2.2.57-3.38.57-.75,0-1.48-.1-2.19-.3-.71-.2-1.34-.53-1.88-1s-.98-1.08-1.32-1.85c-.34-.76-.51-1.71-.51-2.84v-11.48Z"/>
        <path d="M552.53,148.83v6.99c0,.27-.1.5-.3.7s-.44.3-.71.3h-5.09c-.27,0-.51-.1-.71-.3-.2-.2-.3-.43-.3-.7v-24.45c0-.27.1-.5.3-.7.2-.2.44-.3.71-.3h9.06c1.53,0,2.88.27,4.05.8s2.14,1.23,2.9,2.1,1.34,1.85,1.73,2.97c.39,1.12.58,2.24.58,3.37s-.2,2.3-.58,3.39c-.39,1.1-.97,2.08-1.73,2.94-.76.87-1.73,1.56-2.9,2.1-1.17.53-2.52.8-4.05.8h-2.95ZM555.02,141.84c.88,0,1.54-.23,1.96-.7.42-.47.64-.98.64-1.55s-.21-1.08-.64-1.55c-.42-.47-1.08-.7-1.96-.7h-2.49v4.49h2.49Z"/>
        <path d="M578.74,143.49c.54,0,1.11-.05,1.71-.15.59-.1,1.18-.22,1.76-.38s1.11-.32,1.6-.52c.49-.2.92-.4,1.3-.6l1.02,4.99c-.58.33-1.26.62-2.04.87-.78.25-1.57.46-2.37.62-.8.17-1.59.29-2.37.37-.78.08-1.46.12-2.04.12-1.22,0-2.38-.13-3.46-.4-1.09-.27-2.04-.71-2.88-1.32-.83-.62-1.48-1.43-1.96-2.44-.48-1.02-.71-2.29-.71-3.82v-5.64c0-1.33.51-2.47,1.53-3.42,1.02-.95,2.54-1.42,4.58-1.42h6.62c1.73,0,3.01.37,3.84,1.12.83.75,1.25,1.65,1.25,2.72,0,.83-.23,1.68-.69,2.54-.46.87-1.12,1.69-1.98,2.47s-1.93,1.48-3.18,2.1c-1.26.62-2.68,1.09-4.28,1.42.27.27.65.46,1.14.57.49.12,1.03.17,1.6.17ZM575.43,136.36v3.09c.81-.37,1.57-.81,2.27-1.32s1.13-1.11,1.3-1.77h-3.56Z"/>
        <path d="M608.01,137.35c0,.27-.1.5-.3.7-.2.2-.44.3-.71.3h-6.11v-1.15c0-.5-.15-.85-.46-1.05-.3-.2-.66-.3-1.07-.3-.81,0-1.66.27-2.54.8v11.18c0,.27-.1.5-.3.7-.2.2-.44.3-.71.3h-5.09c-.27,0-.51-.1-.71-.3-.2-.2-.3-.43-.3-.7v-16.47c0-.27.1-.5.3-.7.2-.2.44-.3.71-.3h6.11v2c.98-.63,2.04-1.12,3.18-1.47,1.14-.35,2.21-.52,3.23-.52,1.32,0,2.45.32,3.38.95.93.63,1.4,1.65,1.4,3.04v2.99Z"/>
        <path d="M629.89,147.83c0,.27-.1.5-.31.7-.2.2-.44.3-.71.3h-5.09c-.27,0-.51-.1-.71-.3-.2-.2-.31-.43-.31-.7v-10.23c0-.76-.19-1.3-.56-1.6-.38-.3-.75-.45-1.12-.45-.58,0-1.15.19-1.71.57s-.96.79-1.2,1.22v10.48c0,.27-.1.5-.3.7-.2.2-.44.3-.71.3h-5.09c-.27,0-.51-.1-.71-.3-.2-.2-.3-.43-.3-.7v-16.47c0-.27.1-.5.3-.7.2-.2.44-.3.71-.3h6.11v2c1.02-.57,2.07-1.04,3.16-1.42,1.08-.38,2.14-.57,3.16-.57.75,0,1.45.12,2.11.37s1.23.67,1.71,1.27c.47.6.86,1.37,1.14,2.32.29.95.43,2.12.43,3.52v9.98Z"/>
        <path d="M632.95,142.84c0-1.7.81-3.03,2.44-3.99,1.63-.96,4.34-1.46,8.14-1.5-.14-.6-.5-1.02-1.09-1.27-.59-.25-1.3-.37-2.11-.37-.54,0-1.12.05-1.73.15-.61.1-1.2.22-1.76.38-.56.15-1.09.32-1.6.52-.51.2-.93.4-1.27.6l-1.02-4.99c.58-.33,1.26-.62,2.04-.87.78-.25,1.57-.46,2.37-.62.8-.17,1.59-.29,2.37-.37.78-.08,1.46-.12,2.04-.12,1.22,0,2.37.13,3.46.4,1.08.27,2.04.71,2.88,1.32.83.62,1.48,1.43,1.96,2.44.47,1.02.71,2.29.71,3.82v9.48c0,.27-.1.5-.3.7-.2.2-.44.3-.71.3h-12.72c-1.12,0-2.08-.39-2.88-1.17-.8-.78-1.2-1.72-1.2-2.82v-2ZM643.63,142.84v-2.35c-.81.17-1.57.43-2.27.8-.7.37-1.13.88-1.3,1.55h3.56Z"/>
        <path d="M667.56,148.03c-1.53.5-3,.75-4.43.75-1.19,0-2.29-.18-3.31-.55-1.02-.37-1.89-.91-2.62-1.62-.73-.71-1.31-1.62-1.73-2.72-.43-1.1-.64-2.38-.64-3.84v-16.67c0-.27.1-.5.3-.7.2-.2.44-.3.71-.3h5.09c.27,0,.51.1.71.3.2.2.3.43.3.7v2.5h4.07c.27,0,.51.1.71.3s.3.43.3.7v3.99c0,.27-.1.5-.3.7s-.44.3-.71.3h-4.07v8.18c0,.96.26,1.72.79,2.27s1.26.82,2.21.82h.51c.17,0,.36-.03.56-.1l1.53,4.99Z"/>
        <path d="M670.1,131.37c0-.27.1-.5.3-.7.2-.2.44-.3.71-.3h5.09c.27,0,.51.1.71.3.2.2.3.43.3.7v9.98c0,.87.15,1.46.46,1.8.31.33.7.5,1.17.5.58,0,1.15-.19,1.73-.57.58-.38.98-.79,1.22-1.22v-10.48c0-.27.1-.5.31-.7.2-.2.44-.3.71-.3h5.09c.27,0,.51.1.71.3.2.2.31.43.31.7v16.47c0,.27-.1.5-.31.7-.2.2-.44.3-.71.3h-6.11v-2c-.54.57-1.35,1.04-2.42,1.42-1.07.38-2.2.57-3.38.57-.75,0-1.48-.1-2.19-.3-.71-.2-1.34-.53-1.88-1-.54-.47-.98-1.08-1.32-1.85-.34-.76-.51-1.71-.51-2.84v-11.48Z"/>
        <path d="M711.33,137.35c0,.27-.1.5-.31.7s-.44.3-.71.3h-6.11v-1.15c0-.5-.15-.85-.46-1.05-.3-.2-.66-.3-1.07-.3-.81,0-1.66.27-2.54.8v11.18c0,.27-.1.5-.31.7-.2.2-.44.3-.71.3h-5.09c-.27,0-.51-.1-.71-.3-.2-.2-.31-.43-.31-.7v-16.47c0-.27.1-.5.31-.7.2-.2.44-.3.71-.3h6.11v2c.98-.63,2.04-1.12,3.18-1.47,1.14-.35,2.21-.52,3.23-.52,1.32,0,2.45.32,3.38.95.93.63,1.4,1.65,1.4,3.04v2.99Z"/>
        <path d="M713.87,142.84c0-1.7.81-3.03,2.44-3.99,1.63-.96,4.34-1.46,8.14-1.5-.14-.6-.5-1.02-1.09-1.27-.59-.25-1.3-.37-2.11-.37-.54,0-1.12.05-1.73.15-.61.1-1.2.22-1.76.38-.56.15-1.09.32-1.6.52-.51.2-.93.4-1.27.6l-1.02-4.99c.58-.33,1.25-.62,2.04-.87.78-.25,1.57-.46,2.37-.62.8-.17,1.59-.29,2.37-.37.78-.08,1.46-.12,2.04-.12,1.22,0,2.38.13,3.46.4,1.09.27,2.04.71,2.88,1.32.83.62,1.48,1.43,1.96,2.44.47,1.02.71,2.29.71,3.82v9.48c0,.27-.1.5-.31.7-.2.2-.44.3-.71.3h-12.72c-1.12,0-2.08-.39-2.88-1.17-.8-.78-1.2-1.72-1.2-2.82v-2ZM724.56,142.84v-2.35c-.81.17-1.57.43-2.26.8-.7.37-1.13.88-1.3,1.55h3.56Z"/>
        <path d="M741.87,122.38c.27,0,.51.1.71.3.2.2.31.43.31.7v24.45c0,.27-.1.5-.31.7-.2.2-.44.3-.71.3h-5.09c-.27,0-.51-.1-.71-.3-.2-.2-.31-.43-.31-.7v-24.45c0-.27.1-.5.31-.7.2-.2.44-.3.71-.3h5.09Z"/>
      </g>
      <g class="st1">
        <path d="M181.23,178.67c-1.19-.5-2.43-.93-3.72-1.3-1.29-.37-2.48-.55-3.56-.55-.54,0-.98.06-1.3.17-.32.12-.48.31-.48.57,0,.33.29.6.87.8.58.2,1.3.39,2.16.57.87.18,1.81.41,2.83.67,1.02.27,1.96.62,2.82,1.07s1.59,1.04,2.16,1.77c.58.73.87,1.66.87,2.79,0,1-.23,1.85-.69,2.54s-1.08,1.26-1.86,1.7c-.78.43-1.7.75-2.75.95-1.05.2-2.17.3-3.36.3-1.73,0-3.5-.18-5.29-.55-1.8-.37-3.43-.85-4.89-1.45l1.83-4.34c.54.23,1.14.46,1.78.67.64.22,1.31.42,2.01.6.7.18,1.37.32,2.04.42s1.26.15,1.81.15c.61,0,1.14-.08,1.58-.22.44-.15.66-.41.66-.77,0-.27-.29-.49-.87-.67-.58-.18-1.3-.38-2.16-.57-.87-.2-1.81-.44-2.83-.72s-1.96-.67-2.82-1.15-1.59-1.08-2.16-1.8c-.58-.71-.87-1.62-.87-2.72,0-1.03.21-1.89.64-2.57.42-.68,1.01-1.23,1.76-1.65.75-.42,1.62-.71,2.62-.87,1-.17,2.06-.25,3.18-.25,1.73,0,3.38.16,4.96.47,1.58.32,2.96.66,4.15,1.02l-1.12,4.89Z"/>
        <path d="M193.86,190.75v6.99c0,.27-.1.5-.31.7s-.44.3-.71.3h-5.09c-.27,0-.51-.1-.71-.3s-.31-.43-.31-.7v-24.45c0-.27.1-.5.31-.7.2-.2.44-.3.71-.3h9.06c1.53,0,2.88.27,4.05.8,1.17.53,2.14,1.23,2.9,2.1.76.87,1.34,1.85,1.73,2.97.39,1.12.58,2.24.58,3.37s-.2,2.3-.58,3.39c-.39,1.1-.97,2.08-1.73,2.94-.76.87-1.73,1.56-2.9,2.1-1.17.53-2.52.8-4.05.8h-2.95ZM196.35,183.76c.88,0,1.53-.23,1.96-.7.42-.47.64-.98.64-1.55s-.21-1.08-.64-1.55c-.42-.47-1.08-.7-1.96-.7h-2.49v4.49h2.49Z"/>
        <path d="M220.07,185.41c.54,0,1.11-.05,1.71-.15.59-.1,1.18-.22,1.76-.38.58-.15,1.11-.32,1.6-.52.49-.2.92-.4,1.3-.6l1.02,4.99c-.58.33-1.26.62-2.04.87-.78.25-1.57.46-2.37.62-.8.17-1.59.29-2.37.37-.78.08-1.46.12-2.04.12-1.22,0-2.38-.13-3.46-.4-1.09-.27-2.04-.71-2.88-1.32-.83-.62-1.48-1.43-1.96-2.44-.48-1.02-.71-2.29-.71-3.82v-5.64c0-1.33.51-2.47,1.53-3.42,1.02-.95,2.54-1.42,4.58-1.42h6.62c1.73,0,3.01.37,3.84,1.12.83.75,1.25,1.65,1.25,2.72,0,.83-.23,1.68-.69,2.54-.46.87-1.12,1.69-1.98,2.47s-1.93,1.48-3.18,2.1c-1.26.62-2.68,1.09-4.28,1.42.27.27.65.46,1.15.57.49.12,1.03.17,1.6.17ZM216.76,178.28v3.09c.81-.37,1.57-.81,2.27-1.32.69-.52,1.13-1.11,1.3-1.77h-3.56Z"/>
        <path d="M241.44,185.41c.54,0,1.11-.05,1.71-.15.59-.1,1.18-.22,1.76-.38.58-.15,1.11-.32,1.6-.52.49-.2.92-.4,1.3-.6l1.02,4.99c-.58.33-1.26.62-2.04.87-.78.25-1.57.46-2.37.62-.8.17-1.59.29-2.37.37-.78.08-1.46.12-2.04.12-1.22,0-2.38-.13-3.46-.4-1.09-.27-2.04-.71-2.88-1.32-.83-.62-1.48-1.43-1.96-2.44-.48-1.02-.71-2.29-.71-3.82v-5.64c0-1.33.51-2.47,1.53-3.42,1.02-.95,2.54-1.42,4.58-1.42h6.62c1.73,0,3.01.37,3.84,1.12.83.75,1.25,1.65,1.25,2.72,0,.83-.23,1.68-.69,2.54-.46.87-1.12,1.69-1.98,2.47s-1.93,1.48-3.18,2.1c-1.26.62-2.68,1.09-4.28,1.42.27.27.65.46,1.15.57.49.12,1.03.17,1.6.17ZM238.14,178.28v3.09c.81-.37,1.57-.81,2.27-1.32.69-.52,1.13-1.11,1.3-1.77h-3.56Z"/>
        <path d="M264.09,172.29v-6.99c0-.27.1-.5.31-.7.2-.2.44-.3.71-.3h5.09c.27,0,.51.1.71.3.2.2.31.43.31.7v24.45c0,.27-.1.5-.31.7-.2.2-.44.3-.71.3h-9.06c-1.53,0-2.88-.27-4.05-.8-1.17-.53-2.14-1.23-2.9-2.1-.76-.86-1.34-1.85-1.73-2.94-.39-1.1-.59-2.23-.59-3.39s.19-2.3.59-3.39c.39-1.1.97-2.08,1.73-2.94s1.73-1.56,2.9-2.1c1.17-.53,2.52-.8,4.05-.8h2.95ZM261.6,179.27c-.88,0-1.54.23-1.96.7-.42.47-.64.98-.64,1.55s.21,1.08.64,1.55c.42.47,1.08.7,1.96.7h2.49v-4.49h-2.49Z"/>
        <path d="M278.35,190.75c-.27,0-.51-.1-.71-.3-.2-.2-.31-.43-.31-.7v-4.99c0-.27.1-.5.31-.7s.44-.3.71-.3h5.09c.27,0,.51.1.71.3s.31.43.31.7v4.99c0,.27-.1.5-.31.7-.2.2-.44.3-.71.3h-5.09Z"/>
      </g>
    </g>
  </g>
</svg>